<?xml version="1.0" encoding="utf-8" standalone="no"?>
<!DOCTYPE svg PUBLIC "-//W3C//DTD SVG 1.1//EN"
  "http://www.w3.org/Graphics/SVG/1.1/DTD/svg11.dtd">
<svg xmlns:xlink="http://www.w3.org/1999/xlink" width="494.613872pt" height="636.279861pt" viewBox="0 0 494.613872 636.279861" xmlns="http://www.w3.org/2000/svg" version="1.1">
 <metadata>
  <rdf:RDF xmlns:dc="http://purl.org/dc/elements/1.1/" xmlns:cc="http://creativecommons.org/ns#" xmlns:rdf="http://www.w3.org/1999/02/22-rdf-syntax-ns#">
   <cc:Work>
    <dc:type rdf:resource="http://purl.org/dc/dcmitype/StillImage"/>
    <dc:date>2024-09-24T17:26:34.864579</dc:date>
    <dc:format>image/svg+xml</dc:format>
    <dc:creator>
     <cc:Agent>
      <dc:title>Matplotlib v3.7.0, https://matplotlib.org/</dc:title>
     </cc:Agent>
    </dc:creator>
   </cc:Work>
  </rdf:RDF>
 </metadata>
 <defs>
  <style type="text/css">*{stroke-linejoin: round; stroke-linecap: butt}</style>
 </defs>
 <g id="figure_1">
  <g id="patch_1">
   <path d="M -0 636.279861 
L 494.613872 636.279861 
L 494.613872 0 
L -0 0 
z
" style="fill: #ffffff"/>
  </g>
  <g id="axes_1">
   <g id="patch_2">
    <path d="M 65.838281 629.079861 
L 487.413872 629.079861 
L 487.413872 20.112932 
L 65.838281 20.112932 
z
" style="fill: #ffffff"/>
   </g>
   <g id="patch_3">
    <path d="M 65.838281 47.793247 
L 227.291397 47.793247 
L 227.291397 109.305058 
L 65.838281 109.305058 
z
" clip-path="url(#p6bb3a06d5f)" style="fill: #fff2cc; stroke: #d6b656; stroke-linejoin: miter"/>
   </g>
   <g id="patch_4">
    <path d="M 65.838281 170.816869 
L 201.805557 170.816869 
L 201.805557 232.32868 
L 65.838281 232.32868 
z
" clip-path="url(#p6bb3a06d5f)" style="fill: #fff2cc; stroke: #d6b656; stroke-linejoin: miter"/>
   </g>
   <g id="patch_5">
    <path d="M 65.838281 293.840491 
L 183.830658 293.840491 
L 183.830658 355.352302 
L 65.838281 355.352302 
z
" clip-path="url(#p6bb3a06d5f)" style="fill: #fff2cc; stroke: #d6b656; stroke-linejoin: miter"/>
   </g>
   <g id="patch_6">
    <path d="M 65.838281 416.864113 
L 191.213206 416.864113 
L 191.213206 478.375924 
L 65.838281 478.375924 
z
" clip-path="url(#p6bb3a06d5f)" style="fill: #fff2cc; stroke: #d6b656; stroke-linejoin: miter"/>
   </g>
   <g id="patch_7">
    <path d="M 65.838281 539.887735 
L 210.536223 539.887735 
L 210.536223 601.399546 
L 65.838281 601.399546 
z
" clip-path="url(#p6bb3a06d5f)" style="fill: #fff2cc; stroke: #d6b656; stroke-linejoin: miter"/>
   </g>
   <g id="patch_8">
    <path d="M 227.291397 47.793247 
L 235.765278 47.793247 
L 235.765278 109.305058 
L 227.291397 109.305058 
z
" clip-path="url(#p6bb3a06d5f)" style="fill: #f8cecc; stroke: #b85450; stroke-linejoin: miter"/>
   </g>
   <g id="patch_9">
    <path d="M 201.805557 170.816869 
L 235.765278 170.816869 
L 235.765278 232.32868 
L 201.805557 232.32868 
z
" clip-path="url(#p6bb3a06d5f)" style="fill: #f8cecc; stroke: #b85450; stroke-linejoin: miter"/>
   </g>
   <g id="patch_10">
    <path d="M 183.830658 293.840491 
L 235.765278 293.840491 
L 235.765278 355.352302 
L 183.830658 355.352302 
z
" clip-path="url(#p6bb3a06d5f)" style="fill: #f8cecc; stroke: #b85450; stroke-linejoin: miter"/>
   </g>
   <g id="patch_11">
    <path d="M 191.213206 416.864113 
L 235.765278 416.864113 
L 235.765278 478.375924 
L 191.213206 478.375924 
z
" clip-path="url(#p6bb3a06d5f)" style="fill: #f8cecc; stroke: #b85450; stroke-linejoin: miter"/>
   </g>
   <g id="patch_12">
    <path d="M 210.536223 539.887735 
L 235.765278 539.887735 
L 235.765278 601.399546 
L 210.536223 601.399546 
z
" clip-path="url(#p6bb3a06d5f)" style="fill: #f8cecc; stroke: #b85450; stroke-linejoin: miter"/>
   </g>
   <g id="patch_13">
    <path d="M 235.765278 47.793247 
L 383.608827 47.793247 
L 383.608827 109.305058 
L 235.765278 109.305058 
z
" clip-path="url(#p6bb3a06d5f)" style="fill: #dae8fc; stroke: #6c8ebf; stroke-linejoin: miter"/>
   </g>
   <g id="patch_14">
    <path d="M 235.765278 170.816869 
L 369.100515 170.816869 
L 369.100515 232.32868 
L 235.765278 232.32868 
z
" clip-path="url(#p6bb3a06d5f)" style="fill: #dae8fc; stroke: #6c8ebf; stroke-linejoin: miter"/>
   </g>
   <g id="patch_15">
    <path d="M 235.765278 293.840491 
L 337.451853 293.840491 
L 337.451853 355.352302 
L 235.765278 355.352302 
z
" clip-path="url(#p6bb3a06d5f)" style="fill: #dae8fc; stroke: #6c8ebf; stroke-linejoin: miter"/>
   </g>
   <g id="patch_16">
    <path d="M 235.765278 416.864113 
L 376.932436 416.864113 
L 376.932436 478.375924 
L 235.765278 478.375924 
z
" clip-path="url(#p6bb3a06d5f)" style="fill: #dae8fc; stroke: #6c8ebf; stroke-linejoin: miter"/>
   </g>
   <g id="patch_17">
    <path d="M 235.765278 539.887735 
L 352.024361 539.887735 
L 352.024361 601.399546 
L 235.765278 601.399546 
z
" clip-path="url(#p6bb3a06d5f)" style="fill: #dae8fc; stroke: #6c8ebf; stroke-linejoin: miter"/>
   </g>
   <g id="patch_18">
    <path d="M 383.608827 47.793247 
L 487.413872 47.793247 
L 487.413872 109.305058 
L 383.608827 109.305058 
z
" clip-path="url(#p6bb3a06d5f)" style="fill: #d5e8d4; stroke: #82b366; stroke-linejoin: miter"/>
   </g>
   <g id="patch_19">
    <path d="M 369.100515 170.816869 
L 487.413872 170.816869 
L 487.413872 232.32868 
L 369.100515 232.32868 
z
" clip-path="url(#p6bb3a06d5f)" style="fill: #d5e8d4; stroke: #82b366; stroke-linejoin: miter"/>
   </g>
   <g id="patch_20">
    <path d="M 337.451853 293.840491 
L 487.413872 293.840491 
L 487.413872 355.352302 
L 337.451853 355.352302 
z
" clip-path="url(#p6bb3a06d5f)" style="fill: #d5e8d4; stroke: #82b366; stroke-linejoin: miter"/>
   </g>
   <g id="patch_21">
    <path d="M 376.932436 416.864113 
L 487.413872 416.864113 
L 487.413872 478.375924 
L 376.932436 478.375924 
z
" clip-path="url(#p6bb3a06d5f)" style="fill: #d5e8d4; stroke: #82b366; stroke-linejoin: miter"/>
   </g>
   <g id="patch_22">
    <path d="M 352.024361 539.887735 
L 487.413872 539.887735 
L 487.413872 601.399546 
L 352.024361 601.399546 
z
" clip-path="url(#p6bb3a06d5f)" style="fill: #d5e8d4; stroke: #82b366; stroke-linejoin: miter"/>
   </g>
   <g id="matplotlib.axis_1">
    <g id="ytick_1">
     <g id="line2d_1">
      <defs>
       <path id="m3eee284acd" d="M 0 0 
L -3.5 0 
" style="stroke: #000000; stroke-width: 0.8"/>
      </defs>
      <g>
       <use xlink:href="#m3eee284acd" x="65.838281" y="78.549152" style="stroke: #000000; stroke-width: 0.8"/>
      </g>
     </g>
     <g id="text_1">
      <text style="font: 7px 'Arial'; text-anchor: end" x="58.838281" y="81.054387" transform="rotate(-0 58.838281 81.054387)">AP</text>
     </g>
    </g>
    <g id="ytick_2">
     <g id="line2d_2">
      <g>
       <use xlink:href="#m3eee284acd" x="65.838281" y="201.572774" style="stroke: #000000; stroke-width: 0.8"/>
      </g>
     </g>
     <g id="text_2">
      <text style="font: 7px 'Arial'; text-anchor: end" x="58.838281" y="204.078009" transform="rotate(-0 58.838281 204.078009)">SP</text>
     </g>
    </g>
    <g id="ytick_3">
     <g id="line2d_3">
      <g>
       <use xlink:href="#m3eee284acd" x="65.838281" y="324.596396" style="stroke: #000000; stroke-width: 0.8"/>
      </g>
     </g>
     <g id="text_3">
      <text style="font: 7px 'Arial'; text-anchor: end" x="58.838281" y="327.101631" transform="rotate(-0 58.838281 327.101631)">AP-SP</text>
     </g>
    </g>
    <g id="ytick_4">
     <g id="line2d_4">
      <g>
       <use xlink:href="#m3eee284acd" x="65.838281" y="447.620018" style="stroke: #000000; stroke-width: 0.8"/>
      </g>
     </g>
     <g id="text_4">
      <text style="font: 7px 'Arial'; text-anchor: end" x="58.838281" y="450.125253" transform="rotate(-0 58.838281 450.125253)">t-SNE SP</text>
     </g>
    </g>
    <g id="ytick_5">
     <g id="line2d_5">
      <g>
       <use xlink:href="#m3eee284acd" x="65.838281" y="570.64364" style="stroke: #000000; stroke-width: 0.8"/>
      </g>
     </g>
     <g id="text_5">
      <text style="font: 7px 'Arial'; text-anchor: end" x="58.838281" y="573.148875" transform="rotate(-0 58.838281 573.148875)">t-SNE AP-SP</text>
     </g>
    </g>
    <g id="text_6">
     <text style="font: 7px 'Arial'; text-anchor: middle" x="12.210469" y="324.596396" transform="rotate(-90 12.210469 324.596396)">Model</text>
    </g>
   </g>
   <g id="patch_23">
    <path d="M 65.838281 629.079861 
L 65.838281 20.112932 
" style="fill: none; stroke: #000000; stroke-width: 0.8; stroke-linejoin: miter; stroke-linecap: square"/>
   </g>
   <g id="patch_24">
    <path d="M 487.413872 629.079861 
L 487.413872 20.112932 
" style="fill: none; stroke: #000000; stroke-width: 0.8; stroke-linejoin: miter; stroke-linecap: square"/>
   </g>
   <g id="patch_25">
    <path d="M 65.838281 629.079861 
L 487.413872 629.079861 
" style="fill: none; stroke: #000000; stroke-width: 0.8; stroke-linejoin: miter; stroke-linecap: square"/>
   </g>
   <g id="patch_26">
    <path d="M 65.838281 20.112932 
L 487.413872 20.112932 
" style="fill: none; stroke: #000000; stroke-width: 0.8; stroke-linejoin: miter; stroke-linecap: square"/>
   </g>
   <g id="text_7">
    <text style="font: 7px 'Arial'; text-anchor: middle" x="146.564839" y="80.358762" transform="rotate(-0 146.564839 80.358762)">2515</text>
   </g>
   <g id="text_8">
    <text style="font: 7px 'Arial'; text-anchor: middle" x="133.821919" y="203.382384" transform="rotate(-0 133.821919 203.382384)">2118</text>
   </g>
   <g id="text_9">
    <text style="font: 7px 'Arial'; text-anchor: middle" x="124.834469" y="326.406006" transform="rotate(-0 124.834469 326.406006)">1838</text>
   </g>
   <g id="text_10">
    <text style="font: 7px 'Arial'; text-anchor: middle" x="128.525743" y="449.429628" transform="rotate(-0 128.525743 449.429628)">1953</text>
   </g>
   <g id="text_11">
    <text style="font: 7px 'Arial'; text-anchor: middle" x="138.187252" y="572.45325" transform="rotate(-0 138.187252 572.45325)">2254</text>
   </g>
   <g id="text_12">
    <text style="font: 7px 'Arial'; text-anchor: middle" x="231.528337" y="80.358762" transform="rotate(-0 231.528337 80.358762)">132</text>
   </g>
   <g id="text_13">
    <text style="font: 7px 'Arial'; text-anchor: middle" x="218.785418" y="203.382384" transform="rotate(-0 218.785418 203.382384)">529</text>
   </g>
   <g id="text_14">
    <text style="font: 7px 'Arial'; text-anchor: middle" x="209.797968" y="326.406006" transform="rotate(-0 209.797968 326.406006)">809</text>
   </g>
   <g id="text_15">
    <text style="font: 7px 'Arial'; text-anchor: middle" x="213.489242" y="449.429628" transform="rotate(-0 213.489242 449.429628)">694</text>
   </g>
   <g id="text_16">
    <text style="font: 7px 'Arial'; text-anchor: middle" x="223.15075" y="572.45325" transform="rotate(-0 223.15075 572.45325)">393</text>
   </g>
   <g id="text_17">
    <text style="font: 7px 'Arial'; text-anchor: middle" x="309.687052" y="80.358762" transform="rotate(-0 309.687052 80.358762)">2303</text>
   </g>
   <g id="text_18">
    <text style="font: 7px 'Arial'; text-anchor: middle" x="302.432897" y="203.382384" transform="rotate(-0 302.432897 203.382384)">2077</text>
   </g>
   <g id="text_19">
    <text style="font: 7px 'Arial'; text-anchor: middle" x="286.608565" y="326.406006" transform="rotate(-0 286.608565 326.406006)">1584</text>
   </g>
   <g id="text_20">
    <text style="font: 7px 'Arial'; text-anchor: middle" x="306.348857" y="449.429628" transform="rotate(-0 306.348857 449.429628)">2199</text>
   </g>
   <g id="text_21">
    <text style="font: 7px 'Arial'; text-anchor: middle" x="293.894819" y="572.45325" transform="rotate(-0 293.894819 572.45325)">1811</text>
   </g>
   <g id="text_22">
    <text style="font: 7px 'Arial'; text-anchor: middle" x="435.511349" y="80.358762" transform="rotate(-0 435.511349 80.358762)">1617</text>
   </g>
   <g id="text_23">
    <text style="font: 7px 'Arial'; text-anchor: middle" x="428.257193" y="203.382384" transform="rotate(-0 428.257193 203.382384)">1843</text>
   </g>
   <g id="text_24">
    <text style="font: 7px 'Arial'; text-anchor: middle" x="412.432862" y="326.406006" transform="rotate(-0 412.432862 326.406006)">2336</text>
   </g>
   <g id="text_25">
    <text style="font: 7px 'Arial'; text-anchor: middle" x="432.173154" y="449.429628" transform="rotate(-0 432.173154 449.429628)">1721</text>
   </g>
   <g id="text_26">
    <text style="font: 7px 'Arial'; text-anchor: middle" x="419.719116" y="572.45325" transform="rotate(-0 419.719116 572.45325)">2109</text>
   </g>
   <g id="legend_1">
    <g id="patch_27">
     <path d="M 69.919981 17.197432 
L 202.992512 17.197432 
Q 204.158712 17.197432 204.158712 16.031232 
L 204.158712 8.3662 
Q 204.158712 7.2 202.992512 7.2 
L 69.919981 7.2 
Q 68.753781 7.2 68.753781 8.3662 
L 68.753781 16.031232 
Q 68.753781 17.197432 69.919981 17.197432 
z
" style="fill: #ffffff; opacity: 0.8; stroke: #cccccc; stroke-linejoin: miter"/>
    </g>
    <g id="patch_28">
     <path d="M 71.086181 13.70612 
L 82.748181 13.70612 
L 82.748181 9.62442 
L 71.086181 9.62442 
z
" style="fill: #fff2cc; stroke: #d6b656; stroke-linejoin: miter"/>
    </g>
    <g id="text_27">
     <text style="font: 5.831px 'Arial'; text-anchor: start" x="87.412981" y="13.70612" transform="rotate(-0 87.412981 13.70612)">TN</text>
    </g>
    <g id="patch_29">
     <path d="M 106.847522 13.70612 
L 118.509522 13.70612 
L 118.509522 9.62442 
L 106.847522 9.62442 
z
" style="fill: #f8cecc; stroke: #b85450; stroke-linejoin: miter"/>
    </g>
    <g id="text_28">
     <text style="font: 5.831px 'Arial'; text-anchor: start" x="123.174322" y="13.70612" transform="rotate(-0 123.174322 13.70612)">FP</text>
    </g>
    <g id="patch_30">
     <path d="M 142.287247 13.70612 
L 153.949247 13.70612 
L 153.949247 9.62442 
L 142.287247 9.62442 
z
" style="fill: #dae8fc; stroke: #6c8ebf; stroke-linejoin: miter"/>
    </g>
    <g id="text_29">
     <text style="font: 5.831px 'Arial'; text-anchor: start" x="158.614047" y="13.70612" transform="rotate(-0 158.614047 13.70612)">FN</text>
    </g>
    <g id="patch_31">
     <path d="M 178.048587 13.70612 
L 189.710588 13.70612 
L 189.710588 9.62442 
L 178.048587 9.62442 
z
" style="fill: #d5e8d4; stroke: #82b366; stroke-linejoin: miter"/>
    </g>
    <g id="text_30">
     <text style="font: 5.831px 'Arial'; text-anchor: start" x="194.375387" y="13.70612" transform="rotate(-0 194.375387 13.70612)">TP</text>
    </g>
   </g>
  </g>
 </g>
 <defs>
  <clipPath id="p6bb3a06d5f">
   <rect x="65.838281" y="20.112932" width="421.575591" height="608.966929"/>
  </clipPath>
 </defs>
</svg>
