<?xml version="1.0" encoding="utf-8" standalone="no"?>
<!DOCTYPE svg PUBLIC "-//W3C//DTD SVG 1.1//EN"
  "http://www.w3.org/Graphics/SVG/1.1/DTD/svg11.dtd">
<svg xmlns:xlink="http://www.w3.org/1999/xlink" width="441.041277pt" height="360.155625pt" viewBox="0 0 441.041277 360.155625" xmlns="http://www.w3.org/2000/svg" version="1.1">
 <metadata>
  <rdf:RDF xmlns:dc="http://purl.org/dc/elements/1.1/" xmlns:cc="http://creativecommons.org/ns#" xmlns:rdf="http://www.w3.org/1999/02/22-rdf-syntax-ns#">
   <cc:Work>
    <dc:type rdf:resource="http://purl.org/dc/dcmitype/StillImage"/>
    <dc:date>2024-09-24T13:51:50.054015</dc:date>
    <dc:format>image/svg+xml</dc:format>
    <dc:creator>
     <cc:Agent>
      <dc:title>Matplotlib v3.7.0, https://matplotlib.org/</dc:title>
     </cc:Agent>
    </dc:creator>
   </cc:Work>
  </rdf:RDF>
 </metadata>
 <defs>
  <style type="text/css">*{stroke-linejoin: round; stroke-linecap: butt}</style>
 </defs>
 <g id="figure_1">
  <g id="patch_1">
   <path d="M -0 360.155625 
L 441.041277 360.155625 
L 441.041277 -0 
L -0 -0 
z
" style="fill: #ffffff"/>
  </g>
  <g id="axes_1">
   <g id="patch_2">
    <path d="M 74.47875 299.371875 
L 431.59875 299.371875 
L 431.59875 33.259875 
L 74.47875 33.259875 
z
" style="fill: #ffffff"/>
   </g>
   <g id="PathCollection_1">
    <defs>
     <path id="md199d5830e" d="M 0 3 
C 0.795609 3 1.55874 2.683901 2.12132 2.12132 
C 2.683901 1.55874 3 0.795609 3 0 
C 3 -0.795609 2.683901 -1.55874 2.12132 -2.12132 
C 1.55874 -2.683901 0.795609 -3 0 -3 
C -0.795609 -3 -1.55874 -2.683901 -2.12132 -2.12132 
C -2.683901 -1.55874 -3 -0.795609 -3 0 
C -3 0.795609 -2.683901 1.55874 -2.12132 2.12132 
C -1.55874 2.683901 -0.795609 3 0 3 
z
" style="stroke: #2e85ff"/>
    </defs>
    <g clip-path="url(#p16e07f49c9)">
     <use xlink:href="#md199d5830e" x="258.529403" y="45.355875" style="fill: #2e85ff; stroke: #2e85ff"/>
     <use xlink:href="#md199d5830e" x="205.476199" y="45.355875" style="fill: #2e85ff; stroke: #2e85ff"/>
     <use xlink:href="#md199d5830e" x="185.652647" y="45.355875" style="fill: #2e85ff; stroke: #2e85ff"/>
     <use xlink:href="#md199d5830e" x="229.723061" y="45.355875" style="fill: #2e85ff; stroke: #2e85ff"/>
     <use xlink:href="#md199d5830e" x="208.846028" y="45.355875" style="fill: #2e85ff; stroke: #2e85ff"/>
     <use xlink:href="#md199d5830e" x="214.639862" y="45.355875" style="fill: #2e85ff; stroke: #2e85ff"/>
     <use xlink:href="#md199d5830e" x="210.682229" y="45.355875" style="fill: #2e85ff; stroke: #2e85ff"/>
     <use xlink:href="#md199d5830e" x="160.336125" y="45.355875" style="fill: #2e85ff; stroke: #2e85ff"/>
     <use xlink:href="#md199d5830e" x="149.810336" y="45.355875" style="fill: #2e85ff; stroke: #2e85ff"/>
     <use xlink:href="#md199d5830e" x="146.3948" y="45.355875" style="fill: #2e85ff; stroke: #2e85ff"/>
     <use xlink:href="#md199d5830e" x="215.368756" y="45.355875" style="fill: #2e85ff; stroke: #2e85ff"/>
     <use xlink:href="#md199d5830e" x="120.662221" y="45.355875" style="fill: #2e85ff; stroke: #2e85ff"/>
     <use xlink:href="#md199d5830e" x="103.85996" y="45.355875" style="fill: #2e85ff; stroke: #2e85ff"/>
     <use xlink:href="#md199d5830e" x="219.161062" y="45.355875" style="fill: #2e85ff; stroke: #2e85ff"/>
     <use xlink:href="#md199d5830e" x="204.044611" y="45.355875" style="fill: #2e85ff; stroke: #2e85ff"/>
     <use xlink:href="#md199d5830e" x="157.411845" y="45.355875" style="fill: #2e85ff; stroke: #2e85ff"/>
     <use xlink:href="#md199d5830e" x="144.196252" y="45.355875" style="fill: #2e85ff; stroke: #2e85ff"/>
     <use xlink:href="#md199d5830e" x="161.193531" y="45.355875" style="fill: #2e85ff; stroke: #2e85ff"/>
     <use xlink:href="#md199d5830e" x="371.949044" y="45.355875" style="fill: #2e85ff; stroke: #2e85ff"/>
     <use xlink:href="#md199d5830e" x="395.75702" y="45.355875" style="fill: #2e85ff; stroke: #2e85ff"/>
     <use xlink:href="#md199d5830e" x="367.933095" y="45.355875" style="fill: #2e85ff; stroke: #2e85ff"/>
     <use xlink:href="#md199d5830e" x="375.223086" y="45.355875" style="fill: #2e85ff; stroke: #2e85ff"/>
     <use xlink:href="#md199d5830e" x="411.143891" y="45.355875" style="fill: #2e85ff; stroke: #2e85ff"/>
     <use xlink:href="#md199d5830e" x="410.579948" y="45.355875" style="fill: #2e85ff; stroke: #2e85ff"/>
     <use xlink:href="#md199d5830e" x="410.206915" y="45.355875" style="fill: #2e85ff; stroke: #2e85ff"/>
     <use xlink:href="#md199d5830e" x="331.014997" y="45.355875" style="fill: #2e85ff; stroke: #2e85ff"/>
     <use xlink:href="#md199d5830e" x="376.991329" y="45.355875" style="fill: #2e85ff; stroke: #2e85ff"/>
     <use xlink:href="#md199d5830e" x="414.284076" y="45.355875" style="fill: #2e85ff; stroke: #2e85ff"/>
     <use xlink:href="#md199d5830e" x="404.931806" y="45.355875" style="fill: #2e85ff; stroke: #2e85ff"/>
     <use xlink:href="#md199d5830e" x="398.499282" y="45.355875" style="fill: #2e85ff; stroke: #2e85ff"/>
     <use xlink:href="#md199d5830e" x="412.558108" y="45.355875" style="fill: #2e85ff; stroke: #2e85ff"/>
     <use xlink:href="#md199d5830e" x="412.682626" y="45.355875" style="fill: #2e85ff; stroke: #2e85ff"/>
     <use xlink:href="#md199d5830e" x="405.690628" y="45.355875" style="fill: #2e85ff; stroke: #2e85ff"/>
     <use xlink:href="#md199d5830e" x="312.268344" y="45.355875" style="fill: #2e85ff; stroke: #2e85ff"/>
     <use xlink:href="#md199d5830e" x="411.646134" y="45.355875" style="fill: #2e85ff; stroke: #2e85ff"/>
     <use xlink:href="#md199d5830e" x="412.774608" y="45.355875" style="fill: #2e85ff; stroke: #2e85ff"/>
     <use xlink:href="#md199d5830e" x="408.263097" y="45.355875" style="fill: #2e85ff; stroke: #2e85ff"/>
     <use xlink:href="#md199d5830e" x="409.124805" y="45.355875" style="fill: #2e85ff; stroke: #2e85ff"/>
     <use xlink:href="#md199d5830e" x="414.073609" y="45.355875" style="fill: #2e85ff; stroke: #2e85ff"/>
     <use xlink:href="#md199d5830e" x="393.137246" y="45.355875" style="fill: #2e85ff; stroke: #2e85ff"/>
     <use xlink:href="#md199d5830e" x="246.360195" y="45.355875" style="fill: #2e85ff; stroke: #2e85ff"/>
     <use xlink:href="#md199d5830e" x="408.166021" y="45.355875" style="fill: #2e85ff; stroke: #2e85ff"/>
     <use xlink:href="#md199d5830e" x="407.750546" y="45.355875" style="fill: #2e85ff; stroke: #2e85ff"/>
     <use xlink:href="#md199d5830e" x="412.565623" y="45.355875" style="fill: #2e85ff; stroke: #2e85ff"/>
     <use xlink:href="#md199d5830e" x="359.797002" y="45.355875" style="fill: #2e85ff; stroke: #2e85ff"/>
     <use xlink:href="#md199d5830e" x="190.554752" y="287.275875" style="fill: #2e85ff; stroke: #2e85ff"/>
     <use xlink:href="#md199d5830e" x="114.431163" y="287.275875" style="fill: #2e85ff; stroke: #2e85ff"/>
     <use xlink:href="#md199d5830e" x="97.47297" y="287.275875" style="fill: #2e85ff; stroke: #2e85ff"/>
     <use xlink:href="#md199d5830e" x="90.711477" y="287.275875" style="fill: #2e85ff; stroke: #2e85ff"/>
     <use xlink:href="#md199d5830e" x="125.612957" y="287.275875" style="fill: #2e85ff; stroke: #2e85ff"/>
     <use xlink:href="#md199d5830e" x="221.827879" y="287.275875" style="fill: #2e85ff; stroke: #2e85ff"/>
     <use xlink:href="#md199d5830e" x="135.093055" y="287.275875" style="fill: #2e85ff; stroke: #2e85ff"/>
     <use xlink:href="#md199d5830e" x="136.247807" y="287.275875" style="fill: #2e85ff; stroke: #2e85ff"/>
     <use xlink:href="#md199d5830e" x="157.505839" y="287.275875" style="fill: #2e85ff; stroke: #2e85ff"/>
     <use xlink:href="#md199d5830e" x="129.40761" y="287.275875" style="fill: #2e85ff; stroke: #2e85ff"/>
     <use xlink:href="#md199d5830e" x="97.465307" y="287.275875" style="fill: #2e85ff; stroke: #2e85ff"/>
     <use xlink:href="#md199d5830e" x="160.983121" y="287.275875" style="fill: #2e85ff; stroke: #2e85ff"/>
     <use xlink:href="#md199d5830e" x="98.118132" y="287.275875" style="fill: #2e85ff; stroke: #2e85ff"/>
     <use xlink:href="#md199d5830e" x="387.839648" y="287.275875" style="fill: #2e85ff; stroke: #2e85ff"/>
     <use xlink:href="#md199d5830e" x="393.728129" y="287.275875" style="fill: #2e85ff; stroke: #2e85ff"/>
     <use xlink:href="#md199d5830e" x="413.191806" y="287.275875" style="fill: #2e85ff; stroke: #2e85ff"/>
     <use xlink:href="#md199d5830e" x="391.220106" y="287.275875" style="fill: #2e85ff; stroke: #2e85ff"/>
     <use xlink:href="#md199d5830e" x="394.638314" y="287.275875" style="fill: #2e85ff; stroke: #2e85ff"/>
     <use xlink:href="#md199d5830e" x="393.681011" y="287.275875" style="fill: #2e85ff; stroke: #2e85ff"/>
     <use xlink:href="#md199d5830e" x="406.248314" y="287.275875" style="fill: #2e85ff; stroke: #2e85ff"/>
     <use xlink:href="#md199d5830e" x="389.229394" y="287.275875" style="fill: #2e85ff; stroke: #2e85ff"/>
     <use xlink:href="#md199d5830e" x="398.535109" y="287.275875" style="fill: #2e85ff; stroke: #2e85ff"/>
     <use xlink:href="#md199d5830e" x="403.926714" y="287.275875" style="fill: #2e85ff; stroke: #2e85ff"/>
     <use xlink:href="#md199d5830e" x="405.327438" y="287.275875" style="fill: #2e85ff; stroke: #2e85ff"/>
     <use xlink:href="#md199d5830e" x="413.266133" y="287.275875" style="fill: #2e85ff; stroke: #2e85ff"/>
     <use xlink:href="#md199d5830e" x="413.177578" y="287.275875" style="fill: #2e85ff; stroke: #2e85ff"/>
     <use xlink:href="#md199d5830e" x="389.201831" y="45.355875" style="fill: #2e85ff; stroke: #2e85ff"/>
     <use xlink:href="#md199d5830e" x="388.718616" y="45.355875" style="fill: #2e85ff; stroke: #2e85ff"/>
     <use xlink:href="#md199d5830e" x="387.140609" y="45.355875" style="fill: #2e85ff; stroke: #2e85ff"/>
     <use xlink:href="#md199d5830e" x="406.806558" y="45.355875" style="fill: #2e85ff; stroke: #2e85ff"/>
     <use xlink:href="#md199d5830e" x="410.692458" y="45.355875" style="fill: #2e85ff; stroke: #2e85ff"/>
     <use xlink:href="#md199d5830e" x="407.869691" y="45.355875" style="fill: #2e85ff; stroke: #2e85ff"/>
     <use xlink:href="#md199d5830e" x="408.141294" y="45.355875" style="fill: #2e85ff; stroke: #2e85ff"/>
     <use xlink:href="#md199d5830e" x="412.678212" y="45.355875" style="fill: #2e85ff; stroke: #2e85ff"/>
     <use xlink:href="#md199d5830e" x="402.599083" y="45.355875" style="fill: #2e85ff; stroke: #2e85ff"/>
     <use xlink:href="#md199d5830e" x="138.217577" y="45.355875" style="fill: #2e85ff; stroke: #2e85ff"/>
     <use xlink:href="#md199d5830e" x="409.112169" y="45.355875" style="fill: #2e85ff; stroke: #2e85ff"/>
     <use xlink:href="#md199d5830e" x="319.452693" y="45.355875" style="fill: #2e85ff; stroke: #2e85ff"/>
     <use xlink:href="#md199d5830e" x="313.905054" y="45.355875" style="fill: #2e85ff; stroke: #2e85ff"/>
     <use xlink:href="#md199d5830e" x="414.360256" y="45.355875" style="fill: #2e85ff; stroke: #2e85ff"/>
     <use xlink:href="#md199d5830e" x="217.151754" y="45.355875" style="fill: #2e85ff; stroke: #2e85ff"/>
     <use xlink:href="#md199d5830e" x="403.377539" y="45.355875" style="fill: #2e85ff; stroke: #2e85ff"/>
     <use xlink:href="#md199d5830e" x="413.470263" y="45.355875" style="fill: #2e85ff; stroke: #2e85ff"/>
     <use xlink:href="#md199d5830e" x="414.853173" y="45.355875" style="fill: #2e85ff; stroke: #2e85ff"/>
     <use xlink:href="#md199d5830e" x="414.913444" y="45.355875" style="fill: #2e85ff; stroke: #2e85ff"/>
     <use xlink:href="#md199d5830e" x="404.53677" y="45.355875" style="fill: #2e85ff; stroke: #2e85ff"/>
     <use xlink:href="#md199d5830e" x="404.389326" y="45.355875" style="fill: #2e85ff; stroke: #2e85ff"/>
     <use xlink:href="#md199d5830e" x="404.824552" y="45.355875" style="fill: #2e85ff; stroke: #2e85ff"/>
     <use xlink:href="#md199d5830e" x="414.265433" y="45.355875" style="fill: #2e85ff; stroke: #2e85ff"/>
     <use xlink:href="#md199d5830e" x="409.635727" y="45.355875" style="fill: #2e85ff; stroke: #2e85ff"/>
     <use xlink:href="#md199d5830e" x="403.294617" y="45.355875" style="fill: #2e85ff; stroke: #2e85ff"/>
     <use xlink:href="#md199d5830e" x="403.907145" y="45.355875" style="fill: #2e85ff; stroke: #2e85ff"/>
     <use xlink:href="#md199d5830e" x="402.91407" y="45.355875" style="fill: #2e85ff; stroke: #2e85ff"/>
     <use xlink:href="#md199d5830e" x="413.786744" y="45.355875" style="fill: #2e85ff; stroke: #2e85ff"/>
     <use xlink:href="#md199d5830e" x="415.133716" y="45.355875" style="fill: #2e85ff; stroke: #2e85ff"/>
     <use xlink:href="#md199d5830e" x="411.724233" y="45.355875" style="fill: #2e85ff; stroke: #2e85ff"/>
     <use xlink:href="#md199d5830e" x="408.992093" y="45.355875" style="fill: #2e85ff; stroke: #2e85ff"/>
     <use xlink:href="#md199d5830e" x="413.517944" y="45.355875" style="fill: #2e85ff; stroke: #2e85ff"/>
     <use xlink:href="#md199d5830e" x="407.548968" y="45.355875" style="fill: #2e85ff; stroke: #2e85ff"/>
     <use xlink:href="#md199d5830e" x="411.315443" y="45.355875" style="fill: #2e85ff; stroke: #2e85ff"/>
     <use xlink:href="#md199d5830e" x="407.516805" y="45.355875" style="fill: #2e85ff; stroke: #2e85ff"/>
     <use xlink:href="#md199d5830e" x="413.164942" y="45.355875" style="fill: #2e85ff; stroke: #2e85ff"/>
     <use xlink:href="#md199d5830e" x="415.062364" y="45.355875" style="fill: #2e85ff; stroke: #2e85ff"/>
     <use xlink:href="#md199d5830e" x="409.796589" y="45.355875" style="fill: #2e85ff; stroke: #2e85ff"/>
     <use xlink:href="#md199d5830e" x="413.056077" y="45.355875" style="fill: #2e85ff; stroke: #2e85ff"/>
     <use xlink:href="#md199d5830e" x="401.629409" y="45.355875" style="fill: #2e85ff; stroke: #2e85ff"/>
     <use xlink:href="#md199d5830e" x="400.026856" y="45.355875" style="fill: #2e85ff; stroke: #2e85ff"/>
     <use xlink:href="#md199d5830e" x="347.046955" y="45.355875" style="fill: #2e85ff; stroke: #2e85ff"/>
     <use xlink:href="#md199d5830e" x="410.777792" y="45.355875" style="fill: #2e85ff; stroke: #2e85ff"/>
     <use xlink:href="#md199d5830e" x="413.814089" y="45.355875" style="fill: #2e85ff; stroke: #2e85ff"/>
     <use xlink:href="#md199d5830e" x="408.526548" y="45.355875" style="fill: #2e85ff; stroke: #2e85ff"/>
     <use xlink:href="#md199d5830e" x="412.901082" y="45.355875" style="fill: #2e85ff; stroke: #2e85ff"/>
     <use xlink:href="#md199d5830e" x="228.009757" y="45.355875" style="fill: #2e85ff; stroke: #2e85ff"/>
     <use xlink:href="#md199d5830e" x="414.894262" y="45.355875" style="fill: #2e85ff; stroke: #2e85ff"/>
     <use xlink:href="#md199d5830e" x="415.366023" y="45.355875" style="fill: #2e85ff; stroke: #2e85ff"/>
     <use xlink:href="#md199d5830e" x="414.480816" y="45.355875" style="fill: #2e85ff; stroke: #2e85ff"/>
     <use xlink:href="#md199d5830e" x="413.99904" y="45.355875" style="fill: #2e85ff; stroke: #2e85ff"/>
     <use xlink:href="#md199d5830e" x="415.238194" y="45.355875" style="fill: #2e85ff; stroke: #2e85ff"/>
     <use xlink:href="#md199d5830e" x="412.340616" y="45.355875" style="fill: #2e85ff; stroke: #2e85ff"/>
     <use xlink:href="#md199d5830e" x="221.218122" y="45.355875" style="fill: #2e85ff; stroke: #2e85ff"/>
     <use xlink:href="#md199d5830e" x="230.721476" y="45.355875" style="fill: #2e85ff; stroke: #2e85ff"/>
     <use xlink:href="#md199d5830e" x="319.851407" y="45.355875" style="fill: #2e85ff; stroke: #2e85ff"/>
     <use xlink:href="#md199d5830e" x="410.471665" y="45.355875" style="fill: #2e85ff; stroke: #2e85ff"/>
     <use xlink:href="#md199d5830e" x="414.415894" y="45.355875" style="fill: #2e85ff; stroke: #2e85ff"/>
     <use xlink:href="#md199d5830e" x="393.900561" y="45.355875" style="fill: #2e85ff; stroke: #2e85ff"/>
     <use xlink:href="#md199d5830e" x="407.89439" y="45.355875" style="fill: #2e85ff; stroke: #2e85ff"/>
     <use xlink:href="#md199d5830e" x="412.866809" y="45.355875" style="fill: #2e85ff; stroke: #2e85ff"/>
     <use xlink:href="#md199d5830e" x="402.536308" y="45.355875" style="fill: #2e85ff; stroke: #2e85ff"/>
     <use xlink:href="#md199d5830e" x="376.706648" y="45.355875" style="fill: #2e85ff; stroke: #2e85ff"/>
    </g>
   </g>
   <g id="matplotlib.axis_1">
    <g id="xtick_1">
     <g id="line2d_1">
      <defs>
       <path id="m6e8cc72a75" d="M 0 0 
L 0 3.5 
" style="stroke: #000000; stroke-width: 0.8"/>
      </defs>
      <g>
       <use xlink:href="#m6e8cc72a75" x="136.992708" y="299.371875" style="stroke: #000000; stroke-width: 0.8"/>
      </g>
     </g>
     <g id="text_1">
      <!-- 0.4 -->
      <g transform="translate(119.49927 323.088437) scale(0.22 -0.22)">
       <defs>
        <path id="DejaVuSans-30" d="M 2034 4250 
Q 1547 4250 1301 3770 
Q 1056 3291 1056 2328 
Q 1056 1369 1301 889 
Q 1547 409 2034 409 
Q 2525 409 2770 889 
Q 3016 1369 3016 2328 
Q 3016 3291 2770 3770 
Q 2525 4250 2034 4250 
z
M 2034 4750 
Q 2819 4750 3233 4129 
Q 3647 3509 3647 2328 
Q 3647 1150 3233 529 
Q 2819 -91 2034 -91 
Q 1250 -91 836 529 
Q 422 1150 422 2328 
Q 422 3509 836 4129 
Q 1250 4750 2034 4750 
z
" transform="scale(0.015625)"/>
        <path id="DejaVuSans-2e" d="M 684 794 
L 1344 794 
L 1344 0 
L 684 0 
L 684 794 
z
" transform="scale(0.015625)"/>
        <path id="DejaVuSans-34" d="M 2419 4116 
L 825 1625 
L 2419 1625 
L 2419 4116 
z
M 2253 4666 
L 3047 4666 
L 3047 1625 
L 3713 1625 
L 3713 1100 
L 3047 1100 
L 3047 0 
L 2419 0 
L 2419 1100 
L 313 1100 
L 313 1709 
L 2253 4666 
z
" transform="scale(0.015625)"/>
       </defs>
       <use xlink:href="#DejaVuSans-30"/>
       <use xlink:href="#DejaVuSans-2e" x="63.623047"/>
       <use xlink:href="#DejaVuSans-34" x="95.410156"/>
      </g>
     </g>
    </g>
    <g id="xtick_2">
     <g id="line2d_2">
      <g>
       <use xlink:href="#m6e8cc72a75" x="230.111085" y="299.371875" style="stroke: #000000; stroke-width: 0.8"/>
      </g>
     </g>
     <g id="text_2">
      <!-- 0.6 -->
      <g transform="translate(212.617647 323.088437) scale(0.22 -0.22)">
       <defs>
        <path id="DejaVuSans-36" d="M 2113 2584 
Q 1688 2584 1439 2293 
Q 1191 2003 1191 1497 
Q 1191 994 1439 701 
Q 1688 409 2113 409 
Q 2538 409 2786 701 
Q 3034 994 3034 1497 
Q 3034 2003 2786 2293 
Q 2538 2584 2113 2584 
z
M 3366 4563 
L 3366 3988 
Q 3128 4100 2886 4159 
Q 2644 4219 2406 4219 
Q 1781 4219 1451 3797 
Q 1122 3375 1075 2522 
Q 1259 2794 1537 2939 
Q 1816 3084 2150 3084 
Q 2853 3084 3261 2657 
Q 3669 2231 3669 1497 
Q 3669 778 3244 343 
Q 2819 -91 2113 -91 
Q 1303 -91 875 529 
Q 447 1150 447 2328 
Q 447 3434 972 4092 
Q 1497 4750 2381 4750 
Q 2619 4750 2861 4703 
Q 3103 4656 3366 4563 
z
" transform="scale(0.015625)"/>
       </defs>
       <use xlink:href="#DejaVuSans-30"/>
       <use xlink:href="#DejaVuSans-2e" x="63.623047"/>
       <use xlink:href="#DejaVuSans-36" x="95.410156"/>
      </g>
     </g>
    </g>
    <g id="xtick_3">
     <g id="line2d_3">
      <g>
       <use xlink:href="#m6e8cc72a75" x="323.229462" y="299.371875" style="stroke: #000000; stroke-width: 0.8"/>
      </g>
     </g>
     <g id="text_3">
      <!-- 0.8 -->
      <g transform="translate(305.736025 323.088437) scale(0.22 -0.22)">
       <defs>
        <path id="DejaVuSans-38" d="M 2034 2216 
Q 1584 2216 1326 1975 
Q 1069 1734 1069 1313 
Q 1069 891 1326 650 
Q 1584 409 2034 409 
Q 2484 409 2743 651 
Q 3003 894 3003 1313 
Q 3003 1734 2745 1975 
Q 2488 2216 2034 2216 
z
M 1403 2484 
Q 997 2584 770 2862 
Q 544 3141 544 3541 
Q 544 4100 942 4425 
Q 1341 4750 2034 4750 
Q 2731 4750 3128 4425 
Q 3525 4100 3525 3541 
Q 3525 3141 3298 2862 
Q 3072 2584 2669 2484 
Q 3125 2378 3379 2068 
Q 3634 1759 3634 1313 
Q 3634 634 3220 271 
Q 2806 -91 2034 -91 
Q 1263 -91 848 271 
Q 434 634 434 1313 
Q 434 1759 690 2068 
Q 947 2378 1403 2484 
z
M 1172 3481 
Q 1172 3119 1398 2916 
Q 1625 2713 2034 2713 
Q 2441 2713 2670 2916 
Q 2900 3119 2900 3481 
Q 2900 3844 2670 4047 
Q 2441 4250 2034 4250 
Q 1625 4250 1398 4047 
Q 1172 3844 1172 3481 
z
" transform="scale(0.015625)"/>
       </defs>
       <use xlink:href="#DejaVuSans-30"/>
       <use xlink:href="#DejaVuSans-2e" x="63.623047"/>
       <use xlink:href="#DejaVuSans-38" x="95.410156"/>
      </g>
     </g>
    </g>
    <g id="xtick_4">
     <g id="line2d_4">
      <g>
       <use xlink:href="#m6e8cc72a75" x="416.34784" y="299.371875" style="stroke: #000000; stroke-width: 0.8"/>
      </g>
     </g>
     <g id="text_4">
      <!-- 1.0 -->
      <g transform="translate(398.854402 323.088437) scale(0.22 -0.22)">
       <defs>
        <path id="DejaVuSans-31" d="M 794 531 
L 1825 531 
L 1825 4091 
L 703 3866 
L 703 4441 
L 1819 4666 
L 2450 4666 
L 2450 531 
L 3481 531 
L 3481 0 
L 794 0 
L 794 531 
z
" transform="scale(0.015625)"/>
       </defs>
       <use xlink:href="#DejaVuSans-31"/>
       <use xlink:href="#DejaVuSans-2e" x="63.623047"/>
       <use xlink:href="#DejaVuSans-30" x="95.410156"/>
      </g>
     </g>
    </g>
    <g id="text_5">
     <!-- Predicted self assembly probability -->
     <g transform="translate(60.567969 348.380312) scale(0.22 -0.22)">
      <defs>
       <path id="DejaVuSans-50" d="M 1259 4147 
L 1259 2394 
L 2053 2394 
Q 2494 2394 2734 2622 
Q 2975 2850 2975 3272 
Q 2975 3691 2734 3919 
Q 2494 4147 2053 4147 
L 1259 4147 
z
M 628 4666 
L 2053 4666 
Q 2838 4666 3239 4311 
Q 3641 3956 3641 3272 
Q 3641 2581 3239 2228 
Q 2838 1875 2053 1875 
L 1259 1875 
L 1259 0 
L 628 0 
L 628 4666 
z
" transform="scale(0.015625)"/>
       <path id="DejaVuSans-72" d="M 2631 2963 
Q 2534 3019 2420 3045 
Q 2306 3072 2169 3072 
Q 1681 3072 1420 2755 
Q 1159 2438 1159 1844 
L 1159 0 
L 581 0 
L 581 3500 
L 1159 3500 
L 1159 2956 
Q 1341 3275 1631 3429 
Q 1922 3584 2338 3584 
Q 2397 3584 2469 3576 
Q 2541 3569 2628 3553 
L 2631 2963 
z
" transform="scale(0.015625)"/>
       <path id="DejaVuSans-65" d="M 3597 1894 
L 3597 1613 
L 953 1613 
Q 991 1019 1311 708 
Q 1631 397 2203 397 
Q 2534 397 2845 478 
Q 3156 559 3463 722 
L 3463 178 
Q 3153 47 2828 -22 
Q 2503 -91 2169 -91 
Q 1331 -91 842 396 
Q 353 884 353 1716 
Q 353 2575 817 3079 
Q 1281 3584 2069 3584 
Q 2775 3584 3186 3129 
Q 3597 2675 3597 1894 
z
M 3022 2063 
Q 3016 2534 2758 2815 
Q 2500 3097 2075 3097 
Q 1594 3097 1305 2825 
Q 1016 2553 972 2059 
L 3022 2063 
z
" transform="scale(0.015625)"/>
       <path id="DejaVuSans-64" d="M 2906 2969 
L 2906 4863 
L 3481 4863 
L 3481 0 
L 2906 0 
L 2906 525 
Q 2725 213 2448 61 
Q 2172 -91 1784 -91 
Q 1150 -91 751 415 
Q 353 922 353 1747 
Q 353 2572 751 3078 
Q 1150 3584 1784 3584 
Q 2172 3584 2448 3432 
Q 2725 3281 2906 2969 
z
M 947 1747 
Q 947 1113 1208 752 
Q 1469 391 1925 391 
Q 2381 391 2643 752 
Q 2906 1113 2906 1747 
Q 2906 2381 2643 2742 
Q 2381 3103 1925 3103 
Q 1469 3103 1208 2742 
Q 947 2381 947 1747 
z
" transform="scale(0.015625)"/>
       <path id="DejaVuSans-69" d="M 603 3500 
L 1178 3500 
L 1178 0 
L 603 0 
L 603 3500 
z
M 603 4863 
L 1178 4863 
L 1178 4134 
L 603 4134 
L 603 4863 
z
" transform="scale(0.015625)"/>
       <path id="DejaVuSans-63" d="M 3122 3366 
L 3122 2828 
Q 2878 2963 2633 3030 
Q 2388 3097 2138 3097 
Q 1578 3097 1268 2742 
Q 959 2388 959 1747 
Q 959 1106 1268 751 
Q 1578 397 2138 397 
Q 2388 397 2633 464 
Q 2878 531 3122 666 
L 3122 134 
Q 2881 22 2623 -34 
Q 2366 -91 2075 -91 
Q 1284 -91 818 406 
Q 353 903 353 1747 
Q 353 2603 823 3093 
Q 1294 3584 2113 3584 
Q 2378 3584 2631 3529 
Q 2884 3475 3122 3366 
z
" transform="scale(0.015625)"/>
       <path id="DejaVuSans-74" d="M 1172 4494 
L 1172 3500 
L 2356 3500 
L 2356 3053 
L 1172 3053 
L 1172 1153 
Q 1172 725 1289 603 
Q 1406 481 1766 481 
L 2356 481 
L 2356 0 
L 1766 0 
Q 1100 0 847 248 
Q 594 497 594 1153 
L 594 3053 
L 172 3053 
L 172 3500 
L 594 3500 
L 594 4494 
L 1172 4494 
z
" transform="scale(0.015625)"/>
       <path id="DejaVuSans-20" transform="scale(0.015625)"/>
       <path id="DejaVuSans-73" d="M 2834 3397 
L 2834 2853 
Q 2591 2978 2328 3040 
Q 2066 3103 1784 3103 
Q 1356 3103 1142 2972 
Q 928 2841 928 2578 
Q 928 2378 1081 2264 
Q 1234 2150 1697 2047 
L 1894 2003 
Q 2506 1872 2764 1633 
Q 3022 1394 3022 966 
Q 3022 478 2636 193 
Q 2250 -91 1575 -91 
Q 1294 -91 989 -36 
Q 684 19 347 128 
L 347 722 
Q 666 556 975 473 
Q 1284 391 1588 391 
Q 1994 391 2212 530 
Q 2431 669 2431 922 
Q 2431 1156 2273 1281 
Q 2116 1406 1581 1522 
L 1381 1569 
Q 847 1681 609 1914 
Q 372 2147 372 2553 
Q 372 3047 722 3315 
Q 1072 3584 1716 3584 
Q 2034 3584 2315 3537 
Q 2597 3491 2834 3397 
z
" transform="scale(0.015625)"/>
       <path id="DejaVuSans-6c" d="M 603 4863 
L 1178 4863 
L 1178 0 
L 603 0 
L 603 4863 
z
" transform="scale(0.015625)"/>
       <path id="DejaVuSans-66" d="M 2375 4863 
L 2375 4384 
L 1825 4384 
Q 1516 4384 1395 4259 
Q 1275 4134 1275 3809 
L 1275 3500 
L 2222 3500 
L 2222 3053 
L 1275 3053 
L 1275 0 
L 697 0 
L 697 3053 
L 147 3053 
L 147 3500 
L 697 3500 
L 697 3744 
Q 697 4328 969 4595 
Q 1241 4863 1831 4863 
L 2375 4863 
z
" transform="scale(0.015625)"/>
       <path id="DejaVuSans-61" d="M 2194 1759 
Q 1497 1759 1228 1600 
Q 959 1441 959 1056 
Q 959 750 1161 570 
Q 1363 391 1709 391 
Q 2188 391 2477 730 
Q 2766 1069 2766 1631 
L 2766 1759 
L 2194 1759 
z
M 3341 1997 
L 3341 0 
L 2766 0 
L 2766 531 
Q 2569 213 2275 61 
Q 1981 -91 1556 -91 
Q 1019 -91 701 211 
Q 384 513 384 1019 
Q 384 1609 779 1909 
Q 1175 2209 1959 2209 
L 2766 2209 
L 2766 2266 
Q 2766 2663 2505 2880 
Q 2244 3097 1772 3097 
Q 1472 3097 1187 3025 
Q 903 2953 641 2809 
L 641 3341 
Q 956 3463 1253 3523 
Q 1550 3584 1831 3584 
Q 2591 3584 2966 3190 
Q 3341 2797 3341 1997 
z
" transform="scale(0.015625)"/>
       <path id="DejaVuSans-6d" d="M 3328 2828 
Q 3544 3216 3844 3400 
Q 4144 3584 4550 3584 
Q 5097 3584 5394 3201 
Q 5691 2819 5691 2113 
L 5691 0 
L 5113 0 
L 5113 2094 
Q 5113 2597 4934 2840 
Q 4756 3084 4391 3084 
Q 3944 3084 3684 2787 
Q 3425 2491 3425 1978 
L 3425 0 
L 2847 0 
L 2847 2094 
Q 2847 2600 2669 2842 
Q 2491 3084 2119 3084 
Q 1678 3084 1418 2786 
Q 1159 2488 1159 1978 
L 1159 0 
L 581 0 
L 581 3500 
L 1159 3500 
L 1159 2956 
Q 1356 3278 1631 3431 
Q 1906 3584 2284 3584 
Q 2666 3584 2933 3390 
Q 3200 3197 3328 2828 
z
" transform="scale(0.015625)"/>
       <path id="DejaVuSans-62" d="M 3116 1747 
Q 3116 2381 2855 2742 
Q 2594 3103 2138 3103 
Q 1681 3103 1420 2742 
Q 1159 2381 1159 1747 
Q 1159 1113 1420 752 
Q 1681 391 2138 391 
Q 2594 391 2855 752 
Q 3116 1113 3116 1747 
z
M 1159 2969 
Q 1341 3281 1617 3432 
Q 1894 3584 2278 3584 
Q 2916 3584 3314 3078 
Q 3713 2572 3713 1747 
Q 3713 922 3314 415 
Q 2916 -91 2278 -91 
Q 1894 -91 1617 61 
Q 1341 213 1159 525 
L 1159 0 
L 581 0 
L 581 4863 
L 1159 4863 
L 1159 2969 
z
" transform="scale(0.015625)"/>
       <path id="DejaVuSans-79" d="M 2059 -325 
Q 1816 -950 1584 -1140 
Q 1353 -1331 966 -1331 
L 506 -1331 
L 506 -850 
L 844 -850 
Q 1081 -850 1212 -737 
Q 1344 -625 1503 -206 
L 1606 56 
L 191 3500 
L 800 3500 
L 1894 763 
L 2988 3500 
L 3597 3500 
L 2059 -325 
z
" transform="scale(0.015625)"/>
       <path id="DejaVuSans-70" d="M 1159 525 
L 1159 -1331 
L 581 -1331 
L 581 3500 
L 1159 3500 
L 1159 2969 
Q 1341 3281 1617 3432 
Q 1894 3584 2278 3584 
Q 2916 3584 3314 3078 
Q 3713 2572 3713 1747 
Q 3713 922 3314 415 
Q 2916 -91 2278 -91 
Q 1894 -91 1617 61 
Q 1341 213 1159 525 
z
M 3116 1747 
Q 3116 2381 2855 2742 
Q 2594 3103 2138 3103 
Q 1681 3103 1420 2742 
Q 1159 2381 1159 1747 
Q 1159 1113 1420 752 
Q 1681 391 2138 391 
Q 2594 391 2855 752 
Q 3116 1113 3116 1747 
z
" transform="scale(0.015625)"/>
       <path id="DejaVuSans-6f" d="M 1959 3097 
Q 1497 3097 1228 2736 
Q 959 2375 959 1747 
Q 959 1119 1226 758 
Q 1494 397 1959 397 
Q 2419 397 2687 759 
Q 2956 1122 2956 1747 
Q 2956 2369 2687 2733 
Q 2419 3097 1959 3097 
z
M 1959 3584 
Q 2709 3584 3137 3096 
Q 3566 2609 3566 1747 
Q 3566 888 3137 398 
Q 2709 -91 1959 -91 
Q 1206 -91 779 398 
Q 353 888 353 1747 
Q 353 2609 779 3096 
Q 1206 3584 1959 3584 
z
" transform="scale(0.015625)"/>
      </defs>
      <use xlink:href="#DejaVuSans-50"/>
      <use xlink:href="#DejaVuSans-72" x="58.552734"/>
      <use xlink:href="#DejaVuSans-65" x="97.416016"/>
      <use xlink:href="#DejaVuSans-64" x="158.939453"/>
      <use xlink:href="#DejaVuSans-69" x="222.416016"/>
      <use xlink:href="#DejaVuSans-63" x="250.199219"/>
      <use xlink:href="#DejaVuSans-74" x="305.179688"/>
      <use xlink:href="#DejaVuSans-65" x="344.388672"/>
      <use xlink:href="#DejaVuSans-64" x="405.912109"/>
      <use xlink:href="#DejaVuSans-20" x="469.388672"/>
      <use xlink:href="#DejaVuSans-73" x="501.175781"/>
      <use xlink:href="#DejaVuSans-65" x="553.275391"/>
      <use xlink:href="#DejaVuSans-6c" x="614.798828"/>
      <use xlink:href="#DejaVuSans-66" x="642.582031"/>
      <use xlink:href="#DejaVuSans-20" x="677.787109"/>
      <use xlink:href="#DejaVuSans-61" x="709.574219"/>
      <use xlink:href="#DejaVuSans-73" x="770.853516"/>
      <use xlink:href="#DejaVuSans-73" x="822.953125"/>
      <use xlink:href="#DejaVuSans-65" x="875.052734"/>
      <use xlink:href="#DejaVuSans-6d" x="936.576172"/>
      <use xlink:href="#DejaVuSans-62" x="1033.988281"/>
      <use xlink:href="#DejaVuSans-6c" x="1097.464844"/>
      <use xlink:href="#DejaVuSans-79" x="1125.248047"/>
      <use xlink:href="#DejaVuSans-20" x="1184.427734"/>
      <use xlink:href="#DejaVuSans-70" x="1216.214844"/>
      <use xlink:href="#DejaVuSans-72" x="1279.691406"/>
      <use xlink:href="#DejaVuSans-6f" x="1318.554688"/>
      <use xlink:href="#DejaVuSans-62" x="1379.736328"/>
      <use xlink:href="#DejaVuSans-61" x="1443.212891"/>
      <use xlink:href="#DejaVuSans-62" x="1504.492188"/>
      <use xlink:href="#DejaVuSans-69" x="1567.96875"/>
      <use xlink:href="#DejaVuSans-6c" x="1595.751953"/>
      <use xlink:href="#DejaVuSans-69" x="1623.535156"/>
      <use xlink:href="#DejaVuSans-74" x="1651.318359"/>
      <use xlink:href="#DejaVuSans-79" x="1690.527344"/>
     </g>
    </g>
   </g>
   <g id="matplotlib.axis_2">
    <g id="ytick_1">
     <g id="line2d_5">
      <defs>
       <path id="m0340047445" d="M 0 0 
L -3.5 0 
" style="stroke: #000000; stroke-width: 0.8"/>
      </defs>
      <g>
       <use xlink:href="#m0340047445" x="74.47875" y="287.275875" style="stroke: #000000; stroke-width: 0.8"/>
      </g>
     </g>
     <g id="text_6">
      <!-- 0.0 -->
      <g transform="translate(32.491875 295.634156) scale(0.22 -0.22)">
       <use xlink:href="#DejaVuSans-30"/>
       <use xlink:href="#DejaVuSans-2e" x="63.623047"/>
       <use xlink:href="#DejaVuSans-30" x="95.410156"/>
      </g>
     </g>
    </g>
    <g id="ytick_2">
     <g id="line2d_6">
      <g>
       <use xlink:href="#m0340047445" x="74.47875" y="238.891875" style="stroke: #000000; stroke-width: 0.8"/>
      </g>
     </g>
     <g id="text_7">
      <!-- 0.2 -->
      <g transform="translate(32.491875 247.250156) scale(0.22 -0.22)">
       <defs>
        <path id="DejaVuSans-32" d="M 1228 531 
L 3431 531 
L 3431 0 
L 469 0 
L 469 531 
Q 828 903 1448 1529 
Q 2069 2156 2228 2338 
Q 2531 2678 2651 2914 
Q 2772 3150 2772 3378 
Q 2772 3750 2511 3984 
Q 2250 4219 1831 4219 
Q 1534 4219 1204 4116 
Q 875 4013 500 3803 
L 500 4441 
Q 881 4594 1212 4672 
Q 1544 4750 1819 4750 
Q 2544 4750 2975 4387 
Q 3406 4025 3406 3419 
Q 3406 3131 3298 2873 
Q 3191 2616 2906 2266 
Q 2828 2175 2409 1742 
Q 1991 1309 1228 531 
z
" transform="scale(0.015625)"/>
       </defs>
       <use xlink:href="#DejaVuSans-30"/>
       <use xlink:href="#DejaVuSans-2e" x="63.623047"/>
       <use xlink:href="#DejaVuSans-32" x="95.410156"/>
      </g>
     </g>
    </g>
    <g id="ytick_3">
     <g id="line2d_7">
      <g>
       <use xlink:href="#m0340047445" x="74.47875" y="190.507875" style="stroke: #000000; stroke-width: 0.8"/>
      </g>
     </g>
     <g id="text_8">
      <!-- 0.4 -->
      <g transform="translate(32.491875 198.866156) scale(0.22 -0.22)">
       <use xlink:href="#DejaVuSans-30"/>
       <use xlink:href="#DejaVuSans-2e" x="63.623047"/>
       <use xlink:href="#DejaVuSans-34" x="95.410156"/>
      </g>
     </g>
    </g>
    <g id="ytick_4">
     <g id="line2d_8">
      <g>
       <use xlink:href="#m0340047445" x="74.47875" y="142.123875" style="stroke: #000000; stroke-width: 0.8"/>
      </g>
     </g>
     <g id="text_9">
      <!-- 0.6 -->
      <g transform="translate(32.491875 150.482156) scale(0.22 -0.22)">
       <use xlink:href="#DejaVuSans-30"/>
       <use xlink:href="#DejaVuSans-2e" x="63.623047"/>
       <use xlink:href="#DejaVuSans-36" x="95.410156"/>
      </g>
     </g>
    </g>
    <g id="ytick_5">
     <g id="line2d_9">
      <g>
       <use xlink:href="#m0340047445" x="74.47875" y="93.739875" style="stroke: #000000; stroke-width: 0.8"/>
      </g>
     </g>
     <g id="text_10">
      <!-- 0.8 -->
      <g transform="translate(32.491875 102.098156) scale(0.22 -0.22)">
       <use xlink:href="#DejaVuSans-30"/>
       <use xlink:href="#DejaVuSans-2e" x="63.623047"/>
       <use xlink:href="#DejaVuSans-38" x="95.410156"/>
      </g>
     </g>
    </g>
    <g id="ytick_6">
     <g id="line2d_10">
      <g>
       <use xlink:href="#m0340047445" x="74.47875" y="45.355875" style="stroke: #000000; stroke-width: 0.8"/>
      </g>
     </g>
     <g id="text_11">
      <!-- 1.0 -->
      <g transform="translate(32.491875 53.714156) scale(0.22 -0.22)">
       <use xlink:href="#DejaVuSans-31"/>
       <use xlink:href="#DejaVuSans-2e" x="63.623047"/>
       <use xlink:href="#DejaVuSans-30" x="95.410156"/>
      </g>
     </g>
    </g>
    <g id="text_12">
     <!-- AP -->
     <g transform="translate(23.916563 180.473219) rotate(-90) scale(0.22 -0.22)">
      <defs>
       <path id="DejaVuSans-41" d="M 2188 4044 
L 1331 1722 
L 3047 1722 
L 2188 4044 
z
M 1831 4666 
L 2547 4666 
L 4325 0 
L 3669 0 
L 3244 1197 
L 1141 1197 
L 716 0 
L 50 0 
L 1831 4666 
z
" transform="scale(0.015625)"/>
      </defs>
      <use xlink:href="#DejaVuSans-41"/>
      <use xlink:href="#DejaVuSans-50" x="68.408203"/>
     </g>
    </g>
   </g>
   <g id="line2d_11">
    <path d="M 258.529403 114.373766 
L 90.711477 161.800182 
L 415.366023 70.050737 
L 376.706648 80.976123 
" clip-path="url(#p16e07f49c9)" style="fill: none; stroke: #ff120a; stroke-width: 1.5; stroke-linecap: square"/>
   </g>
   <g id="patch_3">
    <path d="M 74.47875 299.371875 
L 74.47875 33.259875 
" style="fill: none; stroke: #000000; stroke-width: 0.8; stroke-linejoin: miter; stroke-linecap: square"/>
   </g>
   <g id="patch_4">
    <path d="M 431.59875 299.371875 
L 431.59875 33.259875 
" style="fill: none; stroke: #000000; stroke-width: 0.8; stroke-linejoin: miter; stroke-linecap: square"/>
   </g>
   <g id="patch_5">
    <path d="M 74.47875 299.371875 
L 431.59875 299.371875 
" style="fill: none; stroke: #000000; stroke-width: 0.8; stroke-linejoin: miter; stroke-linecap: square"/>
   </g>
   <g id="patch_6">
    <path d="M 74.47875 33.259875 
L 431.59875 33.259875 
" style="fill: none; stroke: #000000; stroke-width: 0.8; stroke-linejoin: miter; stroke-linecap: square"/>
   </g>
   <g id="text_13">
    <!-- TSNE SP model -->
    <g transform="translate(152.547563 27.259875) scale(0.264 -0.264)">
     <defs>
      <path id="DejaVuSans-54" d="M -19 4666 
L 3928 4666 
L 3928 4134 
L 2272 4134 
L 2272 0 
L 1638 0 
L 1638 4134 
L -19 4134 
L -19 4666 
z
" transform="scale(0.015625)"/>
      <path id="DejaVuSans-53" d="M 3425 4513 
L 3425 3897 
Q 3066 4069 2747 4153 
Q 2428 4238 2131 4238 
Q 1616 4238 1336 4038 
Q 1056 3838 1056 3469 
Q 1056 3159 1242 3001 
Q 1428 2844 1947 2747 
L 2328 2669 
Q 3034 2534 3370 2195 
Q 3706 1856 3706 1288 
Q 3706 609 3251 259 
Q 2797 -91 1919 -91 
Q 1588 -91 1214 -16 
Q 841 59 441 206 
L 441 856 
Q 825 641 1194 531 
Q 1563 422 1919 422 
Q 2459 422 2753 634 
Q 3047 847 3047 1241 
Q 3047 1584 2836 1778 
Q 2625 1972 2144 2069 
L 1759 2144 
Q 1053 2284 737 2584 
Q 422 2884 422 3419 
Q 422 4038 858 4394 
Q 1294 4750 2059 4750 
Q 2388 4750 2728 4690 
Q 3069 4631 3425 4513 
z
" transform="scale(0.015625)"/>
      <path id="DejaVuSans-4e" d="M 628 4666 
L 1478 4666 
L 3547 763 
L 3547 4666 
L 4159 4666 
L 4159 0 
L 3309 0 
L 1241 3903 
L 1241 0 
L 628 0 
L 628 4666 
z
" transform="scale(0.015625)"/>
      <path id="DejaVuSans-45" d="M 628 4666 
L 3578 4666 
L 3578 4134 
L 1259 4134 
L 1259 2753 
L 3481 2753 
L 3481 2222 
L 1259 2222 
L 1259 531 
L 3634 531 
L 3634 0 
L 628 0 
L 628 4666 
z
" transform="scale(0.015625)"/>
     </defs>
     <use xlink:href="#DejaVuSans-54"/>
     <use xlink:href="#DejaVuSans-53" x="61.083984"/>
     <use xlink:href="#DejaVuSans-4e" x="124.560547"/>
     <use xlink:href="#DejaVuSans-45" x="199.365234"/>
     <use xlink:href="#DejaVuSans-20" x="262.548828"/>
     <use xlink:href="#DejaVuSans-53" x="294.335938"/>
     <use xlink:href="#DejaVuSans-50" x="357.8125"/>
     <use xlink:href="#DejaVuSans-20" x="418.115234"/>
     <use xlink:href="#DejaVuSans-6d" x="449.902344"/>
     <use xlink:href="#DejaVuSans-6f" x="547.314453"/>
     <use xlink:href="#DejaVuSans-64" x="608.496094"/>
     <use xlink:href="#DejaVuSans-65" x="671.972656"/>
     <use xlink:href="#DejaVuSans-6c" x="733.496094"/>
    </g>
   </g>
  </g>
 </g>
 <defs>
  <clipPath id="p16e07f49c9">
   <rect x="74.47875" y="33.259875" width="357.12" height="266.112"/>
  </clipPath>
 </defs>
</svg>
