<?xml version="1.0" encoding="utf-8" standalone="no"?>
<!DOCTYPE svg PUBLIC "-//W3C//DTD SVG 1.1//EN"
  "http://www.w3.org/Graphics/SVG/1.1/DTD/svg11.dtd">
<svg xmlns:xlink="http://www.w3.org/1999/xlink" width="469.033247pt" height="667.817081pt" viewBox="0 0 469.033247 667.817081" xmlns="http://www.w3.org/2000/svg" version="1.1">
 <metadata>
  <rdf:RDF xmlns:dc="http://purl.org/dc/elements/1.1/" xmlns:cc="http://creativecommons.org/ns#" xmlns:rdf="http://www.w3.org/1999/02/22-rdf-syntax-ns#">
   <cc:Work>
    <dc:type rdf:resource="http://purl.org/dc/dcmitype/StillImage"/>
    <dc:date>2024-09-24T17:27:14.676078</dc:date>
    <dc:format>image/svg+xml</dc:format>
    <dc:creator>
     <cc:Agent>
      <dc:title>Matplotlib v3.7.0, https://matplotlib.org/</dc:title>
     </cc:Agent>
    </dc:creator>
   </cc:Work>
  </rdf:RDF>
 </metadata>
 <defs>
  <style type="text/css">*{stroke-linejoin: round; stroke-linecap: butt}</style>
 </defs>
 <g id="figure_1">
  <g id="patch_1">
   <path d="M 0 667.817081 
L 469.033247 667.817081 
L 469.033247 -0 
L 0 -0 
z
" style="fill: #ffffff"/>
  </g>
  <g id="axes_1">
   <g id="patch_2">
    <path d="M 40.257656 616.166929 
L 461.833247 616.166929 
L 461.833247 7.2 
L 40.257656 7.2 
z
" style="fill: #ffffff"/>
   </g>
   <g id="patch_3">
    <path d="M 40.257656 616.166929 
L 124.572774 616.166929 
L 124.572774 466.446799 
L 40.257656 466.446799 
z
" clip-path="url(#p279180c22b)" style="fill: #fff2cc; stroke: #d6b656; stroke-width: 3; stroke-linejoin: miter"/>
   </g>
   <g id="patch_4">
    <path d="M 124.572774 616.166929 
L 208.887892 616.166929 
L 208.887892 463.609997 
L 124.572774 463.609997 
z
" clip-path="url(#p279180c22b)" style="fill: #fff2cc; stroke: #d6b656; stroke-width: 3; stroke-linejoin: miter"/>
   </g>
   <g id="patch_5">
    <path d="M 208.887892 616.166929 
L 293.203011 616.166929 
L 293.203011 465.816398 
L 208.887892 465.816398 
z
" clip-path="url(#p279180c22b)" style="fill: #fff2cc; stroke: #d6b656; stroke-width: 3; stroke-linejoin: miter"/>
   </g>
   <g id="patch_6">
    <path d="M 293.203011 616.166929 
L 377.518129 616.166929 
L 377.518129 448.165183 
L 293.203011 448.165183 
z
" clip-path="url(#p279180c22b)" style="fill: #fff2cc; stroke: #d6b656; stroke-width: 3; stroke-linejoin: miter"/>
   </g>
   <g id="patch_7">
    <path d="M 377.518129 616.166929 
L 461.833247 616.166929 
L 461.833247 461.403595 
L 377.518129 461.403595 
z
" clip-path="url(#p279180c22b)" style="fill: #fff2cc; stroke: #d6b656; stroke-width: 3; stroke-linejoin: miter"/>
   </g>
   <g id="patch_8">
    <path d="M 40.257656 466.446799 
L 124.572774 466.446799 
L 124.572774 428.622766 
L 40.257656 428.622766 
z
" clip-path="url(#p279180c22b)" style="fill: #f8cecc; stroke: #b85450; stroke-width: 3; stroke-linejoin: miter"/>
   </g>
   <g id="patch_9">
    <path d="M 124.572774 463.609997 
L 208.887892 463.609997 
L 208.887892 428.622766 
L 124.572774 428.622766 
z
" clip-path="url(#p279180c22b)" style="fill: #f8cecc; stroke: #b85450; stroke-width: 3; stroke-linejoin: miter"/>
   </g>
   <g id="patch_10">
    <path d="M 208.887892 465.816398 
L 293.203011 465.816398 
L 293.203011 428.622766 
L 208.887892 428.622766 
z
" clip-path="url(#p279180c22b)" style="fill: #f8cecc; stroke: #b85450; stroke-width: 3; stroke-linejoin: miter"/>
   </g>
   <g id="patch_11">
    <path d="M 293.203011 448.165183 
L 377.518129 448.165183 
L 377.518129 428.622766 
L 293.203011 428.622766 
z
" clip-path="url(#p279180c22b)" style="fill: #f8cecc; stroke: #b85450; stroke-width: 3; stroke-linejoin: miter"/>
   </g>
   <g id="patch_12">
    <path d="M 377.518129 461.403595 
L 461.833247 461.403595 
L 461.833247 428.622766 
L 377.518129 428.622766 
z
" clip-path="url(#p279180c22b)" style="fill: #f8cecc; stroke: #b85450; stroke-width: 3; stroke-linejoin: miter"/>
   </g>
   <g id="patch_13">
    <path d="M 40.257656 428.622766 
L 124.572774 428.622766 
L 124.572774 306.95546 
L 40.257656 306.95546 
z
" clip-path="url(#p279180c22b)" style="fill: #dae8fc; stroke: #6c8ebf; stroke-width: 3; stroke-linejoin: miter"/>
   </g>
   <g id="patch_14">
    <path d="M 124.572774 428.622766 
L 208.887892 428.622766 
L 208.887892 341.627491 
L 124.572774 341.627491 
z
" clip-path="url(#p279180c22b)" style="fill: #dae8fc; stroke: #6c8ebf; stroke-width: 3; stroke-linejoin: miter"/>
   </g>
   <g id="patch_15">
    <path d="M 208.887892 428.622766 
L 293.203011 428.622766 
L 293.203011 347.931496 
L 208.887892 347.931496 
z
" clip-path="url(#p279180c22b)" style="fill: #dae8fc; stroke: #6c8ebf; stroke-width: 3; stroke-linejoin: miter"/>
   </g>
   <g id="patch_16">
    <path d="M 293.203011 428.622766 
L 377.518129 428.622766 
L 377.518129 252.110613 
L 293.203011 252.110613 
z
" clip-path="url(#p279180c22b)" style="fill: #dae8fc; stroke: #6c8ebf; stroke-width: 3; stroke-linejoin: miter"/>
   </g>
   <g id="patch_17">
    <path d="M 377.518129 428.622766 
L 461.833247 428.622766 
L 461.833247 310.107463 
L 377.518129 310.107463 
z
" clip-path="url(#p279180c22b)" style="fill: #dae8fc; stroke: #6c8ebf; stroke-width: 3; stroke-linejoin: miter"/>
   </g>
   <g id="patch_18">
    <path d="M 40.257656 306.95546 
L 124.572774 306.95546 
L 124.572774 36.198425 
L 40.257656 36.198425 
z
" clip-path="url(#p279180c22b)" style="fill: #d5e8d4; stroke: #82b366; stroke-width: 3; stroke-linejoin: miter"/>
   </g>
   <g id="patch_19">
    <path d="M 124.572774 341.627491 
L 208.887892 341.627491 
L 208.887892 36.198425 
L 124.572774 36.198425 
z
" clip-path="url(#p279180c22b)" style="fill: #d5e8d4; stroke: #82b366; stroke-width: 3; stroke-linejoin: miter"/>
   </g>
   <g id="patch_20">
    <path d="M 208.887892 347.931496 
L 293.203011 347.931496 
L 293.203011 36.198425 
L 208.887892 36.198425 
z
" clip-path="url(#p279180c22b)" style="fill: #d5e8d4; stroke: #82b366; stroke-width: 3; stroke-linejoin: miter"/>
   </g>
   <g id="patch_21">
    <path d="M 293.203011 252.110613 
L 377.518129 252.110613 
L 377.518129 36.198425 
L 293.203011 36.198425 
z
" clip-path="url(#p279180c22b)" style="fill: #d5e8d4; stroke: #82b366; stroke-width: 3; stroke-linejoin: miter"/>
   </g>
   <g id="patch_22">
    <path d="M 377.518129 310.107463 
L 461.833247 310.107463 
L 461.833247 36.198425 
L 377.518129 36.198425 
z
" clip-path="url(#p279180c22b)" style="fill: #d5e8d4; stroke: #82b366; stroke-width: 3; stroke-linejoin: miter"/>
   </g>
   <g id="matplotlib.axis_1">
    <g id="xtick_1">
     <g id="line2d_1">
      <defs>
       <path id="m58d8084256" d="M 0 0 
L 0 3.5 
" style="stroke: #000000; stroke-width: 0.8"/>
      </defs>
      <g>
       <use xlink:href="#m58d8084256" x="82.415215" y="616.166929" style="stroke: #000000; stroke-width: 0.8"/>
      </g>
     </g>
     <g id="text_1">
      <text style="font: 7px 'Arial'; text-anchor: middle" x="82.415215" y="628.177398" transform="rotate(-0 82.415215 628.177398)">AP</text>
     </g>
    </g>
    <g id="xtick_2">
     <g id="line2d_2">
      <g>
       <use xlink:href="#m58d8084256" x="166.730333" y="616.166929" style="stroke: #000000; stroke-width: 0.8"/>
      </g>
     </g>
     <g id="text_2">
      <text style="font: 7px 'Arial'; text-anchor: middle" x="166.730333" y="628.177398" transform="rotate(-0 166.730333 628.177398)">SP</text>
     </g>
    </g>
    <g id="xtick_3">
     <g id="line2d_3">
      <g>
       <use xlink:href="#m58d8084256" x="251.045452" y="616.166929" style="stroke: #000000; stroke-width: 0.8"/>
      </g>
     </g>
     <g id="text_3">
      <text style="font: 7px 'Arial'; text-anchor: middle" x="251.045452" y="628.177398" transform="rotate(-0 251.045452 628.177398)">AP-SP</text>
     </g>
    </g>
    <g id="xtick_4">
     <g id="line2d_4">
      <g>
       <use xlink:href="#m58d8084256" x="335.36057" y="616.166929" style="stroke: #000000; stroke-width: 0.8"/>
      </g>
     </g>
     <g id="text_4">
      <text style="font: 7px 'Arial'; text-anchor: middle" x="335.36057" y="628.177398" transform="rotate(-0 335.36057 628.177398)">t-SNE SP</text>
     </g>
    </g>
    <g id="xtick_5">
     <g id="line2d_5">
      <g>
       <use xlink:href="#m58d8084256" x="419.675688" y="616.166929" style="stroke: #000000; stroke-width: 0.8"/>
      </g>
     </g>
     <g id="text_5">
      <text style="font: 7px 'Arial'; text-anchor: middle" x="419.675688" y="628.177398" transform="rotate(-0 419.675688 628.177398)">t-SNE AP-SP</text>
     </g>
    </g>
    <g id="text_6">
     <text style="font: 7px 'Arial'; text-anchor: middle" x="251.045452" y="638.579117" transform="rotate(-0 251.045452 638.579117)">Model</text>
    </g>
   </g>
   <g id="matplotlib.axis_2">
    <g id="ytick_1">
     <g id="line2d_6">
      <defs>
       <path id="mbad1e6b6df" d="M 0 0 
L -3.5 0 
" style="stroke: #000000; stroke-width: 0.8"/>
      </defs>
      <g>
       <use xlink:href="#mbad1e6b6df" x="40.257656" y="428.622766" style="stroke: #000000; stroke-width: 0.8"/>
      </g>
     </g>
     <g id="text_7">
      <text style="font: 7px 'Arial'; text-anchor: end" x="33.257656" y="431.128001" transform="rotate(-0 33.257656 431.128001)">595</text>
     </g>
    </g>
    <g id="ytick_2">
     <g id="line2d_7">
      <g>
       <use xlink:href="#mbad1e6b6df" x="40.257656" y="36.198425" style="stroke: #000000; stroke-width: 0.8"/>
      </g>
     </g>
     <g id="text_8">
      <text style="font: 7px 'Arial'; text-anchor: end" x="33.257656" y="38.70366" transform="rotate(-0 33.257656 38.70366)">1840</text>
     </g>
    </g>
    <g id="text_9">
     <text style="font: 7px 'Arial'; text-anchor: middle" x="12.295781" y="311.683465" transform="rotate(-90 12.295781 311.683465)">Number of peptides</text>
    </g>
   </g>
   <g id="text_10">
    <text style="font: 7px 'Arial'; text-anchor: start" x="66.606131" y="578.736897" transform="rotate(-0 66.606131 578.736897)">475</text>
   </g>
   <g id="text_11">
    <text style="font: 7px 'Arial'; text-anchor: start" x="150.921249" y="578.027696" transform="rotate(-0 150.921249 578.027696)">484</text>
   </g>
   <g id="text_12">
    <text style="font: 7px 'Arial'; text-anchor: start" x="235.236367" y="578.579296" transform="rotate(-0 235.236367 578.579296)">477</text>
   </g>
   <g id="text_13">
    <text style="font: 7px 'Arial'; text-anchor: start" x="319.551485" y="574.166493" transform="rotate(-0 319.551485 574.166493)">533</text>
   </g>
   <g id="text_14">
    <text style="font: 7px 'Arial'; text-anchor: start" x="403.866603" y="577.476096" transform="rotate(-0 403.866603 577.476096)">491</text>
   </g>
   <g id="text_15">
    <text style="font: 7px 'Arial'; text-anchor: start" x="66.606131" y="456.990791" transform="rotate(-0 66.606131 456.990791)">120</text>
   </g>
   <g id="text_16">
    <text style="font: 7px 'Arial'; text-anchor: start" x="150.921249" y="454.863189" transform="rotate(-0 150.921249 454.863189)">111</text>
   </g>
   <g id="text_17">
    <text style="font: 7px 'Arial'; text-anchor: start" x="235.236367" y="456.51799" transform="rotate(-0 235.236367 456.51799)">118</text>
   </g>
   <g id="text_18">
    <text style="font: 7px 'Arial'; text-anchor: start" x="324.82118" y="443.279579" transform="rotate(-0 324.82118 443.279579)">62</text>
   </g>
   <g id="text_19">
    <text style="font: 7px 'Arial'; text-anchor: start" x="403.866603" y="453.208388" transform="rotate(-0 403.866603 453.208388)">104</text>
   </g>
   <g id="text_20">
    <text style="font: 7px 'Arial'; text-anchor: start" x="66.606131" y="398.20594" transform="rotate(-0 66.606131 398.20594)">386</text>
   </g>
   <g id="text_21">
    <text style="font: 7px 'Arial'; text-anchor: start" x="150.921249" y="406.873947" transform="rotate(-0 150.921249 406.873947)">276</text>
   </g>
   <g id="text_22">
    <text style="font: 7px 'Arial'; text-anchor: start" x="235.236367" y="408.449949" transform="rotate(-0 235.236367 408.449949)">256</text>
   </g>
   <g id="text_23">
    <text style="font: 7px 'Arial'; text-anchor: start" x="319.551485" y="384.494728" transform="rotate(-0 319.551485 384.494728)">560</text>
   </g>
   <g id="text_24">
    <text style="font: 7px 'Arial'; text-anchor: start" x="403.866603" y="398.99394" transform="rotate(-0 403.866603 398.99394)">376</text>
   </g>
   <g id="text_25">
    <text style="font: 7px 'Arial'; text-anchor: start" x="66.606131" y="239.266202" transform="rotate(-0 66.606131 239.266202)">859</text>
   </g>
   <g id="text_26">
    <text style="font: 7px 'Arial'; text-anchor: start" x="150.921249" y="265.270224" transform="rotate(-0 150.921249 265.270224)">969</text>
   </g>
   <g id="text_27">
    <text style="font: 7px 'Arial'; text-anchor: start" x="235.236367" y="269.998228" transform="rotate(-0 235.236367 269.998228)">989</text>
   </g>
   <g id="text_28">
    <text style="font: 7px 'Arial'; text-anchor: start" x="319.551485" y="198.132566" transform="rotate(-0 319.551485 198.132566)">685</text>
   </g>
   <g id="text_29">
    <text style="font: 7px 'Arial'; text-anchor: start" x="403.866603" y="241.630204" transform="rotate(-0 403.866603 241.630204)">869</text>
   </g>
   <g id="legend_1">
    <g id="patch_23">
     <path d="M 45.157656 660.617081 
L 204.908594 660.617081 
Q 206.308594 660.617081 206.308594 659.217081 
L 206.308594 650.015362 
Q 206.308594 648.615362 204.908594 648.615362 
L 45.157656 648.615362 
Q 43.757656 648.615362 43.757656 650.015362 
L 43.757656 659.217081 
Q 43.757656 660.617081 45.157656 660.617081 
z
" style="fill: #ffffff; opacity: 0.8; stroke: #cccccc; stroke-linejoin: miter"/>
    </g>
    <g id="patch_24">
     <path d="M 46.557656 656.425831 
L 60.557656 656.425831 
L 60.557656 651.525831 
L 46.557656 651.525831 
z
" style="fill: #fff2cc; stroke: #d6b656; stroke-width: 3; stroke-linejoin: miter"/>
    </g>
    <g id="text_30">
     <text style="font: 7px 'Arial'; text-anchor: start" x="66.157656" y="656.425831" transform="rotate(-0 66.157656 656.425831)">TN</text>
    </g>
    <g id="patch_25">
     <path d="M 89.488438 656.425831 
L 103.488438 656.425831 
L 103.488438 651.525831 
L 89.488438 651.525831 
z
" style="fill: #f8cecc; stroke: #b85450; stroke-width: 3; stroke-linejoin: miter"/>
    </g>
    <g id="text_31">
     <text style="font: 7px 'Arial'; text-anchor: start" x="109.088437" y="656.425831" transform="rotate(-0 109.088437 656.425831)">FP</text>
    </g>
    <g id="patch_26">
     <path d="M 132.033125 656.425831 
L 146.033125 656.425831 
L 146.033125 651.525831 
L 132.033125 651.525831 
z
" style="fill: #dae8fc; stroke: #6c8ebf; stroke-width: 3; stroke-linejoin: miter"/>
    </g>
    <g id="text_32">
     <text style="font: 7px 'Arial'; text-anchor: start" x="151.633125" y="656.425831" transform="rotate(-0 151.633125 656.425831)">FN</text>
    </g>
    <g id="patch_27">
     <path d="M 174.963906 656.425831 
L 188.963906 656.425831 
L 188.963906 651.525831 
L 174.963906 651.525831 
z
" style="fill: #d5e8d4; stroke: #82b366; stroke-width: 3; stroke-linejoin: miter"/>
    </g>
    <g id="text_33">
     <text style="font: 7px 'Arial'; text-anchor: start" x="194.563906" y="656.425831" transform="rotate(-0 194.563906 656.425831)">TP</text>
    </g>
   </g>
  </g>
 </g>
 <defs>
  <clipPath id="p279180c22b">
   <rect x="40.257656" y="7.2" width="421.575591" height="608.966929"/>
  </clipPath>
 </defs>
</svg>
