<?xml version="1.0" encoding="utf-8" standalone="no"?>
<!DOCTYPE svg PUBLIC "-//W3C//DTD SVG 1.1//EN"
  "http://www.w3.org/Graphics/SVG/1.1/DTD/svg11.dtd">
<svg xmlns:xlink="http://www.w3.org/1999/xlink" width="1755.348813pt" height="342.65725pt" viewBox="0 0 1755.348813 342.65725" xmlns="http://www.w3.org/2000/svg" version="1.1">
 <metadata>
  <rdf:RDF xmlns:dc="http://purl.org/dc/elements/1.1/" xmlns:cc="http://creativecommons.org/ns#" xmlns:rdf="http://www.w3.org/1999/02/22-rdf-syntax-ns#">
   <cc:Work>
    <dc:type rdf:resource="http://purl.org/dc/dcmitype/StillImage"/>
    <dc:date>2024-09-24T11:19:32.443695</dc:date>
    <dc:format>image/svg+xml</dc:format>
    <dc:creator>
     <cc:Agent>
      <dc:title>Matplotlib v3.7.0, https://matplotlib.org/</dc:title>
     </cc:Agent>
    </dc:creator>
   </cc:Work>
  </rdf:RDF>
 </metadata>
 <defs>
  <style type="text/css">*{stroke-linejoin: round; stroke-linecap: butt}</style>
 </defs>
 <g id="figure_1">
  <g id="patch_1">
   <path d="M 0 342.65725 
L 1755.348813 342.65725 
L 1755.348813 0 
L 0 0 
z
" style="fill: #ffffff"/>
  </g>
  <g id="axes_1">
   <g id="patch_2">
    <path d="M 74.148813 303.165375 
L 1748.148813 303.165375 
L 1748.148813 25.965375 
L 74.148813 25.965375 
z
" style="fill: #ffffff"/>
   </g>
   <g id="patch_3">
    <path d="M 150.239722 303.165375 
L 187.357238 303.165375 
L 187.357238 294.915375 
L 150.239722 294.915375 
z
" clip-path="url(#p4e93f046e8)" style="fill: #96c1ff"/>
   </g>
   <g id="patch_4">
    <path d="M 196.636617 303.165375 
L 233.754134 303.165375 
L 233.754134 293.540375 
L 196.636617 293.540375 
z
" clip-path="url(#p4e93f046e8)" style="fill: #96c1ff"/>
   </g>
   <g id="patch_5">
    <path d="M 243.033513 303.165375 
L 280.15103 303.165375 
L 280.15103 230.290375 
L 243.033513 230.290375 
z
" clip-path="url(#p4e93f046e8)" style="fill: #96c1ff"/>
   </g>
   <g id="patch_6">
    <path d="M 289.430409 303.165375 
L 326.547926 303.165375 
L 326.547926 39.165375 
L 289.430409 39.165375 
z
" clip-path="url(#p4e93f046e8)" style="fill: #96c1ff"/>
   </g>
   <g id="patch_7">
    <path d="M 335.827305 303.165375 
L 372.944821 303.165375 
L 372.944821 271.540375 
L 335.827305 271.540375 
z
" clip-path="url(#p4e93f046e8)" style="fill: #96c1ff"/>
   </g>
   <g id="patch_8">
    <path d="M 382.224201 303.165375 
L 419.341717 303.165375 
L 419.341717 282.540375 
L 382.224201 282.540375 
z
" clip-path="url(#p4e93f046e8)" style="fill: #96c1ff"/>
   </g>
   <g id="patch_9">
    <path d="M 428.621096 303.165375 
L 465.738613 303.165375 
L 465.738613 286.665375 
L 428.621096 286.665375 
z
" clip-path="url(#p4e93f046e8)" style="fill: #96c1ff"/>
   </g>
   <g id="patch_10">
    <path d="M 475.017992 303.165375 
L 512.135509 303.165375 
L 512.135509 278.415375 
L 475.017992 278.415375 
z
" clip-path="url(#p4e93f046e8)" style="fill: #96c1ff"/>
   </g>
   <g id="patch_11">
    <path d="M 521.414888 303.165375 
L 558.532405 303.165375 
L 558.532405 293.540375 
L 521.414888 293.540375 
z
" clip-path="url(#p4e93f046e8)" style="fill: #96c1ff"/>
   </g>
   <g id="patch_12">
    <path d="M 567.811784 303.165375 
L 604.9293 303.165375 
L 604.9293 299.040375 
L 567.811784 299.040375 
z
" clip-path="url(#p4e93f046e8)" style="fill: #96c1ff"/>
   </g>
   <g id="patch_13">
    <path d="M 614.208679 303.165375 
L 651.326196 303.165375 
L 651.326196 301.790375 
L 614.208679 301.790375 
z
" clip-path="url(#p4e93f046e8)" style="fill: #96c1ff"/>
   </g>
   <g id="patch_14">
    <path d="M 660.605575 303.165375 
L 697.723092 303.165375 
L 697.723092 301.790375 
L 660.605575 301.790375 
z
" clip-path="url(#p4e93f046e8)" style="fill: #96c1ff"/>
   </g>
   <g id="patch_15">
    <path d="M 707.002471 303.165375 
L 744.119988 303.165375 
L 744.119988 290.790375 
L 707.002471 290.790375 
z
" clip-path="url(#p4e93f046e8)" style="fill: #96c1ff"/>
   </g>
   <g id="patch_16">
    <path d="M 753.399367 303.165375 
L 790.516883 303.165375 
L 790.516883 285.290375 
L 753.399367 285.290375 
z
" clip-path="url(#p4e93f046e8)" style="fill: #96c1ff"/>
   </g>
   <g id="patch_17">
    <path d="M 799.796263 303.165375 
L 836.913779 303.165375 
L 836.913779 301.790375 
L 799.796263 301.790375 
z
" clip-path="url(#p4e93f046e8)" style="fill: #96c1ff"/>
   </g>
   <g id="patch_18">
    <path d="M 846.193158 303.165375 
L 883.310675 303.165375 
L 883.310675 297.665375 
L 846.193158 297.665375 
z
" clip-path="url(#p4e93f046e8)" style="fill: #96c1ff"/>
   </g>
   <g id="patch_19">
    <path d="M 892.590054 303.165375 
L 929.707571 303.165375 
L 929.707571 300.415375 
L 892.590054 300.415375 
z
" clip-path="url(#p4e93f046e8)" style="fill: #96c1ff"/>
   </g>
   <g id="patch_20">
    <path d="M 938.98695 303.165375 
L 976.104467 303.165375 
L 976.104467 301.790375 
L 938.98695 301.790375 
z
" clip-path="url(#p4e93f046e8)" style="fill: #96c1ff"/>
   </g>
   <g id="patch_21">
    <path d="M 985.383846 303.165375 
L 1022.501362 303.165375 
L 1022.501362 301.790375 
L 985.383846 301.790375 
z
" clip-path="url(#p4e93f046e8)" style="fill: #96c1ff"/>
   </g>
   <g id="patch_22">
    <path d="M 1031.780742 303.165375 
L 1068.898258 303.165375 
L 1068.898258 301.790375 
L 1031.780742 301.790375 
z
" clip-path="url(#p4e93f046e8)" style="fill: #96c1ff"/>
   </g>
   <g id="patch_23">
    <path d="M 1078.177637 303.165375 
L 1115.295154 303.165375 
L 1115.295154 301.790375 
L 1078.177637 301.790375 
z
" clip-path="url(#p4e93f046e8)" style="fill: #96c1ff"/>
   </g>
   <g id="patch_24">
    <path d="M 1124.574533 303.165375 
L 1161.69205 303.165375 
L 1161.69205 301.790375 
L 1124.574533 301.790375 
z
" clip-path="url(#p4e93f046e8)" style="fill: #96c1ff"/>
   </g>
   <g id="patch_25">
    <path d="M 1170.971429 303.165375 
L 1208.088946 303.165375 
L 1208.088946 301.790375 
L 1170.971429 301.790375 
z
" clip-path="url(#p4e93f046e8)" style="fill: #96c1ff"/>
   </g>
   <g id="patch_26">
    <path d="M 1217.368325 303.165375 
L 1254.485841 303.165375 
L 1254.485841 301.790375 
L 1217.368325 301.790375 
z
" clip-path="url(#p4e93f046e8)" style="fill: #96c1ff"/>
   </g>
   <g id="patch_27">
    <path d="M 1263.76522 303.165375 
L 1300.882737 303.165375 
L 1300.882737 301.790375 
L 1263.76522 301.790375 
z
" clip-path="url(#p4e93f046e8)" style="fill: #96c1ff"/>
   </g>
   <g id="patch_28">
    <path d="M 1310.162116 303.165375 
L 1347.279633 303.165375 
L 1347.279633 301.790375 
L 1310.162116 301.790375 
z
" clip-path="url(#p4e93f046e8)" style="fill: #96c1ff"/>
   </g>
   <g id="patch_29">
    <path d="M 1356.559012 303.165375 
L 1393.676529 303.165375 
L 1393.676529 301.790375 
L 1356.559012 301.790375 
z
" clip-path="url(#p4e93f046e8)" style="fill: #96c1ff"/>
   </g>
   <g id="patch_30">
    <path d="M 1402.955908 303.165375 
L 1440.073424 303.165375 
L 1440.073424 301.790375 
L 1402.955908 301.790375 
z
" clip-path="url(#p4e93f046e8)" style="fill: #96c1ff"/>
   </g>
   <g id="patch_31">
    <path d="M 1449.352804 303.165375 
L 1486.47032 303.165375 
L 1486.47032 301.790375 
L 1449.352804 301.790375 
z
" clip-path="url(#p4e93f046e8)" style="fill: #96c1ff"/>
   </g>
   <g id="patch_32">
    <path d="M 1495.749699 303.165375 
L 1532.867216 303.165375 
L 1532.867216 301.790375 
L 1495.749699 301.790375 
z
" clip-path="url(#p4e93f046e8)" style="fill: #96c1ff"/>
   </g>
   <g id="patch_33">
    <path d="M 1542.146595 303.165375 
L 1579.264112 303.165375 
L 1579.264112 301.790375 
L 1542.146595 301.790375 
z
" clip-path="url(#p4e93f046e8)" style="fill: #96c1ff"/>
   </g>
   <g id="patch_34">
    <path d="M 1588.543491 303.165375 
L 1625.661008 303.165375 
L 1625.661008 301.790375 
L 1588.543491 301.790375 
z
" clip-path="url(#p4e93f046e8)" style="fill: #96c1ff"/>
   </g>
   <g id="patch_35">
    <path d="M 1634.940387 303.165375 
L 1672.057903 303.165375 
L 1672.057903 301.790375 
L 1634.940387 301.790375 
z
" clip-path="url(#p4e93f046e8)" style="fill: #96c1ff"/>
   </g>
   <g id="patch_36">
    <path d="M 150.239722 303.165375 
L 187.357238 303.165375 
L 187.357238 303.165375 
L 150.239722 303.165375 
z
" clip-path="url(#p4e93f046e8)" style="fill: #ff8884"/>
   </g>
   <g id="patch_37">
    <path d="M 196.636617 303.165375 
L 233.754134 303.165375 
L 233.754134 303.165375 
L 196.636617 303.165375 
z
" clip-path="url(#p4e93f046e8)" style="fill: #ff8884"/>
   </g>
   <g id="patch_38">
    <path d="M 243.033513 303.165375 
L 280.15103 303.165375 
L 280.15103 275.665375 
L 243.033513 275.665375 
z
" clip-path="url(#p4e93f046e8)" style="fill: #ff8884"/>
   </g>
   <g id="patch_39">
    <path d="M 289.430409 303.165375 
L 326.547926 303.165375 
L 326.547926 175.290375 
L 289.430409 175.290375 
z
" clip-path="url(#p4e93f046e8)" style="fill: #ff8884"/>
   </g>
   <g id="patch_40">
    <path d="M 335.827305 303.165375 
L 372.944821 303.165375 
L 372.944821 303.165375 
L 335.827305 303.165375 
z
" clip-path="url(#p4e93f046e8)" style="fill: #ff8884"/>
   </g>
   <g id="patch_41">
    <path d="M 382.224201 303.165375 
L 419.341717 303.165375 
L 419.341717 301.790375 
L 382.224201 301.790375 
z
" clip-path="url(#p4e93f046e8)" style="fill: #ff8884"/>
   </g>
   <g id="patch_42">
    <path d="M 428.621096 303.165375 
L 465.738613 303.165375 
L 465.738613 297.665375 
L 428.621096 297.665375 
z
" clip-path="url(#p4e93f046e8)" style="fill: #ff8884"/>
   </g>
   <g id="patch_43">
    <path d="M 475.017992 303.165375 
L 512.135509 303.165375 
L 512.135509 303.165375 
L 475.017992 303.165375 
z
" clip-path="url(#p4e93f046e8)" style="fill: #ff8884"/>
   </g>
   <g id="patch_44">
    <path d="M 521.414888 303.165375 
L 558.532405 303.165375 
L 558.532405 303.165375 
L 521.414888 303.165375 
z
" clip-path="url(#p4e93f046e8)" style="fill: #ff8884"/>
   </g>
   <g id="patch_45">
    <path d="M 567.811784 303.165375 
L 604.9293 303.165375 
L 604.9293 303.165375 
L 567.811784 303.165375 
z
" clip-path="url(#p4e93f046e8)" style="fill: #ff8884"/>
   </g>
   <g id="patch_46">
    <path d="M 614.208679 303.165375 
L 651.326196 303.165375 
L 651.326196 303.165375 
L 614.208679 303.165375 
z
" clip-path="url(#p4e93f046e8)" style="fill: #ff8884"/>
   </g>
   <g id="patch_47">
    <path d="M 660.605575 303.165375 
L 697.723092 303.165375 
L 697.723092 303.165375 
L 660.605575 303.165375 
z
" clip-path="url(#p4e93f046e8)" style="fill: #ff8884"/>
   </g>
   <g id="patch_48">
    <path d="M 707.002471 303.165375 
L 744.119988 303.165375 
L 744.119988 303.165375 
L 707.002471 303.165375 
z
" clip-path="url(#p4e93f046e8)" style="fill: #ff8884"/>
   </g>
   <g id="patch_49">
    <path d="M 753.399367 303.165375 
L 790.516883 303.165375 
L 790.516883 303.165375 
L 753.399367 303.165375 
z
" clip-path="url(#p4e93f046e8)" style="fill: #ff8884"/>
   </g>
   <g id="patch_50">
    <path d="M 799.796263 303.165375 
L 836.913779 303.165375 
L 836.913779 303.165375 
L 799.796263 303.165375 
z
" clip-path="url(#p4e93f046e8)" style="fill: #ff8884"/>
   </g>
   <g id="patch_51">
    <path d="M 846.193158 303.165375 
L 883.310675 303.165375 
L 883.310675 303.165375 
L 846.193158 303.165375 
z
" clip-path="url(#p4e93f046e8)" style="fill: #ff8884"/>
   </g>
   <g id="patch_52">
    <path d="M 892.590054 303.165375 
L 929.707571 303.165375 
L 929.707571 301.790375 
L 892.590054 301.790375 
z
" clip-path="url(#p4e93f046e8)" style="fill: #ff8884"/>
   </g>
   <g id="patch_53">
    <path d="M 938.98695 303.165375 
L 976.104467 303.165375 
L 976.104467 303.165375 
L 938.98695 303.165375 
z
" clip-path="url(#p4e93f046e8)" style="fill: #ff8884"/>
   </g>
   <g id="patch_54">
    <path d="M 985.383846 303.165375 
L 1022.501362 303.165375 
L 1022.501362 303.165375 
L 985.383846 303.165375 
z
" clip-path="url(#p4e93f046e8)" style="fill: #ff8884"/>
   </g>
   <g id="patch_55">
    <path d="M 1031.780742 303.165375 
L 1068.898258 303.165375 
L 1068.898258 303.165375 
L 1031.780742 303.165375 
z
" clip-path="url(#p4e93f046e8)" style="fill: #ff8884"/>
   </g>
   <g id="patch_56">
    <path d="M 1078.177637 303.165375 
L 1115.295154 303.165375 
L 1115.295154 303.165375 
L 1078.177637 303.165375 
z
" clip-path="url(#p4e93f046e8)" style="fill: #ff8884"/>
   </g>
   <g id="patch_57">
    <path d="M 1124.574533 303.165375 
L 1161.69205 303.165375 
L 1161.69205 303.165375 
L 1124.574533 303.165375 
z
" clip-path="url(#p4e93f046e8)" style="fill: #ff8884"/>
   </g>
   <g id="patch_58">
    <path d="M 1170.971429 303.165375 
L 1208.088946 303.165375 
L 1208.088946 303.165375 
L 1170.971429 303.165375 
z
" clip-path="url(#p4e93f046e8)" style="fill: #ff8884"/>
   </g>
   <g id="patch_59">
    <path d="M 1217.368325 303.165375 
L 1254.485841 303.165375 
L 1254.485841 303.165375 
L 1217.368325 303.165375 
z
" clip-path="url(#p4e93f046e8)" style="fill: #ff8884"/>
   </g>
   <g id="patch_60">
    <path d="M 1263.76522 303.165375 
L 1300.882737 303.165375 
L 1300.882737 303.165375 
L 1263.76522 303.165375 
z
" clip-path="url(#p4e93f046e8)" style="fill: #ff8884"/>
   </g>
   <g id="patch_61">
    <path d="M 1310.162116 303.165375 
L 1347.279633 303.165375 
L 1347.279633 303.165375 
L 1310.162116 303.165375 
z
" clip-path="url(#p4e93f046e8)" style="fill: #ff8884"/>
   </g>
   <g id="patch_62">
    <path d="M 1356.559012 303.165375 
L 1393.676529 303.165375 
L 1393.676529 303.165375 
L 1356.559012 303.165375 
z
" clip-path="url(#p4e93f046e8)" style="fill: #ff8884"/>
   </g>
   <g id="patch_63">
    <path d="M 1402.955908 303.165375 
L 1440.073424 303.165375 
L 1440.073424 303.165375 
L 1402.955908 303.165375 
z
" clip-path="url(#p4e93f046e8)" style="fill: #ff8884"/>
   </g>
   <g id="patch_64">
    <path d="M 1449.352804 303.165375 
L 1486.47032 303.165375 
L 1486.47032 303.165375 
L 1449.352804 303.165375 
z
" clip-path="url(#p4e93f046e8)" style="fill: #ff8884"/>
   </g>
   <g id="patch_65">
    <path d="M 1495.749699 303.165375 
L 1532.867216 303.165375 
L 1532.867216 303.165375 
L 1495.749699 303.165375 
z
" clip-path="url(#p4e93f046e8)" style="fill: #ff8884"/>
   </g>
   <g id="patch_66">
    <path d="M 1542.146595 303.165375 
L 1579.264112 303.165375 
L 1579.264112 303.165375 
L 1542.146595 303.165375 
z
" clip-path="url(#p4e93f046e8)" style="fill: #ff8884"/>
   </g>
   <g id="patch_67">
    <path d="M 1588.543491 303.165375 
L 1625.661008 303.165375 
L 1625.661008 303.165375 
L 1588.543491 303.165375 
z
" clip-path="url(#p4e93f046e8)" style="fill: #ff8884"/>
   </g>
   <g id="patch_68">
    <path d="M 1634.940387 303.165375 
L 1672.057903 303.165375 
L 1672.057903 303.165375 
L 1634.940387 303.165375 
z
" clip-path="url(#p4e93f046e8)" style="fill: #ff8884"/>
   </g>
   <g id="matplotlib.axis_1">
    <g id="xtick_1">
     <g id="line2d_1">
      <defs>
       <path id="m9b95dd6c0f" d="M 0 0 
L 0 3.5 
" style="stroke: #000000; stroke-width: 0.8"/>
      </defs>
      <g>
       <use xlink:href="#m9b95dd6c0f" x="168.79848" y="303.165375" style="stroke: #000000; stroke-width: 0.8"/>
      </g>
     </g>
     <g id="text_1">
      <!-- 3 -->
      <g transform="translate(166.25348 316.244125) scale(0.08 -0.08)">
       <defs>
        <path id="DejaVuSans-33" d="M 2597 2516 
Q 3050 2419 3304 2112 
Q 3559 1806 3559 1356 
Q 3559 666 3084 287 
Q 2609 -91 1734 -91 
Q 1441 -91 1130 -33 
Q 819 25 488 141 
L 488 750 
Q 750 597 1062 519 
Q 1375 441 1716 441 
Q 2309 441 2620 675 
Q 2931 909 2931 1356 
Q 2931 1769 2642 2001 
Q 2353 2234 1838 2234 
L 1294 2234 
L 1294 2753 
L 1863 2753 
Q 2328 2753 2575 2939 
Q 2822 3125 2822 3475 
Q 2822 3834 2567 4026 
Q 2313 4219 1838 4219 
Q 1578 4219 1281 4162 
Q 984 4106 628 3988 
L 628 4550 
Q 988 4650 1302 4700 
Q 1616 4750 1894 4750 
Q 2613 4750 3031 4423 
Q 3450 4097 3450 3541 
Q 3450 3153 3228 2886 
Q 3006 2619 2597 2516 
z
" transform="scale(0.015625)"/>
       </defs>
       <use xlink:href="#DejaVuSans-33"/>
      </g>
     </g>
    </g>
    <g id="xtick_2">
     <g id="line2d_2">
      <g>
       <use xlink:href="#m9b95dd6c0f" x="215.195376" y="303.165375" style="stroke: #000000; stroke-width: 0.8"/>
      </g>
     </g>
     <g id="text_2">
      <!-- 4 -->
      <g transform="translate(212.650376 316.244125) scale(0.08 -0.08)">
       <defs>
        <path id="DejaVuSans-34" d="M 2419 4116 
L 825 1625 
L 2419 1625 
L 2419 4116 
z
M 2253 4666 
L 3047 4666 
L 3047 1625 
L 3713 1625 
L 3713 1100 
L 3047 1100 
L 3047 0 
L 2419 0 
L 2419 1100 
L 313 1100 
L 313 1709 
L 2253 4666 
z
" transform="scale(0.015625)"/>
       </defs>
       <use xlink:href="#DejaVuSans-34"/>
      </g>
     </g>
    </g>
    <g id="xtick_3">
     <g id="line2d_3">
      <g>
       <use xlink:href="#m9b95dd6c0f" x="261.592271" y="303.165375" style="stroke: #000000; stroke-width: 0.8"/>
      </g>
     </g>
     <g id="text_3">
      <!-- 5 -->
      <g transform="translate(259.047271 316.244125) scale(0.08 -0.08)">
       <defs>
        <path id="DejaVuSans-35" d="M 691 4666 
L 3169 4666 
L 3169 4134 
L 1269 4134 
L 1269 2991 
Q 1406 3038 1543 3061 
Q 1681 3084 1819 3084 
Q 2600 3084 3056 2656 
Q 3513 2228 3513 1497 
Q 3513 744 3044 326 
Q 2575 -91 1722 -91 
Q 1428 -91 1123 -41 
Q 819 9 494 109 
L 494 744 
Q 775 591 1075 516 
Q 1375 441 1709 441 
Q 2250 441 2565 725 
Q 2881 1009 2881 1497 
Q 2881 1984 2565 2268 
Q 2250 2553 1709 2553 
Q 1456 2553 1204 2497 
Q 953 2441 691 2322 
L 691 4666 
z
" transform="scale(0.015625)"/>
       </defs>
       <use xlink:href="#DejaVuSans-35"/>
      </g>
     </g>
    </g>
    <g id="xtick_4">
     <g id="line2d_4">
      <g>
       <use xlink:href="#m9b95dd6c0f" x="307.989167" y="303.165375" style="stroke: #000000; stroke-width: 0.8"/>
      </g>
     </g>
     <g id="text_4">
      <!-- 6 -->
      <g transform="translate(305.444167 316.244125) scale(0.08 -0.08)">
       <defs>
        <path id="DejaVuSans-36" d="M 2113 2584 
Q 1688 2584 1439 2293 
Q 1191 2003 1191 1497 
Q 1191 994 1439 701 
Q 1688 409 2113 409 
Q 2538 409 2786 701 
Q 3034 994 3034 1497 
Q 3034 2003 2786 2293 
Q 2538 2584 2113 2584 
z
M 3366 4563 
L 3366 3988 
Q 3128 4100 2886 4159 
Q 2644 4219 2406 4219 
Q 1781 4219 1451 3797 
Q 1122 3375 1075 2522 
Q 1259 2794 1537 2939 
Q 1816 3084 2150 3084 
Q 2853 3084 3261 2657 
Q 3669 2231 3669 1497 
Q 3669 778 3244 343 
Q 2819 -91 2113 -91 
Q 1303 -91 875 529 
Q 447 1150 447 2328 
Q 447 3434 972 4092 
Q 1497 4750 2381 4750 
Q 2619 4750 2861 4703 
Q 3103 4656 3366 4563 
z
" transform="scale(0.015625)"/>
       </defs>
       <use xlink:href="#DejaVuSans-36"/>
      </g>
     </g>
    </g>
    <g id="xtick_5">
     <g id="line2d_5">
      <g>
       <use xlink:href="#m9b95dd6c0f" x="354.386063" y="303.165375" style="stroke: #000000; stroke-width: 0.8"/>
      </g>
     </g>
     <g id="text_5">
      <!-- 7 -->
      <g transform="translate(351.841063 316.244125) scale(0.08 -0.08)">
       <defs>
        <path id="DejaVuSans-37" d="M 525 4666 
L 3525 4666 
L 3525 4397 
L 1831 0 
L 1172 0 
L 2766 4134 
L 525 4134 
L 525 4666 
z
" transform="scale(0.015625)"/>
       </defs>
       <use xlink:href="#DejaVuSans-37"/>
      </g>
     </g>
    </g>
    <g id="xtick_6">
     <g id="line2d_6">
      <g>
       <use xlink:href="#m9b95dd6c0f" x="400.782959" y="303.165375" style="stroke: #000000; stroke-width: 0.8"/>
      </g>
     </g>
     <g id="text_6">
      <!-- 8 -->
      <g transform="translate(398.237959 316.244125) scale(0.08 -0.08)">
       <defs>
        <path id="DejaVuSans-38" d="M 2034 2216 
Q 1584 2216 1326 1975 
Q 1069 1734 1069 1313 
Q 1069 891 1326 650 
Q 1584 409 2034 409 
Q 2484 409 2743 651 
Q 3003 894 3003 1313 
Q 3003 1734 2745 1975 
Q 2488 2216 2034 2216 
z
M 1403 2484 
Q 997 2584 770 2862 
Q 544 3141 544 3541 
Q 544 4100 942 4425 
Q 1341 4750 2034 4750 
Q 2731 4750 3128 4425 
Q 3525 4100 3525 3541 
Q 3525 3141 3298 2862 
Q 3072 2584 2669 2484 
Q 3125 2378 3379 2068 
Q 3634 1759 3634 1313 
Q 3634 634 3220 271 
Q 2806 -91 2034 -91 
Q 1263 -91 848 271 
Q 434 634 434 1313 
Q 434 1759 690 2068 
Q 947 2378 1403 2484 
z
M 1172 3481 
Q 1172 3119 1398 2916 
Q 1625 2713 2034 2713 
Q 2441 2713 2670 2916 
Q 2900 3119 2900 3481 
Q 2900 3844 2670 4047 
Q 2441 4250 2034 4250 
Q 1625 4250 1398 4047 
Q 1172 3844 1172 3481 
z
" transform="scale(0.015625)"/>
       </defs>
       <use xlink:href="#DejaVuSans-38"/>
      </g>
     </g>
    </g>
    <g id="xtick_7">
     <g id="line2d_7">
      <g>
       <use xlink:href="#m9b95dd6c0f" x="447.179855" y="303.165375" style="stroke: #000000; stroke-width: 0.8"/>
      </g>
     </g>
     <g id="text_7">
      <!-- 9 -->
      <g transform="translate(444.634855 316.244125) scale(0.08 -0.08)">
       <defs>
        <path id="DejaVuSans-39" d="M 703 97 
L 703 672 
Q 941 559 1184 500 
Q 1428 441 1663 441 
Q 2288 441 2617 861 
Q 2947 1281 2994 2138 
Q 2813 1869 2534 1725 
Q 2256 1581 1919 1581 
Q 1219 1581 811 2004 
Q 403 2428 403 3163 
Q 403 3881 828 4315 
Q 1253 4750 1959 4750 
Q 2769 4750 3195 4129 
Q 3622 3509 3622 2328 
Q 3622 1225 3098 567 
Q 2575 -91 1691 -91 
Q 1453 -91 1209 -44 
Q 966 3 703 97 
z
M 1959 2075 
Q 2384 2075 2632 2365 
Q 2881 2656 2881 3163 
Q 2881 3666 2632 3958 
Q 2384 4250 1959 4250 
Q 1534 4250 1286 3958 
Q 1038 3666 1038 3163 
Q 1038 2656 1286 2365 
Q 1534 2075 1959 2075 
z
" transform="scale(0.015625)"/>
       </defs>
       <use xlink:href="#DejaVuSans-39"/>
      </g>
     </g>
    </g>
    <g id="xtick_8">
     <g id="line2d_8">
      <g>
       <use xlink:href="#m9b95dd6c0f" x="493.57675" y="303.165375" style="stroke: #000000; stroke-width: 0.8"/>
      </g>
     </g>
     <g id="text_8">
      <!-- 10 -->
      <g transform="translate(488.48675 316.244125) scale(0.08 -0.08)">
       <defs>
        <path id="DejaVuSans-31" d="M 794 531 
L 1825 531 
L 1825 4091 
L 703 3866 
L 703 4441 
L 1819 4666 
L 2450 4666 
L 2450 531 
L 3481 531 
L 3481 0 
L 794 0 
L 794 531 
z
" transform="scale(0.015625)"/>
        <path id="DejaVuSans-30" d="M 2034 4250 
Q 1547 4250 1301 3770 
Q 1056 3291 1056 2328 
Q 1056 1369 1301 889 
Q 1547 409 2034 409 
Q 2525 409 2770 889 
Q 3016 1369 3016 2328 
Q 3016 3291 2770 3770 
Q 2525 4250 2034 4250 
z
M 2034 4750 
Q 2819 4750 3233 4129 
Q 3647 3509 3647 2328 
Q 3647 1150 3233 529 
Q 2819 -91 2034 -91 
Q 1250 -91 836 529 
Q 422 1150 422 2328 
Q 422 3509 836 4129 
Q 1250 4750 2034 4750 
z
" transform="scale(0.015625)"/>
       </defs>
       <use xlink:href="#DejaVuSans-31"/>
       <use xlink:href="#DejaVuSans-30" x="63.623047"/>
      </g>
     </g>
    </g>
    <g id="xtick_9">
     <g id="line2d_9">
      <g>
       <use xlink:href="#m9b95dd6c0f" x="539.973646" y="303.165375" style="stroke: #000000; stroke-width: 0.8"/>
      </g>
     </g>
     <g id="text_9">
      <!-- 11 -->
      <g transform="translate(534.883646 316.244125) scale(0.08 -0.08)">
       <use xlink:href="#DejaVuSans-31"/>
       <use xlink:href="#DejaVuSans-31" x="63.623047"/>
      </g>
     </g>
    </g>
    <g id="xtick_10">
     <g id="line2d_10">
      <g>
       <use xlink:href="#m9b95dd6c0f" x="586.370542" y="303.165375" style="stroke: #000000; stroke-width: 0.8"/>
      </g>
     </g>
     <g id="text_10">
      <!-- 12 -->
      <g transform="translate(581.280542 316.244125) scale(0.08 -0.08)">
       <defs>
        <path id="DejaVuSans-32" d="M 1228 531 
L 3431 531 
L 3431 0 
L 469 0 
L 469 531 
Q 828 903 1448 1529 
Q 2069 2156 2228 2338 
Q 2531 2678 2651 2914 
Q 2772 3150 2772 3378 
Q 2772 3750 2511 3984 
Q 2250 4219 1831 4219 
Q 1534 4219 1204 4116 
Q 875 4013 500 3803 
L 500 4441 
Q 881 4594 1212 4672 
Q 1544 4750 1819 4750 
Q 2544 4750 2975 4387 
Q 3406 4025 3406 3419 
Q 3406 3131 3298 2873 
Q 3191 2616 2906 2266 
Q 2828 2175 2409 1742 
Q 1991 1309 1228 531 
z
" transform="scale(0.015625)"/>
       </defs>
       <use xlink:href="#DejaVuSans-31"/>
       <use xlink:href="#DejaVuSans-32" x="63.623047"/>
      </g>
     </g>
    </g>
    <g id="xtick_11">
     <g id="line2d_11">
      <g>
       <use xlink:href="#m9b95dd6c0f" x="632.767438" y="303.165375" style="stroke: #000000; stroke-width: 0.8"/>
      </g>
     </g>
     <g id="text_11">
      <!-- 13 -->
      <g transform="translate(627.677438 316.244125) scale(0.08 -0.08)">
       <use xlink:href="#DejaVuSans-31"/>
       <use xlink:href="#DejaVuSans-33" x="63.623047"/>
      </g>
     </g>
    </g>
    <g id="xtick_12">
     <g id="line2d_12">
      <g>
       <use xlink:href="#m9b95dd6c0f" x="679.164334" y="303.165375" style="stroke: #000000; stroke-width: 0.8"/>
      </g>
     </g>
     <g id="text_12">
      <!-- 14 -->
      <g transform="translate(674.074334 316.244125) scale(0.08 -0.08)">
       <use xlink:href="#DejaVuSans-31"/>
       <use xlink:href="#DejaVuSans-34" x="63.623047"/>
      </g>
     </g>
    </g>
    <g id="xtick_13">
     <g id="line2d_13">
      <g>
       <use xlink:href="#m9b95dd6c0f" x="725.561229" y="303.165375" style="stroke: #000000; stroke-width: 0.8"/>
      </g>
     </g>
     <g id="text_13">
      <!-- 15 -->
      <g transform="translate(720.471229 316.244125) scale(0.08 -0.08)">
       <use xlink:href="#DejaVuSans-31"/>
       <use xlink:href="#DejaVuSans-35" x="63.623047"/>
      </g>
     </g>
    </g>
    <g id="xtick_14">
     <g id="line2d_14">
      <g>
       <use xlink:href="#m9b95dd6c0f" x="771.958125" y="303.165375" style="stroke: #000000; stroke-width: 0.8"/>
      </g>
     </g>
     <g id="text_14">
      <!-- 16 -->
      <g transform="translate(766.868125 316.244125) scale(0.08 -0.08)">
       <use xlink:href="#DejaVuSans-31"/>
       <use xlink:href="#DejaVuSans-36" x="63.623047"/>
      </g>
     </g>
    </g>
    <g id="xtick_15">
     <g id="line2d_15">
      <g>
       <use xlink:href="#m9b95dd6c0f" x="818.355021" y="303.165375" style="stroke: #000000; stroke-width: 0.8"/>
      </g>
     </g>
     <g id="text_15">
      <!-- 19 -->
      <g transform="translate(813.265021 316.244125) scale(0.08 -0.08)">
       <use xlink:href="#DejaVuSans-31"/>
       <use xlink:href="#DejaVuSans-39" x="63.623047"/>
      </g>
     </g>
    </g>
    <g id="xtick_16">
     <g id="line2d_16">
      <g>
       <use xlink:href="#m9b95dd6c0f" x="864.751917" y="303.165375" style="stroke: #000000; stroke-width: 0.8"/>
      </g>
     </g>
     <g id="text_16">
      <!-- 20 -->
      <g transform="translate(859.661917 316.244125) scale(0.08 -0.08)">
       <use xlink:href="#DejaVuSans-32"/>
       <use xlink:href="#DejaVuSans-30" x="63.623047"/>
      </g>
     </g>
    </g>
    <g id="xtick_17">
     <g id="line2d_17">
      <g>
       <use xlink:href="#m9b95dd6c0f" x="911.148813" y="303.165375" style="stroke: #000000; stroke-width: 0.8"/>
      </g>
     </g>
     <g id="text_17">
      <!-- 21 -->
      <g transform="translate(906.058813 316.244125) scale(0.08 -0.08)">
       <use xlink:href="#DejaVuSans-32"/>
       <use xlink:href="#DejaVuSans-31" x="63.623047"/>
      </g>
     </g>
    </g>
    <g id="xtick_18">
     <g id="line2d_18">
      <g>
       <use xlink:href="#m9b95dd6c0f" x="957.545708" y="303.165375" style="stroke: #000000; stroke-width: 0.8"/>
      </g>
     </g>
     <g id="text_18">
      <!-- 24 -->
      <g transform="translate(952.455708 316.244125) scale(0.08 -0.08)">
       <use xlink:href="#DejaVuSans-32"/>
       <use xlink:href="#DejaVuSans-34" x="63.623047"/>
      </g>
     </g>
    </g>
    <g id="xtick_19">
     <g id="line2d_19">
      <g>
       <use xlink:href="#m9b95dd6c0f" x="1003.942604" y="303.165375" style="stroke: #000000; stroke-width: 0.8"/>
      </g>
     </g>
     <g id="text_19">
      <!-- 60 -->
      <g transform="translate(998.852604 316.244125) scale(0.08 -0.08)">
       <use xlink:href="#DejaVuSans-36"/>
       <use xlink:href="#DejaVuSans-30" x="63.623047"/>
      </g>
     </g>
    </g>
    <g id="xtick_20">
     <g id="line2d_20">
      <g>
       <use xlink:href="#m9b95dd6c0f" x="1050.3395" y="303.165375" style="stroke: #000000; stroke-width: 0.8"/>
      </g>
     </g>
     <g id="text_20">
      <!-- 89 -->
      <g transform="translate(1045.2495 316.244125) scale(0.08 -0.08)">
       <use xlink:href="#DejaVuSans-38"/>
       <use xlink:href="#DejaVuSans-39" x="63.623047"/>
      </g>
     </g>
    </g>
    <g id="xtick_21">
     <g id="line2d_21">
      <g>
       <use xlink:href="#m9b95dd6c0f" x="1096.736396" y="303.165375" style="stroke: #000000; stroke-width: 0.8"/>
      </g>
     </g>
     <g id="text_21">
      <!-- 112 -->
      <g transform="translate(1089.101396 316.244125) scale(0.08 -0.08)">
       <use xlink:href="#DejaVuSans-31"/>
       <use xlink:href="#DejaVuSans-31" x="63.623047"/>
       <use xlink:href="#DejaVuSans-32" x="127.246094"/>
      </g>
     </g>
    </g>
    <g id="xtick_22">
     <g id="line2d_22">
      <g>
       <use xlink:href="#m9b95dd6c0f" x="1143.133291" y="303.165375" style="stroke: #000000; stroke-width: 0.8"/>
      </g>
     </g>
     <g id="text_22">
      <!-- 126 -->
      <g transform="translate(1135.498291 316.244125) scale(0.08 -0.08)">
       <use xlink:href="#DejaVuSans-31"/>
       <use xlink:href="#DejaVuSans-32" x="63.623047"/>
       <use xlink:href="#DejaVuSans-36" x="127.246094"/>
      </g>
     </g>
    </g>
    <g id="xtick_23">
     <g id="line2d_23">
      <g>
       <use xlink:href="#m9b95dd6c0f" x="1189.530187" y="303.165375" style="stroke: #000000; stroke-width: 0.8"/>
      </g>
     </g>
     <g id="text_23">
      <!-- 147 -->
      <g transform="translate(1181.895187 316.244125) scale(0.08 -0.08)">
       <use xlink:href="#DejaVuSans-31"/>
       <use xlink:href="#DejaVuSans-34" x="63.623047"/>
       <use xlink:href="#DejaVuSans-37" x="127.246094"/>
      </g>
     </g>
    </g>
    <g id="xtick_24">
     <g id="line2d_24">
      <g>
       <use xlink:href="#m9b95dd6c0f" x="1235.927083" y="303.165375" style="stroke: #000000; stroke-width: 0.8"/>
      </g>
     </g>
     <g id="text_24">
      <!-- 148 -->
      <g transform="translate(1228.292083 316.244125) scale(0.08 -0.08)">
       <use xlink:href="#DejaVuSans-31"/>
       <use xlink:href="#DejaVuSans-34" x="63.623047"/>
       <use xlink:href="#DejaVuSans-38" x="127.246094"/>
      </g>
     </g>
    </g>
    <g id="xtick_25">
     <g id="line2d_25">
      <g>
       <use xlink:href="#m9b95dd6c0f" x="1282.323979" y="303.165375" style="stroke: #000000; stroke-width: 0.8"/>
      </g>
     </g>
     <g id="text_25">
      <!-- 229 -->
      <g transform="translate(1274.688979 316.244125) scale(0.08 -0.08)">
       <use xlink:href="#DejaVuSans-32"/>
       <use xlink:href="#DejaVuSans-32" x="63.623047"/>
       <use xlink:href="#DejaVuSans-39" x="127.246094"/>
      </g>
     </g>
    </g>
    <g id="xtick_26">
     <g id="line2d_26">
      <g>
       <use xlink:href="#m9b95dd6c0f" x="1328.720875" y="303.165375" style="stroke: #000000; stroke-width: 0.8"/>
      </g>
     </g>
     <g id="text_26">
      <!-- 253 -->
      <g transform="translate(1321.085875 316.244125) scale(0.08 -0.08)">
       <use xlink:href="#DejaVuSans-32"/>
       <use xlink:href="#DejaVuSans-35" x="63.623047"/>
       <use xlink:href="#DejaVuSans-33" x="127.246094"/>
      </g>
     </g>
    </g>
    <g id="xtick_27">
     <g id="line2d_27">
      <g>
       <use xlink:href="#m9b95dd6c0f" x="1375.11777" y="303.165375" style="stroke: #000000; stroke-width: 0.8"/>
      </g>
     </g>
     <g id="text_27">
      <!-- 555 -->
      <g transform="translate(1367.48277 316.244125) scale(0.08 -0.08)">
       <use xlink:href="#DejaVuSans-35"/>
       <use xlink:href="#DejaVuSans-35" x="63.623047"/>
       <use xlink:href="#DejaVuSans-35" x="127.246094"/>
      </g>
     </g>
    </g>
    <g id="xtick_28">
     <g id="line2d_28">
      <g>
       <use xlink:href="#m9b95dd6c0f" x="1421.514666" y="303.165375" style="stroke: #000000; stroke-width: 0.8"/>
      </g>
     </g>
     <g id="text_28">
      <!-- 603 -->
      <g transform="translate(1413.879666 316.244125) scale(0.08 -0.08)">
       <use xlink:href="#DejaVuSans-36"/>
       <use xlink:href="#DejaVuSans-30" x="63.623047"/>
       <use xlink:href="#DejaVuSans-33" x="127.246094"/>
      </g>
     </g>
    </g>
    <g id="xtick_29">
     <g id="line2d_29">
      <g>
       <use xlink:href="#m9b95dd6c0f" x="1467.911562" y="303.165375" style="stroke: #000000; stroke-width: 0.8"/>
      </g>
     </g>
     <g id="text_29">
      <!-- 609 -->
      <g transform="translate(1460.276562 316.244125) scale(0.08 -0.08)">
       <use xlink:href="#DejaVuSans-36"/>
       <use xlink:href="#DejaVuSans-30" x="63.623047"/>
       <use xlink:href="#DejaVuSans-39" x="127.246094"/>
      </g>
     </g>
    </g>
    <g id="xtick_30">
     <g id="line2d_30">
      <g>
       <use xlink:href="#m9b95dd6c0f" x="1514.308458" y="303.165375" style="stroke: #000000; stroke-width: 0.8"/>
      </g>
     </g>
     <g id="text_30">
      <!-- 770 -->
      <g transform="translate(1506.673458 316.244125) scale(0.08 -0.08)">
       <use xlink:href="#DejaVuSans-37"/>
       <use xlink:href="#DejaVuSans-37" x="63.623047"/>
       <use xlink:href="#DejaVuSans-30" x="127.246094"/>
      </g>
     </g>
    </g>
    <g id="xtick_31">
     <g id="line2d_31">
      <g>
       <use xlink:href="#m9b95dd6c0f" x="1560.705354" y="303.165375" style="stroke: #000000; stroke-width: 0.8"/>
      </g>
     </g>
     <g id="text_31">
      <!-- 1255 -->
      <g transform="translate(1550.525354 316.244125) scale(0.08 -0.08)">
       <use xlink:href="#DejaVuSans-31"/>
       <use xlink:href="#DejaVuSans-32" x="63.623047"/>
       <use xlink:href="#DejaVuSans-35" x="127.246094"/>
       <use xlink:href="#DejaVuSans-35" x="190.869141"/>
      </g>
     </g>
    </g>
    <g id="xtick_32">
     <g id="line2d_32">
      <g>
       <use xlink:href="#m9b95dd6c0f" x="1607.102249" y="303.165375" style="stroke: #000000; stroke-width: 0.8"/>
      </g>
     </g>
     <g id="text_32">
      <!-- 1273 -->
      <g transform="translate(1596.922249 316.244125) scale(0.08 -0.08)">
       <use xlink:href="#DejaVuSans-31"/>
       <use xlink:href="#DejaVuSans-32" x="63.623047"/>
       <use xlink:href="#DejaVuSans-37" x="127.246094"/>
       <use xlink:href="#DejaVuSans-33" x="190.869141"/>
      </g>
     </g>
    </g>
    <g id="xtick_33">
     <g id="line2d_33">
      <g>
       <use xlink:href="#m9b95dd6c0f" x="1653.499145" y="303.165375" style="stroke: #000000; stroke-width: 0.8"/>
      </g>
     </g>
     <g id="text_33">
      <!-- 1353 -->
      <g transform="translate(1643.319145 316.244125) scale(0.08 -0.08)">
       <use xlink:href="#DejaVuSans-31"/>
       <use xlink:href="#DejaVuSans-33" x="63.623047"/>
       <use xlink:href="#DejaVuSans-35" x="127.246094"/>
       <use xlink:href="#DejaVuSans-33" x="190.869141"/>
      </g>
     </g>
    </g>
    <g id="text_34">
     <!-- Length of peptide sequence -->
     <g transform="translate(813.213344 332.545688) scale(0.14 -0.14)">
      <defs>
       <path id="DejaVuSans-4c" d="M 628 4666 
L 1259 4666 
L 1259 531 
L 3531 531 
L 3531 0 
L 628 0 
L 628 4666 
z
" transform="scale(0.015625)"/>
       <path id="DejaVuSans-65" d="M 3597 1894 
L 3597 1613 
L 953 1613 
Q 991 1019 1311 708 
Q 1631 397 2203 397 
Q 2534 397 2845 478 
Q 3156 559 3463 722 
L 3463 178 
Q 3153 47 2828 -22 
Q 2503 -91 2169 -91 
Q 1331 -91 842 396 
Q 353 884 353 1716 
Q 353 2575 817 3079 
Q 1281 3584 2069 3584 
Q 2775 3584 3186 3129 
Q 3597 2675 3597 1894 
z
M 3022 2063 
Q 3016 2534 2758 2815 
Q 2500 3097 2075 3097 
Q 1594 3097 1305 2825 
Q 1016 2553 972 2059 
L 3022 2063 
z
" transform="scale(0.015625)"/>
       <path id="DejaVuSans-6e" d="M 3513 2113 
L 3513 0 
L 2938 0 
L 2938 2094 
Q 2938 2591 2744 2837 
Q 2550 3084 2163 3084 
Q 1697 3084 1428 2787 
Q 1159 2491 1159 1978 
L 1159 0 
L 581 0 
L 581 3500 
L 1159 3500 
L 1159 2956 
Q 1366 3272 1645 3428 
Q 1925 3584 2291 3584 
Q 2894 3584 3203 3211 
Q 3513 2838 3513 2113 
z
" transform="scale(0.015625)"/>
       <path id="DejaVuSans-67" d="M 2906 1791 
Q 2906 2416 2648 2759 
Q 2391 3103 1925 3103 
Q 1463 3103 1205 2759 
Q 947 2416 947 1791 
Q 947 1169 1205 825 
Q 1463 481 1925 481 
Q 2391 481 2648 825 
Q 2906 1169 2906 1791 
z
M 3481 434 
Q 3481 -459 3084 -895 
Q 2688 -1331 1869 -1331 
Q 1566 -1331 1297 -1286 
Q 1028 -1241 775 -1147 
L 775 -588 
Q 1028 -725 1275 -790 
Q 1522 -856 1778 -856 
Q 2344 -856 2625 -561 
Q 2906 -266 2906 331 
L 2906 616 
Q 2728 306 2450 153 
Q 2172 0 1784 0 
Q 1141 0 747 490 
Q 353 981 353 1791 
Q 353 2603 747 3093 
Q 1141 3584 1784 3584 
Q 2172 3584 2450 3431 
Q 2728 3278 2906 2969 
L 2906 3500 
L 3481 3500 
L 3481 434 
z
" transform="scale(0.015625)"/>
       <path id="DejaVuSans-74" d="M 1172 4494 
L 1172 3500 
L 2356 3500 
L 2356 3053 
L 1172 3053 
L 1172 1153 
Q 1172 725 1289 603 
Q 1406 481 1766 481 
L 2356 481 
L 2356 0 
L 1766 0 
Q 1100 0 847 248 
Q 594 497 594 1153 
L 594 3053 
L 172 3053 
L 172 3500 
L 594 3500 
L 594 4494 
L 1172 4494 
z
" transform="scale(0.015625)"/>
       <path id="DejaVuSans-68" d="M 3513 2113 
L 3513 0 
L 2938 0 
L 2938 2094 
Q 2938 2591 2744 2837 
Q 2550 3084 2163 3084 
Q 1697 3084 1428 2787 
Q 1159 2491 1159 1978 
L 1159 0 
L 581 0 
L 581 4863 
L 1159 4863 
L 1159 2956 
Q 1366 3272 1645 3428 
Q 1925 3584 2291 3584 
Q 2894 3584 3203 3211 
Q 3513 2838 3513 2113 
z
" transform="scale(0.015625)"/>
       <path id="DejaVuSans-20" transform="scale(0.015625)"/>
       <path id="DejaVuSans-6f" d="M 1959 3097 
Q 1497 3097 1228 2736 
Q 959 2375 959 1747 
Q 959 1119 1226 758 
Q 1494 397 1959 397 
Q 2419 397 2687 759 
Q 2956 1122 2956 1747 
Q 2956 2369 2687 2733 
Q 2419 3097 1959 3097 
z
M 1959 3584 
Q 2709 3584 3137 3096 
Q 3566 2609 3566 1747 
Q 3566 888 3137 398 
Q 2709 -91 1959 -91 
Q 1206 -91 779 398 
Q 353 888 353 1747 
Q 353 2609 779 3096 
Q 1206 3584 1959 3584 
z
" transform="scale(0.015625)"/>
       <path id="DejaVuSans-66" d="M 2375 4863 
L 2375 4384 
L 1825 4384 
Q 1516 4384 1395 4259 
Q 1275 4134 1275 3809 
L 1275 3500 
L 2222 3500 
L 2222 3053 
L 1275 3053 
L 1275 0 
L 697 0 
L 697 3053 
L 147 3053 
L 147 3500 
L 697 3500 
L 697 3744 
Q 697 4328 969 4595 
Q 1241 4863 1831 4863 
L 2375 4863 
z
" transform="scale(0.015625)"/>
       <path id="DejaVuSans-70" d="M 1159 525 
L 1159 -1331 
L 581 -1331 
L 581 3500 
L 1159 3500 
L 1159 2969 
Q 1341 3281 1617 3432 
Q 1894 3584 2278 3584 
Q 2916 3584 3314 3078 
Q 3713 2572 3713 1747 
Q 3713 922 3314 415 
Q 2916 -91 2278 -91 
Q 1894 -91 1617 61 
Q 1341 213 1159 525 
z
M 3116 1747 
Q 3116 2381 2855 2742 
Q 2594 3103 2138 3103 
Q 1681 3103 1420 2742 
Q 1159 2381 1159 1747 
Q 1159 1113 1420 752 
Q 1681 391 2138 391 
Q 2594 391 2855 752 
Q 3116 1113 3116 1747 
z
" transform="scale(0.015625)"/>
       <path id="DejaVuSans-69" d="M 603 3500 
L 1178 3500 
L 1178 0 
L 603 0 
L 603 3500 
z
M 603 4863 
L 1178 4863 
L 1178 4134 
L 603 4134 
L 603 4863 
z
" transform="scale(0.015625)"/>
       <path id="DejaVuSans-64" d="M 2906 2969 
L 2906 4863 
L 3481 4863 
L 3481 0 
L 2906 0 
L 2906 525 
Q 2725 213 2448 61 
Q 2172 -91 1784 -91 
Q 1150 -91 751 415 
Q 353 922 353 1747 
Q 353 2572 751 3078 
Q 1150 3584 1784 3584 
Q 2172 3584 2448 3432 
Q 2725 3281 2906 2969 
z
M 947 1747 
Q 947 1113 1208 752 
Q 1469 391 1925 391 
Q 2381 391 2643 752 
Q 2906 1113 2906 1747 
Q 2906 2381 2643 2742 
Q 2381 3103 1925 3103 
Q 1469 3103 1208 2742 
Q 947 2381 947 1747 
z
" transform="scale(0.015625)"/>
       <path id="DejaVuSans-73" d="M 2834 3397 
L 2834 2853 
Q 2591 2978 2328 3040 
Q 2066 3103 1784 3103 
Q 1356 3103 1142 2972 
Q 928 2841 928 2578 
Q 928 2378 1081 2264 
Q 1234 2150 1697 2047 
L 1894 2003 
Q 2506 1872 2764 1633 
Q 3022 1394 3022 966 
Q 3022 478 2636 193 
Q 2250 -91 1575 -91 
Q 1294 -91 989 -36 
Q 684 19 347 128 
L 347 722 
Q 666 556 975 473 
Q 1284 391 1588 391 
Q 1994 391 2212 530 
Q 2431 669 2431 922 
Q 2431 1156 2273 1281 
Q 2116 1406 1581 1522 
L 1381 1569 
Q 847 1681 609 1914 
Q 372 2147 372 2553 
Q 372 3047 722 3315 
Q 1072 3584 1716 3584 
Q 2034 3584 2315 3537 
Q 2597 3491 2834 3397 
z
" transform="scale(0.015625)"/>
       <path id="DejaVuSans-71" d="M 947 1747 
Q 947 1113 1208 752 
Q 1469 391 1925 391 
Q 2381 391 2643 752 
Q 2906 1113 2906 1747 
Q 2906 2381 2643 2742 
Q 2381 3103 1925 3103 
Q 1469 3103 1208 2742 
Q 947 2381 947 1747 
z
M 2906 525 
Q 2725 213 2448 61 
Q 2172 -91 1784 -91 
Q 1150 -91 751 415 
Q 353 922 353 1747 
Q 353 2572 751 3078 
Q 1150 3584 1784 3584 
Q 2172 3584 2448 3432 
Q 2725 3281 2906 2969 
L 2906 3500 
L 3481 3500 
L 3481 -1331 
L 2906 -1331 
L 2906 525 
z
" transform="scale(0.015625)"/>
       <path id="DejaVuSans-75" d="M 544 1381 
L 544 3500 
L 1119 3500 
L 1119 1403 
Q 1119 906 1312 657 
Q 1506 409 1894 409 
Q 2359 409 2629 706 
Q 2900 1003 2900 1516 
L 2900 3500 
L 3475 3500 
L 3475 0 
L 2900 0 
L 2900 538 
Q 2691 219 2414 64 
Q 2138 -91 1772 -91 
Q 1169 -91 856 284 
Q 544 659 544 1381 
z
M 1991 3584 
L 1991 3584 
z
" transform="scale(0.015625)"/>
       <path id="DejaVuSans-63" d="M 3122 3366 
L 3122 2828 
Q 2878 2963 2633 3030 
Q 2388 3097 2138 3097 
Q 1578 3097 1268 2742 
Q 959 2388 959 1747 
Q 959 1106 1268 751 
Q 1578 397 2138 397 
Q 2388 397 2633 464 
Q 2878 531 3122 666 
L 3122 134 
Q 2881 22 2623 -34 
Q 2366 -91 2075 -91 
Q 1284 -91 818 406 
Q 353 903 353 1747 
Q 353 2603 823 3093 
Q 1294 3584 2113 3584 
Q 2378 3584 2631 3529 
Q 2884 3475 3122 3366 
z
" transform="scale(0.015625)"/>
      </defs>
      <use xlink:href="#DejaVuSans-4c"/>
      <use xlink:href="#DejaVuSans-65" x="53.962891"/>
      <use xlink:href="#DejaVuSans-6e" x="115.486328"/>
      <use xlink:href="#DejaVuSans-67" x="178.865234"/>
      <use xlink:href="#DejaVuSans-74" x="242.341797"/>
      <use xlink:href="#DejaVuSans-68" x="281.550781"/>
      <use xlink:href="#DejaVuSans-20" x="344.929688"/>
      <use xlink:href="#DejaVuSans-6f" x="376.716797"/>
      <use xlink:href="#DejaVuSans-66" x="437.898438"/>
      <use xlink:href="#DejaVuSans-20" x="473.103516"/>
      <use xlink:href="#DejaVuSans-70" x="504.890625"/>
      <use xlink:href="#DejaVuSans-65" x="568.367188"/>
      <use xlink:href="#DejaVuSans-70" x="629.890625"/>
      <use xlink:href="#DejaVuSans-74" x="693.367188"/>
      <use xlink:href="#DejaVuSans-69" x="732.576172"/>
      <use xlink:href="#DejaVuSans-64" x="760.359375"/>
      <use xlink:href="#DejaVuSans-65" x="823.835938"/>
      <use xlink:href="#DejaVuSans-20" x="885.359375"/>
      <use xlink:href="#DejaVuSans-73" x="917.146484"/>
      <use xlink:href="#DejaVuSans-65" x="969.246094"/>
      <use xlink:href="#DejaVuSans-71" x="1030.769531"/>
      <use xlink:href="#DejaVuSans-75" x="1094.246094"/>
      <use xlink:href="#DejaVuSans-65" x="1157.625"/>
      <use xlink:href="#DejaVuSans-6e" x="1219.148438"/>
      <use xlink:href="#DejaVuSans-63" x="1282.527344"/>
      <use xlink:href="#DejaVuSans-65" x="1337.507812"/>
     </g>
    </g>
   </g>
   <g id="matplotlib.axis_2">
    <g id="ytick_1">
     <g id="line2d_34">
      <defs>
       <path id="m525116596e" d="M 0 0 
L -3.5 0 
" style="stroke: #000000; stroke-width: 0.8"/>
      </defs>
      <g>
       <use xlink:href="#m525116596e" x="74.148813" y="303.165375" style="stroke: #000000; stroke-width: 0.8"/>
      </g>
     </g>
     <g id="text_35">
      <!-- 0 -->
      <g transform="translate(58.241313 308.484281) scale(0.14 -0.14)">
       <use xlink:href="#DejaVuSans-30"/>
      </g>
     </g>
    </g>
    <g id="ytick_2">
     <g id="line2d_35">
      <g>
       <use xlink:href="#m525116596e" x="74.148813" y="268.790375" style="stroke: #000000; stroke-width: 0.8"/>
      </g>
     </g>
     <g id="text_36">
      <!-- 25 -->
      <g transform="translate(49.333813 274.109281) scale(0.14 -0.14)">
       <use xlink:href="#DejaVuSans-32"/>
       <use xlink:href="#DejaVuSans-35" x="63.623047"/>
      </g>
     </g>
    </g>
    <g id="ytick_3">
     <g id="line2d_36">
      <g>
       <use xlink:href="#m525116596e" x="74.148813" y="234.415375" style="stroke: #000000; stroke-width: 0.8"/>
      </g>
     </g>
     <g id="text_37">
      <!-- 50 -->
      <g transform="translate(49.333813 239.734281) scale(0.14 -0.14)">
       <use xlink:href="#DejaVuSans-35"/>
       <use xlink:href="#DejaVuSans-30" x="63.623047"/>
      </g>
     </g>
    </g>
    <g id="ytick_4">
     <g id="line2d_37">
      <g>
       <use xlink:href="#m525116596e" x="74.148813" y="200.040375" style="stroke: #000000; stroke-width: 0.8"/>
      </g>
     </g>
     <g id="text_38">
      <!-- 75 -->
      <g transform="translate(49.333813 205.359281) scale(0.14 -0.14)">
       <use xlink:href="#DejaVuSans-37"/>
       <use xlink:href="#DejaVuSans-35" x="63.623047"/>
      </g>
     </g>
    </g>
    <g id="ytick_5">
     <g id="line2d_38">
      <g>
       <use xlink:href="#m525116596e" x="74.148813" y="165.665375" style="stroke: #000000; stroke-width: 0.8"/>
      </g>
     </g>
     <g id="text_39">
      <!-- 100 -->
      <g transform="translate(40.426313 170.984281) scale(0.14 -0.14)">
       <use xlink:href="#DejaVuSans-31"/>
       <use xlink:href="#DejaVuSans-30" x="63.623047"/>
       <use xlink:href="#DejaVuSans-30" x="127.246094"/>
      </g>
     </g>
    </g>
    <g id="ytick_6">
     <g id="line2d_39">
      <g>
       <use xlink:href="#m525116596e" x="74.148813" y="131.290375" style="stroke: #000000; stroke-width: 0.8"/>
      </g>
     </g>
     <g id="text_40">
      <!-- 125 -->
      <g transform="translate(40.426313 136.609281) scale(0.14 -0.14)">
       <use xlink:href="#DejaVuSans-31"/>
       <use xlink:href="#DejaVuSans-32" x="63.623047"/>
       <use xlink:href="#DejaVuSans-35" x="127.246094"/>
      </g>
     </g>
    </g>
    <g id="ytick_7">
     <g id="line2d_40">
      <g>
       <use xlink:href="#m525116596e" x="74.148813" y="96.915375" style="stroke: #000000; stroke-width: 0.8"/>
      </g>
     </g>
     <g id="text_41">
      <!-- 150 -->
      <g transform="translate(40.426313 102.234281) scale(0.14 -0.14)">
       <use xlink:href="#DejaVuSans-31"/>
       <use xlink:href="#DejaVuSans-35" x="63.623047"/>
       <use xlink:href="#DejaVuSans-30" x="127.246094"/>
      </g>
     </g>
    </g>
    <g id="ytick_8">
     <g id="line2d_41">
      <g>
       <use xlink:href="#m525116596e" x="74.148813" y="62.540375" style="stroke: #000000; stroke-width: 0.8"/>
      </g>
     </g>
     <g id="text_42">
      <!-- 175 -->
      <g transform="translate(40.426313 67.859281) scale(0.14 -0.14)">
       <use xlink:href="#DejaVuSans-31"/>
       <use xlink:href="#DejaVuSans-37" x="63.623047"/>
       <use xlink:href="#DejaVuSans-35" x="127.246094"/>
      </g>
     </g>
    </g>
    <g id="ytick_9">
     <g id="line2d_42">
      <g>
       <use xlink:href="#m525116596e" x="74.148813" y="28.165375" style="stroke: #000000; stroke-width: 0.8"/>
      </g>
     </g>
     <g id="text_43">
      <!-- 200 -->
      <g transform="translate(40.426313 33.484281) scale(0.14 -0.14)">
       <use xlink:href="#DejaVuSans-32"/>
       <use xlink:href="#DejaVuSans-30" x="63.623047"/>
       <use xlink:href="#DejaVuSans-30" x="127.246094"/>
      </g>
     </g>
    </g>
    <g id="text_44">
     <!-- Number of sample peptides -->
     <g transform="translate(17.837813 261.839125) rotate(-90) scale(0.14 -0.14)">
      <defs>
       <path id="DejaVuSans-4e" d="M 628 4666 
L 1478 4666 
L 3547 763 
L 3547 4666 
L 4159 4666 
L 4159 0 
L 3309 0 
L 1241 3903 
L 1241 0 
L 628 0 
L 628 4666 
z
" transform="scale(0.015625)"/>
       <path id="DejaVuSans-6d" d="M 3328 2828 
Q 3544 3216 3844 3400 
Q 4144 3584 4550 3584 
Q 5097 3584 5394 3201 
Q 5691 2819 5691 2113 
L 5691 0 
L 5113 0 
L 5113 2094 
Q 5113 2597 4934 2840 
Q 4756 3084 4391 3084 
Q 3944 3084 3684 2787 
Q 3425 2491 3425 1978 
L 3425 0 
L 2847 0 
L 2847 2094 
Q 2847 2600 2669 2842 
Q 2491 3084 2119 3084 
Q 1678 3084 1418 2786 
Q 1159 2488 1159 1978 
L 1159 0 
L 581 0 
L 581 3500 
L 1159 3500 
L 1159 2956 
Q 1356 3278 1631 3431 
Q 1906 3584 2284 3584 
Q 2666 3584 2933 3390 
Q 3200 3197 3328 2828 
z
" transform="scale(0.015625)"/>
       <path id="DejaVuSans-62" d="M 3116 1747 
Q 3116 2381 2855 2742 
Q 2594 3103 2138 3103 
Q 1681 3103 1420 2742 
Q 1159 2381 1159 1747 
Q 1159 1113 1420 752 
Q 1681 391 2138 391 
Q 2594 391 2855 752 
Q 3116 1113 3116 1747 
z
M 1159 2969 
Q 1341 3281 1617 3432 
Q 1894 3584 2278 3584 
Q 2916 3584 3314 3078 
Q 3713 2572 3713 1747 
Q 3713 922 3314 415 
Q 2916 -91 2278 -91 
Q 1894 -91 1617 61 
Q 1341 213 1159 525 
L 1159 0 
L 581 0 
L 581 4863 
L 1159 4863 
L 1159 2969 
z
" transform="scale(0.015625)"/>
       <path id="DejaVuSans-72" d="M 2631 2963 
Q 2534 3019 2420 3045 
Q 2306 3072 2169 3072 
Q 1681 3072 1420 2755 
Q 1159 2438 1159 1844 
L 1159 0 
L 581 0 
L 581 3500 
L 1159 3500 
L 1159 2956 
Q 1341 3275 1631 3429 
Q 1922 3584 2338 3584 
Q 2397 3584 2469 3576 
Q 2541 3569 2628 3553 
L 2631 2963 
z
" transform="scale(0.015625)"/>
       <path id="DejaVuSans-61" d="M 2194 1759 
Q 1497 1759 1228 1600 
Q 959 1441 959 1056 
Q 959 750 1161 570 
Q 1363 391 1709 391 
Q 2188 391 2477 730 
Q 2766 1069 2766 1631 
L 2766 1759 
L 2194 1759 
z
M 3341 1997 
L 3341 0 
L 2766 0 
L 2766 531 
Q 2569 213 2275 61 
Q 1981 -91 1556 -91 
Q 1019 -91 701 211 
Q 384 513 384 1019 
Q 384 1609 779 1909 
Q 1175 2209 1959 2209 
L 2766 2209 
L 2766 2266 
Q 2766 2663 2505 2880 
Q 2244 3097 1772 3097 
Q 1472 3097 1187 3025 
Q 903 2953 641 2809 
L 641 3341 
Q 956 3463 1253 3523 
Q 1550 3584 1831 3584 
Q 2591 3584 2966 3190 
Q 3341 2797 3341 1997 
z
" transform="scale(0.015625)"/>
       <path id="DejaVuSans-6c" d="M 603 4863 
L 1178 4863 
L 1178 0 
L 603 0 
L 603 4863 
z
" transform="scale(0.015625)"/>
      </defs>
      <use xlink:href="#DejaVuSans-4e"/>
      <use xlink:href="#DejaVuSans-75" x="74.804688"/>
      <use xlink:href="#DejaVuSans-6d" x="138.183594"/>
      <use xlink:href="#DejaVuSans-62" x="235.595703"/>
      <use xlink:href="#DejaVuSans-65" x="299.072266"/>
      <use xlink:href="#DejaVuSans-72" x="360.595703"/>
      <use xlink:href="#DejaVuSans-20" x="401.708984"/>
      <use xlink:href="#DejaVuSans-6f" x="433.496094"/>
      <use xlink:href="#DejaVuSans-66" x="494.677734"/>
      <use xlink:href="#DejaVuSans-20" x="529.882812"/>
      <use xlink:href="#DejaVuSans-73" x="561.669922"/>
      <use xlink:href="#DejaVuSans-61" x="613.769531"/>
      <use xlink:href="#DejaVuSans-6d" x="675.048828"/>
      <use xlink:href="#DejaVuSans-70" x="772.460938"/>
      <use xlink:href="#DejaVuSans-6c" x="835.9375"/>
      <use xlink:href="#DejaVuSans-65" x="863.720703"/>
      <use xlink:href="#DejaVuSans-20" x="925.244141"/>
      <use xlink:href="#DejaVuSans-70" x="957.03125"/>
      <use xlink:href="#DejaVuSans-65" x="1020.507812"/>
      <use xlink:href="#DejaVuSans-70" x="1082.03125"/>
      <use xlink:href="#DejaVuSans-74" x="1145.507812"/>
      <use xlink:href="#DejaVuSans-69" x="1184.716797"/>
      <use xlink:href="#DejaVuSans-64" x="1212.5"/>
      <use xlink:href="#DejaVuSans-65" x="1275.976562"/>
      <use xlink:href="#DejaVuSans-73" x="1337.5"/>
     </g>
     <!-- of a given length -->
     <g transform="translate(33.51475 223.864125) rotate(-90) scale(0.14 -0.14)">
      <defs>
       <path id="DejaVuSans-76" d="M 191 3500 
L 800 3500 
L 1894 563 
L 2988 3500 
L 3597 3500 
L 2284 0 
L 1503 0 
L 191 3500 
z
" transform="scale(0.015625)"/>
      </defs>
      <use xlink:href="#DejaVuSans-6f"/>
      <use xlink:href="#DejaVuSans-66" x="61.181641"/>
      <use xlink:href="#DejaVuSans-20" x="96.386719"/>
      <use xlink:href="#DejaVuSans-61" x="128.173828"/>
      <use xlink:href="#DejaVuSans-20" x="189.453125"/>
      <use xlink:href="#DejaVuSans-67" x="221.240234"/>
      <use xlink:href="#DejaVuSans-69" x="284.716797"/>
      <use xlink:href="#DejaVuSans-76" x="312.5"/>
      <use xlink:href="#DejaVuSans-65" x="371.679688"/>
      <use xlink:href="#DejaVuSans-6e" x="433.203125"/>
      <use xlink:href="#DejaVuSans-20" x="496.582031"/>
      <use xlink:href="#DejaVuSans-6c" x="528.369141"/>
      <use xlink:href="#DejaVuSans-65" x="556.152344"/>
      <use xlink:href="#DejaVuSans-6e" x="617.675781"/>
      <use xlink:href="#DejaVuSans-67" x="681.054688"/>
      <use xlink:href="#DejaVuSans-74" x="744.53125"/>
      <use xlink:href="#DejaVuSans-68" x="783.740234"/>
     </g>
    </g>
   </g>
   <g id="patch_69">
    <path d="M 74.148813 303.165375 
L 74.148813 25.965375 
" style="fill: none; stroke: #000000; stroke-width: 0.8; stroke-linejoin: miter; stroke-linecap: square"/>
   </g>
   <g id="patch_70">
    <path d="M 74.148813 303.165375 
L 1748.148812 303.165375 
" style="fill: none; stroke: #000000; stroke-width: 0.8; stroke-linejoin: miter; stroke-linecap: square"/>
   </g>
   <g id="text_45">
    <!-- Sample peptides by self-assembly category and length -->
    <g transform="translate(679.99525 19.965375) scale(0.168 -0.168)">
     <defs>
      <path id="DejaVuSans-53" d="M 3425 4513 
L 3425 3897 
Q 3066 4069 2747 4153 
Q 2428 4238 2131 4238 
Q 1616 4238 1336 4038 
Q 1056 3838 1056 3469 
Q 1056 3159 1242 3001 
Q 1428 2844 1947 2747 
L 2328 2669 
Q 3034 2534 3370 2195 
Q 3706 1856 3706 1288 
Q 3706 609 3251 259 
Q 2797 -91 1919 -91 
Q 1588 -91 1214 -16 
Q 841 59 441 206 
L 441 856 
Q 825 641 1194 531 
Q 1563 422 1919 422 
Q 2459 422 2753 634 
Q 3047 847 3047 1241 
Q 3047 1584 2836 1778 
Q 2625 1972 2144 2069 
L 1759 2144 
Q 1053 2284 737 2584 
Q 422 2884 422 3419 
Q 422 4038 858 4394 
Q 1294 4750 2059 4750 
Q 2388 4750 2728 4690 
Q 3069 4631 3425 4513 
z
" transform="scale(0.015625)"/>
      <path id="DejaVuSans-79" d="M 2059 -325 
Q 1816 -950 1584 -1140 
Q 1353 -1331 966 -1331 
L 506 -1331 
L 506 -850 
L 844 -850 
Q 1081 -850 1212 -737 
Q 1344 -625 1503 -206 
L 1606 56 
L 191 3500 
L 800 3500 
L 1894 763 
L 2988 3500 
L 3597 3500 
L 2059 -325 
z
" transform="scale(0.015625)"/>
      <path id="DejaVuSans-2d" d="M 313 2009 
L 1997 2009 
L 1997 1497 
L 313 1497 
L 313 2009 
z
" transform="scale(0.015625)"/>
     </defs>
     <use xlink:href="#DejaVuSans-53"/>
     <use xlink:href="#DejaVuSans-61" x="63.476562"/>
     <use xlink:href="#DejaVuSans-6d" x="124.755859"/>
     <use xlink:href="#DejaVuSans-70" x="222.167969"/>
     <use xlink:href="#DejaVuSans-6c" x="285.644531"/>
     <use xlink:href="#DejaVuSans-65" x="313.427734"/>
     <use xlink:href="#DejaVuSans-20" x="374.951172"/>
     <use xlink:href="#DejaVuSans-70" x="406.738281"/>
     <use xlink:href="#DejaVuSans-65" x="470.214844"/>
     <use xlink:href="#DejaVuSans-70" x="531.738281"/>
     <use xlink:href="#DejaVuSans-74" x="595.214844"/>
     <use xlink:href="#DejaVuSans-69" x="634.423828"/>
     <use xlink:href="#DejaVuSans-64" x="662.207031"/>
     <use xlink:href="#DejaVuSans-65" x="725.683594"/>
     <use xlink:href="#DejaVuSans-73" x="787.207031"/>
     <use xlink:href="#DejaVuSans-20" x="839.306641"/>
     <use xlink:href="#DejaVuSans-62" x="871.09375"/>
     <use xlink:href="#DejaVuSans-79" x="934.570312"/>
     <use xlink:href="#DejaVuSans-20" x="993.75"/>
     <use xlink:href="#DejaVuSans-73" x="1025.537109"/>
     <use xlink:href="#DejaVuSans-65" x="1077.636719"/>
     <use xlink:href="#DejaVuSans-6c" x="1139.160156"/>
     <use xlink:href="#DejaVuSans-66" x="1166.943359"/>
     <use xlink:href="#DejaVuSans-2d" x="1196.648438"/>
     <use xlink:href="#DejaVuSans-61" x="1232.732422"/>
     <use xlink:href="#DejaVuSans-73" x="1294.011719"/>
     <use xlink:href="#DejaVuSans-73" x="1346.111328"/>
     <use xlink:href="#DejaVuSans-65" x="1398.210938"/>
     <use xlink:href="#DejaVuSans-6d" x="1459.734375"/>
     <use xlink:href="#DejaVuSans-62" x="1557.146484"/>
     <use xlink:href="#DejaVuSans-6c" x="1620.623047"/>
     <use xlink:href="#DejaVuSans-79" x="1648.40625"/>
     <use xlink:href="#DejaVuSans-20" x="1707.585938"/>
     <use xlink:href="#DejaVuSans-63" x="1739.373047"/>
     <use xlink:href="#DejaVuSans-61" x="1794.353516"/>
     <use xlink:href="#DejaVuSans-74" x="1855.632812"/>
     <use xlink:href="#DejaVuSans-65" x="1894.841797"/>
     <use xlink:href="#DejaVuSans-67" x="1956.365234"/>
     <use xlink:href="#DejaVuSans-6f" x="2019.841797"/>
     <use xlink:href="#DejaVuSans-72" x="2081.023438"/>
     <use xlink:href="#DejaVuSans-79" x="2122.136719"/>
     <use xlink:href="#DejaVuSans-20" x="2181.316406"/>
     <use xlink:href="#DejaVuSans-61" x="2213.103516"/>
     <use xlink:href="#DejaVuSans-6e" x="2274.382812"/>
     <use xlink:href="#DejaVuSans-64" x="2337.761719"/>
     <use xlink:href="#DejaVuSans-20" x="2401.238281"/>
     <use xlink:href="#DejaVuSans-6c" x="2433.025391"/>
     <use xlink:href="#DejaVuSans-65" x="2460.808594"/>
     <use xlink:href="#DejaVuSans-6e" x="2522.332031"/>
     <use xlink:href="#DejaVuSans-67" x="2585.710938"/>
     <use xlink:href="#DejaVuSans-74" x="2649.1875"/>
     <use xlink:href="#DejaVuSans-68" x="2688.396484"/>
    </g>
   </g>
   <g id="legend_1">
    <g id="patch_71">
     <path d="M 1664.347875 78.264125 
L 1738.348812 78.264125 
Q 1741.148812 78.264125 1741.148812 75.464125 
L 1741.148812 35.765375 
Q 1741.148812 32.965375 1738.348812 32.965375 
L 1664.347875 32.965375 
Q 1661.547875 32.965375 1661.547875 35.765375 
L 1661.547875 75.464125 
Q 1661.547875 78.264125 1664.347875 78.264125 
z
" style="fill: #ffffff; opacity: 0.8; stroke: #cccccc; stroke-linejoin: miter"/>
    </g>
    <g id="patch_72">
     <path d="M 1667.147875 49.203187 
L 1695.147875 49.203187 
L 1695.147875 39.403187 
L 1667.147875 39.403187 
z
" style="fill: #96c1ff"/>
    </g>
    <g id="text_46">
     <!-- SA -->
     <g transform="translate(1706.347875 49.203187) scale(0.14 -0.14)">
      <defs>
       <path id="DejaVuSans-41" d="M 2188 4044 
L 1331 1722 
L 3047 1722 
L 2188 4044 
z
M 1831 4666 
L 2547 4666 
L 4325 0 
L 3669 0 
L 3244 1197 
L 1141 1197 
L 716 0 
L 50 0 
L 1831 4666 
z
" transform="scale(0.015625)"/>
      </defs>
      <use xlink:href="#DejaVuSans-53"/>
      <use xlink:href="#DejaVuSans-41" x="65.351562"/>
     </g>
    </g>
    <g id="patch_73">
     <path d="M 1667.147875 69.752562 
L 1695.147875 69.752562 
L 1695.147875 59.952562 
L 1667.147875 59.952562 
z
" style="fill: #ff8884"/>
    </g>
    <g id="text_47">
     <!-- NSA -->
     <g transform="translate(1706.347875 69.752562) scale(0.14 -0.14)">
      <use xlink:href="#DejaVuSans-4e"/>
      <use xlink:href="#DejaVuSans-53" x="74.804688"/>
      <use xlink:href="#DejaVuSans-41" x="140.15625"/>
     </g>
    </g>
   </g>
  </g>
 </g>
 <defs>
  <clipPath id="p4e93f046e8">
   <rect x="74.148813" y="25.965375" width="1674" height="277.2"/>
  </clipPath>
 </defs>
</svg>
