<?xml version="1.0" encoding="utf-8" standalone="no"?>
<!DOCTYPE svg PUBLIC "-//W3C//DTD SVG 1.1//EN"
  "http://www.w3.org/Graphics/SVG/1.1/DTD/svg11.dtd">
<svg xmlns:xlink="http://www.w3.org/1999/xlink" width="222.086614pt" height="116.515237pt" viewBox="0 0 222.086614 116.515237" xmlns="http://www.w3.org/2000/svg" version="1.1">
 <metadata>
  <rdf:RDF xmlns:dc="http://purl.org/dc/elements/1.1/" xmlns:cc="http://creativecommons.org/ns#" xmlns:rdf="http://www.w3.org/1999/02/22-rdf-syntax-ns#">
   <cc:Work>
    <dc:type rdf:resource="http://purl.org/dc/dcmitype/StillImage"/>
    <dc:date>2024-09-25T05:03:30.846772</dc:date>
    <dc:format>image/svg+xml</dc:format>
    <dc:creator>
     <cc:Agent>
      <dc:title>Matplotlib v3.7.0, https://matplotlib.org/</dc:title>
     </cc:Agent>
    </dc:creator>
   </cc:Work>
  </rdf:RDF>
 </metadata>
 <defs>
  <style type="text/css">*{stroke-linejoin: round; stroke-linecap: butt}</style>
 </defs>
 <g id="figure_1">
  <g id="patch_1">
   <path d="M 0 116.515237 
L 222.086614 116.515237 
L 222.086614 0 
L 0 0 
z
" style="fill: #ffffff"/>
  </g>
  <g id="axes_1">
   <g id="patch_2">
    <path d="M 31.175 89.050394 
L 214.886614 89.050394 
L 214.886614 7.2 
L 31.175 7.2 
z
" style="fill: #ffffff"/>
   </g>
   <g id="patch_3">
    <path d="M 140.696828 89.050394 
L 146.698024 89.050394 
L 146.698024 84.424067 
L 140.696828 84.424067 
z
" clip-path="url(#pe21a3ba3df)" style="fill: #96c1ff"/>
   </g>
   <g id="patch_4">
    <path d="M 65.681877 89.050394 
L 71.683073 89.050394 
L 71.683073 20.723109 
L 65.681877 20.723109 
z
" clip-path="url(#pe21a3ba3df)" style="fill: #96c1ff"/>
   </g>
   <g id="patch_5">
    <path d="M 80.684867 89.050394 
L 86.686063 89.050394 
L 86.686063 83.712325 
L 80.684867 83.712325 
z
" clip-path="url(#pe21a3ba3df)" style="fill: #96c1ff"/>
   </g>
   <g id="patch_6">
    <path d="M 178.204303 89.050394 
L 184.205499 89.050394 
L 184.205499 88.338651 
L 178.204303 88.338651 
z
" clip-path="url(#pe21a3ba3df)" style="fill: #96c1ff"/>
   </g>
   <g id="patch_7">
    <path d="M 58.180382 89.050394 
L 64.181578 89.050394 
L 64.181578 70.189216 
L 58.180382 70.189216 
z
" clip-path="url(#pe21a3ba3df)" style="fill: #96c1ff"/>
   </g>
   <g id="patch_8">
    <path d="M 73.183372 89.050394 
L 79.184568 89.050394 
L 79.184568 80.865354 
L 73.183372 80.865354 
z
" clip-path="url(#pe21a3ba3df)" style="fill: #96c1ff"/>
   </g>
   <g id="patch_9">
    <path d="M 88.186363 89.050394 
L 94.187559 89.050394 
L 94.187559 84.779938 
L 88.186363 84.779938 
z
" clip-path="url(#pe21a3ba3df)" style="fill: #96c1ff"/>
   </g>
   <g id="patch_10">
    <path d="M 110.690848 89.050394 
L 116.692044 89.050394 
L 116.692044 87.98278 
L 110.690848 87.98278 
z
" clip-path="url(#pe21a3ba3df)" style="fill: #96c1ff"/>
   </g>
   <g id="patch_11">
    <path d="M 103.189353 89.050394 
L 109.190549 89.050394 
L 109.190549 86.559295 
L 103.189353 86.559295 
z
" clip-path="url(#pe21a3ba3df)" style="fill: #96c1ff"/>
   </g>
   <g id="patch_12">
    <path d="M 95.687858 89.050394 
L 101.689054 89.050394 
L 101.689054 82.644711 
L 95.687858 82.644711 
z
" clip-path="url(#pe21a3ba3df)" style="fill: #96c1ff"/>
   </g>
   <g id="patch_13">
    <path d="M 133.195333 89.050394 
L 139.196529 89.050394 
L 139.196529 85.847552 
L 133.195333 85.847552 
z
" clip-path="url(#pe21a3ba3df)" style="fill: #96c1ff"/>
   </g>
   <g id="patch_14">
    <path d="M 50.678887 89.050394 
L 56.680083 89.050394 
L 56.680083 86.559295 
L 50.678887 86.559295 
z
" clip-path="url(#pe21a3ba3df)" style="fill: #96c1ff"/>
   </g>
   <g id="patch_15">
    <path d="M 43.177392 89.050394 
L 49.178588 89.050394 
L 49.178588 86.915166 
L 43.177392 86.915166 
z
" clip-path="url(#pe21a3ba3df)" style="fill: #96c1ff"/>
   </g>
   <g id="patch_16">
    <path d="M 125.693838 89.050394 
L 131.695034 89.050394 
L 131.695034 88.694522 
L 125.693838 88.694522 
z
" clip-path="url(#pe21a3ba3df)" style="fill: #96c1ff"/>
   </g>
   <g id="patch_17">
    <path d="M 200.708788 89.050394 
L 206.709985 89.050394 
L 206.709985 88.694522 
L 200.708788 88.694522 
z
" clip-path="url(#pe21a3ba3df)" style="fill: #96c1ff"/>
   </g>
   <g id="patch_18">
    <path d="M 170.702808 89.050394 
L 176.704004 89.050394 
L 176.704004 87.626909 
L 170.702808 87.626909 
z
" clip-path="url(#pe21a3ba3df)" style="fill: #96c1ff"/>
   </g>
   <g id="patch_19">
    <path d="M 163.201313 89.050394 
L 169.202509 89.050394 
L 169.202509 88.694522 
L 163.201313 88.694522 
z
" clip-path="url(#pe21a3ba3df)" style="fill: #96c1ff"/>
   </g>
   <g id="patch_20">
    <path d="M 118.192343 89.050394 
L 124.193539 89.050394 
L 124.193539 88.694522 
L 118.192343 88.694522 
z
" clip-path="url(#pe21a3ba3df)" style="fill: #96c1ff"/>
   </g>
   <g id="patch_21">
    <path d="M 58.180382 89.050394 
L 64.181578 89.050394 
L 64.181578 81.932968 
L 58.180382 81.932968 
z
" clip-path="url(#pe21a3ba3df)" style="fill: #ff8884"/>
   </g>
   <g id="patch_22">
    <path d="M 88.186363 89.050394 
L 94.187559 89.050394 
L 94.187559 87.626909 
L 88.186363 87.626909 
z
" clip-path="url(#pe21a3ba3df)" style="fill: #ff8884"/>
   </g>
   <g id="patch_23">
    <path d="M 65.681877 89.050394 
L 71.683073 89.050394 
L 71.683073 55.954365 
L 65.681877 55.954365 
z
" clip-path="url(#pe21a3ba3df)" style="fill: #ff8884"/>
   </g>
   <g id="patch_24">
    <path d="M 178.204303 89.050394 
L 184.205499 89.050394 
L 184.205499 88.694522 
L 178.204303 88.694522 
z
" clip-path="url(#pe21a3ba3df)" style="fill: #ff8884"/>
   </g>
   <g id="patch_25">
    <path d="M 80.684867 89.050394 
L 86.686063 89.050394 
L 86.686063 88.694522 
L 80.684867 88.694522 
z
" clip-path="url(#pe21a3ba3df)" style="fill: #ff8884"/>
   </g>
   <g id="PathCollection_1">
    <defs>
     <path id="md4588dd535" d="M 0 0.707107 
C 0.187527 0.707107 0.367398 0.632602 0.5 0.5 
C 0.632602 0.367398 0.707107 0.187527 0.707107 0 
C 0.707107 -0.187527 0.632602 -0.367398 0.5 -0.5 
C 0.367398 -0.632602 0.187527 -0.707107 0 -0.707107 
C -0.187527 -0.707107 -0.367398 -0.632602 -0.5 -0.5 
C -0.632602 -0.367398 -0.707107 -0.187527 -0.707107 0 
C -0.707107 0.187527 -0.632602 0.367398 -0.5 0.5 
C -0.367398 0.632602 -0.187527 0.707107 0 0.707107 
z
" style="stroke: #2e85ff"/>
    </defs>
    <g clip-path="url(#pe21a3ba3df)">
     <use xlink:href="#md4588dd535" x="46.17799" y="86.915166" style="fill: #2e85ff; stroke: #2e85ff"/>
     <use xlink:href="#md4588dd535" x="53.679485" y="86.559295" style="fill: #2e85ff; stroke: #2e85ff"/>
     <use xlink:href="#md4588dd535" x="61.18098" y="70.189216" style="fill: #2e85ff; stroke: #2e85ff"/>
     <use xlink:href="#md4588dd535" x="68.682475" y="20.723109" style="fill: #2e85ff; stroke: #2e85ff"/>
     <use xlink:href="#md4588dd535" x="76.18397" y="80.865354" style="fill: #2e85ff; stroke: #2e85ff"/>
     <use xlink:href="#md4588dd535" x="83.685465" y="83.712325" style="fill: #2e85ff; stroke: #2e85ff"/>
     <use xlink:href="#md4588dd535" x="91.186961" y="84.779938" style="fill: #2e85ff; stroke: #2e85ff"/>
     <use xlink:href="#md4588dd535" x="98.688456" y="82.644711" style="fill: #2e85ff; stroke: #2e85ff"/>
     <use xlink:href="#md4588dd535" x="106.189951" y="86.559295" style="fill: #2e85ff; stroke: #2e85ff"/>
     <use xlink:href="#md4588dd535" x="113.691446" y="87.98278" style="fill: #2e85ff; stroke: #2e85ff"/>
     <use xlink:href="#md4588dd535" x="121.192941" y="88.694522" style="fill: #2e85ff; stroke: #2e85ff"/>
     <use xlink:href="#md4588dd535" x="128.694436" y="88.694522" style="fill: #2e85ff; stroke: #2e85ff"/>
     <use xlink:href="#md4588dd535" x="136.195931" y="85.847552" style="fill: #2e85ff; stroke: #2e85ff"/>
     <use xlink:href="#md4588dd535" x="143.697426" y="84.424067" style="fill: #2e85ff; stroke: #2e85ff"/>
     <use xlink:href="#md4588dd535" x="166.201911" y="88.694522" style="fill: #2e85ff; stroke: #2e85ff"/>
     <use xlink:href="#md4588dd535" x="173.703406" y="87.626909" style="fill: #2e85ff; stroke: #2e85ff"/>
     <use xlink:href="#md4588dd535" x="181.204901" y="88.338651" style="fill: #2e85ff; stroke: #2e85ff"/>
     <use xlink:href="#md4588dd535" x="203.709387" y="88.694522" style="fill: #2e85ff; stroke: #2e85ff"/>
    </g>
   </g>
   <g id="PathCollection_2">
    <defs>
     <path id="m36693813d8" d="M 0 0.707107 
C 0.187527 0.707107 0.367398 0.632602 0.5 0.5 
C 0.632602 0.367398 0.707107 0.187527 0.707107 0 
C 0.707107 -0.187527 0.632602 -0.367398 0.5 -0.5 
C 0.367398 -0.632602 0.187527 -0.707107 0 -0.707107 
C -0.187527 -0.707107 -0.367398 -0.632602 -0.5 -0.5 
C -0.632602 -0.367398 -0.707107 -0.187527 -0.707107 0 
C -0.707107 0.187527 -0.632602 0.367398 -0.5 0.5 
C -0.367398 0.632602 -0.187527 0.707107 0 0.707107 
z
" style="stroke: #ff120a"/>
    </defs>
    <g clip-path="url(#pe21a3ba3df)">
     <use xlink:href="#m36693813d8" x="61.18098" y="81.932968" style="fill: #ff120a; stroke: #ff120a"/>
     <use xlink:href="#m36693813d8" x="68.682475" y="55.954365" style="fill: #ff120a; stroke: #ff120a"/>
     <use xlink:href="#m36693813d8" x="83.685465" y="88.694522" style="fill: #ff120a; stroke: #ff120a"/>
     <use xlink:href="#m36693813d8" x="91.186961" y="87.626909" style="fill: #ff120a; stroke: #ff120a"/>
     <use xlink:href="#m36693813d8" x="181.204901" y="88.694522" style="fill: #ff120a; stroke: #ff120a"/>
    </g>
   </g>
   <g id="matplotlib.axis_1">
    <g id="xtick_1">
     <g id="line2d_1">
      <defs>
       <path id="mccca473444" d="M 0 0 
L 0 3.5 
" style="stroke: #000000; stroke-width: 0.8"/>
      </defs>
      <g>
       <use xlink:href="#mccca473444" x="31.175" y="89.050394" style="stroke: #000000; stroke-width: 0.8"/>
      </g>
     </g>
     <g id="text_1">
      <text style="font: 5px 'Arial'; text-anchor: middle" x="31.175" y="99.6293" transform="rotate(-0 31.175 99.6293)">1</text>
     </g>
    </g>
    <g id="xtick_2">
     <g id="line2d_2">
      <g>
       <use xlink:href="#mccca473444" x="38.676495" y="89.050394" style="stroke: #000000; stroke-width: 0.8"/>
      </g>
     </g>
     <g id="text_2">
      <text style="font: 5px 'Arial'; text-anchor: middle" x="38.676495" y="99.6293" transform="rotate(-0 38.676495 99.6293)">2</text>
     </g>
    </g>
    <g id="xtick_3">
     <g id="line2d_3">
      <g>
       <use xlink:href="#mccca473444" x="46.17799" y="89.050394" style="stroke: #000000; stroke-width: 0.8"/>
      </g>
     </g>
     <g id="text_3">
      <text style="font: 5px 'Arial'; text-anchor: middle" x="46.17799" y="99.6293" transform="rotate(-0 46.17799 99.6293)">3</text>
     </g>
    </g>
    <g id="xtick_4">
     <g id="line2d_4">
      <g>
       <use xlink:href="#mccca473444" x="53.679485" y="89.050394" style="stroke: #000000; stroke-width: 0.8"/>
      </g>
     </g>
     <g id="text_4">
      <text style="font: 5px 'Arial'; text-anchor: middle" x="53.679485" y="99.6293" transform="rotate(-0 53.679485 99.6293)">4</text>
     </g>
    </g>
    <g id="xtick_5">
     <g id="line2d_5">
      <g>
       <use xlink:href="#mccca473444" x="61.18098" y="89.050394" style="stroke: #000000; stroke-width: 0.8"/>
      </g>
     </g>
     <g id="text_5">
      <text style="font: 5px 'Arial'; text-anchor: middle" x="61.18098" y="99.6293" transform="rotate(-0 61.18098 99.6293)">5</text>
     </g>
    </g>
    <g id="xtick_6">
     <g id="line2d_6">
      <g>
       <use xlink:href="#mccca473444" x="68.682475" y="89.050394" style="stroke: #000000; stroke-width: 0.8"/>
      </g>
     </g>
     <g id="text_6">
      <text style="font: 5px 'Arial'; text-anchor: middle" x="68.682475" y="99.6293" transform="rotate(-0 68.682475 99.6293)">6</text>
     </g>
    </g>
    <g id="xtick_7">
     <g id="line2d_7">
      <g>
       <use xlink:href="#mccca473444" x="76.18397" y="89.050394" style="stroke: #000000; stroke-width: 0.8"/>
      </g>
     </g>
     <g id="text_7">
      <text style="font: 5px 'Arial'; text-anchor: middle" x="76.18397" y="99.6293" transform="rotate(-0 76.18397 99.6293)">7</text>
     </g>
    </g>
    <g id="xtick_8">
     <g id="line2d_8">
      <g>
       <use xlink:href="#mccca473444" x="83.685465" y="89.050394" style="stroke: #000000; stroke-width: 0.8"/>
      </g>
     </g>
     <g id="text_8">
      <text style="font: 5px 'Arial'; text-anchor: middle" x="83.685465" y="99.6293" transform="rotate(-0 83.685465 99.6293)">8</text>
     </g>
    </g>
    <g id="xtick_9">
     <g id="line2d_9">
      <g>
       <use xlink:href="#mccca473444" x="91.186961" y="89.050394" style="stroke: #000000; stroke-width: 0.8"/>
      </g>
     </g>
     <g id="text_9">
      <text style="font: 5px 'Arial'; text-anchor: middle" x="91.186961" y="99.6293" transform="rotate(-0 91.186961 99.6293)">9</text>
     </g>
    </g>
    <g id="xtick_10">
     <g id="line2d_10">
      <g>
       <use xlink:href="#mccca473444" x="98.688456" y="89.050394" style="stroke: #000000; stroke-width: 0.8"/>
      </g>
     </g>
     <g id="text_10">
      <text style="font: 5px 'Arial'; text-anchor: middle" x="98.688456" y="99.6293" transform="rotate(-0 98.688456 99.6293)">10</text>
     </g>
    </g>
    <g id="xtick_11">
     <g id="line2d_11">
      <g>
       <use xlink:href="#mccca473444" x="106.189951" y="89.050394" style="stroke: #000000; stroke-width: 0.8"/>
      </g>
     </g>
     <g id="text_11">
      <text style="font: 5px 'Arial'; text-anchor: middle" x="106.189951" y="99.6293" transform="rotate(-0 106.189951 99.6293)">11</text>
     </g>
    </g>
    <g id="xtick_12">
     <g id="line2d_12">
      <g>
       <use xlink:href="#mccca473444" x="113.691446" y="89.050394" style="stroke: #000000; stroke-width: 0.8"/>
      </g>
     </g>
     <g id="text_12">
      <text style="font: 5px 'Arial'; text-anchor: middle" x="113.691446" y="99.6293" transform="rotate(-0 113.691446 99.6293)">12</text>
     </g>
    </g>
    <g id="xtick_13">
     <g id="line2d_13">
      <g>
       <use xlink:href="#mccca473444" x="121.192941" y="89.050394" style="stroke: #000000; stroke-width: 0.8"/>
      </g>
     </g>
     <g id="text_13">
      <text style="font: 5px 'Arial'; text-anchor: middle" x="121.192941" y="99.6293" transform="rotate(-0 121.192941 99.6293)">13</text>
     </g>
    </g>
    <g id="xtick_14">
     <g id="line2d_14">
      <g>
       <use xlink:href="#mccca473444" x="128.694436" y="89.050394" style="stroke: #000000; stroke-width: 0.8"/>
      </g>
     </g>
     <g id="text_14">
      <text style="font: 5px 'Arial'; text-anchor: middle" x="128.694436" y="99.6293" transform="rotate(-0 128.694436 99.6293)">14</text>
     </g>
    </g>
    <g id="xtick_15">
     <g id="line2d_15">
      <g>
       <use xlink:href="#mccca473444" x="136.195931" y="89.050394" style="stroke: #000000; stroke-width: 0.8"/>
      </g>
     </g>
     <g id="text_15">
      <text style="font: 5px 'Arial'; text-anchor: middle" x="136.195931" y="99.6293" transform="rotate(-0 136.195931 99.6293)">15</text>
     </g>
    </g>
    <g id="xtick_16">
     <g id="line2d_16">
      <g>
       <use xlink:href="#mccca473444" x="143.697426" y="89.050394" style="stroke: #000000; stroke-width: 0.8"/>
      </g>
     </g>
     <g id="text_16">
      <text style="font: 5px 'Arial'; text-anchor: middle" x="143.697426" y="99.6293" transform="rotate(-0 143.697426 99.6293)">16</text>
     </g>
    </g>
    <g id="xtick_17">
     <g id="line2d_17">
      <g>
       <use xlink:href="#mccca473444" x="151.198921" y="89.050394" style="stroke: #000000; stroke-width: 0.8"/>
      </g>
     </g>
     <g id="text_17">
      <text style="font: 5px 'Arial'; text-anchor: middle" x="151.198921" y="99.6293" transform="rotate(-0 151.198921 99.6293)">17</text>
     </g>
    </g>
    <g id="xtick_18">
     <g id="line2d_18">
      <g>
       <use xlink:href="#mccca473444" x="158.700416" y="89.050394" style="stroke: #000000; stroke-width: 0.8"/>
      </g>
     </g>
     <g id="text_18">
      <text style="font: 5px 'Arial'; text-anchor: middle" x="158.700416" y="99.6293" transform="rotate(-0 158.700416 99.6293)">18</text>
     </g>
    </g>
    <g id="xtick_19">
     <g id="line2d_19">
      <g>
       <use xlink:href="#mccca473444" x="166.201911" y="89.050394" style="stroke: #000000; stroke-width: 0.8"/>
      </g>
     </g>
     <g id="text_19">
      <text style="font: 5px 'Arial'; text-anchor: middle" x="166.201911" y="99.6293" transform="rotate(-0 166.201911 99.6293)">19</text>
     </g>
    </g>
    <g id="xtick_20">
     <g id="line2d_20">
      <g>
       <use xlink:href="#mccca473444" x="173.703406" y="89.050394" style="stroke: #000000; stroke-width: 0.8"/>
      </g>
     </g>
     <g id="text_20">
      <text style="font: 5px 'Arial'; text-anchor: middle" x="173.703406" y="99.6293" transform="rotate(-0 173.703406 99.6293)">20</text>
     </g>
    </g>
    <g id="xtick_21">
     <g id="line2d_21">
      <g>
       <use xlink:href="#mccca473444" x="181.204901" y="89.050394" style="stroke: #000000; stroke-width: 0.8"/>
      </g>
     </g>
     <g id="text_21">
      <text style="font: 5px 'Arial'; text-anchor: middle" x="181.204901" y="99.6293" transform="rotate(-0 181.204901 99.6293)">21</text>
     </g>
    </g>
    <g id="xtick_22">
     <g id="line2d_22">
      <g>
       <use xlink:href="#mccca473444" x="188.706396" y="89.050394" style="stroke: #000000; stroke-width: 0.8"/>
      </g>
     </g>
     <g id="text_22">
      <text style="font: 5px 'Arial'; text-anchor: middle" x="188.706396" y="99.6293" transform="rotate(-0 188.706396 99.6293)">22</text>
     </g>
    </g>
    <g id="xtick_23">
     <g id="line2d_23">
      <g>
       <use xlink:href="#mccca473444" x="196.207891" y="89.050394" style="stroke: #000000; stroke-width: 0.8"/>
      </g>
     </g>
     <g id="text_23">
      <text style="font: 5px 'Arial'; text-anchor: middle" x="196.207891" y="99.6293" transform="rotate(-0 196.207891 99.6293)">23</text>
     </g>
    </g>
    <g id="xtick_24">
     <g id="line2d_24">
      <g>
       <use xlink:href="#mccca473444" x="203.709387" y="89.050394" style="stroke: #000000; stroke-width: 0.8"/>
      </g>
     </g>
     <g id="text_24">
      <text style="font: 5px 'Arial'; text-anchor: middle" x="203.709387" y="99.6293" transform="rotate(-0 203.709387 99.6293)">24</text>
     </g>
    </g>
    <g id="text_25">
     <text style="font: 5px 'Arial'; text-anchor: middle" x="123.030807" y="108.262894" transform="rotate(-0 123.030807 108.262894)">Length of peptide sequence</text>
    </g>
   </g>
   <g id="matplotlib.axis_2">
    <g id="ytick_1">
     <g id="line2d_25">
      <defs>
       <path id="m1c1ff5c2bc" d="M 0 0 
L -3.5 0 
" style="stroke: #000000; stroke-width: 0.8"/>
      </defs>
      <g>
       <use xlink:href="#m1c1ff5c2bc" x="31.175" y="89.050394" style="stroke: #000000; stroke-width: 0.8"/>
      </g>
     </g>
     <g id="text_26">
      <text style="font: 5px 'Arial'; text-anchor: end" x="24.175" y="90.839847" transform="rotate(-0 24.175 90.839847)">0</text>
     </g>
    </g>
    <g id="ytick_2">
     <g id="line2d_26">
      <g>
       <use xlink:href="#m1c1ff5c2bc" x="31.175" y="71.25683" style="stroke: #000000; stroke-width: 0.8"/>
      </g>
     </g>
     <g id="text_27">
      <text style="font: 5px 'Arial'; text-anchor: end" x="24.175" y="73.046283" transform="rotate(-0 24.175 73.046283)">50</text>
     </g>
    </g>
    <g id="ytick_3">
     <g id="line2d_27">
      <g>
       <use xlink:href="#m1c1ff5c2bc" x="31.175" y="53.463266" style="stroke: #000000; stroke-width: 0.8"/>
      </g>
     </g>
     <g id="text_28">
      <text style="font: 5px 'Arial'; text-anchor: end" x="24.175" y="55.252719" transform="rotate(-0 24.175 55.252719)">100</text>
     </g>
    </g>
    <g id="ytick_4">
     <g id="line2d_28">
      <g>
       <use xlink:href="#m1c1ff5c2bc" x="31.175" y="35.669702" style="stroke: #000000; stroke-width: 0.8"/>
      </g>
     </g>
     <g id="text_29">
      <text style="font: 5px 'Arial'; text-anchor: end" x="24.175" y="37.459155" transform="rotate(-0 24.175 37.459155)">150</text>
     </g>
    </g>
    <g id="ytick_5">
     <g id="line2d_29">
      <g>
       <use xlink:href="#m1c1ff5c2bc" x="31.175" y="17.876138" style="stroke: #000000; stroke-width: 0.8"/>
      </g>
     </g>
     <g id="text_30">
      <text style="font: 5px 'Arial'; text-anchor: end" x="24.175" y="19.665591" transform="rotate(-0 24.175 19.665591)">200</text>
     </g>
    </g>
    <g id="text_31">
     <text style="font: 5px 'Arial'; text-anchor: middle" x="10.839844" y="48.125197" transform="rotate(-90 10.839844 48.125197)">Number of peptides</text>
    </g>
   </g>
   <g id="line2d_30">
    <path d="M 46.17799 86.915166 
L 53.679485 86.559295 
L 61.18098 70.189216 
L 68.682475 20.723109 
L 76.18397 80.865354 
L 83.685465 83.712325 
L 91.186961 84.779938 
L 98.688456 82.644711 
L 106.189951 86.559295 
L 113.691446 87.98278 
L 121.192941 88.694522 
L 128.694436 88.694522 
L 136.195931 85.847552 
L 143.697426 84.424067 
L 166.201911 88.694522 
L 173.703406 87.626909 
L 181.204901 88.338651 
L 203.709387 88.694522 
" clip-path="url(#pe21a3ba3df)" style="fill: none; stroke: #2e85ff; stroke-linecap: square"/>
   </g>
   <g id="line2d_31">
    <path d="M 61.18098 81.932968 
L 68.682475 55.954365 
L 83.685465 88.694522 
L 91.186961 87.626909 
L 181.204901 88.694522 
" clip-path="url(#pe21a3ba3df)" style="fill: none; stroke: #ff120a; stroke-linecap: square"/>
   </g>
   <g id="patch_26">
    <path d="M 31.175 89.050394 
L 31.175 7.2 
" style="fill: none; stroke: #000000; stroke-width: 0.8; stroke-linejoin: miter; stroke-linecap: square"/>
   </g>
   <g id="patch_27">
    <path d="M 31.175 89.050394 
L 214.886614 89.050394 
" style="fill: none; stroke: #000000; stroke-width: 0.8; stroke-linejoin: miter; stroke-linecap: square"/>
   </g>
   <g id="legend_1">
    <g id="patch_28">
     <path d="M 185.105364 25.345313 
L 211.386614 25.345313 
Q 212.386614 25.345313 212.386614 24.345313 
L 212.386614 10.7 
Q 212.386614 9.7 211.386614 9.7 
L 185.105364 9.7 
Q 184.105364 9.7 184.105364 10.7 
L 184.105364 24.345313 
Q 184.105364 25.345313 185.105364 25.345313 
z
" style="fill: #ffffff; opacity: 0.8; stroke: #cccccc; stroke-linejoin: miter"/>
    </g>
    <g id="patch_29">
     <path d="M 186.105364 15.278906 
L 196.105364 15.278906 
L 196.105364 11.778906 
L 186.105364 11.778906 
z
" style="fill: #96c1ff"/>
    </g>
    <g id="text_32">
     <text style="font: 5px 'Arial'; text-anchor: start" x="200.105364" y="15.278906" transform="rotate(-0 200.105364 15.278906)">SA</text>
    </g>
    <g id="patch_30">
     <path d="M 186.105364 22.351562 
L 196.105364 22.351562 
L 196.105364 18.851562 
L 186.105364 18.851562 
z
" style="fill: #ff8884"/>
    </g>
    <g id="text_33">
     <text style="font: 5px 'Arial'; text-anchor: start" x="200.105364" y="22.351562" transform="rotate(-0 200.105364 22.351562)">NSA</text>
    </g>
   </g>
  </g>
 </g>
 <defs>
  <clipPath id="pe21a3ba3df">
   <rect x="31.175" y="7.2" width="183.711614" height="81.850394"/>
  </clipPath>
 </defs>
</svg>
