<?xml version="1.0" encoding="utf-8" standalone="no"?>
<!DOCTYPE svg PUBLIC "-//W3C//DTD SVG 1.1//EN"
  "http://www.w3.org/Graphics/SVG/1.1/DTD/svg11.dtd">
<svg xmlns:xlink="http://www.w3.org/1999/xlink" width="222.086614pt" height="117.655084pt" viewBox="0 0 222.086614 117.655084" xmlns="http://www.w3.org/2000/svg" version="1.1">
 <metadata>
  <rdf:RDF xmlns:dc="http://purl.org/dc/elements/1.1/" xmlns:cc="http://creativecommons.org/ns#" xmlns:rdf="http://www.w3.org/1999/02/22-rdf-syntax-ns#">
   <cc:Work>
    <dc:type rdf:resource="http://purl.org/dc/dcmitype/StillImage"/>
    <dc:date>2024-09-25T05:03:23.391815</dc:date>
    <dc:format>image/svg+xml</dc:format>
    <dc:creator>
     <cc:Agent>
      <dc:title>Matplotlib v3.7.0, https://matplotlib.org/</dc:title>
     </cc:Agent>
    </dc:creator>
   </cc:Work>
  </rdf:RDF>
 </metadata>
 <defs>
  <style type="text/css">*{stroke-linejoin: round; stroke-linecap: butt}</style>
 </defs>
 <g id="figure_1">
  <g id="patch_1">
   <path d="M 0 117.655084 
L 222.086614 117.655084 
L 222.086614 0 
L 0 0 
z
" style="fill: #ffffff"/>
  </g>
  <g id="axes_1">
   <g id="patch_2">
    <path d="M 31.175 90.190241 
L 214.886614 90.190241 
L 214.886614 8.339847 
L 31.175 8.339847 
z
" style="fill: #ffffff"/>
   </g>
   <g id="patch_3">
    <path d="M 140.696828 90.190241 
L 146.698024 90.190241 
L 146.698024 84.912189 
L 140.696828 84.912189 
z
" clip-path="url(#p10d89ca083)" style="fill: #96c1ff"/>
   </g>
   <g id="patch_4">
    <path d="M 65.681877 90.190241 
L 71.683073 90.190241 
L 71.683073 12.237485 
L 65.681877 12.237485 
z
" clip-path="url(#p10d89ca083)" style="fill: #96c1ff"/>
   </g>
   <g id="patch_5">
    <path d="M 80.684867 90.190241 
L 86.686063 90.190241 
L 86.686063 84.100181 
L 80.684867 84.100181 
z
" clip-path="url(#p10d89ca083)" style="fill: #96c1ff"/>
   </g>
   <g id="patch_6">
    <path d="M 178.204303 90.190241 
L 184.205499 90.190241 
L 184.205499 89.378233 
L 178.204303 89.378233 
z
" clip-path="url(#p10d89ca083)" style="fill: #96c1ff"/>
   </g>
   <g id="patch_7">
    <path d="M 58.180382 90.190241 
L 64.181578 90.190241 
L 64.181578 68.672032 
L 58.180382 68.672032 
z
" clip-path="url(#p10d89ca083)" style="fill: #96c1ff"/>
   </g>
   <g id="patch_8">
    <path d="M 73.183372 90.190241 
L 79.184568 90.190241 
L 79.184568 80.85215 
L 73.183372 80.85215 
z
" clip-path="url(#p10d89ca083)" style="fill: #96c1ff"/>
   </g>
   <g id="patch_9">
    <path d="M 88.186363 90.190241 
L 94.187559 90.190241 
L 94.187559 85.318193 
L 88.186363 85.318193 
z
" clip-path="url(#p10d89ca083)" style="fill: #96c1ff"/>
   </g>
   <g id="patch_10">
    <path d="M 110.690848 90.190241 
L 116.692044 90.190241 
L 116.692044 88.972229 
L 110.690848 88.972229 
z
" clip-path="url(#p10d89ca083)" style="fill: #96c1ff"/>
   </g>
   <g id="patch_11">
    <path d="M 103.189353 90.190241 
L 109.190549 90.190241 
L 109.190549 87.348213 
L 103.189353 87.348213 
z
" clip-path="url(#p10d89ca083)" style="fill: #96c1ff"/>
   </g>
   <g id="patch_12">
    <path d="M 95.687858 90.190241 
L 101.689054 90.190241 
L 101.689054 82.88217 
L 95.687858 82.88217 
z
" clip-path="url(#p10d89ca083)" style="fill: #96c1ff"/>
   </g>
   <g id="patch_13">
    <path d="M 133.195333 90.190241 
L 139.196529 90.190241 
L 139.196529 86.536205 
L 133.195333 86.536205 
z
" clip-path="url(#p10d89ca083)" style="fill: #96c1ff"/>
   </g>
   <g id="patch_14">
    <path d="M 50.678887 90.190241 
L 56.680083 90.190241 
L 56.680083 87.348213 
L 50.678887 87.348213 
z
" clip-path="url(#p10d89ca083)" style="fill: #96c1ff"/>
   </g>
   <g id="patch_15">
    <path d="M 43.177392 90.190241 
L 49.178588 90.190241 
L 49.178588 87.754217 
L 43.177392 87.754217 
z
" clip-path="url(#p10d89ca083)" style="fill: #96c1ff"/>
   </g>
   <g id="patch_16">
    <path d="M 125.693838 90.190241 
L 131.695034 90.190241 
L 131.695034 89.784237 
L 125.693838 89.784237 
z
" clip-path="url(#p10d89ca083)" style="fill: #96c1ff"/>
   </g>
   <g id="patch_17">
    <path d="M 200.708788 90.190241 
L 206.709985 90.190241 
L 206.709985 89.784237 
L 200.708788 89.784237 
z
" clip-path="url(#p10d89ca083)" style="fill: #96c1ff"/>
   </g>
   <g id="patch_18">
    <path d="M 170.702808 90.190241 
L 176.704004 90.190241 
L 176.704004 88.566225 
L 170.702808 88.566225 
z
" clip-path="url(#p10d89ca083)" style="fill: #96c1ff"/>
   </g>
   <g id="patch_19">
    <path d="M 163.201313 90.190241 
L 169.202509 90.190241 
L 169.202509 89.784237 
L 163.201313 89.784237 
z
" clip-path="url(#p10d89ca083)" style="fill: #96c1ff"/>
   </g>
   <g id="patch_20">
    <path d="M 118.192343 90.190241 
L 124.193539 90.190241 
L 124.193539 89.784237 
L 118.192343 89.784237 
z
" clip-path="url(#p10d89ca083)" style="fill: #96c1ff"/>
   </g>
   <g id="patch_21">
    <path d="M 58.180382 90.190241 
L 64.181578 90.190241 
L 64.181578 82.070162 
L 58.180382 82.070162 
z
" clip-path="url(#p10d89ca083)" style="fill: #ff8884"/>
   </g>
   <g id="patch_22">
    <path d="M 88.186363 90.190241 
L 94.187559 90.190241 
L 94.187559 88.566225 
L 88.186363 88.566225 
z
" clip-path="url(#p10d89ca083)" style="fill: #ff8884"/>
   </g>
   <g id="patch_23">
    <path d="M 65.681877 90.190241 
L 71.683073 90.190241 
L 71.683073 52.431874 
L 65.681877 52.431874 
z
" clip-path="url(#p10d89ca083)" style="fill: #ff8884"/>
   </g>
   <g id="patch_24">
    <path d="M 178.204303 90.190241 
L 184.205499 90.190241 
L 184.205499 89.784237 
L 178.204303 89.784237 
z
" clip-path="url(#p10d89ca083)" style="fill: #ff8884"/>
   </g>
   <g id="patch_25">
    <path d="M 80.684867 90.190241 
L 86.686063 90.190241 
L 86.686063 89.784237 
L 80.684867 89.784237 
z
" clip-path="url(#p10d89ca083)" style="fill: #ff8884"/>
   </g>
   <g id="matplotlib.axis_1">
    <g id="xtick_1">
     <g id="line2d_1">
      <defs>
       <path id="m646ac012bb" d="M 0 0 
L 0 3.5 
" style="stroke: #000000; stroke-width: 0.8"/>
      </defs>
      <g>
       <use xlink:href="#m646ac012bb" x="31.175" y="90.190241" style="stroke: #000000; stroke-width: 0.8"/>
      </g>
     </g>
     <g id="text_1">
      <text style="font: 5px 'Arial'; text-anchor: middle" x="31.175" y="100.769147" transform="rotate(-0 31.175 100.769147)">1</text>
     </g>
    </g>
    <g id="xtick_2">
     <g id="line2d_2">
      <g>
       <use xlink:href="#m646ac012bb" x="38.676495" y="90.190241" style="stroke: #000000; stroke-width: 0.8"/>
      </g>
     </g>
     <g id="text_2">
      <text style="font: 5px 'Arial'; text-anchor: middle" x="38.676495" y="100.769147" transform="rotate(-0 38.676495 100.769147)">2</text>
     </g>
    </g>
    <g id="xtick_3">
     <g id="line2d_3">
      <g>
       <use xlink:href="#m646ac012bb" x="46.17799" y="90.190241" style="stroke: #000000; stroke-width: 0.8"/>
      </g>
     </g>
     <g id="text_3">
      <text style="font: 5px 'Arial'; text-anchor: middle" x="46.17799" y="100.769147" transform="rotate(-0 46.17799 100.769147)">3</text>
     </g>
    </g>
    <g id="xtick_4">
     <g id="line2d_4">
      <g>
       <use xlink:href="#m646ac012bb" x="53.679485" y="90.190241" style="stroke: #000000; stroke-width: 0.8"/>
      </g>
     </g>
     <g id="text_4">
      <text style="font: 5px 'Arial'; text-anchor: middle" x="53.679485" y="100.769147" transform="rotate(-0 53.679485 100.769147)">4</text>
     </g>
    </g>
    <g id="xtick_5">
     <g id="line2d_5">
      <g>
       <use xlink:href="#m646ac012bb" x="61.18098" y="90.190241" style="stroke: #000000; stroke-width: 0.8"/>
      </g>
     </g>
     <g id="text_5">
      <text style="font: 5px 'Arial'; text-anchor: middle" x="61.18098" y="100.769147" transform="rotate(-0 61.18098 100.769147)">5</text>
     </g>
    </g>
    <g id="xtick_6">
     <g id="line2d_6">
      <g>
       <use xlink:href="#m646ac012bb" x="68.682475" y="90.190241" style="stroke: #000000; stroke-width: 0.8"/>
      </g>
     </g>
     <g id="text_6">
      <text style="font: 5px 'Arial'; text-anchor: middle" x="68.682475" y="100.769147" transform="rotate(-0 68.682475 100.769147)">6</text>
     </g>
    </g>
    <g id="xtick_7">
     <g id="line2d_7">
      <g>
       <use xlink:href="#m646ac012bb" x="76.18397" y="90.190241" style="stroke: #000000; stroke-width: 0.8"/>
      </g>
     </g>
     <g id="text_7">
      <text style="font: 5px 'Arial'; text-anchor: middle" x="76.18397" y="100.769147" transform="rotate(-0 76.18397 100.769147)">7</text>
     </g>
    </g>
    <g id="xtick_8">
     <g id="line2d_8">
      <g>
       <use xlink:href="#m646ac012bb" x="83.685465" y="90.190241" style="stroke: #000000; stroke-width: 0.8"/>
      </g>
     </g>
     <g id="text_8">
      <text style="font: 5px 'Arial'; text-anchor: middle" x="83.685465" y="100.769147" transform="rotate(-0 83.685465 100.769147)">8</text>
     </g>
    </g>
    <g id="xtick_9">
     <g id="line2d_9">
      <g>
       <use xlink:href="#m646ac012bb" x="91.186961" y="90.190241" style="stroke: #000000; stroke-width: 0.8"/>
      </g>
     </g>
     <g id="text_9">
      <text style="font: 5px 'Arial'; text-anchor: middle" x="91.186961" y="100.769147" transform="rotate(-0 91.186961 100.769147)">9</text>
     </g>
    </g>
    <g id="xtick_10">
     <g id="line2d_10">
      <g>
       <use xlink:href="#m646ac012bb" x="98.688456" y="90.190241" style="stroke: #000000; stroke-width: 0.8"/>
      </g>
     </g>
     <g id="text_10">
      <text style="font: 5px 'Arial'; text-anchor: middle" x="98.688456" y="100.769147" transform="rotate(-0 98.688456 100.769147)">10</text>
     </g>
    </g>
    <g id="xtick_11">
     <g id="line2d_11">
      <g>
       <use xlink:href="#m646ac012bb" x="106.189951" y="90.190241" style="stroke: #000000; stroke-width: 0.8"/>
      </g>
     </g>
     <g id="text_11">
      <text style="font: 5px 'Arial'; text-anchor: middle" x="106.189951" y="100.769147" transform="rotate(-0 106.189951 100.769147)">11</text>
     </g>
    </g>
    <g id="xtick_12">
     <g id="line2d_12">
      <g>
       <use xlink:href="#m646ac012bb" x="113.691446" y="90.190241" style="stroke: #000000; stroke-width: 0.8"/>
      </g>
     </g>
     <g id="text_12">
      <text style="font: 5px 'Arial'; text-anchor: middle" x="113.691446" y="100.769147" transform="rotate(-0 113.691446 100.769147)">12</text>
     </g>
    </g>
    <g id="xtick_13">
     <g id="line2d_13">
      <g>
       <use xlink:href="#m646ac012bb" x="121.192941" y="90.190241" style="stroke: #000000; stroke-width: 0.8"/>
      </g>
     </g>
     <g id="text_13">
      <text style="font: 5px 'Arial'; text-anchor: middle" x="121.192941" y="100.769147" transform="rotate(-0 121.192941 100.769147)">13</text>
     </g>
    </g>
    <g id="xtick_14">
     <g id="line2d_14">
      <g>
       <use xlink:href="#m646ac012bb" x="128.694436" y="90.190241" style="stroke: #000000; stroke-width: 0.8"/>
      </g>
     </g>
     <g id="text_14">
      <text style="font: 5px 'Arial'; text-anchor: middle" x="128.694436" y="100.769147" transform="rotate(-0 128.694436 100.769147)">14</text>
     </g>
    </g>
    <g id="xtick_15">
     <g id="line2d_15">
      <g>
       <use xlink:href="#m646ac012bb" x="136.195931" y="90.190241" style="stroke: #000000; stroke-width: 0.8"/>
      </g>
     </g>
     <g id="text_15">
      <text style="font: 5px 'Arial'; text-anchor: middle" x="136.195931" y="100.769147" transform="rotate(-0 136.195931 100.769147)">15</text>
     </g>
    </g>
    <g id="xtick_16">
     <g id="line2d_16">
      <g>
       <use xlink:href="#m646ac012bb" x="143.697426" y="90.190241" style="stroke: #000000; stroke-width: 0.8"/>
      </g>
     </g>
     <g id="text_16">
      <text style="font: 5px 'Arial'; text-anchor: middle" x="143.697426" y="100.769147" transform="rotate(-0 143.697426 100.769147)">16</text>
     </g>
    </g>
    <g id="xtick_17">
     <g id="line2d_17">
      <g>
       <use xlink:href="#m646ac012bb" x="151.198921" y="90.190241" style="stroke: #000000; stroke-width: 0.8"/>
      </g>
     </g>
     <g id="text_17">
      <text style="font: 5px 'Arial'; text-anchor: middle" x="151.198921" y="100.769147" transform="rotate(-0 151.198921 100.769147)">17</text>
     </g>
    </g>
    <g id="xtick_18">
     <g id="line2d_18">
      <g>
       <use xlink:href="#m646ac012bb" x="158.700416" y="90.190241" style="stroke: #000000; stroke-width: 0.8"/>
      </g>
     </g>
     <g id="text_18">
      <text style="font: 5px 'Arial'; text-anchor: middle" x="158.700416" y="100.769147" transform="rotate(-0 158.700416 100.769147)">18</text>
     </g>
    </g>
    <g id="xtick_19">
     <g id="line2d_19">
      <g>
       <use xlink:href="#m646ac012bb" x="166.201911" y="90.190241" style="stroke: #000000; stroke-width: 0.8"/>
      </g>
     </g>
     <g id="text_19">
      <text style="font: 5px 'Arial'; text-anchor: middle" x="166.201911" y="100.769147" transform="rotate(-0 166.201911 100.769147)">19</text>
     </g>
    </g>
    <g id="xtick_20">
     <g id="line2d_20">
      <g>
       <use xlink:href="#m646ac012bb" x="173.703406" y="90.190241" style="stroke: #000000; stroke-width: 0.8"/>
      </g>
     </g>
     <g id="text_20">
      <text style="font: 5px 'Arial'; text-anchor: middle" x="173.703406" y="100.769147" transform="rotate(-0 173.703406 100.769147)">20</text>
     </g>
    </g>
    <g id="xtick_21">
     <g id="line2d_21">
      <g>
       <use xlink:href="#m646ac012bb" x="181.204901" y="90.190241" style="stroke: #000000; stroke-width: 0.8"/>
      </g>
     </g>
     <g id="text_21">
      <text style="font: 5px 'Arial'; text-anchor: middle" x="181.204901" y="100.769147" transform="rotate(-0 181.204901 100.769147)">21</text>
     </g>
    </g>
    <g id="xtick_22">
     <g id="line2d_22">
      <g>
       <use xlink:href="#m646ac012bb" x="188.706396" y="90.190241" style="stroke: #000000; stroke-width: 0.8"/>
      </g>
     </g>
     <g id="text_22">
      <text style="font: 5px 'Arial'; text-anchor: middle" x="188.706396" y="100.769147" transform="rotate(-0 188.706396 100.769147)">22</text>
     </g>
    </g>
    <g id="xtick_23">
     <g id="line2d_23">
      <g>
       <use xlink:href="#m646ac012bb" x="196.207891" y="90.190241" style="stroke: #000000; stroke-width: 0.8"/>
      </g>
     </g>
     <g id="text_23">
      <text style="font: 5px 'Arial'; text-anchor: middle" x="196.207891" y="100.769147" transform="rotate(-0 196.207891 100.769147)">23</text>
     </g>
    </g>
    <g id="xtick_24">
     <g id="line2d_24">
      <g>
       <use xlink:href="#m646ac012bb" x="203.709387" y="90.190241" style="stroke: #000000; stroke-width: 0.8"/>
      </g>
     </g>
     <g id="text_24">
      <text style="font: 5px 'Arial'; text-anchor: middle" x="203.709387" y="100.769147" transform="rotate(-0 203.709387 100.769147)">24</text>
     </g>
    </g>
    <g id="text_25">
     <text style="font: 5px 'Arial'; text-anchor: middle" x="123.030807" y="109.402741" transform="rotate(-0 123.030807 109.402741)">Length of peptide sequence</text>
    </g>
   </g>
   <g id="matplotlib.axis_2">
    <g id="ytick_1">
     <g id="line2d_25">
      <defs>
       <path id="m3ca4c30361" d="M 0 0 
L -3.5 0 
" style="stroke: #000000; stroke-width: 0.8"/>
      </defs>
      <g>
       <use xlink:href="#m3ca4c30361" x="31.175" y="90.190241" style="stroke: #000000; stroke-width: 0.8"/>
      </g>
     </g>
     <g id="text_26">
      <text style="font: 5px 'Arial'; text-anchor: end" x="24.175" y="91.979694" transform="rotate(-0 24.175 91.979694)">0</text>
     </g>
    </g>
    <g id="ytick_2">
     <g id="line2d_26">
      <g>
       <use xlink:href="#m3ca4c30361" x="31.175" y="69.890044" style="stroke: #000000; stroke-width: 0.8"/>
      </g>
     </g>
     <g id="text_27">
      <text style="font: 5px 'Arial'; text-anchor: end" x="24.175" y="71.679497" transform="rotate(-0 24.175 71.679497)">50</text>
     </g>
    </g>
    <g id="ytick_3">
     <g id="line2d_27">
      <g>
       <use xlink:href="#m3ca4c30361" x="31.175" y="49.589847" style="stroke: #000000; stroke-width: 0.8"/>
      </g>
     </g>
     <g id="text_28">
      <text style="font: 5px 'Arial'; text-anchor: end" x="24.175" y="51.3793" transform="rotate(-0 24.175 51.3793)">100</text>
     </g>
    </g>
    <g id="ytick_4">
     <g id="line2d_28">
      <g>
       <use xlink:href="#m3ca4c30361" x="31.175" y="29.28965" style="stroke: #000000; stroke-width: 0.8"/>
      </g>
     </g>
     <g id="text_29">
      <text style="font: 5px 'Arial'; text-anchor: end" x="24.175" y="31.079103" transform="rotate(-0 24.175 31.079103)">150</text>
     </g>
    </g>
    <g id="ytick_5">
     <g id="line2d_29">
      <g>
       <use xlink:href="#m3ca4c30361" x="31.175" y="8.989453" style="stroke: #000000; stroke-width: 0.8"/>
      </g>
     </g>
     <g id="text_30">
      <text style="font: 5px 'Arial'; text-anchor: end" x="24.175" y="10.778906" transform="rotate(-0 24.175 10.778906)">200</text>
     </g>
    </g>
    <g id="text_31">
     <text style="font: 5px 'Arial'; text-anchor: middle" x="10.839844" y="49.265044" transform="rotate(-90 10.839844 49.265044)">Number of peptides</text>
    </g>
   </g>
   <g id="patch_26">
    <path d="M 31.175 90.190241 
L 31.175 8.339847 
" style="fill: none; stroke: #000000; stroke-width: 0.8; stroke-linejoin: miter; stroke-linecap: square"/>
   </g>
   <g id="patch_27">
    <path d="M 31.175 90.190241 
L 214.886614 90.190241 
" style="fill: none; stroke: #000000; stroke-width: 0.8; stroke-linejoin: miter; stroke-linecap: square"/>
   </g>
   <g id="legend_1">
    <g id="patch_28">
     <path d="M 185.105364 26.485159 
L 211.386614 26.485159 
Q 212.386614 26.485159 212.386614 25.485159 
L 212.386614 11.839847 
Q 212.386614 10.839847 211.386614 10.839847 
L 185.105364 10.839847 
Q 184.105364 10.839847 184.105364 11.839847 
L 184.105364 25.485159 
Q 184.105364 26.485159 185.105364 26.485159 
z
" style="fill: #ffffff; opacity: 0.8; stroke: #cccccc; stroke-linejoin: miter"/>
    </g>
    <g id="patch_29">
     <path d="M 186.105364 16.418753 
L 196.105364 16.418753 
L 196.105364 12.918753 
L 186.105364 12.918753 
z
" style="fill: #96c1ff"/>
    </g>
    <g id="text_32">
     <text style="font: 5px 'Arial'; text-anchor: start" x="200.105364" y="16.418753" transform="rotate(-0 200.105364 16.418753)">SA</text>
    </g>
    <g id="patch_30">
     <path d="M 186.105364 23.491409 
L 196.105364 23.491409 
L 196.105364 19.991409 
L 186.105364 19.991409 
z
" style="fill: #ff8884"/>
    </g>
    <g id="text_33">
     <text style="font: 5px 'Arial'; text-anchor: start" x="200.105364" y="23.491409" transform="rotate(-0 200.105364 23.491409)">NSA</text>
    </g>
   </g>
  </g>
 </g>
 <defs>
  <clipPath id="p10d89ca083">
   <rect x="31.175" y="8.339847" width="183.711614" height="81.850394"/>
  </clipPath>
 </defs>
</svg>
