<?xml version="1.0" encoding="utf-8" standalone="no"?>
<!DOCTYPE svg PUBLIC "-//W3C//DTD SVG 1.1//EN"
  "http://www.w3.org/Graphics/SVG/1.1/DTD/svg11.dtd">
<svg xmlns:xlink="http://www.w3.org/1999/xlink" width="594.929999pt" height="126.155081pt" viewBox="0 0 594.929999 126.155081" xmlns="http://www.w3.org/2000/svg" version="1.1">
 <metadata>
  <rdf:RDF xmlns:dc="http://purl.org/dc/elements/1.1/" xmlns:cc="http://creativecommons.org/ns#" xmlns:rdf="http://www.w3.org/1999/02/22-rdf-syntax-ns#">
   <cc:Work>
    <dc:type rdf:resource="http://purl.org/dc/dcmitype/StillImage"/>
    <dc:date>2024-09-25T05:03:22.569040</dc:date>
    <dc:format>image/svg+xml</dc:format>
    <dc:creator>
     <cc:Agent>
      <dc:title>Matplotlib v3.7.0, https://matplotlib.org/</dc:title>
     </cc:Agent>
    </dc:creator>
   </cc:Work>
  </rdf:RDF>
 </metadata>
 <defs>
  <style type="text/css">*{stroke-linejoin: round; stroke-linecap: butt}</style>
 </defs>
 <g id="figure_1">
  <g id="patch_1">
   <path d="M 0 126.155081 
L 594.929999 126.155081 
L 594.929999 0 
L 0 0 
z
" style="fill: #ffffff"/>
  </g>
  <g id="axes_1">
   <g id="patch_2">
    <path d="M 36.595156 98.690237 
L 587.729999 98.690237 
L 587.729999 16.839844 
L 36.595156 16.839844 
z
" style="fill: #ffffff"/>
   </g>
   <g id="patch_3">
    <path d="M 61.64674 98.690237 
L 73.867025 98.690237 
L 73.867025 96.254214 
L 61.64674 96.254214 
z
" clip-path="url(#p75f4a4c35b)" style="fill: #96c1ff"/>
   </g>
   <g id="patch_4">
    <path d="M 76.922096 98.690237 
L 89.142381 98.690237 
L 89.142381 95.84821 
L 76.922096 95.84821 
z
" clip-path="url(#p75f4a4c35b)" style="fill: #96c1ff"/>
   </g>
   <g id="patch_5">
    <path d="M 92.197452 98.690237 
L 104.417737 98.690237 
L 104.417737 77.172029 
L 92.197452 77.172029 
z
" clip-path="url(#p75f4a4c35b)" style="fill: #96c1ff"/>
   </g>
   <g id="patch_6">
    <path d="M 107.472808 98.690237 
L 119.693093 98.690237 
L 119.693093 20.737482 
L 107.472808 20.737482 
z
" clip-path="url(#p75f4a4c35b)" style="fill: #96c1ff"/>
   </g>
   <g id="patch_7">
    <path d="M 122.748164 98.690237 
L 134.968449 98.690237 
L 134.968449 89.352147 
L 122.748164 89.352147 
z
" clip-path="url(#p75f4a4c35b)" style="fill: #96c1ff"/>
   </g>
   <g id="patch_8">
    <path d="M 138.02352 98.690237 
L 150.243804 98.690237 
L 150.243804 92.600178 
L 138.02352 92.600178 
z
" clip-path="url(#p75f4a4c35b)" style="fill: #96c1ff"/>
   </g>
   <g id="patch_9">
    <path d="M 153.298876 98.690237 
L 165.51916 98.690237 
L 165.51916 93.81819 
L 153.298876 93.81819 
z
" clip-path="url(#p75f4a4c35b)" style="fill: #96c1ff"/>
   </g>
   <g id="patch_10">
    <path d="M 168.574232 98.690237 
L 180.794516 98.690237 
L 180.794516 91.382167 
L 168.574232 91.382167 
z
" clip-path="url(#p75f4a4c35b)" style="fill: #96c1ff"/>
   </g>
   <g id="patch_11">
    <path d="M 183.849588 98.690237 
L 196.069872 98.690237 
L 196.069872 95.84821 
L 183.849588 95.84821 
z
" clip-path="url(#p75f4a4c35b)" style="fill: #96c1ff"/>
   </g>
   <g id="patch_12">
    <path d="M 199.124944 98.690237 
L 211.345228 98.690237 
L 211.345228 97.472226 
L 199.124944 97.472226 
z
" clip-path="url(#p75f4a4c35b)" style="fill: #96c1ff"/>
   </g>
   <g id="patch_13">
    <path d="M 214.400299 98.690237 
L 226.620584 98.690237 
L 226.620584 98.284234 
L 214.400299 98.284234 
z
" clip-path="url(#p75f4a4c35b)" style="fill: #96c1ff"/>
   </g>
   <g id="patch_14">
    <path d="M 229.675655 98.690237 
L 241.89594 98.690237 
L 241.89594 98.284234 
L 229.675655 98.284234 
z
" clip-path="url(#p75f4a4c35b)" style="fill: #96c1ff"/>
   </g>
   <g id="patch_15">
    <path d="M 244.951011 98.690237 
L 257.171296 98.690237 
L 257.171296 95.036202 
L 244.951011 95.036202 
z
" clip-path="url(#p75f4a4c35b)" style="fill: #96c1ff"/>
   </g>
   <g id="patch_16">
    <path d="M 260.226367 98.690237 
L 272.446652 98.690237 
L 272.446652 93.412186 
L 260.226367 93.412186 
z
" clip-path="url(#p75f4a4c35b)" style="fill: #96c1ff"/>
   </g>
   <g id="patch_17">
    <path d="M 275.501723 98.690237 
L 287.722008 98.690237 
L 287.722008 98.284234 
L 275.501723 98.284234 
z
" clip-path="url(#p75f4a4c35b)" style="fill: #96c1ff"/>
   </g>
   <g id="patch_18">
    <path d="M 290.777079 98.690237 
L 302.997364 98.690237 
L 302.997364 97.066222 
L 290.777079 97.066222 
z
" clip-path="url(#p75f4a4c35b)" style="fill: #96c1ff"/>
   </g>
   <g id="patch_19">
    <path d="M 306.052435 98.690237 
L 318.27272 98.690237 
L 318.27272 97.87823 
L 306.052435 97.87823 
z
" clip-path="url(#p75f4a4c35b)" style="fill: #96c1ff"/>
   </g>
   <g id="patch_20">
    <path d="M 321.327791 98.690237 
L 333.548076 98.690237 
L 333.548076 98.284234 
L 321.327791 98.284234 
z
" clip-path="url(#p75f4a4c35b)" style="fill: #96c1ff"/>
   </g>
   <g id="patch_21">
    <path d="M 336.603147 98.690237 
L 348.823432 98.690237 
L 348.823432 98.284234 
L 336.603147 98.284234 
z
" clip-path="url(#p75f4a4c35b)" style="fill: #96c1ff"/>
   </g>
   <g id="patch_22">
    <path d="M 351.878503 98.690237 
L 364.098788 98.690237 
L 364.098788 98.284234 
L 351.878503 98.284234 
z
" clip-path="url(#p75f4a4c35b)" style="fill: #96c1ff"/>
   </g>
   <g id="patch_23">
    <path d="M 367.153859 98.690237 
L 379.374144 98.690237 
L 379.374144 98.284234 
L 367.153859 98.284234 
z
" clip-path="url(#p75f4a4c35b)" style="fill: #96c1ff"/>
   </g>
   <g id="patch_24">
    <path d="M 382.429215 98.690237 
L 394.6495 98.690237 
L 394.6495 98.284234 
L 382.429215 98.284234 
z
" clip-path="url(#p75f4a4c35b)" style="fill: #96c1ff"/>
   </g>
   <g id="patch_25">
    <path d="M 397.704571 98.690237 
L 409.924856 98.690237 
L 409.924856 98.284234 
L 397.704571 98.284234 
z
" clip-path="url(#p75f4a4c35b)" style="fill: #96c1ff"/>
   </g>
   <g id="patch_26">
    <path d="M 412.979927 98.690237 
L 425.200212 98.690237 
L 425.200212 98.284234 
L 412.979927 98.284234 
z
" clip-path="url(#p75f4a4c35b)" style="fill: #96c1ff"/>
   </g>
   <g id="patch_27">
    <path d="M 428.255283 98.690237 
L 440.475567 98.690237 
L 440.475567 98.284234 
L 428.255283 98.284234 
z
" clip-path="url(#p75f4a4c35b)" style="fill: #96c1ff"/>
   </g>
   <g id="patch_28">
    <path d="M 443.530639 98.690237 
L 455.750923 98.690237 
L 455.750923 98.284234 
L 443.530639 98.284234 
z
" clip-path="url(#p75f4a4c35b)" style="fill: #96c1ff"/>
   </g>
   <g id="patch_29">
    <path d="M 458.805995 98.690237 
L 471.026279 98.690237 
L 471.026279 98.284234 
L 458.805995 98.284234 
z
" clip-path="url(#p75f4a4c35b)" style="fill: #96c1ff"/>
   </g>
   <g id="patch_30">
    <path d="M 474.081351 98.690237 
L 486.301635 98.690237 
L 486.301635 98.284234 
L 474.081351 98.284234 
z
" clip-path="url(#p75f4a4c35b)" style="fill: #96c1ff"/>
   </g>
   <g id="patch_31">
    <path d="M 489.356706 98.690237 
L 501.576991 98.690237 
L 501.576991 98.284234 
L 489.356706 98.284234 
z
" clip-path="url(#p75f4a4c35b)" style="fill: #96c1ff"/>
   </g>
   <g id="patch_32">
    <path d="M 504.632062 98.690237 
L 516.852347 98.690237 
L 516.852347 98.284234 
L 504.632062 98.284234 
z
" clip-path="url(#p75f4a4c35b)" style="fill: #96c1ff"/>
   </g>
   <g id="patch_33">
    <path d="M 519.907418 98.690237 
L 532.127703 98.690237 
L 532.127703 98.284234 
L 519.907418 98.284234 
z
" clip-path="url(#p75f4a4c35b)" style="fill: #96c1ff"/>
   </g>
   <g id="patch_34">
    <path d="M 535.182774 98.690237 
L 547.403059 98.690237 
L 547.403059 98.284234 
L 535.182774 98.284234 
z
" clip-path="url(#p75f4a4c35b)" style="fill: #96c1ff"/>
   </g>
   <g id="patch_35">
    <path d="M 550.45813 98.690237 
L 562.678415 98.690237 
L 562.678415 98.284234 
L 550.45813 98.284234 
z
" clip-path="url(#p75f4a4c35b)" style="fill: #96c1ff"/>
   </g>
   <g id="patch_36">
    <path d="M 61.64674 98.690237 
L 73.867025 98.690237 
L 73.867025 98.690237 
L 61.64674 98.690237 
z
" clip-path="url(#p75f4a4c35b)" style="fill: #ff8884"/>
   </g>
   <g id="patch_37">
    <path d="M 76.922096 98.690237 
L 89.142381 98.690237 
L 89.142381 98.690237 
L 76.922096 98.690237 
z
" clip-path="url(#p75f4a4c35b)" style="fill: #ff8884"/>
   </g>
   <g id="patch_38">
    <path d="M 92.197452 98.690237 
L 104.417737 98.690237 
L 104.417737 90.570159 
L 92.197452 90.570159 
z
" clip-path="url(#p75f4a4c35b)" style="fill: #ff8884"/>
   </g>
   <g id="patch_39">
    <path d="M 107.472808 98.690237 
L 119.693093 98.690237 
L 119.693093 60.931871 
L 107.472808 60.931871 
z
" clip-path="url(#p75f4a4c35b)" style="fill: #ff8884"/>
   </g>
   <g id="patch_40">
    <path d="M 122.748164 98.690237 
L 134.968449 98.690237 
L 134.968449 98.690237 
L 122.748164 98.690237 
z
" clip-path="url(#p75f4a4c35b)" style="fill: #ff8884"/>
   </g>
   <g id="patch_41">
    <path d="M 138.02352 98.690237 
L 150.243804 98.690237 
L 150.243804 98.284234 
L 138.02352 98.284234 
z
" clip-path="url(#p75f4a4c35b)" style="fill: #ff8884"/>
   </g>
   <g id="patch_42">
    <path d="M 153.298876 98.690237 
L 165.51916 98.690237 
L 165.51916 97.066222 
L 153.298876 97.066222 
z
" clip-path="url(#p75f4a4c35b)" style="fill: #ff8884"/>
   </g>
   <g id="patch_43">
    <path d="M 168.574232 98.690237 
L 180.794516 98.690237 
L 180.794516 98.690237 
L 168.574232 98.690237 
z
" clip-path="url(#p75f4a4c35b)" style="fill: #ff8884"/>
   </g>
   <g id="patch_44">
    <path d="M 183.849588 98.690237 
L 196.069872 98.690237 
L 196.069872 98.690237 
L 183.849588 98.690237 
z
" clip-path="url(#p75f4a4c35b)" style="fill: #ff8884"/>
   </g>
   <g id="patch_45">
    <path d="M 199.124944 98.690237 
L 211.345228 98.690237 
L 211.345228 98.690237 
L 199.124944 98.690237 
z
" clip-path="url(#p75f4a4c35b)" style="fill: #ff8884"/>
   </g>
   <g id="patch_46">
    <path d="M 214.400299 98.690237 
L 226.620584 98.690237 
L 226.620584 98.690237 
L 214.400299 98.690237 
z
" clip-path="url(#p75f4a4c35b)" style="fill: #ff8884"/>
   </g>
   <g id="patch_47">
    <path d="M 229.675655 98.690237 
L 241.89594 98.690237 
L 241.89594 98.690237 
L 229.675655 98.690237 
z
" clip-path="url(#p75f4a4c35b)" style="fill: #ff8884"/>
   </g>
   <g id="patch_48">
    <path d="M 244.951011 98.690237 
L 257.171296 98.690237 
L 257.171296 98.690237 
L 244.951011 98.690237 
z
" clip-path="url(#p75f4a4c35b)" style="fill: #ff8884"/>
   </g>
   <g id="patch_49">
    <path d="M 260.226367 98.690237 
L 272.446652 98.690237 
L 272.446652 98.690237 
L 260.226367 98.690237 
z
" clip-path="url(#p75f4a4c35b)" style="fill: #ff8884"/>
   </g>
   <g id="patch_50">
    <path d="M 275.501723 98.690237 
L 287.722008 98.690237 
L 287.722008 98.690237 
L 275.501723 98.690237 
z
" clip-path="url(#p75f4a4c35b)" style="fill: #ff8884"/>
   </g>
   <g id="patch_51">
    <path d="M 290.777079 98.690237 
L 302.997364 98.690237 
L 302.997364 98.690237 
L 290.777079 98.690237 
z
" clip-path="url(#p75f4a4c35b)" style="fill: #ff8884"/>
   </g>
   <g id="patch_52">
    <path d="M 306.052435 98.690237 
L 318.27272 98.690237 
L 318.27272 98.284234 
L 306.052435 98.284234 
z
" clip-path="url(#p75f4a4c35b)" style="fill: #ff8884"/>
   </g>
   <g id="patch_53">
    <path d="M 321.327791 98.690237 
L 333.548076 98.690237 
L 333.548076 98.690237 
L 321.327791 98.690237 
z
" clip-path="url(#p75f4a4c35b)" style="fill: #ff8884"/>
   </g>
   <g id="patch_54">
    <path d="M 336.603147 98.690237 
L 348.823432 98.690237 
L 348.823432 98.690237 
L 336.603147 98.690237 
z
" clip-path="url(#p75f4a4c35b)" style="fill: #ff8884"/>
   </g>
   <g id="patch_55">
    <path d="M 351.878503 98.690237 
L 364.098788 98.690237 
L 364.098788 98.690237 
L 351.878503 98.690237 
z
" clip-path="url(#p75f4a4c35b)" style="fill: #ff8884"/>
   </g>
   <g id="patch_56">
    <path d="M 367.153859 98.690237 
L 379.374144 98.690237 
L 379.374144 98.690237 
L 367.153859 98.690237 
z
" clip-path="url(#p75f4a4c35b)" style="fill: #ff8884"/>
   </g>
   <g id="patch_57">
    <path d="M 382.429215 98.690237 
L 394.6495 98.690237 
L 394.6495 98.690237 
L 382.429215 98.690237 
z
" clip-path="url(#p75f4a4c35b)" style="fill: #ff8884"/>
   </g>
   <g id="patch_58">
    <path d="M 397.704571 98.690237 
L 409.924856 98.690237 
L 409.924856 98.690237 
L 397.704571 98.690237 
z
" clip-path="url(#p75f4a4c35b)" style="fill: #ff8884"/>
   </g>
   <g id="patch_59">
    <path d="M 412.979927 98.690237 
L 425.200212 98.690237 
L 425.200212 98.690237 
L 412.979927 98.690237 
z
" clip-path="url(#p75f4a4c35b)" style="fill: #ff8884"/>
   </g>
   <g id="patch_60">
    <path d="M 428.255283 98.690237 
L 440.475567 98.690237 
L 440.475567 98.690237 
L 428.255283 98.690237 
z
" clip-path="url(#p75f4a4c35b)" style="fill: #ff8884"/>
   </g>
   <g id="patch_61">
    <path d="M 443.530639 98.690237 
L 455.750923 98.690237 
L 455.750923 98.690237 
L 443.530639 98.690237 
z
" clip-path="url(#p75f4a4c35b)" style="fill: #ff8884"/>
   </g>
   <g id="patch_62">
    <path d="M 458.805995 98.690237 
L 471.026279 98.690237 
L 471.026279 98.690237 
L 458.805995 98.690237 
z
" clip-path="url(#p75f4a4c35b)" style="fill: #ff8884"/>
   </g>
   <g id="patch_63">
    <path d="M 474.081351 98.690237 
L 486.301635 98.690237 
L 486.301635 98.690237 
L 474.081351 98.690237 
z
" clip-path="url(#p75f4a4c35b)" style="fill: #ff8884"/>
   </g>
   <g id="patch_64">
    <path d="M 489.356706 98.690237 
L 501.576991 98.690237 
L 501.576991 98.690237 
L 489.356706 98.690237 
z
" clip-path="url(#p75f4a4c35b)" style="fill: #ff8884"/>
   </g>
   <g id="patch_65">
    <path d="M 504.632062 98.690237 
L 516.852347 98.690237 
L 516.852347 98.690237 
L 504.632062 98.690237 
z
" clip-path="url(#p75f4a4c35b)" style="fill: #ff8884"/>
   </g>
   <g id="patch_66">
    <path d="M 519.907418 98.690237 
L 532.127703 98.690237 
L 532.127703 98.690237 
L 519.907418 98.690237 
z
" clip-path="url(#p75f4a4c35b)" style="fill: #ff8884"/>
   </g>
   <g id="patch_67">
    <path d="M 535.182774 98.690237 
L 547.403059 98.690237 
L 547.403059 98.690237 
L 535.182774 98.690237 
z
" clip-path="url(#p75f4a4c35b)" style="fill: #ff8884"/>
   </g>
   <g id="patch_68">
    <path d="M 550.45813 98.690237 
L 562.678415 98.690237 
L 562.678415 98.690237 
L 550.45813 98.690237 
z
" clip-path="url(#p75f4a4c35b)" style="fill: #ff8884"/>
   </g>
   <g id="matplotlib.axis_1">
    <g id="xtick_1">
     <g id="line2d_1">
      <defs>
       <path id="mfc933f17be" d="M 0 0 
L 0 3.5 
" style="stroke: #000000; stroke-width: 0.8"/>
      </defs>
      <g>
       <use xlink:href="#mfc933f17be" x="67.756882" y="98.690237" style="stroke: #000000; stroke-width: 0.8"/>
      </g>
     </g>
     <g id="text_1">
      <text style="font: 5px 'Arial'; text-anchor: middle" x="67.756882" y="109.269144" transform="rotate(-0 67.756882 109.269144)">3</text>
     </g>
    </g>
    <g id="xtick_2">
     <g id="line2d_2">
      <g>
       <use xlink:href="#mfc933f17be" x="83.032238" y="98.690237" style="stroke: #000000; stroke-width: 0.8"/>
      </g>
     </g>
     <g id="text_2">
      <text style="font: 5px 'Arial'; text-anchor: middle" x="83.032238" y="109.269144" transform="rotate(-0 83.032238 109.269144)">4</text>
     </g>
    </g>
    <g id="xtick_3">
     <g id="line2d_3">
      <g>
       <use xlink:href="#mfc933f17be" x="98.307594" y="98.690237" style="stroke: #000000; stroke-width: 0.8"/>
      </g>
     </g>
     <g id="text_3">
      <text style="font: 5px 'Arial'; text-anchor: middle" x="98.307594" y="109.269144" transform="rotate(-0 98.307594 109.269144)">5</text>
     </g>
    </g>
    <g id="xtick_4">
     <g id="line2d_4">
      <g>
       <use xlink:href="#mfc933f17be" x="113.58295" y="98.690237" style="stroke: #000000; stroke-width: 0.8"/>
      </g>
     </g>
     <g id="text_4">
      <text style="font: 5px 'Arial'; text-anchor: middle" x="113.58295" y="109.269144" transform="rotate(-0 113.58295 109.269144)">6</text>
     </g>
    </g>
    <g id="xtick_5">
     <g id="line2d_5">
      <g>
       <use xlink:href="#mfc933f17be" x="128.858306" y="98.690237" style="stroke: #000000; stroke-width: 0.8"/>
      </g>
     </g>
     <g id="text_5">
      <text style="font: 5px 'Arial'; text-anchor: middle" x="128.858306" y="109.269144" transform="rotate(-0 128.858306 109.269144)">7</text>
     </g>
    </g>
    <g id="xtick_6">
     <g id="line2d_6">
      <g>
       <use xlink:href="#mfc933f17be" x="144.133662" y="98.690237" style="stroke: #000000; stroke-width: 0.8"/>
      </g>
     </g>
     <g id="text_6">
      <text style="font: 5px 'Arial'; text-anchor: middle" x="144.133662" y="109.269144" transform="rotate(-0 144.133662 109.269144)">8</text>
     </g>
    </g>
    <g id="xtick_7">
     <g id="line2d_7">
      <g>
       <use xlink:href="#mfc933f17be" x="159.409018" y="98.690237" style="stroke: #000000; stroke-width: 0.8"/>
      </g>
     </g>
     <g id="text_7">
      <text style="font: 5px 'Arial'; text-anchor: middle" x="159.409018" y="109.269144" transform="rotate(-0 159.409018 109.269144)">9</text>
     </g>
    </g>
    <g id="xtick_8">
     <g id="line2d_8">
      <g>
       <use xlink:href="#mfc933f17be" x="174.684374" y="98.690237" style="stroke: #000000; stroke-width: 0.8"/>
      </g>
     </g>
     <g id="text_8">
      <text style="font: 5px 'Arial'; text-anchor: middle" x="174.684374" y="109.269144" transform="rotate(-0 174.684374 109.269144)">10</text>
     </g>
    </g>
    <g id="xtick_9">
     <g id="line2d_9">
      <g>
       <use xlink:href="#mfc933f17be" x="189.95973" y="98.690237" style="stroke: #000000; stroke-width: 0.8"/>
      </g>
     </g>
     <g id="text_9">
      <text style="font: 5px 'Arial'; text-anchor: middle" x="189.95973" y="109.269144" transform="rotate(-0 189.95973 109.269144)">11</text>
     </g>
    </g>
    <g id="xtick_10">
     <g id="line2d_10">
      <g>
       <use xlink:href="#mfc933f17be" x="205.235086" y="98.690237" style="stroke: #000000; stroke-width: 0.8"/>
      </g>
     </g>
     <g id="text_10">
      <text style="font: 5px 'Arial'; text-anchor: middle" x="205.235086" y="109.269144" transform="rotate(-0 205.235086 109.269144)">12</text>
     </g>
    </g>
    <g id="xtick_11">
     <g id="line2d_11">
      <g>
       <use xlink:href="#mfc933f17be" x="220.510442" y="98.690237" style="stroke: #000000; stroke-width: 0.8"/>
      </g>
     </g>
     <g id="text_11">
      <text style="font: 5px 'Arial'; text-anchor: middle" x="220.510442" y="109.269144" transform="rotate(-0 220.510442 109.269144)">13</text>
     </g>
    </g>
    <g id="xtick_12">
     <g id="line2d_12">
      <g>
       <use xlink:href="#mfc933f17be" x="235.785798" y="98.690237" style="stroke: #000000; stroke-width: 0.8"/>
      </g>
     </g>
     <g id="text_12">
      <text style="font: 5px 'Arial'; text-anchor: middle" x="235.785798" y="109.269144" transform="rotate(-0 235.785798 109.269144)">14</text>
     </g>
    </g>
    <g id="xtick_13">
     <g id="line2d_13">
      <g>
       <use xlink:href="#mfc933f17be" x="251.061154" y="98.690237" style="stroke: #000000; stroke-width: 0.8"/>
      </g>
     </g>
     <g id="text_13">
      <text style="font: 5px 'Arial'; text-anchor: middle" x="251.061154" y="109.269144" transform="rotate(-0 251.061154 109.269144)">15</text>
     </g>
    </g>
    <g id="xtick_14">
     <g id="line2d_14">
      <g>
       <use xlink:href="#mfc933f17be" x="266.33651" y="98.690237" style="stroke: #000000; stroke-width: 0.8"/>
      </g>
     </g>
     <g id="text_14">
      <text style="font: 5px 'Arial'; text-anchor: middle" x="266.33651" y="109.269144" transform="rotate(-0 266.33651 109.269144)">16</text>
     </g>
    </g>
    <g id="xtick_15">
     <g id="line2d_15">
      <g>
       <use xlink:href="#mfc933f17be" x="281.611866" y="98.690237" style="stroke: #000000; stroke-width: 0.8"/>
      </g>
     </g>
     <g id="text_15">
      <text style="font: 5px 'Arial'; text-anchor: middle" x="281.611866" y="109.269144" transform="rotate(-0 281.611866 109.269144)">19</text>
     </g>
    </g>
    <g id="xtick_16">
     <g id="line2d_16">
      <g>
       <use xlink:href="#mfc933f17be" x="296.887222" y="98.690237" style="stroke: #000000; stroke-width: 0.8"/>
      </g>
     </g>
     <g id="text_16">
      <text style="font: 5px 'Arial'; text-anchor: middle" x="296.887222" y="109.269144" transform="rotate(-0 296.887222 109.269144)">20</text>
     </g>
    </g>
    <g id="xtick_17">
     <g id="line2d_17">
      <g>
       <use xlink:href="#mfc933f17be" x="312.162578" y="98.690237" style="stroke: #000000; stroke-width: 0.8"/>
      </g>
     </g>
     <g id="text_17">
      <text style="font: 5px 'Arial'; text-anchor: middle" x="312.162578" y="109.269144" transform="rotate(-0 312.162578 109.269144)">21</text>
     </g>
    </g>
    <g id="xtick_18">
     <g id="line2d_18">
      <g>
       <use xlink:href="#mfc933f17be" x="327.437933" y="98.690237" style="stroke: #000000; stroke-width: 0.8"/>
      </g>
     </g>
     <g id="text_18">
      <text style="font: 5px 'Arial'; text-anchor: middle" x="327.437933" y="109.269144" transform="rotate(-0 327.437933 109.269144)">24</text>
     </g>
    </g>
    <g id="xtick_19">
     <g id="line2d_19">
      <g>
       <use xlink:href="#mfc933f17be" x="342.713289" y="98.690237" style="stroke: #000000; stroke-width: 0.8"/>
      </g>
     </g>
     <g id="text_19">
      <text style="font: 5px 'Arial'; text-anchor: middle" x="342.713289" y="109.269144" transform="rotate(-0 342.713289 109.269144)">60</text>
     </g>
    </g>
    <g id="xtick_20">
     <g id="line2d_20">
      <g>
       <use xlink:href="#mfc933f17be" x="357.988645" y="98.690237" style="stroke: #000000; stroke-width: 0.8"/>
      </g>
     </g>
     <g id="text_20">
      <text style="font: 5px 'Arial'; text-anchor: middle" x="357.988645" y="109.269144" transform="rotate(-0 357.988645 109.269144)">89</text>
     </g>
    </g>
    <g id="xtick_21">
     <g id="line2d_21">
      <g>
       <use xlink:href="#mfc933f17be" x="373.264001" y="98.690237" style="stroke: #000000; stroke-width: 0.8"/>
      </g>
     </g>
     <g id="text_21">
      <text style="font: 5px 'Arial'; text-anchor: middle" x="373.264001" y="109.269144" transform="rotate(-0 373.264001 109.269144)">112</text>
     </g>
    </g>
    <g id="xtick_22">
     <g id="line2d_22">
      <g>
       <use xlink:href="#mfc933f17be" x="388.539357" y="98.690237" style="stroke: #000000; stroke-width: 0.8"/>
      </g>
     </g>
     <g id="text_22">
      <text style="font: 5px 'Arial'; text-anchor: middle" x="388.539357" y="109.269144" transform="rotate(-0 388.539357 109.269144)">126</text>
     </g>
    </g>
    <g id="xtick_23">
     <g id="line2d_23">
      <g>
       <use xlink:href="#mfc933f17be" x="403.814713" y="98.690237" style="stroke: #000000; stroke-width: 0.8"/>
      </g>
     </g>
     <g id="text_23">
      <text style="font: 5px 'Arial'; text-anchor: middle" x="403.814713" y="109.269144" transform="rotate(-0 403.814713 109.269144)">147</text>
     </g>
    </g>
    <g id="xtick_24">
     <g id="line2d_24">
      <g>
       <use xlink:href="#mfc933f17be" x="419.090069" y="98.690237" style="stroke: #000000; stroke-width: 0.8"/>
      </g>
     </g>
     <g id="text_24">
      <text style="font: 5px 'Arial'; text-anchor: middle" x="419.090069" y="109.269144" transform="rotate(-0 419.090069 109.269144)">148</text>
     </g>
    </g>
    <g id="xtick_25">
     <g id="line2d_25">
      <g>
       <use xlink:href="#mfc933f17be" x="434.365425" y="98.690237" style="stroke: #000000; stroke-width: 0.8"/>
      </g>
     </g>
     <g id="text_25">
      <text style="font: 5px 'Arial'; text-anchor: middle" x="434.365425" y="109.269144" transform="rotate(-0 434.365425 109.269144)">229</text>
     </g>
    </g>
    <g id="xtick_26">
     <g id="line2d_26">
      <g>
       <use xlink:href="#mfc933f17be" x="449.640781" y="98.690237" style="stroke: #000000; stroke-width: 0.8"/>
      </g>
     </g>
     <g id="text_26">
      <text style="font: 5px 'Arial'; text-anchor: middle" x="449.640781" y="109.269144" transform="rotate(-0 449.640781 109.269144)">253</text>
     </g>
    </g>
    <g id="xtick_27">
     <g id="line2d_27">
      <g>
       <use xlink:href="#mfc933f17be" x="464.916137" y="98.690237" style="stroke: #000000; stroke-width: 0.8"/>
      </g>
     </g>
     <g id="text_27">
      <text style="font: 5px 'Arial'; text-anchor: middle" x="464.916137" y="109.269144" transform="rotate(-0 464.916137 109.269144)">555</text>
     </g>
    </g>
    <g id="xtick_28">
     <g id="line2d_28">
      <g>
       <use xlink:href="#mfc933f17be" x="480.191493" y="98.690237" style="stroke: #000000; stroke-width: 0.8"/>
      </g>
     </g>
     <g id="text_28">
      <text style="font: 5px 'Arial'; text-anchor: middle" x="480.191493" y="109.269144" transform="rotate(-0 480.191493 109.269144)">603</text>
     </g>
    </g>
    <g id="xtick_29">
     <g id="line2d_29">
      <g>
       <use xlink:href="#mfc933f17be" x="495.466849" y="98.690237" style="stroke: #000000; stroke-width: 0.8"/>
      </g>
     </g>
     <g id="text_29">
      <text style="font: 5px 'Arial'; text-anchor: middle" x="495.466849" y="109.269144" transform="rotate(-0 495.466849 109.269144)">609</text>
     </g>
    </g>
    <g id="xtick_30">
     <g id="line2d_30">
      <g>
       <use xlink:href="#mfc933f17be" x="510.742205" y="98.690237" style="stroke: #000000; stroke-width: 0.8"/>
      </g>
     </g>
     <g id="text_30">
      <text style="font: 5px 'Arial'; text-anchor: middle" x="510.742205" y="109.269144" transform="rotate(-0 510.742205 109.269144)">770</text>
     </g>
    </g>
    <g id="xtick_31">
     <g id="line2d_31">
      <g>
       <use xlink:href="#mfc933f17be" x="526.017561" y="98.690237" style="stroke: #000000; stroke-width: 0.8"/>
      </g>
     </g>
     <g id="text_31">
      <text style="font: 5px 'Arial'; text-anchor: middle" x="526.017561" y="109.269144" transform="rotate(-0 526.017561 109.269144)">1255</text>
     </g>
    </g>
    <g id="xtick_32">
     <g id="line2d_32">
      <g>
       <use xlink:href="#mfc933f17be" x="541.292917" y="98.690237" style="stroke: #000000; stroke-width: 0.8"/>
      </g>
     </g>
     <g id="text_32">
      <text style="font: 5px 'Arial'; text-anchor: middle" x="541.292917" y="109.269144" transform="rotate(-0 541.292917 109.269144)">1273</text>
     </g>
    </g>
    <g id="xtick_33">
     <g id="line2d_33">
      <g>
       <use xlink:href="#mfc933f17be" x="556.568273" y="98.690237" style="stroke: #000000; stroke-width: 0.8"/>
      </g>
     </g>
     <g id="text_33">
      <text style="font: 5px 'Arial'; text-anchor: middle" x="556.568273" y="109.269144" transform="rotate(-0 556.568273 109.269144)">1353</text>
     </g>
    </g>
    <g id="text_34">
     <text style="font: 5px 'Arial'; text-anchor: middle" x="312.162578" y="117.902737" transform="rotate(-0 312.162578 117.902737)">Length of peptide sequence</text>
    </g>
   </g>
   <g id="matplotlib.axis_2">
    <g id="ytick_1">
     <g id="line2d_34">
      <defs>
       <path id="m33aeed5e5e" d="M 0 0 
L -3.5 0 
" style="stroke: #000000; stroke-width: 0.8"/>
      </defs>
      <g>
       <use xlink:href="#m33aeed5e5e" x="36.595156" y="98.690237" style="stroke: #000000; stroke-width: 0.8"/>
      </g>
     </g>
     <g id="text_35">
      <text style="font: 5px 'Arial'; text-anchor: end" x="29.595156" y="100.479691" transform="rotate(-0 29.595156 100.479691)">0</text>
     </g>
    </g>
    <g id="ytick_2">
     <g id="line2d_35">
      <g>
       <use xlink:href="#m33aeed5e5e" x="36.595156" y="78.390041" style="stroke: #000000; stroke-width: 0.8"/>
      </g>
     </g>
     <g id="text_36">
      <text style="font: 5px 'Arial'; text-anchor: end" x="29.595156" y="80.179494" transform="rotate(-0 29.595156 80.179494)">50</text>
     </g>
    </g>
    <g id="ytick_3">
     <g id="line2d_36">
      <g>
       <use xlink:href="#m33aeed5e5e" x="36.595156" y="58.089844" style="stroke: #000000; stroke-width: 0.8"/>
      </g>
     </g>
     <g id="text_37">
      <text style="font: 5px 'Arial'; text-anchor: end" x="29.595156" y="59.879297" transform="rotate(-0 29.595156 59.879297)">100</text>
     </g>
    </g>
    <g id="ytick_4">
     <g id="line2d_37">
      <g>
       <use xlink:href="#m33aeed5e5e" x="36.595156" y="37.789647" style="stroke: #000000; stroke-width: 0.8"/>
      </g>
     </g>
     <g id="text_38">
      <text style="font: 5px 'Arial'; text-anchor: end" x="29.595156" y="39.5791" transform="rotate(-0 29.595156 39.5791)">150</text>
     </g>
    </g>
    <g id="ytick_5">
     <g id="line2d_38">
      <g>
       <use xlink:href="#m33aeed5e5e" x="36.595156" y="17.48945" style="stroke: #000000; stroke-width: 0.8"/>
      </g>
     </g>
     <g id="text_39">
      <text style="font: 5px 'Arial'; text-anchor: end" x="29.595156" y="19.278903" transform="rotate(-0 29.595156 19.278903)">200</text>
     </g>
    </g>
    <g id="text_40">
     <text style="font: 5px 'Arial'" transform="translate(10.839844 88.334181) rotate(-90)">Number of sample peptides</text>
     <text style="font: 5px 'Arial'" transform="translate(16.201406 76.110744) rotate(-90)">of a given length</text>
    </g>
   </g>
   <g id="patch_69">
    <path d="M 36.595156 98.690237 
L 36.595156 16.839844 
" style="fill: none; stroke: #000000; stroke-width: 0.8; stroke-linejoin: miter; stroke-linecap: square"/>
   </g>
   <g id="patch_70">
    <path d="M 36.595156 98.690237 
L 587.729999 98.690237 
" style="fill: none; stroke: #000000; stroke-width: 0.8; stroke-linejoin: miter; stroke-linecap: square"/>
   </g>
   <g id="text_41">
    <text style="font: 5px 'Arial'; text-anchor: middle" x="312.162578" y="10.839844" transform="rotate(-0 312.162578 10.839844)">Sample peptides by self-assembly category and length</text>
   </g>
   <g id="legend_1">
    <g id="patch_71">
     <path d="M 557.948749 34.985156 
L 584.229999 34.985156 
Q 585.229999 34.985156 585.229999 33.985156 
L 585.229999 20.339844 
Q 585.229999 19.339844 584.229999 19.339844 
L 557.948749 19.339844 
Q 556.948749 19.339844 556.948749 20.339844 
L 556.948749 33.985156 
Q 556.948749 34.985156 557.948749 34.985156 
z
" style="fill: #ffffff; opacity: 0.8; stroke: #cccccc; stroke-linejoin: miter"/>
    </g>
    <g id="patch_72">
     <path d="M 558.948749 24.91875 
L 568.948749 24.91875 
L 568.948749 21.41875 
L 558.948749 21.41875 
z
" style="fill: #96c1ff"/>
    </g>
    <g id="text_42">
     <text style="font: 5px 'Arial'; text-anchor: start" x="572.948749" y="24.91875" transform="rotate(-0 572.948749 24.91875)">SA</text>
    </g>
    <g id="patch_73">
     <path d="M 558.948749 31.991406 
L 568.948749 31.991406 
L 568.948749 28.491406 
L 558.948749 28.491406 
z
" style="fill: #ff8884"/>
    </g>
    <g id="text_43">
     <text style="font: 5px 'Arial'; text-anchor: start" x="572.948749" y="31.991406" transform="rotate(-0 572.948749 31.991406)">NSA</text>
    </g>
   </g>
  </g>
 </g>
 <defs>
  <clipPath id="p75f4a4c35b">
   <rect x="36.595156" y="16.839844" width="551.134843" height="81.850394"/>
  </clipPath>
 </defs>
</svg>
