<?xml version="1.0" encoding="utf-8" standalone="no"?>
<!DOCTYPE svg PUBLIC "-//W3C//DTD SVG 1.1//EN"
  "http://www.w3.org/Graphics/SVG/1.1/DTD/svg11.dtd">
<svg xmlns:xlink="http://www.w3.org/1999/xlink" width="495.789pt" height="93.184844pt" viewBox="0 0 495.789 93.184844" xmlns="http://www.w3.org/2000/svg" version="1.1">
 <metadata>
  <rdf:RDF xmlns:dc="http://purl.org/dc/elements/1.1/" xmlns:cc="http://creativecommons.org/ns#" xmlns:rdf="http://www.w3.org/1999/02/22-rdf-syntax-ns#">
   <cc:Work>
    <dc:type rdf:resource="http://purl.org/dc/dcmitype/StillImage"/>
    <dc:date>2024-09-25T06:56:31.960316</dc:date>
    <dc:format>image/svg+xml</dc:format>
    <dc:creator>
     <cc:Agent>
      <dc:title>Matplotlib v3.7.0, https://matplotlib.org/</dc:title>
     </cc:Agent>
    </dc:creator>
   </cc:Work>
  </rdf:RDF>
 </metadata>
 <defs>
  <style type="text/css">*{stroke-linejoin: round; stroke-linecap: butt}</style>
 </defs>
 <g id="figure_1">
  <g id="patch_1">
   <path d="M 0 93.184844 
L 495.789 93.184844 
L 495.789 0 
L 0 0 
z
" style="fill: #ffffff"/>
  </g>
  <g id="axes_1">
   <g id="patch_2">
    <path d="M 31.175 65.72 
L 488.589 65.72 
L 488.589 7.2 
L 31.175 7.2 
z
" style="fill: #ffffff"/>
   </g>
   <g id="patch_3">
    <path d="M 230.050652 65.72 
L 239.994435 65.72 
L 239.994435 65.72 
L 230.050652 65.72 
z
" clip-path="url(#p68a12b572e)" style="fill: #ff120a; fill-opacity: 0.5; stroke: #000000; stroke-linejoin: miter"/>
   </g>
   <g id="patch_4">
    <path d="M 239.994435 65.72 
L 249.938217 65.72 
L 249.938217 65.72 
L 239.994435 65.72 
z
" clip-path="url(#p68a12b572e)" style="fill: #ff120a; fill-opacity: 0.5; stroke: #000000; stroke-linejoin: miter"/>
   </g>
   <g id="patch_5">
    <path d="M 249.938217 65.72 
L 259.882 65.72 
L 259.882 65.72 
L 249.938217 65.72 
z
" clip-path="url(#p68a12b572e)" style="fill: #ff120a; fill-opacity: 0.5; stroke: #000000; stroke-linejoin: miter"/>
   </g>
   <g id="patch_6">
    <path d="M 259.882 65.72 
L 269.825783 65.72 
L 269.825783 65.72 
L 259.882 65.72 
z
" clip-path="url(#p68a12b572e)" style="fill: #ff120a; fill-opacity: 0.5; stroke: #000000; stroke-linejoin: miter"/>
   </g>
   <g id="patch_7">
    <path d="M 269.825783 65.72 
L 279.769565 65.72 
L 279.769565 65.72 
L 269.825783 65.72 
z
" clip-path="url(#p68a12b572e)" style="fill: #ff120a; fill-opacity: 0.5; stroke: #000000; stroke-linejoin: miter"/>
   </g>
   <g id="patch_8">
    <path d="M 279.769565 65.72 
L 289.713348 65.72 
L 289.713348 65.72 
L 279.769565 65.72 
z
" clip-path="url(#p68a12b572e)" style="fill: #ff120a; fill-opacity: 0.5; stroke: #000000; stroke-linejoin: miter"/>
   </g>
   <g id="patch_9">
    <path d="M 289.713348 65.72 
L 299.65713 65.72 
L 299.65713 65.72 
L 289.713348 65.72 
z
" clip-path="url(#p68a12b572e)" style="fill: #ff120a; fill-opacity: 0.5; stroke: #000000; stroke-linejoin: miter"/>
   </g>
   <g id="patch_10">
    <path d="M 299.65713 65.72 
L 309.600913 65.72 
L 309.600913 65.72 
L 299.65713 65.72 
z
" clip-path="url(#p68a12b572e)" style="fill: #ff120a; fill-opacity: 0.5; stroke: #000000; stroke-linejoin: miter"/>
   </g>
   <g id="patch_11">
    <path d="M 309.600913 65.72 
L 319.544696 65.72 
L 319.544696 65.72 
L 309.600913 65.72 
z
" clip-path="url(#p68a12b572e)" style="fill: #ff120a; fill-opacity: 0.5; stroke: #000000; stroke-linejoin: miter"/>
   </g>
   <g id="patch_12">
    <path d="M 319.544696 65.72 
L 329.488478 65.72 
L 329.488478 65.72 
L 319.544696 65.72 
z
" clip-path="url(#p68a12b572e)" style="fill: #ff120a; fill-opacity: 0.5; stroke: #000000; stroke-linejoin: miter"/>
   </g>
   <g id="patch_13">
    <path d="M 329.488478 65.72 
L 379.207391 65.72 
L 379.207391 65.72 
L 329.488478 65.72 
z
" clip-path="url(#p68a12b572e)" style="fill: #ff120a; fill-opacity: 0.5; stroke: #000000; stroke-linejoin: miter"/>
   </g>
   <g id="patch_14">
    <path d="M 379.207391 65.72 
L 389.151174 65.72 
L 389.151174 56.82496 
L 379.207391 56.82496 
z
" clip-path="url(#p68a12b572e)" style="fill: #ff120a; fill-opacity: 0.5; stroke: #000000; stroke-linejoin: miter"/>
   </g>
   <g id="patch_15">
    <path d="M 389.151174 65.72 
L 399.094957 65.72 
L 399.094957 53.391787 
L 389.151174 53.391787 
z
" clip-path="url(#p68a12b572e)" style="fill: #ff120a; fill-opacity: 0.5; stroke: #000000; stroke-linejoin: miter"/>
   </g>
   <g id="patch_16">
    <path d="M 399.094957 65.72 
L 409.038739 65.72 
L 409.038739 59.477867 
L 399.094957 59.477867 
z
" clip-path="url(#p68a12b572e)" style="fill: #ff120a; fill-opacity: 0.5; stroke: #000000; stroke-linejoin: miter"/>
   </g>
   <g id="patch_17">
    <path d="M 409.038739 65.72 
L 418.982522 65.72 
L 418.982522 60.492213 
L 409.038739 60.492213 
z
" clip-path="url(#p68a12b572e)" style="fill: #ff120a; fill-opacity: 0.5; stroke: #000000; stroke-linejoin: miter"/>
   </g>
   <g id="patch_18">
    <path d="M 418.982522 65.72 
L 428.926304 65.72 
L 428.926304 61.97472 
L 418.982522 61.97472 
z
" clip-path="url(#p68a12b572e)" style="fill: #ff120a; fill-opacity: 0.5; stroke: #000000; stroke-linejoin: miter"/>
   </g>
   <g id="patch_19">
    <path d="M 428.926304 65.72 
L 438.870087 65.72 
L 438.870087 62.989067 
L 428.926304 62.989067 
z
" clip-path="url(#p68a12b572e)" style="fill: #ff120a; fill-opacity: 0.5; stroke: #000000; stroke-linejoin: miter"/>
   </g>
   <g id="patch_20">
    <path d="M 438.870087 65.72 
L 448.81387 65.72 
L 448.81387 62.989067 
L 438.870087 62.989067 
z
" clip-path="url(#p68a12b572e)" style="fill: #ff120a; fill-opacity: 0.5; stroke: #000000; stroke-linejoin: miter"/>
   </g>
   <g id="patch_21">
    <path d="M 448.81387 65.72 
L 458.757652 65.72 
L 458.757652 64.08144 
L 448.81387 64.08144 
z
" clip-path="url(#p68a12b572e)" style="fill: #ff120a; fill-opacity: 0.5; stroke: #000000; stroke-linejoin: miter"/>
   </g>
   <g id="patch_22">
    <path d="M 458.757652 65.72 
L 468.701435 65.72 
L 468.701435 64.627627 
L 458.757652 64.627627 
z
" clip-path="url(#p68a12b572e)" style="fill: #ff120a; fill-opacity: 0.5; stroke: #000000; stroke-linejoin: miter"/>
   </g>
   <g id="patch_23">
    <path d="M 468.701435 65.72 
L 478.645217 65.72 
L 478.645217 63.925387 
L 468.701435 63.925387 
z
" clip-path="url(#p68a12b572e)" style="fill: #ff120a; fill-opacity: 0.5; stroke: #000000; stroke-linejoin: miter"/>
   </g>
   <g id="patch_24">
    <path d="M 230.050652 65.72 
L 239.994435 65.72 
L 239.994435 65.72 
L 230.050652 65.72 
z
" clip-path="url(#p68a12b572e)" style="fill: #ff120a; fill-opacity: 0.5; stroke: #000000; stroke-linejoin: miter"/>
   </g>
   <g id="patch_25">
    <path d="M 239.994435 65.72 
L 249.938217 65.72 
L 249.938217 63.535253 
L 239.994435 63.535253 
z
" clip-path="url(#p68a12b572e)" style="fill: #ff120a; fill-opacity: 0.5; stroke: #000000; stroke-linejoin: miter"/>
   </g>
   <g id="patch_26">
    <path d="M 249.938217 65.72 
L 259.882 65.72 
L 259.882 50.73888 
L 249.938217 50.73888 
z
" clip-path="url(#p68a12b572e)" style="fill: #ff120a; fill-opacity: 0.5; stroke: #000000; stroke-linejoin: miter"/>
   </g>
   <g id="patch_27">
    <path d="M 259.882 65.72 
L 269.825783 65.72 
L 269.825783 49.724533 
L 259.882 49.724533 
z
" clip-path="url(#p68a12b572e)" style="fill: #ff120a; fill-opacity: 0.5; stroke: #000000; stroke-linejoin: miter"/>
   </g>
   <g id="patch_28">
    <path d="M 269.825783 65.72 
L 279.769565 65.72 
L 279.769565 59.009707 
L 269.825783 59.009707 
z
" clip-path="url(#p68a12b572e)" style="fill: #ff120a; fill-opacity: 0.5; stroke: #000000; stroke-linejoin: miter"/>
   </g>
   <g id="patch_29">
    <path d="M 279.769565 65.72 
L 289.713348 65.72 
L 289.713348 63.223147 
L 279.769565 63.223147 
z
" clip-path="url(#p68a12b572e)" style="fill: #ff120a; fill-opacity: 0.5; stroke: #000000; stroke-linejoin: miter"/>
   </g>
   <g id="patch_30">
    <path d="M 289.713348 65.72 
L 299.65713 65.72 
L 299.65713 64.627627 
L 289.713348 64.627627 
z
" clip-path="url(#p68a12b572e)" style="fill: #ff120a; fill-opacity: 0.5; stroke: #000000; stroke-linejoin: miter"/>
   </g>
   <g id="patch_31">
    <path d="M 299.65713 65.72 
L 309.600913 65.72 
L 309.600913 64.861707 
L 299.65713 64.861707 
z
" clip-path="url(#p68a12b572e)" style="fill: #ff120a; fill-opacity: 0.5; stroke: #000000; stroke-linejoin: miter"/>
   </g>
   <g id="patch_32">
    <path d="M 309.600913 65.72 
L 319.544696 65.72 
L 319.544696 64.861707 
L 309.600913 64.861707 
z
" clip-path="url(#p68a12b572e)" style="fill: #ff120a; fill-opacity: 0.5; stroke: #000000; stroke-linejoin: miter"/>
   </g>
   <g id="patch_33">
    <path d="M 319.544696 65.72 
L 329.488478 65.72 
L 329.488478 64.471573 
L 319.544696 64.471573 
z
" clip-path="url(#p68a12b572e)" style="fill: #ff120a; fill-opacity: 0.5; stroke: #000000; stroke-linejoin: miter"/>
   </g>
   <g id="patch_34">
    <path d="M 329.488478 65.72 
L 379.207391 65.72 
L 379.207391 65.72 
L 329.488478 65.72 
z
" clip-path="url(#p68a12b572e)" style="fill: #ff120a; fill-opacity: 0.5; stroke: #000000; stroke-linejoin: miter"/>
   </g>
   <g id="patch_35">
    <path d="M 379.207391 65.72 
L 389.151174 65.72 
L 389.151174 65.72 
L 379.207391 65.72 
z
" clip-path="url(#p68a12b572e)" style="fill: #ff120a; fill-opacity: 0.5; stroke: #000000; stroke-linejoin: miter"/>
   </g>
   <g id="patch_36">
    <path d="M 389.151174 65.72 
L 399.094957 65.72 
L 399.094957 65.72 
L 389.151174 65.72 
z
" clip-path="url(#p68a12b572e)" style="fill: #ff120a; fill-opacity: 0.5; stroke: #000000; stroke-linejoin: miter"/>
   </g>
   <g id="patch_37">
    <path d="M 399.094957 65.72 
L 409.038739 65.72 
L 409.038739 65.72 
L 399.094957 65.72 
z
" clip-path="url(#p68a12b572e)" style="fill: #ff120a; fill-opacity: 0.5; stroke: #000000; stroke-linejoin: miter"/>
   </g>
   <g id="patch_38">
    <path d="M 409.038739 65.72 
L 418.982522 65.72 
L 418.982522 65.72 
L 409.038739 65.72 
z
" clip-path="url(#p68a12b572e)" style="fill: #ff120a; fill-opacity: 0.5; stroke: #000000; stroke-linejoin: miter"/>
   </g>
   <g id="patch_39">
    <path d="M 418.982522 65.72 
L 428.926304 65.72 
L 428.926304 65.72 
L 418.982522 65.72 
z
" clip-path="url(#p68a12b572e)" style="fill: #ff120a; fill-opacity: 0.5; stroke: #000000; stroke-linejoin: miter"/>
   </g>
   <g id="patch_40">
    <path d="M 428.926304 65.72 
L 438.870087 65.72 
L 438.870087 65.72 
L 428.926304 65.72 
z
" clip-path="url(#p68a12b572e)" style="fill: #ff120a; fill-opacity: 0.5; stroke: #000000; stroke-linejoin: miter"/>
   </g>
   <g id="patch_41">
    <path d="M 438.870087 65.72 
L 448.81387 65.72 
L 448.81387 65.72 
L 438.870087 65.72 
z
" clip-path="url(#p68a12b572e)" style="fill: #ff120a; fill-opacity: 0.5; stroke: #000000; stroke-linejoin: miter"/>
   </g>
   <g id="patch_42">
    <path d="M 448.81387 65.72 
L 458.757652 65.72 
L 458.757652 65.72 
L 448.81387 65.72 
z
" clip-path="url(#p68a12b572e)" style="fill: #ff120a; fill-opacity: 0.5; stroke: #000000; stroke-linejoin: miter"/>
   </g>
   <g id="patch_43">
    <path d="M 458.757652 65.72 
L 468.701435 65.72 
L 468.701435 65.72 
L 458.757652 65.72 
z
" clip-path="url(#p68a12b572e)" style="fill: #ff120a; fill-opacity: 0.5; stroke: #000000; stroke-linejoin: miter"/>
   </g>
   <g id="patch_44">
    <path d="M 468.701435 65.72 
L 478.645217 65.72 
L 478.645217 65.72 
L 468.701435 65.72 
z
" clip-path="url(#p68a12b572e)" style="fill: #ff120a; fill-opacity: 0.5; stroke: #000000; stroke-linejoin: miter"/>
   </g>
   <g id="matplotlib.axis_1">
    <g id="xtick_1">
     <g id="line2d_1">
      <defs>
       <path id="mb5b4e9abef" d="M 0 0 
L 0 3.5 
" style="stroke: #000000; stroke-width: 0.8"/>
      </defs>
      <g>
       <use xlink:href="#mb5b4e9abef" x="230.050652" y="65.72" style="stroke: #000000; stroke-width: 0.8"/>
      </g>
     </g>
     <g id="text_1">
      <text style="font: 5px 'Arial'; text-anchor: middle" x="230.050652" y="76.298906" transform="rotate(-0 230.050652 76.298906)">0.0</text>
     </g>
    </g>
    <g id="xtick_2">
     <g id="line2d_2">
      <g>
       <use xlink:href="#mb5b4e9abef" x="279.769565" y="65.72" style="stroke: #000000; stroke-width: 0.8"/>
      </g>
     </g>
     <g id="text_2">
      <text style="font: 5px 'Arial'; text-anchor: middle" x="279.769565" y="76.298906" transform="rotate(-0 279.769565 76.298906)">0.5</text>
     </g>
    </g>
    <g id="xtick_3">
     <g id="line2d_3">
      <g>
       <use xlink:href="#mb5b4e9abef" x="329.488478" y="65.72" style="stroke: #000000; stroke-width: 0.8"/>
      </g>
     </g>
     <g id="text_3">
      <text style="font: 5px 'Arial'; text-anchor: middle" x="329.488478" y="76.298906" transform="rotate(-0 329.488478 76.298906)">1.0</text>
     </g>
    </g>
    <g id="xtick_4">
     <g id="line2d_4">
      <g>
       <use xlink:href="#mb5b4e9abef" x="379.207391" y="65.72" style="stroke: #000000; stroke-width: 0.8"/>
      </g>
     </g>
     <g id="text_4">
      <text style="font: 5px 'Arial'; text-anchor: middle" x="379.207391" y="76.298906" transform="rotate(-0 379.207391 76.298906)">0.0</text>
     </g>
    </g>
    <g id="xtick_5">
     <g id="line2d_5">
      <g>
       <use xlink:href="#mb5b4e9abef" x="428.926304" y="65.72" style="stroke: #000000; stroke-width: 0.8"/>
      </g>
     </g>
     <g id="text_5">
      <text style="font: 5px 'Arial'; text-anchor: middle" x="428.926304" y="76.298906" transform="rotate(-0 428.926304 76.298906)">0.5</text>
     </g>
    </g>
    <g id="xtick_6">
     <g id="line2d_6">
      <g>
       <use xlink:href="#mb5b4e9abef" x="478.645217" y="65.72" style="stroke: #000000; stroke-width: 0.8"/>
      </g>
     </g>
     <g id="text_6">
      <text style="font: 5px 'Arial'; text-anchor: middle" x="478.645217" y="76.298906" transform="rotate(-0 478.645217 76.298906)">1.0</text>
     </g>
    </g>
    <g id="text_7">
     <text style="font: 5px 'Arial'; text-anchor: middle" x="259.882" y="84.9325" transform="rotate(-0 259.882 84.9325)">Predicted self assembly probability</text>
    </g>
   </g>
   <g id="matplotlib.axis_2">
    <g id="ytick_1">
     <g id="line2d_7">
      <defs>
       <path id="mbb1b28e486" d="M 0 0 
L -3.5 0 
" style="stroke: #000000; stroke-width: 0.8"/>
      </defs>
      <g>
       <use xlink:href="#mbb1b28e486" x="31.175" y="65.72" style="stroke: #000000; stroke-width: 0.8"/>
      </g>
     </g>
     <g id="text_8">
      <text style="font: 5px 'Arial'; text-anchor: end" x="24.175" y="67.509453" transform="rotate(-0 24.175 67.509453)">0</text>
     </g>
    </g>
    <g id="ytick_2">
     <g id="line2d_8">
      <g>
       <use xlink:href="#mbb1b28e486" x="31.175" y="50.114667" style="stroke: #000000; stroke-width: 0.8"/>
      </g>
     </g>
     <g id="text_9">
      <text style="font: 5px 'Arial'; text-anchor: end" x="24.175" y="51.90412" transform="rotate(-0 24.175 51.90412)">200</text>
     </g>
    </g>
    <g id="ytick_3">
     <g id="line2d_9">
      <g>
       <use xlink:href="#mbb1b28e486" x="31.175" y="34.509333" style="stroke: #000000; stroke-width: 0.8"/>
      </g>
     </g>
     <g id="text_10">
      <text style="font: 5px 'Arial'; text-anchor: end" x="24.175" y="36.298786" transform="rotate(-0 24.175 36.298786)">400</text>
     </g>
    </g>
    <g id="ytick_4">
     <g id="line2d_10">
      <g>
       <use xlink:href="#mbb1b28e486" x="31.175" y="18.904" style="stroke: #000000; stroke-width: 0.8"/>
      </g>
     </g>
     <g id="text_11">
      <text style="font: 5px 'Arial'; text-anchor: end" x="24.175" y="20.693453" transform="rotate(-0 24.175 20.693453)">600</text>
     </g>
    </g>
    <g id="text_12">
     <text style="font: 5px 'Arial'; text-anchor: middle" x="10.839844" y="36.46" transform="rotate(-90 10.839844 36.46)">Number of peptides</text>
    </g>
   </g>
   <g id="line2d_11">
    <path d="M 235.022543 65.72 
L 244.966326 63.535253 
L 254.910109 50.73888 
L 264.853891 49.724533 
L 274.797674 59.009707 
L 284.741457 63.223147 
L 294.685239 64.627627 
L 304.629022 64.861707 
L 314.572804 64.861707 
L 324.516587 64.471573 
" clip-path="url(#p68a12b572e)" style="fill: none; stroke: #ff120a; stroke-linecap: square"/>
   </g>
   <g id="line2d_12">
    <path d="M 384.179283 56.82496 
L 394.123065 53.391787 
L 404.066848 59.477867 
L 414.01063 60.492213 
L 423.954413 61.97472 
L 433.898196 62.989067 
L 443.841978 62.989067 
L 453.785761 64.08144 
L 463.729543 64.627627 
L 473.673326 63.925387 
" clip-path="url(#p68a12b572e)" style="fill: none; stroke: #ff120a; stroke-linecap: square"/>
   </g>
   <g id="patch_45">
    <path d="M 31.175 65.72 
L 31.175 7.2 
" style="fill: none; stroke: #000000; stroke-width: 0.8; stroke-linejoin: miter; stroke-linecap: square"/>
   </g>
   <g id="patch_46">
    <path d="M 31.175 65.72 
L 488.589 65.72 
" style="fill: none; stroke: #000000; stroke-width: 0.8; stroke-linejoin: miter; stroke-linecap: square"/>
   </g>
   <g id="text_13">
    <text style="fill: #ff120a; font: 5px 'Arial'; text-anchor: start" x="241.651732" y="55.108373" transform="rotate(-0 241.651732 55.108373)">28</text>
   </g>
   <g id="text_14">
    <text style="fill: #ff120a; font: 5px 'Arial'; text-anchor: start" x="251.18119" y="47.617813" transform="rotate(-0 251.18119 47.617813)">192</text>
   </g>
   <g id="text_15">
    <text style="fill: #ff120a; font: 5px 'Arial'; text-anchor: start" x="261.124973" y="46.603467" transform="rotate(-0 261.124973 46.603467)">205</text>
   </g>
   <g id="text_16">
    <text style="fill: #ff120a; font: 5px 'Arial'; text-anchor: start" x="271.48308" y="53.352773" transform="rotate(-0 271.48308 53.352773)">86</text>
   </g>
   <g id="text_17">
    <text style="fill: #ff120a; font: 5px 'Arial'; text-anchor: start" x="281.426862" y="58.6976" transform="rotate(-0 281.426862 58.6976)">32</text>
   </g>
   <g id="text_18">
    <text style="fill: #ff120a; font: 5px 'Arial'; text-anchor: start" x="291.370645" y="60.92136" transform="rotate(-0 291.370645 60.92136)">14</text>
   </g>
   <g id="text_19">
    <text style="fill: #ff120a; font: 5px 'Arial'; text-anchor: start" x="301.314428" y="61.6236" transform="rotate(-0 301.314428 61.6236)">11</text>
   </g>
   <g id="text_20">
    <text style="fill: #ff120a; font: 5px 'Arial'; text-anchor: start" x="311.25821" y="61.545573" transform="rotate(-0 311.25821 61.545573)">11</text>
   </g>
   <g id="text_21">
    <text style="fill: #ff120a; font: 5px 'Arial'; text-anchor: start" x="321.201993" y="61.350507" transform="rotate(-0 321.201993 61.350507)">16</text>
   </g>
   <g id="text_22">
    <text style="fill: #ff120a; font: 5px 'Arial'; text-anchor: start" x="380.450364" y="53.703893" transform="rotate(-0 380.450364 53.703893)">114</text>
   </g>
   <g id="text_23">
    <text style="fill: #ff120a; font: 5px 'Arial'; text-anchor: start" x="390.394147" y="50.27072" transform="rotate(-0 390.394147 50.27072)">158</text>
   </g>
   <g id="text_24">
    <text style="fill: #ff120a; font: 5px 'Arial'; text-anchor: start" x="400.752254" y="53.820933" transform="rotate(-0 400.752254 53.820933)">80</text>
   </g>
   <g id="text_25">
    <text style="fill: #ff120a; font: 5px 'Arial'; text-anchor: start" x="410.696036" y="57.371147" transform="rotate(-0 410.696036 57.371147)">67</text>
   </g>
   <g id="text_26">
    <text style="fill: #ff120a; font: 5px 'Arial'; text-anchor: start" x="420.639819" y="58.619573" transform="rotate(-0 420.639819 58.619573)">48</text>
   </g>
   <g id="text_27">
    <text style="fill: #ff120a; font: 5px 'Arial'; text-anchor: start" x="430.583601" y="59.360827" transform="rotate(-0 430.583601 59.360827)">35</text>
   </g>
   <g id="text_28">
    <text style="fill: #ff120a; font: 5px 'Arial'; text-anchor: start" x="440.527384" y="59.868" transform="rotate(-0 440.527384 59.868)">35</text>
   </g>
   <g id="text_29">
    <text style="fill: #ff120a; font: 5px 'Arial'; text-anchor: start" x="450.471167" y="60.68728" transform="rotate(-0 450.471167 60.68728)">21</text>
   </g>
   <g id="text_30">
    <text style="fill: #ff120a; font: 5px 'Arial'; text-anchor: start" x="460.414949" y="60.882347" transform="rotate(-0 460.414949 60.882347)">14</text>
   </g>
   <g id="text_31">
    <text style="fill: #ff120a; font: 5px 'Arial'; text-anchor: start" x="470.358732" y="60.80432" transform="rotate(-0 470.358732 60.80432)">23</text>
   </g>
  </g>
 </g>
 <defs>
  <clipPath id="p68a12b572e">
   <rect x="31.175" y="7.2" width="457.414" height="58.52"/>
  </clipPath>
 </defs>
</svg>
