<?xml version="1.0" encoding="utf-8" standalone="no"?>
<!DOCTYPE svg PUBLIC "-//W3C//DTD SVG 1.1//EN"
  "http://www.w3.org/Graphics/SVG/1.1/DTD/svg11.dtd">
<svg xmlns:xlink="http://www.w3.org/1999/xlink" width="495.789pt" height="93.184844pt" viewBox="0 0 495.789 93.184844" xmlns="http://www.w3.org/2000/svg" version="1.1">
 <metadata>
  <rdf:RDF xmlns:dc="http://purl.org/dc/elements/1.1/" xmlns:cc="http://creativecommons.org/ns#" xmlns:rdf="http://www.w3.org/1999/02/22-rdf-syntax-ns#">
   <cc:Work>
    <dc:type rdf:resource="http://purl.org/dc/dcmitype/StillImage"/>
    <dc:date>2024-09-25T06:56:48.183527</dc:date>
    <dc:format>image/svg+xml</dc:format>
    <dc:creator>
     <cc:Agent>
      <dc:title>Matplotlib v3.7.0, https://matplotlib.org/</dc:title>
     </cc:Agent>
    </dc:creator>
   </cc:Work>
  </rdf:RDF>
 </metadata>
 <defs>
  <style type="text/css">*{stroke-linejoin: round; stroke-linecap: butt}</style>
 </defs>
 <g id="figure_1">
  <g id="patch_1">
   <path d="M 0 93.184844 
L 495.789 93.184844 
L 495.789 0 
L 0 0 
z
" style="fill: #ffffff"/>
  </g>
  <g id="axes_1">
   <g id="patch_2">
    <path d="M 31.175 65.72 
L 488.589 65.72 
L 488.589 7.2 
L 31.175 7.2 
z
" style="fill: #ffffff"/>
   </g>
   <g id="patch_3">
    <path d="M 80.893913 65.72 
L 90.837696 65.72 
L 90.837696 65.72 
L 80.893913 65.72 
z
" clip-path="url(#p5b761cbe44)" style="fill: #ff120a; fill-opacity: 0.5; stroke: #000000; stroke-linejoin: miter"/>
   </g>
   <g id="patch_4">
    <path d="M 90.837696 65.72 
L 100.781478 65.72 
L 100.781478 65.72 
L 90.837696 65.72 
z
" clip-path="url(#p5b761cbe44)" style="fill: #ff120a; fill-opacity: 0.5; stroke: #000000; stroke-linejoin: miter"/>
   </g>
   <g id="patch_5">
    <path d="M 100.781478 65.72 
L 110.725261 65.72 
L 110.725261 65.72 
L 100.781478 65.72 
z
" clip-path="url(#p5b761cbe44)" style="fill: #ff120a; fill-opacity: 0.5; stroke: #000000; stroke-linejoin: miter"/>
   </g>
   <g id="patch_6">
    <path d="M 110.725261 65.72 
L 120.669043 65.72 
L 120.669043 65.72 
L 110.725261 65.72 
z
" clip-path="url(#p5b761cbe44)" style="fill: #ff120a; fill-opacity: 0.5; stroke: #000000; stroke-linejoin: miter"/>
   </g>
   <g id="patch_7">
    <path d="M 120.669043 65.72 
L 130.612826 65.72 
L 130.612826 65.72 
L 120.669043 65.72 
z
" clip-path="url(#p5b761cbe44)" style="fill: #ff120a; fill-opacity: 0.5; stroke: #000000; stroke-linejoin: miter"/>
   </g>
   <g id="patch_8">
    <path d="M 130.612826 65.72 
L 140.556609 65.72 
L 140.556609 65.72 
L 130.612826 65.72 
z
" clip-path="url(#p5b761cbe44)" style="fill: #ff120a; fill-opacity: 0.5; stroke: #000000; stroke-linejoin: miter"/>
   </g>
   <g id="patch_9">
    <path d="M 140.556609 65.72 
L 150.500391 65.72 
L 150.500391 65.72 
L 140.556609 65.72 
z
" clip-path="url(#p5b761cbe44)" style="fill: #ff120a; fill-opacity: 0.5; stroke: #000000; stroke-linejoin: miter"/>
   </g>
   <g id="patch_10">
    <path d="M 150.500391 65.72 
L 160.444174 65.72 
L 160.444174 65.72 
L 150.500391 65.72 
z
" clip-path="url(#p5b761cbe44)" style="fill: #ff120a; fill-opacity: 0.5; stroke: #000000; stroke-linejoin: miter"/>
   </g>
   <g id="patch_11">
    <path d="M 160.444174 65.72 
L 170.387957 65.72 
L 170.387957 65.72 
L 160.444174 65.72 
z
" clip-path="url(#p5b761cbe44)" style="fill: #ff120a; fill-opacity: 0.5; stroke: #000000; stroke-linejoin: miter"/>
   </g>
   <g id="patch_12">
    <path d="M 170.387957 65.72 
L 180.331739 65.72 
L 180.331739 65.72 
L 170.387957 65.72 
z
" clip-path="url(#p5b761cbe44)" style="fill: #ff120a; fill-opacity: 0.5; stroke: #000000; stroke-linejoin: miter"/>
   </g>
   <g id="patch_13">
    <path d="M 180.331739 65.72 
L 230.050652 65.72 
L 230.050652 65.72 
L 180.331739 65.72 
z
" clip-path="url(#p5b761cbe44)" style="fill: #ff120a; fill-opacity: 0.5; stroke: #000000; stroke-linejoin: miter"/>
   </g>
   <g id="patch_14">
    <path d="M 230.050652 65.72 
L 239.994435 65.72 
L 239.994435 65.72 
L 230.050652 65.72 
z
" clip-path="url(#p5b761cbe44)" style="fill: #ff120a; fill-opacity: 0.5; stroke: #000000; stroke-linejoin: miter"/>
   </g>
   <g id="patch_15">
    <path d="M 239.994435 65.72 
L 249.938217 65.72 
L 249.938217 65.72 
L 239.994435 65.72 
z
" clip-path="url(#p5b761cbe44)" style="fill: #ff120a; fill-opacity: 0.5; stroke: #000000; stroke-linejoin: miter"/>
   </g>
   <g id="patch_16">
    <path d="M 249.938217 65.72 
L 259.882 65.72 
L 259.882 65.72 
L 249.938217 65.72 
z
" clip-path="url(#p5b761cbe44)" style="fill: #ff120a; fill-opacity: 0.5; stroke: #000000; stroke-linejoin: miter"/>
   </g>
   <g id="patch_17">
    <path d="M 259.882 65.72 
L 269.825783 65.72 
L 269.825783 65.72 
L 259.882 65.72 
z
" clip-path="url(#p5b761cbe44)" style="fill: #ff120a; fill-opacity: 0.5; stroke: #000000; stroke-linejoin: miter"/>
   </g>
   <g id="patch_18">
    <path d="M 269.825783 65.72 
L 279.769565 65.72 
L 279.769565 65.72 
L 269.825783 65.72 
z
" clip-path="url(#p5b761cbe44)" style="fill: #ff120a; fill-opacity: 0.5; stroke: #000000; stroke-linejoin: miter"/>
   </g>
   <g id="patch_19">
    <path d="M 279.769565 65.72 
L 289.713348 65.72 
L 289.713348 65.72 
L 279.769565 65.72 
z
" clip-path="url(#p5b761cbe44)" style="fill: #ff120a; fill-opacity: 0.5; stroke: #000000; stroke-linejoin: miter"/>
   </g>
   <g id="patch_20">
    <path d="M 289.713348 65.72 
L 299.65713 65.72 
L 299.65713 65.72 
L 289.713348 65.72 
z
" clip-path="url(#p5b761cbe44)" style="fill: #ff120a; fill-opacity: 0.5; stroke: #000000; stroke-linejoin: miter"/>
   </g>
   <g id="patch_21">
    <path d="M 299.65713 65.72 
L 309.600913 65.72 
L 309.600913 65.72 
L 299.65713 65.72 
z
" clip-path="url(#p5b761cbe44)" style="fill: #ff120a; fill-opacity: 0.5; stroke: #000000; stroke-linejoin: miter"/>
   </g>
   <g id="patch_22">
    <path d="M 309.600913 65.72 
L 319.544696 65.72 
L 319.544696 65.72 
L 309.600913 65.72 
z
" clip-path="url(#p5b761cbe44)" style="fill: #ff120a; fill-opacity: 0.5; stroke: #000000; stroke-linejoin: miter"/>
   </g>
   <g id="patch_23">
    <path d="M 319.544696 65.72 
L 329.488478 65.72 
L 329.488478 65.72 
L 319.544696 65.72 
z
" clip-path="url(#p5b761cbe44)" style="fill: #ff120a; fill-opacity: 0.5; stroke: #000000; stroke-linejoin: miter"/>
   </g>
   <g id="patch_24">
    <path d="M 329.488478 65.72 
L 379.207391 65.72 
L 379.207391 65.72 
L 329.488478 65.72 
z
" clip-path="url(#p5b761cbe44)" style="fill: #ff120a; fill-opacity: 0.5; stroke: #000000; stroke-linejoin: miter"/>
   </g>
   <g id="patch_25">
    <path d="M 379.207391 65.72 
L 389.151174 65.72 
L 389.151174 45.511093 
L 379.207391 45.511093 
z
" clip-path="url(#p5b761cbe44)" style="fill: #ff120a; fill-opacity: 0.5; stroke: #000000; stroke-linejoin: miter"/>
   </g>
   <g id="patch_26">
    <path d="M 389.151174 65.72 
L 399.094957 65.72 
L 399.094957 57.29312 
L 389.151174 57.29312 
z
" clip-path="url(#p5b761cbe44)" style="fill: #ff120a; fill-opacity: 0.5; stroke: #000000; stroke-linejoin: miter"/>
   </g>
   <g id="patch_27">
    <path d="M 399.094957 65.72 
L 409.038739 65.72 
L 409.038739 62.286827 
L 399.094957 62.286827 
z
" clip-path="url(#p5b761cbe44)" style="fill: #ff120a; fill-opacity: 0.5; stroke: #000000; stroke-linejoin: miter"/>
   </g>
   <g id="patch_28">
    <path d="M 409.038739 65.72 
L 418.982522 65.72 
L 418.982522 63.457227 
L 409.038739 63.457227 
z
" clip-path="url(#p5b761cbe44)" style="fill: #ff120a; fill-opacity: 0.5; stroke: #000000; stroke-linejoin: miter"/>
   </g>
   <g id="patch_29">
    <path d="M 418.982522 65.72 
L 428.926304 65.72 
L 428.926304 63.84736 
L 418.982522 63.84736 
z
" clip-path="url(#p5b761cbe44)" style="fill: #ff120a; fill-opacity: 0.5; stroke: #000000; stroke-linejoin: miter"/>
   </g>
   <g id="patch_30">
    <path d="M 428.926304 65.72 
L 438.870087 65.72 
L 438.870087 64.393547 
L 428.926304 64.393547 
z
" clip-path="url(#p5b761cbe44)" style="fill: #ff120a; fill-opacity: 0.5; stroke: #000000; stroke-linejoin: miter"/>
   </g>
   <g id="patch_31">
    <path d="M 438.870087 65.72 
L 448.81387 65.72 
L 448.81387 64.237493 
L 438.870087 64.237493 
z
" clip-path="url(#p5b761cbe44)" style="fill: #ff120a; fill-opacity: 0.5; stroke: #000000; stroke-linejoin: miter"/>
   </g>
   <g id="patch_32">
    <path d="M 448.81387 65.72 
L 458.757652 65.72 
L 458.757652 63.61328 
L 448.81387 63.61328 
z
" clip-path="url(#p5b761cbe44)" style="fill: #ff120a; fill-opacity: 0.5; stroke: #000000; stroke-linejoin: miter"/>
   </g>
   <g id="patch_33">
    <path d="M 458.757652 65.72 
L 468.701435 65.72 
L 468.701435 64.003413 
L 458.757652 64.003413 
z
" clip-path="url(#p5b761cbe44)" style="fill: #ff120a; fill-opacity: 0.5; stroke: #000000; stroke-linejoin: miter"/>
   </g>
   <g id="patch_34">
    <path d="M 468.701435 65.72 
L 478.645217 65.72 
L 478.645217 62.130773 
L 468.701435 62.130773 
z
" clip-path="url(#p5b761cbe44)" style="fill: #ff120a; fill-opacity: 0.5; stroke: #000000; stroke-linejoin: miter"/>
   </g>
   <g id="patch_35">
    <path d="M 80.893913 65.72 
L 90.837696 65.72 
L 90.837696 65.72 
L 80.893913 65.72 
z
" clip-path="url(#p5b761cbe44)" style="fill: #ff120a; fill-opacity: 0.5; stroke: #000000; stroke-linejoin: miter"/>
   </g>
   <g id="patch_36">
    <path d="M 90.837696 65.72 
L 100.781478 65.72 
L 100.781478 65.72 
L 90.837696 65.72 
z
" clip-path="url(#p5b761cbe44)" style="fill: #ff120a; fill-opacity: 0.5; stroke: #000000; stroke-linejoin: miter"/>
   </g>
   <g id="patch_37">
    <path d="M 100.781478 65.72 
L 110.725261 65.72 
L 110.725261 65.72 
L 100.781478 65.72 
z
" clip-path="url(#p5b761cbe44)" style="fill: #ff120a; fill-opacity: 0.5; stroke: #000000; stroke-linejoin: miter"/>
   </g>
   <g id="patch_38">
    <path d="M 110.725261 65.72 
L 120.669043 65.72 
L 120.669043 65.72 
L 110.725261 65.72 
z
" clip-path="url(#p5b761cbe44)" style="fill: #ff120a; fill-opacity: 0.5; stroke: #000000; stroke-linejoin: miter"/>
   </g>
   <g id="patch_39">
    <path d="M 120.669043 65.72 
L 130.612826 65.72 
L 130.612826 65.72 
L 120.669043 65.72 
z
" clip-path="url(#p5b761cbe44)" style="fill: #ff120a; fill-opacity: 0.5; stroke: #000000; stroke-linejoin: miter"/>
   </g>
   <g id="patch_40">
    <path d="M 130.612826 65.72 
L 140.556609 65.72 
L 140.556609 65.72 
L 130.612826 65.72 
z
" clip-path="url(#p5b761cbe44)" style="fill: #ff120a; fill-opacity: 0.5; stroke: #000000; stroke-linejoin: miter"/>
   </g>
   <g id="patch_41">
    <path d="M 140.556609 65.72 
L 150.500391 65.72 
L 150.500391 65.72 
L 140.556609 65.72 
z
" clip-path="url(#p5b761cbe44)" style="fill: #ff120a; fill-opacity: 0.5; stroke: #000000; stroke-linejoin: miter"/>
   </g>
   <g id="patch_42">
    <path d="M 150.500391 65.72 
L 160.444174 65.72 
L 160.444174 65.72 
L 150.500391 65.72 
z
" clip-path="url(#p5b761cbe44)" style="fill: #ff120a; fill-opacity: 0.5; stroke: #000000; stroke-linejoin: miter"/>
   </g>
   <g id="patch_43">
    <path d="M 160.444174 65.72 
L 170.387957 65.72 
L 170.387957 65.72 
L 160.444174 65.72 
z
" clip-path="url(#p5b761cbe44)" style="fill: #ff120a; fill-opacity: 0.5; stroke: #000000; stroke-linejoin: miter"/>
   </g>
   <g id="patch_44">
    <path d="M 170.387957 65.72 
L 180.331739 65.72 
L 180.331739 65.72 
L 170.387957 65.72 
z
" clip-path="url(#p5b761cbe44)" style="fill: #ff120a; fill-opacity: 0.5; stroke: #000000; stroke-linejoin: miter"/>
   </g>
   <g id="patch_45">
    <path d="M 180.331739 65.72 
L 230.050652 65.72 
L 230.050652 65.72 
L 180.331739 65.72 
z
" clip-path="url(#p5b761cbe44)" style="fill: #ff120a; fill-opacity: 0.5; stroke: #000000; stroke-linejoin: miter"/>
   </g>
   <g id="patch_46">
    <path d="M 230.050652 65.72 
L 239.994435 65.72 
L 239.994435 46.05728 
L 230.050652 46.05728 
z
" clip-path="url(#p5b761cbe44)" style="fill: #ff120a; fill-opacity: 0.5; stroke: #000000; stroke-linejoin: miter"/>
   </g>
   <g id="patch_47">
    <path d="M 239.994435 65.72 
L 249.938217 65.72 
L 249.938217 58.853653 
L 239.994435 58.853653 
z
" clip-path="url(#p5b761cbe44)" style="fill: #ff120a; fill-opacity: 0.5; stroke: #000000; stroke-linejoin: miter"/>
   </g>
   <g id="patch_48">
    <path d="M 249.938217 65.72 
L 259.882 65.72 
L 259.882 61.0384 
L 249.938217 61.0384 
z
" clip-path="url(#p5b761cbe44)" style="fill: #ff120a; fill-opacity: 0.5; stroke: #000000; stroke-linejoin: miter"/>
   </g>
   <g id="patch_49">
    <path d="M 259.882 65.72 
L 269.825783 65.72 
L 269.825783 62.833013 
L 259.882 62.833013 
z
" clip-path="url(#p5b761cbe44)" style="fill: #ff120a; fill-opacity: 0.5; stroke: #000000; stroke-linejoin: miter"/>
   </g>
   <g id="patch_50">
    <path d="M 269.825783 65.72 
L 279.769565 65.72 
L 279.769565 63.067093 
L 269.825783 63.067093 
z
" clip-path="url(#p5b761cbe44)" style="fill: #ff120a; fill-opacity: 0.5; stroke: #000000; stroke-linejoin: miter"/>
   </g>
   <g id="patch_51">
    <path d="M 279.769565 65.72 
L 289.713348 65.72 
L 289.713348 64.237493 
L 279.769565 64.237493 
z
" clip-path="url(#p5b761cbe44)" style="fill: #ff120a; fill-opacity: 0.5; stroke: #000000; stroke-linejoin: miter"/>
   </g>
   <g id="patch_52">
    <path d="M 289.713348 65.72 
L 299.65713 65.72 
L 299.65713 64.159467 
L 289.713348 64.159467 
z
" clip-path="url(#p5b761cbe44)" style="fill: #ff120a; fill-opacity: 0.5; stroke: #000000; stroke-linejoin: miter"/>
   </g>
   <g id="patch_53">
    <path d="M 299.65713 65.72 
L 309.600913 65.72 
L 309.600913 64.08144 
L 299.65713 64.08144 
z
" clip-path="url(#p5b761cbe44)" style="fill: #ff120a; fill-opacity: 0.5; stroke: #000000; stroke-linejoin: miter"/>
   </g>
   <g id="patch_54">
    <path d="M 309.600913 65.72 
L 319.544696 65.72 
L 319.544696 64.08144 
L 309.600913 64.08144 
z
" clip-path="url(#p5b761cbe44)" style="fill: #ff120a; fill-opacity: 0.5; stroke: #000000; stroke-linejoin: miter"/>
   </g>
   <g id="patch_55">
    <path d="M 319.544696 65.72 
L 329.488478 65.72 
L 329.488478 62.364853 
L 319.544696 62.364853 
z
" clip-path="url(#p5b761cbe44)" style="fill: #ff120a; fill-opacity: 0.5; stroke: #000000; stroke-linejoin: miter"/>
   </g>
   <g id="patch_56">
    <path d="M 329.488478 65.72 
L 379.207391 65.72 
L 379.207391 65.72 
L 329.488478 65.72 
z
" clip-path="url(#p5b761cbe44)" style="fill: #ff120a; fill-opacity: 0.5; stroke: #000000; stroke-linejoin: miter"/>
   </g>
   <g id="patch_57">
    <path d="M 379.207391 65.72 
L 389.151174 65.72 
L 389.151174 65.72 
L 379.207391 65.72 
z
" clip-path="url(#p5b761cbe44)" style="fill: #ff120a; fill-opacity: 0.5; stroke: #000000; stroke-linejoin: miter"/>
   </g>
   <g id="patch_58">
    <path d="M 389.151174 65.72 
L 399.094957 65.72 
L 399.094957 65.72 
L 389.151174 65.72 
z
" clip-path="url(#p5b761cbe44)" style="fill: #ff120a; fill-opacity: 0.5; stroke: #000000; stroke-linejoin: miter"/>
   </g>
   <g id="patch_59">
    <path d="M 399.094957 65.72 
L 409.038739 65.72 
L 409.038739 65.72 
L 399.094957 65.72 
z
" clip-path="url(#p5b761cbe44)" style="fill: #ff120a; fill-opacity: 0.5; stroke: #000000; stroke-linejoin: miter"/>
   </g>
   <g id="patch_60">
    <path d="M 409.038739 65.72 
L 418.982522 65.72 
L 418.982522 65.72 
L 409.038739 65.72 
z
" clip-path="url(#p5b761cbe44)" style="fill: #ff120a; fill-opacity: 0.5; stroke: #000000; stroke-linejoin: miter"/>
   </g>
   <g id="patch_61">
    <path d="M 418.982522 65.72 
L 428.926304 65.72 
L 428.926304 65.72 
L 418.982522 65.72 
z
" clip-path="url(#p5b761cbe44)" style="fill: #ff120a; fill-opacity: 0.5; stroke: #000000; stroke-linejoin: miter"/>
   </g>
   <g id="patch_62">
    <path d="M 428.926304 65.72 
L 438.870087 65.72 
L 438.870087 65.72 
L 428.926304 65.72 
z
" clip-path="url(#p5b761cbe44)" style="fill: #ff120a; fill-opacity: 0.5; stroke: #000000; stroke-linejoin: miter"/>
   </g>
   <g id="patch_63">
    <path d="M 438.870087 65.72 
L 448.81387 65.72 
L 448.81387 65.72 
L 438.870087 65.72 
z
" clip-path="url(#p5b761cbe44)" style="fill: #ff120a; fill-opacity: 0.5; stroke: #000000; stroke-linejoin: miter"/>
   </g>
   <g id="patch_64">
    <path d="M 448.81387 65.72 
L 458.757652 65.72 
L 458.757652 65.72 
L 448.81387 65.72 
z
" clip-path="url(#p5b761cbe44)" style="fill: #ff120a; fill-opacity: 0.5; stroke: #000000; stroke-linejoin: miter"/>
   </g>
   <g id="patch_65">
    <path d="M 458.757652 65.72 
L 468.701435 65.72 
L 468.701435 65.72 
L 458.757652 65.72 
z
" clip-path="url(#p5b761cbe44)" style="fill: #ff120a; fill-opacity: 0.5; stroke: #000000; stroke-linejoin: miter"/>
   </g>
   <g id="patch_66">
    <path d="M 468.701435 65.72 
L 478.645217 65.72 
L 478.645217 65.72 
L 468.701435 65.72 
z
" clip-path="url(#p5b761cbe44)" style="fill: #ff120a; fill-opacity: 0.5; stroke: #000000; stroke-linejoin: miter"/>
   </g>
   <g id="patch_67">
    <path d="M 80.893913 65.72 
L 90.837696 65.72 
L 90.837696 64.237493 
L 80.893913 64.237493 
z
" clip-path="url(#p5b761cbe44)" style="fill: #ff120a; fill-opacity: 0.5; stroke: #000000; stroke-linejoin: miter"/>
   </g>
   <g id="patch_68">
    <path d="M 90.837696 65.72 
L 100.781478 65.72 
L 100.781478 51.6752 
L 90.837696 51.6752 
z
" clip-path="url(#p5b761cbe44)" style="fill: #ff120a; fill-opacity: 0.5; stroke: #000000; stroke-linejoin: miter"/>
   </g>
   <g id="patch_69">
    <path d="M 100.781478 65.72 
L 110.725261 65.72 
L 110.725261 55.88864 
L 100.781478 55.88864 
z
" clip-path="url(#p5b761cbe44)" style="fill: #ff120a; fill-opacity: 0.5; stroke: #000000; stroke-linejoin: miter"/>
   </g>
   <g id="patch_70">
    <path d="M 110.725261 65.72 
L 120.669043 65.72 
L 120.669043 58.151413 
L 110.725261 58.151413 
z
" clip-path="url(#p5b761cbe44)" style="fill: #ff120a; fill-opacity: 0.5; stroke: #000000; stroke-linejoin: miter"/>
   </g>
   <g id="patch_71">
    <path d="M 120.669043 65.72 
L 130.612826 65.72 
L 130.612826 61.896693 
L 120.669043 61.896693 
z
" clip-path="url(#p5b761cbe44)" style="fill: #ff120a; fill-opacity: 0.5; stroke: #000000; stroke-linejoin: miter"/>
   </g>
   <g id="patch_72">
    <path d="M 130.612826 65.72 
L 140.556609 65.72 
L 140.556609 61.97472 
L 130.612826 61.97472 
z
" clip-path="url(#p5b761cbe44)" style="fill: #ff120a; fill-opacity: 0.5; stroke: #000000; stroke-linejoin: miter"/>
   </g>
   <g id="patch_73">
    <path d="M 140.556609 65.72 
L 150.500391 65.72 
L 150.500391 62.989067 
L 140.556609 62.989067 
z
" clip-path="url(#p5b761cbe44)" style="fill: #ff120a; fill-opacity: 0.5; stroke: #000000; stroke-linejoin: miter"/>
   </g>
   <g id="patch_74">
    <path d="M 150.500391 65.72 
L 160.444174 65.72 
L 160.444174 64.31552 
L 150.500391 64.31552 
z
" clip-path="url(#p5b761cbe44)" style="fill: #ff120a; fill-opacity: 0.5; stroke: #000000; stroke-linejoin: miter"/>
   </g>
   <g id="patch_75">
    <path d="M 160.444174 65.72 
L 170.387957 65.72 
L 170.387957 64.939733 
L 160.444174 64.939733 
z
" clip-path="url(#p5b761cbe44)" style="fill: #ff120a; fill-opacity: 0.5; stroke: #000000; stroke-linejoin: miter"/>
   </g>
   <g id="patch_76">
    <path d="M 170.387957 65.72 
L 180.331739 65.72 
L 180.331739 64.705653 
L 170.387957 64.705653 
z
" clip-path="url(#p5b761cbe44)" style="fill: #ff120a; fill-opacity: 0.5; stroke: #000000; stroke-linejoin: miter"/>
   </g>
   <g id="patch_77">
    <path d="M 180.331739 65.72 
L 230.050652 65.72 
L 230.050652 65.72 
L 180.331739 65.72 
z
" clip-path="url(#p5b761cbe44)" style="fill: #ff120a; fill-opacity: 0.5; stroke: #000000; stroke-linejoin: miter"/>
   </g>
   <g id="patch_78">
    <path d="M 230.050652 65.72 
L 239.994435 65.72 
L 239.994435 65.72 
L 230.050652 65.72 
z
" clip-path="url(#p5b761cbe44)" style="fill: #ff120a; fill-opacity: 0.5; stroke: #000000; stroke-linejoin: miter"/>
   </g>
   <g id="patch_79">
    <path d="M 239.994435 65.72 
L 249.938217 65.72 
L 249.938217 65.72 
L 239.994435 65.72 
z
" clip-path="url(#p5b761cbe44)" style="fill: #ff120a; fill-opacity: 0.5; stroke: #000000; stroke-linejoin: miter"/>
   </g>
   <g id="patch_80">
    <path d="M 249.938217 65.72 
L 259.882 65.72 
L 259.882 65.72 
L 249.938217 65.72 
z
" clip-path="url(#p5b761cbe44)" style="fill: #ff120a; fill-opacity: 0.5; stroke: #000000; stroke-linejoin: miter"/>
   </g>
   <g id="patch_81">
    <path d="M 259.882 65.72 
L 269.825783 65.72 
L 269.825783 65.72 
L 259.882 65.72 
z
" clip-path="url(#p5b761cbe44)" style="fill: #ff120a; fill-opacity: 0.5; stroke: #000000; stroke-linejoin: miter"/>
   </g>
   <g id="patch_82">
    <path d="M 269.825783 65.72 
L 279.769565 65.72 
L 279.769565 65.72 
L 269.825783 65.72 
z
" clip-path="url(#p5b761cbe44)" style="fill: #ff120a; fill-opacity: 0.5; stroke: #000000; stroke-linejoin: miter"/>
   </g>
   <g id="patch_83">
    <path d="M 279.769565 65.72 
L 289.713348 65.72 
L 289.713348 65.72 
L 279.769565 65.72 
z
" clip-path="url(#p5b761cbe44)" style="fill: #ff120a; fill-opacity: 0.5; stroke: #000000; stroke-linejoin: miter"/>
   </g>
   <g id="patch_84">
    <path d="M 289.713348 65.72 
L 299.65713 65.72 
L 299.65713 65.72 
L 289.713348 65.72 
z
" clip-path="url(#p5b761cbe44)" style="fill: #ff120a; fill-opacity: 0.5; stroke: #000000; stroke-linejoin: miter"/>
   </g>
   <g id="patch_85">
    <path d="M 299.65713 65.72 
L 309.600913 65.72 
L 309.600913 65.72 
L 299.65713 65.72 
z
" clip-path="url(#p5b761cbe44)" style="fill: #ff120a; fill-opacity: 0.5; stroke: #000000; stroke-linejoin: miter"/>
   </g>
   <g id="patch_86">
    <path d="M 309.600913 65.72 
L 319.544696 65.72 
L 319.544696 65.72 
L 309.600913 65.72 
z
" clip-path="url(#p5b761cbe44)" style="fill: #ff120a; fill-opacity: 0.5; stroke: #000000; stroke-linejoin: miter"/>
   </g>
   <g id="patch_87">
    <path d="M 319.544696 65.72 
L 329.488478 65.72 
L 329.488478 65.72 
L 319.544696 65.72 
z
" clip-path="url(#p5b761cbe44)" style="fill: #ff120a; fill-opacity: 0.5; stroke: #000000; stroke-linejoin: miter"/>
   </g>
   <g id="patch_88">
    <path d="M 329.488478 65.72 
L 379.207391 65.72 
L 379.207391 65.72 
L 329.488478 65.72 
z
" clip-path="url(#p5b761cbe44)" style="fill: #ff120a; fill-opacity: 0.5; stroke: #000000; stroke-linejoin: miter"/>
   </g>
   <g id="patch_89">
    <path d="M 379.207391 65.72 
L 389.151174 65.72 
L 389.151174 65.72 
L 379.207391 65.72 
z
" clip-path="url(#p5b761cbe44)" style="fill: #ff120a; fill-opacity: 0.5; stroke: #000000; stroke-linejoin: miter"/>
   </g>
   <g id="patch_90">
    <path d="M 389.151174 65.72 
L 399.094957 65.72 
L 399.094957 65.72 
L 389.151174 65.72 
z
" clip-path="url(#p5b761cbe44)" style="fill: #ff120a; fill-opacity: 0.5; stroke: #000000; stroke-linejoin: miter"/>
   </g>
   <g id="patch_91">
    <path d="M 399.094957 65.72 
L 409.038739 65.72 
L 409.038739 65.72 
L 399.094957 65.72 
z
" clip-path="url(#p5b761cbe44)" style="fill: #ff120a; fill-opacity: 0.5; stroke: #000000; stroke-linejoin: miter"/>
   </g>
   <g id="patch_92">
    <path d="M 409.038739 65.72 
L 418.982522 65.72 
L 418.982522 65.72 
L 409.038739 65.72 
z
" clip-path="url(#p5b761cbe44)" style="fill: #ff120a; fill-opacity: 0.5; stroke: #000000; stroke-linejoin: miter"/>
   </g>
   <g id="patch_93">
    <path d="M 418.982522 65.72 
L 428.926304 65.72 
L 428.926304 65.72 
L 418.982522 65.72 
z
" clip-path="url(#p5b761cbe44)" style="fill: #ff120a; fill-opacity: 0.5; stroke: #000000; stroke-linejoin: miter"/>
   </g>
   <g id="patch_94">
    <path d="M 428.926304 65.72 
L 438.870087 65.72 
L 438.870087 65.72 
L 428.926304 65.72 
z
" clip-path="url(#p5b761cbe44)" style="fill: #ff120a; fill-opacity: 0.5; stroke: #000000; stroke-linejoin: miter"/>
   </g>
   <g id="patch_95">
    <path d="M 438.870087 65.72 
L 448.81387 65.72 
L 448.81387 65.72 
L 438.870087 65.72 
z
" clip-path="url(#p5b761cbe44)" style="fill: #ff120a; fill-opacity: 0.5; stroke: #000000; stroke-linejoin: miter"/>
   </g>
   <g id="patch_96">
    <path d="M 448.81387 65.72 
L 458.757652 65.72 
L 458.757652 65.72 
L 448.81387 65.72 
z
" clip-path="url(#p5b761cbe44)" style="fill: #ff120a; fill-opacity: 0.5; stroke: #000000; stroke-linejoin: miter"/>
   </g>
   <g id="patch_97">
    <path d="M 458.757652 65.72 
L 468.701435 65.72 
L 468.701435 65.72 
L 458.757652 65.72 
z
" clip-path="url(#p5b761cbe44)" style="fill: #ff120a; fill-opacity: 0.5; stroke: #000000; stroke-linejoin: miter"/>
   </g>
   <g id="patch_98">
    <path d="M 468.701435 65.72 
L 478.645217 65.72 
L 478.645217 65.72 
L 468.701435 65.72 
z
" clip-path="url(#p5b761cbe44)" style="fill: #ff120a; fill-opacity: 0.5; stroke: #000000; stroke-linejoin: miter"/>
   </g>
   <g id="PathCollection_1">
    <defs>
     <path id="mdb9051fdf9" d="M 0 0.707107 
C 0.187527 0.707107 0.367398 0.632602 0.5 0.5 
C 0.632602 0.367398 0.707107 0.187527 0.707107 0 
C 0.707107 -0.187527 0.632602 -0.367398 0.5 -0.5 
C 0.367398 -0.632602 0.187527 -0.707107 0 -0.707107 
C -0.187527 -0.707107 -0.367398 -0.632602 -0.5 -0.5 
C -0.632602 -0.367398 -0.707107 -0.187527 -0.707107 0 
C -0.707107 0.187527 -0.632602 0.367398 -0.5 0.5 
C -0.367398 0.632602 -0.187527 0.707107 0 0.707107 
z
" style="stroke: #ff120a"/>
    </defs>
    <g clip-path="url(#p5b761cbe44)">
     <use xlink:href="#mdb9051fdf9" x="85.865804" y="64.237493" style="fill: #ff120a; stroke: #ff120a"/>
     <use xlink:href="#mdb9051fdf9" x="95.809587" y="51.6752" style="fill: #ff120a; stroke: #ff120a"/>
     <use xlink:href="#mdb9051fdf9" x="105.75337" y="55.88864" style="fill: #ff120a; stroke: #ff120a"/>
     <use xlink:href="#mdb9051fdf9" x="115.697152" y="58.151413" style="fill: #ff120a; stroke: #ff120a"/>
     <use xlink:href="#mdb9051fdf9" x="125.640935" y="61.896693" style="fill: #ff120a; stroke: #ff120a"/>
     <use xlink:href="#mdb9051fdf9" x="135.584717" y="61.97472" style="fill: #ff120a; stroke: #ff120a"/>
     <use xlink:href="#mdb9051fdf9" x="145.5285" y="62.989067" style="fill: #ff120a; stroke: #ff120a"/>
     <use xlink:href="#mdb9051fdf9" x="155.472283" y="64.31552" style="fill: #ff120a; stroke: #ff120a"/>
     <use xlink:href="#mdb9051fdf9" x="165.416065" y="64.939733" style="fill: #ff120a; stroke: #ff120a"/>
     <use xlink:href="#mdb9051fdf9" x="175.359848" y="64.705653" style="fill: #ff120a; stroke: #ff120a"/>
    </g>
   </g>
   <g id="PathCollection_2">
    <g clip-path="url(#p5b761cbe44)">
     <use xlink:href="#mdb9051fdf9" x="235.022543" y="46.05728" style="fill: #ff120a; stroke: #ff120a"/>
     <use xlink:href="#mdb9051fdf9" x="244.966326" y="58.853653" style="fill: #ff120a; stroke: #ff120a"/>
     <use xlink:href="#mdb9051fdf9" x="254.910109" y="61.0384" style="fill: #ff120a; stroke: #ff120a"/>
     <use xlink:href="#mdb9051fdf9" x="264.853891" y="62.833013" style="fill: #ff120a; stroke: #ff120a"/>
     <use xlink:href="#mdb9051fdf9" x="274.797674" y="63.067093" style="fill: #ff120a; stroke: #ff120a"/>
     <use xlink:href="#mdb9051fdf9" x="284.741457" y="64.237493" style="fill: #ff120a; stroke: #ff120a"/>
     <use xlink:href="#mdb9051fdf9" x="294.685239" y="64.159467" style="fill: #ff120a; stroke: #ff120a"/>
     <use xlink:href="#mdb9051fdf9" x="304.629022" y="64.08144" style="fill: #ff120a; stroke: #ff120a"/>
     <use xlink:href="#mdb9051fdf9" x="314.572804" y="64.08144" style="fill: #ff120a; stroke: #ff120a"/>
     <use xlink:href="#mdb9051fdf9" x="324.516587" y="62.364853" style="fill: #ff120a; stroke: #ff120a"/>
    </g>
   </g>
   <g id="PathCollection_3">
    <g clip-path="url(#p5b761cbe44)">
     <use xlink:href="#mdb9051fdf9" x="384.179283" y="45.511093" style="fill: #ff120a; stroke: #ff120a"/>
     <use xlink:href="#mdb9051fdf9" x="394.123065" y="57.29312" style="fill: #ff120a; stroke: #ff120a"/>
     <use xlink:href="#mdb9051fdf9" x="404.066848" y="62.286827" style="fill: #ff120a; stroke: #ff120a"/>
     <use xlink:href="#mdb9051fdf9" x="414.01063" y="63.457227" style="fill: #ff120a; stroke: #ff120a"/>
     <use xlink:href="#mdb9051fdf9" x="423.954413" y="63.84736" style="fill: #ff120a; stroke: #ff120a"/>
     <use xlink:href="#mdb9051fdf9" x="433.898196" y="64.393547" style="fill: #ff120a; stroke: #ff120a"/>
     <use xlink:href="#mdb9051fdf9" x="443.841978" y="64.237493" style="fill: #ff120a; stroke: #ff120a"/>
     <use xlink:href="#mdb9051fdf9" x="453.785761" y="63.61328" style="fill: #ff120a; stroke: #ff120a"/>
     <use xlink:href="#mdb9051fdf9" x="463.729543" y="64.003413" style="fill: #ff120a; stroke: #ff120a"/>
     <use xlink:href="#mdb9051fdf9" x="473.673326" y="62.130773" style="fill: #ff120a; stroke: #ff120a"/>
    </g>
   </g>
   <g id="matplotlib.axis_1">
    <g id="xtick_1">
     <g id="line2d_1">
      <defs>
       <path id="me6b8841a3d" d="M 0 0 
L 0 3.5 
" style="stroke: #000000; stroke-width: 0.8"/>
      </defs>
      <g>
       <use xlink:href="#me6b8841a3d" x="80.893913" y="65.72" style="stroke: #000000; stroke-width: 0.8"/>
      </g>
     </g>
     <g id="text_1">
      <text style="font: 5px 'Arial'; text-anchor: middle" x="80.893913" y="76.298906" transform="rotate(-0 80.893913 76.298906)">0.0</text>
     </g>
    </g>
    <g id="xtick_2">
     <g id="line2d_2">
      <g>
       <use xlink:href="#me6b8841a3d" x="130.612826" y="65.72" style="stroke: #000000; stroke-width: 0.8"/>
      </g>
     </g>
     <g id="text_2">
      <text style="font: 5px 'Arial'; text-anchor: middle" x="130.612826" y="76.298906" transform="rotate(-0 130.612826 76.298906)">0.5</text>
     </g>
    </g>
    <g id="xtick_3">
     <g id="line2d_3">
      <g>
       <use xlink:href="#me6b8841a3d" x="180.331739" y="65.72" style="stroke: #000000; stroke-width: 0.8"/>
      </g>
     </g>
     <g id="text_3">
      <text style="font: 5px 'Arial'; text-anchor: middle" x="180.331739" y="76.298906" transform="rotate(-0 180.331739 76.298906)">1.0</text>
     </g>
    </g>
    <g id="xtick_4">
     <g id="line2d_4">
      <g>
       <use xlink:href="#me6b8841a3d" x="230.050652" y="65.72" style="stroke: #000000; stroke-width: 0.8"/>
      </g>
     </g>
     <g id="text_4">
      <text style="font: 5px 'Arial'; text-anchor: middle" x="230.050652" y="76.298906" transform="rotate(-0 230.050652 76.298906)">0.0</text>
     </g>
    </g>
    <g id="xtick_5">
     <g id="line2d_5">
      <g>
       <use xlink:href="#me6b8841a3d" x="279.769565" y="65.72" style="stroke: #000000; stroke-width: 0.8"/>
      </g>
     </g>
     <g id="text_5">
      <text style="font: 5px 'Arial'; text-anchor: middle" x="279.769565" y="76.298906" transform="rotate(-0 279.769565 76.298906)">0.5</text>
     </g>
    </g>
    <g id="xtick_6">
     <g id="line2d_6">
      <g>
       <use xlink:href="#me6b8841a3d" x="329.488478" y="65.72" style="stroke: #000000; stroke-width: 0.8"/>
      </g>
     </g>
     <g id="text_6">
      <text style="font: 5px 'Arial'; text-anchor: middle" x="329.488478" y="76.298906" transform="rotate(-0 329.488478 76.298906)">1.0</text>
     </g>
    </g>
    <g id="xtick_7">
     <g id="line2d_7">
      <g>
       <use xlink:href="#me6b8841a3d" x="379.207391" y="65.72" style="stroke: #000000; stroke-width: 0.8"/>
      </g>
     </g>
     <g id="text_7">
      <text style="font: 5px 'Arial'; text-anchor: middle" x="379.207391" y="76.298906" transform="rotate(-0 379.207391 76.298906)">0.0</text>
     </g>
    </g>
    <g id="xtick_8">
     <g id="line2d_8">
      <g>
       <use xlink:href="#me6b8841a3d" x="428.926304" y="65.72" style="stroke: #000000; stroke-width: 0.8"/>
      </g>
     </g>
     <g id="text_8">
      <text style="font: 5px 'Arial'; text-anchor: middle" x="428.926304" y="76.298906" transform="rotate(-0 428.926304 76.298906)">0.5</text>
     </g>
    </g>
    <g id="xtick_9">
     <g id="line2d_9">
      <g>
       <use xlink:href="#me6b8841a3d" x="478.645217" y="65.72" style="stroke: #000000; stroke-width: 0.8"/>
      </g>
     </g>
     <g id="text_9">
      <text style="font: 5px 'Arial'; text-anchor: middle" x="478.645217" y="76.298906" transform="rotate(-0 478.645217 76.298906)">1.0</text>
     </g>
    </g>
    <g id="text_10">
     <text style="font: 5px 'Arial'; text-anchor: middle" x="259.882" y="84.9325" transform="rotate(-0 259.882 84.9325)">Predicted self assembly probability</text>
    </g>
   </g>
   <g id="matplotlib.axis_2">
    <g id="ytick_1">
     <g id="line2d_10">
      <defs>
       <path id="m2ad1dbefbd" d="M 0 0 
L -3.5 0 
" style="stroke: #000000; stroke-width: 0.8"/>
      </defs>
      <g>
       <use xlink:href="#m2ad1dbefbd" x="31.175" y="65.72" style="stroke: #000000; stroke-width: 0.8"/>
      </g>
     </g>
     <g id="text_11">
      <text style="font: 5px 'Arial'; text-anchor: end" x="24.175" y="67.509453" transform="rotate(-0 24.175 67.509453)">0</text>
     </g>
    </g>
    <g id="ytick_2">
     <g id="line2d_11">
      <g>
       <use xlink:href="#m2ad1dbefbd" x="31.175" y="50.114667" style="stroke: #000000; stroke-width: 0.8"/>
      </g>
     </g>
     <g id="text_12">
      <text style="font: 5px 'Arial'; text-anchor: end" x="24.175" y="51.90412" transform="rotate(-0 24.175 51.90412)">200</text>
     </g>
    </g>
    <g id="ytick_3">
     <g id="line2d_12">
      <g>
       <use xlink:href="#m2ad1dbefbd" x="31.175" y="34.509333" style="stroke: #000000; stroke-width: 0.8"/>
      </g>
     </g>
     <g id="text_13">
      <text style="font: 5px 'Arial'; text-anchor: end" x="24.175" y="36.298786" transform="rotate(-0 24.175 36.298786)">400</text>
     </g>
    </g>
    <g id="ytick_4">
     <g id="line2d_13">
      <g>
       <use xlink:href="#m2ad1dbefbd" x="31.175" y="18.904" style="stroke: #000000; stroke-width: 0.8"/>
      </g>
     </g>
     <g id="text_14">
      <text style="font: 5px 'Arial'; text-anchor: end" x="24.175" y="20.693453" transform="rotate(-0 24.175 20.693453)">600</text>
     </g>
    </g>
    <g id="text_15">
     <text style="font: 5px 'Arial'; text-anchor: middle" x="10.839844" y="36.46" transform="rotate(-90 10.839844 36.46)">Number of peptides</text>
    </g>
   </g>
   <g id="line2d_14">
    <path d="M 87.704425 65.72 
L 356.811093 65.658252 
L 360.739657 65.484455 
L 362.70394 65.293816 
L 364.668222 64.986926 
L 366.632504 64.520848 
L 368.596786 63.853843 
L 370.561069 62.955787 
L 372.525351 61.82074 
L 374.489633 60.478403 
L 380.38248 56.101772 
L 382.346762 54.954254 
L 384.311044 54.168123 
L 386.275327 53.812454 
L 388.239609 53.899029 
L 390.203891 54.383494 
L 392.168173 55.178487 
L 396.096738 57.258911 
L 400.025302 59.341388 
L 401.989585 60.228019 
L 403.953867 60.981199 
L 405.918149 61.602891 
L 409.846714 62.511122 
L 413.775278 63.099066 
L 419.668125 63.636251 
L 425.560972 63.926529 
L 433.418101 64.082266 
L 445.203794 64.062537 
L 458.95377 63.741722 
L 468.775181 63.498684 
L 472.703746 63.57764 
L 476.63231 63.869467 
L 478.596592 64.087605 
L 478.596592 64.087605 
" clip-path="url(#p5b761cbe44)" style="fill: none; stroke: #ff120a; stroke-width: 1.5; stroke-linecap: square"/>
   </g>
   <g id="line2d_15">
    <path d="M 87.704425 65.72 
L 207.525642 65.658723 
L 211.454207 65.483174 
L 213.418489 65.28983 
L 215.382771 64.978475 
L 217.347053 64.506475 
L 219.311336 63.833755 
L 221.275618 62.933892 
L 223.2399 61.806958 
L 227.168465 59.063482 
L 229.132747 57.64153 
L 231.097029 56.359358 
L 233.061311 55.346706 
L 235.025594 54.702211 
L 236.989876 54.473529 
L 238.954158 54.649563 
L 240.91844 55.166762 
L 242.882723 55.926779 
L 250.739852 59.413938 
L 254.668416 60.664357 
L 258.596981 61.536674 
L 262.525545 62.156242 
L 268.418392 62.801981 
L 278.239803 63.549807 
L 286.096932 64.014732 
L 291.989779 64.167055 
L 301.81119 64.113771 
L 315.561166 63.867538 
L 323.418295 63.732302 
L 327.346859 63.890132 
L 331.275424 64.254434 
L 341.096835 65.332727 
L 346.989682 65.624041 
L 354.846811 65.712861 
L 413.775278 65.72 
L 478.596592 65.72 
L 478.596592 65.72 
" clip-path="url(#p5b761cbe44)" style="fill: none; stroke: #ff120a; stroke-width: 1.5; stroke-linecap: square"/>
   </g>
   <g id="line2d_16">
    <path d="M 87.704425 60.908306 
L 91.63299 57.228389 
L 93.597272 55.589158 
L 95.561554 54.376965 
L 97.525836 53.710665 
L 99.490119 53.585642 
L 101.454401 53.887147 
L 105.382965 55.080131 
L 113.240094 57.584218 
L 121.097223 60.680168 
L 123.061506 61.12601 
L 125.025788 61.36839 
L 134.847199 62.005912 
L 142.704328 62.843253 
L 150.561457 63.678465 
L 156.454304 64.280367 
L 162.347151 64.694409 
L 168.239997 64.909235 
L 178.061409 65.126687 
L 191.811384 65.681586 
L 205.56136 65.719984 
L 478.596592 65.72 
L 478.596592 65.72 
" clip-path="url(#p5b761cbe44)" style="fill: none; stroke: #ff120a; stroke-width: 1.5; stroke-linecap: square"/>
   </g>
   <g id="line2d_17">
    <path d="M 85.865804 64.237493 
L 95.809587 51.6752 
L 105.75337 55.88864 
L 115.697152 58.151413 
L 125.640935 61.896693 
L 135.584717 61.97472 
L 145.5285 62.989067 
L 155.472283 64.31552 
L 165.416065 64.939733 
L 175.359848 64.705653 
" clip-path="url(#p5b761cbe44)" style="fill: none; stroke: #ff120a; stroke-linecap: square"/>
   </g>
   <g id="line2d_18">
    <path d="M 235.022543 46.05728 
L 244.966326 58.853653 
L 254.910109 61.0384 
L 264.853891 62.833013 
L 274.797674 63.067093 
L 284.741457 64.237493 
L 294.685239 64.159467 
L 304.629022 64.08144 
L 314.572804 64.08144 
L 324.516587 62.364853 
" clip-path="url(#p5b761cbe44)" style="fill: none; stroke: #ff120a; stroke-linecap: square"/>
   </g>
   <g id="line2d_19">
    <path d="M 384.179283 45.511093 
L 394.123065 57.29312 
L 404.066848 62.286827 
L 414.01063 63.457227 
L 423.954413 63.84736 
L 433.898196 64.393547 
L 443.841978 64.237493 
L 453.785761 63.61328 
L 463.729543 64.003413 
L 473.673326 62.130773 
" clip-path="url(#p5b761cbe44)" style="fill: none; stroke: #ff120a; stroke-linecap: square"/>
   </g>
   <g id="patch_99">
    <path d="M 31.175 65.72 
L 31.175 7.2 
" style="fill: none; stroke: #000000; stroke-width: 0.8; stroke-linejoin: miter; stroke-linecap: square"/>
   </g>
   <g id="patch_100">
    <path d="M 31.175 65.72 
L 488.589 65.72 
" style="fill: none; stroke: #000000; stroke-width: 0.8; stroke-linejoin: miter; stroke-linecap: square"/>
   </g>
  </g>
 </g>
 <defs>
  <clipPath id="p5b761cbe44">
   <rect x="31.175" y="7.2" width="457.414" height="58.52"/>
  </clipPath>
 </defs>
</svg>
