<?xml version="1.0" encoding="utf-8" standalone="no"?>
<!DOCTYPE svg PUBLIC "-//W3C//DTD SVG 1.1//EN"
  "http://www.w3.org/Graphics/SVG/1.1/DTD/svg11.dtd">
<svg xmlns:xlink="http://www.w3.org/1999/xlink" width="495.789pt" height="93.184844pt" viewBox="0 0 495.789 93.184844" xmlns="http://www.w3.org/2000/svg" version="1.1">
 <metadata>
  <rdf:RDF xmlns:dc="http://purl.org/dc/elements/1.1/" xmlns:cc="http://creativecommons.org/ns#" xmlns:rdf="http://www.w3.org/1999/02/22-rdf-syntax-ns#">
   <cc:Work>
    <dc:type rdf:resource="http://purl.org/dc/dcmitype/StillImage"/>
    <dc:date>2024-09-25T14:37:35.788560</dc:date>
    <dc:format>image/svg+xml</dc:format>
    <dc:creator>
     <cc:Agent>
      <dc:title>Matplotlib v3.7.0, https://matplotlib.org/</dc:title>
     </cc:Agent>
    </dc:creator>
   </cc:Work>
  </rdf:RDF>
 </metadata>
 <defs>
  <style type="text/css">*{stroke-linejoin: round; stroke-linecap: butt}</style>
 </defs>
 <g id="figure_1">
  <g id="patch_1">
   <path d="M 0 93.184844 
L 495.789 93.184844 
L 495.789 0 
L 0 0 
z
" style="fill: #ffffff"/>
  </g>
  <g id="axes_1">
   <g id="patch_2">
    <path d="M 31.175 65.72 
L 488.589 65.72 
L 488.589 7.2 
L 31.175 7.2 
z
" style="fill: #ffffff"/>
   </g>
   <g id="patch_3">
    <path d="M 80.893913 65.72 
L 90.837696 65.72 
L 90.837696 65.72 
L 80.893913 65.72 
z
" clip-path="url(#p2cb81dfb33)" style="fill: #2e85ff; fill-opacity: 0.5; stroke: #000000; stroke-linejoin: miter"/>
   </g>
   <g id="patch_4">
    <path d="M 90.837696 65.72 
L 100.781478 65.72 
L 100.781478 65.72 
L 90.837696 65.72 
z
" clip-path="url(#p2cb81dfb33)" style="fill: #2e85ff; fill-opacity: 0.5; stroke: #000000; stroke-linejoin: miter"/>
   </g>
   <g id="patch_5">
    <path d="M 100.781478 65.72 
L 110.725261 65.72 
L 110.725261 65.72 
L 100.781478 65.72 
z
" clip-path="url(#p2cb81dfb33)" style="fill: #2e85ff; fill-opacity: 0.5; stroke: #000000; stroke-linejoin: miter"/>
   </g>
   <g id="patch_6">
    <path d="M 110.725261 65.72 
L 120.669043 65.72 
L 120.669043 65.72 
L 110.725261 65.72 
z
" clip-path="url(#p2cb81dfb33)" style="fill: #2e85ff; fill-opacity: 0.5; stroke: #000000; stroke-linejoin: miter"/>
   </g>
   <g id="patch_7">
    <path d="M 120.669043 65.72 
L 130.612826 65.72 
L 130.612826 65.72 
L 120.669043 65.72 
z
" clip-path="url(#p2cb81dfb33)" style="fill: #2e85ff; fill-opacity: 0.5; stroke: #000000; stroke-linejoin: miter"/>
   </g>
   <g id="patch_8">
    <path d="M 130.612826 65.72 
L 140.556609 65.72 
L 140.556609 65.72 
L 130.612826 65.72 
z
" clip-path="url(#p2cb81dfb33)" style="fill: #2e85ff; fill-opacity: 0.5; stroke: #000000; stroke-linejoin: miter"/>
   </g>
   <g id="patch_9">
    <path d="M 140.556609 65.72 
L 150.500391 65.72 
L 150.500391 65.72 
L 140.556609 65.72 
z
" clip-path="url(#p2cb81dfb33)" style="fill: #2e85ff; fill-opacity: 0.5; stroke: #000000; stroke-linejoin: miter"/>
   </g>
   <g id="patch_10">
    <path d="M 150.500391 65.72 
L 160.444174 65.72 
L 160.444174 65.72 
L 150.500391 65.72 
z
" clip-path="url(#p2cb81dfb33)" style="fill: #2e85ff; fill-opacity: 0.5; stroke: #000000; stroke-linejoin: miter"/>
   </g>
   <g id="patch_11">
    <path d="M 160.444174 65.72 
L 170.387957 65.72 
L 170.387957 65.72 
L 160.444174 65.72 
z
" clip-path="url(#p2cb81dfb33)" style="fill: #2e85ff; fill-opacity: 0.5; stroke: #000000; stroke-linejoin: miter"/>
   </g>
   <g id="patch_12">
    <path d="M 170.387957 65.72 
L 180.331739 65.72 
L 180.331739 65.72 
L 170.387957 65.72 
z
" clip-path="url(#p2cb81dfb33)" style="fill: #2e85ff; fill-opacity: 0.5; stroke: #000000; stroke-linejoin: miter"/>
   </g>
   <g id="patch_13">
    <path d="M 180.331739 65.72 
L 230.050652 65.72 
L 230.050652 65.72 
L 180.331739 65.72 
z
" clip-path="url(#p2cb81dfb33)" style="fill: #2e85ff; fill-opacity: 0.5; stroke: #000000; stroke-linejoin: miter"/>
   </g>
   <g id="patch_14">
    <path d="M 230.050652 65.72 
L 239.994435 65.72 
L 239.994435 65.72 
L 230.050652 65.72 
z
" clip-path="url(#p2cb81dfb33)" style="fill: #2e85ff; fill-opacity: 0.5; stroke: #000000; stroke-linejoin: miter"/>
   </g>
   <g id="patch_15">
    <path d="M 239.994435 65.72 
L 249.938217 65.72 
L 249.938217 65.72 
L 239.994435 65.72 
z
" clip-path="url(#p2cb81dfb33)" style="fill: #2e85ff; fill-opacity: 0.5; stroke: #000000; stroke-linejoin: miter"/>
   </g>
   <g id="patch_16">
    <path d="M 249.938217 65.72 
L 259.882 65.72 
L 259.882 65.72 
L 249.938217 65.72 
z
" clip-path="url(#p2cb81dfb33)" style="fill: #2e85ff; fill-opacity: 0.5; stroke: #000000; stroke-linejoin: miter"/>
   </g>
   <g id="patch_17">
    <path d="M 259.882 65.72 
L 269.825783 65.72 
L 269.825783 65.72 
L 259.882 65.72 
z
" clip-path="url(#p2cb81dfb33)" style="fill: #2e85ff; fill-opacity: 0.5; stroke: #000000; stroke-linejoin: miter"/>
   </g>
   <g id="patch_18">
    <path d="M 269.825783 65.72 
L 279.769565 65.72 
L 279.769565 65.72 
L 269.825783 65.72 
z
" clip-path="url(#p2cb81dfb33)" style="fill: #2e85ff; fill-opacity: 0.5; stroke: #000000; stroke-linejoin: miter"/>
   </g>
   <g id="patch_19">
    <path d="M 279.769565 65.72 
L 289.713348 65.72 
L 289.713348 65.72 
L 279.769565 65.72 
z
" clip-path="url(#p2cb81dfb33)" style="fill: #2e85ff; fill-opacity: 0.5; stroke: #000000; stroke-linejoin: miter"/>
   </g>
   <g id="patch_20">
    <path d="M 289.713348 65.72 
L 299.65713 65.72 
L 299.65713 65.72 
L 289.713348 65.72 
z
" clip-path="url(#p2cb81dfb33)" style="fill: #2e85ff; fill-opacity: 0.5; stroke: #000000; stroke-linejoin: miter"/>
   </g>
   <g id="patch_21">
    <path d="M 299.65713 65.72 
L 309.600913 65.72 
L 309.600913 65.72 
L 299.65713 65.72 
z
" clip-path="url(#p2cb81dfb33)" style="fill: #2e85ff; fill-opacity: 0.5; stroke: #000000; stroke-linejoin: miter"/>
   </g>
   <g id="patch_22">
    <path d="M 309.600913 65.72 
L 319.544696 65.72 
L 319.544696 65.72 
L 309.600913 65.72 
z
" clip-path="url(#p2cb81dfb33)" style="fill: #2e85ff; fill-opacity: 0.5; stroke: #000000; stroke-linejoin: miter"/>
   </g>
   <g id="patch_23">
    <path d="M 319.544696 65.72 
L 329.488478 65.72 
L 329.488478 65.72 
L 319.544696 65.72 
z
" clip-path="url(#p2cb81dfb33)" style="fill: #2e85ff; fill-opacity: 0.5; stroke: #000000; stroke-linejoin: miter"/>
   </g>
   <g id="patch_24">
    <path d="M 329.488478 65.72 
L 379.207391 65.72 
L 379.207391 65.72 
L 329.488478 65.72 
z
" clip-path="url(#p2cb81dfb33)" style="fill: #2e85ff; fill-opacity: 0.5; stroke: #000000; stroke-linejoin: miter"/>
   </g>
   <g id="patch_25">
    <path d="M 379.207391 65.72 
L 389.151174 65.72 
L 389.151174 59.63392 
L 379.207391 59.63392 
z
" clip-path="url(#p2cb81dfb33)" style="fill: #2e85ff; fill-opacity: 0.5; stroke: #000000; stroke-linejoin: miter"/>
   </g>
   <g id="patch_26">
    <path d="M 389.151174 65.72 
L 399.094957 65.72 
L 399.094957 61.97472 
L 389.151174 61.97472 
z
" clip-path="url(#p2cb81dfb33)" style="fill: #2e85ff; fill-opacity: 0.5; stroke: #000000; stroke-linejoin: miter"/>
   </g>
   <g id="patch_27">
    <path d="M 399.094957 65.72 
L 409.038739 65.72 
L 409.038739 63.301173 
L 399.094957 63.301173 
z
" clip-path="url(#p2cb81dfb33)" style="fill: #2e85ff; fill-opacity: 0.5; stroke: #000000; stroke-linejoin: miter"/>
   </g>
   <g id="patch_28">
    <path d="M 409.038739 65.72 
L 418.982522 65.72 
L 418.982522 63.925387 
L 409.038739 63.925387 
z
" clip-path="url(#p2cb81dfb33)" style="fill: #2e85ff; fill-opacity: 0.5; stroke: #000000; stroke-linejoin: miter"/>
   </g>
   <g id="patch_29">
    <path d="M 418.982522 65.72 
L 428.926304 65.72 
L 428.926304 62.520907 
L 418.982522 62.520907 
z
" clip-path="url(#p2cb81dfb33)" style="fill: #2e85ff; fill-opacity: 0.5; stroke: #000000; stroke-linejoin: miter"/>
   </g>
   <g id="patch_30">
    <path d="M 428.926304 65.72 
L 438.870087 65.72 
L 438.870087 61.428533 
L 428.926304 61.428533 
z
" clip-path="url(#p2cb81dfb33)" style="fill: #2e85ff; fill-opacity: 0.5; stroke: #000000; stroke-linejoin: miter"/>
   </g>
   <g id="patch_31">
    <path d="M 438.870087 65.72 
L 448.81387 65.72 
L 448.81387 61.97472 
L 438.870087 61.97472 
z
" clip-path="url(#p2cb81dfb33)" style="fill: #2e85ff; fill-opacity: 0.5; stroke: #000000; stroke-linejoin: miter"/>
   </g>
   <g id="patch_32">
    <path d="M 448.81387 65.72 
L 458.757652 65.72 
L 458.757652 58.6976 
L 448.81387 58.6976 
z
" clip-path="url(#p2cb81dfb33)" style="fill: #2e85ff; fill-opacity: 0.5; stroke: #000000; stroke-linejoin: miter"/>
   </g>
   <g id="patch_33">
    <path d="M 458.757652 65.72 
L 468.701435 65.72 
L 468.701435 54.094027 
L 458.757652 54.094027 
z
" clip-path="url(#p2cb81dfb33)" style="fill: #2e85ff; fill-opacity: 0.5; stroke: #000000; stroke-linejoin: miter"/>
   </g>
   <g id="patch_34">
    <path d="M 468.701435 65.72 
L 478.645217 65.72 
L 478.645217 12.505813 
L 468.701435 12.505813 
z
" clip-path="url(#p2cb81dfb33)" style="fill: #2e85ff; fill-opacity: 0.5; stroke: #000000; stroke-linejoin: miter"/>
   </g>
   <g id="patch_35">
    <path d="M 80.893913 65.72 
L 90.837696 65.72 
L 90.837696 65.72 
L 80.893913 65.72 
z
" clip-path="url(#p2cb81dfb33)" style="fill: #2e85ff; fill-opacity: 0.5; stroke: #000000; stroke-linejoin: miter"/>
   </g>
   <g id="patch_36">
    <path d="M 90.837696 65.72 
L 100.781478 65.72 
L 100.781478 65.72 
L 90.837696 65.72 
z
" clip-path="url(#p2cb81dfb33)" style="fill: #2e85ff; fill-opacity: 0.5; stroke: #000000; stroke-linejoin: miter"/>
   </g>
   <g id="patch_37">
    <path d="M 100.781478 65.72 
L 110.725261 65.72 
L 110.725261 65.72 
L 100.781478 65.72 
z
" clip-path="url(#p2cb81dfb33)" style="fill: #2e85ff; fill-opacity: 0.5; stroke: #000000; stroke-linejoin: miter"/>
   </g>
   <g id="patch_38">
    <path d="M 110.725261 65.72 
L 120.669043 65.72 
L 120.669043 65.72 
L 110.725261 65.72 
z
" clip-path="url(#p2cb81dfb33)" style="fill: #2e85ff; fill-opacity: 0.5; stroke: #000000; stroke-linejoin: miter"/>
   </g>
   <g id="patch_39">
    <path d="M 120.669043 65.72 
L 130.612826 65.72 
L 130.612826 65.72 
L 120.669043 65.72 
z
" clip-path="url(#p2cb81dfb33)" style="fill: #2e85ff; fill-opacity: 0.5; stroke: #000000; stroke-linejoin: miter"/>
   </g>
   <g id="patch_40">
    <path d="M 130.612826 65.72 
L 140.556609 65.72 
L 140.556609 65.72 
L 130.612826 65.72 
z
" clip-path="url(#p2cb81dfb33)" style="fill: #2e85ff; fill-opacity: 0.5; stroke: #000000; stroke-linejoin: miter"/>
   </g>
   <g id="patch_41">
    <path d="M 140.556609 65.72 
L 150.500391 65.72 
L 150.500391 65.72 
L 140.556609 65.72 
z
" clip-path="url(#p2cb81dfb33)" style="fill: #2e85ff; fill-opacity: 0.5; stroke: #000000; stroke-linejoin: miter"/>
   </g>
   <g id="patch_42">
    <path d="M 150.500391 65.72 
L 160.444174 65.72 
L 160.444174 65.72 
L 150.500391 65.72 
z
" clip-path="url(#p2cb81dfb33)" style="fill: #2e85ff; fill-opacity: 0.5; stroke: #000000; stroke-linejoin: miter"/>
   </g>
   <g id="patch_43">
    <path d="M 160.444174 65.72 
L 170.387957 65.72 
L 170.387957 65.72 
L 160.444174 65.72 
z
" clip-path="url(#p2cb81dfb33)" style="fill: #2e85ff; fill-opacity: 0.5; stroke: #000000; stroke-linejoin: miter"/>
   </g>
   <g id="patch_44">
    <path d="M 170.387957 65.72 
L 180.331739 65.72 
L 180.331739 65.72 
L 170.387957 65.72 
z
" clip-path="url(#p2cb81dfb33)" style="fill: #2e85ff; fill-opacity: 0.5; stroke: #000000; stroke-linejoin: miter"/>
   </g>
   <g id="patch_45">
    <path d="M 180.331739 65.72 
L 230.050652 65.72 
L 230.050652 65.72 
L 180.331739 65.72 
z
" clip-path="url(#p2cb81dfb33)" style="fill: #2e85ff; fill-opacity: 0.5; stroke: #000000; stroke-linejoin: miter"/>
   </g>
   <g id="patch_46">
    <path d="M 230.050652 65.72 
L 239.994435 65.72 
L 239.994435 61.662613 
L 230.050652 61.662613 
z
" clip-path="url(#p2cb81dfb33)" style="fill: #2e85ff; fill-opacity: 0.5; stroke: #000000; stroke-linejoin: miter"/>
   </g>
   <g id="patch_47">
    <path d="M 239.994435 65.72 
L 249.938217 65.72 
L 249.938217 60.024053 
L 239.994435 60.024053 
z
" clip-path="url(#p2cb81dfb33)" style="fill: #2e85ff; fill-opacity: 0.5; stroke: #000000; stroke-linejoin: miter"/>
   </g>
   <g id="patch_48">
    <path d="M 249.938217 65.72 
L 259.882 65.72 
L 259.882 62.44288 
L 249.938217 62.44288 
z
" clip-path="url(#p2cb81dfb33)" style="fill: #2e85ff; fill-opacity: 0.5; stroke: #000000; stroke-linejoin: miter"/>
   </g>
   <g id="patch_49">
    <path d="M 259.882 65.72 
L 269.825783 65.72 
L 269.825783 62.364853 
L 259.882 62.364853 
z
" clip-path="url(#p2cb81dfb33)" style="fill: #2e85ff; fill-opacity: 0.5; stroke: #000000; stroke-linejoin: miter"/>
   </g>
   <g id="patch_50">
    <path d="M 269.825783 65.72 
L 279.769565 65.72 
L 279.769565 62.91104 
L 269.825783 62.91104 
z
" clip-path="url(#p2cb81dfb33)" style="fill: #2e85ff; fill-opacity: 0.5; stroke: #000000; stroke-linejoin: miter"/>
   </g>
   <g id="patch_51">
    <path d="M 279.769565 65.72 
L 289.713348 65.72 
L 289.713348 61.74064 
L 279.769565 61.74064 
z
" clip-path="url(#p2cb81dfb33)" style="fill: #2e85ff; fill-opacity: 0.5; stroke: #000000; stroke-linejoin: miter"/>
   </g>
   <g id="patch_52">
    <path d="M 289.713348 65.72 
L 299.65713 65.72 
L 299.65713 61.662613 
L 289.713348 61.662613 
z
" clip-path="url(#p2cb81dfb33)" style="fill: #2e85ff; fill-opacity: 0.5; stroke: #000000; stroke-linejoin: miter"/>
   </g>
   <g id="patch_53">
    <path d="M 299.65713 65.72 
L 309.600913 65.72 
L 309.600913 60.414187 
L 299.65713 60.414187 
z
" clip-path="url(#p2cb81dfb33)" style="fill: #2e85ff; fill-opacity: 0.5; stroke: #000000; stroke-linejoin: miter"/>
   </g>
   <g id="patch_54">
    <path d="M 309.600913 65.72 
L 319.544696 65.72 
L 319.544696 57.605227 
L 309.600913 57.605227 
z
" clip-path="url(#p2cb81dfb33)" style="fill: #2e85ff; fill-opacity: 0.5; stroke: #000000; stroke-linejoin: miter"/>
   </g>
   <g id="patch_55">
    <path d="M 319.544696 65.72 
L 329.488478 65.72 
L 329.488478 9.228693 
L 319.544696 9.228693 
z
" clip-path="url(#p2cb81dfb33)" style="fill: #2e85ff; fill-opacity: 0.5; stroke: #000000; stroke-linejoin: miter"/>
   </g>
   <g id="patch_56">
    <path d="M 329.488478 65.72 
L 379.207391 65.72 
L 379.207391 65.72 
L 329.488478 65.72 
z
" clip-path="url(#p2cb81dfb33)" style="fill: #2e85ff; fill-opacity: 0.5; stroke: #000000; stroke-linejoin: miter"/>
   </g>
   <g id="patch_57">
    <path d="M 379.207391 65.72 
L 389.151174 65.72 
L 389.151174 65.72 
L 379.207391 65.72 
z
" clip-path="url(#p2cb81dfb33)" style="fill: #2e85ff; fill-opacity: 0.5; stroke: #000000; stroke-linejoin: miter"/>
   </g>
   <g id="patch_58">
    <path d="M 389.151174 65.72 
L 399.094957 65.72 
L 399.094957 65.72 
L 389.151174 65.72 
z
" clip-path="url(#p2cb81dfb33)" style="fill: #2e85ff; fill-opacity: 0.5; stroke: #000000; stroke-linejoin: miter"/>
   </g>
   <g id="patch_59">
    <path d="M 399.094957 65.72 
L 409.038739 65.72 
L 409.038739 65.72 
L 399.094957 65.72 
z
" clip-path="url(#p2cb81dfb33)" style="fill: #2e85ff; fill-opacity: 0.5; stroke: #000000; stroke-linejoin: miter"/>
   </g>
   <g id="patch_60">
    <path d="M 409.038739 65.72 
L 418.982522 65.72 
L 418.982522 65.72 
L 409.038739 65.72 
z
" clip-path="url(#p2cb81dfb33)" style="fill: #2e85ff; fill-opacity: 0.5; stroke: #000000; stroke-linejoin: miter"/>
   </g>
   <g id="patch_61">
    <path d="M 418.982522 65.72 
L 428.926304 65.72 
L 428.926304 65.72 
L 418.982522 65.72 
z
" clip-path="url(#p2cb81dfb33)" style="fill: #2e85ff; fill-opacity: 0.5; stroke: #000000; stroke-linejoin: miter"/>
   </g>
   <g id="patch_62">
    <path d="M 428.926304 65.72 
L 438.870087 65.72 
L 438.870087 65.72 
L 428.926304 65.72 
z
" clip-path="url(#p2cb81dfb33)" style="fill: #2e85ff; fill-opacity: 0.5; stroke: #000000; stroke-linejoin: miter"/>
   </g>
   <g id="patch_63">
    <path d="M 438.870087 65.72 
L 448.81387 65.72 
L 448.81387 65.72 
L 438.870087 65.72 
z
" clip-path="url(#p2cb81dfb33)" style="fill: #2e85ff; fill-opacity: 0.5; stroke: #000000; stroke-linejoin: miter"/>
   </g>
   <g id="patch_64">
    <path d="M 448.81387 65.72 
L 458.757652 65.72 
L 458.757652 65.72 
L 448.81387 65.72 
z
" clip-path="url(#p2cb81dfb33)" style="fill: #2e85ff; fill-opacity: 0.5; stroke: #000000; stroke-linejoin: miter"/>
   </g>
   <g id="patch_65">
    <path d="M 458.757652 65.72 
L 468.701435 65.72 
L 468.701435 65.72 
L 458.757652 65.72 
z
" clip-path="url(#p2cb81dfb33)" style="fill: #2e85ff; fill-opacity: 0.5; stroke: #000000; stroke-linejoin: miter"/>
   </g>
   <g id="patch_66">
    <path d="M 468.701435 65.72 
L 478.645217 65.72 
L 478.645217 65.72 
L 468.701435 65.72 
z
" clip-path="url(#p2cb81dfb33)" style="fill: #2e85ff; fill-opacity: 0.5; stroke: #000000; stroke-linejoin: miter"/>
   </g>
   <g id="patch_67">
    <path d="M 80.893913 65.72 
L 90.837696 65.72 
L 90.837696 65.25184 
L 80.893913 65.25184 
z
" clip-path="url(#p2cb81dfb33)" style="fill: #2e85ff; fill-opacity: 0.5; stroke: #000000; stroke-linejoin: miter"/>
   </g>
   <g id="patch_68">
    <path d="M 90.837696 65.72 
L 100.781478 65.72 
L 100.781478 60.882347 
L 90.837696 60.882347 
z
" clip-path="url(#p2cb81dfb33)" style="fill: #2e85ff; fill-opacity: 0.5; stroke: #000000; stroke-linejoin: miter"/>
   </g>
   <g id="patch_69">
    <path d="M 100.781478 65.72 
L 110.725261 65.72 
L 110.725261 55.576533 
L 100.781478 55.576533 
z
" clip-path="url(#p2cb81dfb33)" style="fill: #2e85ff; fill-opacity: 0.5; stroke: #000000; stroke-linejoin: miter"/>
   </g>
   <g id="patch_70">
    <path d="M 110.725261 65.72 
L 120.669043 65.72 
L 120.669043 58.307467 
L 110.725261 58.307467 
z
" clip-path="url(#p2cb81dfb33)" style="fill: #2e85ff; fill-opacity: 0.5; stroke: #000000; stroke-linejoin: miter"/>
   </g>
   <g id="patch_71">
    <path d="M 120.669043 65.72 
L 130.612826 65.72 
L 130.612826 58.46352 
L 120.669043 58.46352 
z
" clip-path="url(#p2cb81dfb33)" style="fill: #2e85ff; fill-opacity: 0.5; stroke: #000000; stroke-linejoin: miter"/>
   </g>
   <g id="patch_72">
    <path d="M 130.612826 65.72 
L 140.556609 65.72 
L 140.556609 57.371147 
L 130.612826 57.371147 
z
" clip-path="url(#p2cb81dfb33)" style="fill: #2e85ff; fill-opacity: 0.5; stroke: #000000; stroke-linejoin: miter"/>
   </g>
   <g id="patch_73">
    <path d="M 140.556609 65.72 
L 150.500391 65.72 
L 150.500391 56.512853 
L 140.556609 56.512853 
z
" clip-path="url(#p2cb81dfb33)" style="fill: #2e85ff; fill-opacity: 0.5; stroke: #000000; stroke-linejoin: miter"/>
   </g>
   <g id="patch_74">
    <path d="M 150.500391 65.72 
L 160.444174 65.72 
L 160.444174 57.449173 
L 150.500391 57.449173 
z
" clip-path="url(#p2cb81dfb33)" style="fill: #2e85ff; fill-opacity: 0.5; stroke: #000000; stroke-linejoin: miter"/>
   </g>
   <g id="patch_75">
    <path d="M 160.444174 65.72 
L 170.387957 65.72 
L 170.387957 51.831253 
L 160.444174 51.831253 
z
" clip-path="url(#p2cb81dfb33)" style="fill: #2e85ff; fill-opacity: 0.5; stroke: #000000; stroke-linejoin: miter"/>
   </g>
   <g id="patch_76">
    <path d="M 170.387957 65.72 
L 180.331739 65.72 
L 180.331739 38.410667 
L 170.387957 38.410667 
z
" clip-path="url(#p2cb81dfb33)" style="fill: #2e85ff; fill-opacity: 0.5; stroke: #000000; stroke-linejoin: miter"/>
   </g>
   <g id="patch_77">
    <path d="M 180.331739 65.72 
L 230.050652 65.72 
L 230.050652 65.72 
L 180.331739 65.72 
z
" clip-path="url(#p2cb81dfb33)" style="fill: #2e85ff; fill-opacity: 0.5; stroke: #000000; stroke-linejoin: miter"/>
   </g>
   <g id="patch_78">
    <path d="M 230.050652 65.72 
L 239.994435 65.72 
L 239.994435 65.72 
L 230.050652 65.72 
z
" clip-path="url(#p2cb81dfb33)" style="fill: #2e85ff; fill-opacity: 0.5; stroke: #000000; stroke-linejoin: miter"/>
   </g>
   <g id="patch_79">
    <path d="M 239.994435 65.72 
L 249.938217 65.72 
L 249.938217 65.72 
L 239.994435 65.72 
z
" clip-path="url(#p2cb81dfb33)" style="fill: #2e85ff; fill-opacity: 0.5; stroke: #000000; stroke-linejoin: miter"/>
   </g>
   <g id="patch_80">
    <path d="M 249.938217 65.72 
L 259.882 65.72 
L 259.882 65.72 
L 249.938217 65.72 
z
" clip-path="url(#p2cb81dfb33)" style="fill: #2e85ff; fill-opacity: 0.5; stroke: #000000; stroke-linejoin: miter"/>
   </g>
   <g id="patch_81">
    <path d="M 259.882 65.72 
L 269.825783 65.72 
L 269.825783 65.72 
L 259.882 65.72 
z
" clip-path="url(#p2cb81dfb33)" style="fill: #2e85ff; fill-opacity: 0.5; stroke: #000000; stroke-linejoin: miter"/>
   </g>
   <g id="patch_82">
    <path d="M 269.825783 65.72 
L 279.769565 65.72 
L 279.769565 65.72 
L 269.825783 65.72 
z
" clip-path="url(#p2cb81dfb33)" style="fill: #2e85ff; fill-opacity: 0.5; stroke: #000000; stroke-linejoin: miter"/>
   </g>
   <g id="patch_83">
    <path d="M 279.769565 65.72 
L 289.713348 65.72 
L 289.713348 65.72 
L 279.769565 65.72 
z
" clip-path="url(#p2cb81dfb33)" style="fill: #2e85ff; fill-opacity: 0.5; stroke: #000000; stroke-linejoin: miter"/>
   </g>
   <g id="patch_84">
    <path d="M 289.713348 65.72 
L 299.65713 65.72 
L 299.65713 65.72 
L 289.713348 65.72 
z
" clip-path="url(#p2cb81dfb33)" style="fill: #2e85ff; fill-opacity: 0.5; stroke: #000000; stroke-linejoin: miter"/>
   </g>
   <g id="patch_85">
    <path d="M 299.65713 65.72 
L 309.600913 65.72 
L 309.600913 65.72 
L 299.65713 65.72 
z
" clip-path="url(#p2cb81dfb33)" style="fill: #2e85ff; fill-opacity: 0.5; stroke: #000000; stroke-linejoin: miter"/>
   </g>
   <g id="patch_86">
    <path d="M 309.600913 65.72 
L 319.544696 65.72 
L 319.544696 65.72 
L 309.600913 65.72 
z
" clip-path="url(#p2cb81dfb33)" style="fill: #2e85ff; fill-opacity: 0.5; stroke: #000000; stroke-linejoin: miter"/>
   </g>
   <g id="patch_87">
    <path d="M 319.544696 65.72 
L 329.488478 65.72 
L 329.488478 65.72 
L 319.544696 65.72 
z
" clip-path="url(#p2cb81dfb33)" style="fill: #2e85ff; fill-opacity: 0.5; stroke: #000000; stroke-linejoin: miter"/>
   </g>
   <g id="patch_88">
    <path d="M 329.488478 65.72 
L 379.207391 65.72 
L 379.207391 65.72 
L 329.488478 65.72 
z
" clip-path="url(#p2cb81dfb33)" style="fill: #2e85ff; fill-opacity: 0.5; stroke: #000000; stroke-linejoin: miter"/>
   </g>
   <g id="patch_89">
    <path d="M 379.207391 65.72 
L 389.151174 65.72 
L 389.151174 65.72 
L 379.207391 65.72 
z
" clip-path="url(#p2cb81dfb33)" style="fill: #2e85ff; fill-opacity: 0.5; stroke: #000000; stroke-linejoin: miter"/>
   </g>
   <g id="patch_90">
    <path d="M 389.151174 65.72 
L 399.094957 65.72 
L 399.094957 65.72 
L 389.151174 65.72 
z
" clip-path="url(#p2cb81dfb33)" style="fill: #2e85ff; fill-opacity: 0.5; stroke: #000000; stroke-linejoin: miter"/>
   </g>
   <g id="patch_91">
    <path d="M 399.094957 65.72 
L 409.038739 65.72 
L 409.038739 65.72 
L 399.094957 65.72 
z
" clip-path="url(#p2cb81dfb33)" style="fill: #2e85ff; fill-opacity: 0.5; stroke: #000000; stroke-linejoin: miter"/>
   </g>
   <g id="patch_92">
    <path d="M 409.038739 65.72 
L 418.982522 65.72 
L 418.982522 65.72 
L 409.038739 65.72 
z
" clip-path="url(#p2cb81dfb33)" style="fill: #2e85ff; fill-opacity: 0.5; stroke: #000000; stroke-linejoin: miter"/>
   </g>
   <g id="patch_93">
    <path d="M 418.982522 65.72 
L 428.926304 65.72 
L 428.926304 65.72 
L 418.982522 65.72 
z
" clip-path="url(#p2cb81dfb33)" style="fill: #2e85ff; fill-opacity: 0.5; stroke: #000000; stroke-linejoin: miter"/>
   </g>
   <g id="patch_94">
    <path d="M 428.926304 65.72 
L 438.870087 65.72 
L 438.870087 65.72 
L 428.926304 65.72 
z
" clip-path="url(#p2cb81dfb33)" style="fill: #2e85ff; fill-opacity: 0.5; stroke: #000000; stroke-linejoin: miter"/>
   </g>
   <g id="patch_95">
    <path d="M 438.870087 65.72 
L 448.81387 65.72 
L 448.81387 65.72 
L 438.870087 65.72 
z
" clip-path="url(#p2cb81dfb33)" style="fill: #2e85ff; fill-opacity: 0.5; stroke: #000000; stroke-linejoin: miter"/>
   </g>
   <g id="patch_96">
    <path d="M 448.81387 65.72 
L 458.757652 65.72 
L 458.757652 65.72 
L 448.81387 65.72 
z
" clip-path="url(#p2cb81dfb33)" style="fill: #2e85ff; fill-opacity: 0.5; stroke: #000000; stroke-linejoin: miter"/>
   </g>
   <g id="patch_97">
    <path d="M 458.757652 65.72 
L 468.701435 65.72 
L 468.701435 65.72 
L 458.757652 65.72 
z
" clip-path="url(#p2cb81dfb33)" style="fill: #2e85ff; fill-opacity: 0.5; stroke: #000000; stroke-linejoin: miter"/>
   </g>
   <g id="patch_98">
    <path d="M 468.701435 65.72 
L 478.645217 65.72 
L 478.645217 65.72 
L 468.701435 65.72 
z
" clip-path="url(#p2cb81dfb33)" style="fill: #2e85ff; fill-opacity: 0.5; stroke: #000000; stroke-linejoin: miter"/>
   </g>
   <g id="PathCollection_1">
    <defs>
     <path id="m0a28788123" d="M 0 0.707107 
C 0.187527 0.707107 0.367398 0.632602 0.5 0.5 
C 0.632602 0.367398 0.707107 0.187527 0.707107 0 
C 0.707107 -0.187527 0.632602 -0.367398 0.5 -0.5 
C 0.367398 -0.632602 0.187527 -0.707107 0 -0.707107 
C -0.187527 -0.707107 -0.367398 -0.632602 -0.5 -0.5 
C -0.632602 -0.367398 -0.707107 -0.187527 -0.707107 0 
C -0.707107 0.187527 -0.632602 0.367398 -0.5 0.5 
C -0.367398 0.632602 -0.187527 0.707107 0 0.707107 
z
" style="stroke: #2e85ff"/>
    </defs>
    <g clip-path="url(#p2cb81dfb33)">
     <use xlink:href="#m0a28788123" x="85.865804" y="65.25184" style="fill: #2e85ff; stroke: #2e85ff"/>
     <use xlink:href="#m0a28788123" x="95.809587" y="60.882347" style="fill: #2e85ff; stroke: #2e85ff"/>
     <use xlink:href="#m0a28788123" x="105.75337" y="55.576533" style="fill: #2e85ff; stroke: #2e85ff"/>
     <use xlink:href="#m0a28788123" x="115.697152" y="58.307467" style="fill: #2e85ff; stroke: #2e85ff"/>
     <use xlink:href="#m0a28788123" x="125.640935" y="58.46352" style="fill: #2e85ff; stroke: #2e85ff"/>
     <use xlink:href="#m0a28788123" x="135.584717" y="57.371147" style="fill: #2e85ff; stroke: #2e85ff"/>
     <use xlink:href="#m0a28788123" x="145.5285" y="56.512853" style="fill: #2e85ff; stroke: #2e85ff"/>
     <use xlink:href="#m0a28788123" x="155.472283" y="57.449173" style="fill: #2e85ff; stroke: #2e85ff"/>
     <use xlink:href="#m0a28788123" x="165.416065" y="51.831253" style="fill: #2e85ff; stroke: #2e85ff"/>
     <use xlink:href="#m0a28788123" x="175.359848" y="38.410667" style="fill: #2e85ff; stroke: #2e85ff"/>
    </g>
   </g>
   <g id="PathCollection_2">
    <g clip-path="url(#p2cb81dfb33)">
     <use xlink:href="#m0a28788123" x="235.022543" y="61.662613" style="fill: #2e85ff; stroke: #2e85ff"/>
     <use xlink:href="#m0a28788123" x="244.966326" y="60.024053" style="fill: #2e85ff; stroke: #2e85ff"/>
     <use xlink:href="#m0a28788123" x="254.910109" y="62.44288" style="fill: #2e85ff; stroke: #2e85ff"/>
     <use xlink:href="#m0a28788123" x="264.853891" y="62.364853" style="fill: #2e85ff; stroke: #2e85ff"/>
     <use xlink:href="#m0a28788123" x="274.797674" y="62.91104" style="fill: #2e85ff; stroke: #2e85ff"/>
     <use xlink:href="#m0a28788123" x="284.741457" y="61.74064" style="fill: #2e85ff; stroke: #2e85ff"/>
     <use xlink:href="#m0a28788123" x="294.685239" y="61.662613" style="fill: #2e85ff; stroke: #2e85ff"/>
     <use xlink:href="#m0a28788123" x="304.629022" y="60.414187" style="fill: #2e85ff; stroke: #2e85ff"/>
     <use xlink:href="#m0a28788123" x="314.572804" y="57.605227" style="fill: #2e85ff; stroke: #2e85ff"/>
     <use xlink:href="#m0a28788123" x="324.516587" y="9.228693" style="fill: #2e85ff; stroke: #2e85ff"/>
    </g>
   </g>
   <g id="PathCollection_3">
    <g clip-path="url(#p2cb81dfb33)">
     <use xlink:href="#m0a28788123" x="384.179283" y="59.63392" style="fill: #2e85ff; stroke: #2e85ff"/>
     <use xlink:href="#m0a28788123" x="394.123065" y="61.97472" style="fill: #2e85ff; stroke: #2e85ff"/>
     <use xlink:href="#m0a28788123" x="404.066848" y="63.301173" style="fill: #2e85ff; stroke: #2e85ff"/>
     <use xlink:href="#m0a28788123" x="414.01063" y="63.925387" style="fill: #2e85ff; stroke: #2e85ff"/>
     <use xlink:href="#m0a28788123" x="423.954413" y="62.520907" style="fill: #2e85ff; stroke: #2e85ff"/>
     <use xlink:href="#m0a28788123" x="433.898196" y="61.428533" style="fill: #2e85ff; stroke: #2e85ff"/>
     <use xlink:href="#m0a28788123" x="443.841978" y="61.97472" style="fill: #2e85ff; stroke: #2e85ff"/>
     <use xlink:href="#m0a28788123" x="453.785761" y="58.6976" style="fill: #2e85ff; stroke: #2e85ff"/>
     <use xlink:href="#m0a28788123" x="463.729543" y="54.094027" style="fill: #2e85ff; stroke: #2e85ff"/>
     <use xlink:href="#m0a28788123" x="473.673326" y="12.505813" style="fill: #2e85ff; stroke: #2e85ff"/>
    </g>
   </g>
   <g id="matplotlib.axis_1">
    <g id="xtick_1">
     <g id="line2d_1">
      <defs>
       <path id="m71d0d446ee" d="M 0 0 
L 0 3.5 
" style="stroke: #000000; stroke-width: 0.8"/>
      </defs>
      <g>
       <use xlink:href="#m71d0d446ee" x="80.893913" y="65.72" style="stroke: #000000; stroke-width: 0.8"/>
      </g>
     </g>
     <g id="text_1">
      <text style="font: 5px 'Arial'; text-anchor: middle" x="80.893913" y="76.298906" transform="rotate(-0 80.893913 76.298906)">0.0</text>
     </g>
    </g>
    <g id="xtick_2">
     <g id="line2d_2">
      <g>
       <use xlink:href="#m71d0d446ee" x="130.612826" y="65.72" style="stroke: #000000; stroke-width: 0.8"/>
      </g>
     </g>
     <g id="text_2">
      <text style="font: 5px 'Arial'; text-anchor: middle" x="130.612826" y="76.298906" transform="rotate(-0 130.612826 76.298906)">0.5</text>
     </g>
    </g>
    <g id="xtick_3">
     <g id="line2d_3">
      <g>
       <use xlink:href="#m71d0d446ee" x="180.331739" y="65.72" style="stroke: #000000; stroke-width: 0.8"/>
      </g>
     </g>
     <g id="text_3">
      <text style="font: 5px 'Arial'; text-anchor: middle" x="180.331739" y="76.298906" transform="rotate(-0 180.331739 76.298906)">1.0</text>
     </g>
    </g>
    <g id="xtick_4">
     <g id="line2d_4">
      <g>
       <use xlink:href="#m71d0d446ee" x="230.050652" y="65.72" style="stroke: #000000; stroke-width: 0.8"/>
      </g>
     </g>
     <g id="text_4">
      <text style="font: 5px 'Arial'; text-anchor: middle" x="230.050652" y="76.298906" transform="rotate(-0 230.050652 76.298906)">0.0</text>
     </g>
    </g>
    <g id="xtick_5">
     <g id="line2d_5">
      <g>
       <use xlink:href="#m71d0d446ee" x="279.769565" y="65.72" style="stroke: #000000; stroke-width: 0.8"/>
      </g>
     </g>
     <g id="text_5">
      <text style="font: 5px 'Arial'; text-anchor: middle" x="279.769565" y="76.298906" transform="rotate(-0 279.769565 76.298906)">0.5</text>
     </g>
    </g>
    <g id="xtick_6">
     <g id="line2d_6">
      <g>
       <use xlink:href="#m71d0d446ee" x="329.488478" y="65.72" style="stroke: #000000; stroke-width: 0.8"/>
      </g>
     </g>
     <g id="text_6">
      <text style="font: 5px 'Arial'; text-anchor: middle" x="329.488478" y="76.298906" transform="rotate(-0 329.488478 76.298906)">1.0</text>
     </g>
    </g>
    <g id="xtick_7">
     <g id="line2d_7">
      <g>
       <use xlink:href="#m71d0d446ee" x="379.207391" y="65.72" style="stroke: #000000; stroke-width: 0.8"/>
      </g>
     </g>
     <g id="text_7">
      <text style="font: 5px 'Arial'; text-anchor: middle" x="379.207391" y="76.298906" transform="rotate(-0 379.207391 76.298906)">0.0</text>
     </g>
    </g>
    <g id="xtick_8">
     <g id="line2d_8">
      <g>
       <use xlink:href="#m71d0d446ee" x="428.926304" y="65.72" style="stroke: #000000; stroke-width: 0.8"/>
      </g>
     </g>
     <g id="text_8">
      <text style="font: 5px 'Arial'; text-anchor: middle" x="428.926304" y="76.298906" transform="rotate(-0 428.926304 76.298906)">0.5</text>
     </g>
    </g>
    <g id="xtick_9">
     <g id="line2d_9">
      <g>
       <use xlink:href="#m71d0d446ee" x="478.645217" y="65.72" style="stroke: #000000; stroke-width: 0.8"/>
      </g>
     </g>
     <g id="text_9">
      <text style="font: 5px 'Arial'; text-anchor: middle" x="478.645217" y="76.298906" transform="rotate(-0 478.645217 76.298906)">1.0</text>
     </g>
    </g>
    <g id="text_10">
     <text style="font: 5px 'Arial'; text-anchor: middle" x="259.882" y="84.9325" transform="rotate(-0 259.882 84.9325)">Predicted self assembly probability</text>
    </g>
   </g>
   <g id="matplotlib.axis_2">
    <g id="ytick_1">
     <g id="line2d_10">
      <defs>
       <path id="mda941f6037" d="M 0 0 
L -3.5 0 
" style="stroke: #000000; stroke-width: 0.8"/>
      </defs>
      <g>
       <use xlink:href="#mda941f6037" x="31.175" y="65.72" style="stroke: #000000; stroke-width: 0.8"/>
      </g>
     </g>
     <g id="text_11">
      <text style="font: 5px 'Arial'; text-anchor: end" x="24.175" y="67.509453" transform="rotate(-0 24.175 67.509453)">0</text>
     </g>
    </g>
    <g id="ytick_2">
     <g id="line2d_11">
      <g>
       <use xlink:href="#mda941f6037" x="31.175" y="50.114667" style="stroke: #000000; stroke-width: 0.8"/>
      </g>
     </g>
     <g id="text_12">
      <text style="font: 5px 'Arial'; text-anchor: end" x="24.175" y="51.90412" transform="rotate(-0 24.175 51.90412)">200</text>
     </g>
    </g>
    <g id="ytick_3">
     <g id="line2d_12">
      <g>
       <use xlink:href="#mda941f6037" x="31.175" y="34.509333" style="stroke: #000000; stroke-width: 0.8"/>
      </g>
     </g>
     <g id="text_13">
      <text style="font: 5px 'Arial'; text-anchor: end" x="24.175" y="36.298786" transform="rotate(-0 24.175 36.298786)">400</text>
     </g>
    </g>
    <g id="ytick_4">
     <g id="line2d_13">
      <g>
       <use xlink:href="#mda941f6037" x="31.175" y="18.904" style="stroke: #000000; stroke-width: 0.8"/>
      </g>
     </g>
     <g id="text_14">
      <text style="font: 5px 'Arial'; text-anchor: end" x="24.175" y="20.693453" transform="rotate(-0 24.175 20.693453)">600</text>
     </g>
    </g>
    <g id="text_15">
     <text style="font: 5px 'Arial'; text-anchor: middle" x="10.839844" y="36.46" transform="rotate(-90 10.839844 36.46)">Number of peptides</text>
    </g>
   </g>
   <g id="line2d_14">
    <path d="M 88.053631 65.72 
L 364.804282 65.65433 
L 368.729823 65.462831 
L 372.655364 64.954406 
L 374.618135 64.525233 
L 378.543676 63.32468 
L 382.469217 61.972616 
L 384.431987 61.424613 
L 386.394758 61.055341 
L 388.357529 60.90069 
L 390.320299 60.958123 
L 392.28307 61.190332 
L 404.059693 63.205261 
L 407.985234 63.469637 
L 411.910775 63.497974 
L 415.836317 63.316787 
L 423.687399 62.632844 
L 433.501252 61.781311 
L 443.315105 61.042226 
L 447.240646 60.424932 
L 451.166187 59.440451 
L 453.128957 58.764487 
L 455.091728 57.908121 
L 457.054498 56.795787 
L 459.017269 55.330003 
L 460.98004 53.409241 
L 462.94281 50.961922 
L 464.905581 47.994818 
L 470.793892 38.159493 
L 472.756663 36.013481 
L 474.719434 35.258578 
L 476.682204 36.174722 
L 478.644975 38.733753 
L 478.644975 38.733753 
" clip-path="url(#p2cb81dfb33)" style="fill: none; stroke: #2e85ff; stroke-width: 1.5; stroke-linecap: square"/>
   </g>
   <g id="line2d_15">
    <path d="M 88.053631 65.72 
L 217.596489 65.622752 
L 221.52203 65.387888 
L 225.447571 64.836747 
L 229.373112 63.869104 
L 237.224195 61.483748 
L 239.186965 61.099486 
L 241.149736 60.881621 
L 243.112506 60.831477 
L 247.038048 61.123232 
L 254.88913 62.082694 
L 258.814671 62.327013 
L 264.702983 62.429815 
L 276.479606 62.449332 
L 282.367918 62.188372 
L 300.032853 60.940758 
L 301.995624 60.645883 
L 303.958394 60.228625 
L 305.921165 59.629144 
L 307.883935 58.761878 
L 309.846706 57.516747 
L 311.809476 55.773137 
L 313.772247 53.430909 
L 315.735017 50.458388 
L 317.697788 46.948764 
L 321.623329 39.546497 
L 323.5861 36.650649 
L 325.54887 35.032449 
L 327.511641 35.087652 
L 329.474411 36.920428 
L 331.437182 40.293201 
L 333.399953 44.68625 
L 337.325494 53.958017 
L 339.288264 57.788108 
L 341.251035 60.733065 
L 343.213805 62.798804 
L 345.176576 64.126606 
L 347.139347 64.911037 
L 349.102117 65.337862 
L 351.064888 65.552095 
L 354.990429 65.693939 
L 370.692593 65.719999 
L 478.644975 65.72 
L 478.644975 65.72 
" clip-path="url(#p2cb81dfb33)" style="fill: none; stroke: #2e85ff; stroke-width: 1.5; stroke-linecap: square"/>
   </g>
   <g id="line2d_16">
    <path d="M 88.053631 63.725454 
L 91.979173 62.217231 
L 99.830255 58.769064 
L 101.793025 58.105883 
L 103.755796 57.626113 
L 105.718567 57.349864 
L 107.681337 57.264586 
L 111.606878 57.484157 
L 117.49519 58.004537 
L 123.383502 58.312944 
L 127.309043 58.392454 
L 131.234584 58.165859 
L 135.160125 57.582479 
L 139.085666 56.965935 
L 143.011207 56.67397 
L 152.82506 56.576418 
L 154.787831 56.273737 
L 156.750601 55.76846 
L 158.713372 55.045221 
L 160.676142 54.113516 
L 164.601684 51.779538 
L 168.527225 49.310038 
L 170.489995 48.321854 
L 172.452766 47.722646 
L 174.415536 47.693195 
L 176.378307 48.371321 
L 178.341078 49.797289 
L 180.303848 51.877328 
L 186.19216 59.502026 
L 188.15493 61.583621 
L 190.117701 63.168793 
L 192.080472 64.264386 
L 194.043242 64.953113 
L 196.006013 65.34747 
L 199.931554 65.651406 
L 207.782636 65.719156 
L 478.644975 65.72 
L 478.644975 65.72 
" clip-path="url(#p2cb81dfb33)" style="fill: none; stroke: #2e85ff; stroke-width: 1.5; stroke-linecap: square"/>
   </g>
   <g id="line2d_17">
    <path d="M 85.865804 65.25184 
L 95.809587 60.882347 
L 105.75337 55.576533 
L 115.697152 58.307467 
L 125.640935 58.46352 
L 135.584717 57.371147 
L 145.5285 56.512853 
L 155.472283 57.449173 
L 165.416065 51.831253 
L 175.359848 38.410667 
" clip-path="url(#p2cb81dfb33)" style="fill: none; stroke: #2e85ff; stroke-linecap: square"/>
   </g>
   <g id="line2d_18">
    <path d="M 235.022543 61.662613 
L 244.966326 60.024053 
L 254.910109 62.44288 
L 264.853891 62.364853 
L 274.797674 62.91104 
L 284.741457 61.74064 
L 294.685239 61.662613 
L 304.629022 60.414187 
L 314.572804 57.605227 
L 324.516587 9.228693 
" clip-path="url(#p2cb81dfb33)" style="fill: none; stroke: #2e85ff; stroke-linecap: square"/>
   </g>
   <g id="line2d_19">
    <path d="M 384.179283 59.63392 
L 394.123065 61.97472 
L 404.066848 63.301173 
L 414.01063 63.925387 
L 423.954413 62.520907 
L 433.898196 61.428533 
L 443.841978 61.97472 
L 453.785761 58.6976 
L 463.729543 54.094027 
L 473.673326 12.505813 
" clip-path="url(#p2cb81dfb33)" style="fill: none; stroke: #2e85ff; stroke-linecap: square"/>
   </g>
   <g id="patch_99">
    <path d="M 31.175 65.72 
L 31.175 7.2 
" style="fill: none; stroke: #000000; stroke-width: 0.8; stroke-linejoin: miter; stroke-linecap: square"/>
   </g>
   <g id="patch_100">
    <path d="M 31.175 65.72 
L 488.589 65.72 
" style="fill: none; stroke: #000000; stroke-width: 0.8; stroke-linejoin: miter; stroke-linecap: square"/>
   </g>
  </g>
 </g>
 <defs>
  <clipPath id="p2cb81dfb33">
   <rect x="31.175" y="7.2" width="457.414" height="58.52"/>
  </clipPath>
 </defs>
</svg>
