<?xml version="1.0" encoding="utf-8" standalone="no"?>
<!DOCTYPE svg PUBLIC "-//W3C//DTD SVG 1.1//EN"
  "http://www.w3.org/Graphics/SVG/1.1/DTD/svg11.dtd">
<svg xmlns:xlink="http://www.w3.org/1999/xlink" width="1427.26875pt" height="290.7475pt" viewBox="0 0 1427.26875 290.7475" xmlns="http://www.w3.org/2000/svg" version="1.1">
 <metadata>
  <rdf:RDF xmlns:dc="http://purl.org/dc/elements/1.1/" xmlns:cc="http://creativecommons.org/ns#" xmlns:rdf="http://www.w3.org/1999/02/22-rdf-syntax-ns#">
   <cc:Work>
    <dc:type rdf:resource="http://purl.org/dc/dcmitype/StillImage"/>
    <dc:date>2024-09-24T11:17:09.218110</dc:date>
    <dc:format>image/svg+xml</dc:format>
    <dc:creator>
     <cc:Agent>
      <dc:title>Matplotlib v3.7.0, https://matplotlib.org/</dc:title>
     </cc:Agent>
    </dc:creator>
   </cc:Work>
  </rdf:RDF>
 </metadata>
 <defs>
  <style type="text/css">*{stroke-linejoin: round; stroke-linecap: butt}</style>
 </defs>
 <g id="figure_1">
  <g id="patch_1">
   <path d="M 0 290.7475 
L 1427.26875 290.7475 
L 1427.26875 0 
L 0 0 
z
" style="fill: #ffffff"/>
  </g>
  <g id="axes_1">
   <g id="patch_2">
    <path d="M 52.71875 249.32 
L 1420.06875 249.32 
L 1420.06875 7.2 
L 52.71875 7.2 
z
" style="fill: #ffffff"/>
   </g>
   <g id="patch_3">
    <path d="M 647.21875 249.32 
L 676.94375 249.32 
L 676.94375 249.32 
L 647.21875 249.32 
z
" clip-path="url(#p3a3b3ee0d2)" style="fill: #2e85ff; fill-opacity: 0.5; stroke: #000000; stroke-linejoin: miter"/>
   </g>
   <g id="patch_4">
    <path d="M 676.94375 249.32 
L 706.66875 249.32 
L 706.66875 249.32 
L 676.94375 249.32 
z
" clip-path="url(#p3a3b3ee0d2)" style="fill: #2e85ff; fill-opacity: 0.5; stroke: #000000; stroke-linejoin: miter"/>
   </g>
   <g id="patch_5">
    <path d="M 706.66875 249.32 
L 736.39375 249.32 
L 736.39375 249.32 
L 706.66875 249.32 
z
" clip-path="url(#p3a3b3ee0d2)" style="fill: #2e85ff; fill-opacity: 0.5; stroke: #000000; stroke-linejoin: miter"/>
   </g>
   <g id="patch_6">
    <path d="M 736.39375 249.32 
L 766.11875 249.32 
L 766.11875 249.32 
L 736.39375 249.32 
z
" clip-path="url(#p3a3b3ee0d2)" style="fill: #2e85ff; fill-opacity: 0.5; stroke: #000000; stroke-linejoin: miter"/>
   </g>
   <g id="patch_7">
    <path d="M 766.11875 249.32 
L 795.84375 249.32 
L 795.84375 249.32 
L 766.11875 249.32 
z
" clip-path="url(#p3a3b3ee0d2)" style="fill: #2e85ff; fill-opacity: 0.5; stroke: #000000; stroke-linejoin: miter"/>
   </g>
   <g id="patch_8">
    <path d="M 795.84375 249.32 
L 825.56875 249.32 
L 825.56875 249.32 
L 795.84375 249.32 
z
" clip-path="url(#p3a3b3ee0d2)" style="fill: #2e85ff; fill-opacity: 0.5; stroke: #000000; stroke-linejoin: miter"/>
   </g>
   <g id="patch_9">
    <path d="M 825.56875 249.32 
L 855.29375 249.32 
L 855.29375 249.32 
L 825.56875 249.32 
z
" clip-path="url(#p3a3b3ee0d2)" style="fill: #2e85ff; fill-opacity: 0.5; stroke: #000000; stroke-linejoin: miter"/>
   </g>
   <g id="patch_10">
    <path d="M 855.29375 249.32 
L 885.01875 249.32 
L 885.01875 249.32 
L 855.29375 249.32 
z
" clip-path="url(#p3a3b3ee0d2)" style="fill: #2e85ff; fill-opacity: 0.5; stroke: #000000; stroke-linejoin: miter"/>
   </g>
   <g id="patch_11">
    <path d="M 885.01875 249.32 
L 914.74375 249.32 
L 914.74375 249.32 
L 885.01875 249.32 
z
" clip-path="url(#p3a3b3ee0d2)" style="fill: #2e85ff; fill-opacity: 0.5; stroke: #000000; stroke-linejoin: miter"/>
   </g>
   <g id="patch_12">
    <path d="M 914.74375 249.32 
L 944.46875 249.32 
L 944.46875 249.32 
L 914.74375 249.32 
z
" clip-path="url(#p3a3b3ee0d2)" style="fill: #2e85ff; fill-opacity: 0.5; stroke: #000000; stroke-linejoin: miter"/>
   </g>
   <g id="patch_13">
    <path d="M 944.46875 249.32 
L 1093.09375 249.32 
L 1093.09375 249.32 
L 944.46875 249.32 
z
" clip-path="url(#p3a3b3ee0d2)" style="fill: #2e85ff; fill-opacity: 0.5; stroke: #000000; stroke-linejoin: miter"/>
   </g>
   <g id="patch_14">
    <path d="M 1093.09375 249.32 
L 1122.81875 249.32 
L 1122.81875 241.894987 
L 1093.09375 241.894987 
z
" clip-path="url(#p3a3b3ee0d2)" style="fill: #2e85ff; fill-opacity: 0.5; stroke: #000000; stroke-linejoin: miter"/>
   </g>
   <g id="patch_15">
    <path d="M 1122.81875 249.32 
L 1152.54375 249.32 
L 1152.54375 226.722133 
L 1122.81875 226.722133 
z
" clip-path="url(#p3a3b3ee0d2)" style="fill: #2e85ff; fill-opacity: 0.5; stroke: #000000; stroke-linejoin: miter"/>
   </g>
   <g id="patch_16">
    <path d="M 1152.54375 249.32 
L 1182.26875 249.32 
L 1182.26875 222.525387 
L 1152.54375 222.525387 
z
" clip-path="url(#p3a3b3ee0d2)" style="fill: #2e85ff; fill-opacity: 0.5; stroke: #000000; stroke-linejoin: miter"/>
   </g>
   <g id="patch_17">
    <path d="M 1182.26875 249.32 
L 1211.99375 249.32 
L 1211.99375 224.785173 
L 1182.26875 224.785173 
z
" clip-path="url(#p3a3b3ee0d2)" style="fill: #2e85ff; fill-opacity: 0.5; stroke: #000000; stroke-linejoin: miter"/>
   </g>
   <g id="patch_18">
    <path d="M 1211.99375 249.32 
L 1241.71875 249.32 
L 1241.71875 224.462347 
L 1211.99375 224.462347 
z
" clip-path="url(#p3a3b3ee0d2)" style="fill: #2e85ff; fill-opacity: 0.5; stroke: #000000; stroke-linejoin: miter"/>
   </g>
   <g id="patch_19">
    <path d="M 1241.71875 249.32 
L 1271.44375 249.32 
L 1271.44375 223.816693 
L 1241.71875 223.816693 
z
" clip-path="url(#p3a3b3ee0d2)" style="fill: #2e85ff; fill-opacity: 0.5; stroke: #000000; stroke-linejoin: miter"/>
   </g>
   <g id="patch_20">
    <path d="M 1271.44375 249.32 
L 1301.16875 249.32 
L 1301.16875 219.29712 
L 1271.44375 219.29712 
z
" clip-path="url(#p3a3b3ee0d2)" style="fill: #2e85ff; fill-opacity: 0.5; stroke: #000000; stroke-linejoin: miter"/>
   </g>
   <g id="patch_21">
    <path d="M 1301.16875 249.32 
L 1330.89375 249.32 
L 1330.89375 215.746027 
L 1301.16875 215.746027 
z
" clip-path="url(#p3a3b3ee0d2)" style="fill: #2e85ff; fill-opacity: 0.5; stroke: #000000; stroke-linejoin: miter"/>
   </g>
   <g id="patch_22">
    <path d="M 1330.89375 249.32 
L 1360.61875 249.32 
L 1360.61875 202.510133 
L 1330.89375 202.510133 
z
" clip-path="url(#p3a3b3ee0d2)" style="fill: #2e85ff; fill-opacity: 0.5; stroke: #000000; stroke-linejoin: miter"/>
   </g>
   <g id="patch_23">
    <path d="M 1360.61875 249.32 
L 1390.34375 249.32 
L 1390.34375 89.5208 
L 1360.61875 89.5208 
z
" clip-path="url(#p3a3b3ee0d2)" style="fill: #2e85ff; fill-opacity: 0.5; stroke: #000000; stroke-linejoin: miter"/>
   </g>
   <g id="patch_24">
    <path d="M 647.21875 249.32 
L 676.94375 249.32 
L 676.94375 249.32 
L 647.21875 249.32 
z
" clip-path="url(#p3a3b3ee0d2)" style="fill: #2e85ff; fill-opacity: 0.5; stroke: #000000; stroke-linejoin: miter"/>
   </g>
   <g id="patch_25">
    <path d="M 676.94375 249.32 
L 706.66875 249.32 
L 706.66875 244.800427 
L 676.94375 244.800427 
z
" clip-path="url(#p3a3b3ee0d2)" style="fill: #2e85ff; fill-opacity: 0.5; stroke: #000000; stroke-linejoin: miter"/>
   </g>
   <g id="patch_26">
    <path d="M 706.66875 249.32 
L 736.39375 249.32 
L 736.39375 199.92752 
L 706.66875 199.92752 
z
" clip-path="url(#p3a3b3ee0d2)" style="fill: #2e85ff; fill-opacity: 0.5; stroke: #000000; stroke-linejoin: miter"/>
   </g>
   <g id="patch_27">
    <path d="M 736.39375 249.32 
L 766.11875 249.32 
L 766.11875 173.132907 
L 736.39375 173.132907 
z
" clip-path="url(#p3a3b3ee0d2)" style="fill: #2e85ff; fill-opacity: 0.5; stroke: #000000; stroke-linejoin: miter"/>
   </g>
   <g id="patch_28">
    <path d="M 766.11875 249.32 
L 795.84375 249.32 
L 795.84375 217.36016 
L 766.11875 217.36016 
z
" clip-path="url(#p3a3b3ee0d2)" style="fill: #2e85ff; fill-opacity: 0.5; stroke: #000000; stroke-linejoin: miter"/>
   </g>
   <g id="patch_29">
    <path d="M 795.84375 249.32 
L 825.56875 249.32 
L 825.56875 219.942773 
L 795.84375 219.942773 
z
" clip-path="url(#p3a3b3ee0d2)" style="fill: #2e85ff; fill-opacity: 0.5; stroke: #000000; stroke-linejoin: miter"/>
   </g>
   <g id="patch_30">
    <path d="M 825.56875 249.32 
L 855.29375 249.32 
L 855.29375 230.273227 
L 825.56875 230.273227 
z
" clip-path="url(#p3a3b3ee0d2)" style="fill: #2e85ff; fill-opacity: 0.5; stroke: #000000; stroke-linejoin: miter"/>
   </g>
   <g id="patch_31">
    <path d="M 855.29375 249.32 
L 885.01875 249.32 
L 885.01875 224.462347 
L 855.29375 224.462347 
z
" clip-path="url(#p3a3b3ee0d2)" style="fill: #2e85ff; fill-opacity: 0.5; stroke: #000000; stroke-linejoin: miter"/>
   </g>
   <g id="patch_32">
    <path d="M 885.01875 249.32 
L 914.74375 249.32 
L 914.74375 220.588427 
L 885.01875 220.588427 
z
" clip-path="url(#p3a3b3ee0d2)" style="fill: #2e85ff; fill-opacity: 0.5; stroke: #000000; stroke-linejoin: miter"/>
   </g>
   <g id="patch_33">
    <path d="M 914.74375 249.32 
L 944.46875 249.32 
L 944.46875 111.473013 
L 914.74375 111.473013 
z
" clip-path="url(#p3a3b3ee0d2)" style="fill: #2e85ff; fill-opacity: 0.5; stroke: #000000; stroke-linejoin: miter"/>
   </g>
   <g id="patch_34">
    <path d="M 944.46875 249.32 
L 1093.09375 249.32 
L 1093.09375 249.32 
L 944.46875 249.32 
z
" clip-path="url(#p3a3b3ee0d2)" style="fill: #2e85ff; fill-opacity: 0.5; stroke: #000000; stroke-linejoin: miter"/>
   </g>
   <g id="patch_35">
    <path d="M 1093.09375 249.32 
L 1122.81875 249.32 
L 1122.81875 249.32 
L 1093.09375 249.32 
z
" clip-path="url(#p3a3b3ee0d2)" style="fill: #2e85ff; fill-opacity: 0.5; stroke: #000000; stroke-linejoin: miter"/>
   </g>
   <g id="patch_36">
    <path d="M 1122.81875 249.32 
L 1152.54375 249.32 
L 1152.54375 249.32 
L 1122.81875 249.32 
z
" clip-path="url(#p3a3b3ee0d2)" style="fill: #2e85ff; fill-opacity: 0.5; stroke: #000000; stroke-linejoin: miter"/>
   </g>
   <g id="patch_37">
    <path d="M 1152.54375 249.32 
L 1182.26875 249.32 
L 1182.26875 249.32 
L 1152.54375 249.32 
z
" clip-path="url(#p3a3b3ee0d2)" style="fill: #2e85ff; fill-opacity: 0.5; stroke: #000000; stroke-linejoin: miter"/>
   </g>
   <g id="patch_38">
    <path d="M 1182.26875 249.32 
L 1211.99375 249.32 
L 1211.99375 249.32 
L 1182.26875 249.32 
z
" clip-path="url(#p3a3b3ee0d2)" style="fill: #2e85ff; fill-opacity: 0.5; stroke: #000000; stroke-linejoin: miter"/>
   </g>
   <g id="patch_39">
    <path d="M 1211.99375 249.32 
L 1241.71875 249.32 
L 1241.71875 249.32 
L 1211.99375 249.32 
z
" clip-path="url(#p3a3b3ee0d2)" style="fill: #2e85ff; fill-opacity: 0.5; stroke: #000000; stroke-linejoin: miter"/>
   </g>
   <g id="patch_40">
    <path d="M 1241.71875 249.32 
L 1271.44375 249.32 
L 1271.44375 249.32 
L 1241.71875 249.32 
z
" clip-path="url(#p3a3b3ee0d2)" style="fill: #2e85ff; fill-opacity: 0.5; stroke: #000000; stroke-linejoin: miter"/>
   </g>
   <g id="patch_41">
    <path d="M 1271.44375 249.32 
L 1301.16875 249.32 
L 1301.16875 249.32 
L 1271.44375 249.32 
z
" clip-path="url(#p3a3b3ee0d2)" style="fill: #2e85ff; fill-opacity: 0.5; stroke: #000000; stroke-linejoin: miter"/>
   </g>
   <g id="patch_42">
    <path d="M 1301.16875 249.32 
L 1330.89375 249.32 
L 1330.89375 249.32 
L 1301.16875 249.32 
z
" clip-path="url(#p3a3b3ee0d2)" style="fill: #2e85ff; fill-opacity: 0.5; stroke: #000000; stroke-linejoin: miter"/>
   </g>
   <g id="patch_43">
    <path d="M 1330.89375 249.32 
L 1360.61875 249.32 
L 1360.61875 249.32 
L 1330.89375 249.32 
z
" clip-path="url(#p3a3b3ee0d2)" style="fill: #2e85ff; fill-opacity: 0.5; stroke: #000000; stroke-linejoin: miter"/>
   </g>
   <g id="patch_44">
    <path d="M 1360.61875 249.32 
L 1390.34375 249.32 
L 1390.34375 249.32 
L 1360.61875 249.32 
z
" clip-path="url(#p3a3b3ee0d2)" style="fill: #2e85ff; fill-opacity: 0.5; stroke: #000000; stroke-linejoin: miter"/>
   </g>
   <g id="PathCollection_1">
    <defs>
     <path id="mc106d91d1c" d="M 0 3 
C 0.795609 3 1.55874 2.683901 2.12132 2.12132 
C 2.683901 1.55874 3 0.795609 3 0 
C 3 -0.795609 2.683901 -1.55874 2.12132 -2.12132 
C 1.55874 -2.683901 0.795609 -3 0 -3 
C -0.795609 -3 -1.55874 -2.683901 -2.12132 -2.12132 
C -2.683901 -1.55874 -3 -0.795609 -3 0 
C -3 0.795609 -2.683901 1.55874 -2.12132 2.12132 
C -1.55874 2.683901 -0.795609 3 0 3 
z
" style="stroke: #2e85ff"/>
    </defs>
    <g clip-path="url(#p3a3b3ee0d2)">
     <use xlink:href="#mc106d91d1c" x="662.08125" y="249.32" style="fill: #2e85ff; stroke: #2e85ff"/>
     <use xlink:href="#mc106d91d1c" x="691.80625" y="244.800427" style="fill: #2e85ff; stroke: #2e85ff"/>
     <use xlink:href="#mc106d91d1c" x="721.53125" y="199.92752" style="fill: #2e85ff; stroke: #2e85ff"/>
     <use xlink:href="#mc106d91d1c" x="751.25625" y="173.132907" style="fill: #2e85ff; stroke: #2e85ff"/>
     <use xlink:href="#mc106d91d1c" x="780.98125" y="217.36016" style="fill: #2e85ff; stroke: #2e85ff"/>
     <use xlink:href="#mc106d91d1c" x="810.70625" y="219.942773" style="fill: #2e85ff; stroke: #2e85ff"/>
     <use xlink:href="#mc106d91d1c" x="840.43125" y="230.273227" style="fill: #2e85ff; stroke: #2e85ff"/>
     <use xlink:href="#mc106d91d1c" x="870.15625" y="224.462347" style="fill: #2e85ff; stroke: #2e85ff"/>
     <use xlink:href="#mc106d91d1c" x="899.88125" y="220.588427" style="fill: #2e85ff; stroke: #2e85ff"/>
     <use xlink:href="#mc106d91d1c" x="929.60625" y="111.473013" style="fill: #2e85ff; stroke: #2e85ff"/>
    </g>
   </g>
   <g id="PathCollection_2">
    <g clip-path="url(#p3a3b3ee0d2)">
     <use xlink:href="#mc106d91d1c" x="1107.95625" y="241.894987" style="fill: #2e85ff; stroke: #2e85ff"/>
     <use xlink:href="#mc106d91d1c" x="1137.68125" y="226.722133" style="fill: #2e85ff; stroke: #2e85ff"/>
     <use xlink:href="#mc106d91d1c" x="1167.40625" y="222.525387" style="fill: #2e85ff; stroke: #2e85ff"/>
     <use xlink:href="#mc106d91d1c" x="1197.13125" y="224.785173" style="fill: #2e85ff; stroke: #2e85ff"/>
     <use xlink:href="#mc106d91d1c" x="1226.85625" y="224.462347" style="fill: #2e85ff; stroke: #2e85ff"/>
     <use xlink:href="#mc106d91d1c" x="1256.58125" y="223.816693" style="fill: #2e85ff; stroke: #2e85ff"/>
     <use xlink:href="#mc106d91d1c" x="1286.30625" y="219.29712" style="fill: #2e85ff; stroke: #2e85ff"/>
     <use xlink:href="#mc106d91d1c" x="1316.03125" y="215.746027" style="fill: #2e85ff; stroke: #2e85ff"/>
     <use xlink:href="#mc106d91d1c" x="1345.75625" y="202.510133" style="fill: #2e85ff; stroke: #2e85ff"/>
     <use xlink:href="#mc106d91d1c" x="1375.48125" y="89.5208" style="fill: #2e85ff; stroke: #2e85ff"/>
    </g>
   </g>
   <g id="matplotlib.axis_1">
    <g id="xtick_1">
     <g id="line2d_1">
      <defs>
       <path id="m550e18bed5" d="M 0 0 
L 0 3.5 
" style="stroke: #000000; stroke-width: 0.8"/>
      </defs>
      <g>
       <use xlink:href="#m550e18bed5" x="647.21875" y="249.32" style="stroke: #000000; stroke-width: 0.8"/>
      </g>
     </g>
     <g id="text_1">
      <!-- 0.0 -->
      <g transform="translate(637.676875 265.438125) scale(0.12 -0.12)">
       <defs>
        <path id="DejaVuSans-30" d="M 2034 4250 
Q 1547 4250 1301 3770 
Q 1056 3291 1056 2328 
Q 1056 1369 1301 889 
Q 1547 409 2034 409 
Q 2525 409 2770 889 
Q 3016 1369 3016 2328 
Q 3016 3291 2770 3770 
Q 2525 4250 2034 4250 
z
M 2034 4750 
Q 2819 4750 3233 4129 
Q 3647 3509 3647 2328 
Q 3647 1150 3233 529 
Q 2819 -91 2034 -91 
Q 1250 -91 836 529 
Q 422 1150 422 2328 
Q 422 3509 836 4129 
Q 1250 4750 2034 4750 
z
" transform="scale(0.015625)"/>
        <path id="DejaVuSans-2e" d="M 684 794 
L 1344 794 
L 1344 0 
L 684 0 
L 684 794 
z
" transform="scale(0.015625)"/>
       </defs>
       <use xlink:href="#DejaVuSans-30"/>
       <use xlink:href="#DejaVuSans-2e" x="63.623047"/>
       <use xlink:href="#DejaVuSans-30" x="95.410156"/>
      </g>
     </g>
    </g>
    <g id="xtick_2">
     <g id="line2d_2">
      <g>
       <use xlink:href="#m550e18bed5" x="795.84375" y="249.32" style="stroke: #000000; stroke-width: 0.8"/>
      </g>
     </g>
     <g id="text_2">
      <!-- 0.5 -->
      <g transform="translate(786.301875 265.438125) scale(0.12 -0.12)">
       <defs>
        <path id="DejaVuSans-35" d="M 691 4666 
L 3169 4666 
L 3169 4134 
L 1269 4134 
L 1269 2991 
Q 1406 3038 1543 3061 
Q 1681 3084 1819 3084 
Q 2600 3084 3056 2656 
Q 3513 2228 3513 1497 
Q 3513 744 3044 326 
Q 2575 -91 1722 -91 
Q 1428 -91 1123 -41 
Q 819 9 494 109 
L 494 744 
Q 775 591 1075 516 
Q 1375 441 1709 441 
Q 2250 441 2565 725 
Q 2881 1009 2881 1497 
Q 2881 1984 2565 2268 
Q 2250 2553 1709 2553 
Q 1456 2553 1204 2497 
Q 953 2441 691 2322 
L 691 4666 
z
" transform="scale(0.015625)"/>
       </defs>
       <use xlink:href="#DejaVuSans-30"/>
       <use xlink:href="#DejaVuSans-2e" x="63.623047"/>
       <use xlink:href="#DejaVuSans-35" x="95.410156"/>
      </g>
     </g>
    </g>
    <g id="xtick_3">
     <g id="line2d_3">
      <g>
       <use xlink:href="#m550e18bed5" x="944.46875" y="249.32" style="stroke: #000000; stroke-width: 0.8"/>
      </g>
     </g>
     <g id="text_3">
      <!-- 1.0 -->
      <g transform="translate(934.926875 265.438125) scale(0.12 -0.12)">
       <defs>
        <path id="DejaVuSans-31" d="M 794 531 
L 1825 531 
L 1825 4091 
L 703 3866 
L 703 4441 
L 1819 4666 
L 2450 4666 
L 2450 531 
L 3481 531 
L 3481 0 
L 794 0 
L 794 531 
z
" transform="scale(0.015625)"/>
       </defs>
       <use xlink:href="#DejaVuSans-31"/>
       <use xlink:href="#DejaVuSans-2e" x="63.623047"/>
       <use xlink:href="#DejaVuSans-30" x="95.410156"/>
      </g>
     </g>
    </g>
    <g id="xtick_4">
     <g id="line2d_4">
      <g>
       <use xlink:href="#m550e18bed5" x="1093.09375" y="249.32" style="stroke: #000000; stroke-width: 0.8"/>
      </g>
     </g>
     <g id="text_4">
      <!-- 0.0 -->
      <g transform="translate(1083.551875 265.438125) scale(0.12 -0.12)">
       <use xlink:href="#DejaVuSans-30"/>
       <use xlink:href="#DejaVuSans-2e" x="63.623047"/>
       <use xlink:href="#DejaVuSans-30" x="95.410156"/>
      </g>
     </g>
    </g>
    <g id="xtick_5">
     <g id="line2d_5">
      <g>
       <use xlink:href="#m550e18bed5" x="1241.71875" y="249.32" style="stroke: #000000; stroke-width: 0.8"/>
      </g>
     </g>
     <g id="text_5">
      <!-- 0.5 -->
      <g transform="translate(1232.176875 265.438125) scale(0.12 -0.12)">
       <use xlink:href="#DejaVuSans-30"/>
       <use xlink:href="#DejaVuSans-2e" x="63.623047"/>
       <use xlink:href="#DejaVuSans-35" x="95.410156"/>
      </g>
     </g>
    </g>
    <g id="xtick_6">
     <g id="line2d_6">
      <g>
       <use xlink:href="#m550e18bed5" x="1390.34375" y="249.32" style="stroke: #000000; stroke-width: 0.8"/>
      </g>
     </g>
     <g id="text_6">
      <!-- 1.0 -->
      <g transform="translate(1380.801875 265.438125) scale(0.12 -0.12)">
       <use xlink:href="#DejaVuSans-31"/>
       <use xlink:href="#DejaVuSans-2e" x="63.623047"/>
       <use xlink:href="#DejaVuSans-30" x="95.410156"/>
      </g>
     </g>
    </g>
    <g id="text_7">
     <!-- Predicted self assembly probability -->
     <g transform="translate(631.409687 281.051875) scale(0.12 -0.12)">
      <defs>
       <path id="DejaVuSans-50" d="M 1259 4147 
L 1259 2394 
L 2053 2394 
Q 2494 2394 2734 2622 
Q 2975 2850 2975 3272 
Q 2975 3691 2734 3919 
Q 2494 4147 2053 4147 
L 1259 4147 
z
M 628 4666 
L 2053 4666 
Q 2838 4666 3239 4311 
Q 3641 3956 3641 3272 
Q 3641 2581 3239 2228 
Q 2838 1875 2053 1875 
L 1259 1875 
L 1259 0 
L 628 0 
L 628 4666 
z
" transform="scale(0.015625)"/>
       <path id="DejaVuSans-72" d="M 2631 2963 
Q 2534 3019 2420 3045 
Q 2306 3072 2169 3072 
Q 1681 3072 1420 2755 
Q 1159 2438 1159 1844 
L 1159 0 
L 581 0 
L 581 3500 
L 1159 3500 
L 1159 2956 
Q 1341 3275 1631 3429 
Q 1922 3584 2338 3584 
Q 2397 3584 2469 3576 
Q 2541 3569 2628 3553 
L 2631 2963 
z
" transform="scale(0.015625)"/>
       <path id="DejaVuSans-65" d="M 3597 1894 
L 3597 1613 
L 953 1613 
Q 991 1019 1311 708 
Q 1631 397 2203 397 
Q 2534 397 2845 478 
Q 3156 559 3463 722 
L 3463 178 
Q 3153 47 2828 -22 
Q 2503 -91 2169 -91 
Q 1331 -91 842 396 
Q 353 884 353 1716 
Q 353 2575 817 3079 
Q 1281 3584 2069 3584 
Q 2775 3584 3186 3129 
Q 3597 2675 3597 1894 
z
M 3022 2063 
Q 3016 2534 2758 2815 
Q 2500 3097 2075 3097 
Q 1594 3097 1305 2825 
Q 1016 2553 972 2059 
L 3022 2063 
z
" transform="scale(0.015625)"/>
       <path id="DejaVuSans-64" d="M 2906 2969 
L 2906 4863 
L 3481 4863 
L 3481 0 
L 2906 0 
L 2906 525 
Q 2725 213 2448 61 
Q 2172 -91 1784 -91 
Q 1150 -91 751 415 
Q 353 922 353 1747 
Q 353 2572 751 3078 
Q 1150 3584 1784 3584 
Q 2172 3584 2448 3432 
Q 2725 3281 2906 2969 
z
M 947 1747 
Q 947 1113 1208 752 
Q 1469 391 1925 391 
Q 2381 391 2643 752 
Q 2906 1113 2906 1747 
Q 2906 2381 2643 2742 
Q 2381 3103 1925 3103 
Q 1469 3103 1208 2742 
Q 947 2381 947 1747 
z
" transform="scale(0.015625)"/>
       <path id="DejaVuSans-69" d="M 603 3500 
L 1178 3500 
L 1178 0 
L 603 0 
L 603 3500 
z
M 603 4863 
L 1178 4863 
L 1178 4134 
L 603 4134 
L 603 4863 
z
" transform="scale(0.015625)"/>
       <path id="DejaVuSans-63" d="M 3122 3366 
L 3122 2828 
Q 2878 2963 2633 3030 
Q 2388 3097 2138 3097 
Q 1578 3097 1268 2742 
Q 959 2388 959 1747 
Q 959 1106 1268 751 
Q 1578 397 2138 397 
Q 2388 397 2633 464 
Q 2878 531 3122 666 
L 3122 134 
Q 2881 22 2623 -34 
Q 2366 -91 2075 -91 
Q 1284 -91 818 406 
Q 353 903 353 1747 
Q 353 2603 823 3093 
Q 1294 3584 2113 3584 
Q 2378 3584 2631 3529 
Q 2884 3475 3122 3366 
z
" transform="scale(0.015625)"/>
       <path id="DejaVuSans-74" d="M 1172 4494 
L 1172 3500 
L 2356 3500 
L 2356 3053 
L 1172 3053 
L 1172 1153 
Q 1172 725 1289 603 
Q 1406 481 1766 481 
L 2356 481 
L 2356 0 
L 1766 0 
Q 1100 0 847 248 
Q 594 497 594 1153 
L 594 3053 
L 172 3053 
L 172 3500 
L 594 3500 
L 594 4494 
L 1172 4494 
z
" transform="scale(0.015625)"/>
       <path id="DejaVuSans-20" transform="scale(0.015625)"/>
       <path id="DejaVuSans-73" d="M 2834 3397 
L 2834 2853 
Q 2591 2978 2328 3040 
Q 2066 3103 1784 3103 
Q 1356 3103 1142 2972 
Q 928 2841 928 2578 
Q 928 2378 1081 2264 
Q 1234 2150 1697 2047 
L 1894 2003 
Q 2506 1872 2764 1633 
Q 3022 1394 3022 966 
Q 3022 478 2636 193 
Q 2250 -91 1575 -91 
Q 1294 -91 989 -36 
Q 684 19 347 128 
L 347 722 
Q 666 556 975 473 
Q 1284 391 1588 391 
Q 1994 391 2212 530 
Q 2431 669 2431 922 
Q 2431 1156 2273 1281 
Q 2116 1406 1581 1522 
L 1381 1569 
Q 847 1681 609 1914 
Q 372 2147 372 2553 
Q 372 3047 722 3315 
Q 1072 3584 1716 3584 
Q 2034 3584 2315 3537 
Q 2597 3491 2834 3397 
z
" transform="scale(0.015625)"/>
       <path id="DejaVuSans-6c" d="M 603 4863 
L 1178 4863 
L 1178 0 
L 603 0 
L 603 4863 
z
" transform="scale(0.015625)"/>
       <path id="DejaVuSans-66" d="M 2375 4863 
L 2375 4384 
L 1825 4384 
Q 1516 4384 1395 4259 
Q 1275 4134 1275 3809 
L 1275 3500 
L 2222 3500 
L 2222 3053 
L 1275 3053 
L 1275 0 
L 697 0 
L 697 3053 
L 147 3053 
L 147 3500 
L 697 3500 
L 697 3744 
Q 697 4328 969 4595 
Q 1241 4863 1831 4863 
L 2375 4863 
z
" transform="scale(0.015625)"/>
       <path id="DejaVuSans-61" d="M 2194 1759 
Q 1497 1759 1228 1600 
Q 959 1441 959 1056 
Q 959 750 1161 570 
Q 1363 391 1709 391 
Q 2188 391 2477 730 
Q 2766 1069 2766 1631 
L 2766 1759 
L 2194 1759 
z
M 3341 1997 
L 3341 0 
L 2766 0 
L 2766 531 
Q 2569 213 2275 61 
Q 1981 -91 1556 -91 
Q 1019 -91 701 211 
Q 384 513 384 1019 
Q 384 1609 779 1909 
Q 1175 2209 1959 2209 
L 2766 2209 
L 2766 2266 
Q 2766 2663 2505 2880 
Q 2244 3097 1772 3097 
Q 1472 3097 1187 3025 
Q 903 2953 641 2809 
L 641 3341 
Q 956 3463 1253 3523 
Q 1550 3584 1831 3584 
Q 2591 3584 2966 3190 
Q 3341 2797 3341 1997 
z
" transform="scale(0.015625)"/>
       <path id="DejaVuSans-6d" d="M 3328 2828 
Q 3544 3216 3844 3400 
Q 4144 3584 4550 3584 
Q 5097 3584 5394 3201 
Q 5691 2819 5691 2113 
L 5691 0 
L 5113 0 
L 5113 2094 
Q 5113 2597 4934 2840 
Q 4756 3084 4391 3084 
Q 3944 3084 3684 2787 
Q 3425 2491 3425 1978 
L 3425 0 
L 2847 0 
L 2847 2094 
Q 2847 2600 2669 2842 
Q 2491 3084 2119 3084 
Q 1678 3084 1418 2786 
Q 1159 2488 1159 1978 
L 1159 0 
L 581 0 
L 581 3500 
L 1159 3500 
L 1159 2956 
Q 1356 3278 1631 3431 
Q 1906 3584 2284 3584 
Q 2666 3584 2933 3390 
Q 3200 3197 3328 2828 
z
" transform="scale(0.015625)"/>
       <path id="DejaVuSans-62" d="M 3116 1747 
Q 3116 2381 2855 2742 
Q 2594 3103 2138 3103 
Q 1681 3103 1420 2742 
Q 1159 2381 1159 1747 
Q 1159 1113 1420 752 
Q 1681 391 2138 391 
Q 2594 391 2855 752 
Q 3116 1113 3116 1747 
z
M 1159 2969 
Q 1341 3281 1617 3432 
Q 1894 3584 2278 3584 
Q 2916 3584 3314 3078 
Q 3713 2572 3713 1747 
Q 3713 922 3314 415 
Q 2916 -91 2278 -91 
Q 1894 -91 1617 61 
Q 1341 213 1159 525 
L 1159 0 
L 581 0 
L 581 4863 
L 1159 4863 
L 1159 2969 
z
" transform="scale(0.015625)"/>
       <path id="DejaVuSans-79" d="M 2059 -325 
Q 1816 -950 1584 -1140 
Q 1353 -1331 966 -1331 
L 506 -1331 
L 506 -850 
L 844 -850 
Q 1081 -850 1212 -737 
Q 1344 -625 1503 -206 
L 1606 56 
L 191 3500 
L 800 3500 
L 1894 763 
L 2988 3500 
L 3597 3500 
L 2059 -325 
z
" transform="scale(0.015625)"/>
       <path id="DejaVuSans-70" d="M 1159 525 
L 1159 -1331 
L 581 -1331 
L 581 3500 
L 1159 3500 
L 1159 2969 
Q 1341 3281 1617 3432 
Q 1894 3584 2278 3584 
Q 2916 3584 3314 3078 
Q 3713 2572 3713 1747 
Q 3713 922 3314 415 
Q 2916 -91 2278 -91 
Q 1894 -91 1617 61 
Q 1341 213 1159 525 
z
M 3116 1747 
Q 3116 2381 2855 2742 
Q 2594 3103 2138 3103 
Q 1681 3103 1420 2742 
Q 1159 2381 1159 1747 
Q 1159 1113 1420 752 
Q 1681 391 2138 391 
Q 2594 391 2855 752 
Q 3116 1113 3116 1747 
z
" transform="scale(0.015625)"/>
       <path id="DejaVuSans-6f" d="M 1959 3097 
Q 1497 3097 1228 2736 
Q 959 2375 959 1747 
Q 959 1119 1226 758 
Q 1494 397 1959 397 
Q 2419 397 2687 759 
Q 2956 1122 2956 1747 
Q 2956 2369 2687 2733 
Q 2419 3097 1959 3097 
z
M 1959 3584 
Q 2709 3584 3137 3096 
Q 3566 2609 3566 1747 
Q 3566 888 3137 398 
Q 2709 -91 1959 -91 
Q 1206 -91 779 398 
Q 353 888 353 1747 
Q 353 2609 779 3096 
Q 1206 3584 1959 3584 
z
" transform="scale(0.015625)"/>
      </defs>
      <use xlink:href="#DejaVuSans-50"/>
      <use xlink:href="#DejaVuSans-72" x="58.552734"/>
      <use xlink:href="#DejaVuSans-65" x="97.416016"/>
      <use xlink:href="#DejaVuSans-64" x="158.939453"/>
      <use xlink:href="#DejaVuSans-69" x="222.416016"/>
      <use xlink:href="#DejaVuSans-63" x="250.199219"/>
      <use xlink:href="#DejaVuSans-74" x="305.179688"/>
      <use xlink:href="#DejaVuSans-65" x="344.388672"/>
      <use xlink:href="#DejaVuSans-64" x="405.912109"/>
      <use xlink:href="#DejaVuSans-20" x="469.388672"/>
      <use xlink:href="#DejaVuSans-73" x="501.175781"/>
      <use xlink:href="#DejaVuSans-65" x="553.275391"/>
      <use xlink:href="#DejaVuSans-6c" x="614.798828"/>
      <use xlink:href="#DejaVuSans-66" x="642.582031"/>
      <use xlink:href="#DejaVuSans-20" x="677.787109"/>
      <use xlink:href="#DejaVuSans-61" x="709.574219"/>
      <use xlink:href="#DejaVuSans-73" x="770.853516"/>
      <use xlink:href="#DejaVuSans-73" x="822.953125"/>
      <use xlink:href="#DejaVuSans-65" x="875.052734"/>
      <use xlink:href="#DejaVuSans-6d" x="936.576172"/>
      <use xlink:href="#DejaVuSans-62" x="1033.988281"/>
      <use xlink:href="#DejaVuSans-6c" x="1097.464844"/>
      <use xlink:href="#DejaVuSans-79" x="1125.248047"/>
      <use xlink:href="#DejaVuSans-20" x="1184.427734"/>
      <use xlink:href="#DejaVuSans-70" x="1216.214844"/>
      <use xlink:href="#DejaVuSans-72" x="1279.691406"/>
      <use xlink:href="#DejaVuSans-6f" x="1318.554688"/>
      <use xlink:href="#DejaVuSans-62" x="1379.736328"/>
      <use xlink:href="#DejaVuSans-61" x="1443.212891"/>
      <use xlink:href="#DejaVuSans-62" x="1504.492188"/>
      <use xlink:href="#DejaVuSans-69" x="1567.96875"/>
      <use xlink:href="#DejaVuSans-6c" x="1595.751953"/>
      <use xlink:href="#DejaVuSans-69" x="1623.535156"/>
      <use xlink:href="#DejaVuSans-74" x="1651.318359"/>
      <use xlink:href="#DejaVuSans-79" x="1690.527344"/>
     </g>
    </g>
   </g>
   <g id="matplotlib.axis_2">
    <g id="ytick_1">
     <g id="line2d_7">
      <defs>
       <path id="m3defa8582e" d="M 0 0 
L -3.5 0 
" style="stroke: #000000; stroke-width: 0.8"/>
      </defs>
      <g>
       <use xlink:href="#m3defa8582e" x="52.71875" y="249.32" style="stroke: #000000; stroke-width: 0.8"/>
      </g>
     </g>
     <g id="text_8">
      <!-- 0 -->
      <g transform="translate(38.08375 253.879062) scale(0.12 -0.12)">
       <use xlink:href="#DejaVuSans-30"/>
      </g>
     </g>
    </g>
    <g id="ytick_2">
     <g id="line2d_8">
      <g>
       <use xlink:href="#m3defa8582e" x="52.71875" y="217.037333" style="stroke: #000000; stroke-width: 0.8"/>
      </g>
     </g>
     <g id="text_9">
      <!-- 100 -->
      <g transform="translate(22.81375 221.596396) scale(0.12 -0.12)">
       <use xlink:href="#DejaVuSans-31"/>
       <use xlink:href="#DejaVuSans-30" x="63.623047"/>
       <use xlink:href="#DejaVuSans-30" x="127.246094"/>
      </g>
     </g>
    </g>
    <g id="ytick_3">
     <g id="line2d_9">
      <g>
       <use xlink:href="#m3defa8582e" x="52.71875" y="184.754667" style="stroke: #000000; stroke-width: 0.8"/>
      </g>
     </g>
     <g id="text_10">
      <!-- 200 -->
      <g transform="translate(22.81375 189.313729) scale(0.12 -0.12)">
       <defs>
        <path id="DejaVuSans-32" d="M 1228 531 
L 3431 531 
L 3431 0 
L 469 0 
L 469 531 
Q 828 903 1448 1529 
Q 2069 2156 2228 2338 
Q 2531 2678 2651 2914 
Q 2772 3150 2772 3378 
Q 2772 3750 2511 3984 
Q 2250 4219 1831 4219 
Q 1534 4219 1204 4116 
Q 875 4013 500 3803 
L 500 4441 
Q 881 4594 1212 4672 
Q 1544 4750 1819 4750 
Q 2544 4750 2975 4387 
Q 3406 4025 3406 3419 
Q 3406 3131 3298 2873 
Q 3191 2616 2906 2266 
Q 2828 2175 2409 1742 
Q 1991 1309 1228 531 
z
" transform="scale(0.015625)"/>
       </defs>
       <use xlink:href="#DejaVuSans-32"/>
       <use xlink:href="#DejaVuSans-30" x="63.623047"/>
       <use xlink:href="#DejaVuSans-30" x="127.246094"/>
      </g>
     </g>
    </g>
    <g id="ytick_4">
     <g id="line2d_10">
      <g>
       <use xlink:href="#m3defa8582e" x="52.71875" y="152.472" style="stroke: #000000; stroke-width: 0.8"/>
      </g>
     </g>
     <g id="text_11">
      <!-- 300 -->
      <g transform="translate(22.81375 157.031062) scale(0.12 -0.12)">
       <defs>
        <path id="DejaVuSans-33" d="M 2597 2516 
Q 3050 2419 3304 2112 
Q 3559 1806 3559 1356 
Q 3559 666 3084 287 
Q 2609 -91 1734 -91 
Q 1441 -91 1130 -33 
Q 819 25 488 141 
L 488 750 
Q 750 597 1062 519 
Q 1375 441 1716 441 
Q 2309 441 2620 675 
Q 2931 909 2931 1356 
Q 2931 1769 2642 2001 
Q 2353 2234 1838 2234 
L 1294 2234 
L 1294 2753 
L 1863 2753 
Q 2328 2753 2575 2939 
Q 2822 3125 2822 3475 
Q 2822 3834 2567 4026 
Q 2313 4219 1838 4219 
Q 1578 4219 1281 4162 
Q 984 4106 628 3988 
L 628 4550 
Q 988 4650 1302 4700 
Q 1616 4750 1894 4750 
Q 2613 4750 3031 4423 
Q 3450 4097 3450 3541 
Q 3450 3153 3228 2886 
Q 3006 2619 2597 2516 
z
" transform="scale(0.015625)"/>
       </defs>
       <use xlink:href="#DejaVuSans-33"/>
       <use xlink:href="#DejaVuSans-30" x="63.623047"/>
       <use xlink:href="#DejaVuSans-30" x="127.246094"/>
      </g>
     </g>
    </g>
    <g id="ytick_5">
     <g id="line2d_11">
      <g>
       <use xlink:href="#m3defa8582e" x="52.71875" y="120.189333" style="stroke: #000000; stroke-width: 0.8"/>
      </g>
     </g>
     <g id="text_12">
      <!-- 400 -->
      <g transform="translate(22.81375 124.748396) scale(0.12 -0.12)">
       <defs>
        <path id="DejaVuSans-34" d="M 2419 4116 
L 825 1625 
L 2419 1625 
L 2419 4116 
z
M 2253 4666 
L 3047 4666 
L 3047 1625 
L 3713 1625 
L 3713 1100 
L 3047 1100 
L 3047 0 
L 2419 0 
L 2419 1100 
L 313 1100 
L 313 1709 
L 2253 4666 
z
" transform="scale(0.015625)"/>
       </defs>
       <use xlink:href="#DejaVuSans-34"/>
       <use xlink:href="#DejaVuSans-30" x="63.623047"/>
       <use xlink:href="#DejaVuSans-30" x="127.246094"/>
      </g>
     </g>
    </g>
    <g id="ytick_6">
     <g id="line2d_12">
      <g>
       <use xlink:href="#m3defa8582e" x="52.71875" y="87.906667" style="stroke: #000000; stroke-width: 0.8"/>
      </g>
     </g>
     <g id="text_13">
      <!-- 500 -->
      <g transform="translate(22.81375 92.465729) scale(0.12 -0.12)">
       <use xlink:href="#DejaVuSans-35"/>
       <use xlink:href="#DejaVuSans-30" x="63.623047"/>
       <use xlink:href="#DejaVuSans-30" x="127.246094"/>
      </g>
     </g>
    </g>
    <g id="ytick_7">
     <g id="line2d_13">
      <g>
       <use xlink:href="#m3defa8582e" x="52.71875" y="55.624" style="stroke: #000000; stroke-width: 0.8"/>
      </g>
     </g>
     <g id="text_14">
      <!-- 600 -->
      <g transform="translate(22.81375 60.183062) scale(0.12 -0.12)">
       <defs>
        <path id="DejaVuSans-36" d="M 2113 2584 
Q 1688 2584 1439 2293 
Q 1191 2003 1191 1497 
Q 1191 994 1439 701 
Q 1688 409 2113 409 
Q 2538 409 2786 701 
Q 3034 994 3034 1497 
Q 3034 2003 2786 2293 
Q 2538 2584 2113 2584 
z
M 3366 4563 
L 3366 3988 
Q 3128 4100 2886 4159 
Q 2644 4219 2406 4219 
Q 1781 4219 1451 3797 
Q 1122 3375 1075 2522 
Q 1259 2794 1537 2939 
Q 1816 3084 2150 3084 
Q 2853 3084 3261 2657 
Q 3669 2231 3669 1497 
Q 3669 778 3244 343 
Q 2819 -91 2113 -91 
Q 1303 -91 875 529 
Q 447 1150 447 2328 
Q 447 3434 972 4092 
Q 1497 4750 2381 4750 
Q 2619 4750 2861 4703 
Q 3103 4656 3366 4563 
z
" transform="scale(0.015625)"/>
       </defs>
       <use xlink:href="#DejaVuSans-36"/>
       <use xlink:href="#DejaVuSans-30" x="63.623047"/>
       <use xlink:href="#DejaVuSans-30" x="127.246094"/>
      </g>
     </g>
    </g>
    <g id="ytick_8">
     <g id="line2d_14">
      <g>
       <use xlink:href="#m3defa8582e" x="52.71875" y="23.341333" style="stroke: #000000; stroke-width: 0.8"/>
      </g>
     </g>
     <g id="text_15">
      <!-- 700 -->
      <g transform="translate(22.81375 27.900396) scale(0.12 -0.12)">
       <defs>
        <path id="DejaVuSans-37" d="M 525 4666 
L 3525 4666 
L 3525 4397 
L 1831 0 
L 1172 0 
L 2766 4134 
L 525 4134 
L 525 4666 
z
" transform="scale(0.015625)"/>
       </defs>
       <use xlink:href="#DejaVuSans-37"/>
       <use xlink:href="#DejaVuSans-30" x="63.623047"/>
       <use xlink:href="#DejaVuSans-30" x="127.246094"/>
      </g>
     </g>
    </g>
    <g id="text_16">
     <!-- Number of peptides -->
     <g transform="translate(16.318125 187.915937) rotate(-90) scale(0.12 -0.12)">
      <defs>
       <path id="DejaVuSans-4e" d="M 628 4666 
L 1478 4666 
L 3547 763 
L 3547 4666 
L 4159 4666 
L 4159 0 
L 3309 0 
L 1241 3903 
L 1241 0 
L 628 0 
L 628 4666 
z
" transform="scale(0.015625)"/>
       <path id="DejaVuSans-75" d="M 544 1381 
L 544 3500 
L 1119 3500 
L 1119 1403 
Q 1119 906 1312 657 
Q 1506 409 1894 409 
Q 2359 409 2629 706 
Q 2900 1003 2900 1516 
L 2900 3500 
L 3475 3500 
L 3475 0 
L 2900 0 
L 2900 538 
Q 2691 219 2414 64 
Q 2138 -91 1772 -91 
Q 1169 -91 856 284 
Q 544 659 544 1381 
z
M 1991 3584 
L 1991 3584 
z
" transform="scale(0.015625)"/>
      </defs>
      <use xlink:href="#DejaVuSans-4e"/>
      <use xlink:href="#DejaVuSans-75" x="74.804688"/>
      <use xlink:href="#DejaVuSans-6d" x="138.183594"/>
      <use xlink:href="#DejaVuSans-62" x="235.595703"/>
      <use xlink:href="#DejaVuSans-65" x="299.072266"/>
      <use xlink:href="#DejaVuSans-72" x="360.595703"/>
      <use xlink:href="#DejaVuSans-20" x="401.708984"/>
      <use xlink:href="#DejaVuSans-6f" x="433.496094"/>
      <use xlink:href="#DejaVuSans-66" x="494.677734"/>
      <use xlink:href="#DejaVuSans-20" x="529.882812"/>
      <use xlink:href="#DejaVuSans-70" x="561.669922"/>
      <use xlink:href="#DejaVuSans-65" x="625.146484"/>
      <use xlink:href="#DejaVuSans-70" x="686.669922"/>
      <use xlink:href="#DejaVuSans-74" x="750.146484"/>
      <use xlink:href="#DejaVuSans-69" x="789.355469"/>
      <use xlink:href="#DejaVuSans-64" x="817.138672"/>
      <use xlink:href="#DejaVuSans-65" x="880.615234"/>
      <use xlink:href="#DejaVuSans-73" x="942.138672"/>
     </g>
    </g>
   </g>
   <g id="line2d_15">
    <path d="M 683.122726 249.32 
L 1052.720562 249.222155 
L 1063.382038 248.970558 
L 1070.489689 248.592971 
L 1077.59734 247.93537 
L 1084.704991 246.894956 
L 1088.258816 246.204793 
L 1091.812641 245.392945 
L 1095.366467 244.458087 
L 1102.474117 242.236822 
L 1109.581768 239.620861 
L 1120.243244 235.280766 
L 1127.350895 232.388539 
L 1134.458545 229.73522 
L 1138.012371 228.556629 
L 1141.566196 227.502091 
L 1145.120021 226.585102 
L 1148.673847 225.81373 
L 1152.227672 225.190156 
L 1155.781497 224.710663 
L 1159.335323 224.366096 
L 1166.442974 224.023722 
L 1173.550624 224.022444 
L 1184.2121 224.338381 
L 1198.427402 224.789722 
L 1209.088878 224.899489 
L 1219.750354 224.727461 
L 1230.41183 224.271208 
L 1241.073306 223.581971 
L 1258.842433 222.151583 
L 1276.611559 220.767429 
L 1290.826861 219.632809 
L 1297.934511 218.809284 
L 1305.042162 217.618081 
L 1308.595987 216.837599 
L 1312.149813 215.909756 
L 1315.703638 214.815571 
L 1319.257464 213.533165 
L 1322.811289 212.035488 
L 1326.365114 210.288267 
L 1329.91894 208.248912 
L 1333.472765 205.867212 
L 1337.02659 203.088667 
L 1340.580416 199.86107 
L 1344.134241 196.144572 
L 1347.688066 191.924847 
L 1351.241892 187.22812 
L 1354.795717 182.135923 
L 1361.903368 171.430662 
L 1365.457193 166.325539 
L 1369.011018 161.820021 
L 1372.564844 158.275985 
L 1376.118669 156.041104 
L 1379.672494 155.406841 
L 1383.22632 156.568332 
L 1386.780145 159.593288 
L 1390.33397 164.406024 
L 1390.33397 164.406024 
" clip-path="url(#p3a3b3ee0d2)" style="fill: none; stroke: #2e85ff; stroke-width: 1.5; stroke-linecap: square"/>
   </g>
   <g id="line2d_16">
    <path d="M 683.122726 242.821938 
L 686.676552 240.952962 
L 690.230377 238.69334 
L 693.784202 236.009163 
L 697.338028 232.879475 
L 700.891853 229.301897 
L 704.445678 225.298211 
L 707.999504 220.91916 
L 715.107154 211.398723 
L 722.214805 201.772216 
L 725.76863 197.342753 
L 729.322456 193.408772 
L 732.876281 190.134067 
L 736.430106 187.652143 
L 739.983932 186.053881 
L 743.537757 185.379189 
L 747.091582 185.613833 
L 750.645408 186.691838 
L 754.199233 188.503002 
L 757.753058 190.904339 
L 761.306884 193.733758 
L 768.414535 200.016335 
L 771.96836 203.169354 
L 775.522185 206.167937 
L 779.076011 208.926477 
L 782.629836 211.390102 
L 786.183661 213.533232 
L 789.737487 215.356246 
L 793.291312 216.880819 
L 796.845137 218.144437 
L 800.398963 219.194479 
L 807.506613 220.857531 
L 818.168089 222.886271 
L 828.829565 224.765697 
L 835.937216 225.804067 
L 843.044867 226.47391 
L 846.598692 226.631115 
L 850.152518 226.660727 
L 853.706343 226.563157 
L 857.260168 226.342688 
L 860.813994 226.004984 
L 864.367819 225.554184 
L 867.921644 224.989851 
L 871.47547 224.304007 
L 875.029295 223.478458 
L 878.58312 222.482705 
L 882.136946 221.272826 
L 885.690771 219.791897 
L 889.244596 217.972594 
L 892.798422 215.742644 
L 896.352247 213.033562 
L 899.906072 209.79267 
L 903.459898 205.997688 
L 907.013723 201.672367 
L 910.567548 196.900734 
L 921.229025 181.802802 
L 924.78285 177.458694 
L 928.336675 174.024885 
L 931.890501 171.827577 
L 935.444326 171.128871 
L 938.998151 172.090427 
L 942.551977 174.747858 
L 946.105802 179.000979 
L 949.659627 184.622296 
L 953.213453 191.282728 
L 960.321103 206.134729 
L 963.874929 213.531775 
L 967.428754 220.458409 
L 970.982579 226.676489 
L 974.536405 232.041809 
L 978.09023 236.500008 
L 981.644055 240.072382 
L 985.197881 242.83584 
L 988.751706 244.901264 
L 992.305531 246.393762 
L 995.859357 247.437035 
L 999.413182 248.142786 
L 1002.967008 248.604987 
L 1006.520833 248.898123 
L 1013.628484 249.185394 
L 1024.28996 249.300506 
L 1070.489689 249.32 
L 1390.33397 249.32 
L 1390.33397 249.32 
" clip-path="url(#p3a3b3ee0d2)" style="fill: none; stroke: #2e85ff; stroke-width: 1.5; stroke-linecap: square"/>
   </g>
   <g id="patch_45">
    <path d="M 52.71875 249.32 
L 52.71875 7.2 
" style="fill: none; stroke: #000000; stroke-width: 0.8; stroke-linejoin: miter; stroke-linecap: square"/>
   </g>
   <g id="patch_46">
    <path d="M 52.71875 249.32 
L 1420.06875 249.32 
" style="fill: none; stroke: #000000; stroke-width: 0.8; stroke-linejoin: miter; stroke-linecap: square"/>
   </g>
  </g>
 </g>
 <defs>
  <clipPath id="p3a3b3ee0d2">
   <rect x="52.71875" y="7.2" width="1367.35" height="242.12"/>
  </clipPath>
 </defs>
</svg>
