<?xml version="1.0" encoding="utf-8" standalone="no"?>
<!DOCTYPE svg PUBLIC "-//W3C//DTD SVG 1.1//EN"
  "http://www.w3.org/Graphics/SVG/1.1/DTD/svg11.dtd">
<svg xmlns:xlink="http://www.w3.org/1999/xlink" width="1427.26875pt" height="301.156932pt" viewBox="0 0 1427.26875 301.156932" xmlns="http://www.w3.org/2000/svg" version="1.1">
 <metadata>
  <rdf:RDF xmlns:dc="http://purl.org/dc/elements/1.1/" xmlns:cc="http://creativecommons.org/ns#" xmlns:rdf="http://www.w3.org/1999/02/22-rdf-syntax-ns#">
   <cc:Work>
    <dc:type rdf:resource="http://purl.org/dc/dcmitype/StillImage"/>
    <dc:date>2024-09-24T11:16:50.932380</dc:date>
    <dc:format>image/svg+xml</dc:format>
    <dc:creator>
     <cc:Agent>
      <dc:title>Matplotlib v3.7.0, https://matplotlib.org/</dc:title>
     </cc:Agent>
    </dc:creator>
   </cc:Work>
  </rdf:RDF>
 </metadata>
 <defs>
  <style type="text/css">*{stroke-linejoin: round; stroke-linecap: butt}</style>
 </defs>
 <g id="figure_1">
  <g id="patch_1">
   <path d="M 0 301.156932 
L 1427.26875 301.156932 
L 1427.26875 0 
L 0 0 
z
" style="fill: #ffffff"/>
  </g>
  <g id="axes_1">
   <g id="patch_2">
    <path d="M 52.71875 259.729432 
L 1420.06875 259.729432 
L 1420.06875 17.609432 
L 52.71875 17.609432 
z
" style="fill: #ffffff"/>
   </g>
   <g id="patch_3">
    <path d="M 201.34375 259.729432 
L 231.06875 259.729432 
L 231.06875 259.729432 
L 201.34375 259.729432 
z
" clip-path="url(#p8b0c71f5cd)" style="fill: #2e85ff; fill-opacity: 0.5; stroke: #000000; stroke-linejoin: miter"/>
   </g>
   <g id="patch_4">
    <path d="M 231.06875 259.729432 
L 260.79375 259.729432 
L 260.79375 259.729432 
L 231.06875 259.729432 
z
" clip-path="url(#p8b0c71f5cd)" style="fill: #2e85ff; fill-opacity: 0.5; stroke: #000000; stroke-linejoin: miter"/>
   </g>
   <g id="patch_5">
    <path d="M 260.79375 259.729432 
L 290.51875 259.729432 
L 290.51875 259.729432 
L 260.79375 259.729432 
z
" clip-path="url(#p8b0c71f5cd)" style="fill: #2e85ff; fill-opacity: 0.5; stroke: #000000; stroke-linejoin: miter"/>
   </g>
   <g id="patch_6">
    <path d="M 290.51875 259.729432 
L 320.24375 259.729432 
L 320.24375 259.729432 
L 290.51875 259.729432 
z
" clip-path="url(#p8b0c71f5cd)" style="fill: #2e85ff; fill-opacity: 0.5; stroke: #000000; stroke-linejoin: miter"/>
   </g>
   <g id="patch_7">
    <path d="M 320.24375 259.729432 
L 349.96875 259.729432 
L 349.96875 259.729432 
L 320.24375 259.729432 
z
" clip-path="url(#p8b0c71f5cd)" style="fill: #2e85ff; fill-opacity: 0.5; stroke: #000000; stroke-linejoin: miter"/>
   </g>
   <g id="patch_8">
    <path d="M 349.96875 259.729432 
L 379.69375 259.729432 
L 379.69375 259.729432 
L 349.96875 259.729432 
z
" clip-path="url(#p8b0c71f5cd)" style="fill: #2e85ff; fill-opacity: 0.5; stroke: #000000; stroke-linejoin: miter"/>
   </g>
   <g id="patch_9">
    <path d="M 379.69375 259.729432 
L 409.41875 259.729432 
L 409.41875 259.729432 
L 379.69375 259.729432 
z
" clip-path="url(#p8b0c71f5cd)" style="fill: #2e85ff; fill-opacity: 0.5; stroke: #000000; stroke-linejoin: miter"/>
   </g>
   <g id="patch_10">
    <path d="M 409.41875 259.729432 
L 439.14375 259.729432 
L 439.14375 259.729432 
L 409.41875 259.729432 
z
" clip-path="url(#p8b0c71f5cd)" style="fill: #2e85ff; fill-opacity: 0.5; stroke: #000000; stroke-linejoin: miter"/>
   </g>
   <g id="patch_11">
    <path d="M 439.14375 259.729432 
L 468.86875 259.729432 
L 468.86875 259.729432 
L 439.14375 259.729432 
z
" clip-path="url(#p8b0c71f5cd)" style="fill: #2e85ff; fill-opacity: 0.5; stroke: #000000; stroke-linejoin: miter"/>
   </g>
   <g id="patch_12">
    <path d="M 468.86875 259.729432 
L 498.59375 259.729432 
L 498.59375 259.729432 
L 468.86875 259.729432 
z
" clip-path="url(#p8b0c71f5cd)" style="fill: #2e85ff; fill-opacity: 0.5; stroke: #000000; stroke-linejoin: miter"/>
   </g>
   <g id="patch_13">
    <path d="M 498.59375 259.729432 
L 647.21875 259.729432 
L 647.21875 259.729432 
L 498.59375 259.729432 
z
" clip-path="url(#p8b0c71f5cd)" style="fill: #2e85ff; fill-opacity: 0.5; stroke: #000000; stroke-linejoin: miter"/>
   </g>
   <g id="patch_14">
    <path d="M 647.21875 259.729432 
L 676.94375 259.729432 
L 676.94375 259.729432 
L 647.21875 259.729432 
z
" clip-path="url(#p8b0c71f5cd)" style="fill: #2e85ff; fill-opacity: 0.5; stroke: #000000; stroke-linejoin: miter"/>
   </g>
   <g id="patch_15">
    <path d="M 676.94375 259.729432 
L 706.66875 259.729432 
L 706.66875 259.729432 
L 676.94375 259.729432 
z
" clip-path="url(#p8b0c71f5cd)" style="fill: #2e85ff; fill-opacity: 0.5; stroke: #000000; stroke-linejoin: miter"/>
   </g>
   <g id="patch_16">
    <path d="M 706.66875 259.729432 
L 736.39375 259.729432 
L 736.39375 259.729432 
L 706.66875 259.729432 
z
" clip-path="url(#p8b0c71f5cd)" style="fill: #2e85ff; fill-opacity: 0.5; stroke: #000000; stroke-linejoin: miter"/>
   </g>
   <g id="patch_17">
    <path d="M 736.39375 259.729432 
L 766.11875 259.729432 
L 766.11875 259.729432 
L 736.39375 259.729432 
z
" clip-path="url(#p8b0c71f5cd)" style="fill: #2e85ff; fill-opacity: 0.5; stroke: #000000; stroke-linejoin: miter"/>
   </g>
   <g id="patch_18">
    <path d="M 766.11875 259.729432 
L 795.84375 259.729432 
L 795.84375 259.729432 
L 766.11875 259.729432 
z
" clip-path="url(#p8b0c71f5cd)" style="fill: #2e85ff; fill-opacity: 0.5; stroke: #000000; stroke-linejoin: miter"/>
   </g>
   <g id="patch_19">
    <path d="M 795.84375 259.729432 
L 825.56875 259.729432 
L 825.56875 259.729432 
L 795.84375 259.729432 
z
" clip-path="url(#p8b0c71f5cd)" style="fill: #2e85ff; fill-opacity: 0.5; stroke: #000000; stroke-linejoin: miter"/>
   </g>
   <g id="patch_20">
    <path d="M 825.56875 259.729432 
L 855.29375 259.729432 
L 855.29375 259.729432 
L 825.56875 259.729432 
z
" clip-path="url(#p8b0c71f5cd)" style="fill: #2e85ff; fill-opacity: 0.5; stroke: #000000; stroke-linejoin: miter"/>
   </g>
   <g id="patch_21">
    <path d="M 855.29375 259.729432 
L 885.01875 259.729432 
L 885.01875 259.729432 
L 855.29375 259.729432 
z
" clip-path="url(#p8b0c71f5cd)" style="fill: #2e85ff; fill-opacity: 0.5; stroke: #000000; stroke-linejoin: miter"/>
   </g>
   <g id="patch_22">
    <path d="M 885.01875 259.729432 
L 914.74375 259.729432 
L 914.74375 259.729432 
L 885.01875 259.729432 
z
" clip-path="url(#p8b0c71f5cd)" style="fill: #2e85ff; fill-opacity: 0.5; stroke: #000000; stroke-linejoin: miter"/>
   </g>
   <g id="patch_23">
    <path d="M 914.74375 259.729432 
L 944.46875 259.729432 
L 944.46875 259.729432 
L 914.74375 259.729432 
z
" clip-path="url(#p8b0c71f5cd)" style="fill: #2e85ff; fill-opacity: 0.5; stroke: #000000; stroke-linejoin: miter"/>
   </g>
   <g id="patch_24">
    <path d="M 944.46875 259.729432 
L 1093.09375 259.729432 
L 1093.09375 259.729432 
L 944.46875 259.729432 
z
" clip-path="url(#p8b0c71f5cd)" style="fill: #2e85ff; fill-opacity: 0.5; stroke: #000000; stroke-linejoin: miter"/>
   </g>
   <g id="patch_25">
    <path d="M 1093.09375 259.729432 
L 1122.81875 259.729432 
L 1122.81875 234.548952 
L 1093.09375 234.548952 
z
" clip-path="url(#p8b0c71f5cd)" style="fill: #2e85ff; fill-opacity: 0.5; stroke: #000000; stroke-linejoin: miter"/>
   </g>
   <g id="patch_26">
    <path d="M 1122.81875 259.729432 
L 1152.54375 259.729432 
L 1152.54375 244.233752 
L 1122.81875 244.233752 
z
" clip-path="url(#p8b0c71f5cd)" style="fill: #2e85ff; fill-opacity: 0.5; stroke: #000000; stroke-linejoin: miter"/>
   </g>
   <g id="patch_27">
    <path d="M 1152.54375 259.729432 
L 1182.26875 259.729432 
L 1182.26875 249.721805 
L 1152.54375 249.721805 
z
" clip-path="url(#p8b0c71f5cd)" style="fill: #2e85ff; fill-opacity: 0.5; stroke: #000000; stroke-linejoin: miter"/>
   </g>
   <g id="patch_28">
    <path d="M 1182.26875 259.729432 
L 1211.99375 259.729432 
L 1211.99375 252.304418 
L 1182.26875 252.304418 
z
" clip-path="url(#p8b0c71f5cd)" style="fill: #2e85ff; fill-opacity: 0.5; stroke: #000000; stroke-linejoin: miter"/>
   </g>
   <g id="patch_29">
    <path d="M 1211.99375 259.729432 
L 1241.71875 259.729432 
L 1241.71875 246.493538 
L 1211.99375 246.493538 
z
" clip-path="url(#p8b0c71f5cd)" style="fill: #2e85ff; fill-opacity: 0.5; stroke: #000000; stroke-linejoin: miter"/>
   </g>
   <g id="patch_30">
    <path d="M 1241.71875 259.729432 
L 1271.44375 259.729432 
L 1271.44375 241.973965 
L 1241.71875 241.973965 
z
" clip-path="url(#p8b0c71f5cd)" style="fill: #2e85ff; fill-opacity: 0.5; stroke: #000000; stroke-linejoin: miter"/>
   </g>
   <g id="patch_31">
    <path d="M 1271.44375 259.729432 
L 1301.16875 259.729432 
L 1301.16875 244.233752 
L 1271.44375 244.233752 
z
" clip-path="url(#p8b0c71f5cd)" style="fill: #2e85ff; fill-opacity: 0.5; stroke: #000000; stroke-linejoin: miter"/>
   </g>
   <g id="patch_32">
    <path d="M 1301.16875 259.729432 
L 1330.89375 259.729432 
L 1330.89375 230.675032 
L 1301.16875 230.675032 
z
" clip-path="url(#p8b0c71f5cd)" style="fill: #2e85ff; fill-opacity: 0.5; stroke: #000000; stroke-linejoin: miter"/>
   </g>
   <g id="patch_33">
    <path d="M 1330.89375 259.729432 
L 1360.61875 259.729432 
L 1360.61875 211.628258 
L 1330.89375 211.628258 
z
" clip-path="url(#p8b0c71f5cd)" style="fill: #2e85ff; fill-opacity: 0.5; stroke: #000000; stroke-linejoin: miter"/>
   </g>
   <g id="patch_34">
    <path d="M 1360.61875 259.729432 
L 1390.34375 259.729432 
L 1390.34375 39.561645 
L 1360.61875 39.561645 
z
" clip-path="url(#p8b0c71f5cd)" style="fill: #2e85ff; fill-opacity: 0.5; stroke: #000000; stroke-linejoin: miter"/>
   </g>
   <g id="patch_35">
    <path d="M 201.34375 259.729432 
L 231.06875 259.729432 
L 231.06875 259.729432 
L 201.34375 259.729432 
z
" clip-path="url(#p8b0c71f5cd)" style="fill: #2e85ff; fill-opacity: 0.5; stroke: #000000; stroke-linejoin: miter"/>
   </g>
   <g id="patch_36">
    <path d="M 231.06875 259.729432 
L 260.79375 259.729432 
L 260.79375 259.729432 
L 231.06875 259.729432 
z
" clip-path="url(#p8b0c71f5cd)" style="fill: #2e85ff; fill-opacity: 0.5; stroke: #000000; stroke-linejoin: miter"/>
   </g>
   <g id="patch_37">
    <path d="M 260.79375 259.729432 
L 290.51875 259.729432 
L 290.51875 259.729432 
L 260.79375 259.729432 
z
" clip-path="url(#p8b0c71f5cd)" style="fill: #2e85ff; fill-opacity: 0.5; stroke: #000000; stroke-linejoin: miter"/>
   </g>
   <g id="patch_38">
    <path d="M 290.51875 259.729432 
L 320.24375 259.729432 
L 320.24375 259.729432 
L 290.51875 259.729432 
z
" clip-path="url(#p8b0c71f5cd)" style="fill: #2e85ff; fill-opacity: 0.5; stroke: #000000; stroke-linejoin: miter"/>
   </g>
   <g id="patch_39">
    <path d="M 320.24375 259.729432 
L 349.96875 259.729432 
L 349.96875 259.729432 
L 320.24375 259.729432 
z
" clip-path="url(#p8b0c71f5cd)" style="fill: #2e85ff; fill-opacity: 0.5; stroke: #000000; stroke-linejoin: miter"/>
   </g>
   <g id="patch_40">
    <path d="M 349.96875 259.729432 
L 379.69375 259.729432 
L 379.69375 259.729432 
L 349.96875 259.729432 
z
" clip-path="url(#p8b0c71f5cd)" style="fill: #2e85ff; fill-opacity: 0.5; stroke: #000000; stroke-linejoin: miter"/>
   </g>
   <g id="patch_41">
    <path d="M 379.69375 259.729432 
L 409.41875 259.729432 
L 409.41875 259.729432 
L 379.69375 259.729432 
z
" clip-path="url(#p8b0c71f5cd)" style="fill: #2e85ff; fill-opacity: 0.5; stroke: #000000; stroke-linejoin: miter"/>
   </g>
   <g id="patch_42">
    <path d="M 409.41875 259.729432 
L 439.14375 259.729432 
L 439.14375 259.729432 
L 409.41875 259.729432 
z
" clip-path="url(#p8b0c71f5cd)" style="fill: #2e85ff; fill-opacity: 0.5; stroke: #000000; stroke-linejoin: miter"/>
   </g>
   <g id="patch_43">
    <path d="M 439.14375 259.729432 
L 468.86875 259.729432 
L 468.86875 259.729432 
L 439.14375 259.729432 
z
" clip-path="url(#p8b0c71f5cd)" style="fill: #2e85ff; fill-opacity: 0.5; stroke: #000000; stroke-linejoin: miter"/>
   </g>
   <g id="patch_44">
    <path d="M 468.86875 259.729432 
L 498.59375 259.729432 
L 498.59375 259.729432 
L 468.86875 259.729432 
z
" clip-path="url(#p8b0c71f5cd)" style="fill: #2e85ff; fill-opacity: 0.5; stroke: #000000; stroke-linejoin: miter"/>
   </g>
   <g id="patch_45">
    <path d="M 498.59375 259.729432 
L 647.21875 259.729432 
L 647.21875 259.729432 
L 498.59375 259.729432 
z
" clip-path="url(#p8b0c71f5cd)" style="fill: #2e85ff; fill-opacity: 0.5; stroke: #000000; stroke-linejoin: miter"/>
   </g>
   <g id="patch_46">
    <path d="M 647.21875 259.729432 
L 676.94375 259.729432 
L 676.94375 242.942445 
L 647.21875 242.942445 
z
" clip-path="url(#p8b0c71f5cd)" style="fill: #2e85ff; fill-opacity: 0.5; stroke: #000000; stroke-linejoin: miter"/>
   </g>
   <g id="patch_47">
    <path d="M 676.94375 259.729432 
L 706.66875 259.729432 
L 706.66875 236.163085 
L 676.94375 236.163085 
z
" clip-path="url(#p8b0c71f5cd)" style="fill: #2e85ff; fill-opacity: 0.5; stroke: #000000; stroke-linejoin: miter"/>
   </g>
   <g id="patch_48">
    <path d="M 706.66875 259.729432 
L 736.39375 259.729432 
L 736.39375 246.170712 
L 706.66875 246.170712 
z
" clip-path="url(#p8b0c71f5cd)" style="fill: #2e85ff; fill-opacity: 0.5; stroke: #000000; stroke-linejoin: miter"/>
   </g>
   <g id="patch_49">
    <path d="M 736.39375 259.729432 
L 766.11875 259.729432 
L 766.11875 245.847885 
L 736.39375 245.847885 
z
" clip-path="url(#p8b0c71f5cd)" style="fill: #2e85ff; fill-opacity: 0.5; stroke: #000000; stroke-linejoin: miter"/>
   </g>
   <g id="patch_50">
    <path d="M 766.11875 259.729432 
L 795.84375 259.729432 
L 795.84375 248.107672 
L 766.11875 248.107672 
z
" clip-path="url(#p8b0c71f5cd)" style="fill: #2e85ff; fill-opacity: 0.5; stroke: #000000; stroke-linejoin: miter"/>
   </g>
   <g id="patch_51">
    <path d="M 795.84375 259.729432 
L 825.56875 259.729432 
L 825.56875 243.265272 
L 795.84375 243.265272 
z
" clip-path="url(#p8b0c71f5cd)" style="fill: #2e85ff; fill-opacity: 0.5; stroke: #000000; stroke-linejoin: miter"/>
   </g>
   <g id="patch_52">
    <path d="M 825.56875 259.729432 
L 855.29375 259.729432 
L 855.29375 242.942445 
L 825.56875 242.942445 
z
" clip-path="url(#p8b0c71f5cd)" style="fill: #2e85ff; fill-opacity: 0.5; stroke: #000000; stroke-linejoin: miter"/>
   </g>
   <g id="patch_53">
    <path d="M 855.29375 259.729432 
L 885.01875 259.729432 
L 885.01875 237.777218 
L 855.29375 237.777218 
z
" clip-path="url(#p8b0c71f5cd)" style="fill: #2e85ff; fill-opacity: 0.5; stroke: #000000; stroke-linejoin: miter"/>
   </g>
   <g id="patch_54">
    <path d="M 885.01875 259.729432 
L 914.74375 259.729432 
L 914.74375 226.155458 
L 885.01875 226.155458 
z
" clip-path="url(#p8b0c71f5cd)" style="fill: #2e85ff; fill-opacity: 0.5; stroke: #000000; stroke-linejoin: miter"/>
   </g>
   <g id="patch_55">
    <path d="M 914.74375 259.729432 
L 944.46875 259.729432 
L 944.46875 26.002925 
L 914.74375 26.002925 
z
" clip-path="url(#p8b0c71f5cd)" style="fill: #2e85ff; fill-opacity: 0.5; stroke: #000000; stroke-linejoin: miter"/>
   </g>
   <g id="patch_56">
    <path d="M 944.46875 259.729432 
L 1093.09375 259.729432 
L 1093.09375 259.729432 
L 944.46875 259.729432 
z
" clip-path="url(#p8b0c71f5cd)" style="fill: #2e85ff; fill-opacity: 0.5; stroke: #000000; stroke-linejoin: miter"/>
   </g>
   <g id="patch_57">
    <path d="M 1093.09375 259.729432 
L 1122.81875 259.729432 
L 1122.81875 259.729432 
L 1093.09375 259.729432 
z
" clip-path="url(#p8b0c71f5cd)" style="fill: #2e85ff; fill-opacity: 0.5; stroke: #000000; stroke-linejoin: miter"/>
   </g>
   <g id="patch_58">
    <path d="M 1122.81875 259.729432 
L 1152.54375 259.729432 
L 1152.54375 259.729432 
L 1122.81875 259.729432 
z
" clip-path="url(#p8b0c71f5cd)" style="fill: #2e85ff; fill-opacity: 0.5; stroke: #000000; stroke-linejoin: miter"/>
   </g>
   <g id="patch_59">
    <path d="M 1152.54375 259.729432 
L 1182.26875 259.729432 
L 1182.26875 259.729432 
L 1152.54375 259.729432 
z
" clip-path="url(#p8b0c71f5cd)" style="fill: #2e85ff; fill-opacity: 0.5; stroke: #000000; stroke-linejoin: miter"/>
   </g>
   <g id="patch_60">
    <path d="M 1182.26875 259.729432 
L 1211.99375 259.729432 
L 1211.99375 259.729432 
L 1182.26875 259.729432 
z
" clip-path="url(#p8b0c71f5cd)" style="fill: #2e85ff; fill-opacity: 0.5; stroke: #000000; stroke-linejoin: miter"/>
   </g>
   <g id="patch_61">
    <path d="M 1211.99375 259.729432 
L 1241.71875 259.729432 
L 1241.71875 259.729432 
L 1211.99375 259.729432 
z
" clip-path="url(#p8b0c71f5cd)" style="fill: #2e85ff; fill-opacity: 0.5; stroke: #000000; stroke-linejoin: miter"/>
   </g>
   <g id="patch_62">
    <path d="M 1241.71875 259.729432 
L 1271.44375 259.729432 
L 1271.44375 259.729432 
L 1241.71875 259.729432 
z
" clip-path="url(#p8b0c71f5cd)" style="fill: #2e85ff; fill-opacity: 0.5; stroke: #000000; stroke-linejoin: miter"/>
   </g>
   <g id="patch_63">
    <path d="M 1271.44375 259.729432 
L 1301.16875 259.729432 
L 1301.16875 259.729432 
L 1271.44375 259.729432 
z
" clip-path="url(#p8b0c71f5cd)" style="fill: #2e85ff; fill-opacity: 0.5; stroke: #000000; stroke-linejoin: miter"/>
   </g>
   <g id="patch_64">
    <path d="M 1301.16875 259.729432 
L 1330.89375 259.729432 
L 1330.89375 259.729432 
L 1301.16875 259.729432 
z
" clip-path="url(#p8b0c71f5cd)" style="fill: #2e85ff; fill-opacity: 0.5; stroke: #000000; stroke-linejoin: miter"/>
   </g>
   <g id="patch_65">
    <path d="M 1330.89375 259.729432 
L 1360.61875 259.729432 
L 1360.61875 259.729432 
L 1330.89375 259.729432 
z
" clip-path="url(#p8b0c71f5cd)" style="fill: #2e85ff; fill-opacity: 0.5; stroke: #000000; stroke-linejoin: miter"/>
   </g>
   <g id="patch_66">
    <path d="M 1360.61875 259.729432 
L 1390.34375 259.729432 
L 1390.34375 259.729432 
L 1360.61875 259.729432 
z
" clip-path="url(#p8b0c71f5cd)" style="fill: #2e85ff; fill-opacity: 0.5; stroke: #000000; stroke-linejoin: miter"/>
   </g>
   <g id="patch_67">
    <path d="M 201.34375 259.729432 
L 231.06875 259.729432 
L 231.06875 257.792472 
L 201.34375 257.792472 
z
" clip-path="url(#p8b0c71f5cd)" style="fill: #2e85ff; fill-opacity: 0.5; stroke: #000000; stroke-linejoin: miter"/>
   </g>
   <g id="patch_68">
    <path d="M 231.06875 259.729432 
L 260.79375 259.729432 
L 260.79375 239.714178 
L 231.06875 239.714178 
z
" clip-path="url(#p8b0c71f5cd)" style="fill: #2e85ff; fill-opacity: 0.5; stroke: #000000; stroke-linejoin: miter"/>
   </g>
   <g id="patch_69">
    <path d="M 260.79375 259.729432 
L 290.51875 259.729432 
L 290.51875 217.761965 
L 260.79375 217.761965 
z
" clip-path="url(#p8b0c71f5cd)" style="fill: #2e85ff; fill-opacity: 0.5; stroke: #000000; stroke-linejoin: miter"/>
   </g>
   <g id="patch_70">
    <path d="M 290.51875 259.729432 
L 320.24375 259.729432 
L 320.24375 229.060898 
L 290.51875 229.060898 
z
" clip-path="url(#p8b0c71f5cd)" style="fill: #2e85ff; fill-opacity: 0.5; stroke: #000000; stroke-linejoin: miter"/>
   </g>
   <g id="patch_71">
    <path d="M 320.24375 259.729432 
L 349.96875 259.729432 
L 349.96875 229.706552 
L 320.24375 229.706552 
z
" clip-path="url(#p8b0c71f5cd)" style="fill: #2e85ff; fill-opacity: 0.5; stroke: #000000; stroke-linejoin: miter"/>
   </g>
   <g id="patch_72">
    <path d="M 349.96875 259.729432 
L 379.69375 259.729432 
L 379.69375 225.186978 
L 349.96875 225.186978 
z
" clip-path="url(#p8b0c71f5cd)" style="fill: #2e85ff; fill-opacity: 0.5; stroke: #000000; stroke-linejoin: miter"/>
   </g>
   <g id="patch_73">
    <path d="M 379.69375 259.729432 
L 409.41875 259.729432 
L 409.41875 221.635885 
L 379.69375 221.635885 
z
" clip-path="url(#p8b0c71f5cd)" style="fill: #2e85ff; fill-opacity: 0.5; stroke: #000000; stroke-linejoin: miter"/>
   </g>
   <g id="patch_74">
    <path d="M 409.41875 259.729432 
L 439.14375 259.729432 
L 439.14375 225.509805 
L 409.41875 225.509805 
z
" clip-path="url(#p8b0c71f5cd)" style="fill: #2e85ff; fill-opacity: 0.5; stroke: #000000; stroke-linejoin: miter"/>
   </g>
   <g id="patch_75">
    <path d="M 439.14375 259.729432 
L 468.86875 259.729432 
L 468.86875 202.266285 
L 439.14375 202.266285 
z
" clip-path="url(#p8b0c71f5cd)" style="fill: #2e85ff; fill-opacity: 0.5; stroke: #000000; stroke-linejoin: miter"/>
   </g>
   <g id="patch_76">
    <path d="M 468.86875 259.729432 
L 498.59375 259.729432 
L 498.59375 146.740098 
L 468.86875 146.740098 
z
" clip-path="url(#p8b0c71f5cd)" style="fill: #2e85ff; fill-opacity: 0.5; stroke: #000000; stroke-linejoin: miter"/>
   </g>
   <g id="patch_77">
    <path d="M 498.59375 259.729432 
L 647.21875 259.729432 
L 647.21875 259.729432 
L 498.59375 259.729432 
z
" clip-path="url(#p8b0c71f5cd)" style="fill: #2e85ff; fill-opacity: 0.5; stroke: #000000; stroke-linejoin: miter"/>
   </g>
   <g id="patch_78">
    <path d="M 647.21875 259.729432 
L 676.94375 259.729432 
L 676.94375 259.729432 
L 647.21875 259.729432 
z
" clip-path="url(#p8b0c71f5cd)" style="fill: #2e85ff; fill-opacity: 0.5; stroke: #000000; stroke-linejoin: miter"/>
   </g>
   <g id="patch_79">
    <path d="M 676.94375 259.729432 
L 706.66875 259.729432 
L 706.66875 259.729432 
L 676.94375 259.729432 
z
" clip-path="url(#p8b0c71f5cd)" style="fill: #2e85ff; fill-opacity: 0.5; stroke: #000000; stroke-linejoin: miter"/>
   </g>
   <g id="patch_80">
    <path d="M 706.66875 259.729432 
L 736.39375 259.729432 
L 736.39375 259.729432 
L 706.66875 259.729432 
z
" clip-path="url(#p8b0c71f5cd)" style="fill: #2e85ff; fill-opacity: 0.5; stroke: #000000; stroke-linejoin: miter"/>
   </g>
   <g id="patch_81">
    <path d="M 736.39375 259.729432 
L 766.11875 259.729432 
L 766.11875 259.729432 
L 736.39375 259.729432 
z
" clip-path="url(#p8b0c71f5cd)" style="fill: #2e85ff; fill-opacity: 0.5; stroke: #000000; stroke-linejoin: miter"/>
   </g>
   <g id="patch_82">
    <path d="M 766.11875 259.729432 
L 795.84375 259.729432 
L 795.84375 259.729432 
L 766.11875 259.729432 
z
" clip-path="url(#p8b0c71f5cd)" style="fill: #2e85ff; fill-opacity: 0.5; stroke: #000000; stroke-linejoin: miter"/>
   </g>
   <g id="patch_83">
    <path d="M 795.84375 259.729432 
L 825.56875 259.729432 
L 825.56875 259.729432 
L 795.84375 259.729432 
z
" clip-path="url(#p8b0c71f5cd)" style="fill: #2e85ff; fill-opacity: 0.5; stroke: #000000; stroke-linejoin: miter"/>
   </g>
   <g id="patch_84">
    <path d="M 825.56875 259.729432 
L 855.29375 259.729432 
L 855.29375 259.729432 
L 825.56875 259.729432 
z
" clip-path="url(#p8b0c71f5cd)" style="fill: #2e85ff; fill-opacity: 0.5; stroke: #000000; stroke-linejoin: miter"/>
   </g>
   <g id="patch_85">
    <path d="M 855.29375 259.729432 
L 885.01875 259.729432 
L 885.01875 259.729432 
L 855.29375 259.729432 
z
" clip-path="url(#p8b0c71f5cd)" style="fill: #2e85ff; fill-opacity: 0.5; stroke: #000000; stroke-linejoin: miter"/>
   </g>
   <g id="patch_86">
    <path d="M 885.01875 259.729432 
L 914.74375 259.729432 
L 914.74375 259.729432 
L 885.01875 259.729432 
z
" clip-path="url(#p8b0c71f5cd)" style="fill: #2e85ff; fill-opacity: 0.5; stroke: #000000; stroke-linejoin: miter"/>
   </g>
   <g id="patch_87">
    <path d="M 914.74375 259.729432 
L 944.46875 259.729432 
L 944.46875 259.729432 
L 914.74375 259.729432 
z
" clip-path="url(#p8b0c71f5cd)" style="fill: #2e85ff; fill-opacity: 0.5; stroke: #000000; stroke-linejoin: miter"/>
   </g>
   <g id="patch_88">
    <path d="M 944.46875 259.729432 
L 1093.09375 259.729432 
L 1093.09375 259.729432 
L 944.46875 259.729432 
z
" clip-path="url(#p8b0c71f5cd)" style="fill: #2e85ff; fill-opacity: 0.5; stroke: #000000; stroke-linejoin: miter"/>
   </g>
   <g id="patch_89">
    <path d="M 1093.09375 259.729432 
L 1122.81875 259.729432 
L 1122.81875 259.729432 
L 1093.09375 259.729432 
z
" clip-path="url(#p8b0c71f5cd)" style="fill: #2e85ff; fill-opacity: 0.5; stroke: #000000; stroke-linejoin: miter"/>
   </g>
   <g id="patch_90">
    <path d="M 1122.81875 259.729432 
L 1152.54375 259.729432 
L 1152.54375 259.729432 
L 1122.81875 259.729432 
z
" clip-path="url(#p8b0c71f5cd)" style="fill: #2e85ff; fill-opacity: 0.5; stroke: #000000; stroke-linejoin: miter"/>
   </g>
   <g id="patch_91">
    <path d="M 1152.54375 259.729432 
L 1182.26875 259.729432 
L 1182.26875 259.729432 
L 1152.54375 259.729432 
z
" clip-path="url(#p8b0c71f5cd)" style="fill: #2e85ff; fill-opacity: 0.5; stroke: #000000; stroke-linejoin: miter"/>
   </g>
   <g id="patch_92">
    <path d="M 1182.26875 259.729432 
L 1211.99375 259.729432 
L 1211.99375 259.729432 
L 1182.26875 259.729432 
z
" clip-path="url(#p8b0c71f5cd)" style="fill: #2e85ff; fill-opacity: 0.5; stroke: #000000; stroke-linejoin: miter"/>
   </g>
   <g id="patch_93">
    <path d="M 1211.99375 259.729432 
L 1241.71875 259.729432 
L 1241.71875 259.729432 
L 1211.99375 259.729432 
z
" clip-path="url(#p8b0c71f5cd)" style="fill: #2e85ff; fill-opacity: 0.5; stroke: #000000; stroke-linejoin: miter"/>
   </g>
   <g id="patch_94">
    <path d="M 1241.71875 259.729432 
L 1271.44375 259.729432 
L 1271.44375 259.729432 
L 1241.71875 259.729432 
z
" clip-path="url(#p8b0c71f5cd)" style="fill: #2e85ff; fill-opacity: 0.5; stroke: #000000; stroke-linejoin: miter"/>
   </g>
   <g id="patch_95">
    <path d="M 1271.44375 259.729432 
L 1301.16875 259.729432 
L 1301.16875 259.729432 
L 1271.44375 259.729432 
z
" clip-path="url(#p8b0c71f5cd)" style="fill: #2e85ff; fill-opacity: 0.5; stroke: #000000; stroke-linejoin: miter"/>
   </g>
   <g id="patch_96">
    <path d="M 1301.16875 259.729432 
L 1330.89375 259.729432 
L 1330.89375 259.729432 
L 1301.16875 259.729432 
z
" clip-path="url(#p8b0c71f5cd)" style="fill: #2e85ff; fill-opacity: 0.5; stroke: #000000; stroke-linejoin: miter"/>
   </g>
   <g id="patch_97">
    <path d="M 1330.89375 259.729432 
L 1360.61875 259.729432 
L 1360.61875 259.729432 
L 1330.89375 259.729432 
z
" clip-path="url(#p8b0c71f5cd)" style="fill: #2e85ff; fill-opacity: 0.5; stroke: #000000; stroke-linejoin: miter"/>
   </g>
   <g id="patch_98">
    <path d="M 1360.61875 259.729432 
L 1390.34375 259.729432 
L 1390.34375 259.729432 
L 1360.61875 259.729432 
z
" clip-path="url(#p8b0c71f5cd)" style="fill: #2e85ff; fill-opacity: 0.5; stroke: #000000; stroke-linejoin: miter"/>
   </g>
   <g id="matplotlib.axis_1">
    <g id="xtick_1">
     <g id="line2d_1">
      <defs>
       <path id="m51cd180039" d="M 0 0 
L 0 3.5 
" style="stroke: #000000; stroke-width: 0.8"/>
      </defs>
      <g>
       <use xlink:href="#m51cd180039" x="201.34375" y="259.729432" style="stroke: #000000; stroke-width: 0.8"/>
      </g>
     </g>
     <g id="text_1">
      <!-- 0.0 -->
      <g transform="translate(191.801875 275.847557) scale(0.12 -0.12)">
       <defs>
        <path id="DejaVuSans-30" d="M 2034 4250 
Q 1547 4250 1301 3770 
Q 1056 3291 1056 2328 
Q 1056 1369 1301 889 
Q 1547 409 2034 409 
Q 2525 409 2770 889 
Q 3016 1369 3016 2328 
Q 3016 3291 2770 3770 
Q 2525 4250 2034 4250 
z
M 2034 4750 
Q 2819 4750 3233 4129 
Q 3647 3509 3647 2328 
Q 3647 1150 3233 529 
Q 2819 -91 2034 -91 
Q 1250 -91 836 529 
Q 422 1150 422 2328 
Q 422 3509 836 4129 
Q 1250 4750 2034 4750 
z
" transform="scale(0.015625)"/>
        <path id="DejaVuSans-2e" d="M 684 794 
L 1344 794 
L 1344 0 
L 684 0 
L 684 794 
z
" transform="scale(0.015625)"/>
       </defs>
       <use xlink:href="#DejaVuSans-30"/>
       <use xlink:href="#DejaVuSans-2e" x="63.623047"/>
       <use xlink:href="#DejaVuSans-30" x="95.410156"/>
      </g>
     </g>
    </g>
    <g id="xtick_2">
     <g id="line2d_2">
      <g>
       <use xlink:href="#m51cd180039" x="349.96875" y="259.729432" style="stroke: #000000; stroke-width: 0.8"/>
      </g>
     </g>
     <g id="text_2">
      <!-- 0.5 -->
      <g transform="translate(340.426875 275.847557) scale(0.12 -0.12)">
       <defs>
        <path id="DejaVuSans-35" d="M 691 4666 
L 3169 4666 
L 3169 4134 
L 1269 4134 
L 1269 2991 
Q 1406 3038 1543 3061 
Q 1681 3084 1819 3084 
Q 2600 3084 3056 2656 
Q 3513 2228 3513 1497 
Q 3513 744 3044 326 
Q 2575 -91 1722 -91 
Q 1428 -91 1123 -41 
Q 819 9 494 109 
L 494 744 
Q 775 591 1075 516 
Q 1375 441 1709 441 
Q 2250 441 2565 725 
Q 2881 1009 2881 1497 
Q 2881 1984 2565 2268 
Q 2250 2553 1709 2553 
Q 1456 2553 1204 2497 
Q 953 2441 691 2322 
L 691 4666 
z
" transform="scale(0.015625)"/>
       </defs>
       <use xlink:href="#DejaVuSans-30"/>
       <use xlink:href="#DejaVuSans-2e" x="63.623047"/>
       <use xlink:href="#DejaVuSans-35" x="95.410156"/>
      </g>
     </g>
    </g>
    <g id="xtick_3">
     <g id="line2d_3">
      <g>
       <use xlink:href="#m51cd180039" x="498.59375" y="259.729432" style="stroke: #000000; stroke-width: 0.8"/>
      </g>
     </g>
     <g id="text_3">
      <!-- 1.0 -->
      <g transform="translate(489.051875 275.847557) scale(0.12 -0.12)">
       <defs>
        <path id="DejaVuSans-31" d="M 794 531 
L 1825 531 
L 1825 4091 
L 703 3866 
L 703 4441 
L 1819 4666 
L 2450 4666 
L 2450 531 
L 3481 531 
L 3481 0 
L 794 0 
L 794 531 
z
" transform="scale(0.015625)"/>
       </defs>
       <use xlink:href="#DejaVuSans-31"/>
       <use xlink:href="#DejaVuSans-2e" x="63.623047"/>
       <use xlink:href="#DejaVuSans-30" x="95.410156"/>
      </g>
     </g>
    </g>
    <g id="xtick_4">
     <g id="line2d_4">
      <g>
       <use xlink:href="#m51cd180039" x="647.21875" y="259.729432" style="stroke: #000000; stroke-width: 0.8"/>
      </g>
     </g>
     <g id="text_4">
      <!-- 0.0 -->
      <g transform="translate(637.676875 275.847557) scale(0.12 -0.12)">
       <use xlink:href="#DejaVuSans-30"/>
       <use xlink:href="#DejaVuSans-2e" x="63.623047"/>
       <use xlink:href="#DejaVuSans-30" x="95.410156"/>
      </g>
     </g>
    </g>
    <g id="xtick_5">
     <g id="line2d_5">
      <g>
       <use xlink:href="#m51cd180039" x="795.84375" y="259.729432" style="stroke: #000000; stroke-width: 0.8"/>
      </g>
     </g>
     <g id="text_5">
      <!-- 0.5 -->
      <g transform="translate(786.301875 275.847557) scale(0.12 -0.12)">
       <use xlink:href="#DejaVuSans-30"/>
       <use xlink:href="#DejaVuSans-2e" x="63.623047"/>
       <use xlink:href="#DejaVuSans-35" x="95.410156"/>
      </g>
     </g>
    </g>
    <g id="xtick_6">
     <g id="line2d_6">
      <g>
       <use xlink:href="#m51cd180039" x="944.46875" y="259.729432" style="stroke: #000000; stroke-width: 0.8"/>
      </g>
     </g>
     <g id="text_6">
      <!-- 1.0 -->
      <g transform="translate(934.926875 275.847557) scale(0.12 -0.12)">
       <use xlink:href="#DejaVuSans-31"/>
       <use xlink:href="#DejaVuSans-2e" x="63.623047"/>
       <use xlink:href="#DejaVuSans-30" x="95.410156"/>
      </g>
     </g>
    </g>
    <g id="xtick_7">
     <g id="line2d_7">
      <g>
       <use xlink:href="#m51cd180039" x="1093.09375" y="259.729432" style="stroke: #000000; stroke-width: 0.8"/>
      </g>
     </g>
     <g id="text_7">
      <!-- 0.0 -->
      <g transform="translate(1083.551875 275.847557) scale(0.12 -0.12)">
       <use xlink:href="#DejaVuSans-30"/>
       <use xlink:href="#DejaVuSans-2e" x="63.623047"/>
       <use xlink:href="#DejaVuSans-30" x="95.410156"/>
      </g>
     </g>
    </g>
    <g id="xtick_8">
     <g id="line2d_8">
      <g>
       <use xlink:href="#m51cd180039" x="1241.71875" y="259.729432" style="stroke: #000000; stroke-width: 0.8"/>
      </g>
     </g>
     <g id="text_8">
      <!-- 0.5 -->
      <g transform="translate(1232.176875 275.847557) scale(0.12 -0.12)">
       <use xlink:href="#DejaVuSans-30"/>
       <use xlink:href="#DejaVuSans-2e" x="63.623047"/>
       <use xlink:href="#DejaVuSans-35" x="95.410156"/>
      </g>
     </g>
    </g>
    <g id="xtick_9">
     <g id="line2d_9">
      <g>
       <use xlink:href="#m51cd180039" x="1390.34375" y="259.729432" style="stroke: #000000; stroke-width: 0.8"/>
      </g>
     </g>
     <g id="text_9">
      <!-- 1.0 -->
      <g transform="translate(1380.801875 275.847557) scale(0.12 -0.12)">
       <use xlink:href="#DejaVuSans-31"/>
       <use xlink:href="#DejaVuSans-2e" x="63.623047"/>
       <use xlink:href="#DejaVuSans-30" x="95.410156"/>
      </g>
     </g>
    </g>
    <g id="text_10">
     <!-- Predicted self assembly probability -->
     <g transform="translate(631.409688 291.461307) scale(0.12 -0.12)">
      <defs>
       <path id="DejaVuSans-50" d="M 1259 4147 
L 1259 2394 
L 2053 2394 
Q 2494 2394 2734 2622 
Q 2975 2850 2975 3272 
Q 2975 3691 2734 3919 
Q 2494 4147 2053 4147 
L 1259 4147 
z
M 628 4666 
L 2053 4666 
Q 2838 4666 3239 4311 
Q 3641 3956 3641 3272 
Q 3641 2581 3239 2228 
Q 2838 1875 2053 1875 
L 1259 1875 
L 1259 0 
L 628 0 
L 628 4666 
z
" transform="scale(0.015625)"/>
       <path id="DejaVuSans-72" d="M 2631 2963 
Q 2534 3019 2420 3045 
Q 2306 3072 2169 3072 
Q 1681 3072 1420 2755 
Q 1159 2438 1159 1844 
L 1159 0 
L 581 0 
L 581 3500 
L 1159 3500 
L 1159 2956 
Q 1341 3275 1631 3429 
Q 1922 3584 2338 3584 
Q 2397 3584 2469 3576 
Q 2541 3569 2628 3553 
L 2631 2963 
z
" transform="scale(0.015625)"/>
       <path id="DejaVuSans-65" d="M 3597 1894 
L 3597 1613 
L 953 1613 
Q 991 1019 1311 708 
Q 1631 397 2203 397 
Q 2534 397 2845 478 
Q 3156 559 3463 722 
L 3463 178 
Q 3153 47 2828 -22 
Q 2503 -91 2169 -91 
Q 1331 -91 842 396 
Q 353 884 353 1716 
Q 353 2575 817 3079 
Q 1281 3584 2069 3584 
Q 2775 3584 3186 3129 
Q 3597 2675 3597 1894 
z
M 3022 2063 
Q 3016 2534 2758 2815 
Q 2500 3097 2075 3097 
Q 1594 3097 1305 2825 
Q 1016 2553 972 2059 
L 3022 2063 
z
" transform="scale(0.015625)"/>
       <path id="DejaVuSans-64" d="M 2906 2969 
L 2906 4863 
L 3481 4863 
L 3481 0 
L 2906 0 
L 2906 525 
Q 2725 213 2448 61 
Q 2172 -91 1784 -91 
Q 1150 -91 751 415 
Q 353 922 353 1747 
Q 353 2572 751 3078 
Q 1150 3584 1784 3584 
Q 2172 3584 2448 3432 
Q 2725 3281 2906 2969 
z
M 947 1747 
Q 947 1113 1208 752 
Q 1469 391 1925 391 
Q 2381 391 2643 752 
Q 2906 1113 2906 1747 
Q 2906 2381 2643 2742 
Q 2381 3103 1925 3103 
Q 1469 3103 1208 2742 
Q 947 2381 947 1747 
z
" transform="scale(0.015625)"/>
       <path id="DejaVuSans-69" d="M 603 3500 
L 1178 3500 
L 1178 0 
L 603 0 
L 603 3500 
z
M 603 4863 
L 1178 4863 
L 1178 4134 
L 603 4134 
L 603 4863 
z
" transform="scale(0.015625)"/>
       <path id="DejaVuSans-63" d="M 3122 3366 
L 3122 2828 
Q 2878 2963 2633 3030 
Q 2388 3097 2138 3097 
Q 1578 3097 1268 2742 
Q 959 2388 959 1747 
Q 959 1106 1268 751 
Q 1578 397 2138 397 
Q 2388 397 2633 464 
Q 2878 531 3122 666 
L 3122 134 
Q 2881 22 2623 -34 
Q 2366 -91 2075 -91 
Q 1284 -91 818 406 
Q 353 903 353 1747 
Q 353 2603 823 3093 
Q 1294 3584 2113 3584 
Q 2378 3584 2631 3529 
Q 2884 3475 3122 3366 
z
" transform="scale(0.015625)"/>
       <path id="DejaVuSans-74" d="M 1172 4494 
L 1172 3500 
L 2356 3500 
L 2356 3053 
L 1172 3053 
L 1172 1153 
Q 1172 725 1289 603 
Q 1406 481 1766 481 
L 2356 481 
L 2356 0 
L 1766 0 
Q 1100 0 847 248 
Q 594 497 594 1153 
L 594 3053 
L 172 3053 
L 172 3500 
L 594 3500 
L 594 4494 
L 1172 4494 
z
" transform="scale(0.015625)"/>
       <path id="DejaVuSans-20" transform="scale(0.015625)"/>
       <path id="DejaVuSans-73" d="M 2834 3397 
L 2834 2853 
Q 2591 2978 2328 3040 
Q 2066 3103 1784 3103 
Q 1356 3103 1142 2972 
Q 928 2841 928 2578 
Q 928 2378 1081 2264 
Q 1234 2150 1697 2047 
L 1894 2003 
Q 2506 1872 2764 1633 
Q 3022 1394 3022 966 
Q 3022 478 2636 193 
Q 2250 -91 1575 -91 
Q 1294 -91 989 -36 
Q 684 19 347 128 
L 347 722 
Q 666 556 975 473 
Q 1284 391 1588 391 
Q 1994 391 2212 530 
Q 2431 669 2431 922 
Q 2431 1156 2273 1281 
Q 2116 1406 1581 1522 
L 1381 1569 
Q 847 1681 609 1914 
Q 372 2147 372 2553 
Q 372 3047 722 3315 
Q 1072 3584 1716 3584 
Q 2034 3584 2315 3537 
Q 2597 3491 2834 3397 
z
" transform="scale(0.015625)"/>
       <path id="DejaVuSans-6c" d="M 603 4863 
L 1178 4863 
L 1178 0 
L 603 0 
L 603 4863 
z
" transform="scale(0.015625)"/>
       <path id="DejaVuSans-66" d="M 2375 4863 
L 2375 4384 
L 1825 4384 
Q 1516 4384 1395 4259 
Q 1275 4134 1275 3809 
L 1275 3500 
L 2222 3500 
L 2222 3053 
L 1275 3053 
L 1275 0 
L 697 0 
L 697 3053 
L 147 3053 
L 147 3500 
L 697 3500 
L 697 3744 
Q 697 4328 969 4595 
Q 1241 4863 1831 4863 
L 2375 4863 
z
" transform="scale(0.015625)"/>
       <path id="DejaVuSans-61" d="M 2194 1759 
Q 1497 1759 1228 1600 
Q 959 1441 959 1056 
Q 959 750 1161 570 
Q 1363 391 1709 391 
Q 2188 391 2477 730 
Q 2766 1069 2766 1631 
L 2766 1759 
L 2194 1759 
z
M 3341 1997 
L 3341 0 
L 2766 0 
L 2766 531 
Q 2569 213 2275 61 
Q 1981 -91 1556 -91 
Q 1019 -91 701 211 
Q 384 513 384 1019 
Q 384 1609 779 1909 
Q 1175 2209 1959 2209 
L 2766 2209 
L 2766 2266 
Q 2766 2663 2505 2880 
Q 2244 3097 1772 3097 
Q 1472 3097 1187 3025 
Q 903 2953 641 2809 
L 641 3341 
Q 956 3463 1253 3523 
Q 1550 3584 1831 3584 
Q 2591 3584 2966 3190 
Q 3341 2797 3341 1997 
z
" transform="scale(0.015625)"/>
       <path id="DejaVuSans-6d" d="M 3328 2828 
Q 3544 3216 3844 3400 
Q 4144 3584 4550 3584 
Q 5097 3584 5394 3201 
Q 5691 2819 5691 2113 
L 5691 0 
L 5113 0 
L 5113 2094 
Q 5113 2597 4934 2840 
Q 4756 3084 4391 3084 
Q 3944 3084 3684 2787 
Q 3425 2491 3425 1978 
L 3425 0 
L 2847 0 
L 2847 2094 
Q 2847 2600 2669 2842 
Q 2491 3084 2119 3084 
Q 1678 3084 1418 2786 
Q 1159 2488 1159 1978 
L 1159 0 
L 581 0 
L 581 3500 
L 1159 3500 
L 1159 2956 
Q 1356 3278 1631 3431 
Q 1906 3584 2284 3584 
Q 2666 3584 2933 3390 
Q 3200 3197 3328 2828 
z
" transform="scale(0.015625)"/>
       <path id="DejaVuSans-62" d="M 3116 1747 
Q 3116 2381 2855 2742 
Q 2594 3103 2138 3103 
Q 1681 3103 1420 2742 
Q 1159 2381 1159 1747 
Q 1159 1113 1420 752 
Q 1681 391 2138 391 
Q 2594 391 2855 752 
Q 3116 1113 3116 1747 
z
M 1159 2969 
Q 1341 3281 1617 3432 
Q 1894 3584 2278 3584 
Q 2916 3584 3314 3078 
Q 3713 2572 3713 1747 
Q 3713 922 3314 415 
Q 2916 -91 2278 -91 
Q 1894 -91 1617 61 
Q 1341 213 1159 525 
L 1159 0 
L 581 0 
L 581 4863 
L 1159 4863 
L 1159 2969 
z
" transform="scale(0.015625)"/>
       <path id="DejaVuSans-79" d="M 2059 -325 
Q 1816 -950 1584 -1140 
Q 1353 -1331 966 -1331 
L 506 -1331 
L 506 -850 
L 844 -850 
Q 1081 -850 1212 -737 
Q 1344 -625 1503 -206 
L 1606 56 
L 191 3500 
L 800 3500 
L 1894 763 
L 2988 3500 
L 3597 3500 
L 2059 -325 
z
" transform="scale(0.015625)"/>
       <path id="DejaVuSans-70" d="M 1159 525 
L 1159 -1331 
L 581 -1331 
L 581 3500 
L 1159 3500 
L 1159 2969 
Q 1341 3281 1617 3432 
Q 1894 3584 2278 3584 
Q 2916 3584 3314 3078 
Q 3713 2572 3713 1747 
Q 3713 922 3314 415 
Q 2916 -91 2278 -91 
Q 1894 -91 1617 61 
Q 1341 213 1159 525 
z
M 3116 1747 
Q 3116 2381 2855 2742 
Q 2594 3103 2138 3103 
Q 1681 3103 1420 2742 
Q 1159 2381 1159 1747 
Q 1159 1113 1420 752 
Q 1681 391 2138 391 
Q 2594 391 2855 752 
Q 3116 1113 3116 1747 
z
" transform="scale(0.015625)"/>
       <path id="DejaVuSans-6f" d="M 1959 3097 
Q 1497 3097 1228 2736 
Q 959 2375 959 1747 
Q 959 1119 1226 758 
Q 1494 397 1959 397 
Q 2419 397 2687 759 
Q 2956 1122 2956 1747 
Q 2956 2369 2687 2733 
Q 2419 3097 1959 3097 
z
M 1959 3584 
Q 2709 3584 3137 3096 
Q 3566 2609 3566 1747 
Q 3566 888 3137 398 
Q 2709 -91 1959 -91 
Q 1206 -91 779 398 
Q 353 888 353 1747 
Q 353 2609 779 3096 
Q 1206 3584 1959 3584 
z
" transform="scale(0.015625)"/>
      </defs>
      <use xlink:href="#DejaVuSans-50"/>
      <use xlink:href="#DejaVuSans-72" x="58.552734"/>
      <use xlink:href="#DejaVuSans-65" x="97.416016"/>
      <use xlink:href="#DejaVuSans-64" x="158.939453"/>
      <use xlink:href="#DejaVuSans-69" x="222.416016"/>
      <use xlink:href="#DejaVuSans-63" x="250.199219"/>
      <use xlink:href="#DejaVuSans-74" x="305.179688"/>
      <use xlink:href="#DejaVuSans-65" x="344.388672"/>
      <use xlink:href="#DejaVuSans-64" x="405.912109"/>
      <use xlink:href="#DejaVuSans-20" x="469.388672"/>
      <use xlink:href="#DejaVuSans-73" x="501.175781"/>
      <use xlink:href="#DejaVuSans-65" x="553.275391"/>
      <use xlink:href="#DejaVuSans-6c" x="614.798828"/>
      <use xlink:href="#DejaVuSans-66" x="642.582031"/>
      <use xlink:href="#DejaVuSans-20" x="677.787109"/>
      <use xlink:href="#DejaVuSans-61" x="709.574219"/>
      <use xlink:href="#DejaVuSans-73" x="770.853516"/>
      <use xlink:href="#DejaVuSans-73" x="822.953125"/>
      <use xlink:href="#DejaVuSans-65" x="875.052734"/>
      <use xlink:href="#DejaVuSans-6d" x="936.576172"/>
      <use xlink:href="#DejaVuSans-62" x="1033.988281"/>
      <use xlink:href="#DejaVuSans-6c" x="1097.464844"/>
      <use xlink:href="#DejaVuSans-79" x="1125.248047"/>
      <use xlink:href="#DejaVuSans-20" x="1184.427734"/>
      <use xlink:href="#DejaVuSans-70" x="1216.214844"/>
      <use xlink:href="#DejaVuSans-72" x="1279.691406"/>
      <use xlink:href="#DejaVuSans-6f" x="1318.554688"/>
      <use xlink:href="#DejaVuSans-62" x="1379.736328"/>
      <use xlink:href="#DejaVuSans-61" x="1443.212891"/>
      <use xlink:href="#DejaVuSans-62" x="1504.492188"/>
      <use xlink:href="#DejaVuSans-69" x="1567.96875"/>
      <use xlink:href="#DejaVuSans-6c" x="1595.751953"/>
      <use xlink:href="#DejaVuSans-69" x="1623.535156"/>
      <use xlink:href="#DejaVuSans-74" x="1651.318359"/>
      <use xlink:href="#DejaVuSans-79" x="1690.527344"/>
     </g>
    </g>
   </g>
   <g id="matplotlib.axis_2">
    <g id="ytick_1">
     <g id="line2d_10">
      <defs>
       <path id="m25168cd0ab" d="M 0 0 
L -3.5 0 
" style="stroke: #000000; stroke-width: 0.8"/>
      </defs>
      <g>
       <use xlink:href="#m25168cd0ab" x="52.71875" y="259.729432" style="stroke: #000000; stroke-width: 0.8"/>
      </g>
     </g>
     <g id="text_11">
      <!-- 0 -->
      <g transform="translate(38.08375 264.288494) scale(0.12 -0.12)">
       <use xlink:href="#DejaVuSans-30"/>
      </g>
     </g>
    </g>
    <g id="ytick_2">
     <g id="line2d_11">
      <g>
       <use xlink:href="#m25168cd0ab" x="52.71875" y="227.446765" style="stroke: #000000; stroke-width: 0.8"/>
      </g>
     </g>
     <g id="text_12">
      <!-- 100 -->
      <g transform="translate(22.81375 232.005827) scale(0.12 -0.12)">
       <use xlink:href="#DejaVuSans-31"/>
       <use xlink:href="#DejaVuSans-30" x="63.623047"/>
       <use xlink:href="#DejaVuSans-30" x="127.246094"/>
      </g>
     </g>
    </g>
    <g id="ytick_3">
     <g id="line2d_12">
      <g>
       <use xlink:href="#m25168cd0ab" x="52.71875" y="195.164098" style="stroke: #000000; stroke-width: 0.8"/>
      </g>
     </g>
     <g id="text_13">
      <!-- 200 -->
      <g transform="translate(22.81375 199.723161) scale(0.12 -0.12)">
       <defs>
        <path id="DejaVuSans-32" d="M 1228 531 
L 3431 531 
L 3431 0 
L 469 0 
L 469 531 
Q 828 903 1448 1529 
Q 2069 2156 2228 2338 
Q 2531 2678 2651 2914 
Q 2772 3150 2772 3378 
Q 2772 3750 2511 3984 
Q 2250 4219 1831 4219 
Q 1534 4219 1204 4116 
Q 875 4013 500 3803 
L 500 4441 
Q 881 4594 1212 4672 
Q 1544 4750 1819 4750 
Q 2544 4750 2975 4387 
Q 3406 4025 3406 3419 
Q 3406 3131 3298 2873 
Q 3191 2616 2906 2266 
Q 2828 2175 2409 1742 
Q 1991 1309 1228 531 
z
" transform="scale(0.015625)"/>
       </defs>
       <use xlink:href="#DejaVuSans-32"/>
       <use xlink:href="#DejaVuSans-30" x="63.623047"/>
       <use xlink:href="#DejaVuSans-30" x="127.246094"/>
      </g>
     </g>
    </g>
    <g id="ytick_4">
     <g id="line2d_13">
      <g>
       <use xlink:href="#m25168cd0ab" x="52.71875" y="162.881432" style="stroke: #000000; stroke-width: 0.8"/>
      </g>
     </g>
     <g id="text_14">
      <!-- 300 -->
      <g transform="translate(22.81375 167.440494) scale(0.12 -0.12)">
       <defs>
        <path id="DejaVuSans-33" d="M 2597 2516 
Q 3050 2419 3304 2112 
Q 3559 1806 3559 1356 
Q 3559 666 3084 287 
Q 2609 -91 1734 -91 
Q 1441 -91 1130 -33 
Q 819 25 488 141 
L 488 750 
Q 750 597 1062 519 
Q 1375 441 1716 441 
Q 2309 441 2620 675 
Q 2931 909 2931 1356 
Q 2931 1769 2642 2001 
Q 2353 2234 1838 2234 
L 1294 2234 
L 1294 2753 
L 1863 2753 
Q 2328 2753 2575 2939 
Q 2822 3125 2822 3475 
Q 2822 3834 2567 4026 
Q 2313 4219 1838 4219 
Q 1578 4219 1281 4162 
Q 984 4106 628 3988 
L 628 4550 
Q 988 4650 1302 4700 
Q 1616 4750 1894 4750 
Q 2613 4750 3031 4423 
Q 3450 4097 3450 3541 
Q 3450 3153 3228 2886 
Q 3006 2619 2597 2516 
z
" transform="scale(0.015625)"/>
       </defs>
       <use xlink:href="#DejaVuSans-33"/>
       <use xlink:href="#DejaVuSans-30" x="63.623047"/>
       <use xlink:href="#DejaVuSans-30" x="127.246094"/>
      </g>
     </g>
    </g>
    <g id="ytick_5">
     <g id="line2d_14">
      <g>
       <use xlink:href="#m25168cd0ab" x="52.71875" y="130.598765" style="stroke: #000000; stroke-width: 0.8"/>
      </g>
     </g>
     <g id="text_15">
      <!-- 400 -->
      <g transform="translate(22.81375 135.157827) scale(0.12 -0.12)">
       <defs>
        <path id="DejaVuSans-34" d="M 2419 4116 
L 825 1625 
L 2419 1625 
L 2419 4116 
z
M 2253 4666 
L 3047 4666 
L 3047 1625 
L 3713 1625 
L 3713 1100 
L 3047 1100 
L 3047 0 
L 2419 0 
L 2419 1100 
L 313 1100 
L 313 1709 
L 2253 4666 
z
" transform="scale(0.015625)"/>
       </defs>
       <use xlink:href="#DejaVuSans-34"/>
       <use xlink:href="#DejaVuSans-30" x="63.623047"/>
       <use xlink:href="#DejaVuSans-30" x="127.246094"/>
      </g>
     </g>
    </g>
    <g id="ytick_6">
     <g id="line2d_15">
      <g>
       <use xlink:href="#m25168cd0ab" x="52.71875" y="98.316098" style="stroke: #000000; stroke-width: 0.8"/>
      </g>
     </g>
     <g id="text_16">
      <!-- 500 -->
      <g transform="translate(22.81375 102.875161) scale(0.12 -0.12)">
       <use xlink:href="#DejaVuSans-35"/>
       <use xlink:href="#DejaVuSans-30" x="63.623047"/>
       <use xlink:href="#DejaVuSans-30" x="127.246094"/>
      </g>
     </g>
    </g>
    <g id="ytick_7">
     <g id="line2d_16">
      <g>
       <use xlink:href="#m25168cd0ab" x="52.71875" y="66.033432" style="stroke: #000000; stroke-width: 0.8"/>
      </g>
     </g>
     <g id="text_17">
      <!-- 600 -->
      <g transform="translate(22.81375 70.592494) scale(0.12 -0.12)">
       <defs>
        <path id="DejaVuSans-36" d="M 2113 2584 
Q 1688 2584 1439 2293 
Q 1191 2003 1191 1497 
Q 1191 994 1439 701 
Q 1688 409 2113 409 
Q 2538 409 2786 701 
Q 3034 994 3034 1497 
Q 3034 2003 2786 2293 
Q 2538 2584 2113 2584 
z
M 3366 4563 
L 3366 3988 
Q 3128 4100 2886 4159 
Q 2644 4219 2406 4219 
Q 1781 4219 1451 3797 
Q 1122 3375 1075 2522 
Q 1259 2794 1537 2939 
Q 1816 3084 2150 3084 
Q 2853 3084 3261 2657 
Q 3669 2231 3669 1497 
Q 3669 778 3244 343 
Q 2819 -91 2113 -91 
Q 1303 -91 875 529 
Q 447 1150 447 2328 
Q 447 3434 972 4092 
Q 1497 4750 2381 4750 
Q 2619 4750 2861 4703 
Q 3103 4656 3366 4563 
z
" transform="scale(0.015625)"/>
       </defs>
       <use xlink:href="#DejaVuSans-36"/>
       <use xlink:href="#DejaVuSans-30" x="63.623047"/>
       <use xlink:href="#DejaVuSans-30" x="127.246094"/>
      </g>
     </g>
    </g>
    <g id="ytick_8">
     <g id="line2d_17">
      <g>
       <use xlink:href="#m25168cd0ab" x="52.71875" y="33.750765" style="stroke: #000000; stroke-width: 0.8"/>
      </g>
     </g>
     <g id="text_18">
      <!-- 700 -->
      <g transform="translate(22.81375 38.309827) scale(0.12 -0.12)">
       <defs>
        <path id="DejaVuSans-37" d="M 525 4666 
L 3525 4666 
L 3525 4397 
L 1831 0 
L 1172 0 
L 2766 4134 
L 525 4134 
L 525 4666 
z
" transform="scale(0.015625)"/>
       </defs>
       <use xlink:href="#DejaVuSans-37"/>
       <use xlink:href="#DejaVuSans-30" x="63.623047"/>
       <use xlink:href="#DejaVuSans-30" x="127.246094"/>
      </g>
     </g>
    </g>
    <g id="text_19">
     <!-- Number of peptides -->
     <g transform="translate(16.318125 198.325369) rotate(-90) scale(0.12 -0.12)">
      <defs>
       <path id="DejaVuSans-4e" d="M 628 4666 
L 1478 4666 
L 3547 763 
L 3547 4666 
L 4159 4666 
L 4159 0 
L 3309 0 
L 1241 3903 
L 1241 0 
L 628 0 
L 628 4666 
z
" transform="scale(0.015625)"/>
       <path id="DejaVuSans-75" d="M 544 1381 
L 544 3500 
L 1119 3500 
L 1119 1403 
Q 1119 906 1312 657 
Q 1506 409 1894 409 
Q 2359 409 2629 706 
Q 2900 1003 2900 1516 
L 2900 3500 
L 3475 3500 
L 3475 0 
L 2900 0 
L 2900 538 
Q 2691 219 2414 64 
Q 2138 -91 1772 -91 
Q 1169 -91 856 284 
Q 544 659 544 1381 
z
M 1991 3584 
L 1991 3584 
z
" transform="scale(0.015625)"/>
      </defs>
      <use xlink:href="#DejaVuSans-4e"/>
      <use xlink:href="#DejaVuSans-75" x="74.804688"/>
      <use xlink:href="#DejaVuSans-6d" x="138.183594"/>
      <use xlink:href="#DejaVuSans-62" x="235.595703"/>
      <use xlink:href="#DejaVuSans-65" x="299.072266"/>
      <use xlink:href="#DejaVuSans-72" x="360.595703"/>
      <use xlink:href="#DejaVuSans-20" x="401.708984"/>
      <use xlink:href="#DejaVuSans-6f" x="433.496094"/>
      <use xlink:href="#DejaVuSans-66" x="494.677734"/>
      <use xlink:href="#DejaVuSans-20" x="529.882812"/>
      <use xlink:href="#DejaVuSans-70" x="561.669922"/>
      <use xlink:href="#DejaVuSans-65" x="625.146484"/>
      <use xlink:href="#DejaVuSans-70" x="686.669922"/>
      <use xlink:href="#DejaVuSans-74" x="750.146484"/>
      <use xlink:href="#DejaVuSans-69" x="789.355469"/>
      <use xlink:href="#DejaVuSans-64" x="817.138672"/>
      <use xlink:href="#DejaVuSans-65" x="880.615234"/>
      <use xlink:href="#DejaVuSans-73" x="942.138672"/>
     </g>
    </g>
   </g>
   <g id="line2d_18">
    <path d="M 222.746333 259.729432 
L 1038.303821 259.677014 
L 1050.038461 259.45773 
L 1055.905781 259.172777 
L 1061.773101 258.665422 
L 1067.640421 257.830434 
L 1073.507741 256.561872 
L 1079.375061 254.786217 
L 1085.242382 252.503096 
L 1091.109702 249.819062 
L 1096.977022 246.956482 
L 1102.844342 244.225047 
L 1108.711662 241.957743 
L 1114.578982 240.429922 
L 1120.446302 239.790071 
L 1126.313622 240.027696 
L 1132.180942 240.988434 
L 1138.048262 242.427349 
L 1149.782902 245.712247 
L 1155.650222 247.174725 
L 1161.517542 248.386258 
L 1167.384862 249.324978 
L 1173.252182 249.998139 
L 1179.119503 250.418803 
L 1184.986823 250.595644 
L 1190.854143 250.536047 
L 1196.721463 250.255793 
L 1202.588783 249.786403 
L 1214.323423 248.470664 
L 1249.527343 244.047199 
L 1261.261983 242.884726 
L 1272.996623 241.844376 
L 1278.863944 241.208753 
L 1284.731264 240.375663 
L 1290.598584 239.265554 
L 1296.465904 237.821678 
L 1302.333224 236.001522 
L 1308.200544 233.748494 
L 1314.067864 230.951768 
L 1319.935184 227.408649 
L 1325.802504 222.806493 
L 1331.669824 216.741971 
L 1337.537144 208.795033 
L 1343.404464 198.669521 
L 1349.271784 186.393462 
L 1355.139104 172.534692 
L 1361.006424 158.342238 
L 1366.873744 145.700894 
L 1372.741065 136.822009 
L 1378.608385 133.698684 
L 1384.475705 137.489125 
L 1390.343025 148.07683 
L 1390.343025 148.07683 
" clip-path="url(#p8b0c71f5cd)" style="fill: none; stroke: #2e85ff; stroke-width: 1.5; stroke-linecap: square"/>
   </g>
   <g id="line2d_19">
    <path d="M 222.746333 259.729432 
L 598.254817 259.63853 
L 609.989457 259.327078 
L 615.856777 258.961788 
L 621.724097 258.355354 
L 627.591417 257.418987 
L 633.458737 256.07507 
L 639.326057 254.284009 
L 645.193377 252.071553 
L 651.060697 249.546156 
L 662.795337 244.365276 
L 668.662657 242.20241 
L 674.529977 240.612567 
L 680.397297 239.711175 
L 686.264617 239.50371 
L 692.131937 239.8931 
L 697.999258 240.710813 
L 715.601218 243.85891 
L 721.468538 244.680481 
L 727.335858 245.288086 
L 733.203178 245.691324 
L 739.070498 245.928417 
L 750.805138 246.116659 
L 780.141738 246.312626 
L 786.009058 246.197405 
L 791.876379 245.957987 
L 803.611019 245.117714 
L 832.947619 242.481862 
L 844.682259 241.49082 
L 850.549579 240.835335 
L 856.416899 239.95585 
L 862.284219 238.735834 
L 868.151539 237.009477 
L 874.018859 234.529193 
L 879.886179 230.940975 
L 885.753499 225.789384 
L 891.62082 218.57539 
L 897.48814 208.884684 
L 903.35546 196.586206 
L 909.22278 182.065527 
L 915.0901 166.411256 
L 920.95742 151.439469 
L 926.82474 139.45822 
L 932.69206 132.7631 
L 938.55938 132.991494 
L 944.4267 140.574399 
L 950.29402 154.528874 
L 956.16134 172.704628 
L 962.02866 192.395474 
L 967.89598 211.065535 
L 973.7633 226.912109 
L 979.63062 239.096543 
L 985.497941 247.643306 
L 991.365261 253.136943 
L 997.232581 256.382436 
L 1003.099901 258.14838 
L 1008.967221 259.034742 
L 1014.834541 259.445588 
L 1026.569181 259.691358 
L 1055.905781 259.729362 
L 1390.343025 259.729432 
L 1390.343025 259.729432 
" clip-path="url(#p8b0c71f5cd)" style="fill: none; stroke: #2e85ff; stroke-width: 1.5; stroke-linecap: square"/>
   </g>
   <g id="line2d_20">
    <path d="M 222.746333 251.477218 
L 228.613653 248.555552 
L 234.480973 245.237115 
L 246.215613 237.919012 
L 252.082933 234.282618 
L 257.950253 230.970706 
L 263.817573 228.226867 
L 269.684893 226.241874 
L 275.552213 225.098926 
L 281.419533 224.746095 
L 287.286853 225.011246 
L 293.154173 225.654544 
L 304.888813 227.183612 
L 310.756134 227.807561 
L 322.490774 228.72538 
L 334.225414 229.346765 
L 340.092734 229.412525 
L 345.960054 229.151295 
L 351.827374 228.475011 
L 357.694694 227.398938 
L 369.429334 224.686903 
L 375.296654 223.510459 
L 381.163974 222.698403 
L 387.031294 222.302485 
L 392.898614 222.257902 
L 404.633254 222.558321 
L 410.500575 222.465729 
L 416.367895 221.898876 
L 422.235215 220.646566 
L 428.102535 218.556042 
L 433.969855 215.563719 
L 439.837175 211.708892 
L 445.704495 207.129156 
L 451.571815 202.052318 
L 457.439135 196.803968 
L 463.306455 191.835038 
L 469.173775 187.746533 
L 475.041095 185.267378 
L 480.908415 185.145526 
L 486.775735 187.951199 
L 492.643055 193.850983 
L 498.510375 202.456912 
L 504.377696 212.846057 
L 510.245016 223.773638 
L 516.112336 234.003253 
L 521.979656 242.615623 
L 527.846976 249.174095 
L 533.714296 253.706991 
L 539.581616 256.556524 
L 545.448936 258.188128 
L 551.316256 259.039912 
L 557.183576 259.445631 
L 568.918216 259.692102 
L 598.254817 259.729379 
L 1390.343025 259.729432 
L 1390.343025 259.729432 
" clip-path="url(#p8b0c71f5cd)" style="fill: none; stroke: #2e85ff; stroke-width: 1.5; stroke-linecap: square"/>
   </g>
   <g id="patch_99">
    <path d="M 52.71875 259.729432 
L 52.71875 17.609432 
" style="fill: none; stroke: #000000; stroke-width: 0.8; stroke-linejoin: miter; stroke-linecap: square"/>
   </g>
   <g id="patch_100">
    <path d="M 52.71875 259.729432 
L 1420.06875 259.729432 
" style="fill: none; stroke: #000000; stroke-width: 0.8; stroke-linejoin: miter; stroke-linecap: square"/>
   </g>
   <g id="text_20">
    <!-- 6 -->
    <g style="fill: #2e85ff" transform="translate(206.297917 248.107672) scale(0.12 -0.12)">
     <use xlink:href="#DejaVuSans-36"/>
    </g>
   </g>
   <g id="text_21">
    <!-- 62 -->
    <g style="fill: #2e85ff" transform="translate(236.022917 228.092418) scale(0.12 -0.12)">
     <use xlink:href="#DejaVuSans-36"/>
     <use xlink:href="#DejaVuSans-32" x="63.623047"/>
    </g>
   </g>
   <g id="text_22">
    <!-- 130 -->
    <g style="fill: #2e85ff" transform="translate(264.509375 208.077165) scale(0.12 -0.12)">
     <use xlink:href="#DejaVuSans-31"/>
     <use xlink:href="#DejaVuSans-33" x="63.623047"/>
     <use xlink:href="#DejaVuSans-30" x="127.246094"/>
    </g>
   </g>
   <g id="text_23">
    <!-- 95 -->
    <g style="fill: #2e85ff" transform="translate(295.472917 214.049458) scale(0.12 -0.12)">
     <defs>
      <path id="DejaVuSans-39" d="M 703 97 
L 703 672 
Q 941 559 1184 500 
Q 1428 441 1663 441 
Q 2288 441 2617 861 
Q 2947 1281 2994 2138 
Q 2813 1869 2534 1725 
Q 2256 1581 1919 1581 
Q 1219 1581 811 2004 
Q 403 2428 403 3163 
Q 403 3881 828 4315 
Q 1253 4750 1959 4750 
Q 2769 4750 3195 4129 
Q 3622 3509 3622 2328 
Q 3622 1225 3098 567 
Q 2575 -91 1691 -91 
Q 1453 -91 1209 -44 
Q 966 3 703 97 
z
M 1959 2075 
Q 2384 2075 2632 2365 
Q 2881 2656 2881 3163 
Q 2881 3666 2632 3958 
Q 2384 4250 1959 4250 
Q 1534 4250 1286 3958 
Q 1038 3666 1038 3163 
Q 1038 2656 1286 2365 
Q 1534 2075 1959 2075 
z
" transform="scale(0.015625)"/>
     </defs>
     <use xlink:href="#DejaVuSans-39"/>
     <use xlink:href="#DejaVuSans-35" x="63.623047"/>
    </g>
   </g>
   <g id="text_24">
    <!-- 93 -->
    <g style="fill: #2e85ff" transform="translate(325.197917 217.439138) scale(0.12 -0.12)">
     <use xlink:href="#DejaVuSans-39"/>
     <use xlink:href="#DejaVuSans-33" x="63.623047"/>
    </g>
   </g>
   <g id="text_25">
    <!-- 107 -->
    <g style="fill: #2e85ff" transform="translate(353.684375 215.502178) scale(0.12 -0.12)">
     <use xlink:href="#DejaVuSans-31"/>
     <use xlink:href="#DejaVuSans-30" x="63.623047"/>
     <use xlink:href="#DejaVuSans-37" x="127.246094"/>
    </g>
   </g>
   <g id="text_26">
    <!-- 118 -->
    <g style="fill: #2e85ff" transform="translate(383.409375 211.951085) scale(0.12 -0.12)">
     <defs>
      <path id="DejaVuSans-38" d="M 2034 2216 
Q 1584 2216 1326 1975 
Q 1069 1734 1069 1313 
Q 1069 891 1326 650 
Q 1584 409 2034 409 
Q 2484 409 2743 651 
Q 3003 894 3003 1313 
Q 3003 1734 2745 1975 
Q 2488 2216 2034 2216 
z
M 1403 2484 
Q 997 2584 770 2862 
Q 544 3141 544 3541 
Q 544 4100 942 4425 
Q 1341 4750 2034 4750 
Q 2731 4750 3128 4425 
Q 3525 4100 3525 3541 
Q 3525 3141 3298 2862 
Q 3072 2584 2669 2484 
Q 3125 2378 3379 2068 
Q 3634 1759 3634 1313 
Q 3634 634 3220 271 
Q 2806 -91 2034 -91 
Q 1263 -91 848 271 
Q 434 634 434 1313 
Q 434 1759 690 2068 
Q 947 2378 1403 2484 
z
M 1172 3481 
Q 1172 3119 1398 2916 
Q 1625 2713 2034 2713 
Q 2441 2713 2670 2916 
Q 2900 3119 2900 3481 
Q 2900 3844 2670 4047 
Q 2441 4250 2034 4250 
Q 1625 4250 1398 4047 
Q 1172 3844 1172 3481 
z
" transform="scale(0.015625)"/>
     </defs>
     <use xlink:href="#DejaVuSans-31"/>
     <use xlink:href="#DejaVuSans-31" x="63.623047"/>
     <use xlink:href="#DejaVuSans-38" x="127.246094"/>
    </g>
   </g>
   <g id="text_27">
    <!-- 106 -->
    <g style="fill: #2e85ff" transform="translate(413.134375 202.266285) scale(0.12 -0.12)">
     <use xlink:href="#DejaVuSans-31"/>
     <use xlink:href="#DejaVuSans-30" x="63.623047"/>
     <use xlink:href="#DejaVuSans-36" x="127.246094"/>
    </g>
   </g>
   <g id="text_28">
    <!-- 178 -->
    <g style="fill: #2e85ff" transform="translate(442.859375 176.440152) scale(0.12 -0.12)">
     <use xlink:href="#DejaVuSans-31"/>
     <use xlink:href="#DejaVuSans-37" x="63.623047"/>
     <use xlink:href="#DejaVuSans-38" x="127.246094"/>
    </g>
   </g>
   <g id="text_29">
    <!-- 350 -->
    <g style="fill: #2e85ff" transform="translate(472.584375 137.055298) scale(0.12 -0.12)">
     <use xlink:href="#DejaVuSans-33"/>
     <use xlink:href="#DejaVuSans-35" x="63.623047"/>
     <use xlink:href="#DejaVuSans-30" x="127.246094"/>
    </g>
   </g>
   <g id="text_30">
    <!-- 52 -->
    <g style="fill: #2e85ff" transform="translate(652.172917 233.257645) scale(0.12 -0.12)">
     <use xlink:href="#DejaVuSans-35"/>
     <use xlink:href="#DejaVuSans-32" x="63.623047"/>
    </g>
   </g>
   <g id="text_31">
    <!-- 73 -->
    <g style="fill: #2e85ff" transform="translate(681.897917 226.478285) scale(0.12 -0.12)">
     <use xlink:href="#DejaVuSans-37"/>
     <use xlink:href="#DejaVuSans-33" x="63.623047"/>
    </g>
   </g>
   <g id="text_32">
    <!-- 42 -->
    <g style="fill: #2e85ff" transform="translate(711.622917 231.320685) scale(0.12 -0.12)">
     <use xlink:href="#DejaVuSans-34"/>
     <use xlink:href="#DejaVuSans-32" x="63.623047"/>
    </g>
   </g>
   <g id="text_33">
    <!-- 43 -->
    <g style="fill: #2e85ff" transform="translate(741.347917 236.163085) scale(0.12 -0.12)">
     <use xlink:href="#DejaVuSans-34"/>
     <use xlink:href="#DejaVuSans-33" x="63.623047"/>
    </g>
   </g>
   <g id="text_34">
    <!-- 36 -->
    <g style="fill: #2e85ff" transform="translate(771.072917 234.871778) scale(0.12 -0.12)">
     <use xlink:href="#DejaVuSans-33"/>
     <use xlink:href="#DejaVuSans-36" x="63.623047"/>
    </g>
   </g>
   <g id="text_35">
    <!-- 51 -->
    <g style="fill: #2e85ff" transform="translate(800.797917 233.580472) scale(0.12 -0.12)">
     <use xlink:href="#DejaVuSans-35"/>
     <use xlink:href="#DejaVuSans-31" x="63.623047"/>
    </g>
   </g>
   <g id="text_36">
    <!-- 52 -->
    <g style="fill: #2e85ff" transform="translate(830.522917 230.836445) scale(0.12 -0.12)">
     <use xlink:href="#DejaVuSans-35"/>
     <use xlink:href="#DejaVuSans-32" x="63.623047"/>
    </g>
   </g>
   <g id="text_37">
    <!-- 68 -->
    <g style="fill: #2e85ff" transform="translate(860.247917 224.864152) scale(0.12 -0.12)">
     <use xlink:href="#DejaVuSans-36"/>
     <use xlink:href="#DejaVuSans-38" x="63.623047"/>
    </g>
   </g>
   <g id="text_38">
    <!-- 104 -->
    <g style="fill: #2e85ff" transform="translate(888.734375 122.205272) scale(0.12 -0.12)">
     <use xlink:href="#DejaVuSans-31"/>
     <use xlink:href="#DejaVuSans-30" x="63.623047"/>
     <use xlink:href="#DejaVuSans-34" x="127.246094"/>
    </g>
   </g>
   <g id="text_39">
    <!-- 724 -->
    <g style="fill: #2e85ff" transform="translate(918.459375 16.318125) scale(0.12 -0.12)">
     <use xlink:href="#DejaVuSans-37"/>
     <use xlink:href="#DejaVuSans-32" x="63.623047"/>
     <use xlink:href="#DejaVuSans-34" x="127.246094"/>
    </g>
   </g>
   <g id="text_40">
    <!-- 78 -->
    <g style="fill: #2e85ff" transform="translate(1098.047917 224.864152) scale(0.12 -0.12)">
     <use xlink:href="#DejaVuSans-37"/>
     <use xlink:href="#DejaVuSans-38" x="63.623047"/>
    </g>
   </g>
   <g id="text_41">
    <!-- 48 -->
    <g style="fill: #2e85ff" transform="translate(1127.772917 232.450578) scale(0.12 -0.12)">
     <use xlink:href="#DejaVuSans-34"/>
     <use xlink:href="#DejaVuSans-38" x="63.623047"/>
    </g>
   </g>
   <g id="text_42">
    <!-- 31 -->
    <g style="fill: #2e85ff" transform="translate(1157.497917 238.584285) scale(0.12 -0.12)">
     <use xlink:href="#DejaVuSans-33"/>
     <use xlink:href="#DejaVuSans-31" x="63.623047"/>
    </g>
   </g>
   <g id="text_43">
    <!-- 23 -->
    <g style="fill: #2e85ff" transform="translate(1187.222917 238.422872) scale(0.12 -0.12)">
     <use xlink:href="#DejaVuSans-32"/>
     <use xlink:href="#DejaVuSans-33" x="63.623047"/>
    </g>
   </g>
   <g id="text_44">
    <!-- 41 -->
    <g style="fill: #2e85ff" transform="translate(1216.947917 236.808738) scale(0.12 -0.12)">
     <use xlink:href="#DejaVuSans-34"/>
     <use xlink:href="#DejaVuSans-31" x="63.623047"/>
    </g>
   </g>
   <g id="text_45">
    <!-- 55 -->
    <g style="fill: #2e85ff" transform="translate(1246.672917 232.289165) scale(0.12 -0.12)">
     <use xlink:href="#DejaVuSans-35"/>
     <use xlink:href="#DejaVuSans-35" x="63.623047"/>
    </g>
   </g>
   <g id="text_46">
    <!-- 48 -->
    <g style="fill: #2e85ff" transform="translate(1276.397917 226.639698) scale(0.12 -0.12)">
     <use xlink:href="#DejaVuSans-34"/>
     <use xlink:href="#DejaVuSans-38" x="63.623047"/>
    </g>
   </g>
   <g id="text_47">
    <!-- 90 -->
    <g style="fill: #2e85ff" transform="translate(1306.122917 218.246205) scale(0.12 -0.12)">
     <use xlink:href="#DejaVuSans-39"/>
     <use xlink:href="#DejaVuSans-30" x="63.623047"/>
    </g>
   </g>
   <g id="text_48">
    <!-- 149 -->
    <g style="fill: #2e85ff" transform="translate(1334.609375 125.433538) scale(0.12 -0.12)">
     <use xlink:href="#DejaVuSans-31"/>
     <use xlink:href="#DejaVuSans-34" x="63.623047"/>
     <use xlink:href="#DejaVuSans-39" x="127.246094"/>
    </g>
   </g>
   <g id="text_49">
    <!-- 682 -->
    <g style="fill: #2e85ff" transform="translate(1364.334375 29.876845) scale(0.12 -0.12)">
     <use xlink:href="#DejaVuSans-36"/>
     <use xlink:href="#DejaVuSans-38" x="63.623047"/>
     <use xlink:href="#DejaVuSans-32" x="127.246094"/>
    </g>
   </g>
  </g>
 </g>
 <defs>
  <clipPath id="p8b0c71f5cd">
   <rect x="52.71875" y="17.609432" width="1367.35" height="242.12"/>
  </clipPath>
 </defs>
</svg>
