<?xml version="1.0" encoding="utf-8" standalone="no"?>
<!DOCTYPE svg PUBLIC "-//W3C//DTD SVG 1.1//EN"
  "http://www.w3.org/Graphics/SVG/1.1/DTD/svg11.dtd">
<svg xmlns:xlink="http://www.w3.org/1999/xlink" width="495.789pt" height="93.184844pt" viewBox="0 0 495.789 93.184844" xmlns="http://www.w3.org/2000/svg" version="1.1">
 <metadata>
  <rdf:RDF xmlns:dc="http://purl.org/dc/elements/1.1/" xmlns:cc="http://creativecommons.org/ns#" xmlns:rdf="http://www.w3.org/1999/02/22-rdf-syntax-ns#">
   <cc:Work>
    <dc:type rdf:resource="http://purl.org/dc/dcmitype/StillImage"/>
    <dc:date>2024-09-26T14:58:44.896499</dc:date>
    <dc:format>image/svg+xml</dc:format>
    <dc:creator>
     <cc:Agent>
      <dc:title>Matplotlib v3.7.0, https://matplotlib.org/</dc:title>
     </cc:Agent>
    </dc:creator>
   </cc:Work>
  </rdf:RDF>
 </metadata>
 <defs>
  <style type="text/css">*{stroke-linejoin: round; stroke-linecap: butt}</style>
 </defs>
 <g id="figure_1">
  <g id="patch_1">
   <path d="M 0 93.184844 
L 495.789 93.184844 
L 495.789 0 
L 0 0 
z
" style="fill: #ffffff"/>
  </g>
  <g id="axes_1">
   <g id="patch_2">
    <path d="M 31.175 65.72 
L 488.589 65.72 
L 488.589 7.2 
L 31.175 7.2 
z
" style="fill: #ffffff"/>
   </g>
   <g id="patch_3">
    <path d="M 230.050652 65.72 
L 239.994435 65.72 
L 239.994435 65.72 
L 230.050652 65.72 
z
" clip-path="url(#p54652fd104)" style="fill: #ff120a; fill-opacity: 0.5; stroke: #000000; stroke-linejoin: miter"/>
   </g>
   <g id="patch_4">
    <path d="M 239.994435 65.72 
L 249.938217 65.72 
L 249.938217 65.72 
L 239.994435 65.72 
z
" clip-path="url(#p54652fd104)" style="fill: #ff120a; fill-opacity: 0.5; stroke: #000000; stroke-linejoin: miter"/>
   </g>
   <g id="patch_5">
    <path d="M 249.938217 65.72 
L 259.882 65.72 
L 259.882 65.72 
L 249.938217 65.72 
z
" clip-path="url(#p54652fd104)" style="fill: #ff120a; fill-opacity: 0.5; stroke: #000000; stroke-linejoin: miter"/>
   </g>
   <g id="patch_6">
    <path d="M 259.882 65.72 
L 269.825783 65.72 
L 269.825783 65.72 
L 259.882 65.72 
z
" clip-path="url(#p54652fd104)" style="fill: #ff120a; fill-opacity: 0.5; stroke: #000000; stroke-linejoin: miter"/>
   </g>
   <g id="patch_7">
    <path d="M 269.825783 65.72 
L 279.769565 65.72 
L 279.769565 65.72 
L 269.825783 65.72 
z
" clip-path="url(#p54652fd104)" style="fill: #ff120a; fill-opacity: 0.5; stroke: #000000; stroke-linejoin: miter"/>
   </g>
   <g id="patch_8">
    <path d="M 279.769565 65.72 
L 289.713348 65.72 
L 289.713348 65.72 
L 279.769565 65.72 
z
" clip-path="url(#p54652fd104)" style="fill: #ff120a; fill-opacity: 0.5; stroke: #000000; stroke-linejoin: miter"/>
   </g>
   <g id="patch_9">
    <path d="M 289.713348 65.72 
L 299.65713 65.72 
L 299.65713 65.72 
L 289.713348 65.72 
z
" clip-path="url(#p54652fd104)" style="fill: #ff120a; fill-opacity: 0.5; stroke: #000000; stroke-linejoin: miter"/>
   </g>
   <g id="patch_10">
    <path d="M 299.65713 65.72 
L 309.600913 65.72 
L 309.600913 65.72 
L 299.65713 65.72 
z
" clip-path="url(#p54652fd104)" style="fill: #ff120a; fill-opacity: 0.5; stroke: #000000; stroke-linejoin: miter"/>
   </g>
   <g id="patch_11">
    <path d="M 309.600913 65.72 
L 319.544696 65.72 
L 319.544696 65.72 
L 309.600913 65.72 
z
" clip-path="url(#p54652fd104)" style="fill: #ff120a; fill-opacity: 0.5; stroke: #000000; stroke-linejoin: miter"/>
   </g>
   <g id="patch_12">
    <path d="M 319.544696 65.72 
L 329.488478 65.72 
L 329.488478 65.72 
L 319.544696 65.72 
z
" clip-path="url(#p54652fd104)" style="fill: #ff120a; fill-opacity: 0.5; stroke: #000000; stroke-linejoin: miter"/>
   </g>
   <g id="patch_13">
    <path d="M 329.488478 65.72 
L 379.207391 65.72 
L 379.207391 65.72 
L 329.488478 65.72 
z
" clip-path="url(#p54652fd104)" style="fill: #ff120a; fill-opacity: 0.5; stroke: #000000; stroke-linejoin: miter"/>
   </g>
   <g id="patch_14">
    <path d="M 379.207391 65.72 
L 389.151174 65.72 
L 389.151174 56.82496 
L 379.207391 56.82496 
z
" clip-path="url(#p54652fd104)" style="fill: #ff120a; fill-opacity: 0.5; stroke: #000000; stroke-linejoin: miter"/>
   </g>
   <g id="patch_15">
    <path d="M 389.151174 65.72 
L 399.094957 65.72 
L 399.094957 53.391787 
L 389.151174 53.391787 
z
" clip-path="url(#p54652fd104)" style="fill: #ff120a; fill-opacity: 0.5; stroke: #000000; stroke-linejoin: miter"/>
   </g>
   <g id="patch_16">
    <path d="M 399.094957 65.72 
L 409.038739 65.72 
L 409.038739 59.477867 
L 399.094957 59.477867 
z
" clip-path="url(#p54652fd104)" style="fill: #ff120a; fill-opacity: 0.5; stroke: #000000; stroke-linejoin: miter"/>
   </g>
   <g id="patch_17">
    <path d="M 409.038739 65.72 
L 418.982522 65.72 
L 418.982522 60.492213 
L 409.038739 60.492213 
z
" clip-path="url(#p54652fd104)" style="fill: #ff120a; fill-opacity: 0.5; stroke: #000000; stroke-linejoin: miter"/>
   </g>
   <g id="patch_18">
    <path d="M 418.982522 65.72 
L 428.926304 65.72 
L 428.926304 61.97472 
L 418.982522 61.97472 
z
" clip-path="url(#p54652fd104)" style="fill: #ff120a; fill-opacity: 0.5; stroke: #000000; stroke-linejoin: miter"/>
   </g>
   <g id="patch_19">
    <path d="M 428.926304 65.72 
L 438.870087 65.72 
L 438.870087 62.989067 
L 428.926304 62.989067 
z
" clip-path="url(#p54652fd104)" style="fill: #ff120a; fill-opacity: 0.5; stroke: #000000; stroke-linejoin: miter"/>
   </g>
   <g id="patch_20">
    <path d="M 438.870087 65.72 
L 448.81387 65.72 
L 448.81387 62.989067 
L 438.870087 62.989067 
z
" clip-path="url(#p54652fd104)" style="fill: #ff120a; fill-opacity: 0.5; stroke: #000000; stroke-linejoin: miter"/>
   </g>
   <g id="patch_21">
    <path d="M 448.81387 65.72 
L 458.757652 65.72 
L 458.757652 64.08144 
L 448.81387 64.08144 
z
" clip-path="url(#p54652fd104)" style="fill: #ff120a; fill-opacity: 0.5; stroke: #000000; stroke-linejoin: miter"/>
   </g>
   <g id="patch_22">
    <path d="M 458.757652 65.72 
L 468.701435 65.72 
L 468.701435 64.627627 
L 458.757652 64.627627 
z
" clip-path="url(#p54652fd104)" style="fill: #ff120a; fill-opacity: 0.5; stroke: #000000; stroke-linejoin: miter"/>
   </g>
   <g id="patch_23">
    <path d="M 468.701435 65.72 
L 478.645217 65.72 
L 478.645217 63.925387 
L 468.701435 63.925387 
z
" clip-path="url(#p54652fd104)" style="fill: #ff120a; fill-opacity: 0.5; stroke: #000000; stroke-linejoin: miter"/>
   </g>
   <g id="patch_24">
    <path d="M 230.050652 65.72 
L 239.994435 65.72 
L 239.994435 65.72 
L 230.050652 65.72 
z
" clip-path="url(#p54652fd104)" style="fill: #ff120a; fill-opacity: 0.5; stroke: #000000; stroke-linejoin: miter"/>
   </g>
   <g id="patch_25">
    <path d="M 239.994435 65.72 
L 249.938217 65.72 
L 249.938217 63.535253 
L 239.994435 63.535253 
z
" clip-path="url(#p54652fd104)" style="fill: #ff120a; fill-opacity: 0.5; stroke: #000000; stroke-linejoin: miter"/>
   </g>
   <g id="patch_26">
    <path d="M 249.938217 65.72 
L 259.882 65.72 
L 259.882 50.73888 
L 249.938217 50.73888 
z
" clip-path="url(#p54652fd104)" style="fill: #ff120a; fill-opacity: 0.5; stroke: #000000; stroke-linejoin: miter"/>
   </g>
   <g id="patch_27">
    <path d="M 259.882 65.72 
L 269.825783 65.72 
L 269.825783 49.724533 
L 259.882 49.724533 
z
" clip-path="url(#p54652fd104)" style="fill: #ff120a; fill-opacity: 0.5; stroke: #000000; stroke-linejoin: miter"/>
   </g>
   <g id="patch_28">
    <path d="M 269.825783 65.72 
L 279.769565 65.72 
L 279.769565 59.009707 
L 269.825783 59.009707 
z
" clip-path="url(#p54652fd104)" style="fill: #ff120a; fill-opacity: 0.5; stroke: #000000; stroke-linejoin: miter"/>
   </g>
   <g id="patch_29">
    <path d="M 279.769565 65.72 
L 289.713348 65.72 
L 289.713348 63.223147 
L 279.769565 63.223147 
z
" clip-path="url(#p54652fd104)" style="fill: #ff120a; fill-opacity: 0.5; stroke: #000000; stroke-linejoin: miter"/>
   </g>
   <g id="patch_30">
    <path d="M 289.713348 65.72 
L 299.65713 65.72 
L 299.65713 64.627627 
L 289.713348 64.627627 
z
" clip-path="url(#p54652fd104)" style="fill: #ff120a; fill-opacity: 0.5; stroke: #000000; stroke-linejoin: miter"/>
   </g>
   <g id="patch_31">
    <path d="M 299.65713 65.72 
L 309.600913 65.72 
L 309.600913 64.861707 
L 299.65713 64.861707 
z
" clip-path="url(#p54652fd104)" style="fill: #ff120a; fill-opacity: 0.5; stroke: #000000; stroke-linejoin: miter"/>
   </g>
   <g id="patch_32">
    <path d="M 309.600913 65.72 
L 319.544696 65.72 
L 319.544696 64.861707 
L 309.600913 64.861707 
z
" clip-path="url(#p54652fd104)" style="fill: #ff120a; fill-opacity: 0.5; stroke: #000000; stroke-linejoin: miter"/>
   </g>
   <g id="patch_33">
    <path d="M 319.544696 65.72 
L 329.488478 65.72 
L 329.488478 64.471573 
L 319.544696 64.471573 
z
" clip-path="url(#p54652fd104)" style="fill: #ff120a; fill-opacity: 0.5; stroke: #000000; stroke-linejoin: miter"/>
   </g>
   <g id="patch_34">
    <path d="M 329.488478 65.72 
L 379.207391 65.72 
L 379.207391 65.72 
L 329.488478 65.72 
z
" clip-path="url(#p54652fd104)" style="fill: #ff120a; fill-opacity: 0.5; stroke: #000000; stroke-linejoin: miter"/>
   </g>
   <g id="patch_35">
    <path d="M 379.207391 65.72 
L 389.151174 65.72 
L 389.151174 65.72 
L 379.207391 65.72 
z
" clip-path="url(#p54652fd104)" style="fill: #ff120a; fill-opacity: 0.5; stroke: #000000; stroke-linejoin: miter"/>
   </g>
   <g id="patch_36">
    <path d="M 389.151174 65.72 
L 399.094957 65.72 
L 399.094957 65.72 
L 389.151174 65.72 
z
" clip-path="url(#p54652fd104)" style="fill: #ff120a; fill-opacity: 0.5; stroke: #000000; stroke-linejoin: miter"/>
   </g>
   <g id="patch_37">
    <path d="M 399.094957 65.72 
L 409.038739 65.72 
L 409.038739 65.72 
L 399.094957 65.72 
z
" clip-path="url(#p54652fd104)" style="fill: #ff120a; fill-opacity: 0.5; stroke: #000000; stroke-linejoin: miter"/>
   </g>
   <g id="patch_38">
    <path d="M 409.038739 65.72 
L 418.982522 65.72 
L 418.982522 65.72 
L 409.038739 65.72 
z
" clip-path="url(#p54652fd104)" style="fill: #ff120a; fill-opacity: 0.5; stroke: #000000; stroke-linejoin: miter"/>
   </g>
   <g id="patch_39">
    <path d="M 418.982522 65.72 
L 428.926304 65.72 
L 428.926304 65.72 
L 418.982522 65.72 
z
" clip-path="url(#p54652fd104)" style="fill: #ff120a; fill-opacity: 0.5; stroke: #000000; stroke-linejoin: miter"/>
   </g>
   <g id="patch_40">
    <path d="M 428.926304 65.72 
L 438.870087 65.72 
L 438.870087 65.72 
L 428.926304 65.72 
z
" clip-path="url(#p54652fd104)" style="fill: #ff120a; fill-opacity: 0.5; stroke: #000000; stroke-linejoin: miter"/>
   </g>
   <g id="patch_41">
    <path d="M 438.870087 65.72 
L 448.81387 65.72 
L 448.81387 65.72 
L 438.870087 65.72 
z
" clip-path="url(#p54652fd104)" style="fill: #ff120a; fill-opacity: 0.5; stroke: #000000; stroke-linejoin: miter"/>
   </g>
   <g id="patch_42">
    <path d="M 448.81387 65.72 
L 458.757652 65.72 
L 458.757652 65.72 
L 448.81387 65.72 
z
" clip-path="url(#p54652fd104)" style="fill: #ff120a; fill-opacity: 0.5; stroke: #000000; stroke-linejoin: miter"/>
   </g>
   <g id="patch_43">
    <path d="M 458.757652 65.72 
L 468.701435 65.72 
L 468.701435 65.72 
L 458.757652 65.72 
z
" clip-path="url(#p54652fd104)" style="fill: #ff120a; fill-opacity: 0.5; stroke: #000000; stroke-linejoin: miter"/>
   </g>
   <g id="patch_44">
    <path d="M 468.701435 65.72 
L 478.645217 65.72 
L 478.645217 65.72 
L 468.701435 65.72 
z
" clip-path="url(#p54652fd104)" style="fill: #ff120a; fill-opacity: 0.5; stroke: #000000; stroke-linejoin: miter"/>
   </g>
   <g id="PathCollection_1">
    <defs>
     <path id="m408402e462" d="M 0 0.707107 
C 0.187527 0.707107 0.367398 0.632602 0.5 0.5 
C 0.632602 0.367398 0.707107 0.187527 0.707107 0 
C 0.707107 -0.187527 0.632602 -0.367398 0.5 -0.5 
C 0.367398 -0.632602 0.187527 -0.707107 0 -0.707107 
C -0.187527 -0.707107 -0.367398 -0.632602 -0.5 -0.5 
C -0.632602 -0.367398 -0.707107 -0.187527 -0.707107 0 
C -0.707107 0.187527 -0.632602 0.367398 -0.5 0.5 
C -0.367398 0.632602 -0.187527 0.707107 0 0.707107 
z
" style="stroke: #ff120a"/>
    </defs>
    <g clip-path="url(#p54652fd104)">
     <use xlink:href="#m408402e462" x="235.022543" y="65.72" style="fill: #ff120a; stroke: #ff120a"/>
     <use xlink:href="#m408402e462" x="244.966326" y="63.535253" style="fill: #ff120a; stroke: #ff120a"/>
     <use xlink:href="#m408402e462" x="254.910109" y="50.73888" style="fill: #ff120a; stroke: #ff120a"/>
     <use xlink:href="#m408402e462" x="264.853891" y="49.724533" style="fill: #ff120a; stroke: #ff120a"/>
     <use xlink:href="#m408402e462" x="274.797674" y="59.009707" style="fill: #ff120a; stroke: #ff120a"/>
     <use xlink:href="#m408402e462" x="284.741457" y="63.223147" style="fill: #ff120a; stroke: #ff120a"/>
     <use xlink:href="#m408402e462" x="294.685239" y="64.627627" style="fill: #ff120a; stroke: #ff120a"/>
     <use xlink:href="#m408402e462" x="304.629022" y="64.861707" style="fill: #ff120a; stroke: #ff120a"/>
     <use xlink:href="#m408402e462" x="314.572804" y="64.861707" style="fill: #ff120a; stroke: #ff120a"/>
     <use xlink:href="#m408402e462" x="324.516587" y="64.471573" style="fill: #ff120a; stroke: #ff120a"/>
    </g>
   </g>
   <g id="PathCollection_2">
    <g clip-path="url(#p54652fd104)">
     <use xlink:href="#m408402e462" x="384.179283" y="56.82496" style="fill: #ff120a; stroke: #ff120a"/>
     <use xlink:href="#m408402e462" x="394.123065" y="53.391787" style="fill: #ff120a; stroke: #ff120a"/>
     <use xlink:href="#m408402e462" x="404.066848" y="59.477867" style="fill: #ff120a; stroke: #ff120a"/>
     <use xlink:href="#m408402e462" x="414.01063" y="60.492213" style="fill: #ff120a; stroke: #ff120a"/>
     <use xlink:href="#m408402e462" x="423.954413" y="61.97472" style="fill: #ff120a; stroke: #ff120a"/>
     <use xlink:href="#m408402e462" x="433.898196" y="62.989067" style="fill: #ff120a; stroke: #ff120a"/>
     <use xlink:href="#m408402e462" x="443.841978" y="62.989067" style="fill: #ff120a; stroke: #ff120a"/>
     <use xlink:href="#m408402e462" x="453.785761" y="64.08144" style="fill: #ff120a; stroke: #ff120a"/>
     <use xlink:href="#m408402e462" x="463.729543" y="64.627627" style="fill: #ff120a; stroke: #ff120a"/>
     <use xlink:href="#m408402e462" x="473.673326" y="63.925387" style="fill: #ff120a; stroke: #ff120a"/>
    </g>
   </g>
   <g id="matplotlib.axis_1">
    <g id="xtick_1">
     <g id="line2d_1">
      <defs>
       <path id="m09fd5d6a66" d="M 0 0 
L 0 3.5 
" style="stroke: #000000; stroke-width: 0.8"/>
      </defs>
      <g>
       <use xlink:href="#m09fd5d6a66" x="230.050652" y="65.72" style="stroke: #000000; stroke-width: 0.8"/>
      </g>
     </g>
     <g id="text_1">
      <text style="font: 5px 'Arial'; text-anchor: middle" x="230.050652" y="76.298906" transform="rotate(-0 230.050652 76.298906)">0.0</text>
     </g>
    </g>
    <g id="xtick_2">
     <g id="line2d_2">
      <g>
       <use xlink:href="#m09fd5d6a66" x="279.769565" y="65.72" style="stroke: #000000; stroke-width: 0.8"/>
      </g>
     </g>
     <g id="text_2">
      <text style="font: 5px 'Arial'; text-anchor: middle" x="279.769565" y="76.298906" transform="rotate(-0 279.769565 76.298906)">0.5</text>
     </g>
    </g>
    <g id="xtick_3">
     <g id="line2d_3">
      <g>
       <use xlink:href="#m09fd5d6a66" x="329.488478" y="65.72" style="stroke: #000000; stroke-width: 0.8"/>
      </g>
     </g>
     <g id="text_3">
      <text style="font: 5px 'Arial'; text-anchor: middle" x="329.488478" y="76.298906" transform="rotate(-0 329.488478 76.298906)">1.0</text>
     </g>
    </g>
    <g id="xtick_4">
     <g id="line2d_4">
      <g>
       <use xlink:href="#m09fd5d6a66" x="379.207391" y="65.72" style="stroke: #000000; stroke-width: 0.8"/>
      </g>
     </g>
     <g id="text_4">
      <text style="font: 5px 'Arial'; text-anchor: middle" x="379.207391" y="76.298906" transform="rotate(-0 379.207391 76.298906)">0.0</text>
     </g>
    </g>
    <g id="xtick_5">
     <g id="line2d_5">
      <g>
       <use xlink:href="#m09fd5d6a66" x="428.926304" y="65.72" style="stroke: #000000; stroke-width: 0.8"/>
      </g>
     </g>
     <g id="text_5">
      <text style="font: 5px 'Arial'; text-anchor: middle" x="428.926304" y="76.298906" transform="rotate(-0 428.926304 76.298906)">0.5</text>
     </g>
    </g>
    <g id="xtick_6">
     <g id="line2d_6">
      <g>
       <use xlink:href="#m09fd5d6a66" x="478.645217" y="65.72" style="stroke: #000000; stroke-width: 0.8"/>
      </g>
     </g>
     <g id="text_6">
      <text style="font: 5px 'Arial'; text-anchor: middle" x="478.645217" y="76.298906" transform="rotate(-0 478.645217 76.298906)">1.0</text>
     </g>
    </g>
    <g id="text_7">
     <text style="font: 5px 'Arial'; text-anchor: middle" x="259.882" y="84.9325" transform="rotate(-0 259.882 84.9325)">Predicted self-assembly probability</text>
    </g>
   </g>
   <g id="matplotlib.axis_2">
    <g id="ytick_1">
     <g id="line2d_7">
      <defs>
       <path id="m237b417943" d="M 0 0 
L -3.5 0 
" style="stroke: #000000; stroke-width: 0.8"/>
      </defs>
      <g>
       <use xlink:href="#m237b417943" x="31.175" y="65.72" style="stroke: #000000; stroke-width: 0.8"/>
      </g>
     </g>
     <g id="text_8">
      <text style="font: 5px 'Arial'; text-anchor: end" x="24.175" y="67.509453" transform="rotate(-0 24.175 67.509453)">0</text>
     </g>
    </g>
    <g id="ytick_2">
     <g id="line2d_8">
      <g>
       <use xlink:href="#m237b417943" x="31.175" y="50.114667" style="stroke: #000000; stroke-width: 0.8"/>
      </g>
     </g>
     <g id="text_9">
      <text style="font: 5px 'Arial'; text-anchor: end" x="24.175" y="51.90412" transform="rotate(-0 24.175 51.90412)">200</text>
     </g>
    </g>
    <g id="ytick_3">
     <g id="line2d_9">
      <g>
       <use xlink:href="#m237b417943" x="31.175" y="34.509333" style="stroke: #000000; stroke-width: 0.8"/>
      </g>
     </g>
     <g id="text_10">
      <text style="font: 5px 'Arial'; text-anchor: end" x="24.175" y="36.298786" transform="rotate(-0 24.175 36.298786)">400</text>
     </g>
    </g>
    <g id="ytick_4">
     <g id="line2d_10">
      <g>
       <use xlink:href="#m237b417943" x="31.175" y="18.904" style="stroke: #000000; stroke-width: 0.8"/>
      </g>
     </g>
     <g id="text_11">
      <text style="font: 5px 'Arial'; text-anchor: end" x="24.175" y="20.693453" transform="rotate(-0 24.175 20.693453)">600</text>
     </g>
    </g>
    <g id="text_12">
     <text style="font: 5px 'Arial'; text-anchor: middle" x="10.839844" y="36.46" transform="rotate(-90 10.839844 36.46)">Number of peptides</text>
    </g>
   </g>
   <g id="line2d_11">
    <path d="M 244.148539 65.72 
L 365.512734 65.647049 
L 369.047614 65.438642 
L 371.4042 65.109938 
L 373.760786 64.52183 
L 376.117373 63.584217 
L 378.473959 62.255951 
L 380.830545 60.591467 
L 385.543718 57.020127 
L 387.900304 55.636772 
L 389.078597 55.14411 
L 390.25689 54.803671 
L 391.435184 54.619171 
L 392.613477 54.586011 
L 393.79177 54.692495 
L 396.148356 55.252221 
L 398.504942 56.127882 
L 405.574701 59.008377 
L 407.931288 59.70264 
L 410.287874 60.219078 
L 413.822753 60.750964 
L 423.249099 61.770079 
L 430.318858 62.38511 
L 439.745203 62.889094 
L 445.636669 63.32148 
L 457.4196 64.314211 
L 463.311066 64.502155 
L 477.450584 64.723339 
L 478.628877 64.801432 
L 478.628877 64.801432 
" clip-path="url(#p54652fd104)" style="fill: none; stroke: #ff120a; stroke-width: 1.5; stroke-linecap: square"/>
   </g>
   <g id="line2d_12">
    <path d="M 244.148539 63.064503 
L 245.326833 62.124488 
L 246.505126 61.001575 
L 248.861712 58.301857 
L 252.396592 53.970205 
L 253.574885 52.734799 
L 254.753178 51.691095 
L 255.931471 50.854219 
L 257.109764 50.216717 
L 258.288057 49.760624 
L 259.46635 49.471792 
L 260.644644 49.349968 
L 261.822937 49.410021 
L 263.00123 49.673867 
L 264.179523 50.157001 
L 265.357816 50.855966 
L 267.714403 52.765653 
L 272.427575 57.049043 
L 274.784161 58.791118 
L 277.140748 60.1971 
L 279.497334 61.319301 
L 281.85392 62.191765 
L 284.210507 62.844626 
L 287.745386 63.542993 
L 294.815145 64.594581 
L 298.350024 64.930103 
L 301.884904 65.00599 
L 314.846129 64.792824 
L 320.737594 64.683516 
L 324.272474 64.638545 
L 327.807353 64.833009 
L 336.055405 65.607365 
L 340.768578 65.709831 
L 366.691027 65.72 
L 478.628877 65.72 
L 478.628877 65.72 
" clip-path="url(#p54652fd104)" style="fill: none; stroke: #ff120a; stroke-width: 1.5; stroke-linecap: square"/>
   </g>
   <g id="patch_45">
    <path d="M 31.175 65.72 
L 31.175 7.2 
" style="fill: none; stroke: #000000; stroke-width: 0.8; stroke-linejoin: miter; stroke-linecap: square"/>
   </g>
   <g id="patch_46">
    <path d="M 31.175 65.72 
L 488.589 65.72 
" style="fill: none; stroke: #000000; stroke-width: 0.8; stroke-linejoin: miter; stroke-linecap: square"/>
   </g>
   <g id="text_13">
    <text style="fill: #ff120a; font: 5px 'Arial'; text-anchor: start" x="241.651732" y="55.108373" transform="rotate(-0 241.651732 55.108373)">28</text>
   </g>
   <g id="text_14">
    <text style="fill: #ff120a; font: 5px 'Arial'; text-anchor: start" x="251.18119" y="47.617813" transform="rotate(-0 251.18119 47.617813)">192</text>
   </g>
   <g id="text_15">
    <text style="fill: #ff120a; font: 5px 'Arial'; text-anchor: start" x="261.124973" y="46.603467" transform="rotate(-0 261.124973 46.603467)">205</text>
   </g>
   <g id="text_16">
    <text style="fill: #ff120a; font: 5px 'Arial'; text-anchor: start" x="271.48308" y="53.352773" transform="rotate(-0 271.48308 53.352773)">86</text>
   </g>
   <g id="text_17">
    <text style="fill: #ff120a; font: 5px 'Arial'; text-anchor: start" x="281.426862" y="58.6976" transform="rotate(-0 281.426862 58.6976)">32</text>
   </g>
   <g id="text_18">
    <text style="fill: #ff120a; font: 5px 'Arial'; text-anchor: start" x="291.370645" y="60.92136" transform="rotate(-0 291.370645 60.92136)">14</text>
   </g>
   <g id="text_19">
    <text style="fill: #ff120a; font: 5px 'Arial'; text-anchor: start" x="301.314428" y="61.6236" transform="rotate(-0 301.314428 61.6236)">11</text>
   </g>
   <g id="text_20">
    <text style="fill: #ff120a; font: 5px 'Arial'; text-anchor: start" x="311.25821" y="61.545573" transform="rotate(-0 311.25821 61.545573)">11</text>
   </g>
   <g id="text_21">
    <text style="fill: #ff120a; font: 5px 'Arial'; text-anchor: start" x="321.201993" y="61.350507" transform="rotate(-0 321.201993 61.350507)">16</text>
   </g>
   <g id="text_22">
    <text style="fill: #ff120a; font: 5px 'Arial'; text-anchor: start" x="380.450364" y="53.703893" transform="rotate(-0 380.450364 53.703893)">114</text>
   </g>
   <g id="text_23">
    <text style="fill: #ff120a; font: 5px 'Arial'; text-anchor: start" x="390.394147" y="50.27072" transform="rotate(-0 390.394147 50.27072)">158</text>
   </g>
   <g id="text_24">
    <text style="fill: #ff120a; font: 5px 'Arial'; text-anchor: start" x="400.752254" y="53.820933" transform="rotate(-0 400.752254 53.820933)">80</text>
   </g>
   <g id="text_25">
    <text style="fill: #ff120a; font: 5px 'Arial'; text-anchor: start" x="410.696036" y="57.371147" transform="rotate(-0 410.696036 57.371147)">67</text>
   </g>
   <g id="text_26">
    <text style="fill: #ff120a; font: 5px 'Arial'; text-anchor: start" x="420.639819" y="58.619573" transform="rotate(-0 420.639819 58.619573)">48</text>
   </g>
   <g id="text_27">
    <text style="fill: #ff120a; font: 5px 'Arial'; text-anchor: start" x="430.583601" y="59.360827" transform="rotate(-0 430.583601 59.360827)">35</text>
   </g>
   <g id="text_28">
    <text style="fill: #ff120a; font: 5px 'Arial'; text-anchor: start" x="440.527384" y="59.868" transform="rotate(-0 440.527384 59.868)">35</text>
   </g>
   <g id="text_29">
    <text style="fill: #ff120a; font: 5px 'Arial'; text-anchor: start" x="450.471167" y="60.68728" transform="rotate(-0 450.471167 60.68728)">21</text>
   </g>
   <g id="text_30">
    <text style="fill: #ff120a; font: 5px 'Arial'; text-anchor: start" x="460.414949" y="60.882347" transform="rotate(-0 460.414949 60.882347)">14</text>
   </g>
   <g id="text_31">
    <text style="fill: #ff120a; font: 5px 'Arial'; text-anchor: start" x="470.358732" y="60.80432" transform="rotate(-0 470.358732 60.80432)">23</text>
   </g>
  </g>
 </g>
 <defs>
  <clipPath id="p54652fd104">
   <rect x="31.175" y="7.2" width="457.414" height="58.52"/>
  </clipPath>
 </defs>
</svg>
