<?xml version="1.0" encoding="utf-8" standalone="no"?>
<!DOCTYPE svg PUBLIC "-//W3C//DTD SVG 1.1//EN"
  "http://www.w3.org/Graphics/SVG/1.1/DTD/svg11.dtd">
<svg xmlns:xlink="http://www.w3.org/1999/xlink" width="495.789pt" height="93.184844pt" viewBox="0 0 495.789 93.184844" xmlns="http://www.w3.org/2000/svg" version="1.1">
 <metadata>
  <rdf:RDF xmlns:dc="http://purl.org/dc/elements/1.1/" xmlns:cc="http://creativecommons.org/ns#" xmlns:rdf="http://www.w3.org/1999/02/22-rdf-syntax-ns#">
   <cc:Work>
    <dc:type rdf:resource="http://purl.org/dc/dcmitype/StillImage"/>
    <dc:date>2024-09-25T17:34:12.125850</dc:date>
    <dc:format>image/svg+xml</dc:format>
    <dc:creator>
     <cc:Agent>
      <dc:title>Matplotlib v3.7.0, https://matplotlib.org/</dc:title>
     </cc:Agent>
    </dc:creator>
   </cc:Work>
  </rdf:RDF>
 </metadata>
 <defs>
  <style type="text/css">*{stroke-linejoin: round; stroke-linecap: butt}</style>
 </defs>
 <g id="figure_1">
  <g id="patch_1">
   <path d="M 0 93.184844 
L 495.789 93.184844 
L 495.789 0 
L 0 0 
z
" style="fill: #ffffff"/>
  </g>
  <g id="axes_1">
   <g id="patch_2">
    <path d="M 31.175 65.72 
L 488.589 65.72 
L 488.589 7.2 
L 31.175 7.2 
z
" style="fill: #ffffff"/>
   </g>
   <g id="patch_3">
    <path d="M 80.893913 65.72 
L 90.837696 65.72 
L 90.837696 65.72 
L 80.893913 65.72 
z
" clip-path="url(#p2cd6866052)" style="fill: #ff120a; fill-opacity: 0.5; stroke: #000000; stroke-linejoin: miter"/>
   </g>
   <g id="patch_4">
    <path d="M 90.837696 65.72 
L 100.781478 65.72 
L 100.781478 65.72 
L 90.837696 65.72 
z
" clip-path="url(#p2cd6866052)" style="fill: #ff120a; fill-opacity: 0.5; stroke: #000000; stroke-linejoin: miter"/>
   </g>
   <g id="patch_5">
    <path d="M 100.781478 65.72 
L 110.725261 65.72 
L 110.725261 65.72 
L 100.781478 65.72 
z
" clip-path="url(#p2cd6866052)" style="fill: #ff120a; fill-opacity: 0.5; stroke: #000000; stroke-linejoin: miter"/>
   </g>
   <g id="patch_6">
    <path d="M 110.725261 65.72 
L 120.669043 65.72 
L 120.669043 65.72 
L 110.725261 65.72 
z
" clip-path="url(#p2cd6866052)" style="fill: #ff120a; fill-opacity: 0.5; stroke: #000000; stroke-linejoin: miter"/>
   </g>
   <g id="patch_7">
    <path d="M 120.669043 65.72 
L 130.612826 65.72 
L 130.612826 65.72 
L 120.669043 65.72 
z
" clip-path="url(#p2cd6866052)" style="fill: #ff120a; fill-opacity: 0.5; stroke: #000000; stroke-linejoin: miter"/>
   </g>
   <g id="patch_8">
    <path d="M 130.612826 65.72 
L 140.556609 65.72 
L 140.556609 65.72 
L 130.612826 65.72 
z
" clip-path="url(#p2cd6866052)" style="fill: #ff120a; fill-opacity: 0.5; stroke: #000000; stroke-linejoin: miter"/>
   </g>
   <g id="patch_9">
    <path d="M 140.556609 65.72 
L 150.500391 65.72 
L 150.500391 65.72 
L 140.556609 65.72 
z
" clip-path="url(#p2cd6866052)" style="fill: #ff120a; fill-opacity: 0.5; stroke: #000000; stroke-linejoin: miter"/>
   </g>
   <g id="patch_10">
    <path d="M 150.500391 65.72 
L 160.444174 65.72 
L 160.444174 65.72 
L 150.500391 65.72 
z
" clip-path="url(#p2cd6866052)" style="fill: #ff120a; fill-opacity: 0.5; stroke: #000000; stroke-linejoin: miter"/>
   </g>
   <g id="patch_11">
    <path d="M 160.444174 65.72 
L 170.387957 65.72 
L 170.387957 65.72 
L 160.444174 65.72 
z
" clip-path="url(#p2cd6866052)" style="fill: #ff120a; fill-opacity: 0.5; stroke: #000000; stroke-linejoin: miter"/>
   </g>
   <g id="patch_12">
    <path d="M 170.387957 65.72 
L 180.331739 65.72 
L 180.331739 65.72 
L 170.387957 65.72 
z
" clip-path="url(#p2cd6866052)" style="fill: #ff120a; fill-opacity: 0.5; stroke: #000000; stroke-linejoin: miter"/>
   </g>
   <g id="patch_13">
    <path d="M 180.331739 65.72 
L 230.050652 65.72 
L 230.050652 65.72 
L 180.331739 65.72 
z
" clip-path="url(#p2cd6866052)" style="fill: #ff120a; fill-opacity: 0.5; stroke: #000000; stroke-linejoin: miter"/>
   </g>
   <g id="patch_14">
    <path d="M 230.050652 65.72 
L 239.994435 65.72 
L 239.994435 65.72 
L 230.050652 65.72 
z
" clip-path="url(#p2cd6866052)" style="fill: #ff120a; fill-opacity: 0.5; stroke: #000000; stroke-linejoin: miter"/>
   </g>
   <g id="patch_15">
    <path d="M 239.994435 65.72 
L 249.938217 65.72 
L 249.938217 65.72 
L 239.994435 65.72 
z
" clip-path="url(#p2cd6866052)" style="fill: #ff120a; fill-opacity: 0.5; stroke: #000000; stroke-linejoin: miter"/>
   </g>
   <g id="patch_16">
    <path d="M 249.938217 65.72 
L 259.882 65.72 
L 259.882 65.72 
L 249.938217 65.72 
z
" clip-path="url(#p2cd6866052)" style="fill: #ff120a; fill-opacity: 0.5; stroke: #000000; stroke-linejoin: miter"/>
   </g>
   <g id="patch_17">
    <path d="M 259.882 65.72 
L 269.825783 65.72 
L 269.825783 65.72 
L 259.882 65.72 
z
" clip-path="url(#p2cd6866052)" style="fill: #ff120a; fill-opacity: 0.5; stroke: #000000; stroke-linejoin: miter"/>
   </g>
   <g id="patch_18">
    <path d="M 269.825783 65.72 
L 279.769565 65.72 
L 279.769565 65.72 
L 269.825783 65.72 
z
" clip-path="url(#p2cd6866052)" style="fill: #ff120a; fill-opacity: 0.5; stroke: #000000; stroke-linejoin: miter"/>
   </g>
   <g id="patch_19">
    <path d="M 279.769565 65.72 
L 289.713348 65.72 
L 289.713348 65.72 
L 279.769565 65.72 
z
" clip-path="url(#p2cd6866052)" style="fill: #ff120a; fill-opacity: 0.5; stroke: #000000; stroke-linejoin: miter"/>
   </g>
   <g id="patch_20">
    <path d="M 289.713348 65.72 
L 299.65713 65.72 
L 299.65713 65.72 
L 289.713348 65.72 
z
" clip-path="url(#p2cd6866052)" style="fill: #ff120a; fill-opacity: 0.5; stroke: #000000; stroke-linejoin: miter"/>
   </g>
   <g id="patch_21">
    <path d="M 299.65713 65.72 
L 309.600913 65.72 
L 309.600913 65.72 
L 299.65713 65.72 
z
" clip-path="url(#p2cd6866052)" style="fill: #ff120a; fill-opacity: 0.5; stroke: #000000; stroke-linejoin: miter"/>
   </g>
   <g id="patch_22">
    <path d="M 309.600913 65.72 
L 319.544696 65.72 
L 319.544696 65.72 
L 309.600913 65.72 
z
" clip-path="url(#p2cd6866052)" style="fill: #ff120a; fill-opacity: 0.5; stroke: #000000; stroke-linejoin: miter"/>
   </g>
   <g id="patch_23">
    <path d="M 319.544696 65.72 
L 329.488478 65.72 
L 329.488478 65.72 
L 319.544696 65.72 
z
" clip-path="url(#p2cd6866052)" style="fill: #ff120a; fill-opacity: 0.5; stroke: #000000; stroke-linejoin: miter"/>
   </g>
   <g id="patch_24">
    <path d="M 329.488478 65.72 
L 379.207391 65.72 
L 379.207391 65.72 
L 329.488478 65.72 
z
" clip-path="url(#p2cd6866052)" style="fill: #ff120a; fill-opacity: 0.5; stroke: #000000; stroke-linejoin: miter"/>
   </g>
   <g id="patch_25">
    <path d="M 379.207391 65.72 
L 389.151174 65.72 
L 389.151174 45.511093 
L 379.207391 45.511093 
z
" clip-path="url(#p2cd6866052)" style="fill: #ff120a; fill-opacity: 0.5; stroke: #000000; stroke-linejoin: miter"/>
   </g>
   <g id="patch_26">
    <path d="M 389.151174 65.72 
L 399.094957 65.72 
L 399.094957 57.29312 
L 389.151174 57.29312 
z
" clip-path="url(#p2cd6866052)" style="fill: #ff120a; fill-opacity: 0.5; stroke: #000000; stroke-linejoin: miter"/>
   </g>
   <g id="patch_27">
    <path d="M 399.094957 65.72 
L 409.038739 65.72 
L 409.038739 62.286827 
L 399.094957 62.286827 
z
" clip-path="url(#p2cd6866052)" style="fill: #ff120a; fill-opacity: 0.5; stroke: #000000; stroke-linejoin: miter"/>
   </g>
   <g id="patch_28">
    <path d="M 409.038739 65.72 
L 418.982522 65.72 
L 418.982522 63.457227 
L 409.038739 63.457227 
z
" clip-path="url(#p2cd6866052)" style="fill: #ff120a; fill-opacity: 0.5; stroke: #000000; stroke-linejoin: miter"/>
   </g>
   <g id="patch_29">
    <path d="M 418.982522 65.72 
L 428.926304 65.72 
L 428.926304 63.84736 
L 418.982522 63.84736 
z
" clip-path="url(#p2cd6866052)" style="fill: #ff120a; fill-opacity: 0.5; stroke: #000000; stroke-linejoin: miter"/>
   </g>
   <g id="patch_30">
    <path d="M 428.926304 65.72 
L 438.870087 65.72 
L 438.870087 64.393547 
L 428.926304 64.393547 
z
" clip-path="url(#p2cd6866052)" style="fill: #ff120a; fill-opacity: 0.5; stroke: #000000; stroke-linejoin: miter"/>
   </g>
   <g id="patch_31">
    <path d="M 438.870087 65.72 
L 448.81387 65.72 
L 448.81387 64.237493 
L 438.870087 64.237493 
z
" clip-path="url(#p2cd6866052)" style="fill: #ff120a; fill-opacity: 0.5; stroke: #000000; stroke-linejoin: miter"/>
   </g>
   <g id="patch_32">
    <path d="M 448.81387 65.72 
L 458.757652 65.72 
L 458.757652 63.61328 
L 448.81387 63.61328 
z
" clip-path="url(#p2cd6866052)" style="fill: #ff120a; fill-opacity: 0.5; stroke: #000000; stroke-linejoin: miter"/>
   </g>
   <g id="patch_33">
    <path d="M 458.757652 65.72 
L 468.701435 65.72 
L 468.701435 64.003413 
L 458.757652 64.003413 
z
" clip-path="url(#p2cd6866052)" style="fill: #ff120a; fill-opacity: 0.5; stroke: #000000; stroke-linejoin: miter"/>
   </g>
   <g id="patch_34">
    <path d="M 468.701435 65.72 
L 478.645217 65.72 
L 478.645217 62.130773 
L 468.701435 62.130773 
z
" clip-path="url(#p2cd6866052)" style="fill: #ff120a; fill-opacity: 0.5; stroke: #000000; stroke-linejoin: miter"/>
   </g>
   <g id="patch_35">
    <path d="M 80.893913 65.72 
L 90.837696 65.72 
L 90.837696 65.72 
L 80.893913 65.72 
z
" clip-path="url(#p2cd6866052)" style="fill: #ff120a; fill-opacity: 0.5; stroke: #000000; stroke-linejoin: miter"/>
   </g>
   <g id="patch_36">
    <path d="M 90.837696 65.72 
L 100.781478 65.72 
L 100.781478 65.72 
L 90.837696 65.72 
z
" clip-path="url(#p2cd6866052)" style="fill: #ff120a; fill-opacity: 0.5; stroke: #000000; stroke-linejoin: miter"/>
   </g>
   <g id="patch_37">
    <path d="M 100.781478 65.72 
L 110.725261 65.72 
L 110.725261 65.72 
L 100.781478 65.72 
z
" clip-path="url(#p2cd6866052)" style="fill: #ff120a; fill-opacity: 0.5; stroke: #000000; stroke-linejoin: miter"/>
   </g>
   <g id="patch_38">
    <path d="M 110.725261 65.72 
L 120.669043 65.72 
L 120.669043 65.72 
L 110.725261 65.72 
z
" clip-path="url(#p2cd6866052)" style="fill: #ff120a; fill-opacity: 0.5; stroke: #000000; stroke-linejoin: miter"/>
   </g>
   <g id="patch_39">
    <path d="M 120.669043 65.72 
L 130.612826 65.72 
L 130.612826 65.72 
L 120.669043 65.72 
z
" clip-path="url(#p2cd6866052)" style="fill: #ff120a; fill-opacity: 0.5; stroke: #000000; stroke-linejoin: miter"/>
   </g>
   <g id="patch_40">
    <path d="M 130.612826 65.72 
L 140.556609 65.72 
L 140.556609 65.72 
L 130.612826 65.72 
z
" clip-path="url(#p2cd6866052)" style="fill: #ff120a; fill-opacity: 0.5; stroke: #000000; stroke-linejoin: miter"/>
   </g>
   <g id="patch_41">
    <path d="M 140.556609 65.72 
L 150.500391 65.72 
L 150.500391 65.72 
L 140.556609 65.72 
z
" clip-path="url(#p2cd6866052)" style="fill: #ff120a; fill-opacity: 0.5; stroke: #000000; stroke-linejoin: miter"/>
   </g>
   <g id="patch_42">
    <path d="M 150.500391 65.72 
L 160.444174 65.72 
L 160.444174 65.72 
L 150.500391 65.72 
z
" clip-path="url(#p2cd6866052)" style="fill: #ff120a; fill-opacity: 0.5; stroke: #000000; stroke-linejoin: miter"/>
   </g>
   <g id="patch_43">
    <path d="M 160.444174 65.72 
L 170.387957 65.72 
L 170.387957 65.72 
L 160.444174 65.72 
z
" clip-path="url(#p2cd6866052)" style="fill: #ff120a; fill-opacity: 0.5; stroke: #000000; stroke-linejoin: miter"/>
   </g>
   <g id="patch_44">
    <path d="M 170.387957 65.72 
L 180.331739 65.72 
L 180.331739 65.72 
L 170.387957 65.72 
z
" clip-path="url(#p2cd6866052)" style="fill: #ff120a; fill-opacity: 0.5; stroke: #000000; stroke-linejoin: miter"/>
   </g>
   <g id="patch_45">
    <path d="M 180.331739 65.72 
L 230.050652 65.72 
L 230.050652 65.72 
L 180.331739 65.72 
z
" clip-path="url(#p2cd6866052)" style="fill: #ff120a; fill-opacity: 0.5; stroke: #000000; stroke-linejoin: miter"/>
   </g>
   <g id="patch_46">
    <path d="M 230.050652 65.72 
L 239.994435 65.72 
L 239.994435 46.05728 
L 230.050652 46.05728 
z
" clip-path="url(#p2cd6866052)" style="fill: #ff120a; fill-opacity: 0.5; stroke: #000000; stroke-linejoin: miter"/>
   </g>
   <g id="patch_47">
    <path d="M 239.994435 65.72 
L 249.938217 65.72 
L 249.938217 58.853653 
L 239.994435 58.853653 
z
" clip-path="url(#p2cd6866052)" style="fill: #ff120a; fill-opacity: 0.5; stroke: #000000; stroke-linejoin: miter"/>
   </g>
   <g id="patch_48">
    <path d="M 249.938217 65.72 
L 259.882 65.72 
L 259.882 61.0384 
L 249.938217 61.0384 
z
" clip-path="url(#p2cd6866052)" style="fill: #ff120a; fill-opacity: 0.5; stroke: #000000; stroke-linejoin: miter"/>
   </g>
   <g id="patch_49">
    <path d="M 259.882 65.72 
L 269.825783 65.72 
L 269.825783 62.833013 
L 259.882 62.833013 
z
" clip-path="url(#p2cd6866052)" style="fill: #ff120a; fill-opacity: 0.5; stroke: #000000; stroke-linejoin: miter"/>
   </g>
   <g id="patch_50">
    <path d="M 269.825783 65.72 
L 279.769565 65.72 
L 279.769565 63.067093 
L 269.825783 63.067093 
z
" clip-path="url(#p2cd6866052)" style="fill: #ff120a; fill-opacity: 0.5; stroke: #000000; stroke-linejoin: miter"/>
   </g>
   <g id="patch_51">
    <path d="M 279.769565 65.72 
L 289.713348 65.72 
L 289.713348 64.237493 
L 279.769565 64.237493 
z
" clip-path="url(#p2cd6866052)" style="fill: #ff120a; fill-opacity: 0.5; stroke: #000000; stroke-linejoin: miter"/>
   </g>
   <g id="patch_52">
    <path d="M 289.713348 65.72 
L 299.65713 65.72 
L 299.65713 64.159467 
L 289.713348 64.159467 
z
" clip-path="url(#p2cd6866052)" style="fill: #ff120a; fill-opacity: 0.5; stroke: #000000; stroke-linejoin: miter"/>
   </g>
   <g id="patch_53">
    <path d="M 299.65713 65.72 
L 309.600913 65.72 
L 309.600913 64.08144 
L 299.65713 64.08144 
z
" clip-path="url(#p2cd6866052)" style="fill: #ff120a; fill-opacity: 0.5; stroke: #000000; stroke-linejoin: miter"/>
   </g>
   <g id="patch_54">
    <path d="M 309.600913 65.72 
L 319.544696 65.72 
L 319.544696 64.08144 
L 309.600913 64.08144 
z
" clip-path="url(#p2cd6866052)" style="fill: #ff120a; fill-opacity: 0.5; stroke: #000000; stroke-linejoin: miter"/>
   </g>
   <g id="patch_55">
    <path d="M 319.544696 65.72 
L 329.488478 65.72 
L 329.488478 62.364853 
L 319.544696 62.364853 
z
" clip-path="url(#p2cd6866052)" style="fill: #ff120a; fill-opacity: 0.5; stroke: #000000; stroke-linejoin: miter"/>
   </g>
   <g id="patch_56">
    <path d="M 329.488478 65.72 
L 379.207391 65.72 
L 379.207391 65.72 
L 329.488478 65.72 
z
" clip-path="url(#p2cd6866052)" style="fill: #ff120a; fill-opacity: 0.5; stroke: #000000; stroke-linejoin: miter"/>
   </g>
   <g id="patch_57">
    <path d="M 379.207391 65.72 
L 389.151174 65.72 
L 389.151174 65.72 
L 379.207391 65.72 
z
" clip-path="url(#p2cd6866052)" style="fill: #ff120a; fill-opacity: 0.5; stroke: #000000; stroke-linejoin: miter"/>
   </g>
   <g id="patch_58">
    <path d="M 389.151174 65.72 
L 399.094957 65.72 
L 399.094957 65.72 
L 389.151174 65.72 
z
" clip-path="url(#p2cd6866052)" style="fill: #ff120a; fill-opacity: 0.5; stroke: #000000; stroke-linejoin: miter"/>
   </g>
   <g id="patch_59">
    <path d="M 399.094957 65.72 
L 409.038739 65.72 
L 409.038739 65.72 
L 399.094957 65.72 
z
" clip-path="url(#p2cd6866052)" style="fill: #ff120a; fill-opacity: 0.5; stroke: #000000; stroke-linejoin: miter"/>
   </g>
   <g id="patch_60">
    <path d="M 409.038739 65.72 
L 418.982522 65.72 
L 418.982522 65.72 
L 409.038739 65.72 
z
" clip-path="url(#p2cd6866052)" style="fill: #ff120a; fill-opacity: 0.5; stroke: #000000; stroke-linejoin: miter"/>
   </g>
   <g id="patch_61">
    <path d="M 418.982522 65.72 
L 428.926304 65.72 
L 428.926304 65.72 
L 418.982522 65.72 
z
" clip-path="url(#p2cd6866052)" style="fill: #ff120a; fill-opacity: 0.5; stroke: #000000; stroke-linejoin: miter"/>
   </g>
   <g id="patch_62">
    <path d="M 428.926304 65.72 
L 438.870087 65.72 
L 438.870087 65.72 
L 428.926304 65.72 
z
" clip-path="url(#p2cd6866052)" style="fill: #ff120a; fill-opacity: 0.5; stroke: #000000; stroke-linejoin: miter"/>
   </g>
   <g id="patch_63">
    <path d="M 438.870087 65.72 
L 448.81387 65.72 
L 448.81387 65.72 
L 438.870087 65.72 
z
" clip-path="url(#p2cd6866052)" style="fill: #ff120a; fill-opacity: 0.5; stroke: #000000; stroke-linejoin: miter"/>
   </g>
   <g id="patch_64">
    <path d="M 448.81387 65.72 
L 458.757652 65.72 
L 458.757652 65.72 
L 448.81387 65.72 
z
" clip-path="url(#p2cd6866052)" style="fill: #ff120a; fill-opacity: 0.5; stroke: #000000; stroke-linejoin: miter"/>
   </g>
   <g id="patch_65">
    <path d="M 458.757652 65.72 
L 468.701435 65.72 
L 468.701435 65.72 
L 458.757652 65.72 
z
" clip-path="url(#p2cd6866052)" style="fill: #ff120a; fill-opacity: 0.5; stroke: #000000; stroke-linejoin: miter"/>
   </g>
   <g id="patch_66">
    <path d="M 468.701435 65.72 
L 478.645217 65.72 
L 478.645217 65.72 
L 468.701435 65.72 
z
" clip-path="url(#p2cd6866052)" style="fill: #ff120a; fill-opacity: 0.5; stroke: #000000; stroke-linejoin: miter"/>
   </g>
   <g id="patch_67">
    <path d="M 80.893913 65.72 
L 90.837696 65.72 
L 90.837696 64.237493 
L 80.893913 64.237493 
z
" clip-path="url(#p2cd6866052)" style="fill: #ff120a; fill-opacity: 0.5; stroke: #000000; stroke-linejoin: miter"/>
   </g>
   <g id="patch_68">
    <path d="M 90.837696 65.72 
L 100.781478 65.72 
L 100.781478 51.6752 
L 90.837696 51.6752 
z
" clip-path="url(#p2cd6866052)" style="fill: #ff120a; fill-opacity: 0.5; stroke: #000000; stroke-linejoin: miter"/>
   </g>
   <g id="patch_69">
    <path d="M 100.781478 65.72 
L 110.725261 65.72 
L 110.725261 55.88864 
L 100.781478 55.88864 
z
" clip-path="url(#p2cd6866052)" style="fill: #ff120a; fill-opacity: 0.5; stroke: #000000; stroke-linejoin: miter"/>
   </g>
   <g id="patch_70">
    <path d="M 110.725261 65.72 
L 120.669043 65.72 
L 120.669043 58.151413 
L 110.725261 58.151413 
z
" clip-path="url(#p2cd6866052)" style="fill: #ff120a; fill-opacity: 0.5; stroke: #000000; stroke-linejoin: miter"/>
   </g>
   <g id="patch_71">
    <path d="M 120.669043 65.72 
L 130.612826 65.72 
L 130.612826 61.896693 
L 120.669043 61.896693 
z
" clip-path="url(#p2cd6866052)" style="fill: #ff120a; fill-opacity: 0.5; stroke: #000000; stroke-linejoin: miter"/>
   </g>
   <g id="patch_72">
    <path d="M 130.612826 65.72 
L 140.556609 65.72 
L 140.556609 61.97472 
L 130.612826 61.97472 
z
" clip-path="url(#p2cd6866052)" style="fill: #ff120a; fill-opacity: 0.5; stroke: #000000; stroke-linejoin: miter"/>
   </g>
   <g id="patch_73">
    <path d="M 140.556609 65.72 
L 150.500391 65.72 
L 150.500391 62.989067 
L 140.556609 62.989067 
z
" clip-path="url(#p2cd6866052)" style="fill: #ff120a; fill-opacity: 0.5; stroke: #000000; stroke-linejoin: miter"/>
   </g>
   <g id="patch_74">
    <path d="M 150.500391 65.72 
L 160.444174 65.72 
L 160.444174 64.31552 
L 150.500391 64.31552 
z
" clip-path="url(#p2cd6866052)" style="fill: #ff120a; fill-opacity: 0.5; stroke: #000000; stroke-linejoin: miter"/>
   </g>
   <g id="patch_75">
    <path d="M 160.444174 65.72 
L 170.387957 65.72 
L 170.387957 64.939733 
L 160.444174 64.939733 
z
" clip-path="url(#p2cd6866052)" style="fill: #ff120a; fill-opacity: 0.5; stroke: #000000; stroke-linejoin: miter"/>
   </g>
   <g id="patch_76">
    <path d="M 170.387957 65.72 
L 180.331739 65.72 
L 180.331739 64.705653 
L 170.387957 64.705653 
z
" clip-path="url(#p2cd6866052)" style="fill: #ff120a; fill-opacity: 0.5; stroke: #000000; stroke-linejoin: miter"/>
   </g>
   <g id="patch_77">
    <path d="M 180.331739 65.72 
L 230.050652 65.72 
L 230.050652 65.72 
L 180.331739 65.72 
z
" clip-path="url(#p2cd6866052)" style="fill: #ff120a; fill-opacity: 0.5; stroke: #000000; stroke-linejoin: miter"/>
   </g>
   <g id="patch_78">
    <path d="M 230.050652 65.72 
L 239.994435 65.72 
L 239.994435 65.72 
L 230.050652 65.72 
z
" clip-path="url(#p2cd6866052)" style="fill: #ff120a; fill-opacity: 0.5; stroke: #000000; stroke-linejoin: miter"/>
   </g>
   <g id="patch_79">
    <path d="M 239.994435 65.72 
L 249.938217 65.72 
L 249.938217 65.72 
L 239.994435 65.72 
z
" clip-path="url(#p2cd6866052)" style="fill: #ff120a; fill-opacity: 0.5; stroke: #000000; stroke-linejoin: miter"/>
   </g>
   <g id="patch_80">
    <path d="M 249.938217 65.72 
L 259.882 65.72 
L 259.882 65.72 
L 249.938217 65.72 
z
" clip-path="url(#p2cd6866052)" style="fill: #ff120a; fill-opacity: 0.5; stroke: #000000; stroke-linejoin: miter"/>
   </g>
   <g id="patch_81">
    <path d="M 259.882 65.72 
L 269.825783 65.72 
L 269.825783 65.72 
L 259.882 65.72 
z
" clip-path="url(#p2cd6866052)" style="fill: #ff120a; fill-opacity: 0.5; stroke: #000000; stroke-linejoin: miter"/>
   </g>
   <g id="patch_82">
    <path d="M 269.825783 65.72 
L 279.769565 65.72 
L 279.769565 65.72 
L 269.825783 65.72 
z
" clip-path="url(#p2cd6866052)" style="fill: #ff120a; fill-opacity: 0.5; stroke: #000000; stroke-linejoin: miter"/>
   </g>
   <g id="patch_83">
    <path d="M 279.769565 65.72 
L 289.713348 65.72 
L 289.713348 65.72 
L 279.769565 65.72 
z
" clip-path="url(#p2cd6866052)" style="fill: #ff120a; fill-opacity: 0.5; stroke: #000000; stroke-linejoin: miter"/>
   </g>
   <g id="patch_84">
    <path d="M 289.713348 65.72 
L 299.65713 65.72 
L 299.65713 65.72 
L 289.713348 65.72 
z
" clip-path="url(#p2cd6866052)" style="fill: #ff120a; fill-opacity: 0.5; stroke: #000000; stroke-linejoin: miter"/>
   </g>
   <g id="patch_85">
    <path d="M 299.65713 65.72 
L 309.600913 65.72 
L 309.600913 65.72 
L 299.65713 65.72 
z
" clip-path="url(#p2cd6866052)" style="fill: #ff120a; fill-opacity: 0.5; stroke: #000000; stroke-linejoin: miter"/>
   </g>
   <g id="patch_86">
    <path d="M 309.600913 65.72 
L 319.544696 65.72 
L 319.544696 65.72 
L 309.600913 65.72 
z
" clip-path="url(#p2cd6866052)" style="fill: #ff120a; fill-opacity: 0.5; stroke: #000000; stroke-linejoin: miter"/>
   </g>
   <g id="patch_87">
    <path d="M 319.544696 65.72 
L 329.488478 65.72 
L 329.488478 65.72 
L 319.544696 65.72 
z
" clip-path="url(#p2cd6866052)" style="fill: #ff120a; fill-opacity: 0.5; stroke: #000000; stroke-linejoin: miter"/>
   </g>
   <g id="patch_88">
    <path d="M 329.488478 65.72 
L 379.207391 65.72 
L 379.207391 65.72 
L 329.488478 65.72 
z
" clip-path="url(#p2cd6866052)" style="fill: #ff120a; fill-opacity: 0.5; stroke: #000000; stroke-linejoin: miter"/>
   </g>
   <g id="patch_89">
    <path d="M 379.207391 65.72 
L 389.151174 65.72 
L 389.151174 65.72 
L 379.207391 65.72 
z
" clip-path="url(#p2cd6866052)" style="fill: #ff120a; fill-opacity: 0.5; stroke: #000000; stroke-linejoin: miter"/>
   </g>
   <g id="patch_90">
    <path d="M 389.151174 65.72 
L 399.094957 65.72 
L 399.094957 65.72 
L 389.151174 65.72 
z
" clip-path="url(#p2cd6866052)" style="fill: #ff120a; fill-opacity: 0.5; stroke: #000000; stroke-linejoin: miter"/>
   </g>
   <g id="patch_91">
    <path d="M 399.094957 65.72 
L 409.038739 65.72 
L 409.038739 65.72 
L 399.094957 65.72 
z
" clip-path="url(#p2cd6866052)" style="fill: #ff120a; fill-opacity: 0.5; stroke: #000000; stroke-linejoin: miter"/>
   </g>
   <g id="patch_92">
    <path d="M 409.038739 65.72 
L 418.982522 65.72 
L 418.982522 65.72 
L 409.038739 65.72 
z
" clip-path="url(#p2cd6866052)" style="fill: #ff120a; fill-opacity: 0.5; stroke: #000000; stroke-linejoin: miter"/>
   </g>
   <g id="patch_93">
    <path d="M 418.982522 65.72 
L 428.926304 65.72 
L 428.926304 65.72 
L 418.982522 65.72 
z
" clip-path="url(#p2cd6866052)" style="fill: #ff120a; fill-opacity: 0.5; stroke: #000000; stroke-linejoin: miter"/>
   </g>
   <g id="patch_94">
    <path d="M 428.926304 65.72 
L 438.870087 65.72 
L 438.870087 65.72 
L 428.926304 65.72 
z
" clip-path="url(#p2cd6866052)" style="fill: #ff120a; fill-opacity: 0.5; stroke: #000000; stroke-linejoin: miter"/>
   </g>
   <g id="patch_95">
    <path d="M 438.870087 65.72 
L 448.81387 65.72 
L 448.81387 65.72 
L 438.870087 65.72 
z
" clip-path="url(#p2cd6866052)" style="fill: #ff120a; fill-opacity: 0.5; stroke: #000000; stroke-linejoin: miter"/>
   </g>
   <g id="patch_96">
    <path d="M 448.81387 65.72 
L 458.757652 65.72 
L 458.757652 65.72 
L 448.81387 65.72 
z
" clip-path="url(#p2cd6866052)" style="fill: #ff120a; fill-opacity: 0.5; stroke: #000000; stroke-linejoin: miter"/>
   </g>
   <g id="patch_97">
    <path d="M 458.757652 65.72 
L 468.701435 65.72 
L 468.701435 65.72 
L 458.757652 65.72 
z
" clip-path="url(#p2cd6866052)" style="fill: #ff120a; fill-opacity: 0.5; stroke: #000000; stroke-linejoin: miter"/>
   </g>
   <g id="patch_98">
    <path d="M 468.701435 65.72 
L 478.645217 65.72 
L 478.645217 65.72 
L 468.701435 65.72 
z
" clip-path="url(#p2cd6866052)" style="fill: #ff120a; fill-opacity: 0.5; stroke: #000000; stroke-linejoin: miter"/>
   </g>
   <g id="PathCollection_1">
    <defs>
     <path id="ma1ab48c372" d="M 0 0.707107 
C 0.187527 0.707107 0.367398 0.632602 0.5 0.5 
C 0.632602 0.367398 0.707107 0.187527 0.707107 0 
C 0.707107 -0.187527 0.632602 -0.367398 0.5 -0.5 
C 0.367398 -0.632602 0.187527 -0.707107 0 -0.707107 
C -0.187527 -0.707107 -0.367398 -0.632602 -0.5 -0.5 
C -0.632602 -0.367398 -0.707107 -0.187527 -0.707107 0 
C -0.707107 0.187527 -0.632602 0.367398 -0.5 0.5 
C -0.367398 0.632602 -0.187527 0.707107 0 0.707107 
z
" style="stroke: #ff120a"/>
    </defs>
    <g clip-path="url(#p2cd6866052)">
     <use xlink:href="#ma1ab48c372" x="85.865804" y="64.237493" style="fill: #ff120a; stroke: #ff120a"/>
     <use xlink:href="#ma1ab48c372" x="95.809587" y="51.6752" style="fill: #ff120a; stroke: #ff120a"/>
     <use xlink:href="#ma1ab48c372" x="105.75337" y="55.88864" style="fill: #ff120a; stroke: #ff120a"/>
     <use xlink:href="#ma1ab48c372" x="115.697152" y="58.151413" style="fill: #ff120a; stroke: #ff120a"/>
     <use xlink:href="#ma1ab48c372" x="125.640935" y="61.896693" style="fill: #ff120a; stroke: #ff120a"/>
     <use xlink:href="#ma1ab48c372" x="135.584717" y="61.97472" style="fill: #ff120a; stroke: #ff120a"/>
     <use xlink:href="#ma1ab48c372" x="145.5285" y="62.989067" style="fill: #ff120a; stroke: #ff120a"/>
     <use xlink:href="#ma1ab48c372" x="155.472283" y="64.31552" style="fill: #ff120a; stroke: #ff120a"/>
     <use xlink:href="#ma1ab48c372" x="165.416065" y="64.939733" style="fill: #ff120a; stroke: #ff120a"/>
     <use xlink:href="#ma1ab48c372" x="175.359848" y="64.705653" style="fill: #ff120a; stroke: #ff120a"/>
    </g>
   </g>
   <g id="PathCollection_2">
    <g clip-path="url(#p2cd6866052)">
     <use xlink:href="#ma1ab48c372" x="235.022543" y="46.05728" style="fill: #ff120a; stroke: #ff120a"/>
     <use xlink:href="#ma1ab48c372" x="244.966326" y="58.853653" style="fill: #ff120a; stroke: #ff120a"/>
     <use xlink:href="#ma1ab48c372" x="254.910109" y="61.0384" style="fill: #ff120a; stroke: #ff120a"/>
     <use xlink:href="#ma1ab48c372" x="264.853891" y="62.833013" style="fill: #ff120a; stroke: #ff120a"/>
     <use xlink:href="#ma1ab48c372" x="274.797674" y="63.067093" style="fill: #ff120a; stroke: #ff120a"/>
     <use xlink:href="#ma1ab48c372" x="284.741457" y="64.237493" style="fill: #ff120a; stroke: #ff120a"/>
     <use xlink:href="#ma1ab48c372" x="294.685239" y="64.159467" style="fill: #ff120a; stroke: #ff120a"/>
     <use xlink:href="#ma1ab48c372" x="304.629022" y="64.08144" style="fill: #ff120a; stroke: #ff120a"/>
     <use xlink:href="#ma1ab48c372" x="314.572804" y="64.08144" style="fill: #ff120a; stroke: #ff120a"/>
     <use xlink:href="#ma1ab48c372" x="324.516587" y="62.364853" style="fill: #ff120a; stroke: #ff120a"/>
    </g>
   </g>
   <g id="PathCollection_3">
    <g clip-path="url(#p2cd6866052)">
     <use xlink:href="#ma1ab48c372" x="384.179283" y="45.511093" style="fill: #ff120a; stroke: #ff120a"/>
     <use xlink:href="#ma1ab48c372" x="394.123065" y="57.29312" style="fill: #ff120a; stroke: #ff120a"/>
     <use xlink:href="#ma1ab48c372" x="404.066848" y="62.286827" style="fill: #ff120a; stroke: #ff120a"/>
     <use xlink:href="#ma1ab48c372" x="414.01063" y="63.457227" style="fill: #ff120a; stroke: #ff120a"/>
     <use xlink:href="#ma1ab48c372" x="423.954413" y="63.84736" style="fill: #ff120a; stroke: #ff120a"/>
     <use xlink:href="#ma1ab48c372" x="433.898196" y="64.393547" style="fill: #ff120a; stroke: #ff120a"/>
     <use xlink:href="#ma1ab48c372" x="443.841978" y="64.237493" style="fill: #ff120a; stroke: #ff120a"/>
     <use xlink:href="#ma1ab48c372" x="453.785761" y="63.61328" style="fill: #ff120a; stroke: #ff120a"/>
     <use xlink:href="#ma1ab48c372" x="463.729543" y="64.003413" style="fill: #ff120a; stroke: #ff120a"/>
     <use xlink:href="#ma1ab48c372" x="473.673326" y="62.130773" style="fill: #ff120a; stroke: #ff120a"/>
    </g>
   </g>
   <g id="matplotlib.axis_1">
    <g id="xtick_1">
     <g id="line2d_1">
      <defs>
       <path id="mfdf2a00a20" d="M 0 0 
L 0 3.5 
" style="stroke: #000000; stroke-width: 0.8"/>
      </defs>
      <g>
       <use xlink:href="#mfdf2a00a20" x="80.893913" y="65.72" style="stroke: #000000; stroke-width: 0.8"/>
      </g>
     </g>
     <g id="text_1">
      <text style="font: 5px 'Arial'; text-anchor: middle" x="80.893913" y="76.298906" transform="rotate(-0 80.893913 76.298906)">0.0</text>
     </g>
    </g>
    <g id="xtick_2">
     <g id="line2d_2">
      <g>
       <use xlink:href="#mfdf2a00a20" x="130.612826" y="65.72" style="stroke: #000000; stroke-width: 0.8"/>
      </g>
     </g>
     <g id="text_2">
      <text style="font: 5px 'Arial'; text-anchor: middle" x="130.612826" y="76.298906" transform="rotate(-0 130.612826 76.298906)">0.5</text>
     </g>
    </g>
    <g id="xtick_3">
     <g id="line2d_3">
      <g>
       <use xlink:href="#mfdf2a00a20" x="180.331739" y="65.72" style="stroke: #000000; stroke-width: 0.8"/>
      </g>
     </g>
     <g id="text_3">
      <text style="font: 5px 'Arial'; text-anchor: middle" x="180.331739" y="76.298906" transform="rotate(-0 180.331739 76.298906)">1.0</text>
     </g>
    </g>
    <g id="xtick_4">
     <g id="line2d_4">
      <g>
       <use xlink:href="#mfdf2a00a20" x="230.050652" y="65.72" style="stroke: #000000; stroke-width: 0.8"/>
      </g>
     </g>
     <g id="text_4">
      <text style="font: 5px 'Arial'; text-anchor: middle" x="230.050652" y="76.298906" transform="rotate(-0 230.050652 76.298906)">0.0</text>
     </g>
    </g>
    <g id="xtick_5">
     <g id="line2d_5">
      <g>
       <use xlink:href="#mfdf2a00a20" x="279.769565" y="65.72" style="stroke: #000000; stroke-width: 0.8"/>
      </g>
     </g>
     <g id="text_5">
      <text style="font: 5px 'Arial'; text-anchor: middle" x="279.769565" y="76.298906" transform="rotate(-0 279.769565 76.298906)">0.5</text>
     </g>
    </g>
    <g id="xtick_6">
     <g id="line2d_6">
      <g>
       <use xlink:href="#mfdf2a00a20" x="329.488478" y="65.72" style="stroke: #000000; stroke-width: 0.8"/>
      </g>
     </g>
     <g id="text_6">
      <text style="font: 5px 'Arial'; text-anchor: middle" x="329.488478" y="76.298906" transform="rotate(-0 329.488478 76.298906)">1.0</text>
     </g>
    </g>
    <g id="xtick_7">
     <g id="line2d_7">
      <g>
       <use xlink:href="#mfdf2a00a20" x="379.207391" y="65.72" style="stroke: #000000; stroke-width: 0.8"/>
      </g>
     </g>
     <g id="text_7">
      <text style="font: 5px 'Arial'; text-anchor: middle" x="379.207391" y="76.298906" transform="rotate(-0 379.207391 76.298906)">0.0</text>
     </g>
    </g>
    <g id="xtick_8">
     <g id="line2d_8">
      <g>
       <use xlink:href="#mfdf2a00a20" x="428.926304" y="65.72" style="stroke: #000000; stroke-width: 0.8"/>
      </g>
     </g>
     <g id="text_8">
      <text style="font: 5px 'Arial'; text-anchor: middle" x="428.926304" y="76.298906" transform="rotate(-0 428.926304 76.298906)">0.5</text>
     </g>
    </g>
    <g id="xtick_9">
     <g id="line2d_9">
      <g>
       <use xlink:href="#mfdf2a00a20" x="478.645217" y="65.72" style="stroke: #000000; stroke-width: 0.8"/>
      </g>
     </g>
     <g id="text_9">
      <text style="font: 5px 'Arial'; text-anchor: middle" x="478.645217" y="76.298906" transform="rotate(-0 478.645217 76.298906)">1.0</text>
     </g>
    </g>
    <g id="text_10">
     <text style="font: 5px 'Arial'; text-anchor: middle" x="259.882" y="84.9325" transform="rotate(-0 259.882 84.9325)">Predicted self assembly probability</text>
    </g>
   </g>
   <g id="matplotlib.axis_2">
    <g id="ytick_1">
     <g id="line2d_10">
      <defs>
       <path id="m801aad3ec8" d="M 0 0 
L -3.5 0 
" style="stroke: #000000; stroke-width: 0.8"/>
      </defs>
      <g>
       <use xlink:href="#m801aad3ec8" x="31.175" y="65.72" style="stroke: #000000; stroke-width: 0.8"/>
      </g>
     </g>
     <g id="text_11">
      <text style="font: 5px 'Arial'; text-anchor: end" x="24.175" y="67.509453" transform="rotate(-0 24.175 67.509453)">0</text>
     </g>
    </g>
    <g id="ytick_2">
     <g id="line2d_11">
      <g>
       <use xlink:href="#m801aad3ec8" x="31.175" y="50.114667" style="stroke: #000000; stroke-width: 0.8"/>
      </g>
     </g>
     <g id="text_12">
      <text style="font: 5px 'Arial'; text-anchor: end" x="24.175" y="51.90412" transform="rotate(-0 24.175 51.90412)">200</text>
     </g>
    </g>
    <g id="ytick_3">
     <g id="line2d_12">
      <g>
       <use xlink:href="#m801aad3ec8" x="31.175" y="34.509333" style="stroke: #000000; stroke-width: 0.8"/>
      </g>
     </g>
     <g id="text_13">
      <text style="font: 5px 'Arial'; text-anchor: end" x="24.175" y="36.298786" transform="rotate(-0 24.175 36.298786)">400</text>
     </g>
    </g>
    <g id="ytick_4">
     <g id="line2d_13">
      <g>
       <use xlink:href="#m801aad3ec8" x="31.175" y="18.904" style="stroke: #000000; stroke-width: 0.8"/>
      </g>
     </g>
     <g id="text_14">
      <text style="font: 5px 'Arial'; text-anchor: end" x="24.175" y="20.693453" transform="rotate(-0 24.175 20.693453)">600</text>
     </g>
    </g>
    <g id="text_15">
     <text style="font: 5px 'Arial'; text-anchor: middle" x="10.839844" y="36.46" transform="rotate(-90 10.839844 36.46)">Number of peptides</text>
    </g>
   </g>
   <g id="patch_99">
    <path d="M 31.175 65.72 
L 31.175 7.2 
" style="fill: none; stroke: #000000; stroke-width: 0.8; stroke-linejoin: miter; stroke-linecap: square"/>
   </g>
   <g id="patch_100">
    <path d="M 31.175 65.72 
L 488.589 65.72 
" style="fill: none; stroke: #000000; stroke-width: 0.8; stroke-linejoin: miter; stroke-linecap: square"/>
   </g>
   <g id="text_16">
    <text style="fill: #ff120a; font: 5px 'Arial'; text-anchor: start" x="82.55121" y="61.116427" transform="rotate(-0 82.55121 61.116427)">19</text>
   </g>
   <g id="text_17">
    <text style="fill: #ff120a; font: 5px 'Arial'; text-anchor: start" x="92.080668" y="48.554133" transform="rotate(-0 92.080668 48.554133)">180</text>
   </g>
   <g id="text_18">
    <text style="fill: #ff120a; font: 5px 'Arial'; text-anchor: start" x="102.024451" y="51.79224" transform="rotate(-0 102.024451 51.79224)">126</text>
   </g>
   <g id="text_19">
    <text style="fill: #ff120a; font: 5px 'Arial'; text-anchor: start" x="112.382558" y="55.030347" transform="rotate(-0 112.382558 55.030347)">97</text>
   </g>
   <g id="text_20">
    <text style="fill: #ff120a; font: 5px 'Arial'; text-anchor: start" x="122.326341" y="56.942" transform="rotate(-0 122.326341 56.942)">49</text>
   </g>
   <g id="text_21">
    <text style="fill: #ff120a; font: 5px 'Arial'; text-anchor: start" x="132.270123" y="58.853653" transform="rotate(-0 132.270123 58.853653)">48</text>
   </g>
   <g id="text_22">
    <text style="fill: #ff120a; font: 5px 'Arial'; text-anchor: start" x="142.213906" y="59.868" transform="rotate(-0 142.213906 59.868)">35</text>
   </g>
   <g id="text_23">
    <text style="fill: #ff120a; font: 5px 'Arial'; text-anchor: start" x="152.157688" y="60.843333" transform="rotate(-0 152.157688 60.843333)">18</text>
   </g>
   <g id="text_24">
    <text style="fill: #ff120a; font: 5px 'Arial'; text-anchor: start" x="162.101471" y="61.38952" transform="rotate(-0 162.101471 61.38952)">10</text>
   </g>
   <g id="text_25">
    <text style="fill: #ff120a; font: 5px 'Arial'; text-anchor: start" x="172.045254" y="61.584587" transform="rotate(-0 172.045254 61.584587)">13</text>
   </g>
   <g id="text_26">
    <text style="fill: #ff120a; font: 5px 'Arial'; text-anchor: start" x="231.293625" y="42.936213" transform="rotate(-0 231.293625 42.936213)">252</text>
   </g>
   <g id="text_27">
    <text style="fill: #ff120a; font: 5px 'Arial'; text-anchor: start" x="241.651732" y="50.426773" transform="rotate(-0 241.651732 50.426773)">88</text>
   </g>
   <g id="text_28">
    <text style="fill: #ff120a; font: 5px 'Arial'; text-anchor: start" x="251.595514" y="57.722267" transform="rotate(-0 251.595514 57.722267)">60</text>
   </g>
   <g id="text_29">
    <text style="fill: #ff120a; font: 5px 'Arial'; text-anchor: start" x="261.539297" y="58.93168" transform="rotate(-0 261.539297 58.93168)">37</text>
   </g>
   <g id="text_30">
    <text style="fill: #ff120a; font: 5px 'Arial'; text-anchor: start" x="271.48308" y="59.946027" transform="rotate(-0 271.48308 59.946027)">34</text>
   </g>
   <g id="text_31">
    <text style="fill: #ff120a; font: 5px 'Arial'; text-anchor: start" x="281.426862" y="60.492213" transform="rotate(-0 281.426862 60.492213)">19</text>
   </g>
   <g id="text_32">
    <text style="fill: #ff120a; font: 5px 'Arial'; text-anchor: start" x="291.370645" y="61.0384" transform="rotate(-0 291.370645 61.0384)">20</text>
   </g>
   <g id="text_33">
    <text style="fill: #ff120a; font: 5px 'Arial'; text-anchor: start" x="301.314428" y="60.960373" transform="rotate(-0 301.314428 60.960373)">21</text>
   </g>
   <g id="text_34">
    <text style="fill: #ff120a; font: 5px 'Arial'; text-anchor: start" x="311.25821" y="60.10208" transform="rotate(-0 311.25821 60.10208)">21</text>
   </g>
   <g id="text_35">
    <text style="fill: #ff120a; font: 5px 'Arial'; text-anchor: start" x="321.201993" y="59.243787" transform="rotate(-0 321.201993 59.243787)">43</text>
   </g>
   <g id="text_36">
    <text style="fill: #ff120a; font: 5px 'Arial'; text-anchor: start" x="380.450364" y="42.390027" transform="rotate(-0 380.450364 42.390027)">259</text>
   </g>
   <g id="text_37">
    <text style="fill: #ff120a; font: 5px 'Arial'; text-anchor: start" x="390.394147" y="50.777893" transform="rotate(-0 390.394147 50.777893)">108</text>
   </g>
   <g id="text_38">
    <text style="fill: #ff120a; font: 5px 'Arial'; text-anchor: start" x="400.752254" y="57.254107" transform="rotate(-0 400.752254 57.254107)">44</text>
   </g>
   <g id="text_39">
    <text style="fill: #ff120a; font: 5px 'Arial'; text-anchor: start" x="410.696036" y="59.946027" transform="rotate(-0 410.696036 59.946027)">29</text>
   </g>
   <g id="text_40">
    <text style="fill: #ff120a; font: 5px 'Arial'; text-anchor: start" x="420.639819" y="60.726293" transform="rotate(-0 420.639819 60.726293)">24</text>
   </g>
   <g id="text_41">
    <text style="fill: #ff120a; font: 5px 'Arial'; text-anchor: start" x="430.583601" y="60.92136" transform="rotate(-0 430.583601 60.92136)">17</text>
   </g>
   <g id="text_42">
    <text style="fill: #ff120a; font: 5px 'Arial'; text-anchor: start" x="440.527384" y="60.882347" transform="rotate(-0 440.527384 60.882347)">19</text>
   </g>
   <g id="text_43">
    <text style="fill: #ff120a; font: 5px 'Arial'; text-anchor: start" x="450.471167" y="60.492213" transform="rotate(-0 450.471167 60.492213)">27</text>
   </g>
   <g id="text_44">
    <text style="fill: #ff120a; font: 5px 'Arial'; text-anchor: start" x="460.414949" y="59.75096" transform="rotate(-0 460.414949 59.75096)">22</text>
   </g>
   <g id="text_45">
    <text style="fill: #ff120a; font: 5px 'Arial'; text-anchor: start" x="470.358732" y="59.009707" transform="rotate(-0 470.358732 59.009707)">46</text>
   </g>
  </g>
 </g>
 <defs>
  <clipPath id="p2cd6866052">
   <rect x="31.175" y="7.2" width="457.414" height="58.52"/>
  </clipPath>
 </defs>
</svg>
