<?xml version="1.0" encoding="utf-8" standalone="no"?>
<!DOCTYPE svg PUBLIC "-//W3C//DTD SVG 1.1//EN"
  "http://www.w3.org/Graphics/SVG/1.1/DTD/svg11.dtd">
<svg xmlns:xlink="http://www.w3.org/1999/xlink" width="495.789pt" height="97.856123pt" viewBox="0 0 495.789 97.856123" xmlns="http://www.w3.org/2000/svg" version="1.1">
 <metadata>
  <rdf:RDF xmlns:dc="http://purl.org/dc/elements/1.1/" xmlns:cc="http://creativecommons.org/ns#" xmlns:rdf="http://www.w3.org/1999/02/22-rdf-syntax-ns#">
   <cc:Work>
    <dc:type rdf:resource="http://purl.org/dc/dcmitype/StillImage"/>
    <dc:date>2024-09-26T14:59:07.502820</dc:date>
    <dc:format>image/svg+xml</dc:format>
    <dc:creator>
     <cc:Agent>
      <dc:title>Matplotlib v3.7.0, https://matplotlib.org/</dc:title>
     </cc:Agent>
    </dc:creator>
   </cc:Work>
  </rdf:RDF>
 </metadata>
 <defs>
  <style type="text/css">*{stroke-linejoin: round; stroke-linecap: butt}</style>
 </defs>
 <g id="figure_1">
  <g id="patch_1">
   <path d="M 0 97.856123 
L 495.789 97.856123 
L 495.789 0 
L 0 0 
z
" style="fill: #ffffff"/>
  </g>
  <g id="axes_1">
   <g id="patch_2">
    <path d="M 31.175 70.39128 
L 488.589 70.39128 
L 488.589 11.87128 
L 31.175 11.87128 
z
" style="fill: #ffffff"/>
   </g>
   <g id="patch_3">
    <path d="M 80.893913 70.39128 
L 90.837696 70.39128 
L 90.837696 70.39128 
L 80.893913 70.39128 
z
" clip-path="url(#p7b117b2a94)" style="fill: #2e85ff; fill-opacity: 0.5; stroke: #000000; stroke-linejoin: miter"/>
   </g>
   <g id="patch_4">
    <path d="M 90.837696 70.39128 
L 100.781478 70.39128 
L 100.781478 70.39128 
L 90.837696 70.39128 
z
" clip-path="url(#p7b117b2a94)" style="fill: #2e85ff; fill-opacity: 0.5; stroke: #000000; stroke-linejoin: miter"/>
   </g>
   <g id="patch_5">
    <path d="M 100.781478 70.39128 
L 110.725261 70.39128 
L 110.725261 70.39128 
L 100.781478 70.39128 
z
" clip-path="url(#p7b117b2a94)" style="fill: #2e85ff; fill-opacity: 0.5; stroke: #000000; stroke-linejoin: miter"/>
   </g>
   <g id="patch_6">
    <path d="M 110.725261 70.39128 
L 120.669043 70.39128 
L 120.669043 70.39128 
L 110.725261 70.39128 
z
" clip-path="url(#p7b117b2a94)" style="fill: #2e85ff; fill-opacity: 0.5; stroke: #000000; stroke-linejoin: miter"/>
   </g>
   <g id="patch_7">
    <path d="M 120.669043 70.39128 
L 130.612826 70.39128 
L 130.612826 70.39128 
L 120.669043 70.39128 
z
" clip-path="url(#p7b117b2a94)" style="fill: #2e85ff; fill-opacity: 0.5; stroke: #000000; stroke-linejoin: miter"/>
   </g>
   <g id="patch_8">
    <path d="M 130.612826 70.39128 
L 140.556609 70.39128 
L 140.556609 70.39128 
L 130.612826 70.39128 
z
" clip-path="url(#p7b117b2a94)" style="fill: #2e85ff; fill-opacity: 0.5; stroke: #000000; stroke-linejoin: miter"/>
   </g>
   <g id="patch_9">
    <path d="M 140.556609 70.39128 
L 150.500391 70.39128 
L 150.500391 70.39128 
L 140.556609 70.39128 
z
" clip-path="url(#p7b117b2a94)" style="fill: #2e85ff; fill-opacity: 0.5; stroke: #000000; stroke-linejoin: miter"/>
   </g>
   <g id="patch_10">
    <path d="M 150.500391 70.39128 
L 160.444174 70.39128 
L 160.444174 70.39128 
L 150.500391 70.39128 
z
" clip-path="url(#p7b117b2a94)" style="fill: #2e85ff; fill-opacity: 0.5; stroke: #000000; stroke-linejoin: miter"/>
   </g>
   <g id="patch_11">
    <path d="M 160.444174 70.39128 
L 170.387957 70.39128 
L 170.387957 70.39128 
L 160.444174 70.39128 
z
" clip-path="url(#p7b117b2a94)" style="fill: #2e85ff; fill-opacity: 0.5; stroke: #000000; stroke-linejoin: miter"/>
   </g>
   <g id="patch_12">
    <path d="M 170.387957 70.39128 
L 180.331739 70.39128 
L 180.331739 70.39128 
L 170.387957 70.39128 
z
" clip-path="url(#p7b117b2a94)" style="fill: #2e85ff; fill-opacity: 0.5; stroke: #000000; stroke-linejoin: miter"/>
   </g>
   <g id="patch_13">
    <path d="M 180.331739 70.39128 
L 230.050652 70.39128 
L 230.050652 70.39128 
L 180.331739 70.39128 
z
" clip-path="url(#p7b117b2a94)" style="fill: #2e85ff; fill-opacity: 0.5; stroke: #000000; stroke-linejoin: miter"/>
   </g>
   <g id="patch_14">
    <path d="M 230.050652 70.39128 
L 239.994435 70.39128 
L 239.994435 70.39128 
L 230.050652 70.39128 
z
" clip-path="url(#p7b117b2a94)" style="fill: #2e85ff; fill-opacity: 0.5; stroke: #000000; stroke-linejoin: miter"/>
   </g>
   <g id="patch_15">
    <path d="M 239.994435 70.39128 
L 249.938217 70.39128 
L 249.938217 70.39128 
L 239.994435 70.39128 
z
" clip-path="url(#p7b117b2a94)" style="fill: #2e85ff; fill-opacity: 0.5; stroke: #000000; stroke-linejoin: miter"/>
   </g>
   <g id="patch_16">
    <path d="M 249.938217 70.39128 
L 259.882 70.39128 
L 259.882 70.39128 
L 249.938217 70.39128 
z
" clip-path="url(#p7b117b2a94)" style="fill: #2e85ff; fill-opacity: 0.5; stroke: #000000; stroke-linejoin: miter"/>
   </g>
   <g id="patch_17">
    <path d="M 259.882 70.39128 
L 269.825783 70.39128 
L 269.825783 70.39128 
L 259.882 70.39128 
z
" clip-path="url(#p7b117b2a94)" style="fill: #2e85ff; fill-opacity: 0.5; stroke: #000000; stroke-linejoin: miter"/>
   </g>
   <g id="patch_18">
    <path d="M 269.825783 70.39128 
L 279.769565 70.39128 
L 279.769565 70.39128 
L 269.825783 70.39128 
z
" clip-path="url(#p7b117b2a94)" style="fill: #2e85ff; fill-opacity: 0.5; stroke: #000000; stroke-linejoin: miter"/>
   </g>
   <g id="patch_19">
    <path d="M 279.769565 70.39128 
L 289.713348 70.39128 
L 289.713348 70.39128 
L 279.769565 70.39128 
z
" clip-path="url(#p7b117b2a94)" style="fill: #2e85ff; fill-opacity: 0.5; stroke: #000000; stroke-linejoin: miter"/>
   </g>
   <g id="patch_20">
    <path d="M 289.713348 70.39128 
L 299.65713 70.39128 
L 299.65713 70.39128 
L 289.713348 70.39128 
z
" clip-path="url(#p7b117b2a94)" style="fill: #2e85ff; fill-opacity: 0.5; stroke: #000000; stroke-linejoin: miter"/>
   </g>
   <g id="patch_21">
    <path d="M 299.65713 70.39128 
L 309.600913 70.39128 
L 309.600913 70.39128 
L 299.65713 70.39128 
z
" clip-path="url(#p7b117b2a94)" style="fill: #2e85ff; fill-opacity: 0.5; stroke: #000000; stroke-linejoin: miter"/>
   </g>
   <g id="patch_22">
    <path d="M 309.600913 70.39128 
L 319.544696 70.39128 
L 319.544696 70.39128 
L 309.600913 70.39128 
z
" clip-path="url(#p7b117b2a94)" style="fill: #2e85ff; fill-opacity: 0.5; stroke: #000000; stroke-linejoin: miter"/>
   </g>
   <g id="patch_23">
    <path d="M 319.544696 70.39128 
L 329.488478 70.39128 
L 329.488478 70.39128 
L 319.544696 70.39128 
z
" clip-path="url(#p7b117b2a94)" style="fill: #2e85ff; fill-opacity: 0.5; stroke: #000000; stroke-linejoin: miter"/>
   </g>
   <g id="patch_24">
    <path d="M 329.488478 70.39128 
L 379.207391 70.39128 
L 379.207391 70.39128 
L 329.488478 70.39128 
z
" clip-path="url(#p7b117b2a94)" style="fill: #2e85ff; fill-opacity: 0.5; stroke: #000000; stroke-linejoin: miter"/>
   </g>
   <g id="patch_25">
    <path d="M 379.207391 70.39128 
L 389.151174 70.39128 
L 389.151174 64.3052 
L 379.207391 64.3052 
z
" clip-path="url(#p7b117b2a94)" style="fill: #2e85ff; fill-opacity: 0.5; stroke: #000000; stroke-linejoin: miter"/>
   </g>
   <g id="patch_26">
    <path d="M 389.151174 70.39128 
L 399.094957 70.39128 
L 399.094957 66.646 
L 389.151174 66.646 
z
" clip-path="url(#p7b117b2a94)" style="fill: #2e85ff; fill-opacity: 0.5; stroke: #000000; stroke-linejoin: miter"/>
   </g>
   <g id="patch_27">
    <path d="M 399.094957 70.39128 
L 409.038739 70.39128 
L 409.038739 67.972453 
L 399.094957 67.972453 
z
" clip-path="url(#p7b117b2a94)" style="fill: #2e85ff; fill-opacity: 0.5; stroke: #000000; stroke-linejoin: miter"/>
   </g>
   <g id="patch_28">
    <path d="M 409.038739 70.39128 
L 418.982522 70.39128 
L 418.982522 68.596666 
L 409.038739 68.596666 
z
" clip-path="url(#p7b117b2a94)" style="fill: #2e85ff; fill-opacity: 0.5; stroke: #000000; stroke-linejoin: miter"/>
   </g>
   <g id="patch_29">
    <path d="M 418.982522 70.39128 
L 428.926304 70.39128 
L 428.926304 67.192186 
L 418.982522 67.192186 
z
" clip-path="url(#p7b117b2a94)" style="fill: #2e85ff; fill-opacity: 0.5; stroke: #000000; stroke-linejoin: miter"/>
   </g>
   <g id="patch_30">
    <path d="M 428.926304 70.39128 
L 438.870087 70.39128 
L 438.870087 66.099813 
L 428.926304 66.099813 
z
" clip-path="url(#p7b117b2a94)" style="fill: #2e85ff; fill-opacity: 0.5; stroke: #000000; stroke-linejoin: miter"/>
   </g>
   <g id="patch_31">
    <path d="M 438.870087 70.39128 
L 448.81387 70.39128 
L 448.81387 66.646 
L 438.870087 66.646 
z
" clip-path="url(#p7b117b2a94)" style="fill: #2e85ff; fill-opacity: 0.5; stroke: #000000; stroke-linejoin: miter"/>
   </g>
   <g id="patch_32">
    <path d="M 448.81387 70.39128 
L 458.757652 70.39128 
L 458.757652 63.36888 
L 448.81387 63.36888 
z
" clip-path="url(#p7b117b2a94)" style="fill: #2e85ff; fill-opacity: 0.5; stroke: #000000; stroke-linejoin: miter"/>
   </g>
   <g id="patch_33">
    <path d="M 458.757652 70.39128 
L 468.701435 70.39128 
L 468.701435 58.765306 
L 458.757652 58.765306 
z
" clip-path="url(#p7b117b2a94)" style="fill: #2e85ff; fill-opacity: 0.5; stroke: #000000; stroke-linejoin: miter"/>
   </g>
   <g id="patch_34">
    <path d="M 468.701435 70.39128 
L 478.645217 70.39128 
L 478.645217 17.177093 
L 468.701435 17.177093 
z
" clip-path="url(#p7b117b2a94)" style="fill: #2e85ff; fill-opacity: 0.5; stroke: #000000; stroke-linejoin: miter"/>
   </g>
   <g id="patch_35">
    <path d="M 80.893913 70.39128 
L 90.837696 70.39128 
L 90.837696 70.39128 
L 80.893913 70.39128 
z
" clip-path="url(#p7b117b2a94)" style="fill: #2e85ff; fill-opacity: 0.5; stroke: #000000; stroke-linejoin: miter"/>
   </g>
   <g id="patch_36">
    <path d="M 90.837696 70.39128 
L 100.781478 70.39128 
L 100.781478 70.39128 
L 90.837696 70.39128 
z
" clip-path="url(#p7b117b2a94)" style="fill: #2e85ff; fill-opacity: 0.5; stroke: #000000; stroke-linejoin: miter"/>
   </g>
   <g id="patch_37">
    <path d="M 100.781478 70.39128 
L 110.725261 70.39128 
L 110.725261 70.39128 
L 100.781478 70.39128 
z
" clip-path="url(#p7b117b2a94)" style="fill: #2e85ff; fill-opacity: 0.5; stroke: #000000; stroke-linejoin: miter"/>
   </g>
   <g id="patch_38">
    <path d="M 110.725261 70.39128 
L 120.669043 70.39128 
L 120.669043 70.39128 
L 110.725261 70.39128 
z
" clip-path="url(#p7b117b2a94)" style="fill: #2e85ff; fill-opacity: 0.5; stroke: #000000; stroke-linejoin: miter"/>
   </g>
   <g id="patch_39">
    <path d="M 120.669043 70.39128 
L 130.612826 70.39128 
L 130.612826 70.39128 
L 120.669043 70.39128 
z
" clip-path="url(#p7b117b2a94)" style="fill: #2e85ff; fill-opacity: 0.5; stroke: #000000; stroke-linejoin: miter"/>
   </g>
   <g id="patch_40">
    <path d="M 130.612826 70.39128 
L 140.556609 70.39128 
L 140.556609 70.39128 
L 130.612826 70.39128 
z
" clip-path="url(#p7b117b2a94)" style="fill: #2e85ff; fill-opacity: 0.5; stroke: #000000; stroke-linejoin: miter"/>
   </g>
   <g id="patch_41">
    <path d="M 140.556609 70.39128 
L 150.500391 70.39128 
L 150.500391 70.39128 
L 140.556609 70.39128 
z
" clip-path="url(#p7b117b2a94)" style="fill: #2e85ff; fill-opacity: 0.5; stroke: #000000; stroke-linejoin: miter"/>
   </g>
   <g id="patch_42">
    <path d="M 150.500391 70.39128 
L 160.444174 70.39128 
L 160.444174 70.39128 
L 150.500391 70.39128 
z
" clip-path="url(#p7b117b2a94)" style="fill: #2e85ff; fill-opacity: 0.5; stroke: #000000; stroke-linejoin: miter"/>
   </g>
   <g id="patch_43">
    <path d="M 160.444174 70.39128 
L 170.387957 70.39128 
L 170.387957 70.39128 
L 160.444174 70.39128 
z
" clip-path="url(#p7b117b2a94)" style="fill: #2e85ff; fill-opacity: 0.5; stroke: #000000; stroke-linejoin: miter"/>
   </g>
   <g id="patch_44">
    <path d="M 170.387957 70.39128 
L 180.331739 70.39128 
L 180.331739 70.39128 
L 170.387957 70.39128 
z
" clip-path="url(#p7b117b2a94)" style="fill: #2e85ff; fill-opacity: 0.5; stroke: #000000; stroke-linejoin: miter"/>
   </g>
   <g id="patch_45">
    <path d="M 180.331739 70.39128 
L 230.050652 70.39128 
L 230.050652 70.39128 
L 180.331739 70.39128 
z
" clip-path="url(#p7b117b2a94)" style="fill: #2e85ff; fill-opacity: 0.5; stroke: #000000; stroke-linejoin: miter"/>
   </g>
   <g id="patch_46">
    <path d="M 230.050652 70.39128 
L 239.994435 70.39128 
L 239.994435 66.333893 
L 230.050652 66.333893 
z
" clip-path="url(#p7b117b2a94)" style="fill: #2e85ff; fill-opacity: 0.5; stroke: #000000; stroke-linejoin: miter"/>
   </g>
   <g id="patch_47">
    <path d="M 239.994435 70.39128 
L 249.938217 70.39128 
L 249.938217 64.695333 
L 239.994435 64.695333 
z
" clip-path="url(#p7b117b2a94)" style="fill: #2e85ff; fill-opacity: 0.5; stroke: #000000; stroke-linejoin: miter"/>
   </g>
   <g id="patch_48">
    <path d="M 249.938217 70.39128 
L 259.882 70.39128 
L 259.882 67.11416 
L 249.938217 67.11416 
z
" clip-path="url(#p7b117b2a94)" style="fill: #2e85ff; fill-opacity: 0.5; stroke: #000000; stroke-linejoin: miter"/>
   </g>
   <g id="patch_49">
    <path d="M 259.882 70.39128 
L 269.825783 70.39128 
L 269.825783 67.036133 
L 259.882 67.036133 
z
" clip-path="url(#p7b117b2a94)" style="fill: #2e85ff; fill-opacity: 0.5; stroke: #000000; stroke-linejoin: miter"/>
   </g>
   <g id="patch_50">
    <path d="M 269.825783 70.39128 
L 279.769565 70.39128 
L 279.769565 67.58232 
L 269.825783 67.58232 
z
" clip-path="url(#p7b117b2a94)" style="fill: #2e85ff; fill-opacity: 0.5; stroke: #000000; stroke-linejoin: miter"/>
   </g>
   <g id="patch_51">
    <path d="M 279.769565 70.39128 
L 289.713348 70.39128 
L 289.713348 66.41192 
L 279.769565 66.41192 
z
" clip-path="url(#p7b117b2a94)" style="fill: #2e85ff; fill-opacity: 0.5; stroke: #000000; stroke-linejoin: miter"/>
   </g>
   <g id="patch_52">
    <path d="M 289.713348 70.39128 
L 299.65713 70.39128 
L 299.65713 66.333893 
L 289.713348 66.333893 
z
" clip-path="url(#p7b117b2a94)" style="fill: #2e85ff; fill-opacity: 0.5; stroke: #000000; stroke-linejoin: miter"/>
   </g>
   <g id="patch_53">
    <path d="M 299.65713 70.39128 
L 309.600913 70.39128 
L 309.600913 65.085466 
L 299.65713 65.085466 
z
" clip-path="url(#p7b117b2a94)" style="fill: #2e85ff; fill-opacity: 0.5; stroke: #000000; stroke-linejoin: miter"/>
   </g>
   <g id="patch_54">
    <path d="M 309.600913 70.39128 
L 319.544696 70.39128 
L 319.544696 62.276506 
L 309.600913 62.276506 
z
" clip-path="url(#p7b117b2a94)" style="fill: #2e85ff; fill-opacity: 0.5; stroke: #000000; stroke-linejoin: miter"/>
   </g>
   <g id="patch_55">
    <path d="M 319.544696 70.39128 
L 329.488478 70.39128 
L 329.488478 13.899973 
L 319.544696 13.899973 
z
" clip-path="url(#p7b117b2a94)" style="fill: #2e85ff; fill-opacity: 0.5; stroke: #000000; stroke-linejoin: miter"/>
   </g>
   <g id="patch_56">
    <path d="M 329.488478 70.39128 
L 379.207391 70.39128 
L 379.207391 70.39128 
L 329.488478 70.39128 
z
" clip-path="url(#p7b117b2a94)" style="fill: #2e85ff; fill-opacity: 0.5; stroke: #000000; stroke-linejoin: miter"/>
   </g>
   <g id="patch_57">
    <path d="M 379.207391 70.39128 
L 389.151174 70.39128 
L 389.151174 70.39128 
L 379.207391 70.39128 
z
" clip-path="url(#p7b117b2a94)" style="fill: #2e85ff; fill-opacity: 0.5; stroke: #000000; stroke-linejoin: miter"/>
   </g>
   <g id="patch_58">
    <path d="M 389.151174 70.39128 
L 399.094957 70.39128 
L 399.094957 70.39128 
L 389.151174 70.39128 
z
" clip-path="url(#p7b117b2a94)" style="fill: #2e85ff; fill-opacity: 0.5; stroke: #000000; stroke-linejoin: miter"/>
   </g>
   <g id="patch_59">
    <path d="M 399.094957 70.39128 
L 409.038739 70.39128 
L 409.038739 70.39128 
L 399.094957 70.39128 
z
" clip-path="url(#p7b117b2a94)" style="fill: #2e85ff; fill-opacity: 0.5; stroke: #000000; stroke-linejoin: miter"/>
   </g>
   <g id="patch_60">
    <path d="M 409.038739 70.39128 
L 418.982522 70.39128 
L 418.982522 70.39128 
L 409.038739 70.39128 
z
" clip-path="url(#p7b117b2a94)" style="fill: #2e85ff; fill-opacity: 0.5; stroke: #000000; stroke-linejoin: miter"/>
   </g>
   <g id="patch_61">
    <path d="M 418.982522 70.39128 
L 428.926304 70.39128 
L 428.926304 70.39128 
L 418.982522 70.39128 
z
" clip-path="url(#p7b117b2a94)" style="fill: #2e85ff; fill-opacity: 0.5; stroke: #000000; stroke-linejoin: miter"/>
   </g>
   <g id="patch_62">
    <path d="M 428.926304 70.39128 
L 438.870087 70.39128 
L 438.870087 70.39128 
L 428.926304 70.39128 
z
" clip-path="url(#p7b117b2a94)" style="fill: #2e85ff; fill-opacity: 0.5; stroke: #000000; stroke-linejoin: miter"/>
   </g>
   <g id="patch_63">
    <path d="M 438.870087 70.39128 
L 448.81387 70.39128 
L 448.81387 70.39128 
L 438.870087 70.39128 
z
" clip-path="url(#p7b117b2a94)" style="fill: #2e85ff; fill-opacity: 0.5; stroke: #000000; stroke-linejoin: miter"/>
   </g>
   <g id="patch_64">
    <path d="M 448.81387 70.39128 
L 458.757652 70.39128 
L 458.757652 70.39128 
L 448.81387 70.39128 
z
" clip-path="url(#p7b117b2a94)" style="fill: #2e85ff; fill-opacity: 0.5; stroke: #000000; stroke-linejoin: miter"/>
   </g>
   <g id="patch_65">
    <path d="M 458.757652 70.39128 
L 468.701435 70.39128 
L 468.701435 70.39128 
L 458.757652 70.39128 
z
" clip-path="url(#p7b117b2a94)" style="fill: #2e85ff; fill-opacity: 0.5; stroke: #000000; stroke-linejoin: miter"/>
   </g>
   <g id="patch_66">
    <path d="M 468.701435 70.39128 
L 478.645217 70.39128 
L 478.645217 70.39128 
L 468.701435 70.39128 
z
" clip-path="url(#p7b117b2a94)" style="fill: #2e85ff; fill-opacity: 0.5; stroke: #000000; stroke-linejoin: miter"/>
   </g>
   <g id="patch_67">
    <path d="M 80.893913 70.39128 
L 90.837696 70.39128 
L 90.837696 69.92312 
L 80.893913 69.92312 
z
" clip-path="url(#p7b117b2a94)" style="fill: #2e85ff; fill-opacity: 0.5; stroke: #000000; stroke-linejoin: miter"/>
   </g>
   <g id="patch_68">
    <path d="M 90.837696 70.39128 
L 100.781478 70.39128 
L 100.781478 65.553626 
L 90.837696 65.553626 
z
" clip-path="url(#p7b117b2a94)" style="fill: #2e85ff; fill-opacity: 0.5; stroke: #000000; stroke-linejoin: miter"/>
   </g>
   <g id="patch_69">
    <path d="M 100.781478 70.39128 
L 110.725261 70.39128 
L 110.725261 60.247813 
L 100.781478 60.247813 
z
" clip-path="url(#p7b117b2a94)" style="fill: #2e85ff; fill-opacity: 0.5; stroke: #000000; stroke-linejoin: miter"/>
   </g>
   <g id="patch_70">
    <path d="M 110.725261 70.39128 
L 120.669043 70.39128 
L 120.669043 62.978746 
L 110.725261 62.978746 
z
" clip-path="url(#p7b117b2a94)" style="fill: #2e85ff; fill-opacity: 0.5; stroke: #000000; stroke-linejoin: miter"/>
   </g>
   <g id="patch_71">
    <path d="M 120.669043 70.39128 
L 130.612826 70.39128 
L 130.612826 63.1348 
L 120.669043 63.1348 
z
" clip-path="url(#p7b117b2a94)" style="fill: #2e85ff; fill-opacity: 0.5; stroke: #000000; stroke-linejoin: miter"/>
   </g>
   <g id="patch_72">
    <path d="M 130.612826 70.39128 
L 140.556609 70.39128 
L 140.556609 62.042426 
L 130.612826 62.042426 
z
" clip-path="url(#p7b117b2a94)" style="fill: #2e85ff; fill-opacity: 0.5; stroke: #000000; stroke-linejoin: miter"/>
   </g>
   <g id="patch_73">
    <path d="M 140.556609 70.39128 
L 150.500391 70.39128 
L 150.500391 61.184133 
L 140.556609 61.184133 
z
" clip-path="url(#p7b117b2a94)" style="fill: #2e85ff; fill-opacity: 0.5; stroke: #000000; stroke-linejoin: miter"/>
   </g>
   <g id="patch_74">
    <path d="M 150.500391 70.39128 
L 160.444174 70.39128 
L 160.444174 62.120453 
L 150.500391 62.120453 
z
" clip-path="url(#p7b117b2a94)" style="fill: #2e85ff; fill-opacity: 0.5; stroke: #000000; stroke-linejoin: miter"/>
   </g>
   <g id="patch_75">
    <path d="M 160.444174 70.39128 
L 170.387957 70.39128 
L 170.387957 56.502533 
L 160.444174 56.502533 
z
" clip-path="url(#p7b117b2a94)" style="fill: #2e85ff; fill-opacity: 0.5; stroke: #000000; stroke-linejoin: miter"/>
   </g>
   <g id="patch_76">
    <path d="M 170.387957 70.39128 
L 180.331739 70.39128 
L 180.331739 43.081946 
L 170.387957 43.081946 
z
" clip-path="url(#p7b117b2a94)" style="fill: #2e85ff; fill-opacity: 0.5; stroke: #000000; stroke-linejoin: miter"/>
   </g>
   <g id="patch_77">
    <path d="M 180.331739 70.39128 
L 230.050652 70.39128 
L 230.050652 70.39128 
L 180.331739 70.39128 
z
" clip-path="url(#p7b117b2a94)" style="fill: #2e85ff; fill-opacity: 0.5; stroke: #000000; stroke-linejoin: miter"/>
   </g>
   <g id="patch_78">
    <path d="M 230.050652 70.39128 
L 239.994435 70.39128 
L 239.994435 70.39128 
L 230.050652 70.39128 
z
" clip-path="url(#p7b117b2a94)" style="fill: #2e85ff; fill-opacity: 0.5; stroke: #000000; stroke-linejoin: miter"/>
   </g>
   <g id="patch_79">
    <path d="M 239.994435 70.39128 
L 249.938217 70.39128 
L 249.938217 70.39128 
L 239.994435 70.39128 
z
" clip-path="url(#p7b117b2a94)" style="fill: #2e85ff; fill-opacity: 0.5; stroke: #000000; stroke-linejoin: miter"/>
   </g>
   <g id="patch_80">
    <path d="M 249.938217 70.39128 
L 259.882 70.39128 
L 259.882 70.39128 
L 249.938217 70.39128 
z
" clip-path="url(#p7b117b2a94)" style="fill: #2e85ff; fill-opacity: 0.5; stroke: #000000; stroke-linejoin: miter"/>
   </g>
   <g id="patch_81">
    <path d="M 259.882 70.39128 
L 269.825783 70.39128 
L 269.825783 70.39128 
L 259.882 70.39128 
z
" clip-path="url(#p7b117b2a94)" style="fill: #2e85ff; fill-opacity: 0.5; stroke: #000000; stroke-linejoin: miter"/>
   </g>
   <g id="patch_82">
    <path d="M 269.825783 70.39128 
L 279.769565 70.39128 
L 279.769565 70.39128 
L 269.825783 70.39128 
z
" clip-path="url(#p7b117b2a94)" style="fill: #2e85ff; fill-opacity: 0.5; stroke: #000000; stroke-linejoin: miter"/>
   </g>
   <g id="patch_83">
    <path d="M 279.769565 70.39128 
L 289.713348 70.39128 
L 289.713348 70.39128 
L 279.769565 70.39128 
z
" clip-path="url(#p7b117b2a94)" style="fill: #2e85ff; fill-opacity: 0.5; stroke: #000000; stroke-linejoin: miter"/>
   </g>
   <g id="patch_84">
    <path d="M 289.713348 70.39128 
L 299.65713 70.39128 
L 299.65713 70.39128 
L 289.713348 70.39128 
z
" clip-path="url(#p7b117b2a94)" style="fill: #2e85ff; fill-opacity: 0.5; stroke: #000000; stroke-linejoin: miter"/>
   </g>
   <g id="patch_85">
    <path d="M 299.65713 70.39128 
L 309.600913 70.39128 
L 309.600913 70.39128 
L 299.65713 70.39128 
z
" clip-path="url(#p7b117b2a94)" style="fill: #2e85ff; fill-opacity: 0.5; stroke: #000000; stroke-linejoin: miter"/>
   </g>
   <g id="patch_86">
    <path d="M 309.600913 70.39128 
L 319.544696 70.39128 
L 319.544696 70.39128 
L 309.600913 70.39128 
z
" clip-path="url(#p7b117b2a94)" style="fill: #2e85ff; fill-opacity: 0.5; stroke: #000000; stroke-linejoin: miter"/>
   </g>
   <g id="patch_87">
    <path d="M 319.544696 70.39128 
L 329.488478 70.39128 
L 329.488478 70.39128 
L 319.544696 70.39128 
z
" clip-path="url(#p7b117b2a94)" style="fill: #2e85ff; fill-opacity: 0.5; stroke: #000000; stroke-linejoin: miter"/>
   </g>
   <g id="patch_88">
    <path d="M 329.488478 70.39128 
L 379.207391 70.39128 
L 379.207391 70.39128 
L 329.488478 70.39128 
z
" clip-path="url(#p7b117b2a94)" style="fill: #2e85ff; fill-opacity: 0.5; stroke: #000000; stroke-linejoin: miter"/>
   </g>
   <g id="patch_89">
    <path d="M 379.207391 70.39128 
L 389.151174 70.39128 
L 389.151174 70.39128 
L 379.207391 70.39128 
z
" clip-path="url(#p7b117b2a94)" style="fill: #2e85ff; fill-opacity: 0.5; stroke: #000000; stroke-linejoin: miter"/>
   </g>
   <g id="patch_90">
    <path d="M 389.151174 70.39128 
L 399.094957 70.39128 
L 399.094957 70.39128 
L 389.151174 70.39128 
z
" clip-path="url(#p7b117b2a94)" style="fill: #2e85ff; fill-opacity: 0.5; stroke: #000000; stroke-linejoin: miter"/>
   </g>
   <g id="patch_91">
    <path d="M 399.094957 70.39128 
L 409.038739 70.39128 
L 409.038739 70.39128 
L 399.094957 70.39128 
z
" clip-path="url(#p7b117b2a94)" style="fill: #2e85ff; fill-opacity: 0.5; stroke: #000000; stroke-linejoin: miter"/>
   </g>
   <g id="patch_92">
    <path d="M 409.038739 70.39128 
L 418.982522 70.39128 
L 418.982522 70.39128 
L 409.038739 70.39128 
z
" clip-path="url(#p7b117b2a94)" style="fill: #2e85ff; fill-opacity: 0.5; stroke: #000000; stroke-linejoin: miter"/>
   </g>
   <g id="patch_93">
    <path d="M 418.982522 70.39128 
L 428.926304 70.39128 
L 428.926304 70.39128 
L 418.982522 70.39128 
z
" clip-path="url(#p7b117b2a94)" style="fill: #2e85ff; fill-opacity: 0.5; stroke: #000000; stroke-linejoin: miter"/>
   </g>
   <g id="patch_94">
    <path d="M 428.926304 70.39128 
L 438.870087 70.39128 
L 438.870087 70.39128 
L 428.926304 70.39128 
z
" clip-path="url(#p7b117b2a94)" style="fill: #2e85ff; fill-opacity: 0.5; stroke: #000000; stroke-linejoin: miter"/>
   </g>
   <g id="patch_95">
    <path d="M 438.870087 70.39128 
L 448.81387 70.39128 
L 448.81387 70.39128 
L 438.870087 70.39128 
z
" clip-path="url(#p7b117b2a94)" style="fill: #2e85ff; fill-opacity: 0.5; stroke: #000000; stroke-linejoin: miter"/>
   </g>
   <g id="patch_96">
    <path d="M 448.81387 70.39128 
L 458.757652 70.39128 
L 458.757652 70.39128 
L 448.81387 70.39128 
z
" clip-path="url(#p7b117b2a94)" style="fill: #2e85ff; fill-opacity: 0.5; stroke: #000000; stroke-linejoin: miter"/>
   </g>
   <g id="patch_97">
    <path d="M 458.757652 70.39128 
L 468.701435 70.39128 
L 468.701435 70.39128 
L 458.757652 70.39128 
z
" clip-path="url(#p7b117b2a94)" style="fill: #2e85ff; fill-opacity: 0.5; stroke: #000000; stroke-linejoin: miter"/>
   </g>
   <g id="patch_98">
    <path d="M 468.701435 70.39128 
L 478.645217 70.39128 
L 478.645217 70.39128 
L 468.701435 70.39128 
z
" clip-path="url(#p7b117b2a94)" style="fill: #2e85ff; fill-opacity: 0.5; stroke: #000000; stroke-linejoin: miter"/>
   </g>
   <g id="matplotlib.axis_1">
    <g id="xtick_1">
     <g id="line2d_1">
      <defs>
       <path id="m31f52f91f9" d="M 0 0 
L 0 3.5 
" style="stroke: #000000; stroke-width: 0.8"/>
      </defs>
      <g>
       <use xlink:href="#m31f52f91f9" x="80.893913" y="70.39128" style="stroke: #000000; stroke-width: 0.8"/>
      </g>
     </g>
     <g id="text_1">
      <text style="font: 5px 'Arial'; text-anchor: middle" x="80.893913" y="80.970186" transform="rotate(-0 80.893913 80.970186)">0.0</text>
     </g>
    </g>
    <g id="xtick_2">
     <g id="line2d_2">
      <g>
       <use xlink:href="#m31f52f91f9" x="130.612826" y="70.39128" style="stroke: #000000; stroke-width: 0.8"/>
      </g>
     </g>
     <g id="text_2">
      <text style="font: 5px 'Arial'; text-anchor: middle" x="130.612826" y="80.970186" transform="rotate(-0 130.612826 80.970186)">0.5</text>
     </g>
    </g>
    <g id="xtick_3">
     <g id="line2d_3">
      <g>
       <use xlink:href="#m31f52f91f9" x="180.331739" y="70.39128" style="stroke: #000000; stroke-width: 0.8"/>
      </g>
     </g>
     <g id="text_3">
      <text style="font: 5px 'Arial'; text-anchor: middle" x="180.331739" y="80.970186" transform="rotate(-0 180.331739 80.970186)">1.0</text>
     </g>
    </g>
    <g id="xtick_4">
     <g id="line2d_4">
      <g>
       <use xlink:href="#m31f52f91f9" x="230.050652" y="70.39128" style="stroke: #000000; stroke-width: 0.8"/>
      </g>
     </g>
     <g id="text_4">
      <text style="font: 5px 'Arial'; text-anchor: middle" x="230.050652" y="80.970186" transform="rotate(-0 230.050652 80.970186)">0.0</text>
     </g>
    </g>
    <g id="xtick_5">
     <g id="line2d_5">
      <g>
       <use xlink:href="#m31f52f91f9" x="279.769565" y="70.39128" style="stroke: #000000; stroke-width: 0.8"/>
      </g>
     </g>
     <g id="text_5">
      <text style="font: 5px 'Arial'; text-anchor: middle" x="279.769565" y="80.970186" transform="rotate(-0 279.769565 80.970186)">0.5</text>
     </g>
    </g>
    <g id="xtick_6">
     <g id="line2d_6">
      <g>
       <use xlink:href="#m31f52f91f9" x="329.488478" y="70.39128" style="stroke: #000000; stroke-width: 0.8"/>
      </g>
     </g>
     <g id="text_6">
      <text style="font: 5px 'Arial'; text-anchor: middle" x="329.488478" y="80.970186" transform="rotate(-0 329.488478 80.970186)">1.0</text>
     </g>
    </g>
    <g id="xtick_7">
     <g id="line2d_7">
      <g>
       <use xlink:href="#m31f52f91f9" x="379.207391" y="70.39128" style="stroke: #000000; stroke-width: 0.8"/>
      </g>
     </g>
     <g id="text_7">
      <text style="font: 5px 'Arial'; text-anchor: middle" x="379.207391" y="80.970186" transform="rotate(-0 379.207391 80.970186)">0.0</text>
     </g>
    </g>
    <g id="xtick_8">
     <g id="line2d_8">
      <g>
       <use xlink:href="#m31f52f91f9" x="428.926304" y="70.39128" style="stroke: #000000; stroke-width: 0.8"/>
      </g>
     </g>
     <g id="text_8">
      <text style="font: 5px 'Arial'; text-anchor: middle" x="428.926304" y="80.970186" transform="rotate(-0 428.926304 80.970186)">0.5</text>
     </g>
    </g>
    <g id="xtick_9">
     <g id="line2d_9">
      <g>
       <use xlink:href="#m31f52f91f9" x="478.645217" y="70.39128" style="stroke: #000000; stroke-width: 0.8"/>
      </g>
     </g>
     <g id="text_9">
      <text style="font: 5px 'Arial'; text-anchor: middle" x="478.645217" y="80.970186" transform="rotate(-0 478.645217 80.970186)">1.0</text>
     </g>
    </g>
    <g id="text_10">
     <text style="font: 5px 'Arial'; text-anchor: middle" x="259.882" y="89.60378" transform="rotate(-0 259.882 89.60378)">Predicted self-assembly probability</text>
    </g>
   </g>
   <g id="matplotlib.axis_2">
    <g id="ytick_1">
     <g id="line2d_10">
      <defs>
       <path id="m6edec0ca79" d="M 0 0 
L -3.5 0 
" style="stroke: #000000; stroke-width: 0.8"/>
      </defs>
      <g>
       <use xlink:href="#m6edec0ca79" x="31.175" y="70.39128" style="stroke: #000000; stroke-width: 0.8"/>
      </g>
     </g>
     <g id="text_11">
      <text style="font: 5px 'Arial'; text-anchor: end" x="24.175" y="72.180733" transform="rotate(-0 24.175 72.180733)">0</text>
     </g>
    </g>
    <g id="ytick_2">
     <g id="line2d_11">
      <g>
       <use xlink:href="#m6edec0ca79" x="31.175" y="54.785946" style="stroke: #000000; stroke-width: 0.8"/>
      </g>
     </g>
     <g id="text_12">
      <text style="font: 5px 'Arial'; text-anchor: end" x="24.175" y="56.575399" transform="rotate(-0 24.175 56.575399)">200</text>
     </g>
    </g>
    <g id="ytick_3">
     <g id="line2d_12">
      <g>
       <use xlink:href="#m6edec0ca79" x="31.175" y="39.180613" style="stroke: #000000; stroke-width: 0.8"/>
      </g>
     </g>
     <g id="text_13">
      <text style="font: 5px 'Arial'; text-anchor: end" x="24.175" y="40.970066" transform="rotate(-0 24.175 40.970066)">400</text>
     </g>
    </g>
    <g id="ytick_4">
     <g id="line2d_13">
      <g>
       <use xlink:href="#m6edec0ca79" x="31.175" y="23.57528" style="stroke: #000000; stroke-width: 0.8"/>
      </g>
     </g>
     <g id="text_14">
      <text style="font: 5px 'Arial'; text-anchor: end" x="24.175" y="25.364733" transform="rotate(-0 24.175 25.364733)">600</text>
     </g>
    </g>
    <g id="text_15">
     <text style="font: 5px 'Arial'; text-anchor: middle" x="10.839844" y="41.13128" transform="rotate(-90 10.839844 41.13128)">Number of peptides</text>
    </g>
   </g>
   <g id="line2d_14">
    <path d="M 88.053631 70.39128 
L 364.804282 70.32561 
L 368.729823 70.13411 
L 372.655364 69.625686 
L 374.618135 69.196513 
L 378.543676 67.99596 
L 382.469217 66.643896 
L 384.431987 66.095892 
L 386.394758 65.72662 
L 388.357529 65.571969 
L 390.320299 65.629403 
L 392.28307 65.861612 
L 404.059693 67.87654 
L 407.985234 68.140916 
L 411.910775 68.169254 
L 415.836317 67.988066 
L 423.687399 67.304124 
L 433.501252 66.452591 
L 443.315105 65.713506 
L 447.240646 65.096212 
L 451.166187 64.11173 
L 453.128957 63.435766 
L 455.091728 62.5794 
L 457.054498 61.467067 
L 459.017269 60.001282 
L 460.98004 58.08052 
L 462.94281 55.633201 
L 464.905581 52.666098 
L 470.793892 42.830772 
L 472.756663 40.684761 
L 474.719434 39.929858 
L 476.682204 40.846001 
L 478.644975 43.405032 
L 478.644975 43.405032 
" clip-path="url(#p7b117b2a94)" style="fill: none; stroke: #2e85ff; stroke-width: 1.5; stroke-linecap: square"/>
   </g>
   <g id="line2d_15">
    <path d="M 88.053631 70.39128 
L 217.596489 70.294031 
L 221.52203 70.059167 
L 225.447571 69.508026 
L 229.373112 68.540383 
L 237.224195 66.155028 
L 239.186965 65.770765 
L 241.149736 65.5529 
L 243.112506 65.502756 
L 247.038048 65.794511 
L 254.88913 66.753973 
L 258.814671 66.998292 
L 264.702983 67.101095 
L 276.479606 67.120611 
L 282.367918 66.859652 
L 300.032853 65.612038 
L 301.995624 65.317162 
L 303.958394 64.899904 
L 305.921165 64.300424 
L 307.883935 63.433158 
L 309.846706 62.188027 
L 311.809476 60.444416 
L 313.772247 58.102189 
L 315.735017 55.129667 
L 317.697788 51.620043 
L 321.623329 44.217776 
L 323.5861 41.321928 
L 325.54887 39.703729 
L 327.511641 39.758932 
L 329.474411 41.591707 
L 331.437182 44.96448 
L 333.399953 49.35753 
L 337.325494 58.629297 
L 339.288264 62.459388 
L 341.251035 65.404345 
L 343.213805 67.470083 
L 345.176576 68.797886 
L 347.139347 69.582316 
L 349.102117 70.009142 
L 351.064888 70.223374 
L 354.990429 70.365219 
L 370.692593 70.391279 
L 478.644975 70.39128 
L 478.644975 70.39128 
" clip-path="url(#p7b117b2a94)" style="fill: none; stroke: #2e85ff; stroke-width: 1.5; stroke-linecap: square"/>
   </g>
   <g id="line2d_16">
    <path d="M 88.053631 68.396733 
L 91.979173 66.888511 
L 99.830255 63.440344 
L 101.793025 62.777162 
L 103.755796 62.297393 
L 105.718567 62.021144 
L 107.681337 61.935865 
L 111.606878 62.155436 
L 117.49519 62.675817 
L 123.383502 62.984223 
L 127.309043 63.063734 
L 131.234584 62.837138 
L 135.160125 62.253759 
L 139.085666 61.637214 
L 143.011207 61.345249 
L 152.82506 61.247697 
L 154.787831 60.945016 
L 156.750601 60.43974 
L 158.713372 59.7165 
L 160.676142 58.784795 
L 164.601684 56.450817 
L 168.527225 53.981318 
L 170.489995 52.993133 
L 172.452766 52.393925 
L 174.415536 52.364474 
L 176.378307 53.042601 
L 178.341078 54.468569 
L 180.303848 56.548607 
L 186.19216 64.173305 
L 188.15493 66.2549 
L 190.117701 67.840072 
L 192.080472 68.935666 
L 194.043242 69.624393 
L 196.006013 70.018749 
L 199.931554 70.322685 
L 207.782636 70.390436 
L 478.644975 70.39128 
L 478.644975 70.39128 
" clip-path="url(#p7b117b2a94)" style="fill: none; stroke: #2e85ff; stroke-width: 1.5; stroke-linecap: square"/>
   </g>
   <g id="patch_99">
    <path d="M 31.175 70.39128 
L 31.175 11.87128 
" style="fill: none; stroke: #000000; stroke-width: 0.8; stroke-linejoin: miter; stroke-linecap: square"/>
   </g>
   <g id="patch_100">
    <path d="M 31.175 70.39128 
L 488.589 70.39128 
" style="fill: none; stroke: #000000; stroke-width: 0.8; stroke-linejoin: miter; stroke-linecap: square"/>
   </g>
   <g id="text_16">
    <text style="fill: #2e85ff; font: 5px 'Arial'; text-anchor: start" x="82.55121" y="66.802053" transform="rotate(-0 82.55121 66.802053)">6</text>
   </g>
   <g id="text_17">
    <text style="fill: #2e85ff; font: 5px 'Arial'; text-anchor: start" x="92.494993" y="61.9644" transform="rotate(-0 92.494993 61.9644)">62</text>
   </g>
   <g id="text_18">
    <text style="fill: #2e85ff; font: 5px 'Arial'; text-anchor: start" x="102.024451" y="57.126746" transform="rotate(-0 102.024451 57.126746)">130</text>
   </g>
   <g id="text_19">
    <text style="fill: #2e85ff; font: 5px 'Arial'; text-anchor: start" x="112.382558" y="58.57024" transform="rotate(-0 112.382558 58.57024)">95</text>
   </g>
   <g id="text_20">
    <text style="fill: #2e85ff; font: 5px 'Arial'; text-anchor: start" x="122.326341" y="59.38952" transform="rotate(-0 122.326341 59.38952)">93</text>
   </g>
   <g id="text_21">
    <text style="fill: #2e85ff; font: 5px 'Arial'; text-anchor: start" x="131.855799" y="58.92136" transform="rotate(-0 131.855799 58.92136)">107</text>
   </g>
   <g id="text_22">
    <text style="fill: #2e85ff; font: 5px 'Arial'; text-anchor: start" x="141.799582" y="58.063066" transform="rotate(-0 141.799582 58.063066)">118</text>
   </g>
   <g id="text_23">
    <text style="fill: #2e85ff; font: 5px 'Arial'; text-anchor: start" x="151.743364" y="55.722266" transform="rotate(-0 151.743364 55.722266)">106</text>
   </g>
   <g id="text_24">
    <text style="fill: #2e85ff; font: 5px 'Arial'; text-anchor: start" x="161.687147" y="49.480133" transform="rotate(-0 161.687147 49.480133)">178</text>
   </g>
   <g id="text_25">
    <text style="fill: #2e85ff; font: 5px 'Arial'; text-anchor: start" x="171.630929" y="39.96088" transform="rotate(-0 171.630929 39.96088)">350</text>
   </g>
   <g id="text_26">
    <text style="fill: #2e85ff; font: 5px 'Arial'; text-anchor: start" x="231.707949" y="63.212826" transform="rotate(-0 231.707949 63.212826)">52</text>
   </g>
   <g id="text_27">
    <text style="fill: #2e85ff; font: 5px 'Arial'; text-anchor: start" x="241.651732" y="61.574266" transform="rotate(-0 241.651732 61.574266)">73</text>
   </g>
   <g id="text_28">
    <text style="fill: #2e85ff; font: 5px 'Arial'; text-anchor: start" x="251.595514" y="62.744666" transform="rotate(-0 251.595514 62.744666)">42</text>
   </g>
   <g id="text_29">
    <text style="fill: #2e85ff; font: 5px 'Arial'; text-anchor: start" x="261.539297" y="63.915066" transform="rotate(-0 261.539297 63.915066)">43</text>
   </g>
   <g id="text_30">
    <text style="fill: #2e85ff; font: 5px 'Arial'; text-anchor: start" x="271.48308" y="63.60296" transform="rotate(-0 271.48308 63.60296)">36</text>
   </g>
   <g id="text_31">
    <text style="fill: #2e85ff; font: 5px 'Arial'; text-anchor: start" x="281.426862" y="63.290853" transform="rotate(-0 281.426862 63.290853)">51</text>
   </g>
   <g id="text_32">
    <text style="fill: #2e85ff; font: 5px 'Arial'; text-anchor: start" x="291.370645" y="62.627626" transform="rotate(-0 291.370645 62.627626)">52</text>
   </g>
   <g id="text_33">
    <text style="fill: #2e85ff; font: 5px 'Arial'; text-anchor: start" x="301.314428" y="61.184133" transform="rotate(-0 301.314428 61.184133)">68</text>
   </g>
   <g id="text_34">
    <text style="fill: #2e85ff; font: 5px 'Arial'; text-anchor: start" x="310.843886" y="36.371653" transform="rotate(-0 310.843886 36.371653)">104</text>
   </g>
   <g id="text_35">
    <text style="fill: #2e85ff; font: 5px 'Arial'; text-anchor: start" x="320.787668" y="10.778906" transform="rotate(-0 320.787668 10.778906)">724</text>
   </g>
   <g id="text_36">
    <text style="fill: #2e85ff; font: 5px 'Arial'; text-anchor: start" x="380.864688" y="61.184133" transform="rotate(-0 380.864688 61.184133)">78</text>
   </g>
   <g id="text_37">
    <text style="fill: #2e85ff; font: 5px 'Arial'; text-anchor: start" x="390.808471" y="63.01776" transform="rotate(-0 390.808471 63.01776)">48</text>
   </g>
   <g id="text_38">
    <text style="fill: #2e85ff; font: 5px 'Arial'; text-anchor: start" x="400.752254" y="64.500266" transform="rotate(-0 400.752254 64.500266)">31</text>
   </g>
   <g id="text_39">
    <text style="fill: #2e85ff; font: 5px 'Arial'; text-anchor: start" x="410.696036" y="64.461253" transform="rotate(-0 410.696036 64.461253)">23</text>
   </g>
   <g id="text_40">
    <text style="fill: #2e85ff; font: 5px 'Arial'; text-anchor: start" x="420.639819" y="64.07112" transform="rotate(-0 420.639819 64.07112)">41</text>
   </g>
   <g id="text_41">
    <text style="fill: #2e85ff; font: 5px 'Arial'; text-anchor: start" x="430.583601" y="62.978746" transform="rotate(-0 430.583601 62.978746)">55</text>
   </g>
   <g id="text_42">
    <text style="fill: #2e85ff; font: 5px 'Arial'; text-anchor: start" x="440.527384" y="61.61328" transform="rotate(-0 440.527384 61.61328)">48</text>
   </g>
   <g id="text_43">
    <text style="fill: #2e85ff; font: 5px 'Arial'; text-anchor: start" x="450.471167" y="59.584586" transform="rotate(-0 450.471167 59.584586)">90</text>
   </g>
   <g id="text_44">
    <text style="fill: #2e85ff; font: 5px 'Arial'; text-anchor: start" x="460.000625" y="37.15192" transform="rotate(-0 460.000625 37.15192)">149</text>
   </g>
   <g id="text_45">
    <text style="fill: #2e85ff; font: 5px 'Arial'; text-anchor: start" x="469.944408" y="14.056026" transform="rotate(-0 469.944408 14.056026)">682</text>
   </g>
  </g>
 </g>
 <defs>
  <clipPath id="p7b117b2a94">
   <rect x="31.175" y="11.87128" width="457.414" height="58.52"/>
  </clipPath>
 </defs>
</svg>
