<?xml version="1.0" encoding="utf-8" standalone="no"?>
<!DOCTYPE svg PUBLIC "-//W3C//DTD SVG 1.1//EN"
  "http://www.w3.org/Graphics/SVG/1.1/DTD/svg11.dtd">
<svg xmlns:xlink="http://www.w3.org/1999/xlink" width="1427.26875pt" height="290.7475pt" viewBox="0 0 1427.26875 290.7475" xmlns="http://www.w3.org/2000/svg" version="1.1">
 <metadata>
  <rdf:RDF xmlns:dc="http://purl.org/dc/elements/1.1/" xmlns:cc="http://creativecommons.org/ns#" xmlns:rdf="http://www.w3.org/1999/02/22-rdf-syntax-ns#">
   <cc:Work>
    <dc:type rdf:resource="http://purl.org/dc/dcmitype/StillImage"/>
    <dc:date>2024-09-24T11:16:19.879633</dc:date>
    <dc:format>image/svg+xml</dc:format>
    <dc:creator>
     <cc:Agent>
      <dc:title>Matplotlib v3.7.0, https://matplotlib.org/</dc:title>
     </cc:Agent>
    </dc:creator>
   </cc:Work>
  </rdf:RDF>
 </metadata>
 <defs>
  <style type="text/css">*{stroke-linejoin: round; stroke-linecap: butt}</style>
 </defs>
 <g id="figure_1">
  <g id="patch_1">
   <path d="M 0 290.7475 
L 1427.26875 290.7475 
L 1427.26875 0 
L 0 0 
z
" style="fill: #ffffff"/>
  </g>
  <g id="axes_1">
   <g id="patch_2">
    <path d="M 52.71875 249.32 
L 1420.06875 249.32 
L 1420.06875 7.2 
L 52.71875 7.2 
z
" style="fill: #ffffff"/>
   </g>
   <g id="patch_3">
    <path d="M 201.34375 249.32 
L 231.06875 249.32 
L 231.06875 249.32 
L 201.34375 249.32 
z
" clip-path="url(#p38898cacfd)" style="fill: #ff120a; fill-opacity: 0.5; stroke: #000000; stroke-linejoin: miter"/>
   </g>
   <g id="patch_4">
    <path d="M 231.06875 249.32 
L 260.79375 249.32 
L 260.79375 249.32 
L 231.06875 249.32 
z
" clip-path="url(#p38898cacfd)" style="fill: #ff120a; fill-opacity: 0.5; stroke: #000000; stroke-linejoin: miter"/>
   </g>
   <g id="patch_5">
    <path d="M 260.79375 249.32 
L 290.51875 249.32 
L 290.51875 249.32 
L 260.79375 249.32 
z
" clip-path="url(#p38898cacfd)" style="fill: #ff120a; fill-opacity: 0.5; stroke: #000000; stroke-linejoin: miter"/>
   </g>
   <g id="patch_6">
    <path d="M 290.51875 249.32 
L 320.24375 249.32 
L 320.24375 249.32 
L 290.51875 249.32 
z
" clip-path="url(#p38898cacfd)" style="fill: #ff120a; fill-opacity: 0.5; stroke: #000000; stroke-linejoin: miter"/>
   </g>
   <g id="patch_7">
    <path d="M 320.24375 249.32 
L 349.96875 249.32 
L 349.96875 249.32 
L 320.24375 249.32 
z
" clip-path="url(#p38898cacfd)" style="fill: #ff120a; fill-opacity: 0.5; stroke: #000000; stroke-linejoin: miter"/>
   </g>
   <g id="patch_8">
    <path d="M 349.96875 249.32 
L 379.69375 249.32 
L 379.69375 249.32 
L 349.96875 249.32 
z
" clip-path="url(#p38898cacfd)" style="fill: #ff120a; fill-opacity: 0.5; stroke: #000000; stroke-linejoin: miter"/>
   </g>
   <g id="patch_9">
    <path d="M 379.69375 249.32 
L 409.41875 249.32 
L 409.41875 249.32 
L 379.69375 249.32 
z
" clip-path="url(#p38898cacfd)" style="fill: #ff120a; fill-opacity: 0.5; stroke: #000000; stroke-linejoin: miter"/>
   </g>
   <g id="patch_10">
    <path d="M 409.41875 249.32 
L 439.14375 249.32 
L 439.14375 249.32 
L 409.41875 249.32 
z
" clip-path="url(#p38898cacfd)" style="fill: #ff120a; fill-opacity: 0.5; stroke: #000000; stroke-linejoin: miter"/>
   </g>
   <g id="patch_11">
    <path d="M 439.14375 249.32 
L 468.86875 249.32 
L 468.86875 249.32 
L 439.14375 249.32 
z
" clip-path="url(#p38898cacfd)" style="fill: #ff120a; fill-opacity: 0.5; stroke: #000000; stroke-linejoin: miter"/>
   </g>
   <g id="patch_12">
    <path d="M 468.86875 249.32 
L 498.59375 249.32 
L 498.59375 249.32 
L 468.86875 249.32 
z
" clip-path="url(#p38898cacfd)" style="fill: #ff120a; fill-opacity: 0.5; stroke: #000000; stroke-linejoin: miter"/>
   </g>
   <g id="patch_13">
    <path d="M 498.59375 249.32 
L 647.21875 249.32 
L 647.21875 249.32 
L 498.59375 249.32 
z
" clip-path="url(#p38898cacfd)" style="fill: #ff120a; fill-opacity: 0.5; stroke: #000000; stroke-linejoin: miter"/>
   </g>
   <g id="patch_14">
    <path d="M 647.21875 249.32 
L 676.94375 249.32 
L 676.94375 249.32 
L 647.21875 249.32 
z
" clip-path="url(#p38898cacfd)" style="fill: #ff120a; fill-opacity: 0.5; stroke: #000000; stroke-linejoin: miter"/>
   </g>
   <g id="patch_15">
    <path d="M 676.94375 249.32 
L 706.66875 249.32 
L 706.66875 249.32 
L 676.94375 249.32 
z
" clip-path="url(#p38898cacfd)" style="fill: #ff120a; fill-opacity: 0.5; stroke: #000000; stroke-linejoin: miter"/>
   </g>
   <g id="patch_16">
    <path d="M 706.66875 249.32 
L 736.39375 249.32 
L 736.39375 249.32 
L 706.66875 249.32 
z
" clip-path="url(#p38898cacfd)" style="fill: #ff120a; fill-opacity: 0.5; stroke: #000000; stroke-linejoin: miter"/>
   </g>
   <g id="patch_17">
    <path d="M 736.39375 249.32 
L 766.11875 249.32 
L 766.11875 249.32 
L 736.39375 249.32 
z
" clip-path="url(#p38898cacfd)" style="fill: #ff120a; fill-opacity: 0.5; stroke: #000000; stroke-linejoin: miter"/>
   </g>
   <g id="patch_18">
    <path d="M 766.11875 249.32 
L 795.84375 249.32 
L 795.84375 249.32 
L 766.11875 249.32 
z
" clip-path="url(#p38898cacfd)" style="fill: #ff120a; fill-opacity: 0.5; stroke: #000000; stroke-linejoin: miter"/>
   </g>
   <g id="patch_19">
    <path d="M 795.84375 249.32 
L 825.56875 249.32 
L 825.56875 249.32 
L 795.84375 249.32 
z
" clip-path="url(#p38898cacfd)" style="fill: #ff120a; fill-opacity: 0.5; stroke: #000000; stroke-linejoin: miter"/>
   </g>
   <g id="patch_20">
    <path d="M 825.56875 249.32 
L 855.29375 249.32 
L 855.29375 249.32 
L 825.56875 249.32 
z
" clip-path="url(#p38898cacfd)" style="fill: #ff120a; fill-opacity: 0.5; stroke: #000000; stroke-linejoin: miter"/>
   </g>
   <g id="patch_21">
    <path d="M 855.29375 249.32 
L 885.01875 249.32 
L 885.01875 249.32 
L 855.29375 249.32 
z
" clip-path="url(#p38898cacfd)" style="fill: #ff120a; fill-opacity: 0.5; stroke: #000000; stroke-linejoin: miter"/>
   </g>
   <g id="patch_22">
    <path d="M 885.01875 249.32 
L 914.74375 249.32 
L 914.74375 249.32 
L 885.01875 249.32 
z
" clip-path="url(#p38898cacfd)" style="fill: #ff120a; fill-opacity: 0.5; stroke: #000000; stroke-linejoin: miter"/>
   </g>
   <g id="patch_23">
    <path d="M 914.74375 249.32 
L 944.46875 249.32 
L 944.46875 249.32 
L 914.74375 249.32 
z
" clip-path="url(#p38898cacfd)" style="fill: #ff120a; fill-opacity: 0.5; stroke: #000000; stroke-linejoin: miter"/>
   </g>
   <g id="patch_24">
    <path d="M 944.46875 249.32 
L 1093.09375 249.32 
L 1093.09375 249.32 
L 944.46875 249.32 
z
" clip-path="url(#p38898cacfd)" style="fill: #ff120a; fill-opacity: 0.5; stroke: #000000; stroke-linejoin: miter"/>
   </g>
   <g id="patch_25">
    <path d="M 1093.09375 249.32 
L 1122.81875 249.32 
L 1122.81875 165.707893 
L 1093.09375 165.707893 
z
" clip-path="url(#p38898cacfd)" style="fill: #ff120a; fill-opacity: 0.5; stroke: #000000; stroke-linejoin: miter"/>
   </g>
   <g id="patch_26">
    <path d="M 1122.81875 249.32 
L 1152.54375 249.32 
L 1152.54375 214.45472 
L 1122.81875 214.45472 
z
" clip-path="url(#p38898cacfd)" style="fill: #ff120a; fill-opacity: 0.5; stroke: #000000; stroke-linejoin: miter"/>
   </g>
   <g id="patch_27">
    <path d="M 1152.54375 249.32 
L 1182.26875 249.32 
L 1182.26875 235.115627 
L 1152.54375 235.115627 
z
" clip-path="url(#p38898cacfd)" style="fill: #ff120a; fill-opacity: 0.5; stroke: #000000; stroke-linejoin: miter"/>
   </g>
   <g id="patch_28">
    <path d="M 1182.26875 249.32 
L 1211.99375 249.32 
L 1211.99375 239.958027 
L 1182.26875 239.958027 
z
" clip-path="url(#p38898cacfd)" style="fill: #ff120a; fill-opacity: 0.5; stroke: #000000; stroke-linejoin: miter"/>
   </g>
   <g id="patch_29">
    <path d="M 1211.99375 249.32 
L 1241.71875 249.32 
L 1241.71875 241.57216 
L 1211.99375 241.57216 
z
" clip-path="url(#p38898cacfd)" style="fill: #ff120a; fill-opacity: 0.5; stroke: #000000; stroke-linejoin: miter"/>
   </g>
   <g id="patch_30">
    <path d="M 1241.71875 249.32 
L 1271.44375 249.32 
L 1271.44375 243.831947 
L 1241.71875 243.831947 
z
" clip-path="url(#p38898cacfd)" style="fill: #ff120a; fill-opacity: 0.5; stroke: #000000; stroke-linejoin: miter"/>
   </g>
   <g id="patch_31">
    <path d="M 1271.44375 249.32 
L 1301.16875 249.32 
L 1301.16875 243.186293 
L 1271.44375 243.186293 
z
" clip-path="url(#p38898cacfd)" style="fill: #ff120a; fill-opacity: 0.5; stroke: #000000; stroke-linejoin: miter"/>
   </g>
   <g id="patch_32">
    <path d="M 1301.16875 249.32 
L 1330.89375 249.32 
L 1330.89375 240.60368 
L 1301.16875 240.60368 
z
" clip-path="url(#p38898cacfd)" style="fill: #ff120a; fill-opacity: 0.5; stroke: #000000; stroke-linejoin: miter"/>
   </g>
   <g id="patch_33">
    <path d="M 1330.89375 249.32 
L 1360.61875 249.32 
L 1360.61875 242.217813 
L 1330.89375 242.217813 
z
" clip-path="url(#p38898cacfd)" style="fill: #ff120a; fill-opacity: 0.5; stroke: #000000; stroke-linejoin: miter"/>
   </g>
   <g id="patch_34">
    <path d="M 1360.61875 249.32 
L 1390.34375 249.32 
L 1390.34375 234.469973 
L 1360.61875 234.469973 
z
" clip-path="url(#p38898cacfd)" style="fill: #ff120a; fill-opacity: 0.5; stroke: #000000; stroke-linejoin: miter"/>
   </g>
   <g id="patch_35">
    <path d="M 201.34375 249.32 
L 231.06875 249.32 
L 231.06875 249.32 
L 201.34375 249.32 
z
" clip-path="url(#p38898cacfd)" style="fill: #ff120a; fill-opacity: 0.5; stroke: #000000; stroke-linejoin: miter"/>
   </g>
   <g id="patch_36">
    <path d="M 231.06875 249.32 
L 260.79375 249.32 
L 260.79375 249.32 
L 231.06875 249.32 
z
" clip-path="url(#p38898cacfd)" style="fill: #ff120a; fill-opacity: 0.5; stroke: #000000; stroke-linejoin: miter"/>
   </g>
   <g id="patch_37">
    <path d="M 260.79375 249.32 
L 290.51875 249.32 
L 290.51875 249.32 
L 260.79375 249.32 
z
" clip-path="url(#p38898cacfd)" style="fill: #ff120a; fill-opacity: 0.5; stroke: #000000; stroke-linejoin: miter"/>
   </g>
   <g id="patch_38">
    <path d="M 290.51875 249.32 
L 320.24375 249.32 
L 320.24375 249.32 
L 290.51875 249.32 
z
" clip-path="url(#p38898cacfd)" style="fill: #ff120a; fill-opacity: 0.5; stroke: #000000; stroke-linejoin: miter"/>
   </g>
   <g id="patch_39">
    <path d="M 320.24375 249.32 
L 349.96875 249.32 
L 349.96875 249.32 
L 320.24375 249.32 
z
" clip-path="url(#p38898cacfd)" style="fill: #ff120a; fill-opacity: 0.5; stroke: #000000; stroke-linejoin: miter"/>
   </g>
   <g id="patch_40">
    <path d="M 349.96875 249.32 
L 379.69375 249.32 
L 379.69375 249.32 
L 349.96875 249.32 
z
" clip-path="url(#p38898cacfd)" style="fill: #ff120a; fill-opacity: 0.5; stroke: #000000; stroke-linejoin: miter"/>
   </g>
   <g id="patch_41">
    <path d="M 379.69375 249.32 
L 409.41875 249.32 
L 409.41875 249.32 
L 379.69375 249.32 
z
" clip-path="url(#p38898cacfd)" style="fill: #ff120a; fill-opacity: 0.5; stroke: #000000; stroke-linejoin: miter"/>
   </g>
   <g id="patch_42">
    <path d="M 409.41875 249.32 
L 439.14375 249.32 
L 439.14375 249.32 
L 409.41875 249.32 
z
" clip-path="url(#p38898cacfd)" style="fill: #ff120a; fill-opacity: 0.5; stroke: #000000; stroke-linejoin: miter"/>
   </g>
   <g id="patch_43">
    <path d="M 439.14375 249.32 
L 468.86875 249.32 
L 468.86875 249.32 
L 439.14375 249.32 
z
" clip-path="url(#p38898cacfd)" style="fill: #ff120a; fill-opacity: 0.5; stroke: #000000; stroke-linejoin: miter"/>
   </g>
   <g id="patch_44">
    <path d="M 468.86875 249.32 
L 498.59375 249.32 
L 498.59375 249.32 
L 468.86875 249.32 
z
" clip-path="url(#p38898cacfd)" style="fill: #ff120a; fill-opacity: 0.5; stroke: #000000; stroke-linejoin: miter"/>
   </g>
   <g id="patch_45">
    <path d="M 498.59375 249.32 
L 647.21875 249.32 
L 647.21875 249.32 
L 498.59375 249.32 
z
" clip-path="url(#p38898cacfd)" style="fill: #ff120a; fill-opacity: 0.5; stroke: #000000; stroke-linejoin: miter"/>
   </g>
   <g id="patch_46">
    <path d="M 647.21875 249.32 
L 676.94375 249.32 
L 676.94375 167.96768 
L 647.21875 167.96768 
z
" clip-path="url(#p38898cacfd)" style="fill: #ff120a; fill-opacity: 0.5; stroke: #000000; stroke-linejoin: miter"/>
   </g>
   <g id="patch_47">
    <path d="M 676.94375 249.32 
L 706.66875 249.32 
L 706.66875 220.911253 
L 676.94375 220.911253 
z
" clip-path="url(#p38898cacfd)" style="fill: #ff120a; fill-opacity: 0.5; stroke: #000000; stroke-linejoin: miter"/>
   </g>
   <g id="patch_48">
    <path d="M 706.66875 249.32 
L 736.39375 249.32 
L 736.39375 229.9504 
L 706.66875 229.9504 
z
" clip-path="url(#p38898cacfd)" style="fill: #ff120a; fill-opacity: 0.5; stroke: #000000; stroke-linejoin: miter"/>
   </g>
   <g id="patch_49">
    <path d="M 736.39375 249.32 
L 766.11875 249.32 
L 766.11875 237.375413 
L 736.39375 237.375413 
z
" clip-path="url(#p38898cacfd)" style="fill: #ff120a; fill-opacity: 0.5; stroke: #000000; stroke-linejoin: miter"/>
   </g>
   <g id="patch_50">
    <path d="M 766.11875 249.32 
L 795.84375 249.32 
L 795.84375 238.343893 
L 766.11875 238.343893 
z
" clip-path="url(#p38898cacfd)" style="fill: #ff120a; fill-opacity: 0.5; stroke: #000000; stroke-linejoin: miter"/>
   </g>
   <g id="patch_51">
    <path d="M 795.84375 249.32 
L 825.56875 249.32 
L 825.56875 243.186293 
L 795.84375 243.186293 
z
" clip-path="url(#p38898cacfd)" style="fill: #ff120a; fill-opacity: 0.5; stroke: #000000; stroke-linejoin: miter"/>
   </g>
   <g id="patch_52">
    <path d="M 825.56875 249.32 
L 855.29375 249.32 
L 855.29375 242.863467 
L 825.56875 242.863467 
z
" clip-path="url(#p38898cacfd)" style="fill: #ff120a; fill-opacity: 0.5; stroke: #000000; stroke-linejoin: miter"/>
   </g>
   <g id="patch_53">
    <path d="M 855.29375 249.32 
L 885.01875 249.32 
L 885.01875 242.54064 
L 855.29375 242.54064 
z
" clip-path="url(#p38898cacfd)" style="fill: #ff120a; fill-opacity: 0.5; stroke: #000000; stroke-linejoin: miter"/>
   </g>
   <g id="patch_54">
    <path d="M 885.01875 249.32 
L 914.74375 249.32 
L 914.74375 242.54064 
L 885.01875 242.54064 
z
" clip-path="url(#p38898cacfd)" style="fill: #ff120a; fill-opacity: 0.5; stroke: #000000; stroke-linejoin: miter"/>
   </g>
   <g id="patch_55">
    <path d="M 914.74375 249.32 
L 944.46875 249.32 
L 944.46875 235.438453 
L 914.74375 235.438453 
z
" clip-path="url(#p38898cacfd)" style="fill: #ff120a; fill-opacity: 0.5; stroke: #000000; stroke-linejoin: miter"/>
   </g>
   <g id="patch_56">
    <path d="M 944.46875 249.32 
L 1093.09375 249.32 
L 1093.09375 249.32 
L 944.46875 249.32 
z
" clip-path="url(#p38898cacfd)" style="fill: #ff120a; fill-opacity: 0.5; stroke: #000000; stroke-linejoin: miter"/>
   </g>
   <g id="patch_57">
    <path d="M 1093.09375 249.32 
L 1122.81875 249.32 
L 1122.81875 249.32 
L 1093.09375 249.32 
z
" clip-path="url(#p38898cacfd)" style="fill: #ff120a; fill-opacity: 0.5; stroke: #000000; stroke-linejoin: miter"/>
   </g>
   <g id="patch_58">
    <path d="M 1122.81875 249.32 
L 1152.54375 249.32 
L 1152.54375 249.32 
L 1122.81875 249.32 
z
" clip-path="url(#p38898cacfd)" style="fill: #ff120a; fill-opacity: 0.5; stroke: #000000; stroke-linejoin: miter"/>
   </g>
   <g id="patch_59">
    <path d="M 1152.54375 249.32 
L 1182.26875 249.32 
L 1182.26875 249.32 
L 1152.54375 249.32 
z
" clip-path="url(#p38898cacfd)" style="fill: #ff120a; fill-opacity: 0.5; stroke: #000000; stroke-linejoin: miter"/>
   </g>
   <g id="patch_60">
    <path d="M 1182.26875 249.32 
L 1211.99375 249.32 
L 1211.99375 249.32 
L 1182.26875 249.32 
z
" clip-path="url(#p38898cacfd)" style="fill: #ff120a; fill-opacity: 0.5; stroke: #000000; stroke-linejoin: miter"/>
   </g>
   <g id="patch_61">
    <path d="M 1211.99375 249.32 
L 1241.71875 249.32 
L 1241.71875 249.32 
L 1211.99375 249.32 
z
" clip-path="url(#p38898cacfd)" style="fill: #ff120a; fill-opacity: 0.5; stroke: #000000; stroke-linejoin: miter"/>
   </g>
   <g id="patch_62">
    <path d="M 1241.71875 249.32 
L 1271.44375 249.32 
L 1271.44375 249.32 
L 1241.71875 249.32 
z
" clip-path="url(#p38898cacfd)" style="fill: #ff120a; fill-opacity: 0.5; stroke: #000000; stroke-linejoin: miter"/>
   </g>
   <g id="patch_63">
    <path d="M 1271.44375 249.32 
L 1301.16875 249.32 
L 1301.16875 249.32 
L 1271.44375 249.32 
z
" clip-path="url(#p38898cacfd)" style="fill: #ff120a; fill-opacity: 0.5; stroke: #000000; stroke-linejoin: miter"/>
   </g>
   <g id="patch_64">
    <path d="M 1301.16875 249.32 
L 1330.89375 249.32 
L 1330.89375 249.32 
L 1301.16875 249.32 
z
" clip-path="url(#p38898cacfd)" style="fill: #ff120a; fill-opacity: 0.5; stroke: #000000; stroke-linejoin: miter"/>
   </g>
   <g id="patch_65">
    <path d="M 1330.89375 249.32 
L 1360.61875 249.32 
L 1360.61875 249.32 
L 1330.89375 249.32 
z
" clip-path="url(#p38898cacfd)" style="fill: #ff120a; fill-opacity: 0.5; stroke: #000000; stroke-linejoin: miter"/>
   </g>
   <g id="patch_66">
    <path d="M 1360.61875 249.32 
L 1390.34375 249.32 
L 1390.34375 249.32 
L 1360.61875 249.32 
z
" clip-path="url(#p38898cacfd)" style="fill: #ff120a; fill-opacity: 0.5; stroke: #000000; stroke-linejoin: miter"/>
   </g>
   <g id="patch_67">
    <path d="M 201.34375 249.32 
L 231.06875 249.32 
L 231.06875 243.186293 
L 201.34375 243.186293 
z
" clip-path="url(#p38898cacfd)" style="fill: #ff120a; fill-opacity: 0.5; stroke: #000000; stroke-linejoin: miter"/>
   </g>
   <g id="patch_68">
    <path d="M 231.06875 249.32 
L 260.79375 249.32 
L 260.79375 191.2112 
L 231.06875 191.2112 
z
" clip-path="url(#p38898cacfd)" style="fill: #ff120a; fill-opacity: 0.5; stroke: #000000; stroke-linejoin: miter"/>
   </g>
   <g id="patch_69">
    <path d="M 260.79375 249.32 
L 290.51875 249.32 
L 290.51875 208.64384 
L 260.79375 208.64384 
z
" clip-path="url(#p38898cacfd)" style="fill: #ff120a; fill-opacity: 0.5; stroke: #000000; stroke-linejoin: miter"/>
   </g>
   <g id="patch_70">
    <path d="M 290.51875 249.32 
L 320.24375 249.32 
L 320.24375 218.005813 
L 290.51875 218.005813 
z
" clip-path="url(#p38898cacfd)" style="fill: #ff120a; fill-opacity: 0.5; stroke: #000000; stroke-linejoin: miter"/>
   </g>
   <g id="patch_71">
    <path d="M 320.24375 249.32 
L 349.96875 249.32 
L 349.96875 233.501493 
L 320.24375 233.501493 
z
" clip-path="url(#p38898cacfd)" style="fill: #ff120a; fill-opacity: 0.5; stroke: #000000; stroke-linejoin: miter"/>
   </g>
   <g id="patch_72">
    <path d="M 349.96875 249.32 
L 379.69375 249.32 
L 379.69375 233.82432 
L 349.96875 233.82432 
z
" clip-path="url(#p38898cacfd)" style="fill: #ff120a; fill-opacity: 0.5; stroke: #000000; stroke-linejoin: miter"/>
   </g>
   <g id="patch_73">
    <path d="M 379.69375 249.32 
L 409.41875 249.32 
L 409.41875 238.021067 
L 379.69375 238.021067 
z
" clip-path="url(#p38898cacfd)" style="fill: #ff120a; fill-opacity: 0.5; stroke: #000000; stroke-linejoin: miter"/>
   </g>
   <g id="patch_74">
    <path d="M 409.41875 249.32 
L 439.14375 249.32 
L 439.14375 243.50912 
L 409.41875 243.50912 
z
" clip-path="url(#p38898cacfd)" style="fill: #ff120a; fill-opacity: 0.5; stroke: #000000; stroke-linejoin: miter"/>
   </g>
   <g id="patch_75">
    <path d="M 439.14375 249.32 
L 468.86875 249.32 
L 468.86875 246.091733 
L 439.14375 246.091733 
z
" clip-path="url(#p38898cacfd)" style="fill: #ff120a; fill-opacity: 0.5; stroke: #000000; stroke-linejoin: miter"/>
   </g>
   <g id="patch_76">
    <path d="M 468.86875 249.32 
L 498.59375 249.32 
L 498.59375 245.123253 
L 468.86875 245.123253 
z
" clip-path="url(#p38898cacfd)" style="fill: #ff120a; fill-opacity: 0.5; stroke: #000000; stroke-linejoin: miter"/>
   </g>
   <g id="patch_77">
    <path d="M 498.59375 249.32 
L 647.21875 249.32 
L 647.21875 249.32 
L 498.59375 249.32 
z
" clip-path="url(#p38898cacfd)" style="fill: #ff120a; fill-opacity: 0.5; stroke: #000000; stroke-linejoin: miter"/>
   </g>
   <g id="patch_78">
    <path d="M 647.21875 249.32 
L 676.94375 249.32 
L 676.94375 249.32 
L 647.21875 249.32 
z
" clip-path="url(#p38898cacfd)" style="fill: #ff120a; fill-opacity: 0.5; stroke: #000000; stroke-linejoin: miter"/>
   </g>
   <g id="patch_79">
    <path d="M 676.94375 249.32 
L 706.66875 249.32 
L 706.66875 249.32 
L 676.94375 249.32 
z
" clip-path="url(#p38898cacfd)" style="fill: #ff120a; fill-opacity: 0.5; stroke: #000000; stroke-linejoin: miter"/>
   </g>
   <g id="patch_80">
    <path d="M 706.66875 249.32 
L 736.39375 249.32 
L 736.39375 249.32 
L 706.66875 249.32 
z
" clip-path="url(#p38898cacfd)" style="fill: #ff120a; fill-opacity: 0.5; stroke: #000000; stroke-linejoin: miter"/>
   </g>
   <g id="patch_81">
    <path d="M 736.39375 249.32 
L 766.11875 249.32 
L 766.11875 249.32 
L 736.39375 249.32 
z
" clip-path="url(#p38898cacfd)" style="fill: #ff120a; fill-opacity: 0.5; stroke: #000000; stroke-linejoin: miter"/>
   </g>
   <g id="patch_82">
    <path d="M 766.11875 249.32 
L 795.84375 249.32 
L 795.84375 249.32 
L 766.11875 249.32 
z
" clip-path="url(#p38898cacfd)" style="fill: #ff120a; fill-opacity: 0.5; stroke: #000000; stroke-linejoin: miter"/>
   </g>
   <g id="patch_83">
    <path d="M 795.84375 249.32 
L 825.56875 249.32 
L 825.56875 249.32 
L 795.84375 249.32 
z
" clip-path="url(#p38898cacfd)" style="fill: #ff120a; fill-opacity: 0.5; stroke: #000000; stroke-linejoin: miter"/>
   </g>
   <g id="patch_84">
    <path d="M 825.56875 249.32 
L 855.29375 249.32 
L 855.29375 249.32 
L 825.56875 249.32 
z
" clip-path="url(#p38898cacfd)" style="fill: #ff120a; fill-opacity: 0.5; stroke: #000000; stroke-linejoin: miter"/>
   </g>
   <g id="patch_85">
    <path d="M 855.29375 249.32 
L 885.01875 249.32 
L 885.01875 249.32 
L 855.29375 249.32 
z
" clip-path="url(#p38898cacfd)" style="fill: #ff120a; fill-opacity: 0.5; stroke: #000000; stroke-linejoin: miter"/>
   </g>
   <g id="patch_86">
    <path d="M 885.01875 249.32 
L 914.74375 249.32 
L 914.74375 249.32 
L 885.01875 249.32 
z
" clip-path="url(#p38898cacfd)" style="fill: #ff120a; fill-opacity: 0.5; stroke: #000000; stroke-linejoin: miter"/>
   </g>
   <g id="patch_87">
    <path d="M 914.74375 249.32 
L 944.46875 249.32 
L 944.46875 249.32 
L 914.74375 249.32 
z
" clip-path="url(#p38898cacfd)" style="fill: #ff120a; fill-opacity: 0.5; stroke: #000000; stroke-linejoin: miter"/>
   </g>
   <g id="patch_88">
    <path d="M 944.46875 249.32 
L 1093.09375 249.32 
L 1093.09375 249.32 
L 944.46875 249.32 
z
" clip-path="url(#p38898cacfd)" style="fill: #ff120a; fill-opacity: 0.5; stroke: #000000; stroke-linejoin: miter"/>
   </g>
   <g id="patch_89">
    <path d="M 1093.09375 249.32 
L 1122.81875 249.32 
L 1122.81875 249.32 
L 1093.09375 249.32 
z
" clip-path="url(#p38898cacfd)" style="fill: #ff120a; fill-opacity: 0.5; stroke: #000000; stroke-linejoin: miter"/>
   </g>
   <g id="patch_90">
    <path d="M 1122.81875 249.32 
L 1152.54375 249.32 
L 1152.54375 249.32 
L 1122.81875 249.32 
z
" clip-path="url(#p38898cacfd)" style="fill: #ff120a; fill-opacity: 0.5; stroke: #000000; stroke-linejoin: miter"/>
   </g>
   <g id="patch_91">
    <path d="M 1152.54375 249.32 
L 1182.26875 249.32 
L 1182.26875 249.32 
L 1152.54375 249.32 
z
" clip-path="url(#p38898cacfd)" style="fill: #ff120a; fill-opacity: 0.5; stroke: #000000; stroke-linejoin: miter"/>
   </g>
   <g id="patch_92">
    <path d="M 1182.26875 249.32 
L 1211.99375 249.32 
L 1211.99375 249.32 
L 1182.26875 249.32 
z
" clip-path="url(#p38898cacfd)" style="fill: #ff120a; fill-opacity: 0.5; stroke: #000000; stroke-linejoin: miter"/>
   </g>
   <g id="patch_93">
    <path d="M 1211.99375 249.32 
L 1241.71875 249.32 
L 1241.71875 249.32 
L 1211.99375 249.32 
z
" clip-path="url(#p38898cacfd)" style="fill: #ff120a; fill-opacity: 0.5; stroke: #000000; stroke-linejoin: miter"/>
   </g>
   <g id="patch_94">
    <path d="M 1241.71875 249.32 
L 1271.44375 249.32 
L 1271.44375 249.32 
L 1241.71875 249.32 
z
" clip-path="url(#p38898cacfd)" style="fill: #ff120a; fill-opacity: 0.5; stroke: #000000; stroke-linejoin: miter"/>
   </g>
   <g id="patch_95">
    <path d="M 1271.44375 249.32 
L 1301.16875 249.32 
L 1301.16875 249.32 
L 1271.44375 249.32 
z
" clip-path="url(#p38898cacfd)" style="fill: #ff120a; fill-opacity: 0.5; stroke: #000000; stroke-linejoin: miter"/>
   </g>
   <g id="patch_96">
    <path d="M 1301.16875 249.32 
L 1330.89375 249.32 
L 1330.89375 249.32 
L 1301.16875 249.32 
z
" clip-path="url(#p38898cacfd)" style="fill: #ff120a; fill-opacity: 0.5; stroke: #000000; stroke-linejoin: miter"/>
   </g>
   <g id="patch_97">
    <path d="M 1330.89375 249.32 
L 1360.61875 249.32 
L 1360.61875 249.32 
L 1330.89375 249.32 
z
" clip-path="url(#p38898cacfd)" style="fill: #ff120a; fill-opacity: 0.5; stroke: #000000; stroke-linejoin: miter"/>
   </g>
   <g id="patch_98">
    <path d="M 1360.61875 249.32 
L 1390.34375 249.32 
L 1390.34375 249.32 
L 1360.61875 249.32 
z
" clip-path="url(#p38898cacfd)" style="fill: #ff120a; fill-opacity: 0.5; stroke: #000000; stroke-linejoin: miter"/>
   </g>
   <g id="PathCollection_1">
    <defs>
     <path id="m9adf7db284" d="M 0 3 
C 0.795609 3 1.55874 2.683901 2.12132 2.12132 
C 2.683901 1.55874 3 0.795609 3 0 
C 3 -0.795609 2.683901 -1.55874 2.12132 -2.12132 
C 1.55874 -2.683901 0.795609 -3 0 -3 
C -0.795609 -3 -1.55874 -2.683901 -2.12132 -2.12132 
C -2.683901 -1.55874 -3 -0.795609 -3 0 
C -3 0.795609 -2.683901 1.55874 -2.12132 2.12132 
C -1.55874 2.683901 -0.795609 3 0 3 
z
" style="stroke: #ff120a"/>
    </defs>
    <g clip-path="url(#p38898cacfd)">
     <use xlink:href="#m9adf7db284" x="216.20625" y="243.186293" style="fill: #ff120a; stroke: #ff120a"/>
     <use xlink:href="#m9adf7db284" x="245.93125" y="191.2112" style="fill: #ff120a; stroke: #ff120a"/>
     <use xlink:href="#m9adf7db284" x="275.65625" y="208.64384" style="fill: #ff120a; stroke: #ff120a"/>
     <use xlink:href="#m9adf7db284" x="305.38125" y="218.005813" style="fill: #ff120a; stroke: #ff120a"/>
     <use xlink:href="#m9adf7db284" x="335.10625" y="233.501493" style="fill: #ff120a; stroke: #ff120a"/>
     <use xlink:href="#m9adf7db284" x="364.83125" y="233.82432" style="fill: #ff120a; stroke: #ff120a"/>
     <use xlink:href="#m9adf7db284" x="394.55625" y="238.021067" style="fill: #ff120a; stroke: #ff120a"/>
     <use xlink:href="#m9adf7db284" x="424.28125" y="243.50912" style="fill: #ff120a; stroke: #ff120a"/>
     <use xlink:href="#m9adf7db284" x="454.00625" y="246.091733" style="fill: #ff120a; stroke: #ff120a"/>
     <use xlink:href="#m9adf7db284" x="483.73125" y="245.123253" style="fill: #ff120a; stroke: #ff120a"/>
    </g>
   </g>
   <g id="PathCollection_2">
    <g clip-path="url(#p38898cacfd)">
     <use xlink:href="#m9adf7db284" x="662.08125" y="167.96768" style="fill: #ff120a; stroke: #ff120a"/>
     <use xlink:href="#m9adf7db284" x="691.80625" y="220.911253" style="fill: #ff120a; stroke: #ff120a"/>
     <use xlink:href="#m9adf7db284" x="721.53125" y="229.9504" style="fill: #ff120a; stroke: #ff120a"/>
     <use xlink:href="#m9adf7db284" x="751.25625" y="237.375413" style="fill: #ff120a; stroke: #ff120a"/>
     <use xlink:href="#m9adf7db284" x="780.98125" y="238.343893" style="fill: #ff120a; stroke: #ff120a"/>
     <use xlink:href="#m9adf7db284" x="810.70625" y="243.186293" style="fill: #ff120a; stroke: #ff120a"/>
     <use xlink:href="#m9adf7db284" x="840.43125" y="242.863467" style="fill: #ff120a; stroke: #ff120a"/>
     <use xlink:href="#m9adf7db284" x="870.15625" y="242.54064" style="fill: #ff120a; stroke: #ff120a"/>
     <use xlink:href="#m9adf7db284" x="899.88125" y="242.54064" style="fill: #ff120a; stroke: #ff120a"/>
     <use xlink:href="#m9adf7db284" x="929.60625" y="235.438453" style="fill: #ff120a; stroke: #ff120a"/>
    </g>
   </g>
   <g id="PathCollection_3">
    <g clip-path="url(#p38898cacfd)">
     <use xlink:href="#m9adf7db284" x="1107.95625" y="165.707893" style="fill: #ff120a; stroke: #ff120a"/>
     <use xlink:href="#m9adf7db284" x="1137.68125" y="214.45472" style="fill: #ff120a; stroke: #ff120a"/>
     <use xlink:href="#m9adf7db284" x="1167.40625" y="235.115627" style="fill: #ff120a; stroke: #ff120a"/>
     <use xlink:href="#m9adf7db284" x="1197.13125" y="239.958027" style="fill: #ff120a; stroke: #ff120a"/>
     <use xlink:href="#m9adf7db284" x="1226.85625" y="241.57216" style="fill: #ff120a; stroke: #ff120a"/>
     <use xlink:href="#m9adf7db284" x="1256.58125" y="243.831947" style="fill: #ff120a; stroke: #ff120a"/>
     <use xlink:href="#m9adf7db284" x="1286.30625" y="243.186293" style="fill: #ff120a; stroke: #ff120a"/>
     <use xlink:href="#m9adf7db284" x="1316.03125" y="240.60368" style="fill: #ff120a; stroke: #ff120a"/>
     <use xlink:href="#m9adf7db284" x="1345.75625" y="242.217813" style="fill: #ff120a; stroke: #ff120a"/>
     <use xlink:href="#m9adf7db284" x="1375.48125" y="234.469973" style="fill: #ff120a; stroke: #ff120a"/>
    </g>
   </g>
   <g id="matplotlib.axis_1">
    <g id="xtick_1">
     <g id="line2d_1">
      <defs>
       <path id="m1ae0416a6f" d="M 0 0 
L 0 3.5 
" style="stroke: #000000; stroke-width: 0.8"/>
      </defs>
      <g>
       <use xlink:href="#m1ae0416a6f" x="201.34375" y="249.32" style="stroke: #000000; stroke-width: 0.8"/>
      </g>
     </g>
     <g id="text_1">
      <!-- 0.0 -->
      <g transform="translate(191.801875 265.438125) scale(0.12 -0.12)">
       <defs>
        <path id="DejaVuSans-30" d="M 2034 4250 
Q 1547 4250 1301 3770 
Q 1056 3291 1056 2328 
Q 1056 1369 1301 889 
Q 1547 409 2034 409 
Q 2525 409 2770 889 
Q 3016 1369 3016 2328 
Q 3016 3291 2770 3770 
Q 2525 4250 2034 4250 
z
M 2034 4750 
Q 2819 4750 3233 4129 
Q 3647 3509 3647 2328 
Q 3647 1150 3233 529 
Q 2819 -91 2034 -91 
Q 1250 -91 836 529 
Q 422 1150 422 2328 
Q 422 3509 836 4129 
Q 1250 4750 2034 4750 
z
" transform="scale(0.015625)"/>
        <path id="DejaVuSans-2e" d="M 684 794 
L 1344 794 
L 1344 0 
L 684 0 
L 684 794 
z
" transform="scale(0.015625)"/>
       </defs>
       <use xlink:href="#DejaVuSans-30"/>
       <use xlink:href="#DejaVuSans-2e" x="63.623047"/>
       <use xlink:href="#DejaVuSans-30" x="95.410156"/>
      </g>
     </g>
    </g>
    <g id="xtick_2">
     <g id="line2d_2">
      <g>
       <use xlink:href="#m1ae0416a6f" x="349.96875" y="249.32" style="stroke: #000000; stroke-width: 0.8"/>
      </g>
     </g>
     <g id="text_2">
      <!-- 0.5 -->
      <g transform="translate(340.426875 265.438125) scale(0.12 -0.12)">
       <defs>
        <path id="DejaVuSans-35" d="M 691 4666 
L 3169 4666 
L 3169 4134 
L 1269 4134 
L 1269 2991 
Q 1406 3038 1543 3061 
Q 1681 3084 1819 3084 
Q 2600 3084 3056 2656 
Q 3513 2228 3513 1497 
Q 3513 744 3044 326 
Q 2575 -91 1722 -91 
Q 1428 -91 1123 -41 
Q 819 9 494 109 
L 494 744 
Q 775 591 1075 516 
Q 1375 441 1709 441 
Q 2250 441 2565 725 
Q 2881 1009 2881 1497 
Q 2881 1984 2565 2268 
Q 2250 2553 1709 2553 
Q 1456 2553 1204 2497 
Q 953 2441 691 2322 
L 691 4666 
z
" transform="scale(0.015625)"/>
       </defs>
       <use xlink:href="#DejaVuSans-30"/>
       <use xlink:href="#DejaVuSans-2e" x="63.623047"/>
       <use xlink:href="#DejaVuSans-35" x="95.410156"/>
      </g>
     </g>
    </g>
    <g id="xtick_3">
     <g id="line2d_3">
      <g>
       <use xlink:href="#m1ae0416a6f" x="498.59375" y="249.32" style="stroke: #000000; stroke-width: 0.8"/>
      </g>
     </g>
     <g id="text_3">
      <!-- 1.0 -->
      <g transform="translate(489.051875 265.438125) scale(0.12 -0.12)">
       <defs>
        <path id="DejaVuSans-31" d="M 794 531 
L 1825 531 
L 1825 4091 
L 703 3866 
L 703 4441 
L 1819 4666 
L 2450 4666 
L 2450 531 
L 3481 531 
L 3481 0 
L 794 0 
L 794 531 
z
" transform="scale(0.015625)"/>
       </defs>
       <use xlink:href="#DejaVuSans-31"/>
       <use xlink:href="#DejaVuSans-2e" x="63.623047"/>
       <use xlink:href="#DejaVuSans-30" x="95.410156"/>
      </g>
     </g>
    </g>
    <g id="xtick_4">
     <g id="line2d_4">
      <g>
       <use xlink:href="#m1ae0416a6f" x="647.21875" y="249.32" style="stroke: #000000; stroke-width: 0.8"/>
      </g>
     </g>
     <g id="text_4">
      <!-- 0.0 -->
      <g transform="translate(637.676875 265.438125) scale(0.12 -0.12)">
       <use xlink:href="#DejaVuSans-30"/>
       <use xlink:href="#DejaVuSans-2e" x="63.623047"/>
       <use xlink:href="#DejaVuSans-30" x="95.410156"/>
      </g>
     </g>
    </g>
    <g id="xtick_5">
     <g id="line2d_5">
      <g>
       <use xlink:href="#m1ae0416a6f" x="795.84375" y="249.32" style="stroke: #000000; stroke-width: 0.8"/>
      </g>
     </g>
     <g id="text_5">
      <!-- 0.5 -->
      <g transform="translate(786.301875 265.438125) scale(0.12 -0.12)">
       <use xlink:href="#DejaVuSans-30"/>
       <use xlink:href="#DejaVuSans-2e" x="63.623047"/>
       <use xlink:href="#DejaVuSans-35" x="95.410156"/>
      </g>
     </g>
    </g>
    <g id="xtick_6">
     <g id="line2d_6">
      <g>
       <use xlink:href="#m1ae0416a6f" x="944.46875" y="249.32" style="stroke: #000000; stroke-width: 0.8"/>
      </g>
     </g>
     <g id="text_6">
      <!-- 1.0 -->
      <g transform="translate(934.926875 265.438125) scale(0.12 -0.12)">
       <use xlink:href="#DejaVuSans-31"/>
       <use xlink:href="#DejaVuSans-2e" x="63.623047"/>
       <use xlink:href="#DejaVuSans-30" x="95.410156"/>
      </g>
     </g>
    </g>
    <g id="xtick_7">
     <g id="line2d_7">
      <g>
       <use xlink:href="#m1ae0416a6f" x="1093.09375" y="249.32" style="stroke: #000000; stroke-width: 0.8"/>
      </g>
     </g>
     <g id="text_7">
      <!-- 0.0 -->
      <g transform="translate(1083.551875 265.438125) scale(0.12 -0.12)">
       <use xlink:href="#DejaVuSans-30"/>
       <use xlink:href="#DejaVuSans-2e" x="63.623047"/>
       <use xlink:href="#DejaVuSans-30" x="95.410156"/>
      </g>
     </g>
    </g>
    <g id="xtick_8">
     <g id="line2d_8">
      <g>
       <use xlink:href="#m1ae0416a6f" x="1241.71875" y="249.32" style="stroke: #000000; stroke-width: 0.8"/>
      </g>
     </g>
     <g id="text_8">
      <!-- 0.5 -->
      <g transform="translate(1232.176875 265.438125) scale(0.12 -0.12)">
       <use xlink:href="#DejaVuSans-30"/>
       <use xlink:href="#DejaVuSans-2e" x="63.623047"/>
       <use xlink:href="#DejaVuSans-35" x="95.410156"/>
      </g>
     </g>
    </g>
    <g id="xtick_9">
     <g id="line2d_9">
      <g>
       <use xlink:href="#m1ae0416a6f" x="1390.34375" y="249.32" style="stroke: #000000; stroke-width: 0.8"/>
      </g>
     </g>
     <g id="text_9">
      <!-- 1.0 -->
      <g transform="translate(1380.801875 265.438125) scale(0.12 -0.12)">
       <use xlink:href="#DejaVuSans-31"/>
       <use xlink:href="#DejaVuSans-2e" x="63.623047"/>
       <use xlink:href="#DejaVuSans-30" x="95.410156"/>
      </g>
     </g>
    </g>
    <g id="text_10">
     <!-- Predicted self assembly probability -->
     <g transform="translate(631.409688 281.051875) scale(0.12 -0.12)">
      <defs>
       <path id="DejaVuSans-50" d="M 1259 4147 
L 1259 2394 
L 2053 2394 
Q 2494 2394 2734 2622 
Q 2975 2850 2975 3272 
Q 2975 3691 2734 3919 
Q 2494 4147 2053 4147 
L 1259 4147 
z
M 628 4666 
L 2053 4666 
Q 2838 4666 3239 4311 
Q 3641 3956 3641 3272 
Q 3641 2581 3239 2228 
Q 2838 1875 2053 1875 
L 1259 1875 
L 1259 0 
L 628 0 
L 628 4666 
z
" transform="scale(0.015625)"/>
       <path id="DejaVuSans-72" d="M 2631 2963 
Q 2534 3019 2420 3045 
Q 2306 3072 2169 3072 
Q 1681 3072 1420 2755 
Q 1159 2438 1159 1844 
L 1159 0 
L 581 0 
L 581 3500 
L 1159 3500 
L 1159 2956 
Q 1341 3275 1631 3429 
Q 1922 3584 2338 3584 
Q 2397 3584 2469 3576 
Q 2541 3569 2628 3553 
L 2631 2963 
z
" transform="scale(0.015625)"/>
       <path id="DejaVuSans-65" d="M 3597 1894 
L 3597 1613 
L 953 1613 
Q 991 1019 1311 708 
Q 1631 397 2203 397 
Q 2534 397 2845 478 
Q 3156 559 3463 722 
L 3463 178 
Q 3153 47 2828 -22 
Q 2503 -91 2169 -91 
Q 1331 -91 842 396 
Q 353 884 353 1716 
Q 353 2575 817 3079 
Q 1281 3584 2069 3584 
Q 2775 3584 3186 3129 
Q 3597 2675 3597 1894 
z
M 3022 2063 
Q 3016 2534 2758 2815 
Q 2500 3097 2075 3097 
Q 1594 3097 1305 2825 
Q 1016 2553 972 2059 
L 3022 2063 
z
" transform="scale(0.015625)"/>
       <path id="DejaVuSans-64" d="M 2906 2969 
L 2906 4863 
L 3481 4863 
L 3481 0 
L 2906 0 
L 2906 525 
Q 2725 213 2448 61 
Q 2172 -91 1784 -91 
Q 1150 -91 751 415 
Q 353 922 353 1747 
Q 353 2572 751 3078 
Q 1150 3584 1784 3584 
Q 2172 3584 2448 3432 
Q 2725 3281 2906 2969 
z
M 947 1747 
Q 947 1113 1208 752 
Q 1469 391 1925 391 
Q 2381 391 2643 752 
Q 2906 1113 2906 1747 
Q 2906 2381 2643 2742 
Q 2381 3103 1925 3103 
Q 1469 3103 1208 2742 
Q 947 2381 947 1747 
z
" transform="scale(0.015625)"/>
       <path id="DejaVuSans-69" d="M 603 3500 
L 1178 3500 
L 1178 0 
L 603 0 
L 603 3500 
z
M 603 4863 
L 1178 4863 
L 1178 4134 
L 603 4134 
L 603 4863 
z
" transform="scale(0.015625)"/>
       <path id="DejaVuSans-63" d="M 3122 3366 
L 3122 2828 
Q 2878 2963 2633 3030 
Q 2388 3097 2138 3097 
Q 1578 3097 1268 2742 
Q 959 2388 959 1747 
Q 959 1106 1268 751 
Q 1578 397 2138 397 
Q 2388 397 2633 464 
Q 2878 531 3122 666 
L 3122 134 
Q 2881 22 2623 -34 
Q 2366 -91 2075 -91 
Q 1284 -91 818 406 
Q 353 903 353 1747 
Q 353 2603 823 3093 
Q 1294 3584 2113 3584 
Q 2378 3584 2631 3529 
Q 2884 3475 3122 3366 
z
" transform="scale(0.015625)"/>
       <path id="DejaVuSans-74" d="M 1172 4494 
L 1172 3500 
L 2356 3500 
L 2356 3053 
L 1172 3053 
L 1172 1153 
Q 1172 725 1289 603 
Q 1406 481 1766 481 
L 2356 481 
L 2356 0 
L 1766 0 
Q 1100 0 847 248 
Q 594 497 594 1153 
L 594 3053 
L 172 3053 
L 172 3500 
L 594 3500 
L 594 4494 
L 1172 4494 
z
" transform="scale(0.015625)"/>
       <path id="DejaVuSans-20" transform="scale(0.015625)"/>
       <path id="DejaVuSans-73" d="M 2834 3397 
L 2834 2853 
Q 2591 2978 2328 3040 
Q 2066 3103 1784 3103 
Q 1356 3103 1142 2972 
Q 928 2841 928 2578 
Q 928 2378 1081 2264 
Q 1234 2150 1697 2047 
L 1894 2003 
Q 2506 1872 2764 1633 
Q 3022 1394 3022 966 
Q 3022 478 2636 193 
Q 2250 -91 1575 -91 
Q 1294 -91 989 -36 
Q 684 19 347 128 
L 347 722 
Q 666 556 975 473 
Q 1284 391 1588 391 
Q 1994 391 2212 530 
Q 2431 669 2431 922 
Q 2431 1156 2273 1281 
Q 2116 1406 1581 1522 
L 1381 1569 
Q 847 1681 609 1914 
Q 372 2147 372 2553 
Q 372 3047 722 3315 
Q 1072 3584 1716 3584 
Q 2034 3584 2315 3537 
Q 2597 3491 2834 3397 
z
" transform="scale(0.015625)"/>
       <path id="DejaVuSans-6c" d="M 603 4863 
L 1178 4863 
L 1178 0 
L 603 0 
L 603 4863 
z
" transform="scale(0.015625)"/>
       <path id="DejaVuSans-66" d="M 2375 4863 
L 2375 4384 
L 1825 4384 
Q 1516 4384 1395 4259 
Q 1275 4134 1275 3809 
L 1275 3500 
L 2222 3500 
L 2222 3053 
L 1275 3053 
L 1275 0 
L 697 0 
L 697 3053 
L 147 3053 
L 147 3500 
L 697 3500 
L 697 3744 
Q 697 4328 969 4595 
Q 1241 4863 1831 4863 
L 2375 4863 
z
" transform="scale(0.015625)"/>
       <path id="DejaVuSans-61" d="M 2194 1759 
Q 1497 1759 1228 1600 
Q 959 1441 959 1056 
Q 959 750 1161 570 
Q 1363 391 1709 391 
Q 2188 391 2477 730 
Q 2766 1069 2766 1631 
L 2766 1759 
L 2194 1759 
z
M 3341 1997 
L 3341 0 
L 2766 0 
L 2766 531 
Q 2569 213 2275 61 
Q 1981 -91 1556 -91 
Q 1019 -91 701 211 
Q 384 513 384 1019 
Q 384 1609 779 1909 
Q 1175 2209 1959 2209 
L 2766 2209 
L 2766 2266 
Q 2766 2663 2505 2880 
Q 2244 3097 1772 3097 
Q 1472 3097 1187 3025 
Q 903 2953 641 2809 
L 641 3341 
Q 956 3463 1253 3523 
Q 1550 3584 1831 3584 
Q 2591 3584 2966 3190 
Q 3341 2797 3341 1997 
z
" transform="scale(0.015625)"/>
       <path id="DejaVuSans-6d" d="M 3328 2828 
Q 3544 3216 3844 3400 
Q 4144 3584 4550 3584 
Q 5097 3584 5394 3201 
Q 5691 2819 5691 2113 
L 5691 0 
L 5113 0 
L 5113 2094 
Q 5113 2597 4934 2840 
Q 4756 3084 4391 3084 
Q 3944 3084 3684 2787 
Q 3425 2491 3425 1978 
L 3425 0 
L 2847 0 
L 2847 2094 
Q 2847 2600 2669 2842 
Q 2491 3084 2119 3084 
Q 1678 3084 1418 2786 
Q 1159 2488 1159 1978 
L 1159 0 
L 581 0 
L 581 3500 
L 1159 3500 
L 1159 2956 
Q 1356 3278 1631 3431 
Q 1906 3584 2284 3584 
Q 2666 3584 2933 3390 
Q 3200 3197 3328 2828 
z
" transform="scale(0.015625)"/>
       <path id="DejaVuSans-62" d="M 3116 1747 
Q 3116 2381 2855 2742 
Q 2594 3103 2138 3103 
Q 1681 3103 1420 2742 
Q 1159 2381 1159 1747 
Q 1159 1113 1420 752 
Q 1681 391 2138 391 
Q 2594 391 2855 752 
Q 3116 1113 3116 1747 
z
M 1159 2969 
Q 1341 3281 1617 3432 
Q 1894 3584 2278 3584 
Q 2916 3584 3314 3078 
Q 3713 2572 3713 1747 
Q 3713 922 3314 415 
Q 2916 -91 2278 -91 
Q 1894 -91 1617 61 
Q 1341 213 1159 525 
L 1159 0 
L 581 0 
L 581 4863 
L 1159 4863 
L 1159 2969 
z
" transform="scale(0.015625)"/>
       <path id="DejaVuSans-79" d="M 2059 -325 
Q 1816 -950 1584 -1140 
Q 1353 -1331 966 -1331 
L 506 -1331 
L 506 -850 
L 844 -850 
Q 1081 -850 1212 -737 
Q 1344 -625 1503 -206 
L 1606 56 
L 191 3500 
L 800 3500 
L 1894 763 
L 2988 3500 
L 3597 3500 
L 2059 -325 
z
" transform="scale(0.015625)"/>
       <path id="DejaVuSans-70" d="M 1159 525 
L 1159 -1331 
L 581 -1331 
L 581 3500 
L 1159 3500 
L 1159 2969 
Q 1341 3281 1617 3432 
Q 1894 3584 2278 3584 
Q 2916 3584 3314 3078 
Q 3713 2572 3713 1747 
Q 3713 922 3314 415 
Q 2916 -91 2278 -91 
Q 1894 -91 1617 61 
Q 1341 213 1159 525 
z
M 3116 1747 
Q 3116 2381 2855 2742 
Q 2594 3103 2138 3103 
Q 1681 3103 1420 2742 
Q 1159 2381 1159 1747 
Q 1159 1113 1420 752 
Q 1681 391 2138 391 
Q 2594 391 2855 752 
Q 3116 1113 3116 1747 
z
" transform="scale(0.015625)"/>
       <path id="DejaVuSans-6f" d="M 1959 3097 
Q 1497 3097 1228 2736 
Q 959 2375 959 1747 
Q 959 1119 1226 758 
Q 1494 397 1959 397 
Q 2419 397 2687 759 
Q 2956 1122 2956 1747 
Q 2956 2369 2687 2733 
Q 2419 3097 1959 3097 
z
M 1959 3584 
Q 2709 3584 3137 3096 
Q 3566 2609 3566 1747 
Q 3566 888 3137 398 
Q 2709 -91 1959 -91 
Q 1206 -91 779 398 
Q 353 888 353 1747 
Q 353 2609 779 3096 
Q 1206 3584 1959 3584 
z
" transform="scale(0.015625)"/>
      </defs>
      <use xlink:href="#DejaVuSans-50"/>
      <use xlink:href="#DejaVuSans-72" x="58.552734"/>
      <use xlink:href="#DejaVuSans-65" x="97.416016"/>
      <use xlink:href="#DejaVuSans-64" x="158.939453"/>
      <use xlink:href="#DejaVuSans-69" x="222.416016"/>
      <use xlink:href="#DejaVuSans-63" x="250.199219"/>
      <use xlink:href="#DejaVuSans-74" x="305.179688"/>
      <use xlink:href="#DejaVuSans-65" x="344.388672"/>
      <use xlink:href="#DejaVuSans-64" x="405.912109"/>
      <use xlink:href="#DejaVuSans-20" x="469.388672"/>
      <use xlink:href="#DejaVuSans-73" x="501.175781"/>
      <use xlink:href="#DejaVuSans-65" x="553.275391"/>
      <use xlink:href="#DejaVuSans-6c" x="614.798828"/>
      <use xlink:href="#DejaVuSans-66" x="642.582031"/>
      <use xlink:href="#DejaVuSans-20" x="677.787109"/>
      <use xlink:href="#DejaVuSans-61" x="709.574219"/>
      <use xlink:href="#DejaVuSans-73" x="770.853516"/>
      <use xlink:href="#DejaVuSans-73" x="822.953125"/>
      <use xlink:href="#DejaVuSans-65" x="875.052734"/>
      <use xlink:href="#DejaVuSans-6d" x="936.576172"/>
      <use xlink:href="#DejaVuSans-62" x="1033.988281"/>
      <use xlink:href="#DejaVuSans-6c" x="1097.464844"/>
      <use xlink:href="#DejaVuSans-79" x="1125.248047"/>
      <use xlink:href="#DejaVuSans-20" x="1184.427734"/>
      <use xlink:href="#DejaVuSans-70" x="1216.214844"/>
      <use xlink:href="#DejaVuSans-72" x="1279.691406"/>
      <use xlink:href="#DejaVuSans-6f" x="1318.554688"/>
      <use xlink:href="#DejaVuSans-62" x="1379.736328"/>
      <use xlink:href="#DejaVuSans-61" x="1443.212891"/>
      <use xlink:href="#DejaVuSans-62" x="1504.492188"/>
      <use xlink:href="#DejaVuSans-69" x="1567.96875"/>
      <use xlink:href="#DejaVuSans-6c" x="1595.751953"/>
      <use xlink:href="#DejaVuSans-69" x="1623.535156"/>
      <use xlink:href="#DejaVuSans-74" x="1651.318359"/>
      <use xlink:href="#DejaVuSans-79" x="1690.527344"/>
     </g>
    </g>
   </g>
   <g id="matplotlib.axis_2">
    <g id="ytick_1">
     <g id="line2d_10">
      <defs>
       <path id="mb9fa72b6d3" d="M 0 0 
L -3.5 0 
" style="stroke: #000000; stroke-width: 0.8"/>
      </defs>
      <g>
       <use xlink:href="#mb9fa72b6d3" x="52.71875" y="249.32" style="stroke: #000000; stroke-width: 0.8"/>
      </g>
     </g>
     <g id="text_11">
      <!-- 0 -->
      <g transform="translate(38.08375 253.879062) scale(0.12 -0.12)">
       <use xlink:href="#DejaVuSans-30"/>
      </g>
     </g>
    </g>
    <g id="ytick_2">
     <g id="line2d_11">
      <g>
       <use xlink:href="#mb9fa72b6d3" x="52.71875" y="217.037333" style="stroke: #000000; stroke-width: 0.8"/>
      </g>
     </g>
     <g id="text_12">
      <!-- 100 -->
      <g transform="translate(22.81375 221.596396) scale(0.12 -0.12)">
       <use xlink:href="#DejaVuSans-31"/>
       <use xlink:href="#DejaVuSans-30" x="63.623047"/>
       <use xlink:href="#DejaVuSans-30" x="127.246094"/>
      </g>
     </g>
    </g>
    <g id="ytick_3">
     <g id="line2d_12">
      <g>
       <use xlink:href="#mb9fa72b6d3" x="52.71875" y="184.754667" style="stroke: #000000; stroke-width: 0.8"/>
      </g>
     </g>
     <g id="text_13">
      <!-- 200 -->
      <g transform="translate(22.81375 189.313729) scale(0.12 -0.12)">
       <defs>
        <path id="DejaVuSans-32" d="M 1228 531 
L 3431 531 
L 3431 0 
L 469 0 
L 469 531 
Q 828 903 1448 1529 
Q 2069 2156 2228 2338 
Q 2531 2678 2651 2914 
Q 2772 3150 2772 3378 
Q 2772 3750 2511 3984 
Q 2250 4219 1831 4219 
Q 1534 4219 1204 4116 
Q 875 4013 500 3803 
L 500 4441 
Q 881 4594 1212 4672 
Q 1544 4750 1819 4750 
Q 2544 4750 2975 4387 
Q 3406 4025 3406 3419 
Q 3406 3131 3298 2873 
Q 3191 2616 2906 2266 
Q 2828 2175 2409 1742 
Q 1991 1309 1228 531 
z
" transform="scale(0.015625)"/>
       </defs>
       <use xlink:href="#DejaVuSans-32"/>
       <use xlink:href="#DejaVuSans-30" x="63.623047"/>
       <use xlink:href="#DejaVuSans-30" x="127.246094"/>
      </g>
     </g>
    </g>
    <g id="ytick_4">
     <g id="line2d_13">
      <g>
       <use xlink:href="#mb9fa72b6d3" x="52.71875" y="152.472" style="stroke: #000000; stroke-width: 0.8"/>
      </g>
     </g>
     <g id="text_14">
      <!-- 300 -->
      <g transform="translate(22.81375 157.031062) scale(0.12 -0.12)">
       <defs>
        <path id="DejaVuSans-33" d="M 2597 2516 
Q 3050 2419 3304 2112 
Q 3559 1806 3559 1356 
Q 3559 666 3084 287 
Q 2609 -91 1734 -91 
Q 1441 -91 1130 -33 
Q 819 25 488 141 
L 488 750 
Q 750 597 1062 519 
Q 1375 441 1716 441 
Q 2309 441 2620 675 
Q 2931 909 2931 1356 
Q 2931 1769 2642 2001 
Q 2353 2234 1838 2234 
L 1294 2234 
L 1294 2753 
L 1863 2753 
Q 2328 2753 2575 2939 
Q 2822 3125 2822 3475 
Q 2822 3834 2567 4026 
Q 2313 4219 1838 4219 
Q 1578 4219 1281 4162 
Q 984 4106 628 3988 
L 628 4550 
Q 988 4650 1302 4700 
Q 1616 4750 1894 4750 
Q 2613 4750 3031 4423 
Q 3450 4097 3450 3541 
Q 3450 3153 3228 2886 
Q 3006 2619 2597 2516 
z
" transform="scale(0.015625)"/>
       </defs>
       <use xlink:href="#DejaVuSans-33"/>
       <use xlink:href="#DejaVuSans-30" x="63.623047"/>
       <use xlink:href="#DejaVuSans-30" x="127.246094"/>
      </g>
     </g>
    </g>
    <g id="ytick_5">
     <g id="line2d_14">
      <g>
       <use xlink:href="#mb9fa72b6d3" x="52.71875" y="120.189333" style="stroke: #000000; stroke-width: 0.8"/>
      </g>
     </g>
     <g id="text_15">
      <!-- 400 -->
      <g transform="translate(22.81375 124.748396) scale(0.12 -0.12)">
       <defs>
        <path id="DejaVuSans-34" d="M 2419 4116 
L 825 1625 
L 2419 1625 
L 2419 4116 
z
M 2253 4666 
L 3047 4666 
L 3047 1625 
L 3713 1625 
L 3713 1100 
L 3047 1100 
L 3047 0 
L 2419 0 
L 2419 1100 
L 313 1100 
L 313 1709 
L 2253 4666 
z
" transform="scale(0.015625)"/>
       </defs>
       <use xlink:href="#DejaVuSans-34"/>
       <use xlink:href="#DejaVuSans-30" x="63.623047"/>
       <use xlink:href="#DejaVuSans-30" x="127.246094"/>
      </g>
     </g>
    </g>
    <g id="ytick_6">
     <g id="line2d_15">
      <g>
       <use xlink:href="#mb9fa72b6d3" x="52.71875" y="87.906667" style="stroke: #000000; stroke-width: 0.8"/>
      </g>
     </g>
     <g id="text_16">
      <!-- 500 -->
      <g transform="translate(22.81375 92.465729) scale(0.12 -0.12)">
       <use xlink:href="#DejaVuSans-35"/>
       <use xlink:href="#DejaVuSans-30" x="63.623047"/>
       <use xlink:href="#DejaVuSans-30" x="127.246094"/>
      </g>
     </g>
    </g>
    <g id="ytick_7">
     <g id="line2d_16">
      <g>
       <use xlink:href="#mb9fa72b6d3" x="52.71875" y="55.624" style="stroke: #000000; stroke-width: 0.8"/>
      </g>
     </g>
     <g id="text_17">
      <!-- 600 -->
      <g transform="translate(22.81375 60.183062) scale(0.12 -0.12)">
       <defs>
        <path id="DejaVuSans-36" d="M 2113 2584 
Q 1688 2584 1439 2293 
Q 1191 2003 1191 1497 
Q 1191 994 1439 701 
Q 1688 409 2113 409 
Q 2538 409 2786 701 
Q 3034 994 3034 1497 
Q 3034 2003 2786 2293 
Q 2538 2584 2113 2584 
z
M 3366 4563 
L 3366 3988 
Q 3128 4100 2886 4159 
Q 2644 4219 2406 4219 
Q 1781 4219 1451 3797 
Q 1122 3375 1075 2522 
Q 1259 2794 1537 2939 
Q 1816 3084 2150 3084 
Q 2853 3084 3261 2657 
Q 3669 2231 3669 1497 
Q 3669 778 3244 343 
Q 2819 -91 2113 -91 
Q 1303 -91 875 529 
Q 447 1150 447 2328 
Q 447 3434 972 4092 
Q 1497 4750 2381 4750 
Q 2619 4750 2861 4703 
Q 3103 4656 3366 4563 
z
" transform="scale(0.015625)"/>
       </defs>
       <use xlink:href="#DejaVuSans-36"/>
       <use xlink:href="#DejaVuSans-30" x="63.623047"/>
       <use xlink:href="#DejaVuSans-30" x="127.246094"/>
      </g>
     </g>
    </g>
    <g id="ytick_8">
     <g id="line2d_17">
      <g>
       <use xlink:href="#mb9fa72b6d3" x="52.71875" y="23.341333" style="stroke: #000000; stroke-width: 0.8"/>
      </g>
     </g>
     <g id="text_18">
      <!-- 700 -->
      <g transform="translate(22.81375 27.900396) scale(0.12 -0.12)">
       <defs>
        <path id="DejaVuSans-37" d="M 525 4666 
L 3525 4666 
L 3525 4397 
L 1831 0 
L 1172 0 
L 2766 4134 
L 525 4134 
L 525 4666 
z
" transform="scale(0.015625)"/>
       </defs>
       <use xlink:href="#DejaVuSans-37"/>
       <use xlink:href="#DejaVuSans-30" x="63.623047"/>
       <use xlink:href="#DejaVuSans-30" x="127.246094"/>
      </g>
     </g>
    </g>
    <g id="text_19">
     <!-- Number of peptides -->
     <g transform="translate(16.318125 187.915937) rotate(-90) scale(0.12 -0.12)">
      <defs>
       <path id="DejaVuSans-4e" d="M 628 4666 
L 1478 4666 
L 3547 763 
L 3547 4666 
L 4159 4666 
L 4159 0 
L 3309 0 
L 1241 3903 
L 1241 0 
L 628 0 
L 628 4666 
z
" transform="scale(0.015625)"/>
       <path id="DejaVuSans-75" d="M 544 1381 
L 544 3500 
L 1119 3500 
L 1119 1403 
Q 1119 906 1312 657 
Q 1506 409 1894 409 
Q 2359 409 2629 706 
Q 2900 1003 2900 1516 
L 2900 3500 
L 3475 3500 
L 3475 0 
L 2900 0 
L 2900 538 
Q 2691 219 2414 64 
Q 2138 -91 1772 -91 
Q 1169 -91 856 284 
Q 544 659 544 1381 
z
M 1991 3584 
L 1991 3584 
z
" transform="scale(0.015625)"/>
      </defs>
      <use xlink:href="#DejaVuSans-4e"/>
      <use xlink:href="#DejaVuSans-75" x="74.804688"/>
      <use xlink:href="#DejaVuSans-6d" x="138.183594"/>
      <use xlink:href="#DejaVuSans-62" x="235.595703"/>
      <use xlink:href="#DejaVuSans-65" x="299.072266"/>
      <use xlink:href="#DejaVuSans-72" x="360.595703"/>
      <use xlink:href="#DejaVuSans-20" x="401.708984"/>
      <use xlink:href="#DejaVuSans-6f" x="433.496094"/>
      <use xlink:href="#DejaVuSans-66" x="494.677734"/>
      <use xlink:href="#DejaVuSans-20" x="529.882812"/>
      <use xlink:href="#DejaVuSans-70" x="561.669922"/>
      <use xlink:href="#DejaVuSans-65" x="625.146484"/>
      <use xlink:href="#DejaVuSans-70" x="686.669922"/>
      <use xlink:href="#DejaVuSans-74" x="750.146484"/>
      <use xlink:href="#DejaVuSans-69" x="789.355469"/>
      <use xlink:href="#DejaVuSans-64" x="817.138672"/>
      <use xlink:href="#DejaVuSans-65" x="880.615234"/>
      <use xlink:href="#DejaVuSans-73" x="942.138672"/>
     </g>
    </g>
   </g>
   <g id="line2d_18">
    <path d="M 221.702449 249.32 
L 1014.400704 249.265466 
L 1026.144381 249.064526 
L 1032.01622 248.808107 
L 1037.888059 248.345457 
L 1043.759898 247.556712 
L 1049.631737 246.286989 
L 1055.503576 244.358644 
L 1061.375415 241.598983 
L 1067.247254 237.883375 
L 1073.119093 233.187245 
L 1078.990932 227.633475 
L 1090.73461 215.295374 
L 1096.606448 209.525651 
L 1102.478287 204.77792 
L 1108.350126 201.525393 
L 1114.221965 200.053853 
L 1120.093804 200.412046 
L 1125.965643 202.416466 
L 1131.837482 205.705662 
L 1137.709321 209.824572 
L 1149.452999 218.777293 
L 1155.324838 222.929202 
L 1161.196677 226.597539 
L 1167.068516 229.713738 
L 1172.940355 232.28592 
L 1178.812193 234.369886 
L 1184.684032 236.043625 
L 1190.555871 237.38829 
L 1196.42771 238.476176 
L 1202.299549 239.364866 
L 1208.171388 240.096235 
L 1219.915066 241.191295 
L 1231.658744 241.899715 
L 1243.402422 242.31884 
L 1261.017938 242.607012 
L 1278.633455 242.622858 
L 1296.248972 242.328305 
L 1319.736328 241.577189 
L 1360.8392 240.129551 
L 1366.711039 240.192353 
L 1372.582878 240.456225 
L 1378.454717 240.947943 
L 1384.326556 241.663625 
L 1390.198395 242.566146 
L 1390.198395 242.566146 
" clip-path="url(#p38898cacfd)" style="fill: none; stroke: #ff120a; stroke-width: 1.5; stroke-linecap: square"/>
   </g>
   <g id="line2d_19">
    <path d="M 221.702449 249.32 
L 568.140945 249.266968 
L 579.884623 249.066475 
L 585.756462 248.808224 
L 591.628301 248.34016 
L 597.50014 247.540221 
L 603.371979 246.252024 
L 609.243818 244.299177 
L 615.115657 241.51587 
L 620.987496 237.792787 
L 626.859334 233.130223 
L 632.731173 227.683137 
L 644.474851 215.896227 
L 650.34669 210.591384 
L 656.218529 206.401648 
L 662.090368 203.735123 
L 667.962207 202.788976 
L 673.834046 203.517298 
L 679.705885 205.65715 
L 685.577724 208.801637 
L 691.449563 212.494957 
L 697.321402 216.32091 
L 703.19324 219.963285 
L 709.065079 223.229369 
L 714.936918 226.040634 
L 720.808757 228.402837 
L 726.680596 230.36978 
L 732.552435 232.011955 
L 738.424274 233.395951 
L 744.296113 234.575347 
L 750.167952 235.590336 
L 761.91163 237.247019 
L 773.655308 238.579809 
L 797.142663 240.893114 
L 808.886341 241.874592 
L 820.630019 242.566853 
L 832.373697 242.894862 
L 844.117375 242.917278 
L 867.60473 242.574945 
L 891.092086 242.078631 
L 920.451281 241.078778 
L 926.32312 241.096122 
L 932.194959 241.309769 
L 938.066797 241.749123 
L 943.938636 242.410816 
L 949.810475 243.256385 
L 973.297831 247.017168 
L 979.16967 247.717699 
L 985.041509 248.260219 
L 990.913348 248.654217 
L 1002.657026 249.09539 
L 1014.400704 249.258716 
L 1043.759898 249.319073 
L 1390.198395 249.32 
L 1390.198395 249.32 
" clip-path="url(#p38898cacfd)" style="fill: none; stroke: #ff120a; stroke-width: 1.5; stroke-linecap: square"/>
   </g>
   <g id="line2d_20">
    <path d="M 221.702449 229.412152 
L 233.446126 214.186902 
L 239.317965 207.404765 
L 245.189804 202.389451 
L 251.061643 199.632709 
L 256.933482 199.115442 
L 262.805321 200.362886 
L 268.67716 202.653854 
L 280.420838 207.87331 
L 292.164516 212.81898 
L 298.036355 215.659105 
L 303.908194 218.92469 
L 309.780032 222.42611 
L 315.651871 225.753218 
L 321.52371 228.468254 
L 327.395549 230.312876 
L 333.267388 231.315698 
L 339.139227 231.754878 
L 345.011066 232.012011 
L 350.882905 232.402164 
L 356.754744 233.064031 
L 368.498422 234.925159 
L 380.2421 236.662783 
L 397.857616 239.025455 
L 421.344972 242.619034 
L 433.08865 244.017746 
L 444.832328 245.076733 
L 456.576006 245.767678 
L 468.319683 246.096342 
L 480.063361 246.354671 
L 491.807039 246.865232 
L 509.422556 248.072767 
L 521.166234 248.779028 
L 532.909912 249.161065 
L 550.525428 249.308817 
L 644.474851 249.32 
L 1390.198395 249.32 
L 1390.198395 249.32 
" clip-path="url(#p38898cacfd)" style="fill: none; stroke: #ff120a; stroke-width: 1.5; stroke-linecap: square"/>
   </g>
   <g id="line2d_21">
    <path d="M 216.20625 243.186293 
L 245.93125 191.2112 
L 275.65625 208.64384 
L 305.38125 218.005813 
L 335.10625 233.501493 
L 364.83125 233.82432 
L 394.55625 238.021067 
L 424.28125 243.50912 
L 454.00625 246.091733 
L 483.73125 245.123253 
" clip-path="url(#p38898cacfd)" style="fill: none; stroke: #ff120a; stroke-width: 1.5; stroke-linecap: square"/>
   </g>
   <g id="line2d_22">
    <path d="M 662.08125 167.96768 
L 691.80625 220.911253 
L 721.53125 229.9504 
L 751.25625 237.375413 
L 780.98125 238.343893 
L 810.70625 243.186293 
L 840.43125 242.863467 
L 870.15625 242.54064 
L 899.88125 242.54064 
L 929.60625 235.438453 
" clip-path="url(#p38898cacfd)" style="fill: none; stroke: #ff120a; stroke-width: 1.5; stroke-linecap: square"/>
   </g>
   <g id="line2d_23">
    <path d="M 1107.95625 165.707893 
L 1137.68125 214.45472 
L 1167.40625 235.115627 
L 1197.13125 239.958027 
L 1226.85625 241.57216 
L 1256.58125 243.831947 
L 1286.30625 243.186293 
L 1316.03125 240.60368 
L 1345.75625 242.217813 
L 1375.48125 234.469973 
" clip-path="url(#p38898cacfd)" style="fill: none; stroke: #ff120a; stroke-width: 1.5; stroke-linecap: square"/>
   </g>
   <g id="patch_99">
    <path d="M 52.71875 249.32 
L 52.71875 7.2 
" style="fill: none; stroke: #000000; stroke-width: 0.8; stroke-linejoin: miter; stroke-linecap: square"/>
   </g>
   <g id="patch_100">
    <path d="M 52.71875 249.32 
L 1420.06875 249.32 
" style="fill: none; stroke: #000000; stroke-width: 0.8; stroke-linejoin: miter; stroke-linecap: square"/>
   </g>
   <g id="text_20">
    <!-- 19 -->
    <g style="fill: #ff120a" transform="translate(206.297917 233.501493) scale(0.12 -0.12)">
     <defs>
      <path id="DejaVuSans-39" d="M 703 97 
L 703 672 
Q 941 559 1184 500 
Q 1428 441 1663 441 
Q 2288 441 2617 861 
Q 2947 1281 2994 2138 
Q 2813 1869 2534 1725 
Q 2256 1581 1919 1581 
Q 1219 1581 811 2004 
Q 403 2428 403 3163 
Q 403 3881 828 4315 
Q 1253 4750 1959 4750 
Q 2769 4750 3195 4129 
Q 3622 3509 3622 2328 
Q 3622 1225 3098 567 
Q 2575 -91 1691 -91 
Q 1453 -91 1209 -44 
Q 966 3 703 97 
z
M 1959 2075 
Q 2384 2075 2632 2365 
Q 2881 2656 2881 3163 
Q 2881 3666 2632 3958 
Q 2384 4250 1959 4250 
Q 1534 4250 1286 3958 
Q 1038 3666 1038 3163 
Q 1038 2656 1286 2365 
Q 1534 2075 1959 2075 
z
" transform="scale(0.015625)"/>
     </defs>
     <use xlink:href="#DejaVuSans-31"/>
     <use xlink:href="#DejaVuSans-39" x="63.623047"/>
    </g>
   </g>
   <g id="text_21">
    <!-- 180 -->
    <g style="fill: #ff120a" transform="translate(234.784375 181.5264) scale(0.12 -0.12)">
     <defs>
      <path id="DejaVuSans-38" d="M 2034 2216 
Q 1584 2216 1326 1975 
Q 1069 1734 1069 1313 
Q 1069 891 1326 650 
Q 1584 409 2034 409 
Q 2484 409 2743 651 
Q 3003 894 3003 1313 
Q 3003 1734 2745 1975 
Q 2488 2216 2034 2216 
z
M 1403 2484 
Q 997 2584 770 2862 
Q 544 3141 544 3541 
Q 544 4100 942 4425 
Q 1341 4750 2034 4750 
Q 2731 4750 3128 4425 
Q 3525 4100 3525 3541 
Q 3525 3141 3298 2862 
Q 3072 2584 2669 2484 
Q 3125 2378 3379 2068 
Q 3634 1759 3634 1313 
Q 3634 634 3220 271 
Q 2806 -91 2034 -91 
Q 1263 -91 848 271 
Q 434 634 434 1313 
Q 434 1759 690 2068 
Q 947 2378 1403 2484 
z
M 1172 3481 
Q 1172 3119 1398 2916 
Q 1625 2713 2034 2713 
Q 2441 2713 2670 2916 
Q 2900 3119 2900 3481 
Q 2900 3844 2670 4047 
Q 2441 4250 2034 4250 
Q 1625 4250 1398 4047 
Q 1172 3844 1172 3481 
z
" transform="scale(0.015625)"/>
     </defs>
     <use xlink:href="#DejaVuSans-31"/>
     <use xlink:href="#DejaVuSans-38" x="63.623047"/>
     <use xlink:href="#DejaVuSans-30" x="127.246094"/>
    </g>
   </g>
   <g id="text_22">
    <!-- 126 -->
    <g style="fill: #ff120a" transform="translate(264.509375 194.923707) scale(0.12 -0.12)">
     <use xlink:href="#DejaVuSans-31"/>
     <use xlink:href="#DejaVuSans-32" x="63.623047"/>
     <use xlink:href="#DejaVuSans-36" x="127.246094"/>
    </g>
   </g>
   <g id="text_23">
    <!-- 97 -->
    <g style="fill: #ff120a" transform="translate(295.472917 208.321013) scale(0.12 -0.12)">
     <use xlink:href="#DejaVuSans-39"/>
     <use xlink:href="#DejaVuSans-37" x="63.623047"/>
    </g>
   </g>
   <g id="text_24">
    <!-- 49 -->
    <g style="fill: #ff120a" transform="translate(325.197917 216.230267) scale(0.12 -0.12)">
     <use xlink:href="#DejaVuSans-34"/>
     <use xlink:href="#DejaVuSans-39" x="63.623047"/>
    </g>
   </g>
   <g id="text_25">
    <!-- 48 -->
    <g style="fill: #ff120a" transform="translate(354.922917 224.13952) scale(0.12 -0.12)">
     <use xlink:href="#DejaVuSans-34"/>
     <use xlink:href="#DejaVuSans-38" x="63.623047"/>
    </g>
   </g>
   <g id="text_26">
    <!-- 35 -->
    <g style="fill: #ff120a" transform="translate(384.647917 228.336267) scale(0.12 -0.12)">
     <use xlink:href="#DejaVuSans-33"/>
     <use xlink:href="#DejaVuSans-35" x="63.623047"/>
    </g>
   </g>
   <g id="text_27">
    <!-- 18 -->
    <g style="fill: #ff120a" transform="translate(414.372917 232.3716) scale(0.12 -0.12)">
     <use xlink:href="#DejaVuSans-31"/>
     <use xlink:href="#DejaVuSans-38" x="63.623047"/>
    </g>
   </g>
   <g id="text_28">
    <!-- 10 -->
    <g style="fill: #ff120a" transform="translate(444.097917 234.631387) scale(0.12 -0.12)">
     <use xlink:href="#DejaVuSans-31"/>
     <use xlink:href="#DejaVuSans-30" x="63.623047"/>
    </g>
   </g>
   <g id="text_29">
    <!-- 13 -->
    <g style="fill: #ff120a" transform="translate(473.822917 235.438453) scale(0.12 -0.12)">
     <use xlink:href="#DejaVuSans-31"/>
     <use xlink:href="#DejaVuSans-33" x="63.623047"/>
    </g>
   </g>
   <g id="text_30">
    <!-- 252 -->
    <g style="fill: #ff120a" transform="translate(650.934375 158.28288) scale(0.12 -0.12)">
     <use xlink:href="#DejaVuSans-32"/>
     <use xlink:href="#DejaVuSans-35" x="63.623047"/>
     <use xlink:href="#DejaVuSans-32" x="127.246094"/>
    </g>
   </g>
   <g id="text_31">
    <!-- 88 -->
    <g style="fill: #ff120a" transform="translate(681.897917 189.27424) scale(0.12 -0.12)">
     <use xlink:href="#DejaVuSans-38"/>
     <use xlink:href="#DejaVuSans-38" x="63.623047"/>
    </g>
   </g>
   <g id="text_32">
    <!-- 60 -->
    <g style="fill: #ff120a" transform="translate(711.622917 219.458533) scale(0.12 -0.12)">
     <use xlink:href="#DejaVuSans-36"/>
     <use xlink:href="#DejaVuSans-30" x="63.623047"/>
    </g>
   </g>
   <g id="text_33">
    <!-- 37 -->
    <g style="fill: #ff120a" transform="translate(741.347917 224.462347) scale(0.12 -0.12)">
     <use xlink:href="#DejaVuSans-33"/>
     <use xlink:href="#DejaVuSans-37" x="63.623047"/>
    </g>
   </g>
   <g id="text_34">
    <!-- 34 -->
    <g style="fill: #ff120a" transform="translate(771.072917 228.659093) scale(0.12 -0.12)">
     <use xlink:href="#DejaVuSans-33"/>
     <use xlink:href="#DejaVuSans-34" x="63.623047"/>
    </g>
   </g>
   <g id="text_35">
    <!-- 19 -->
    <g style="fill: #ff120a" transform="translate(800.797917 230.91888) scale(0.12 -0.12)">
     <use xlink:href="#DejaVuSans-31"/>
     <use xlink:href="#DejaVuSans-39" x="63.623047"/>
    </g>
   </g>
   <g id="text_36">
    <!-- 20 -->
    <g style="fill: #ff120a" transform="translate(830.522917 233.178667) scale(0.12 -0.12)">
     <use xlink:href="#DejaVuSans-32"/>
     <use xlink:href="#DejaVuSans-30" x="63.623047"/>
    </g>
   </g>
   <g id="text_37">
    <!-- 21 -->
    <g style="fill: #ff120a" transform="translate(860.247917 232.85584) scale(0.12 -0.12)">
     <use xlink:href="#DejaVuSans-32"/>
     <use xlink:href="#DejaVuSans-31" x="63.623047"/>
    </g>
   </g>
   <g id="text_38">
    <!-- 21 -->
    <g style="fill: #ff120a" transform="translate(889.972917 229.304747) scale(0.12 -0.12)">
     <use xlink:href="#DejaVuSans-32"/>
     <use xlink:href="#DejaVuSans-31" x="63.623047"/>
    </g>
   </g>
   <g id="text_39">
    <!-- 43 -->
    <g style="fill: #ff120a" transform="translate(919.697917 225.753653) scale(0.12 -0.12)">
     <use xlink:href="#DejaVuSans-34"/>
     <use xlink:href="#DejaVuSans-33" x="63.623047"/>
    </g>
   </g>
   <g id="text_40">
    <!-- 259 -->
    <g style="fill: #ff120a" transform="translate(1096.809375 156.023093) scale(0.12 -0.12)">
     <use xlink:href="#DejaVuSans-32"/>
     <use xlink:href="#DejaVuSans-35" x="63.623047"/>
     <use xlink:href="#DejaVuSans-39" x="127.246094"/>
    </g>
   </g>
   <g id="text_41">
    <!-- 108 -->
    <g style="fill: #ff120a" transform="translate(1126.534375 190.72696) scale(0.12 -0.12)">
     <use xlink:href="#DejaVuSans-31"/>
     <use xlink:href="#DejaVuSans-30" x="63.623047"/>
     <use xlink:href="#DejaVuSans-38" x="127.246094"/>
    </g>
   </g>
   <g id="text_42">
    <!-- 44 -->
    <g style="fill: #ff120a" transform="translate(1157.497917 217.521573) scale(0.12 -0.12)">
     <use xlink:href="#DejaVuSans-34"/>
     <use xlink:href="#DejaVuSans-34" x="63.623047"/>
    </g>
   </g>
   <g id="text_43">
    <!-- 29 -->
    <g style="fill: #ff120a" transform="translate(1187.222917 228.659093) scale(0.12 -0.12)">
     <use xlink:href="#DejaVuSans-32"/>
     <use xlink:href="#DejaVuSans-39" x="63.623047"/>
    </g>
   </g>
   <g id="text_44">
    <!-- 24 -->
    <g style="fill: #ff120a" transform="translate(1216.947917 231.88736) scale(0.12 -0.12)">
     <use xlink:href="#DejaVuSans-32"/>
     <use xlink:href="#DejaVuSans-34" x="63.623047"/>
    </g>
   </g>
   <g id="text_45">
    <!-- 17 -->
    <g style="fill: #ff120a" transform="translate(1246.672917 232.694427) scale(0.12 -0.12)">
     <use xlink:href="#DejaVuSans-31"/>
     <use xlink:href="#DejaVuSans-37" x="63.623047"/>
    </g>
   </g>
   <g id="text_46">
    <!-- 19 -->
    <g style="fill: #ff120a" transform="translate(1276.397917 232.533013) scale(0.12 -0.12)">
     <use xlink:href="#DejaVuSans-31"/>
     <use xlink:href="#DejaVuSans-39" x="63.623047"/>
    </g>
   </g>
   <g id="text_47">
    <!-- 27 -->
    <g style="fill: #ff120a" transform="translate(1306.122917 230.91888) scale(0.12 -0.12)">
     <use xlink:href="#DejaVuSans-32"/>
     <use xlink:href="#DejaVuSans-37" x="63.623047"/>
    </g>
   </g>
   <g id="text_48">
    <!-- 22 -->
    <g style="fill: #ff120a" transform="translate(1335.847917 227.852027) scale(0.12 -0.12)">
     <use xlink:href="#DejaVuSans-32"/>
     <use xlink:href="#DejaVuSans-32" x="63.623047"/>
    </g>
   </g>
   <g id="text_49">
    <!-- 46 -->
    <g style="fill: #ff120a" transform="translate(1365.572917 224.785173) scale(0.12 -0.12)">
     <use xlink:href="#DejaVuSans-34"/>
     <use xlink:href="#DejaVuSans-36" x="63.623047"/>
    </g>
   </g>
  </g>
 </g>
 <defs>
  <clipPath id="p38898cacfd">
   <rect x="52.71875" y="7.2" width="1367.35" height="242.12"/>
  </clipPath>
 </defs>
</svg>
