<?xml version="1.0" encoding="utf-8" standalone="no"?>
<!DOCTYPE svg PUBLIC "-//W3C//DTD SVG 1.1//EN"
  "http://www.w3.org/Graphics/SVG/1.1/DTD/svg11.dtd">
<svg xmlns:xlink="http://www.w3.org/1999/xlink" width="495.789pt" height="93.184844pt" viewBox="0 0 495.789 93.184844" xmlns="http://www.w3.org/2000/svg" version="1.1">
 <metadata>
  <rdf:RDF xmlns:dc="http://purl.org/dc/elements/1.1/" xmlns:cc="http://creativecommons.org/ns#" xmlns:rdf="http://www.w3.org/1999/02/22-rdf-syntax-ns#">
   <cc:Work>
    <dc:type rdf:resource="http://purl.org/dc/dcmitype/StillImage"/>
    <dc:date>2024-09-30T08:28:28.559946</dc:date>
    <dc:format>image/svg+xml</dc:format>
    <dc:creator>
     <cc:Agent>
      <dc:title>Matplotlib v3.7.0, https://matplotlib.org/</dc:title>
     </cc:Agent>
    </dc:creator>
   </cc:Work>
  </rdf:RDF>
 </metadata>
 <defs>
  <style type="text/css">*{stroke-linejoin: round; stroke-linecap: butt}</style>
 </defs>
 <g id="figure_1">
  <g id="patch_1">
   <path d="M 0 93.184844 
L 495.789 93.184844 
L 495.789 0 
L 0 0 
z
" style="fill: #ffffff"/>
  </g>
  <g id="axes_1">
   <g id="patch_2">
    <path d="M 31.175 65.72 
L 488.589 65.72 
L 488.589 7.2 
L 31.175 7.2 
z
" style="fill: #ffffff"/>
   </g>
   <g id="patch_3">
    <path d="M 230.050652 65.72 
L 239.994435 65.72 
L 239.994435 65.72 
L 230.050652 65.72 
z
" clip-path="url(#pc0c084029e)" style="fill: #ff120a; fill-opacity: 0.5; stroke: #000000; stroke-linejoin: miter"/>
   </g>
   <g id="patch_4">
    <path d="M 239.994435 65.72 
L 249.938217 65.72 
L 249.938217 65.72 
L 239.994435 65.72 
z
" clip-path="url(#pc0c084029e)" style="fill: #ff120a; fill-opacity: 0.5; stroke: #000000; stroke-linejoin: miter"/>
   </g>
   <g id="patch_5">
    <path d="M 249.938217 65.72 
L 259.882 65.72 
L 259.882 65.72 
L 249.938217 65.72 
z
" clip-path="url(#pc0c084029e)" style="fill: #ff120a; fill-opacity: 0.5; stroke: #000000; stroke-linejoin: miter"/>
   </g>
   <g id="patch_6">
    <path d="M 259.882 65.72 
L 269.825783 65.72 
L 269.825783 65.72 
L 259.882 65.72 
z
" clip-path="url(#pc0c084029e)" style="fill: #ff120a; fill-opacity: 0.5; stroke: #000000; stroke-linejoin: miter"/>
   </g>
   <g id="patch_7">
    <path d="M 269.825783 65.72 
L 279.769565 65.72 
L 279.769565 65.72 
L 269.825783 65.72 
z
" clip-path="url(#pc0c084029e)" style="fill: #ff120a; fill-opacity: 0.5; stroke: #000000; stroke-linejoin: miter"/>
   </g>
   <g id="patch_8">
    <path d="M 279.769565 65.72 
L 289.713348 65.72 
L 289.713348 65.72 
L 279.769565 65.72 
z
" clip-path="url(#pc0c084029e)" style="fill: #ff120a; fill-opacity: 0.5; stroke: #000000; stroke-linejoin: miter"/>
   </g>
   <g id="patch_9">
    <path d="M 289.713348 65.72 
L 299.65713 65.72 
L 299.65713 65.72 
L 289.713348 65.72 
z
" clip-path="url(#pc0c084029e)" style="fill: #ff120a; fill-opacity: 0.5; stroke: #000000; stroke-linejoin: miter"/>
   </g>
   <g id="patch_10">
    <path d="M 299.65713 65.72 
L 309.600913 65.72 
L 309.600913 65.72 
L 299.65713 65.72 
z
" clip-path="url(#pc0c084029e)" style="fill: #ff120a; fill-opacity: 0.5; stroke: #000000; stroke-linejoin: miter"/>
   </g>
   <g id="patch_11">
    <path d="M 309.600913 65.72 
L 319.544696 65.72 
L 319.544696 65.72 
L 309.600913 65.72 
z
" clip-path="url(#pc0c084029e)" style="fill: #ff120a; fill-opacity: 0.5; stroke: #000000; stroke-linejoin: miter"/>
   </g>
   <g id="patch_12">
    <path d="M 319.544696 65.72 
L 329.488478 65.72 
L 329.488478 65.72 
L 319.544696 65.72 
z
" clip-path="url(#pc0c084029e)" style="fill: #ff120a; fill-opacity: 0.5; stroke: #000000; stroke-linejoin: miter"/>
   </g>
   <g id="patch_13">
    <path d="M 329.488478 65.72 
L 379.207391 65.72 
L 379.207391 65.72 
L 329.488478 65.72 
z
" clip-path="url(#pc0c084029e)" style="fill: #ff120a; fill-opacity: 0.5; stroke: #000000; stroke-linejoin: miter"/>
   </g>
   <g id="patch_14">
    <path d="M 379.207391 65.72 
L 389.151174 65.72 
L 389.151174 56.82496 
L 379.207391 56.82496 
z
" clip-path="url(#pc0c084029e)" style="fill: #ff120a; fill-opacity: 0.5; stroke: #000000; stroke-linejoin: miter"/>
   </g>
   <g id="patch_15">
    <path d="M 389.151174 65.72 
L 399.094957 65.72 
L 399.094957 53.391787 
L 389.151174 53.391787 
z
" clip-path="url(#pc0c084029e)" style="fill: #ff120a; fill-opacity: 0.5; stroke: #000000; stroke-linejoin: miter"/>
   </g>
   <g id="patch_16">
    <path d="M 399.094957 65.72 
L 409.038739 65.72 
L 409.038739 59.477867 
L 399.094957 59.477867 
z
" clip-path="url(#pc0c084029e)" style="fill: #ff120a; fill-opacity: 0.5; stroke: #000000; stroke-linejoin: miter"/>
   </g>
   <g id="patch_17">
    <path d="M 409.038739 65.72 
L 418.982522 65.72 
L 418.982522 60.492213 
L 409.038739 60.492213 
z
" clip-path="url(#pc0c084029e)" style="fill: #ff120a; fill-opacity: 0.5; stroke: #000000; stroke-linejoin: miter"/>
   </g>
   <g id="patch_18">
    <path d="M 418.982522 65.72 
L 428.926304 65.72 
L 428.926304 61.97472 
L 418.982522 61.97472 
z
" clip-path="url(#pc0c084029e)" style="fill: #ff120a; fill-opacity: 0.5; stroke: #000000; stroke-linejoin: miter"/>
   </g>
   <g id="patch_19">
    <path d="M 428.926304 65.72 
L 438.870087 65.72 
L 438.870087 62.989067 
L 428.926304 62.989067 
z
" clip-path="url(#pc0c084029e)" style="fill: #ff120a; fill-opacity: 0.5; stroke: #000000; stroke-linejoin: miter"/>
   </g>
   <g id="patch_20">
    <path d="M 438.870087 65.72 
L 448.81387 65.72 
L 448.81387 62.989067 
L 438.870087 62.989067 
z
" clip-path="url(#pc0c084029e)" style="fill: #ff120a; fill-opacity: 0.5; stroke: #000000; stroke-linejoin: miter"/>
   </g>
   <g id="patch_21">
    <path d="M 448.81387 65.72 
L 458.757652 65.72 
L 458.757652 64.08144 
L 448.81387 64.08144 
z
" clip-path="url(#pc0c084029e)" style="fill: #ff120a; fill-opacity: 0.5; stroke: #000000; stroke-linejoin: miter"/>
   </g>
   <g id="patch_22">
    <path d="M 458.757652 65.72 
L 468.701435 65.72 
L 468.701435 64.627627 
L 458.757652 64.627627 
z
" clip-path="url(#pc0c084029e)" style="fill: #ff120a; fill-opacity: 0.5; stroke: #000000; stroke-linejoin: miter"/>
   </g>
   <g id="patch_23">
    <path d="M 468.701435 65.72 
L 478.645217 65.72 
L 478.645217 63.925387 
L 468.701435 63.925387 
z
" clip-path="url(#pc0c084029e)" style="fill: #ff120a; fill-opacity: 0.5; stroke: #000000; stroke-linejoin: miter"/>
   </g>
   <g id="patch_24">
    <path d="M 230.050652 65.72 
L 239.994435 65.72 
L 239.994435 65.72 
L 230.050652 65.72 
z
" clip-path="url(#pc0c084029e)" style="fill: #ff120a; fill-opacity: 0.5; stroke: #000000; stroke-linejoin: miter"/>
   </g>
   <g id="patch_25">
    <path d="M 239.994435 65.72 
L 249.938217 65.72 
L 249.938217 63.535253 
L 239.994435 63.535253 
z
" clip-path="url(#pc0c084029e)" style="fill: #ff120a; fill-opacity: 0.5; stroke: #000000; stroke-linejoin: miter"/>
   </g>
   <g id="patch_26">
    <path d="M 249.938217 65.72 
L 259.882 65.72 
L 259.882 50.73888 
L 249.938217 50.73888 
z
" clip-path="url(#pc0c084029e)" style="fill: #ff120a; fill-opacity: 0.5; stroke: #000000; stroke-linejoin: miter"/>
   </g>
   <g id="patch_27">
    <path d="M 259.882 65.72 
L 269.825783 65.72 
L 269.825783 49.724533 
L 259.882 49.724533 
z
" clip-path="url(#pc0c084029e)" style="fill: #ff120a; fill-opacity: 0.5; stroke: #000000; stroke-linejoin: miter"/>
   </g>
   <g id="patch_28">
    <path d="M 269.825783 65.72 
L 279.769565 65.72 
L 279.769565 59.009707 
L 269.825783 59.009707 
z
" clip-path="url(#pc0c084029e)" style="fill: #ff120a; fill-opacity: 0.5; stroke: #000000; stroke-linejoin: miter"/>
   </g>
   <g id="patch_29">
    <path d="M 279.769565 65.72 
L 289.713348 65.72 
L 289.713348 63.223147 
L 279.769565 63.223147 
z
" clip-path="url(#pc0c084029e)" style="fill: #ff120a; fill-opacity: 0.5; stroke: #000000; stroke-linejoin: miter"/>
   </g>
   <g id="patch_30">
    <path d="M 289.713348 65.72 
L 299.65713 65.72 
L 299.65713 64.627627 
L 289.713348 64.627627 
z
" clip-path="url(#pc0c084029e)" style="fill: #ff120a; fill-opacity: 0.5; stroke: #000000; stroke-linejoin: miter"/>
   </g>
   <g id="patch_31">
    <path d="M 299.65713 65.72 
L 309.600913 65.72 
L 309.600913 64.861707 
L 299.65713 64.861707 
z
" clip-path="url(#pc0c084029e)" style="fill: #ff120a; fill-opacity: 0.5; stroke: #000000; stroke-linejoin: miter"/>
   </g>
   <g id="patch_32">
    <path d="M 309.600913 65.72 
L 319.544696 65.72 
L 319.544696 64.861707 
L 309.600913 64.861707 
z
" clip-path="url(#pc0c084029e)" style="fill: #ff120a; fill-opacity: 0.5; stroke: #000000; stroke-linejoin: miter"/>
   </g>
   <g id="patch_33">
    <path d="M 319.544696 65.72 
L 329.488478 65.72 
L 329.488478 64.471573 
L 319.544696 64.471573 
z
" clip-path="url(#pc0c084029e)" style="fill: #ff120a; fill-opacity: 0.5; stroke: #000000; stroke-linejoin: miter"/>
   </g>
   <g id="patch_34">
    <path d="M 329.488478 65.72 
L 379.207391 65.72 
L 379.207391 65.72 
L 329.488478 65.72 
z
" clip-path="url(#pc0c084029e)" style="fill: #ff120a; fill-opacity: 0.5; stroke: #000000; stroke-linejoin: miter"/>
   </g>
   <g id="patch_35">
    <path d="M 379.207391 65.72 
L 389.151174 65.72 
L 389.151174 65.72 
L 379.207391 65.72 
z
" clip-path="url(#pc0c084029e)" style="fill: #ff120a; fill-opacity: 0.5; stroke: #000000; stroke-linejoin: miter"/>
   </g>
   <g id="patch_36">
    <path d="M 389.151174 65.72 
L 399.094957 65.72 
L 399.094957 65.72 
L 389.151174 65.72 
z
" clip-path="url(#pc0c084029e)" style="fill: #ff120a; fill-opacity: 0.5; stroke: #000000; stroke-linejoin: miter"/>
   </g>
   <g id="patch_37">
    <path d="M 399.094957 65.72 
L 409.038739 65.72 
L 409.038739 65.72 
L 399.094957 65.72 
z
" clip-path="url(#pc0c084029e)" style="fill: #ff120a; fill-opacity: 0.5; stroke: #000000; stroke-linejoin: miter"/>
   </g>
   <g id="patch_38">
    <path d="M 409.038739 65.72 
L 418.982522 65.72 
L 418.982522 65.72 
L 409.038739 65.72 
z
" clip-path="url(#pc0c084029e)" style="fill: #ff120a; fill-opacity: 0.5; stroke: #000000; stroke-linejoin: miter"/>
   </g>
   <g id="patch_39">
    <path d="M 418.982522 65.72 
L 428.926304 65.72 
L 428.926304 65.72 
L 418.982522 65.72 
z
" clip-path="url(#pc0c084029e)" style="fill: #ff120a; fill-opacity: 0.5; stroke: #000000; stroke-linejoin: miter"/>
   </g>
   <g id="patch_40">
    <path d="M 428.926304 65.72 
L 438.870087 65.72 
L 438.870087 65.72 
L 428.926304 65.72 
z
" clip-path="url(#pc0c084029e)" style="fill: #ff120a; fill-opacity: 0.5; stroke: #000000; stroke-linejoin: miter"/>
   </g>
   <g id="patch_41">
    <path d="M 438.870087 65.72 
L 448.81387 65.72 
L 448.81387 65.72 
L 438.870087 65.72 
z
" clip-path="url(#pc0c084029e)" style="fill: #ff120a; fill-opacity: 0.5; stroke: #000000; stroke-linejoin: miter"/>
   </g>
   <g id="patch_42">
    <path d="M 448.81387 65.72 
L 458.757652 65.72 
L 458.757652 65.72 
L 448.81387 65.72 
z
" clip-path="url(#pc0c084029e)" style="fill: #ff120a; fill-opacity: 0.5; stroke: #000000; stroke-linejoin: miter"/>
   </g>
   <g id="patch_43">
    <path d="M 458.757652 65.72 
L 468.701435 65.72 
L 468.701435 65.72 
L 458.757652 65.72 
z
" clip-path="url(#pc0c084029e)" style="fill: #ff120a; fill-opacity: 0.5; stroke: #000000; stroke-linejoin: miter"/>
   </g>
   <g id="patch_44">
    <path d="M 468.701435 65.72 
L 478.645217 65.72 
L 478.645217 65.72 
L 468.701435 65.72 
z
" clip-path="url(#pc0c084029e)" style="fill: #ff120a; fill-opacity: 0.5; stroke: #000000; stroke-linejoin: miter"/>
   </g>
   <g id="patch_45">
    <path d="M 230.050652 65.72 
L 239.994435 65.72 
L 239.994435 65.72 
L 230.050652 65.72 
z
" clip-path="url(#pc0c084029e)" style="fill: #2e85ff; fill-opacity: 0.5; stroke: #000000; stroke-linejoin: miter"/>
   </g>
   <g id="patch_46">
    <path d="M 239.994435 65.72 
L 249.938217 65.72 
L 249.938217 65.72 
L 239.994435 65.72 
z
" clip-path="url(#pc0c084029e)" style="fill: #2e85ff; fill-opacity: 0.5; stroke: #000000; stroke-linejoin: miter"/>
   </g>
   <g id="patch_47">
    <path d="M 249.938217 65.72 
L 259.882 65.72 
L 259.882 65.72 
L 249.938217 65.72 
z
" clip-path="url(#pc0c084029e)" style="fill: #2e85ff; fill-opacity: 0.5; stroke: #000000; stroke-linejoin: miter"/>
   </g>
   <g id="patch_48">
    <path d="M 259.882 65.72 
L 269.825783 65.72 
L 269.825783 65.72 
L 259.882 65.72 
z
" clip-path="url(#pc0c084029e)" style="fill: #2e85ff; fill-opacity: 0.5; stroke: #000000; stroke-linejoin: miter"/>
   </g>
   <g id="patch_49">
    <path d="M 269.825783 65.72 
L 279.769565 65.72 
L 279.769565 65.72 
L 269.825783 65.72 
z
" clip-path="url(#pc0c084029e)" style="fill: #2e85ff; fill-opacity: 0.5; stroke: #000000; stroke-linejoin: miter"/>
   </g>
   <g id="patch_50">
    <path d="M 279.769565 65.72 
L 289.713348 65.72 
L 289.713348 65.72 
L 279.769565 65.72 
z
" clip-path="url(#pc0c084029e)" style="fill: #2e85ff; fill-opacity: 0.5; stroke: #000000; stroke-linejoin: miter"/>
   </g>
   <g id="patch_51">
    <path d="M 289.713348 65.72 
L 299.65713 65.72 
L 299.65713 65.72 
L 289.713348 65.72 
z
" clip-path="url(#pc0c084029e)" style="fill: #2e85ff; fill-opacity: 0.5; stroke: #000000; stroke-linejoin: miter"/>
   </g>
   <g id="patch_52">
    <path d="M 299.65713 65.72 
L 309.600913 65.72 
L 309.600913 65.72 
L 299.65713 65.72 
z
" clip-path="url(#pc0c084029e)" style="fill: #2e85ff; fill-opacity: 0.5; stroke: #000000; stroke-linejoin: miter"/>
   </g>
   <g id="patch_53">
    <path d="M 309.600913 65.72 
L 319.544696 65.72 
L 319.544696 65.72 
L 309.600913 65.72 
z
" clip-path="url(#pc0c084029e)" style="fill: #2e85ff; fill-opacity: 0.5; stroke: #000000; stroke-linejoin: miter"/>
   </g>
   <g id="patch_54">
    <path d="M 319.544696 65.72 
L 329.488478 65.72 
L 329.488478 65.72 
L 319.544696 65.72 
z
" clip-path="url(#pc0c084029e)" style="fill: #2e85ff; fill-opacity: 0.5; stroke: #000000; stroke-linejoin: miter"/>
   </g>
   <g id="patch_55">
    <path d="M 329.488478 65.72 
L 379.207391 65.72 
L 379.207391 65.72 
L 329.488478 65.72 
z
" clip-path="url(#pc0c084029e)" style="fill: #2e85ff; fill-opacity: 0.5; stroke: #000000; stroke-linejoin: miter"/>
   </g>
   <g id="patch_56">
    <path d="M 379.207391 65.72 
L 389.151174 65.72 
L 389.151174 63.925387 
L 379.207391 63.925387 
z
" clip-path="url(#pc0c084029e)" style="fill: #2e85ff; fill-opacity: 0.5; stroke: #000000; stroke-linejoin: miter"/>
   </g>
   <g id="patch_57">
    <path d="M 389.151174 65.72 
L 399.094957 65.72 
L 399.094957 60.258133 
L 389.151174 60.258133 
z
" clip-path="url(#pc0c084029e)" style="fill: #2e85ff; fill-opacity: 0.5; stroke: #000000; stroke-linejoin: miter"/>
   </g>
   <g id="patch_58">
    <path d="M 399.094957 65.72 
L 409.038739 65.72 
L 409.038739 59.243787 
L 399.094957 59.243787 
z
" clip-path="url(#pc0c084029e)" style="fill: #2e85ff; fill-opacity: 0.5; stroke: #000000; stroke-linejoin: miter"/>
   </g>
   <g id="patch_59">
    <path d="M 409.038739 65.72 
L 418.982522 65.72 
L 418.982522 59.789973 
L 409.038739 59.789973 
z
" clip-path="url(#pc0c084029e)" style="fill: #2e85ff; fill-opacity: 0.5; stroke: #000000; stroke-linejoin: miter"/>
   </g>
   <g id="patch_60">
    <path d="M 418.982522 65.72 
L 428.926304 65.72 
L 428.926304 59.711947 
L 418.982522 59.711947 
z
" clip-path="url(#pc0c084029e)" style="fill: #2e85ff; fill-opacity: 0.5; stroke: #000000; stroke-linejoin: miter"/>
   </g>
   <g id="patch_61">
    <path d="M 428.926304 65.72 
L 438.870087 65.72 
L 438.870087 59.555893 
L 428.926304 59.555893 
z
" clip-path="url(#pc0c084029e)" style="fill: #2e85ff; fill-opacity: 0.5; stroke: #000000; stroke-linejoin: miter"/>
   </g>
   <g id="patch_62">
    <path d="M 438.870087 65.72 
L 448.81387 65.72 
L 448.81387 58.46352 
L 438.870087 58.46352 
z
" clip-path="url(#pc0c084029e)" style="fill: #2e85ff; fill-opacity: 0.5; stroke: #000000; stroke-linejoin: miter"/>
   </g>
   <g id="patch_63">
    <path d="M 448.81387 65.72 
L 458.757652 65.72 
L 458.757652 57.605227 
L 448.81387 57.605227 
z
" clip-path="url(#pc0c084029e)" style="fill: #2e85ff; fill-opacity: 0.5; stroke: #000000; stroke-linejoin: miter"/>
   </g>
   <g id="patch_64">
    <path d="M 458.757652 65.72 
L 468.701435 65.72 
L 468.701435 54.406133 
L 458.757652 54.406133 
z
" clip-path="url(#pc0c084029e)" style="fill: #2e85ff; fill-opacity: 0.5; stroke: #000000; stroke-linejoin: miter"/>
   </g>
   <g id="patch_65">
    <path d="M 468.701435 65.72 
L 478.645217 65.72 
L 478.645217 27.0968 
L 468.701435 27.0968 
z
" clip-path="url(#pc0c084029e)" style="fill: #2e85ff; fill-opacity: 0.5; stroke: #000000; stroke-linejoin: miter"/>
   </g>
   <g id="patch_66">
    <path d="M 230.050652 65.72 
L 239.994435 65.72 
L 239.994435 65.72 
L 230.050652 65.72 
z
" clip-path="url(#pc0c084029e)" style="fill: #2e85ff; fill-opacity: 0.5; stroke: #000000; stroke-linejoin: miter"/>
   </g>
   <g id="patch_67">
    <path d="M 239.994435 65.72 
L 249.938217 65.72 
L 249.938217 64.627627 
L 239.994435 64.627627 
z
" clip-path="url(#pc0c084029e)" style="fill: #2e85ff; fill-opacity: 0.5; stroke: #000000; stroke-linejoin: miter"/>
   </g>
   <g id="patch_68">
    <path d="M 249.938217 65.72 
L 259.882 65.72 
L 259.882 53.78192 
L 249.938217 53.78192 
z
" clip-path="url(#pc0c084029e)" style="fill: #2e85ff; fill-opacity: 0.5; stroke: #000000; stroke-linejoin: miter"/>
   </g>
   <g id="patch_69">
    <path d="M 259.882 65.72 
L 269.825783 65.72 
L 269.825783 47.305707 
L 259.882 47.305707 
z
" clip-path="url(#pc0c084029e)" style="fill: #2e85ff; fill-opacity: 0.5; stroke: #000000; stroke-linejoin: miter"/>
   </g>
   <g id="patch_70">
    <path d="M 269.825783 65.72 
L 279.769565 65.72 
L 279.769565 57.99536 
L 269.825783 57.99536 
z
" clip-path="url(#pc0c084029e)" style="fill: #2e85ff; fill-opacity: 0.5; stroke: #000000; stroke-linejoin: miter"/>
   </g>
   <g id="patch_71">
    <path d="M 279.769565 65.72 
L 289.713348 65.72 
L 289.713348 58.619573 
L 279.769565 58.619573 
z
" clip-path="url(#pc0c084029e)" style="fill: #2e85ff; fill-opacity: 0.5; stroke: #000000; stroke-linejoin: miter"/>
   </g>
   <g id="patch_72">
    <path d="M 289.713348 65.72 
L 299.65713 65.72 
L 299.65713 61.116427 
L 289.713348 61.116427 
z
" clip-path="url(#pc0c084029e)" style="fill: #2e85ff; fill-opacity: 0.5; stroke: #000000; stroke-linejoin: miter"/>
   </g>
   <g id="patch_73">
    <path d="M 299.65713 65.72 
L 309.600913 65.72 
L 309.600913 59.711947 
L 299.65713 59.711947 
z
" clip-path="url(#pc0c084029e)" style="fill: #2e85ff; fill-opacity: 0.5; stroke: #000000; stroke-linejoin: miter"/>
   </g>
   <g id="patch_74">
    <path d="M 309.600913 65.72 
L 319.544696 65.72 
L 319.544696 58.775627 
L 309.600913 58.775627 
z
" clip-path="url(#pc0c084029e)" style="fill: #2e85ff; fill-opacity: 0.5; stroke: #000000; stroke-linejoin: miter"/>
   </g>
   <g id="patch_75">
    <path d="M 319.544696 65.72 
L 329.488478 65.72 
L 329.488478 32.402613 
L 319.544696 32.402613 
z
" clip-path="url(#pc0c084029e)" style="fill: #2e85ff; fill-opacity: 0.5; stroke: #000000; stroke-linejoin: miter"/>
   </g>
   <g id="patch_76">
    <path d="M 329.488478 65.72 
L 379.207391 65.72 
L 379.207391 65.72 
L 329.488478 65.72 
z
" clip-path="url(#pc0c084029e)" style="fill: #2e85ff; fill-opacity: 0.5; stroke: #000000; stroke-linejoin: miter"/>
   </g>
   <g id="patch_77">
    <path d="M 379.207391 65.72 
L 389.151174 65.72 
L 389.151174 65.72 
L 379.207391 65.72 
z
" clip-path="url(#pc0c084029e)" style="fill: #2e85ff; fill-opacity: 0.5; stroke: #000000; stroke-linejoin: miter"/>
   </g>
   <g id="patch_78">
    <path d="M 389.151174 65.72 
L 399.094957 65.72 
L 399.094957 65.72 
L 389.151174 65.72 
z
" clip-path="url(#pc0c084029e)" style="fill: #2e85ff; fill-opacity: 0.5; stroke: #000000; stroke-linejoin: miter"/>
   </g>
   <g id="patch_79">
    <path d="M 399.094957 65.72 
L 409.038739 65.72 
L 409.038739 65.72 
L 399.094957 65.72 
z
" clip-path="url(#pc0c084029e)" style="fill: #2e85ff; fill-opacity: 0.5; stroke: #000000; stroke-linejoin: miter"/>
   </g>
   <g id="patch_80">
    <path d="M 409.038739 65.72 
L 418.982522 65.72 
L 418.982522 65.72 
L 409.038739 65.72 
z
" clip-path="url(#pc0c084029e)" style="fill: #2e85ff; fill-opacity: 0.5; stroke: #000000; stroke-linejoin: miter"/>
   </g>
   <g id="patch_81">
    <path d="M 418.982522 65.72 
L 428.926304 65.72 
L 428.926304 65.72 
L 418.982522 65.72 
z
" clip-path="url(#pc0c084029e)" style="fill: #2e85ff; fill-opacity: 0.5; stroke: #000000; stroke-linejoin: miter"/>
   </g>
   <g id="patch_82">
    <path d="M 428.926304 65.72 
L 438.870087 65.72 
L 438.870087 65.72 
L 428.926304 65.72 
z
" clip-path="url(#pc0c084029e)" style="fill: #2e85ff; fill-opacity: 0.5; stroke: #000000; stroke-linejoin: miter"/>
   </g>
   <g id="patch_83">
    <path d="M 438.870087 65.72 
L 448.81387 65.72 
L 448.81387 65.72 
L 438.870087 65.72 
z
" clip-path="url(#pc0c084029e)" style="fill: #2e85ff; fill-opacity: 0.5; stroke: #000000; stroke-linejoin: miter"/>
   </g>
   <g id="patch_84">
    <path d="M 448.81387 65.72 
L 458.757652 65.72 
L 458.757652 65.72 
L 448.81387 65.72 
z
" clip-path="url(#pc0c084029e)" style="fill: #2e85ff; fill-opacity: 0.5; stroke: #000000; stroke-linejoin: miter"/>
   </g>
   <g id="patch_85">
    <path d="M 458.757652 65.72 
L 468.701435 65.72 
L 468.701435 65.72 
L 458.757652 65.72 
z
" clip-path="url(#pc0c084029e)" style="fill: #2e85ff; fill-opacity: 0.5; stroke: #000000; stroke-linejoin: miter"/>
   </g>
   <g id="patch_86">
    <path d="M 468.701435 65.72 
L 478.645217 65.72 
L 478.645217 65.72 
L 468.701435 65.72 
z
" clip-path="url(#pc0c084029e)" style="fill: #2e85ff; fill-opacity: 0.5; stroke: #000000; stroke-linejoin: miter"/>
   </g>
   <g id="PathCollection_1">
    <defs>
     <path id="m784e912159" d="M 0 0.707107 
C 0.187527 0.707107 0.367398 0.632602 0.5 0.5 
C 0.632602 0.367398 0.707107 0.187527 0.707107 0 
C 0.707107 -0.187527 0.632602 -0.367398 0.5 -0.5 
C 0.367398 -0.632602 0.187527 -0.707107 0 -0.707107 
C -0.187527 -0.707107 -0.367398 -0.632602 -0.5 -0.5 
C -0.632602 -0.367398 -0.707107 -0.187527 -0.707107 0 
C -0.707107 0.187527 -0.632602 0.367398 -0.5 0.5 
C -0.367398 0.632602 -0.187527 0.707107 0 0.707107 
z
" style="stroke: #2e85ff"/>
    </defs>
    <g clip-path="url(#pc0c084029e)">
     <use xlink:href="#m784e912159" x="235.022543" y="65.72" style="fill: #2e85ff; stroke: #2e85ff"/>
     <use xlink:href="#m784e912159" x="244.966326" y="64.627627" style="fill: #2e85ff; stroke: #2e85ff"/>
     <use xlink:href="#m784e912159" x="254.910109" y="53.78192" style="fill: #2e85ff; stroke: #2e85ff"/>
     <use xlink:href="#m784e912159" x="264.853891" y="47.305707" style="fill: #2e85ff; stroke: #2e85ff"/>
     <use xlink:href="#m784e912159" x="274.797674" y="57.99536" style="fill: #2e85ff; stroke: #2e85ff"/>
     <use xlink:href="#m784e912159" x="284.741457" y="58.619573" style="fill: #2e85ff; stroke: #2e85ff"/>
     <use xlink:href="#m784e912159" x="294.685239" y="61.116427" style="fill: #2e85ff; stroke: #2e85ff"/>
     <use xlink:href="#m784e912159" x="304.629022" y="59.711947" style="fill: #2e85ff; stroke: #2e85ff"/>
     <use xlink:href="#m784e912159" x="314.572804" y="58.775627" style="fill: #2e85ff; stroke: #2e85ff"/>
     <use xlink:href="#m784e912159" x="324.516587" y="32.402613" style="fill: #2e85ff; stroke: #2e85ff"/>
    </g>
   </g>
   <g id="PathCollection_2">
    <defs>
     <path id="mf1ab9c3c39" d="M 0 0.707107 
C 0.187527 0.707107 0.367398 0.632602 0.5 0.5 
C 0.632602 0.367398 0.707107 0.187527 0.707107 0 
C 0.707107 -0.187527 0.632602 -0.367398 0.5 -0.5 
C 0.367398 -0.632602 0.187527 -0.707107 0 -0.707107 
C -0.187527 -0.707107 -0.367398 -0.632602 -0.5 -0.5 
C -0.632602 -0.367398 -0.707107 -0.187527 -0.707107 0 
C -0.707107 0.187527 -0.632602 0.367398 -0.5 0.5 
C -0.367398 0.632602 -0.187527 0.707107 0 0.707107 
z
" style="stroke: #ff120a"/>
    </defs>
    <g clip-path="url(#pc0c084029e)">
     <use xlink:href="#mf1ab9c3c39" x="235.022543" y="65.72" style="fill: #ff120a; stroke: #ff120a"/>
     <use xlink:href="#mf1ab9c3c39" x="244.966326" y="63.535253" style="fill: #ff120a; stroke: #ff120a"/>
     <use xlink:href="#mf1ab9c3c39" x="254.910109" y="50.73888" style="fill: #ff120a; stroke: #ff120a"/>
     <use xlink:href="#mf1ab9c3c39" x="264.853891" y="49.724533" style="fill: #ff120a; stroke: #ff120a"/>
     <use xlink:href="#mf1ab9c3c39" x="274.797674" y="59.009707" style="fill: #ff120a; stroke: #ff120a"/>
     <use xlink:href="#mf1ab9c3c39" x="284.741457" y="63.223147" style="fill: #ff120a; stroke: #ff120a"/>
     <use xlink:href="#mf1ab9c3c39" x="294.685239" y="64.627627" style="fill: #ff120a; stroke: #ff120a"/>
     <use xlink:href="#mf1ab9c3c39" x="304.629022" y="64.861707" style="fill: #ff120a; stroke: #ff120a"/>
     <use xlink:href="#mf1ab9c3c39" x="314.572804" y="64.861707" style="fill: #ff120a; stroke: #ff120a"/>
     <use xlink:href="#mf1ab9c3c39" x="324.516587" y="64.471573" style="fill: #ff120a; stroke: #ff120a"/>
    </g>
   </g>
   <g id="PathCollection_3">
    <g clip-path="url(#pc0c084029e)">
     <use xlink:href="#m784e912159" x="384.179283" y="63.925387" style="fill: #2e85ff; stroke: #2e85ff"/>
     <use xlink:href="#m784e912159" x="394.123065" y="60.258133" style="fill: #2e85ff; stroke: #2e85ff"/>
     <use xlink:href="#m784e912159" x="404.066848" y="59.243787" style="fill: #2e85ff; stroke: #2e85ff"/>
     <use xlink:href="#m784e912159" x="414.01063" y="59.789973" style="fill: #2e85ff; stroke: #2e85ff"/>
     <use xlink:href="#m784e912159" x="423.954413" y="59.711947" style="fill: #2e85ff; stroke: #2e85ff"/>
     <use xlink:href="#m784e912159" x="433.898196" y="59.555893" style="fill: #2e85ff; stroke: #2e85ff"/>
     <use xlink:href="#m784e912159" x="443.841978" y="58.46352" style="fill: #2e85ff; stroke: #2e85ff"/>
     <use xlink:href="#m784e912159" x="453.785761" y="57.605227" style="fill: #2e85ff; stroke: #2e85ff"/>
     <use xlink:href="#m784e912159" x="463.729543" y="54.406133" style="fill: #2e85ff; stroke: #2e85ff"/>
     <use xlink:href="#m784e912159" x="473.673326" y="27.0968" style="fill: #2e85ff; stroke: #2e85ff"/>
    </g>
   </g>
   <g id="PathCollection_4">
    <g clip-path="url(#pc0c084029e)">
     <use xlink:href="#mf1ab9c3c39" x="384.179283" y="56.82496" style="fill: #ff120a; stroke: #ff120a"/>
     <use xlink:href="#mf1ab9c3c39" x="394.123065" y="53.391787" style="fill: #ff120a; stroke: #ff120a"/>
     <use xlink:href="#mf1ab9c3c39" x="404.066848" y="59.477867" style="fill: #ff120a; stroke: #ff120a"/>
     <use xlink:href="#mf1ab9c3c39" x="414.01063" y="60.492213" style="fill: #ff120a; stroke: #ff120a"/>
     <use xlink:href="#mf1ab9c3c39" x="423.954413" y="61.97472" style="fill: #ff120a; stroke: #ff120a"/>
     <use xlink:href="#mf1ab9c3c39" x="433.898196" y="62.989067" style="fill: #ff120a; stroke: #ff120a"/>
     <use xlink:href="#mf1ab9c3c39" x="443.841978" y="62.989067" style="fill: #ff120a; stroke: #ff120a"/>
     <use xlink:href="#mf1ab9c3c39" x="453.785761" y="64.08144" style="fill: #ff120a; stroke: #ff120a"/>
     <use xlink:href="#mf1ab9c3c39" x="463.729543" y="64.627627" style="fill: #ff120a; stroke: #ff120a"/>
     <use xlink:href="#mf1ab9c3c39" x="473.673326" y="63.925387" style="fill: #ff120a; stroke: #ff120a"/>
    </g>
   </g>
   <g id="matplotlib.axis_1">
    <g id="xtick_1">
     <g id="line2d_1">
      <defs>
       <path id="m8370dd9248" d="M 0 0 
L 0 3.5 
" style="stroke: #000000; stroke-width: 0.8"/>
      </defs>
      <g>
       <use xlink:href="#m8370dd9248" x="230.050652" y="65.72" style="stroke: #000000; stroke-width: 0.8"/>
      </g>
     </g>
     <g id="text_1">
      <text style="font: 5px 'Arial'; text-anchor: middle" x="230.050652" y="76.298906" transform="rotate(-0 230.050652 76.298906)">0.0</text>
     </g>
    </g>
    <g id="xtick_2">
     <g id="line2d_2">
      <g>
       <use xlink:href="#m8370dd9248" x="279.769565" y="65.72" style="stroke: #000000; stroke-width: 0.8"/>
      </g>
     </g>
     <g id="text_2">
      <text style="font: 5px 'Arial'; text-anchor: middle" x="279.769565" y="76.298906" transform="rotate(-0 279.769565 76.298906)">0.5</text>
     </g>
    </g>
    <g id="xtick_3">
     <g id="line2d_3">
      <g>
       <use xlink:href="#m8370dd9248" x="329.488478" y="65.72" style="stroke: #000000; stroke-width: 0.8"/>
      </g>
     </g>
     <g id="text_3">
      <text style="font: 5px 'Arial'; text-anchor: middle" x="329.488478" y="76.298906" transform="rotate(-0 329.488478 76.298906)">1.0</text>
     </g>
    </g>
    <g id="xtick_4">
     <g id="line2d_4">
      <g>
       <use xlink:href="#m8370dd9248" x="379.207391" y="65.72" style="stroke: #000000; stroke-width: 0.8"/>
      </g>
     </g>
     <g id="text_4">
      <text style="font: 5px 'Arial'; text-anchor: middle" x="379.207391" y="76.298906" transform="rotate(-0 379.207391 76.298906)">0.0</text>
     </g>
    </g>
    <g id="xtick_5">
     <g id="line2d_5">
      <g>
       <use xlink:href="#m8370dd9248" x="428.926304" y="65.72" style="stroke: #000000; stroke-width: 0.8"/>
      </g>
     </g>
     <g id="text_5">
      <text style="font: 5px 'Arial'; text-anchor: middle" x="428.926304" y="76.298906" transform="rotate(-0 428.926304 76.298906)">0.5</text>
     </g>
    </g>
    <g id="xtick_6">
     <g id="line2d_6">
      <g>
       <use xlink:href="#m8370dd9248" x="478.645217" y="65.72" style="stroke: #000000; stroke-width: 0.8"/>
      </g>
     </g>
     <g id="text_6">
      <text style="font: 5px 'Arial'; text-anchor: middle" x="478.645217" y="76.298906" transform="rotate(-0 478.645217 76.298906)">1.0</text>
     </g>
    </g>
    <g id="text_7">
     <text style="font: 5px 'Arial'; text-anchor: middle" x="259.882" y="84.9325" transform="rotate(-0 259.882 84.9325)">Predicted self-assembly probability</text>
    </g>
   </g>
   <g id="matplotlib.axis_2">
    <g id="ytick_1">
     <g id="line2d_7">
      <defs>
       <path id="mfc5c234f9d" d="M 0 0 
L -3.5 0 
" style="stroke: #000000; stroke-width: 0.8"/>
      </defs>
      <g>
       <use xlink:href="#mfc5c234f9d" x="31.175" y="65.72" style="stroke: #000000; stroke-width: 0.8"/>
      </g>
     </g>
     <g id="text_8">
      <text style="font: 5px 'Arial'; text-anchor: end" x="24.175" y="67.509453" transform="rotate(-0 24.175 67.509453)">0</text>
     </g>
    </g>
    <g id="ytick_2">
     <g id="line2d_8">
      <g>
       <use xlink:href="#mfc5c234f9d" x="31.175" y="50.114667" style="stroke: #000000; stroke-width: 0.8"/>
      </g>
     </g>
     <g id="text_9">
      <text style="font: 5px 'Arial'; text-anchor: end" x="24.175" y="51.90412" transform="rotate(-0 24.175 51.90412)">200</text>
     </g>
    </g>
    <g id="ytick_3">
     <g id="line2d_9">
      <g>
       <use xlink:href="#mfc5c234f9d" x="31.175" y="34.509333" style="stroke: #000000; stroke-width: 0.8"/>
      </g>
     </g>
     <g id="text_10">
      <text style="font: 5px 'Arial'; text-anchor: end" x="24.175" y="36.298786" transform="rotate(-0 24.175 36.298786)">400</text>
     </g>
    </g>
    <g id="ytick_4">
     <g id="line2d_10">
      <g>
       <use xlink:href="#mfc5c234f9d" x="31.175" y="18.904" style="stroke: #000000; stroke-width: 0.8"/>
      </g>
     </g>
     <g id="text_11">
      <text style="font: 5px 'Arial'; text-anchor: end" x="24.175" y="20.693453" transform="rotate(-0 24.175 20.693453)">600</text>
     </g>
    </g>
    <g id="text_12">
     <text style="font: 5px 'Arial'; text-anchor: middle" x="10.839844" y="36.46" transform="rotate(-90 10.839844 36.46)">Number of peptides</text>
    </g>
   </g>
   <g id="patch_87">
    <path d="M 31.175 65.72 
L 31.175 7.2 
" style="fill: none; stroke: #000000; stroke-width: 0.8; stroke-linejoin: miter; stroke-linecap: square"/>
   </g>
   <g id="patch_88">
    <path d="M 31.175 65.72 
L 488.589 65.72 
" style="fill: none; stroke: #000000; stroke-width: 0.8; stroke-linejoin: miter; stroke-linecap: square"/>
   </g>
   <g id="text_13">
    <text style="fill: #2e85ff; font: 5px 'Arial'; text-anchor: start" x="241.651732" y="51.20704" transform="rotate(-0 241.651732 51.20704)">14</text>
   </g>
   <g id="text_14">
    <text style="fill: #ff120a; font: 5px 'Arial'; text-anchor: start" x="241.651732" y="55.108373" transform="rotate(-0 241.651732 55.108373)">28</text>
   </g>
   <g id="text_15">
    <text style="fill: #2e85ff; font: 5px 'Arial'; text-anchor: start" x="251.18119" y="43.71648" transform="rotate(-0 251.18119 43.71648)">153</text>
   </g>
   <g id="text_16">
    <text style="fill: #ff120a; font: 5px 'Arial'; text-anchor: start" x="251.18119" y="47.617813" transform="rotate(-0 251.18119 47.617813)">192</text>
   </g>
   <g id="text_17">
    <text style="fill: #2e85ff; font: 5px 'Arial'; text-anchor: start" x="261.124973" y="40.283307" transform="rotate(-0 261.124973 40.283307)">236</text>
   </g>
   <g id="text_18">
    <text style="fill: #ff120a; font: 5px 'Arial'; text-anchor: start" x="261.124973" y="44.18464" transform="rotate(-0 261.124973 44.18464)">205</text>
   </g>
   <g id="text_19">
    <text style="fill: #2e85ff; font: 5px 'Arial'; text-anchor: start" x="271.48308" y="45.94024" transform="rotate(-0 271.48308 45.94024)">99</text>
   </g>
   <g id="text_20">
    <text style="fill: #ff120a; font: 5px 'Arial'; text-anchor: start" x="271.48308" y="49.841573" transform="rotate(-0 271.48308 49.841573)">86</text>
   </g>
   <g id="text_21">
    <text style="fill: #2e85ff; font: 5px 'Arial'; text-anchor: start" x="281.426862" y="51.597173" transform="rotate(-0 281.426862 51.597173)">91</text>
   </g>
   <g id="text_22">
    <text style="fill: #ff120a; font: 5px 'Arial'; text-anchor: start" x="281.426862" y="55.498507" transform="rotate(-0 281.426862 55.498507)">32</text>
   </g>
   <g id="text_23">
    <text style="fill: #2e85ff; font: 5px 'Arial'; text-anchor: start" x="291.370645" y="52.14336" transform="rotate(-0 291.370645 52.14336)">59</text>
   </g>
   <g id="text_24">
    <text style="fill: #ff120a; font: 5px 'Arial'; text-anchor: start" x="291.370645" y="56.044693" transform="rotate(-0 291.370645 56.044693)">14</text>
   </g>
   <g id="text_25">
    <text style="fill: #2e85ff; font: 5px 'Arial'; text-anchor: start" x="301.314428" y="52.689547" transform="rotate(-0 301.314428 52.689547)">77</text>
   </g>
   <g id="text_26">
    <text style="fill: #ff120a; font: 5px 'Arial'; text-anchor: start" x="301.314428" y="56.59088" transform="rotate(-0 301.314428 56.59088)">11</text>
   </g>
   <g id="text_27">
    <text style="fill: #2e85ff; font: 5px 'Arial'; text-anchor: start" x="311.25821" y="39.03488" transform="rotate(-0 311.25821 39.03488)">89</text>
   </g>
   <g id="text_28">
    <text style="fill: #ff120a; font: 5px 'Arial'; text-anchor: start" x="311.25821" y="42.936213" transform="rotate(-0 311.25821 42.936213)">11</text>
   </g>
   <g id="text_29">
    <text style="fill: #2e85ff; font: 5px 'Arial'; text-anchor: start" x="320.787668" y="25.380213" transform="rotate(-0 320.787668 25.380213)">427</text>
   </g>
   <g id="text_30">
    <text style="fill: #ff120a; font: 5px 'Arial'; text-anchor: start" x="320.787668" y="29.281547" transform="rotate(-0 320.787668 29.281547)">16</text>
   </g>
   <g id="text_31">
    <text style="fill: #2e85ff; font: 5px 'Arial'; text-anchor: start" x="380.450364" y="49.80256" transform="rotate(-0 380.450364 49.80256)">23</text>
   </g>
   <g id="text_32">
    <text style="fill: #ff120a; font: 5px 'Arial'; text-anchor: start" x="380.450364" y="53.703893" transform="rotate(-0 380.450364 53.703893)">114</text>
   </g>
   <g id="text_33">
    <text style="fill: #2e85ff; font: 5px 'Arial'; text-anchor: start" x="390.394147" y="46.369387" transform="rotate(-0 390.394147 46.369387)">70</text>
   </g>
   <g id="text_34">
    <text style="fill: #ff120a; font: 5px 'Arial'; text-anchor: start" x="390.394147" y="50.27072" transform="rotate(-0 390.394147 50.27072)">158</text>
   </g>
   <g id="text_35">
    <text style="fill: #2e85ff; font: 5px 'Arial'; text-anchor: start" x="400.752254" y="49.9196" transform="rotate(-0 400.752254 49.9196)">83</text>
   </g>
   <g id="text_36">
    <text style="fill: #ff120a; font: 5px 'Arial'; text-anchor: start" x="400.752254" y="53.820933" transform="rotate(-0 400.752254 53.820933)">80</text>
   </g>
   <g id="text_37">
    <text style="fill: #2e85ff; font: 5px 'Arial'; text-anchor: start" x="410.696036" y="52.455467" transform="rotate(-0 410.696036 52.455467)">76</text>
   </g>
   <g id="text_38">
    <text style="fill: #ff120a; font: 5px 'Arial'; text-anchor: start" x="410.696036" y="56.3568" transform="rotate(-0 410.696036 56.3568)">67</text>
   </g>
   <g id="text_39">
    <text style="fill: #2e85ff; font: 5px 'Arial'; text-anchor: start" x="420.639819" y="52.650533" transform="rotate(-0 420.639819 52.650533)">77</text>
   </g>
   <g id="text_40">
    <text style="fill: #ff120a; font: 5px 'Arial'; text-anchor: start" x="420.639819" y="56.551867" transform="rotate(-0 420.639819 56.551867)">48</text>
   </g>
   <g id="text_41">
    <text style="fill: #2e85ff; font: 5px 'Arial'; text-anchor: start" x="430.583601" y="52.065333" transform="rotate(-0 430.583601 52.065333)">79</text>
   </g>
   <g id="text_42">
    <text style="fill: #ff120a; font: 5px 'Arial'; text-anchor: start" x="430.583601" y="55.966667" transform="rotate(-0 430.583601 55.966667)">35</text>
   </g>
   <g id="text_43">
    <text style="fill: #2e85ff; font: 5px 'Arial'; text-anchor: start" x="440.527384" y="51.44112" transform="rotate(-0 440.527384 51.44112)">93</text>
   </g>
   <g id="text_44">
    <text style="fill: #ff120a; font: 5px 'Arial'; text-anchor: start" x="440.527384" y="55.342453" transform="rotate(-0 440.527384 55.342453)">35</text>
   </g>
   <g id="text_45">
    <text style="fill: #2e85ff; font: 5px 'Arial'; text-anchor: start" x="450.056842" y="49.412427" transform="rotate(-0 450.056842 49.412427)">104</text>
   </g>
   <g id="text_46">
    <text style="fill: #ff120a; font: 5px 'Arial'; text-anchor: start" x="450.056842" y="53.31376" transform="rotate(-0 450.056842 53.31376)">21</text>
   </g>
   <g id="text_47">
    <text style="fill: #2e85ff; font: 5px 'Arial'; text-anchor: start" x="460.000625" y="35.328613" transform="rotate(-0 460.000625 35.328613)">145</text>
   </g>
   <g id="text_48">
    <text style="fill: #ff120a; font: 5px 'Arial'; text-anchor: start" x="460.000625" y="39.229947" transform="rotate(-0 460.000625 39.229947)">14</text>
   </g>
   <g id="text_49">
    <text style="fill: #2e85ff; font: 5px 'Arial'; text-anchor: start" x="469.944408" y="20.0744" transform="rotate(-0 469.944408 20.0744)">495</text>
   </g>
   <g id="text_50">
    <text style="fill: #ff120a; font: 5px 'Arial'; text-anchor: start" x="469.944408" y="23.975733" transform="rotate(-0 469.944408 23.975733)">23</text>
   </g>
  </g>
 </g>
 <defs>
  <clipPath id="pc0c084029e">
   <rect x="31.175" y="7.2" width="457.414" height="58.52"/>
  </clipPath>
 </defs>
</svg>
