<?xml version="1.0" encoding="utf-8" standalone="no"?>
<!DOCTYPE svg PUBLIC "-//W3C//DTD SVG 1.1//EN"
  "http://www.w3.org/Graphics/SVG/1.1/DTD/svg11.dtd">
<svg xmlns:xlink="http://www.w3.org/1999/xlink" width="495.789pt" height="93.184844pt" viewBox="0 0 495.789 93.184844" xmlns="http://www.w3.org/2000/svg" version="1.1">
 <metadata>
  <rdf:RDF xmlns:dc="http://purl.org/dc/elements/1.1/" xmlns:cc="http://creativecommons.org/ns#" xmlns:rdf="http://www.w3.org/1999/02/22-rdf-syntax-ns#">
   <cc:Work>
    <dc:type rdf:resource="http://purl.org/dc/dcmitype/StillImage"/>
    <dc:date>2024-09-26T14:59:30.725797</dc:date>
    <dc:format>image/svg+xml</dc:format>
    <dc:creator>
     <cc:Agent>
      <dc:title>Matplotlib v3.7.0, https://matplotlib.org/</dc:title>
     </cc:Agent>
    </dc:creator>
   </cc:Work>
  </rdf:RDF>
 </metadata>
 <defs>
  <style type="text/css">*{stroke-linejoin: round; stroke-linecap: butt}</style>
 </defs>
 <g id="figure_1">
  <g id="patch_1">
   <path d="M 0 93.184844 
L 495.789 93.184844 
L 495.789 0 
L 0 0 
z
" style="fill: #ffffff"/>
  </g>
  <g id="axes_1">
   <g id="patch_2">
    <path d="M 31.175 65.72 
L 488.589 65.72 
L 488.589 7.2 
L 31.175 7.2 
z
" style="fill: #ffffff"/>
   </g>
   <g id="patch_3">
    <path d="M 230.050652 65.72 
L 239.994435 65.72 
L 239.994435 65.72 
L 230.050652 65.72 
z
" clip-path="url(#pe6e33cada2)" style="fill: #ff120a; fill-opacity: 0.5; stroke: #000000; stroke-linejoin: miter"/>
   </g>
   <g id="patch_4">
    <path d="M 239.994435 65.72 
L 249.938217 65.72 
L 249.938217 65.72 
L 239.994435 65.72 
z
" clip-path="url(#pe6e33cada2)" style="fill: #ff120a; fill-opacity: 0.5; stroke: #000000; stroke-linejoin: miter"/>
   </g>
   <g id="patch_5">
    <path d="M 249.938217 65.72 
L 259.882 65.72 
L 259.882 65.72 
L 249.938217 65.72 
z
" clip-path="url(#pe6e33cada2)" style="fill: #ff120a; fill-opacity: 0.5; stroke: #000000; stroke-linejoin: miter"/>
   </g>
   <g id="patch_6">
    <path d="M 259.882 65.72 
L 269.825783 65.72 
L 269.825783 65.72 
L 259.882 65.72 
z
" clip-path="url(#pe6e33cada2)" style="fill: #ff120a; fill-opacity: 0.5; stroke: #000000; stroke-linejoin: miter"/>
   </g>
   <g id="patch_7">
    <path d="M 269.825783 65.72 
L 279.769565 65.72 
L 279.769565 65.72 
L 269.825783 65.72 
z
" clip-path="url(#pe6e33cada2)" style="fill: #ff120a; fill-opacity: 0.5; stroke: #000000; stroke-linejoin: miter"/>
   </g>
   <g id="patch_8">
    <path d="M 279.769565 65.72 
L 289.713348 65.72 
L 289.713348 65.72 
L 279.769565 65.72 
z
" clip-path="url(#pe6e33cada2)" style="fill: #ff120a; fill-opacity: 0.5; stroke: #000000; stroke-linejoin: miter"/>
   </g>
   <g id="patch_9">
    <path d="M 289.713348 65.72 
L 299.65713 65.72 
L 299.65713 65.72 
L 289.713348 65.72 
z
" clip-path="url(#pe6e33cada2)" style="fill: #ff120a; fill-opacity: 0.5; stroke: #000000; stroke-linejoin: miter"/>
   </g>
   <g id="patch_10">
    <path d="M 299.65713 65.72 
L 309.600913 65.72 
L 309.600913 65.72 
L 299.65713 65.72 
z
" clip-path="url(#pe6e33cada2)" style="fill: #ff120a; fill-opacity: 0.5; stroke: #000000; stroke-linejoin: miter"/>
   </g>
   <g id="patch_11">
    <path d="M 309.600913 65.72 
L 319.544696 65.72 
L 319.544696 65.72 
L 309.600913 65.72 
z
" clip-path="url(#pe6e33cada2)" style="fill: #ff120a; fill-opacity: 0.5; stroke: #000000; stroke-linejoin: miter"/>
   </g>
   <g id="patch_12">
    <path d="M 319.544696 65.72 
L 329.488478 65.72 
L 329.488478 65.72 
L 319.544696 65.72 
z
" clip-path="url(#pe6e33cada2)" style="fill: #ff120a; fill-opacity: 0.5; stroke: #000000; stroke-linejoin: miter"/>
   </g>
   <g id="patch_13">
    <path d="M 329.488478 65.72 
L 379.207391 65.72 
L 379.207391 65.72 
L 329.488478 65.72 
z
" clip-path="url(#pe6e33cada2)" style="fill: #ff120a; fill-opacity: 0.5; stroke: #000000; stroke-linejoin: miter"/>
   </g>
   <g id="patch_14">
    <path d="M 379.207391 65.72 
L 389.151174 65.72 
L 389.151174 56.82496 
L 379.207391 56.82496 
z
" clip-path="url(#pe6e33cada2)" style="fill: #ff120a; fill-opacity: 0.5; stroke: #000000; stroke-linejoin: miter"/>
   </g>
   <g id="patch_15">
    <path d="M 389.151174 65.72 
L 399.094957 65.72 
L 399.094957 53.391787 
L 389.151174 53.391787 
z
" clip-path="url(#pe6e33cada2)" style="fill: #ff120a; fill-opacity: 0.5; stroke: #000000; stroke-linejoin: miter"/>
   </g>
   <g id="patch_16">
    <path d="M 399.094957 65.72 
L 409.038739 65.72 
L 409.038739 59.477867 
L 399.094957 59.477867 
z
" clip-path="url(#pe6e33cada2)" style="fill: #ff120a; fill-opacity: 0.5; stroke: #000000; stroke-linejoin: miter"/>
   </g>
   <g id="patch_17">
    <path d="M 409.038739 65.72 
L 418.982522 65.72 
L 418.982522 60.492213 
L 409.038739 60.492213 
z
" clip-path="url(#pe6e33cada2)" style="fill: #ff120a; fill-opacity: 0.5; stroke: #000000; stroke-linejoin: miter"/>
   </g>
   <g id="patch_18">
    <path d="M 418.982522 65.72 
L 428.926304 65.72 
L 428.926304 61.97472 
L 418.982522 61.97472 
z
" clip-path="url(#pe6e33cada2)" style="fill: #ff120a; fill-opacity: 0.5; stroke: #000000; stroke-linejoin: miter"/>
   </g>
   <g id="patch_19">
    <path d="M 428.926304 65.72 
L 438.870087 65.72 
L 438.870087 62.989067 
L 428.926304 62.989067 
z
" clip-path="url(#pe6e33cada2)" style="fill: #ff120a; fill-opacity: 0.5; stroke: #000000; stroke-linejoin: miter"/>
   </g>
   <g id="patch_20">
    <path d="M 438.870087 65.72 
L 448.81387 65.72 
L 448.81387 62.989067 
L 438.870087 62.989067 
z
" clip-path="url(#pe6e33cada2)" style="fill: #ff120a; fill-opacity: 0.5; stroke: #000000; stroke-linejoin: miter"/>
   </g>
   <g id="patch_21">
    <path d="M 448.81387 65.72 
L 458.757652 65.72 
L 458.757652 64.08144 
L 448.81387 64.08144 
z
" clip-path="url(#pe6e33cada2)" style="fill: #ff120a; fill-opacity: 0.5; stroke: #000000; stroke-linejoin: miter"/>
   </g>
   <g id="patch_22">
    <path d="M 458.757652 65.72 
L 468.701435 65.72 
L 468.701435 64.627627 
L 458.757652 64.627627 
z
" clip-path="url(#pe6e33cada2)" style="fill: #ff120a; fill-opacity: 0.5; stroke: #000000; stroke-linejoin: miter"/>
   </g>
   <g id="patch_23">
    <path d="M 468.701435 65.72 
L 478.645217 65.72 
L 478.645217 63.925387 
L 468.701435 63.925387 
z
" clip-path="url(#pe6e33cada2)" style="fill: #ff120a; fill-opacity: 0.5; stroke: #000000; stroke-linejoin: miter"/>
   </g>
   <g id="patch_24">
    <path d="M 230.050652 65.72 
L 239.994435 65.72 
L 239.994435 65.72 
L 230.050652 65.72 
z
" clip-path="url(#pe6e33cada2)" style="fill: #ff120a; fill-opacity: 0.5; stroke: #000000; stroke-linejoin: miter"/>
   </g>
   <g id="patch_25">
    <path d="M 239.994435 65.72 
L 249.938217 65.72 
L 249.938217 63.535253 
L 239.994435 63.535253 
z
" clip-path="url(#pe6e33cada2)" style="fill: #ff120a; fill-opacity: 0.5; stroke: #000000; stroke-linejoin: miter"/>
   </g>
   <g id="patch_26">
    <path d="M 249.938217 65.72 
L 259.882 65.72 
L 259.882 50.73888 
L 249.938217 50.73888 
z
" clip-path="url(#pe6e33cada2)" style="fill: #ff120a; fill-opacity: 0.5; stroke: #000000; stroke-linejoin: miter"/>
   </g>
   <g id="patch_27">
    <path d="M 259.882 65.72 
L 269.825783 65.72 
L 269.825783 49.724533 
L 259.882 49.724533 
z
" clip-path="url(#pe6e33cada2)" style="fill: #ff120a; fill-opacity: 0.5; stroke: #000000; stroke-linejoin: miter"/>
   </g>
   <g id="patch_28">
    <path d="M 269.825783 65.72 
L 279.769565 65.72 
L 279.769565 59.009707 
L 269.825783 59.009707 
z
" clip-path="url(#pe6e33cada2)" style="fill: #ff120a; fill-opacity: 0.5; stroke: #000000; stroke-linejoin: miter"/>
   </g>
   <g id="patch_29">
    <path d="M 279.769565 65.72 
L 289.713348 65.72 
L 289.713348 63.223147 
L 279.769565 63.223147 
z
" clip-path="url(#pe6e33cada2)" style="fill: #ff120a; fill-opacity: 0.5; stroke: #000000; stroke-linejoin: miter"/>
   </g>
   <g id="patch_30">
    <path d="M 289.713348 65.72 
L 299.65713 65.72 
L 299.65713 64.627627 
L 289.713348 64.627627 
z
" clip-path="url(#pe6e33cada2)" style="fill: #ff120a; fill-opacity: 0.5; stroke: #000000; stroke-linejoin: miter"/>
   </g>
   <g id="patch_31">
    <path d="M 299.65713 65.72 
L 309.600913 65.72 
L 309.600913 64.861707 
L 299.65713 64.861707 
z
" clip-path="url(#pe6e33cada2)" style="fill: #ff120a; fill-opacity: 0.5; stroke: #000000; stroke-linejoin: miter"/>
   </g>
   <g id="patch_32">
    <path d="M 309.600913 65.72 
L 319.544696 65.72 
L 319.544696 64.861707 
L 309.600913 64.861707 
z
" clip-path="url(#pe6e33cada2)" style="fill: #ff120a; fill-opacity: 0.5; stroke: #000000; stroke-linejoin: miter"/>
   </g>
   <g id="patch_33">
    <path d="M 319.544696 65.72 
L 329.488478 65.72 
L 329.488478 64.471573 
L 319.544696 64.471573 
z
" clip-path="url(#pe6e33cada2)" style="fill: #ff120a; fill-opacity: 0.5; stroke: #000000; stroke-linejoin: miter"/>
   </g>
   <g id="patch_34">
    <path d="M 329.488478 65.72 
L 379.207391 65.72 
L 379.207391 65.72 
L 329.488478 65.72 
z
" clip-path="url(#pe6e33cada2)" style="fill: #ff120a; fill-opacity: 0.5; stroke: #000000; stroke-linejoin: miter"/>
   </g>
   <g id="patch_35">
    <path d="M 379.207391 65.72 
L 389.151174 65.72 
L 389.151174 65.72 
L 379.207391 65.72 
z
" clip-path="url(#pe6e33cada2)" style="fill: #ff120a; fill-opacity: 0.5; stroke: #000000; stroke-linejoin: miter"/>
   </g>
   <g id="patch_36">
    <path d="M 389.151174 65.72 
L 399.094957 65.72 
L 399.094957 65.72 
L 389.151174 65.72 
z
" clip-path="url(#pe6e33cada2)" style="fill: #ff120a; fill-opacity: 0.5; stroke: #000000; stroke-linejoin: miter"/>
   </g>
   <g id="patch_37">
    <path d="M 399.094957 65.72 
L 409.038739 65.72 
L 409.038739 65.72 
L 399.094957 65.72 
z
" clip-path="url(#pe6e33cada2)" style="fill: #ff120a; fill-opacity: 0.5; stroke: #000000; stroke-linejoin: miter"/>
   </g>
   <g id="patch_38">
    <path d="M 409.038739 65.72 
L 418.982522 65.72 
L 418.982522 65.72 
L 409.038739 65.72 
z
" clip-path="url(#pe6e33cada2)" style="fill: #ff120a; fill-opacity: 0.5; stroke: #000000; stroke-linejoin: miter"/>
   </g>
   <g id="patch_39">
    <path d="M 418.982522 65.72 
L 428.926304 65.72 
L 428.926304 65.72 
L 418.982522 65.72 
z
" clip-path="url(#pe6e33cada2)" style="fill: #ff120a; fill-opacity: 0.5; stroke: #000000; stroke-linejoin: miter"/>
   </g>
   <g id="patch_40">
    <path d="M 428.926304 65.72 
L 438.870087 65.72 
L 438.870087 65.72 
L 428.926304 65.72 
z
" clip-path="url(#pe6e33cada2)" style="fill: #ff120a; fill-opacity: 0.5; stroke: #000000; stroke-linejoin: miter"/>
   </g>
   <g id="patch_41">
    <path d="M 438.870087 65.72 
L 448.81387 65.72 
L 448.81387 65.72 
L 438.870087 65.72 
z
" clip-path="url(#pe6e33cada2)" style="fill: #ff120a; fill-opacity: 0.5; stroke: #000000; stroke-linejoin: miter"/>
   </g>
   <g id="patch_42">
    <path d="M 448.81387 65.72 
L 458.757652 65.72 
L 458.757652 65.72 
L 448.81387 65.72 
z
" clip-path="url(#pe6e33cada2)" style="fill: #ff120a; fill-opacity: 0.5; stroke: #000000; stroke-linejoin: miter"/>
   </g>
   <g id="patch_43">
    <path d="M 458.757652 65.72 
L 468.701435 65.72 
L 468.701435 65.72 
L 458.757652 65.72 
z
" clip-path="url(#pe6e33cada2)" style="fill: #ff120a; fill-opacity: 0.5; stroke: #000000; stroke-linejoin: miter"/>
   </g>
   <g id="patch_44">
    <path d="M 468.701435 65.72 
L 478.645217 65.72 
L 478.645217 65.72 
L 468.701435 65.72 
z
" clip-path="url(#pe6e33cada2)" style="fill: #ff120a; fill-opacity: 0.5; stroke: #000000; stroke-linejoin: miter"/>
   </g>
   <g id="patch_45">
    <path d="M 230.050652 65.72 
L 239.994435 65.72 
L 239.994435 65.72 
L 230.050652 65.72 
z
" clip-path="url(#pe6e33cada2)" style="fill: #2e85ff; fill-opacity: 0.5; stroke: #000000; stroke-linejoin: miter"/>
   </g>
   <g id="patch_46">
    <path d="M 239.994435 65.72 
L 249.938217 65.72 
L 249.938217 65.72 
L 239.994435 65.72 
z
" clip-path="url(#pe6e33cada2)" style="fill: #2e85ff; fill-opacity: 0.5; stroke: #000000; stroke-linejoin: miter"/>
   </g>
   <g id="patch_47">
    <path d="M 249.938217 65.72 
L 259.882 65.72 
L 259.882 65.72 
L 249.938217 65.72 
z
" clip-path="url(#pe6e33cada2)" style="fill: #2e85ff; fill-opacity: 0.5; stroke: #000000; stroke-linejoin: miter"/>
   </g>
   <g id="patch_48">
    <path d="M 259.882 65.72 
L 269.825783 65.72 
L 269.825783 65.72 
L 259.882 65.72 
z
" clip-path="url(#pe6e33cada2)" style="fill: #2e85ff; fill-opacity: 0.5; stroke: #000000; stroke-linejoin: miter"/>
   </g>
   <g id="patch_49">
    <path d="M 269.825783 65.72 
L 279.769565 65.72 
L 279.769565 65.72 
L 269.825783 65.72 
z
" clip-path="url(#pe6e33cada2)" style="fill: #2e85ff; fill-opacity: 0.5; stroke: #000000; stroke-linejoin: miter"/>
   </g>
   <g id="patch_50">
    <path d="M 279.769565 65.72 
L 289.713348 65.72 
L 289.713348 65.72 
L 279.769565 65.72 
z
" clip-path="url(#pe6e33cada2)" style="fill: #2e85ff; fill-opacity: 0.5; stroke: #000000; stroke-linejoin: miter"/>
   </g>
   <g id="patch_51">
    <path d="M 289.713348 65.72 
L 299.65713 65.72 
L 299.65713 65.72 
L 289.713348 65.72 
z
" clip-path="url(#pe6e33cada2)" style="fill: #2e85ff; fill-opacity: 0.5; stroke: #000000; stroke-linejoin: miter"/>
   </g>
   <g id="patch_52">
    <path d="M 299.65713 65.72 
L 309.600913 65.72 
L 309.600913 65.72 
L 299.65713 65.72 
z
" clip-path="url(#pe6e33cada2)" style="fill: #2e85ff; fill-opacity: 0.5; stroke: #000000; stroke-linejoin: miter"/>
   </g>
   <g id="patch_53">
    <path d="M 309.600913 65.72 
L 319.544696 65.72 
L 319.544696 65.72 
L 309.600913 65.72 
z
" clip-path="url(#pe6e33cada2)" style="fill: #2e85ff; fill-opacity: 0.5; stroke: #000000; stroke-linejoin: miter"/>
   </g>
   <g id="patch_54">
    <path d="M 319.544696 65.72 
L 329.488478 65.72 
L 329.488478 65.72 
L 319.544696 65.72 
z
" clip-path="url(#pe6e33cada2)" style="fill: #2e85ff; fill-opacity: 0.5; stroke: #000000; stroke-linejoin: miter"/>
   </g>
   <g id="patch_55">
    <path d="M 329.488478 65.72 
L 379.207391 65.72 
L 379.207391 65.72 
L 329.488478 65.72 
z
" clip-path="url(#pe6e33cada2)" style="fill: #2e85ff; fill-opacity: 0.5; stroke: #000000; stroke-linejoin: miter"/>
   </g>
   <g id="patch_56">
    <path d="M 379.207391 65.72 
L 389.151174 65.72 
L 389.151174 63.925387 
L 379.207391 63.925387 
z
" clip-path="url(#pe6e33cada2)" style="fill: #2e85ff; fill-opacity: 0.5; stroke: #000000; stroke-linejoin: miter"/>
   </g>
   <g id="patch_57">
    <path d="M 389.151174 65.72 
L 399.094957 65.72 
L 399.094957 60.258133 
L 389.151174 60.258133 
z
" clip-path="url(#pe6e33cada2)" style="fill: #2e85ff; fill-opacity: 0.5; stroke: #000000; stroke-linejoin: miter"/>
   </g>
   <g id="patch_58">
    <path d="M 399.094957 65.72 
L 409.038739 65.72 
L 409.038739 59.243787 
L 399.094957 59.243787 
z
" clip-path="url(#pe6e33cada2)" style="fill: #2e85ff; fill-opacity: 0.5; stroke: #000000; stroke-linejoin: miter"/>
   </g>
   <g id="patch_59">
    <path d="M 409.038739 65.72 
L 418.982522 65.72 
L 418.982522 59.789973 
L 409.038739 59.789973 
z
" clip-path="url(#pe6e33cada2)" style="fill: #2e85ff; fill-opacity: 0.5; stroke: #000000; stroke-linejoin: miter"/>
   </g>
   <g id="patch_60">
    <path d="M 418.982522 65.72 
L 428.926304 65.72 
L 428.926304 59.711947 
L 418.982522 59.711947 
z
" clip-path="url(#pe6e33cada2)" style="fill: #2e85ff; fill-opacity: 0.5; stroke: #000000; stroke-linejoin: miter"/>
   </g>
   <g id="patch_61">
    <path d="M 428.926304 65.72 
L 438.870087 65.72 
L 438.870087 59.555893 
L 428.926304 59.555893 
z
" clip-path="url(#pe6e33cada2)" style="fill: #2e85ff; fill-opacity: 0.5; stroke: #000000; stroke-linejoin: miter"/>
   </g>
   <g id="patch_62">
    <path d="M 438.870087 65.72 
L 448.81387 65.72 
L 448.81387 58.46352 
L 438.870087 58.46352 
z
" clip-path="url(#pe6e33cada2)" style="fill: #2e85ff; fill-opacity: 0.5; stroke: #000000; stroke-linejoin: miter"/>
   </g>
   <g id="patch_63">
    <path d="M 448.81387 65.72 
L 458.757652 65.72 
L 458.757652 57.605227 
L 448.81387 57.605227 
z
" clip-path="url(#pe6e33cada2)" style="fill: #2e85ff; fill-opacity: 0.5; stroke: #000000; stroke-linejoin: miter"/>
   </g>
   <g id="patch_64">
    <path d="M 458.757652 65.72 
L 468.701435 65.72 
L 468.701435 54.406133 
L 458.757652 54.406133 
z
" clip-path="url(#pe6e33cada2)" style="fill: #2e85ff; fill-opacity: 0.5; stroke: #000000; stroke-linejoin: miter"/>
   </g>
   <g id="patch_65">
    <path d="M 468.701435 65.72 
L 478.645217 65.72 
L 478.645217 27.0968 
L 468.701435 27.0968 
z
" clip-path="url(#pe6e33cada2)" style="fill: #2e85ff; fill-opacity: 0.5; stroke: #000000; stroke-linejoin: miter"/>
   </g>
   <g id="patch_66">
    <path d="M 230.050652 65.72 
L 239.994435 65.72 
L 239.994435 65.72 
L 230.050652 65.72 
z
" clip-path="url(#pe6e33cada2)" style="fill: #2e85ff; fill-opacity: 0.5; stroke: #000000; stroke-linejoin: miter"/>
   </g>
   <g id="patch_67">
    <path d="M 239.994435 65.72 
L 249.938217 65.72 
L 249.938217 64.627627 
L 239.994435 64.627627 
z
" clip-path="url(#pe6e33cada2)" style="fill: #2e85ff; fill-opacity: 0.5; stroke: #000000; stroke-linejoin: miter"/>
   </g>
   <g id="patch_68">
    <path d="M 249.938217 65.72 
L 259.882 65.72 
L 259.882 53.78192 
L 249.938217 53.78192 
z
" clip-path="url(#pe6e33cada2)" style="fill: #2e85ff; fill-opacity: 0.5; stroke: #000000; stroke-linejoin: miter"/>
   </g>
   <g id="patch_69">
    <path d="M 259.882 65.72 
L 269.825783 65.72 
L 269.825783 47.305707 
L 259.882 47.305707 
z
" clip-path="url(#pe6e33cada2)" style="fill: #2e85ff; fill-opacity: 0.5; stroke: #000000; stroke-linejoin: miter"/>
   </g>
   <g id="patch_70">
    <path d="M 269.825783 65.72 
L 279.769565 65.72 
L 279.769565 57.99536 
L 269.825783 57.99536 
z
" clip-path="url(#pe6e33cada2)" style="fill: #2e85ff; fill-opacity: 0.5; stroke: #000000; stroke-linejoin: miter"/>
   </g>
   <g id="patch_71">
    <path d="M 279.769565 65.72 
L 289.713348 65.72 
L 289.713348 58.619573 
L 279.769565 58.619573 
z
" clip-path="url(#pe6e33cada2)" style="fill: #2e85ff; fill-opacity: 0.5; stroke: #000000; stroke-linejoin: miter"/>
   </g>
   <g id="patch_72">
    <path d="M 289.713348 65.72 
L 299.65713 65.72 
L 299.65713 61.116427 
L 289.713348 61.116427 
z
" clip-path="url(#pe6e33cada2)" style="fill: #2e85ff; fill-opacity: 0.5; stroke: #000000; stroke-linejoin: miter"/>
   </g>
   <g id="patch_73">
    <path d="M 299.65713 65.72 
L 309.600913 65.72 
L 309.600913 59.711947 
L 299.65713 59.711947 
z
" clip-path="url(#pe6e33cada2)" style="fill: #2e85ff; fill-opacity: 0.5; stroke: #000000; stroke-linejoin: miter"/>
   </g>
   <g id="patch_74">
    <path d="M 309.600913 65.72 
L 319.544696 65.72 
L 319.544696 58.775627 
L 309.600913 58.775627 
z
" clip-path="url(#pe6e33cada2)" style="fill: #2e85ff; fill-opacity: 0.5; stroke: #000000; stroke-linejoin: miter"/>
   </g>
   <g id="patch_75">
    <path d="M 319.544696 65.72 
L 329.488478 65.72 
L 329.488478 32.402613 
L 319.544696 32.402613 
z
" clip-path="url(#pe6e33cada2)" style="fill: #2e85ff; fill-opacity: 0.5; stroke: #000000; stroke-linejoin: miter"/>
   </g>
   <g id="patch_76">
    <path d="M 329.488478 65.72 
L 379.207391 65.72 
L 379.207391 65.72 
L 329.488478 65.72 
z
" clip-path="url(#pe6e33cada2)" style="fill: #2e85ff; fill-opacity: 0.5; stroke: #000000; stroke-linejoin: miter"/>
   </g>
   <g id="patch_77">
    <path d="M 379.207391 65.72 
L 389.151174 65.72 
L 389.151174 65.72 
L 379.207391 65.72 
z
" clip-path="url(#pe6e33cada2)" style="fill: #2e85ff; fill-opacity: 0.5; stroke: #000000; stroke-linejoin: miter"/>
   </g>
   <g id="patch_78">
    <path d="M 389.151174 65.72 
L 399.094957 65.72 
L 399.094957 65.72 
L 389.151174 65.72 
z
" clip-path="url(#pe6e33cada2)" style="fill: #2e85ff; fill-opacity: 0.5; stroke: #000000; stroke-linejoin: miter"/>
   </g>
   <g id="patch_79">
    <path d="M 399.094957 65.72 
L 409.038739 65.72 
L 409.038739 65.72 
L 399.094957 65.72 
z
" clip-path="url(#pe6e33cada2)" style="fill: #2e85ff; fill-opacity: 0.5; stroke: #000000; stroke-linejoin: miter"/>
   </g>
   <g id="patch_80">
    <path d="M 409.038739 65.72 
L 418.982522 65.72 
L 418.982522 65.72 
L 409.038739 65.72 
z
" clip-path="url(#pe6e33cada2)" style="fill: #2e85ff; fill-opacity: 0.5; stroke: #000000; stroke-linejoin: miter"/>
   </g>
   <g id="patch_81">
    <path d="M 418.982522 65.72 
L 428.926304 65.72 
L 428.926304 65.72 
L 418.982522 65.72 
z
" clip-path="url(#pe6e33cada2)" style="fill: #2e85ff; fill-opacity: 0.5; stroke: #000000; stroke-linejoin: miter"/>
   </g>
   <g id="patch_82">
    <path d="M 428.926304 65.72 
L 438.870087 65.72 
L 438.870087 65.72 
L 428.926304 65.72 
z
" clip-path="url(#pe6e33cada2)" style="fill: #2e85ff; fill-opacity: 0.5; stroke: #000000; stroke-linejoin: miter"/>
   </g>
   <g id="patch_83">
    <path d="M 438.870087 65.72 
L 448.81387 65.72 
L 448.81387 65.72 
L 438.870087 65.72 
z
" clip-path="url(#pe6e33cada2)" style="fill: #2e85ff; fill-opacity: 0.5; stroke: #000000; stroke-linejoin: miter"/>
   </g>
   <g id="patch_84">
    <path d="M 448.81387 65.72 
L 458.757652 65.72 
L 458.757652 65.72 
L 448.81387 65.72 
z
" clip-path="url(#pe6e33cada2)" style="fill: #2e85ff; fill-opacity: 0.5; stroke: #000000; stroke-linejoin: miter"/>
   </g>
   <g id="patch_85">
    <path d="M 458.757652 65.72 
L 468.701435 65.72 
L 468.701435 65.72 
L 458.757652 65.72 
z
" clip-path="url(#pe6e33cada2)" style="fill: #2e85ff; fill-opacity: 0.5; stroke: #000000; stroke-linejoin: miter"/>
   </g>
   <g id="patch_86">
    <path d="M 468.701435 65.72 
L 478.645217 65.72 
L 478.645217 65.72 
L 468.701435 65.72 
z
" clip-path="url(#pe6e33cada2)" style="fill: #2e85ff; fill-opacity: 0.5; stroke: #000000; stroke-linejoin: miter"/>
   </g>
   <g id="PathCollection_1">
    <defs>
     <path id="m666d872667" d="M 0 0.707107 
C 0.187527 0.707107 0.367398 0.632602 0.5 0.5 
C 0.632602 0.367398 0.707107 0.187527 0.707107 0 
C 0.707107 -0.187527 0.632602 -0.367398 0.5 -0.5 
C 0.367398 -0.632602 0.187527 -0.707107 0 -0.707107 
C -0.187527 -0.707107 -0.367398 -0.632602 -0.5 -0.5 
C -0.632602 -0.367398 -0.707107 -0.187527 -0.707107 0 
C -0.707107 0.187527 -0.632602 0.367398 -0.5 0.5 
C -0.367398 0.632602 -0.187527 0.707107 0 0.707107 
z
" style="stroke: #2e85ff"/>
    </defs>
    <g clip-path="url(#pe6e33cada2)">
     <use xlink:href="#m666d872667" x="235.022543" y="65.72" style="fill: #2e85ff; stroke: #2e85ff"/>
     <use xlink:href="#m666d872667" x="244.966326" y="64.627627" style="fill: #2e85ff; stroke: #2e85ff"/>
     <use xlink:href="#m666d872667" x="254.910109" y="53.78192" style="fill: #2e85ff; stroke: #2e85ff"/>
     <use xlink:href="#m666d872667" x="264.853891" y="47.305707" style="fill: #2e85ff; stroke: #2e85ff"/>
     <use xlink:href="#m666d872667" x="274.797674" y="57.99536" style="fill: #2e85ff; stroke: #2e85ff"/>
     <use xlink:href="#m666d872667" x="284.741457" y="58.619573" style="fill: #2e85ff; stroke: #2e85ff"/>
     <use xlink:href="#m666d872667" x="294.685239" y="61.116427" style="fill: #2e85ff; stroke: #2e85ff"/>
     <use xlink:href="#m666d872667" x="304.629022" y="59.711947" style="fill: #2e85ff; stroke: #2e85ff"/>
     <use xlink:href="#m666d872667" x="314.572804" y="58.775627" style="fill: #2e85ff; stroke: #2e85ff"/>
     <use xlink:href="#m666d872667" x="324.516587" y="32.402613" style="fill: #2e85ff; stroke: #2e85ff"/>
    </g>
   </g>
   <g id="PathCollection_2">
    <defs>
     <path id="m466c83e600" d="M 0 0.707107 
C 0.187527 0.707107 0.367398 0.632602 0.5 0.5 
C 0.632602 0.367398 0.707107 0.187527 0.707107 0 
C 0.707107 -0.187527 0.632602 -0.367398 0.5 -0.5 
C 0.367398 -0.632602 0.187527 -0.707107 0 -0.707107 
C -0.187527 -0.707107 -0.367398 -0.632602 -0.5 -0.5 
C -0.632602 -0.367398 -0.707107 -0.187527 -0.707107 0 
C -0.707107 0.187527 -0.632602 0.367398 -0.5 0.5 
C -0.367398 0.632602 -0.187527 0.707107 0 0.707107 
z
" style="stroke: #ff120a"/>
    </defs>
    <g clip-path="url(#pe6e33cada2)">
     <use xlink:href="#m466c83e600" x="235.022543" y="65.72" style="fill: #ff120a; stroke: #ff120a"/>
     <use xlink:href="#m466c83e600" x="244.966326" y="63.535253" style="fill: #ff120a; stroke: #ff120a"/>
     <use xlink:href="#m466c83e600" x="254.910109" y="50.73888" style="fill: #ff120a; stroke: #ff120a"/>
     <use xlink:href="#m466c83e600" x="264.853891" y="49.724533" style="fill: #ff120a; stroke: #ff120a"/>
     <use xlink:href="#m466c83e600" x="274.797674" y="59.009707" style="fill: #ff120a; stroke: #ff120a"/>
     <use xlink:href="#m466c83e600" x="284.741457" y="63.223147" style="fill: #ff120a; stroke: #ff120a"/>
     <use xlink:href="#m466c83e600" x="294.685239" y="64.627627" style="fill: #ff120a; stroke: #ff120a"/>
     <use xlink:href="#m466c83e600" x="304.629022" y="64.861707" style="fill: #ff120a; stroke: #ff120a"/>
     <use xlink:href="#m466c83e600" x="314.572804" y="64.861707" style="fill: #ff120a; stroke: #ff120a"/>
     <use xlink:href="#m466c83e600" x="324.516587" y="64.471573" style="fill: #ff120a; stroke: #ff120a"/>
    </g>
   </g>
   <g id="PathCollection_3">
    <g clip-path="url(#pe6e33cada2)">
     <use xlink:href="#m666d872667" x="384.179283" y="63.925387" style="fill: #2e85ff; stroke: #2e85ff"/>
     <use xlink:href="#m666d872667" x="394.123065" y="60.258133" style="fill: #2e85ff; stroke: #2e85ff"/>
     <use xlink:href="#m666d872667" x="404.066848" y="59.243787" style="fill: #2e85ff; stroke: #2e85ff"/>
     <use xlink:href="#m666d872667" x="414.01063" y="59.789973" style="fill: #2e85ff; stroke: #2e85ff"/>
     <use xlink:href="#m666d872667" x="423.954413" y="59.711947" style="fill: #2e85ff; stroke: #2e85ff"/>
     <use xlink:href="#m666d872667" x="433.898196" y="59.555893" style="fill: #2e85ff; stroke: #2e85ff"/>
     <use xlink:href="#m666d872667" x="443.841978" y="58.46352" style="fill: #2e85ff; stroke: #2e85ff"/>
     <use xlink:href="#m666d872667" x="453.785761" y="57.605227" style="fill: #2e85ff; stroke: #2e85ff"/>
     <use xlink:href="#m666d872667" x="463.729543" y="54.406133" style="fill: #2e85ff; stroke: #2e85ff"/>
     <use xlink:href="#m666d872667" x="473.673326" y="27.0968" style="fill: #2e85ff; stroke: #2e85ff"/>
    </g>
   </g>
   <g id="PathCollection_4">
    <g clip-path="url(#pe6e33cada2)">
     <use xlink:href="#m466c83e600" x="384.179283" y="56.82496" style="fill: #ff120a; stroke: #ff120a"/>
     <use xlink:href="#m466c83e600" x="394.123065" y="53.391787" style="fill: #ff120a; stroke: #ff120a"/>
     <use xlink:href="#m466c83e600" x="404.066848" y="59.477867" style="fill: #ff120a; stroke: #ff120a"/>
     <use xlink:href="#m466c83e600" x="414.01063" y="60.492213" style="fill: #ff120a; stroke: #ff120a"/>
     <use xlink:href="#m466c83e600" x="423.954413" y="61.97472" style="fill: #ff120a; stroke: #ff120a"/>
     <use xlink:href="#m466c83e600" x="433.898196" y="62.989067" style="fill: #ff120a; stroke: #ff120a"/>
     <use xlink:href="#m466c83e600" x="443.841978" y="62.989067" style="fill: #ff120a; stroke: #ff120a"/>
     <use xlink:href="#m466c83e600" x="453.785761" y="64.08144" style="fill: #ff120a; stroke: #ff120a"/>
     <use xlink:href="#m466c83e600" x="463.729543" y="64.627627" style="fill: #ff120a; stroke: #ff120a"/>
     <use xlink:href="#m466c83e600" x="473.673326" y="63.925387" style="fill: #ff120a; stroke: #ff120a"/>
    </g>
   </g>
   <g id="matplotlib.axis_1">
    <g id="xtick_1">
     <g id="line2d_1">
      <defs>
       <path id="mefff4005dd" d="M 0 0 
L 0 3.5 
" style="stroke: #000000; stroke-width: 0.8"/>
      </defs>
      <g>
       <use xlink:href="#mefff4005dd" x="230.050652" y="65.72" style="stroke: #000000; stroke-width: 0.8"/>
      </g>
     </g>
     <g id="text_1">
      <text style="font: 5px 'Arial'; text-anchor: middle" x="230.050652" y="76.298906" transform="rotate(-0 230.050652 76.298906)">0.0</text>
     </g>
    </g>
    <g id="xtick_2">
     <g id="line2d_2">
      <g>
       <use xlink:href="#mefff4005dd" x="279.769565" y="65.72" style="stroke: #000000; stroke-width: 0.8"/>
      </g>
     </g>
     <g id="text_2">
      <text style="font: 5px 'Arial'; text-anchor: middle" x="279.769565" y="76.298906" transform="rotate(-0 279.769565 76.298906)">0.5</text>
     </g>
    </g>
    <g id="xtick_3">
     <g id="line2d_3">
      <g>
       <use xlink:href="#mefff4005dd" x="329.488478" y="65.72" style="stroke: #000000; stroke-width: 0.8"/>
      </g>
     </g>
     <g id="text_3">
      <text style="font: 5px 'Arial'; text-anchor: middle" x="329.488478" y="76.298906" transform="rotate(-0 329.488478 76.298906)">1.0</text>
     </g>
    </g>
    <g id="xtick_4">
     <g id="line2d_4">
      <g>
       <use xlink:href="#mefff4005dd" x="379.207391" y="65.72" style="stroke: #000000; stroke-width: 0.8"/>
      </g>
     </g>
     <g id="text_4">
      <text style="font: 5px 'Arial'; text-anchor: middle" x="379.207391" y="76.298906" transform="rotate(-0 379.207391 76.298906)">0.0</text>
     </g>
    </g>
    <g id="xtick_5">
     <g id="line2d_5">
      <g>
       <use xlink:href="#mefff4005dd" x="428.926304" y="65.72" style="stroke: #000000; stroke-width: 0.8"/>
      </g>
     </g>
     <g id="text_5">
      <text style="font: 5px 'Arial'; text-anchor: middle" x="428.926304" y="76.298906" transform="rotate(-0 428.926304 76.298906)">0.5</text>
     </g>
    </g>
    <g id="xtick_6">
     <g id="line2d_6">
      <g>
       <use xlink:href="#mefff4005dd" x="478.645217" y="65.72" style="stroke: #000000; stroke-width: 0.8"/>
      </g>
     </g>
     <g id="text_6">
      <text style="font: 5px 'Arial'; text-anchor: middle" x="478.645217" y="76.298906" transform="rotate(-0 478.645217 76.298906)">1.0</text>
     </g>
    </g>
    <g id="text_7">
     <text style="font: 5px 'Arial'; text-anchor: middle" x="259.882" y="84.9325" transform="rotate(-0 259.882 84.9325)">Predicted self-assembly probability</text>
    </g>
   </g>
   <g id="matplotlib.axis_2">
    <g id="ytick_1">
     <g id="line2d_7">
      <defs>
       <path id="m2523fb8a5f" d="M 0 0 
L -3.5 0 
" style="stroke: #000000; stroke-width: 0.8"/>
      </defs>
      <g>
       <use xlink:href="#m2523fb8a5f" x="31.175" y="65.72" style="stroke: #000000; stroke-width: 0.8"/>
      </g>
     </g>
     <g id="text_8">
      <text style="font: 5px 'Arial'; text-anchor: end" x="24.175" y="67.509453" transform="rotate(-0 24.175 67.509453)">0</text>
     </g>
    </g>
    <g id="ytick_2">
     <g id="line2d_8">
      <g>
       <use xlink:href="#m2523fb8a5f" x="31.175" y="50.114667" style="stroke: #000000; stroke-width: 0.8"/>
      </g>
     </g>
     <g id="text_9">
      <text style="font: 5px 'Arial'; text-anchor: end" x="24.175" y="51.90412" transform="rotate(-0 24.175 51.90412)">200</text>
     </g>
    </g>
    <g id="ytick_3">
     <g id="line2d_9">
      <g>
       <use xlink:href="#m2523fb8a5f" x="31.175" y="34.509333" style="stroke: #000000; stroke-width: 0.8"/>
      </g>
     </g>
     <g id="text_10">
      <text style="font: 5px 'Arial'; text-anchor: end" x="24.175" y="36.298786" transform="rotate(-0 24.175 36.298786)">400</text>
     </g>
    </g>
    <g id="ytick_4">
     <g id="line2d_10">
      <g>
       <use xlink:href="#m2523fb8a5f" x="31.175" y="18.904" style="stroke: #000000; stroke-width: 0.8"/>
      </g>
     </g>
     <g id="text_11">
      <text style="font: 5px 'Arial'; text-anchor: end" x="24.175" y="20.693453" transform="rotate(-0 24.175 20.693453)">600</text>
     </g>
    </g>
    <g id="text_12">
     <text style="font: 5px 'Arial'; text-anchor: middle" x="10.839844" y="36.46" transform="rotate(-90 10.839844 36.46)">Number of peptides</text>
    </g>
   </g>
   <g id="line2d_11">
    <path d="M 242.061462 65.72 
L 365.701514 65.64114 
L 369.268054 65.416232 
L 371.645747 65.063274 
L 374.023441 64.436 
L 376.401134 63.444933 
L 378.778827 62.057081 
L 381.156521 60.342997 
L 385.911907 56.774281 
L 388.2896 55.457755 
L 389.478447 55.011152 
L 390.667294 54.72178 
L 391.85614 54.59042 
L 393.044987 54.609608 
L 394.233834 54.765103 
L 396.611527 55.405164 
L 398.98922 56.330355 
L 404.933454 58.787505 
L 407.311147 59.538027 
L 409.68884 60.10298 
L 413.25538 60.678878 
L 420.38846 61.471691 
L 428.710387 62.267967 
L 435.843466 62.691758 
L 444.165393 63.195302 
L 459.620399 64.413898 
L 465.564633 64.518649 
L 475.075406 64.605296 
L 478.641946 64.802361 
L 478.641946 64.802361 
" clip-path="url(#pe6e33cada2)" style="fill: none; stroke: #ff120a; stroke-width: 1.5; stroke-linecap: square"/>
   </g>
   <g id="line2d_12">
    <path d="M 242.061462 64.287647 
L 243.250309 63.657494 
L 244.439156 62.84993 
L 245.628002 61.854487 
L 246.816849 60.675757 
L 249.194542 57.888088 
L 252.761082 53.569593 
L 253.949929 52.380534 
L 255.138776 51.394453 
L 256.327622 50.618457 
L 257.516469 50.039716 
L 258.705316 49.63958 
L 259.894162 49.407749 
L 261.083009 49.349919 
L 262.271855 49.485381 
L 263.460702 49.835848 
L 264.649549 50.410964 
L 265.838395 51.197302 
L 268.216089 53.227679 
L 271.782629 56.510476 
L 274.160322 58.364596 
L 276.538015 59.866455 
L 278.915709 61.066486 
L 281.293402 62.005593 
L 283.671095 62.712093 
L 287.237635 63.455529 
L 293.181868 64.378797 
L 296.748408 64.806031 
L 300.314948 65.005788 
L 303.881488 64.94757 
L 309.825721 64.760584 
L 321.714188 64.656807 
L 325.280728 64.665063 
L 328.847268 64.93769 
L 334.791501 65.536888 
L 339.546888 65.699215 
L 353.813048 65.72 
L 478.641946 65.72 
L 478.641946 65.72 
" clip-path="url(#pe6e33cada2)" style="fill: none; stroke: #ff120a; stroke-width: 1.5; stroke-linecap: square"/>
   </g>
   <g id="line2d_13">
    <path d="M 242.061462 65.72 
L 369.268054 65.635541 
L 374.023441 65.385337 
L 377.589981 64.96706 
L 381.156521 64.289975 
L 384.72306 63.375734 
L 394.233834 60.701528 
L 397.800374 60.038574 
L 401.366914 59.688683 
L 404.933454 59.597797 
L 412.066533 59.74305 
L 419.199613 59.811653 
L 425.143847 59.665749 
L 434.65462 59.153439 
L 448.92078 58.215076 
L 452.48732 57.6448 
L 454.865013 57.070382 
L 457.242706 56.286095 
L 459.620399 55.217534 
L 461.998093 53.765859 
L 464.375786 51.847687 
L 466.753479 49.481721 
L 470.320019 45.660377 
L 471.508866 44.571401 
L 472.697713 43.714813 
L 473.886559 43.174646 
L 475.075406 43.021346 
L 476.264253 43.302077 
L 477.453099 44.033203 
L 478.641946 45.196434 
L 478.641946 45.196434 
" clip-path="url(#pe6e33cada2)" style="fill: none; stroke: #2e85ff; stroke-width: 1.5; stroke-linecap: square"/>
   </g>
   <g id="line2d_14">
    <path d="M 242.061462 64.149429 
L 244.439156 63.151554 
L 246.816849 61.746352 
L 249.194542 59.913974 
L 251.572236 57.726444 
L 256.327622 53.157186 
L 257.516469 52.206349 
L 258.705316 51.414859 
L 259.894162 50.814982 
L 261.083009 50.428685 
L 262.271855 50.265613 
L 263.460702 50.322326 
L 264.649549 50.582878 
L 265.838395 51.020633 
L 268.216089 52.284898 
L 274.160322 55.956953 
L 276.538015 57.070398 
L 278.915709 57.879504 
L 281.293402 58.438712 
L 284.859942 59.011277 
L 293.181868 60.036238 
L 296.748408 60.236134 
L 300.314948 60.166422 
L 303.881488 59.839444 
L 307.448028 59.23347 
L 309.825721 58.583107 
L 312.203415 57.604409 
L 313.392261 56.949629 
L 314.581108 56.16631 
L 316.958801 54.203647 
L 319.336495 51.826435 
L 321.714188 49.401206 
L 322.903035 48.351242 
L 324.091881 47.521296 
L 325.280728 46.990211 
L 326.469575 46.821335 
L 327.658421 47.053741 
L 328.847268 47.696038 
L 330.036115 48.72401 
L 331.224961 50.082673 
L 333.602655 53.4587 
L 337.169194 58.744202 
L 338.358041 60.247101 
L 339.546888 61.54389 
L 340.735734 62.621429 
L 341.924581 63.484866 
L 343.113428 64.152789 
L 344.302274 64.651999 
L 346.679968 65.264891 
L 349.057661 65.547183 
L 352.624201 65.687466 
L 363.323821 65.719955 
L 478.641946 65.72 
L 478.641946 65.72 
" clip-path="url(#pe6e33cada2)" style="fill: none; stroke: #2e85ff; stroke-width: 1.5; stroke-linecap: square"/>
   </g>
   <g id="patch_87">
    <path d="M 31.175 65.72 
L 31.175 7.2 
" style="fill: none; stroke: #000000; stroke-width: 0.8; stroke-linejoin: miter; stroke-linecap: square"/>
   </g>
   <g id="patch_88">
    <path d="M 31.175 65.72 
L 488.589 65.72 
" style="fill: none; stroke: #000000; stroke-width: 0.8; stroke-linejoin: miter; stroke-linecap: square"/>
   </g>
  </g>
 </g>
 <defs>
  <clipPath id="pe6e33cada2">
   <rect x="31.175" y="7.2" width="457.414" height="58.52"/>
  </clipPath>
 </defs>
</svg>
