<?xml version="1.0" encoding="utf-8" standalone="no"?>
<!DOCTYPE svg PUBLIC "-//W3C//DTD SVG 1.1//EN"
  "http://www.w3.org/Graphics/SVG/1.1/DTD/svg11.dtd">
<svg xmlns:xlink="http://www.w3.org/1999/xlink" width="1427.26875pt" height="290.7475pt" viewBox="0 0 1427.26875 290.7475" xmlns="http://www.w3.org/2000/svg" version="1.1">
 <metadata>
  <rdf:RDF xmlns:dc="http://purl.org/dc/elements/1.1/" xmlns:cc="http://creativecommons.org/ns#" xmlns:rdf="http://www.w3.org/1999/02/22-rdf-syntax-ns#">
   <cc:Work>
    <dc:type rdf:resource="http://purl.org/dc/dcmitype/StillImage"/>
    <dc:date>2024-09-24T11:17:20.431114</dc:date>
    <dc:format>image/svg+xml</dc:format>
    <dc:creator>
     <cc:Agent>
      <dc:title>Matplotlib v3.7.0, https://matplotlib.org/</dc:title>
     </cc:Agent>
    </dc:creator>
   </cc:Work>
  </rdf:RDF>
 </metadata>
 <defs>
  <style type="text/css">*{stroke-linejoin: round; stroke-linecap: butt}</style>
 </defs>
 <g id="figure_1">
  <g id="patch_1">
   <path d="M 0 290.7475 
L 1427.26875 290.7475 
L 1427.26875 0 
L 0 0 
z
" style="fill: #ffffff"/>
  </g>
  <g id="axes_1">
   <g id="patch_2">
    <path d="M 52.71875 249.32 
L 1420.06875 249.32 
L 1420.06875 7.2 
L 52.71875 7.2 
z
" style="fill: #ffffff"/>
   </g>
   <g id="patch_3">
    <path d="M 201.34375 249.32 
L 231.06875 249.32 
L 231.06875 249.32 
L 201.34375 249.32 
z
" clip-path="url(#pe5af746202)" style="fill: #ff120a; fill-opacity: 0.5; stroke: #000000; stroke-linejoin: miter"/>
   </g>
   <g id="patch_4">
    <path d="M 231.06875 249.32 
L 260.79375 249.32 
L 260.79375 249.32 
L 231.06875 249.32 
z
" clip-path="url(#pe5af746202)" style="fill: #ff120a; fill-opacity: 0.5; stroke: #000000; stroke-linejoin: miter"/>
   </g>
   <g id="patch_5">
    <path d="M 260.79375 249.32 
L 290.51875 249.32 
L 290.51875 249.32 
L 260.79375 249.32 
z
" clip-path="url(#pe5af746202)" style="fill: #ff120a; fill-opacity: 0.5; stroke: #000000; stroke-linejoin: miter"/>
   </g>
   <g id="patch_6">
    <path d="M 290.51875 249.32 
L 320.24375 249.32 
L 320.24375 249.32 
L 290.51875 249.32 
z
" clip-path="url(#pe5af746202)" style="fill: #ff120a; fill-opacity: 0.5; stroke: #000000; stroke-linejoin: miter"/>
   </g>
   <g id="patch_7">
    <path d="M 320.24375 249.32 
L 349.96875 249.32 
L 349.96875 249.32 
L 320.24375 249.32 
z
" clip-path="url(#pe5af746202)" style="fill: #ff120a; fill-opacity: 0.5; stroke: #000000; stroke-linejoin: miter"/>
   </g>
   <g id="patch_8">
    <path d="M 349.96875 249.32 
L 379.69375 249.32 
L 379.69375 249.32 
L 349.96875 249.32 
z
" clip-path="url(#pe5af746202)" style="fill: #ff120a; fill-opacity: 0.5; stroke: #000000; stroke-linejoin: miter"/>
   </g>
   <g id="patch_9">
    <path d="M 379.69375 249.32 
L 409.41875 249.32 
L 409.41875 249.32 
L 379.69375 249.32 
z
" clip-path="url(#pe5af746202)" style="fill: #ff120a; fill-opacity: 0.5; stroke: #000000; stroke-linejoin: miter"/>
   </g>
   <g id="patch_10">
    <path d="M 409.41875 249.32 
L 439.14375 249.32 
L 439.14375 249.32 
L 409.41875 249.32 
z
" clip-path="url(#pe5af746202)" style="fill: #ff120a; fill-opacity: 0.5; stroke: #000000; stroke-linejoin: miter"/>
   </g>
   <g id="patch_11">
    <path d="M 439.14375 249.32 
L 468.86875 249.32 
L 468.86875 249.32 
L 439.14375 249.32 
z
" clip-path="url(#pe5af746202)" style="fill: #ff120a; fill-opacity: 0.5; stroke: #000000; stroke-linejoin: miter"/>
   </g>
   <g id="patch_12">
    <path d="M 468.86875 249.32 
L 498.59375 249.32 
L 498.59375 249.32 
L 468.86875 249.32 
z
" clip-path="url(#pe5af746202)" style="fill: #ff120a; fill-opacity: 0.5; stroke: #000000; stroke-linejoin: miter"/>
   </g>
   <g id="patch_13">
    <path d="M 498.59375 249.32 
L 647.21875 249.32 
L 647.21875 249.32 
L 498.59375 249.32 
z
" clip-path="url(#pe5af746202)" style="fill: #ff120a; fill-opacity: 0.5; stroke: #000000; stroke-linejoin: miter"/>
   </g>
   <g id="patch_14">
    <path d="M 647.21875 249.32 
L 676.94375 249.32 
L 676.94375 249.32 
L 647.21875 249.32 
z
" clip-path="url(#pe5af746202)" style="fill: #ff120a; fill-opacity: 0.5; stroke: #000000; stroke-linejoin: miter"/>
   </g>
   <g id="patch_15">
    <path d="M 676.94375 249.32 
L 706.66875 249.32 
L 706.66875 249.32 
L 676.94375 249.32 
z
" clip-path="url(#pe5af746202)" style="fill: #ff120a; fill-opacity: 0.5; stroke: #000000; stroke-linejoin: miter"/>
   </g>
   <g id="patch_16">
    <path d="M 706.66875 249.32 
L 736.39375 249.32 
L 736.39375 249.32 
L 706.66875 249.32 
z
" clip-path="url(#pe5af746202)" style="fill: #ff120a; fill-opacity: 0.5; stroke: #000000; stroke-linejoin: miter"/>
   </g>
   <g id="patch_17">
    <path d="M 736.39375 249.32 
L 766.11875 249.32 
L 766.11875 249.32 
L 736.39375 249.32 
z
" clip-path="url(#pe5af746202)" style="fill: #ff120a; fill-opacity: 0.5; stroke: #000000; stroke-linejoin: miter"/>
   </g>
   <g id="patch_18">
    <path d="M 766.11875 249.32 
L 795.84375 249.32 
L 795.84375 249.32 
L 766.11875 249.32 
z
" clip-path="url(#pe5af746202)" style="fill: #ff120a; fill-opacity: 0.5; stroke: #000000; stroke-linejoin: miter"/>
   </g>
   <g id="patch_19">
    <path d="M 795.84375 249.32 
L 825.56875 249.32 
L 825.56875 249.32 
L 795.84375 249.32 
z
" clip-path="url(#pe5af746202)" style="fill: #ff120a; fill-opacity: 0.5; stroke: #000000; stroke-linejoin: miter"/>
   </g>
   <g id="patch_20">
    <path d="M 825.56875 249.32 
L 855.29375 249.32 
L 855.29375 249.32 
L 825.56875 249.32 
z
" clip-path="url(#pe5af746202)" style="fill: #ff120a; fill-opacity: 0.5; stroke: #000000; stroke-linejoin: miter"/>
   </g>
   <g id="patch_21">
    <path d="M 855.29375 249.32 
L 885.01875 249.32 
L 885.01875 249.32 
L 855.29375 249.32 
z
" clip-path="url(#pe5af746202)" style="fill: #ff120a; fill-opacity: 0.5; stroke: #000000; stroke-linejoin: miter"/>
   </g>
   <g id="patch_22">
    <path d="M 885.01875 249.32 
L 914.74375 249.32 
L 914.74375 249.32 
L 885.01875 249.32 
z
" clip-path="url(#pe5af746202)" style="fill: #ff120a; fill-opacity: 0.5; stroke: #000000; stroke-linejoin: miter"/>
   </g>
   <g id="patch_23">
    <path d="M 914.74375 249.32 
L 944.46875 249.32 
L 944.46875 249.32 
L 914.74375 249.32 
z
" clip-path="url(#pe5af746202)" style="fill: #ff120a; fill-opacity: 0.5; stroke: #000000; stroke-linejoin: miter"/>
   </g>
   <g id="patch_24">
    <path d="M 944.46875 249.32 
L 1093.09375 249.32 
L 1093.09375 249.32 
L 944.46875 249.32 
z
" clip-path="url(#pe5af746202)" style="fill: #ff120a; fill-opacity: 0.5; stroke: #000000; stroke-linejoin: miter"/>
   </g>
   <g id="patch_25">
    <path d="M 1093.09375 249.32 
L 1122.81875 249.32 
L 1122.81875 165.707893 
L 1093.09375 165.707893 
z
" clip-path="url(#pe5af746202)" style="fill: #ff120a; fill-opacity: 0.5; stroke: #000000; stroke-linejoin: miter"/>
   </g>
   <g id="patch_26">
    <path d="M 1122.81875 249.32 
L 1152.54375 249.32 
L 1152.54375 214.45472 
L 1122.81875 214.45472 
z
" clip-path="url(#pe5af746202)" style="fill: #ff120a; fill-opacity: 0.5; stroke: #000000; stroke-linejoin: miter"/>
   </g>
   <g id="patch_27">
    <path d="M 1152.54375 249.32 
L 1182.26875 249.32 
L 1182.26875 235.115627 
L 1152.54375 235.115627 
z
" clip-path="url(#pe5af746202)" style="fill: #ff120a; fill-opacity: 0.5; stroke: #000000; stroke-linejoin: miter"/>
   </g>
   <g id="patch_28">
    <path d="M 1182.26875 249.32 
L 1211.99375 249.32 
L 1211.99375 239.958027 
L 1182.26875 239.958027 
z
" clip-path="url(#pe5af746202)" style="fill: #ff120a; fill-opacity: 0.5; stroke: #000000; stroke-linejoin: miter"/>
   </g>
   <g id="patch_29">
    <path d="M 1211.99375 249.32 
L 1241.71875 249.32 
L 1241.71875 241.57216 
L 1211.99375 241.57216 
z
" clip-path="url(#pe5af746202)" style="fill: #ff120a; fill-opacity: 0.5; stroke: #000000; stroke-linejoin: miter"/>
   </g>
   <g id="patch_30">
    <path d="M 1241.71875 249.32 
L 1271.44375 249.32 
L 1271.44375 243.831947 
L 1241.71875 243.831947 
z
" clip-path="url(#pe5af746202)" style="fill: #ff120a; fill-opacity: 0.5; stroke: #000000; stroke-linejoin: miter"/>
   </g>
   <g id="patch_31">
    <path d="M 1271.44375 249.32 
L 1301.16875 249.32 
L 1301.16875 243.186293 
L 1271.44375 243.186293 
z
" clip-path="url(#pe5af746202)" style="fill: #ff120a; fill-opacity: 0.5; stroke: #000000; stroke-linejoin: miter"/>
   </g>
   <g id="patch_32">
    <path d="M 1301.16875 249.32 
L 1330.89375 249.32 
L 1330.89375 240.60368 
L 1301.16875 240.60368 
z
" clip-path="url(#pe5af746202)" style="fill: #ff120a; fill-opacity: 0.5; stroke: #000000; stroke-linejoin: miter"/>
   </g>
   <g id="patch_33">
    <path d="M 1330.89375 249.32 
L 1360.61875 249.32 
L 1360.61875 242.217813 
L 1330.89375 242.217813 
z
" clip-path="url(#pe5af746202)" style="fill: #ff120a; fill-opacity: 0.5; stroke: #000000; stroke-linejoin: miter"/>
   </g>
   <g id="patch_34">
    <path d="M 1360.61875 249.32 
L 1390.34375 249.32 
L 1390.34375 234.469973 
L 1360.61875 234.469973 
z
" clip-path="url(#pe5af746202)" style="fill: #ff120a; fill-opacity: 0.5; stroke: #000000; stroke-linejoin: miter"/>
   </g>
   <g id="patch_35">
    <path d="M 201.34375 249.32 
L 231.06875 249.32 
L 231.06875 249.32 
L 201.34375 249.32 
z
" clip-path="url(#pe5af746202)" style="fill: #ff120a; fill-opacity: 0.5; stroke: #000000; stroke-linejoin: miter"/>
   </g>
   <g id="patch_36">
    <path d="M 231.06875 249.32 
L 260.79375 249.32 
L 260.79375 249.32 
L 231.06875 249.32 
z
" clip-path="url(#pe5af746202)" style="fill: #ff120a; fill-opacity: 0.5; stroke: #000000; stroke-linejoin: miter"/>
   </g>
   <g id="patch_37">
    <path d="M 260.79375 249.32 
L 290.51875 249.32 
L 290.51875 249.32 
L 260.79375 249.32 
z
" clip-path="url(#pe5af746202)" style="fill: #ff120a; fill-opacity: 0.5; stroke: #000000; stroke-linejoin: miter"/>
   </g>
   <g id="patch_38">
    <path d="M 290.51875 249.32 
L 320.24375 249.32 
L 320.24375 249.32 
L 290.51875 249.32 
z
" clip-path="url(#pe5af746202)" style="fill: #ff120a; fill-opacity: 0.5; stroke: #000000; stroke-linejoin: miter"/>
   </g>
   <g id="patch_39">
    <path d="M 320.24375 249.32 
L 349.96875 249.32 
L 349.96875 249.32 
L 320.24375 249.32 
z
" clip-path="url(#pe5af746202)" style="fill: #ff120a; fill-opacity: 0.5; stroke: #000000; stroke-linejoin: miter"/>
   </g>
   <g id="patch_40">
    <path d="M 349.96875 249.32 
L 379.69375 249.32 
L 379.69375 249.32 
L 349.96875 249.32 
z
" clip-path="url(#pe5af746202)" style="fill: #ff120a; fill-opacity: 0.5; stroke: #000000; stroke-linejoin: miter"/>
   </g>
   <g id="patch_41">
    <path d="M 379.69375 249.32 
L 409.41875 249.32 
L 409.41875 249.32 
L 379.69375 249.32 
z
" clip-path="url(#pe5af746202)" style="fill: #ff120a; fill-opacity: 0.5; stroke: #000000; stroke-linejoin: miter"/>
   </g>
   <g id="patch_42">
    <path d="M 409.41875 249.32 
L 439.14375 249.32 
L 439.14375 249.32 
L 409.41875 249.32 
z
" clip-path="url(#pe5af746202)" style="fill: #ff120a; fill-opacity: 0.5; stroke: #000000; stroke-linejoin: miter"/>
   </g>
   <g id="patch_43">
    <path d="M 439.14375 249.32 
L 468.86875 249.32 
L 468.86875 249.32 
L 439.14375 249.32 
z
" clip-path="url(#pe5af746202)" style="fill: #ff120a; fill-opacity: 0.5; stroke: #000000; stroke-linejoin: miter"/>
   </g>
   <g id="patch_44">
    <path d="M 468.86875 249.32 
L 498.59375 249.32 
L 498.59375 249.32 
L 468.86875 249.32 
z
" clip-path="url(#pe5af746202)" style="fill: #ff120a; fill-opacity: 0.5; stroke: #000000; stroke-linejoin: miter"/>
   </g>
   <g id="patch_45">
    <path d="M 498.59375 249.32 
L 647.21875 249.32 
L 647.21875 249.32 
L 498.59375 249.32 
z
" clip-path="url(#pe5af746202)" style="fill: #ff120a; fill-opacity: 0.5; stroke: #000000; stroke-linejoin: miter"/>
   </g>
   <g id="patch_46">
    <path d="M 647.21875 249.32 
L 676.94375 249.32 
L 676.94375 167.96768 
L 647.21875 167.96768 
z
" clip-path="url(#pe5af746202)" style="fill: #ff120a; fill-opacity: 0.5; stroke: #000000; stroke-linejoin: miter"/>
   </g>
   <g id="patch_47">
    <path d="M 676.94375 249.32 
L 706.66875 249.32 
L 706.66875 220.911253 
L 676.94375 220.911253 
z
" clip-path="url(#pe5af746202)" style="fill: #ff120a; fill-opacity: 0.5; stroke: #000000; stroke-linejoin: miter"/>
   </g>
   <g id="patch_48">
    <path d="M 706.66875 249.32 
L 736.39375 249.32 
L 736.39375 229.9504 
L 706.66875 229.9504 
z
" clip-path="url(#pe5af746202)" style="fill: #ff120a; fill-opacity: 0.5; stroke: #000000; stroke-linejoin: miter"/>
   </g>
   <g id="patch_49">
    <path d="M 736.39375 249.32 
L 766.11875 249.32 
L 766.11875 237.375413 
L 736.39375 237.375413 
z
" clip-path="url(#pe5af746202)" style="fill: #ff120a; fill-opacity: 0.5; stroke: #000000; stroke-linejoin: miter"/>
   </g>
   <g id="patch_50">
    <path d="M 766.11875 249.32 
L 795.84375 249.32 
L 795.84375 238.343893 
L 766.11875 238.343893 
z
" clip-path="url(#pe5af746202)" style="fill: #ff120a; fill-opacity: 0.5; stroke: #000000; stroke-linejoin: miter"/>
   </g>
   <g id="patch_51">
    <path d="M 795.84375 249.32 
L 825.56875 249.32 
L 825.56875 243.186293 
L 795.84375 243.186293 
z
" clip-path="url(#pe5af746202)" style="fill: #ff120a; fill-opacity: 0.5; stroke: #000000; stroke-linejoin: miter"/>
   </g>
   <g id="patch_52">
    <path d="M 825.56875 249.32 
L 855.29375 249.32 
L 855.29375 242.863467 
L 825.56875 242.863467 
z
" clip-path="url(#pe5af746202)" style="fill: #ff120a; fill-opacity: 0.5; stroke: #000000; stroke-linejoin: miter"/>
   </g>
   <g id="patch_53">
    <path d="M 855.29375 249.32 
L 885.01875 249.32 
L 885.01875 242.54064 
L 855.29375 242.54064 
z
" clip-path="url(#pe5af746202)" style="fill: #ff120a; fill-opacity: 0.5; stroke: #000000; stroke-linejoin: miter"/>
   </g>
   <g id="patch_54">
    <path d="M 885.01875 249.32 
L 914.74375 249.32 
L 914.74375 242.54064 
L 885.01875 242.54064 
z
" clip-path="url(#pe5af746202)" style="fill: #ff120a; fill-opacity: 0.5; stroke: #000000; stroke-linejoin: miter"/>
   </g>
   <g id="patch_55">
    <path d="M 914.74375 249.32 
L 944.46875 249.32 
L 944.46875 235.438453 
L 914.74375 235.438453 
z
" clip-path="url(#pe5af746202)" style="fill: #ff120a; fill-opacity: 0.5; stroke: #000000; stroke-linejoin: miter"/>
   </g>
   <g id="patch_56">
    <path d="M 944.46875 249.32 
L 1093.09375 249.32 
L 1093.09375 249.32 
L 944.46875 249.32 
z
" clip-path="url(#pe5af746202)" style="fill: #ff120a; fill-opacity: 0.5; stroke: #000000; stroke-linejoin: miter"/>
   </g>
   <g id="patch_57">
    <path d="M 1093.09375 249.32 
L 1122.81875 249.32 
L 1122.81875 249.32 
L 1093.09375 249.32 
z
" clip-path="url(#pe5af746202)" style="fill: #ff120a; fill-opacity: 0.5; stroke: #000000; stroke-linejoin: miter"/>
   </g>
   <g id="patch_58">
    <path d="M 1122.81875 249.32 
L 1152.54375 249.32 
L 1152.54375 249.32 
L 1122.81875 249.32 
z
" clip-path="url(#pe5af746202)" style="fill: #ff120a; fill-opacity: 0.5; stroke: #000000; stroke-linejoin: miter"/>
   </g>
   <g id="patch_59">
    <path d="M 1152.54375 249.32 
L 1182.26875 249.32 
L 1182.26875 249.32 
L 1152.54375 249.32 
z
" clip-path="url(#pe5af746202)" style="fill: #ff120a; fill-opacity: 0.5; stroke: #000000; stroke-linejoin: miter"/>
   </g>
   <g id="patch_60">
    <path d="M 1182.26875 249.32 
L 1211.99375 249.32 
L 1211.99375 249.32 
L 1182.26875 249.32 
z
" clip-path="url(#pe5af746202)" style="fill: #ff120a; fill-opacity: 0.5; stroke: #000000; stroke-linejoin: miter"/>
   </g>
   <g id="patch_61">
    <path d="M 1211.99375 249.32 
L 1241.71875 249.32 
L 1241.71875 249.32 
L 1211.99375 249.32 
z
" clip-path="url(#pe5af746202)" style="fill: #ff120a; fill-opacity: 0.5; stroke: #000000; stroke-linejoin: miter"/>
   </g>
   <g id="patch_62">
    <path d="M 1241.71875 249.32 
L 1271.44375 249.32 
L 1271.44375 249.32 
L 1241.71875 249.32 
z
" clip-path="url(#pe5af746202)" style="fill: #ff120a; fill-opacity: 0.5; stroke: #000000; stroke-linejoin: miter"/>
   </g>
   <g id="patch_63">
    <path d="M 1271.44375 249.32 
L 1301.16875 249.32 
L 1301.16875 249.32 
L 1271.44375 249.32 
z
" clip-path="url(#pe5af746202)" style="fill: #ff120a; fill-opacity: 0.5; stroke: #000000; stroke-linejoin: miter"/>
   </g>
   <g id="patch_64">
    <path d="M 1301.16875 249.32 
L 1330.89375 249.32 
L 1330.89375 249.32 
L 1301.16875 249.32 
z
" clip-path="url(#pe5af746202)" style="fill: #ff120a; fill-opacity: 0.5; stroke: #000000; stroke-linejoin: miter"/>
   </g>
   <g id="patch_65">
    <path d="M 1330.89375 249.32 
L 1360.61875 249.32 
L 1360.61875 249.32 
L 1330.89375 249.32 
z
" clip-path="url(#pe5af746202)" style="fill: #ff120a; fill-opacity: 0.5; stroke: #000000; stroke-linejoin: miter"/>
   </g>
   <g id="patch_66">
    <path d="M 1360.61875 249.32 
L 1390.34375 249.32 
L 1390.34375 249.32 
L 1360.61875 249.32 
z
" clip-path="url(#pe5af746202)" style="fill: #ff120a; fill-opacity: 0.5; stroke: #000000; stroke-linejoin: miter"/>
   </g>
   <g id="patch_67">
    <path d="M 201.34375 249.32 
L 231.06875 249.32 
L 231.06875 243.186293 
L 201.34375 243.186293 
z
" clip-path="url(#pe5af746202)" style="fill: #ff120a; fill-opacity: 0.5; stroke: #000000; stroke-linejoin: miter"/>
   </g>
   <g id="patch_68">
    <path d="M 231.06875 249.32 
L 260.79375 249.32 
L 260.79375 191.2112 
L 231.06875 191.2112 
z
" clip-path="url(#pe5af746202)" style="fill: #ff120a; fill-opacity: 0.5; stroke: #000000; stroke-linejoin: miter"/>
   </g>
   <g id="patch_69">
    <path d="M 260.79375 249.32 
L 290.51875 249.32 
L 290.51875 208.64384 
L 260.79375 208.64384 
z
" clip-path="url(#pe5af746202)" style="fill: #ff120a; fill-opacity: 0.5; stroke: #000000; stroke-linejoin: miter"/>
   </g>
   <g id="patch_70">
    <path d="M 290.51875 249.32 
L 320.24375 249.32 
L 320.24375 218.005813 
L 290.51875 218.005813 
z
" clip-path="url(#pe5af746202)" style="fill: #ff120a; fill-opacity: 0.5; stroke: #000000; stroke-linejoin: miter"/>
   </g>
   <g id="patch_71">
    <path d="M 320.24375 249.32 
L 349.96875 249.32 
L 349.96875 233.501493 
L 320.24375 233.501493 
z
" clip-path="url(#pe5af746202)" style="fill: #ff120a; fill-opacity: 0.5; stroke: #000000; stroke-linejoin: miter"/>
   </g>
   <g id="patch_72">
    <path d="M 349.96875 249.32 
L 379.69375 249.32 
L 379.69375 233.82432 
L 349.96875 233.82432 
z
" clip-path="url(#pe5af746202)" style="fill: #ff120a; fill-opacity: 0.5; stroke: #000000; stroke-linejoin: miter"/>
   </g>
   <g id="patch_73">
    <path d="M 379.69375 249.32 
L 409.41875 249.32 
L 409.41875 238.021067 
L 379.69375 238.021067 
z
" clip-path="url(#pe5af746202)" style="fill: #ff120a; fill-opacity: 0.5; stroke: #000000; stroke-linejoin: miter"/>
   </g>
   <g id="patch_74">
    <path d="M 409.41875 249.32 
L 439.14375 249.32 
L 439.14375 243.50912 
L 409.41875 243.50912 
z
" clip-path="url(#pe5af746202)" style="fill: #ff120a; fill-opacity: 0.5; stroke: #000000; stroke-linejoin: miter"/>
   </g>
   <g id="patch_75">
    <path d="M 439.14375 249.32 
L 468.86875 249.32 
L 468.86875 246.091733 
L 439.14375 246.091733 
z
" clip-path="url(#pe5af746202)" style="fill: #ff120a; fill-opacity: 0.5; stroke: #000000; stroke-linejoin: miter"/>
   </g>
   <g id="patch_76">
    <path d="M 468.86875 249.32 
L 498.59375 249.32 
L 498.59375 245.123253 
L 468.86875 245.123253 
z
" clip-path="url(#pe5af746202)" style="fill: #ff120a; fill-opacity: 0.5; stroke: #000000; stroke-linejoin: miter"/>
   </g>
   <g id="patch_77">
    <path d="M 498.59375 249.32 
L 647.21875 249.32 
L 647.21875 249.32 
L 498.59375 249.32 
z
" clip-path="url(#pe5af746202)" style="fill: #ff120a; fill-opacity: 0.5; stroke: #000000; stroke-linejoin: miter"/>
   </g>
   <g id="patch_78">
    <path d="M 647.21875 249.32 
L 676.94375 249.32 
L 676.94375 249.32 
L 647.21875 249.32 
z
" clip-path="url(#pe5af746202)" style="fill: #ff120a; fill-opacity: 0.5; stroke: #000000; stroke-linejoin: miter"/>
   </g>
   <g id="patch_79">
    <path d="M 676.94375 249.32 
L 706.66875 249.32 
L 706.66875 249.32 
L 676.94375 249.32 
z
" clip-path="url(#pe5af746202)" style="fill: #ff120a; fill-opacity: 0.5; stroke: #000000; stroke-linejoin: miter"/>
   </g>
   <g id="patch_80">
    <path d="M 706.66875 249.32 
L 736.39375 249.32 
L 736.39375 249.32 
L 706.66875 249.32 
z
" clip-path="url(#pe5af746202)" style="fill: #ff120a; fill-opacity: 0.5; stroke: #000000; stroke-linejoin: miter"/>
   </g>
   <g id="patch_81">
    <path d="M 736.39375 249.32 
L 766.11875 249.32 
L 766.11875 249.32 
L 736.39375 249.32 
z
" clip-path="url(#pe5af746202)" style="fill: #ff120a; fill-opacity: 0.5; stroke: #000000; stroke-linejoin: miter"/>
   </g>
   <g id="patch_82">
    <path d="M 766.11875 249.32 
L 795.84375 249.32 
L 795.84375 249.32 
L 766.11875 249.32 
z
" clip-path="url(#pe5af746202)" style="fill: #ff120a; fill-opacity: 0.5; stroke: #000000; stroke-linejoin: miter"/>
   </g>
   <g id="patch_83">
    <path d="M 795.84375 249.32 
L 825.56875 249.32 
L 825.56875 249.32 
L 795.84375 249.32 
z
" clip-path="url(#pe5af746202)" style="fill: #ff120a; fill-opacity: 0.5; stroke: #000000; stroke-linejoin: miter"/>
   </g>
   <g id="patch_84">
    <path d="M 825.56875 249.32 
L 855.29375 249.32 
L 855.29375 249.32 
L 825.56875 249.32 
z
" clip-path="url(#pe5af746202)" style="fill: #ff120a; fill-opacity: 0.5; stroke: #000000; stroke-linejoin: miter"/>
   </g>
   <g id="patch_85">
    <path d="M 855.29375 249.32 
L 885.01875 249.32 
L 885.01875 249.32 
L 855.29375 249.32 
z
" clip-path="url(#pe5af746202)" style="fill: #ff120a; fill-opacity: 0.5; stroke: #000000; stroke-linejoin: miter"/>
   </g>
   <g id="patch_86">
    <path d="M 885.01875 249.32 
L 914.74375 249.32 
L 914.74375 249.32 
L 885.01875 249.32 
z
" clip-path="url(#pe5af746202)" style="fill: #ff120a; fill-opacity: 0.5; stroke: #000000; stroke-linejoin: miter"/>
   </g>
   <g id="patch_87">
    <path d="M 914.74375 249.32 
L 944.46875 249.32 
L 944.46875 249.32 
L 914.74375 249.32 
z
" clip-path="url(#pe5af746202)" style="fill: #ff120a; fill-opacity: 0.5; stroke: #000000; stroke-linejoin: miter"/>
   </g>
   <g id="patch_88">
    <path d="M 944.46875 249.32 
L 1093.09375 249.32 
L 1093.09375 249.32 
L 944.46875 249.32 
z
" clip-path="url(#pe5af746202)" style="fill: #ff120a; fill-opacity: 0.5; stroke: #000000; stroke-linejoin: miter"/>
   </g>
   <g id="patch_89">
    <path d="M 1093.09375 249.32 
L 1122.81875 249.32 
L 1122.81875 249.32 
L 1093.09375 249.32 
z
" clip-path="url(#pe5af746202)" style="fill: #ff120a; fill-opacity: 0.5; stroke: #000000; stroke-linejoin: miter"/>
   </g>
   <g id="patch_90">
    <path d="M 1122.81875 249.32 
L 1152.54375 249.32 
L 1152.54375 249.32 
L 1122.81875 249.32 
z
" clip-path="url(#pe5af746202)" style="fill: #ff120a; fill-opacity: 0.5; stroke: #000000; stroke-linejoin: miter"/>
   </g>
   <g id="patch_91">
    <path d="M 1152.54375 249.32 
L 1182.26875 249.32 
L 1182.26875 249.32 
L 1152.54375 249.32 
z
" clip-path="url(#pe5af746202)" style="fill: #ff120a; fill-opacity: 0.5; stroke: #000000; stroke-linejoin: miter"/>
   </g>
   <g id="patch_92">
    <path d="M 1182.26875 249.32 
L 1211.99375 249.32 
L 1211.99375 249.32 
L 1182.26875 249.32 
z
" clip-path="url(#pe5af746202)" style="fill: #ff120a; fill-opacity: 0.5; stroke: #000000; stroke-linejoin: miter"/>
   </g>
   <g id="patch_93">
    <path d="M 1211.99375 249.32 
L 1241.71875 249.32 
L 1241.71875 249.32 
L 1211.99375 249.32 
z
" clip-path="url(#pe5af746202)" style="fill: #ff120a; fill-opacity: 0.5; stroke: #000000; stroke-linejoin: miter"/>
   </g>
   <g id="patch_94">
    <path d="M 1241.71875 249.32 
L 1271.44375 249.32 
L 1271.44375 249.32 
L 1241.71875 249.32 
z
" clip-path="url(#pe5af746202)" style="fill: #ff120a; fill-opacity: 0.5; stroke: #000000; stroke-linejoin: miter"/>
   </g>
   <g id="patch_95">
    <path d="M 1271.44375 249.32 
L 1301.16875 249.32 
L 1301.16875 249.32 
L 1271.44375 249.32 
z
" clip-path="url(#pe5af746202)" style="fill: #ff120a; fill-opacity: 0.5; stroke: #000000; stroke-linejoin: miter"/>
   </g>
   <g id="patch_96">
    <path d="M 1301.16875 249.32 
L 1330.89375 249.32 
L 1330.89375 249.32 
L 1301.16875 249.32 
z
" clip-path="url(#pe5af746202)" style="fill: #ff120a; fill-opacity: 0.5; stroke: #000000; stroke-linejoin: miter"/>
   </g>
   <g id="patch_97">
    <path d="M 1330.89375 249.32 
L 1360.61875 249.32 
L 1360.61875 249.32 
L 1330.89375 249.32 
z
" clip-path="url(#pe5af746202)" style="fill: #ff120a; fill-opacity: 0.5; stroke: #000000; stroke-linejoin: miter"/>
   </g>
   <g id="patch_98">
    <path d="M 1360.61875 249.32 
L 1390.34375 249.32 
L 1390.34375 249.32 
L 1360.61875 249.32 
z
" clip-path="url(#pe5af746202)" style="fill: #ff120a; fill-opacity: 0.5; stroke: #000000; stroke-linejoin: miter"/>
   </g>
   <g id="patch_99">
    <path d="M 201.34375 249.32 
L 231.06875 249.32 
L 231.06875 249.32 
L 201.34375 249.32 
z
" clip-path="url(#pe5af746202)" style="fill: #2e85ff; fill-opacity: 0.5; stroke: #000000; stroke-linejoin: miter"/>
   </g>
   <g id="patch_100">
    <path d="M 231.06875 249.32 
L 260.79375 249.32 
L 260.79375 249.32 
L 231.06875 249.32 
z
" clip-path="url(#pe5af746202)" style="fill: #2e85ff; fill-opacity: 0.5; stroke: #000000; stroke-linejoin: miter"/>
   </g>
   <g id="patch_101">
    <path d="M 260.79375 249.32 
L 290.51875 249.32 
L 290.51875 249.32 
L 260.79375 249.32 
z
" clip-path="url(#pe5af746202)" style="fill: #2e85ff; fill-opacity: 0.5; stroke: #000000; stroke-linejoin: miter"/>
   </g>
   <g id="patch_102">
    <path d="M 290.51875 249.32 
L 320.24375 249.32 
L 320.24375 249.32 
L 290.51875 249.32 
z
" clip-path="url(#pe5af746202)" style="fill: #2e85ff; fill-opacity: 0.5; stroke: #000000; stroke-linejoin: miter"/>
   </g>
   <g id="patch_103">
    <path d="M 320.24375 249.32 
L 349.96875 249.32 
L 349.96875 249.32 
L 320.24375 249.32 
z
" clip-path="url(#pe5af746202)" style="fill: #2e85ff; fill-opacity: 0.5; stroke: #000000; stroke-linejoin: miter"/>
   </g>
   <g id="patch_104">
    <path d="M 349.96875 249.32 
L 379.69375 249.32 
L 379.69375 249.32 
L 349.96875 249.32 
z
" clip-path="url(#pe5af746202)" style="fill: #2e85ff; fill-opacity: 0.5; stroke: #000000; stroke-linejoin: miter"/>
   </g>
   <g id="patch_105">
    <path d="M 379.69375 249.32 
L 409.41875 249.32 
L 409.41875 249.32 
L 379.69375 249.32 
z
" clip-path="url(#pe5af746202)" style="fill: #2e85ff; fill-opacity: 0.5; stroke: #000000; stroke-linejoin: miter"/>
   </g>
   <g id="patch_106">
    <path d="M 409.41875 249.32 
L 439.14375 249.32 
L 439.14375 249.32 
L 409.41875 249.32 
z
" clip-path="url(#pe5af746202)" style="fill: #2e85ff; fill-opacity: 0.5; stroke: #000000; stroke-linejoin: miter"/>
   </g>
   <g id="patch_107">
    <path d="M 439.14375 249.32 
L 468.86875 249.32 
L 468.86875 249.32 
L 439.14375 249.32 
z
" clip-path="url(#pe5af746202)" style="fill: #2e85ff; fill-opacity: 0.5; stroke: #000000; stroke-linejoin: miter"/>
   </g>
   <g id="patch_108">
    <path d="M 468.86875 249.32 
L 498.59375 249.32 
L 498.59375 249.32 
L 468.86875 249.32 
z
" clip-path="url(#pe5af746202)" style="fill: #2e85ff; fill-opacity: 0.5; stroke: #000000; stroke-linejoin: miter"/>
   </g>
   <g id="patch_109">
    <path d="M 498.59375 249.32 
L 647.21875 249.32 
L 647.21875 249.32 
L 498.59375 249.32 
z
" clip-path="url(#pe5af746202)" style="fill: #2e85ff; fill-opacity: 0.5; stroke: #000000; stroke-linejoin: miter"/>
   </g>
   <g id="patch_110">
    <path d="M 647.21875 249.32 
L 676.94375 249.32 
L 676.94375 249.32 
L 647.21875 249.32 
z
" clip-path="url(#pe5af746202)" style="fill: #2e85ff; fill-opacity: 0.5; stroke: #000000; stroke-linejoin: miter"/>
   </g>
   <g id="patch_111">
    <path d="M 676.94375 249.32 
L 706.66875 249.32 
L 706.66875 249.32 
L 676.94375 249.32 
z
" clip-path="url(#pe5af746202)" style="fill: #2e85ff; fill-opacity: 0.5; stroke: #000000; stroke-linejoin: miter"/>
   </g>
   <g id="patch_112">
    <path d="M 706.66875 249.32 
L 736.39375 249.32 
L 736.39375 249.32 
L 706.66875 249.32 
z
" clip-path="url(#pe5af746202)" style="fill: #2e85ff; fill-opacity: 0.5; stroke: #000000; stroke-linejoin: miter"/>
   </g>
   <g id="patch_113">
    <path d="M 736.39375 249.32 
L 766.11875 249.32 
L 766.11875 249.32 
L 736.39375 249.32 
z
" clip-path="url(#pe5af746202)" style="fill: #2e85ff; fill-opacity: 0.5; stroke: #000000; stroke-linejoin: miter"/>
   </g>
   <g id="patch_114">
    <path d="M 766.11875 249.32 
L 795.84375 249.32 
L 795.84375 249.32 
L 766.11875 249.32 
z
" clip-path="url(#pe5af746202)" style="fill: #2e85ff; fill-opacity: 0.5; stroke: #000000; stroke-linejoin: miter"/>
   </g>
   <g id="patch_115">
    <path d="M 795.84375 249.32 
L 825.56875 249.32 
L 825.56875 249.32 
L 795.84375 249.32 
z
" clip-path="url(#pe5af746202)" style="fill: #2e85ff; fill-opacity: 0.5; stroke: #000000; stroke-linejoin: miter"/>
   </g>
   <g id="patch_116">
    <path d="M 825.56875 249.32 
L 855.29375 249.32 
L 855.29375 249.32 
L 825.56875 249.32 
z
" clip-path="url(#pe5af746202)" style="fill: #2e85ff; fill-opacity: 0.5; stroke: #000000; stroke-linejoin: miter"/>
   </g>
   <g id="patch_117">
    <path d="M 855.29375 249.32 
L 885.01875 249.32 
L 885.01875 249.32 
L 855.29375 249.32 
z
" clip-path="url(#pe5af746202)" style="fill: #2e85ff; fill-opacity: 0.5; stroke: #000000; stroke-linejoin: miter"/>
   </g>
   <g id="patch_118">
    <path d="M 885.01875 249.32 
L 914.74375 249.32 
L 914.74375 249.32 
L 885.01875 249.32 
z
" clip-path="url(#pe5af746202)" style="fill: #2e85ff; fill-opacity: 0.5; stroke: #000000; stroke-linejoin: miter"/>
   </g>
   <g id="patch_119">
    <path d="M 914.74375 249.32 
L 944.46875 249.32 
L 944.46875 249.32 
L 914.74375 249.32 
z
" clip-path="url(#pe5af746202)" style="fill: #2e85ff; fill-opacity: 0.5; stroke: #000000; stroke-linejoin: miter"/>
   </g>
   <g id="patch_120">
    <path d="M 944.46875 249.32 
L 1093.09375 249.32 
L 1093.09375 249.32 
L 944.46875 249.32 
z
" clip-path="url(#pe5af746202)" style="fill: #2e85ff; fill-opacity: 0.5; stroke: #000000; stroke-linejoin: miter"/>
   </g>
   <g id="patch_121">
    <path d="M 1093.09375 249.32 
L 1122.81875 249.32 
L 1122.81875 224.13952 
L 1093.09375 224.13952 
z
" clip-path="url(#pe5af746202)" style="fill: #2e85ff; fill-opacity: 0.5; stroke: #000000; stroke-linejoin: miter"/>
   </g>
   <g id="patch_122">
    <path d="M 1122.81875 249.32 
L 1152.54375 249.32 
L 1152.54375 233.82432 
L 1122.81875 233.82432 
z
" clip-path="url(#pe5af746202)" style="fill: #2e85ff; fill-opacity: 0.5; stroke: #000000; stroke-linejoin: miter"/>
   </g>
   <g id="patch_123">
    <path d="M 1152.54375 249.32 
L 1182.26875 249.32 
L 1182.26875 239.312373 
L 1152.54375 239.312373 
z
" clip-path="url(#pe5af746202)" style="fill: #2e85ff; fill-opacity: 0.5; stroke: #000000; stroke-linejoin: miter"/>
   </g>
   <g id="patch_124">
    <path d="M 1182.26875 249.32 
L 1211.99375 249.32 
L 1211.99375 241.894987 
L 1182.26875 241.894987 
z
" clip-path="url(#pe5af746202)" style="fill: #2e85ff; fill-opacity: 0.5; stroke: #000000; stroke-linejoin: miter"/>
   </g>
   <g id="patch_125">
    <path d="M 1211.99375 249.32 
L 1241.71875 249.32 
L 1241.71875 236.084107 
L 1211.99375 236.084107 
z
" clip-path="url(#pe5af746202)" style="fill: #2e85ff; fill-opacity: 0.5; stroke: #000000; stroke-linejoin: miter"/>
   </g>
   <g id="patch_126">
    <path d="M 1241.71875 249.32 
L 1271.44375 249.32 
L 1271.44375 231.564533 
L 1241.71875 231.564533 
z
" clip-path="url(#pe5af746202)" style="fill: #2e85ff; fill-opacity: 0.5; stroke: #000000; stroke-linejoin: miter"/>
   </g>
   <g id="patch_127">
    <path d="M 1271.44375 249.32 
L 1301.16875 249.32 
L 1301.16875 233.82432 
L 1271.44375 233.82432 
z
" clip-path="url(#pe5af746202)" style="fill: #2e85ff; fill-opacity: 0.5; stroke: #000000; stroke-linejoin: miter"/>
   </g>
   <g id="patch_128">
    <path d="M 1301.16875 249.32 
L 1330.89375 249.32 
L 1330.89375 220.2656 
L 1301.16875 220.2656 
z
" clip-path="url(#pe5af746202)" style="fill: #2e85ff; fill-opacity: 0.5; stroke: #000000; stroke-linejoin: miter"/>
   </g>
   <g id="patch_129">
    <path d="M 1330.89375 249.32 
L 1360.61875 249.32 
L 1360.61875 201.218827 
L 1330.89375 201.218827 
z
" clip-path="url(#pe5af746202)" style="fill: #2e85ff; fill-opacity: 0.5; stroke: #000000; stroke-linejoin: miter"/>
   </g>
   <g id="patch_130">
    <path d="M 1360.61875 249.32 
L 1390.34375 249.32 
L 1390.34375 29.152213 
L 1360.61875 29.152213 
z
" clip-path="url(#pe5af746202)" style="fill: #2e85ff; fill-opacity: 0.5; stroke: #000000; stroke-linejoin: miter"/>
   </g>
   <g id="patch_131">
    <path d="M 201.34375 249.32 
L 231.06875 249.32 
L 231.06875 249.32 
L 201.34375 249.32 
z
" clip-path="url(#pe5af746202)" style="fill: #2e85ff; fill-opacity: 0.5; stroke: #000000; stroke-linejoin: miter"/>
   </g>
   <g id="patch_132">
    <path d="M 231.06875 249.32 
L 260.79375 249.32 
L 260.79375 249.32 
L 231.06875 249.32 
z
" clip-path="url(#pe5af746202)" style="fill: #2e85ff; fill-opacity: 0.5; stroke: #000000; stroke-linejoin: miter"/>
   </g>
   <g id="patch_133">
    <path d="M 260.79375 249.32 
L 290.51875 249.32 
L 290.51875 249.32 
L 260.79375 249.32 
z
" clip-path="url(#pe5af746202)" style="fill: #2e85ff; fill-opacity: 0.5; stroke: #000000; stroke-linejoin: miter"/>
   </g>
   <g id="patch_134">
    <path d="M 290.51875 249.32 
L 320.24375 249.32 
L 320.24375 249.32 
L 290.51875 249.32 
z
" clip-path="url(#pe5af746202)" style="fill: #2e85ff; fill-opacity: 0.5; stroke: #000000; stroke-linejoin: miter"/>
   </g>
   <g id="patch_135">
    <path d="M 320.24375 249.32 
L 349.96875 249.32 
L 349.96875 249.32 
L 320.24375 249.32 
z
" clip-path="url(#pe5af746202)" style="fill: #2e85ff; fill-opacity: 0.5; stroke: #000000; stroke-linejoin: miter"/>
   </g>
   <g id="patch_136">
    <path d="M 349.96875 249.32 
L 379.69375 249.32 
L 379.69375 249.32 
L 349.96875 249.32 
z
" clip-path="url(#pe5af746202)" style="fill: #2e85ff; fill-opacity: 0.5; stroke: #000000; stroke-linejoin: miter"/>
   </g>
   <g id="patch_137">
    <path d="M 379.69375 249.32 
L 409.41875 249.32 
L 409.41875 249.32 
L 379.69375 249.32 
z
" clip-path="url(#pe5af746202)" style="fill: #2e85ff; fill-opacity: 0.5; stroke: #000000; stroke-linejoin: miter"/>
   </g>
   <g id="patch_138">
    <path d="M 409.41875 249.32 
L 439.14375 249.32 
L 439.14375 249.32 
L 409.41875 249.32 
z
" clip-path="url(#pe5af746202)" style="fill: #2e85ff; fill-opacity: 0.5; stroke: #000000; stroke-linejoin: miter"/>
   </g>
   <g id="patch_139">
    <path d="M 439.14375 249.32 
L 468.86875 249.32 
L 468.86875 249.32 
L 439.14375 249.32 
z
" clip-path="url(#pe5af746202)" style="fill: #2e85ff; fill-opacity: 0.5; stroke: #000000; stroke-linejoin: miter"/>
   </g>
   <g id="patch_140">
    <path d="M 468.86875 249.32 
L 498.59375 249.32 
L 498.59375 249.32 
L 468.86875 249.32 
z
" clip-path="url(#pe5af746202)" style="fill: #2e85ff; fill-opacity: 0.5; stroke: #000000; stroke-linejoin: miter"/>
   </g>
   <g id="patch_141">
    <path d="M 498.59375 249.32 
L 647.21875 249.32 
L 647.21875 249.32 
L 498.59375 249.32 
z
" clip-path="url(#pe5af746202)" style="fill: #2e85ff; fill-opacity: 0.5; stroke: #000000; stroke-linejoin: miter"/>
   </g>
   <g id="patch_142">
    <path d="M 647.21875 249.32 
L 676.94375 249.32 
L 676.94375 232.533013 
L 647.21875 232.533013 
z
" clip-path="url(#pe5af746202)" style="fill: #2e85ff; fill-opacity: 0.5; stroke: #000000; stroke-linejoin: miter"/>
   </g>
   <g id="patch_143">
    <path d="M 676.94375 249.32 
L 706.66875 249.32 
L 706.66875 225.753653 
L 676.94375 225.753653 
z
" clip-path="url(#pe5af746202)" style="fill: #2e85ff; fill-opacity: 0.5; stroke: #000000; stroke-linejoin: miter"/>
   </g>
   <g id="patch_144">
    <path d="M 706.66875 249.32 
L 736.39375 249.32 
L 736.39375 235.76128 
L 706.66875 235.76128 
z
" clip-path="url(#pe5af746202)" style="fill: #2e85ff; fill-opacity: 0.5; stroke: #000000; stroke-linejoin: miter"/>
   </g>
   <g id="patch_145">
    <path d="M 736.39375 249.32 
L 766.11875 249.32 
L 766.11875 235.438453 
L 736.39375 235.438453 
z
" clip-path="url(#pe5af746202)" style="fill: #2e85ff; fill-opacity: 0.5; stroke: #000000; stroke-linejoin: miter"/>
   </g>
   <g id="patch_146">
    <path d="M 766.11875 249.32 
L 795.84375 249.32 
L 795.84375 237.69824 
L 766.11875 237.69824 
z
" clip-path="url(#pe5af746202)" style="fill: #2e85ff; fill-opacity: 0.5; stroke: #000000; stroke-linejoin: miter"/>
   </g>
   <g id="patch_147">
    <path d="M 795.84375 249.32 
L 825.56875 249.32 
L 825.56875 232.85584 
L 795.84375 232.85584 
z
" clip-path="url(#pe5af746202)" style="fill: #2e85ff; fill-opacity: 0.5; stroke: #000000; stroke-linejoin: miter"/>
   </g>
   <g id="patch_148">
    <path d="M 825.56875 249.32 
L 855.29375 249.32 
L 855.29375 232.533013 
L 825.56875 232.533013 
z
" clip-path="url(#pe5af746202)" style="fill: #2e85ff; fill-opacity: 0.5; stroke: #000000; stroke-linejoin: miter"/>
   </g>
   <g id="patch_149">
    <path d="M 855.29375 249.32 
L 885.01875 249.32 
L 885.01875 227.367787 
L 855.29375 227.367787 
z
" clip-path="url(#pe5af746202)" style="fill: #2e85ff; fill-opacity: 0.5; stroke: #000000; stroke-linejoin: miter"/>
   </g>
   <g id="patch_150">
    <path d="M 885.01875 249.32 
L 914.74375 249.32 
L 914.74375 215.746027 
L 885.01875 215.746027 
z
" clip-path="url(#pe5af746202)" style="fill: #2e85ff; fill-opacity: 0.5; stroke: #000000; stroke-linejoin: miter"/>
   </g>
   <g id="patch_151">
    <path d="M 914.74375 249.32 
L 944.46875 249.32 
L 944.46875 15.593493 
L 914.74375 15.593493 
z
" clip-path="url(#pe5af746202)" style="fill: #2e85ff; fill-opacity: 0.5; stroke: #000000; stroke-linejoin: miter"/>
   </g>
   <g id="patch_152">
    <path d="M 944.46875 249.32 
L 1093.09375 249.32 
L 1093.09375 249.32 
L 944.46875 249.32 
z
" clip-path="url(#pe5af746202)" style="fill: #2e85ff; fill-opacity: 0.5; stroke: #000000; stroke-linejoin: miter"/>
   </g>
   <g id="patch_153">
    <path d="M 1093.09375 249.32 
L 1122.81875 249.32 
L 1122.81875 249.32 
L 1093.09375 249.32 
z
" clip-path="url(#pe5af746202)" style="fill: #2e85ff; fill-opacity: 0.5; stroke: #000000; stroke-linejoin: miter"/>
   </g>
   <g id="patch_154">
    <path d="M 1122.81875 249.32 
L 1152.54375 249.32 
L 1152.54375 249.32 
L 1122.81875 249.32 
z
" clip-path="url(#pe5af746202)" style="fill: #2e85ff; fill-opacity: 0.5; stroke: #000000; stroke-linejoin: miter"/>
   </g>
   <g id="patch_155">
    <path d="M 1152.54375 249.32 
L 1182.26875 249.32 
L 1182.26875 249.32 
L 1152.54375 249.32 
z
" clip-path="url(#pe5af746202)" style="fill: #2e85ff; fill-opacity: 0.5; stroke: #000000; stroke-linejoin: miter"/>
   </g>
   <g id="patch_156">
    <path d="M 1182.26875 249.32 
L 1211.99375 249.32 
L 1211.99375 249.32 
L 1182.26875 249.32 
z
" clip-path="url(#pe5af746202)" style="fill: #2e85ff; fill-opacity: 0.5; stroke: #000000; stroke-linejoin: miter"/>
   </g>
   <g id="patch_157">
    <path d="M 1211.99375 249.32 
L 1241.71875 249.32 
L 1241.71875 249.32 
L 1211.99375 249.32 
z
" clip-path="url(#pe5af746202)" style="fill: #2e85ff; fill-opacity: 0.5; stroke: #000000; stroke-linejoin: miter"/>
   </g>
   <g id="patch_158">
    <path d="M 1241.71875 249.32 
L 1271.44375 249.32 
L 1271.44375 249.32 
L 1241.71875 249.32 
z
" clip-path="url(#pe5af746202)" style="fill: #2e85ff; fill-opacity: 0.5; stroke: #000000; stroke-linejoin: miter"/>
   </g>
   <g id="patch_159">
    <path d="M 1271.44375 249.32 
L 1301.16875 249.32 
L 1301.16875 249.32 
L 1271.44375 249.32 
z
" clip-path="url(#pe5af746202)" style="fill: #2e85ff; fill-opacity: 0.5; stroke: #000000; stroke-linejoin: miter"/>
   </g>
   <g id="patch_160">
    <path d="M 1301.16875 249.32 
L 1330.89375 249.32 
L 1330.89375 249.32 
L 1301.16875 249.32 
z
" clip-path="url(#pe5af746202)" style="fill: #2e85ff; fill-opacity: 0.5; stroke: #000000; stroke-linejoin: miter"/>
   </g>
   <g id="patch_161">
    <path d="M 1330.89375 249.32 
L 1360.61875 249.32 
L 1360.61875 249.32 
L 1330.89375 249.32 
z
" clip-path="url(#pe5af746202)" style="fill: #2e85ff; fill-opacity: 0.5; stroke: #000000; stroke-linejoin: miter"/>
   </g>
   <g id="patch_162">
    <path d="M 1360.61875 249.32 
L 1390.34375 249.32 
L 1390.34375 249.32 
L 1360.61875 249.32 
z
" clip-path="url(#pe5af746202)" style="fill: #2e85ff; fill-opacity: 0.5; stroke: #000000; stroke-linejoin: miter"/>
   </g>
   <g id="patch_163">
    <path d="M 201.34375 249.32 
L 231.06875 249.32 
L 231.06875 247.38304 
L 201.34375 247.38304 
z
" clip-path="url(#pe5af746202)" style="fill: #2e85ff; fill-opacity: 0.5; stroke: #000000; stroke-linejoin: miter"/>
   </g>
   <g id="patch_164">
    <path d="M 231.06875 249.32 
L 260.79375 249.32 
L 260.79375 229.304747 
L 231.06875 229.304747 
z
" clip-path="url(#pe5af746202)" style="fill: #2e85ff; fill-opacity: 0.5; stroke: #000000; stroke-linejoin: miter"/>
   </g>
   <g id="patch_165">
    <path d="M 260.79375 249.32 
L 290.51875 249.32 
L 290.51875 207.352533 
L 260.79375 207.352533 
z
" clip-path="url(#pe5af746202)" style="fill: #2e85ff; fill-opacity: 0.5; stroke: #000000; stroke-linejoin: miter"/>
   </g>
   <g id="patch_166">
    <path d="M 290.51875 249.32 
L 320.24375 249.32 
L 320.24375 218.651467 
L 290.51875 218.651467 
z
" clip-path="url(#pe5af746202)" style="fill: #2e85ff; fill-opacity: 0.5; stroke: #000000; stroke-linejoin: miter"/>
   </g>
   <g id="patch_167">
    <path d="M 320.24375 249.32 
L 349.96875 249.32 
L 349.96875 219.29712 
L 320.24375 219.29712 
z
" clip-path="url(#pe5af746202)" style="fill: #2e85ff; fill-opacity: 0.5; stroke: #000000; stroke-linejoin: miter"/>
   </g>
   <g id="patch_168">
    <path d="M 349.96875 249.32 
L 379.69375 249.32 
L 379.69375 214.777547 
L 349.96875 214.777547 
z
" clip-path="url(#pe5af746202)" style="fill: #2e85ff; fill-opacity: 0.5; stroke: #000000; stroke-linejoin: miter"/>
   </g>
   <g id="patch_169">
    <path d="M 379.69375 249.32 
L 409.41875 249.32 
L 409.41875 211.226453 
L 379.69375 211.226453 
z
" clip-path="url(#pe5af746202)" style="fill: #2e85ff; fill-opacity: 0.5; stroke: #000000; stroke-linejoin: miter"/>
   </g>
   <g id="patch_170">
    <path d="M 409.41875 249.32 
L 439.14375 249.32 
L 439.14375 215.100373 
L 409.41875 215.100373 
z
" clip-path="url(#pe5af746202)" style="fill: #2e85ff; fill-opacity: 0.5; stroke: #000000; stroke-linejoin: miter"/>
   </g>
   <g id="patch_171">
    <path d="M 439.14375 249.32 
L 468.86875 249.32 
L 468.86875 191.856853 
L 439.14375 191.856853 
z
" clip-path="url(#pe5af746202)" style="fill: #2e85ff; fill-opacity: 0.5; stroke: #000000; stroke-linejoin: miter"/>
   </g>
   <g id="patch_172">
    <path d="M 468.86875 249.32 
L 498.59375 249.32 
L 498.59375 136.330667 
L 468.86875 136.330667 
z
" clip-path="url(#pe5af746202)" style="fill: #2e85ff; fill-opacity: 0.5; stroke: #000000; stroke-linejoin: miter"/>
   </g>
   <g id="patch_173">
    <path d="M 498.59375 249.32 
L 647.21875 249.32 
L 647.21875 249.32 
L 498.59375 249.32 
z
" clip-path="url(#pe5af746202)" style="fill: #2e85ff; fill-opacity: 0.5; stroke: #000000; stroke-linejoin: miter"/>
   </g>
   <g id="patch_174">
    <path d="M 647.21875 249.32 
L 676.94375 249.32 
L 676.94375 249.32 
L 647.21875 249.32 
z
" clip-path="url(#pe5af746202)" style="fill: #2e85ff; fill-opacity: 0.5; stroke: #000000; stroke-linejoin: miter"/>
   </g>
   <g id="patch_175">
    <path d="M 676.94375 249.32 
L 706.66875 249.32 
L 706.66875 249.32 
L 676.94375 249.32 
z
" clip-path="url(#pe5af746202)" style="fill: #2e85ff; fill-opacity: 0.5; stroke: #000000; stroke-linejoin: miter"/>
   </g>
   <g id="patch_176">
    <path d="M 706.66875 249.32 
L 736.39375 249.32 
L 736.39375 249.32 
L 706.66875 249.32 
z
" clip-path="url(#pe5af746202)" style="fill: #2e85ff; fill-opacity: 0.5; stroke: #000000; stroke-linejoin: miter"/>
   </g>
   <g id="patch_177">
    <path d="M 736.39375 249.32 
L 766.11875 249.32 
L 766.11875 249.32 
L 736.39375 249.32 
z
" clip-path="url(#pe5af746202)" style="fill: #2e85ff; fill-opacity: 0.5; stroke: #000000; stroke-linejoin: miter"/>
   </g>
   <g id="patch_178">
    <path d="M 766.11875 249.32 
L 795.84375 249.32 
L 795.84375 249.32 
L 766.11875 249.32 
z
" clip-path="url(#pe5af746202)" style="fill: #2e85ff; fill-opacity: 0.5; stroke: #000000; stroke-linejoin: miter"/>
   </g>
   <g id="patch_179">
    <path d="M 795.84375 249.32 
L 825.56875 249.32 
L 825.56875 249.32 
L 795.84375 249.32 
z
" clip-path="url(#pe5af746202)" style="fill: #2e85ff; fill-opacity: 0.5; stroke: #000000; stroke-linejoin: miter"/>
   </g>
   <g id="patch_180">
    <path d="M 825.56875 249.32 
L 855.29375 249.32 
L 855.29375 249.32 
L 825.56875 249.32 
z
" clip-path="url(#pe5af746202)" style="fill: #2e85ff; fill-opacity: 0.5; stroke: #000000; stroke-linejoin: miter"/>
   </g>
   <g id="patch_181">
    <path d="M 855.29375 249.32 
L 885.01875 249.32 
L 885.01875 249.32 
L 855.29375 249.32 
z
" clip-path="url(#pe5af746202)" style="fill: #2e85ff; fill-opacity: 0.5; stroke: #000000; stroke-linejoin: miter"/>
   </g>
   <g id="patch_182">
    <path d="M 885.01875 249.32 
L 914.74375 249.32 
L 914.74375 249.32 
L 885.01875 249.32 
z
" clip-path="url(#pe5af746202)" style="fill: #2e85ff; fill-opacity: 0.5; stroke: #000000; stroke-linejoin: miter"/>
   </g>
   <g id="patch_183">
    <path d="M 914.74375 249.32 
L 944.46875 249.32 
L 944.46875 249.32 
L 914.74375 249.32 
z
" clip-path="url(#pe5af746202)" style="fill: #2e85ff; fill-opacity: 0.5; stroke: #000000; stroke-linejoin: miter"/>
   </g>
   <g id="patch_184">
    <path d="M 944.46875 249.32 
L 1093.09375 249.32 
L 1093.09375 249.32 
L 944.46875 249.32 
z
" clip-path="url(#pe5af746202)" style="fill: #2e85ff; fill-opacity: 0.5; stroke: #000000; stroke-linejoin: miter"/>
   </g>
   <g id="patch_185">
    <path d="M 1093.09375 249.32 
L 1122.81875 249.32 
L 1122.81875 249.32 
L 1093.09375 249.32 
z
" clip-path="url(#pe5af746202)" style="fill: #2e85ff; fill-opacity: 0.5; stroke: #000000; stroke-linejoin: miter"/>
   </g>
   <g id="patch_186">
    <path d="M 1122.81875 249.32 
L 1152.54375 249.32 
L 1152.54375 249.32 
L 1122.81875 249.32 
z
" clip-path="url(#pe5af746202)" style="fill: #2e85ff; fill-opacity: 0.5; stroke: #000000; stroke-linejoin: miter"/>
   </g>
   <g id="patch_187">
    <path d="M 1152.54375 249.32 
L 1182.26875 249.32 
L 1182.26875 249.32 
L 1152.54375 249.32 
z
" clip-path="url(#pe5af746202)" style="fill: #2e85ff; fill-opacity: 0.5; stroke: #000000; stroke-linejoin: miter"/>
   </g>
   <g id="patch_188">
    <path d="M 1182.26875 249.32 
L 1211.99375 249.32 
L 1211.99375 249.32 
L 1182.26875 249.32 
z
" clip-path="url(#pe5af746202)" style="fill: #2e85ff; fill-opacity: 0.5; stroke: #000000; stroke-linejoin: miter"/>
   </g>
   <g id="patch_189">
    <path d="M 1211.99375 249.32 
L 1241.71875 249.32 
L 1241.71875 249.32 
L 1211.99375 249.32 
z
" clip-path="url(#pe5af746202)" style="fill: #2e85ff; fill-opacity: 0.5; stroke: #000000; stroke-linejoin: miter"/>
   </g>
   <g id="patch_190">
    <path d="M 1241.71875 249.32 
L 1271.44375 249.32 
L 1271.44375 249.32 
L 1241.71875 249.32 
z
" clip-path="url(#pe5af746202)" style="fill: #2e85ff; fill-opacity: 0.5; stroke: #000000; stroke-linejoin: miter"/>
   </g>
   <g id="patch_191">
    <path d="M 1271.44375 249.32 
L 1301.16875 249.32 
L 1301.16875 249.32 
L 1271.44375 249.32 
z
" clip-path="url(#pe5af746202)" style="fill: #2e85ff; fill-opacity: 0.5; stroke: #000000; stroke-linejoin: miter"/>
   </g>
   <g id="patch_192">
    <path d="M 1301.16875 249.32 
L 1330.89375 249.32 
L 1330.89375 249.32 
L 1301.16875 249.32 
z
" clip-path="url(#pe5af746202)" style="fill: #2e85ff; fill-opacity: 0.5; stroke: #000000; stroke-linejoin: miter"/>
   </g>
   <g id="patch_193">
    <path d="M 1330.89375 249.32 
L 1360.61875 249.32 
L 1360.61875 249.32 
L 1330.89375 249.32 
z
" clip-path="url(#pe5af746202)" style="fill: #2e85ff; fill-opacity: 0.5; stroke: #000000; stroke-linejoin: miter"/>
   </g>
   <g id="patch_194">
    <path d="M 1360.61875 249.32 
L 1390.34375 249.32 
L 1390.34375 249.32 
L 1360.61875 249.32 
z
" clip-path="url(#pe5af746202)" style="fill: #2e85ff; fill-opacity: 0.5; stroke: #000000; stroke-linejoin: miter"/>
   </g>
   <g id="matplotlib.axis_1">
    <g id="xtick_1">
     <g id="line2d_1">
      <defs>
       <path id="m1f9621a4b5" d="M 0 0 
L 0 3.5 
" style="stroke: #000000; stroke-width: 0.8"/>
      </defs>
      <g>
       <use xlink:href="#m1f9621a4b5" x="201.34375" y="249.32" style="stroke: #000000; stroke-width: 0.8"/>
      </g>
     </g>
     <g id="text_1">
      <!-- 0.0 -->
      <g transform="translate(191.801875 265.438125) scale(0.12 -0.12)">
       <defs>
        <path id="DejaVuSans-30" d="M 2034 4250 
Q 1547 4250 1301 3770 
Q 1056 3291 1056 2328 
Q 1056 1369 1301 889 
Q 1547 409 2034 409 
Q 2525 409 2770 889 
Q 3016 1369 3016 2328 
Q 3016 3291 2770 3770 
Q 2525 4250 2034 4250 
z
M 2034 4750 
Q 2819 4750 3233 4129 
Q 3647 3509 3647 2328 
Q 3647 1150 3233 529 
Q 2819 -91 2034 -91 
Q 1250 -91 836 529 
Q 422 1150 422 2328 
Q 422 3509 836 4129 
Q 1250 4750 2034 4750 
z
" transform="scale(0.015625)"/>
        <path id="DejaVuSans-2e" d="M 684 794 
L 1344 794 
L 1344 0 
L 684 0 
L 684 794 
z
" transform="scale(0.015625)"/>
       </defs>
       <use xlink:href="#DejaVuSans-30"/>
       <use xlink:href="#DejaVuSans-2e" x="63.623047"/>
       <use xlink:href="#DejaVuSans-30" x="95.410156"/>
      </g>
     </g>
    </g>
    <g id="xtick_2">
     <g id="line2d_2">
      <g>
       <use xlink:href="#m1f9621a4b5" x="349.96875" y="249.32" style="stroke: #000000; stroke-width: 0.8"/>
      </g>
     </g>
     <g id="text_2">
      <!-- 0.5 -->
      <g transform="translate(340.426875 265.438125) scale(0.12 -0.12)">
       <defs>
        <path id="DejaVuSans-35" d="M 691 4666 
L 3169 4666 
L 3169 4134 
L 1269 4134 
L 1269 2991 
Q 1406 3038 1543 3061 
Q 1681 3084 1819 3084 
Q 2600 3084 3056 2656 
Q 3513 2228 3513 1497 
Q 3513 744 3044 326 
Q 2575 -91 1722 -91 
Q 1428 -91 1123 -41 
Q 819 9 494 109 
L 494 744 
Q 775 591 1075 516 
Q 1375 441 1709 441 
Q 2250 441 2565 725 
Q 2881 1009 2881 1497 
Q 2881 1984 2565 2268 
Q 2250 2553 1709 2553 
Q 1456 2553 1204 2497 
Q 953 2441 691 2322 
L 691 4666 
z
" transform="scale(0.015625)"/>
       </defs>
       <use xlink:href="#DejaVuSans-30"/>
       <use xlink:href="#DejaVuSans-2e" x="63.623047"/>
       <use xlink:href="#DejaVuSans-35" x="95.410156"/>
      </g>
     </g>
    </g>
    <g id="xtick_3">
     <g id="line2d_3">
      <g>
       <use xlink:href="#m1f9621a4b5" x="498.59375" y="249.32" style="stroke: #000000; stroke-width: 0.8"/>
      </g>
     </g>
     <g id="text_3">
      <!-- 1.0 -->
      <g transform="translate(489.051875 265.438125) scale(0.12 -0.12)">
       <defs>
        <path id="DejaVuSans-31" d="M 794 531 
L 1825 531 
L 1825 4091 
L 703 3866 
L 703 4441 
L 1819 4666 
L 2450 4666 
L 2450 531 
L 3481 531 
L 3481 0 
L 794 0 
L 794 531 
z
" transform="scale(0.015625)"/>
       </defs>
       <use xlink:href="#DejaVuSans-31"/>
       <use xlink:href="#DejaVuSans-2e" x="63.623047"/>
       <use xlink:href="#DejaVuSans-30" x="95.410156"/>
      </g>
     </g>
    </g>
    <g id="xtick_4">
     <g id="line2d_4">
      <g>
       <use xlink:href="#m1f9621a4b5" x="647.21875" y="249.32" style="stroke: #000000; stroke-width: 0.8"/>
      </g>
     </g>
     <g id="text_4">
      <!-- 0.0 -->
      <g transform="translate(637.676875 265.438125) scale(0.12 -0.12)">
       <use xlink:href="#DejaVuSans-30"/>
       <use xlink:href="#DejaVuSans-2e" x="63.623047"/>
       <use xlink:href="#DejaVuSans-30" x="95.410156"/>
      </g>
     </g>
    </g>
    <g id="xtick_5">
     <g id="line2d_5">
      <g>
       <use xlink:href="#m1f9621a4b5" x="795.84375" y="249.32" style="stroke: #000000; stroke-width: 0.8"/>
      </g>
     </g>
     <g id="text_5">
      <!-- 0.5 -->
      <g transform="translate(786.301875 265.438125) scale(0.12 -0.12)">
       <use xlink:href="#DejaVuSans-30"/>
       <use xlink:href="#DejaVuSans-2e" x="63.623047"/>
       <use xlink:href="#DejaVuSans-35" x="95.410156"/>
      </g>
     </g>
    </g>
    <g id="xtick_6">
     <g id="line2d_6">
      <g>
       <use xlink:href="#m1f9621a4b5" x="944.46875" y="249.32" style="stroke: #000000; stroke-width: 0.8"/>
      </g>
     </g>
     <g id="text_6">
      <!-- 1.0 -->
      <g transform="translate(934.926875 265.438125) scale(0.12 -0.12)">
       <use xlink:href="#DejaVuSans-31"/>
       <use xlink:href="#DejaVuSans-2e" x="63.623047"/>
       <use xlink:href="#DejaVuSans-30" x="95.410156"/>
      </g>
     </g>
    </g>
    <g id="xtick_7">
     <g id="line2d_7">
      <g>
       <use xlink:href="#m1f9621a4b5" x="1093.09375" y="249.32" style="stroke: #000000; stroke-width: 0.8"/>
      </g>
     </g>
     <g id="text_7">
      <!-- 0.0 -->
      <g transform="translate(1083.551875 265.438125) scale(0.12 -0.12)">
       <use xlink:href="#DejaVuSans-30"/>
       <use xlink:href="#DejaVuSans-2e" x="63.623047"/>
       <use xlink:href="#DejaVuSans-30" x="95.410156"/>
      </g>
     </g>
    </g>
    <g id="xtick_8">
     <g id="line2d_8">
      <g>
       <use xlink:href="#m1f9621a4b5" x="1241.71875" y="249.32" style="stroke: #000000; stroke-width: 0.8"/>
      </g>
     </g>
     <g id="text_8">
      <!-- 0.5 -->
      <g transform="translate(1232.176875 265.438125) scale(0.12 -0.12)">
       <use xlink:href="#DejaVuSans-30"/>
       <use xlink:href="#DejaVuSans-2e" x="63.623047"/>
       <use xlink:href="#DejaVuSans-35" x="95.410156"/>
      </g>
     </g>
    </g>
    <g id="xtick_9">
     <g id="line2d_9">
      <g>
       <use xlink:href="#m1f9621a4b5" x="1390.34375" y="249.32" style="stroke: #000000; stroke-width: 0.8"/>
      </g>
     </g>
     <g id="text_9">
      <!-- 1.0 -->
      <g transform="translate(1380.801875 265.438125) scale(0.12 -0.12)">
       <use xlink:href="#DejaVuSans-31"/>
       <use xlink:href="#DejaVuSans-2e" x="63.623047"/>
       <use xlink:href="#DejaVuSans-30" x="95.410156"/>
      </g>
     </g>
    </g>
    <g id="text_10">
     <!-- Predicted self assembly probability -->
     <g transform="translate(631.409688 281.051875) scale(0.12 -0.12)">
      <defs>
       <path id="DejaVuSans-50" d="M 1259 4147 
L 1259 2394 
L 2053 2394 
Q 2494 2394 2734 2622 
Q 2975 2850 2975 3272 
Q 2975 3691 2734 3919 
Q 2494 4147 2053 4147 
L 1259 4147 
z
M 628 4666 
L 2053 4666 
Q 2838 4666 3239 4311 
Q 3641 3956 3641 3272 
Q 3641 2581 3239 2228 
Q 2838 1875 2053 1875 
L 1259 1875 
L 1259 0 
L 628 0 
L 628 4666 
z
" transform="scale(0.015625)"/>
       <path id="DejaVuSans-72" d="M 2631 2963 
Q 2534 3019 2420 3045 
Q 2306 3072 2169 3072 
Q 1681 3072 1420 2755 
Q 1159 2438 1159 1844 
L 1159 0 
L 581 0 
L 581 3500 
L 1159 3500 
L 1159 2956 
Q 1341 3275 1631 3429 
Q 1922 3584 2338 3584 
Q 2397 3584 2469 3576 
Q 2541 3569 2628 3553 
L 2631 2963 
z
" transform="scale(0.015625)"/>
       <path id="DejaVuSans-65" d="M 3597 1894 
L 3597 1613 
L 953 1613 
Q 991 1019 1311 708 
Q 1631 397 2203 397 
Q 2534 397 2845 478 
Q 3156 559 3463 722 
L 3463 178 
Q 3153 47 2828 -22 
Q 2503 -91 2169 -91 
Q 1331 -91 842 396 
Q 353 884 353 1716 
Q 353 2575 817 3079 
Q 1281 3584 2069 3584 
Q 2775 3584 3186 3129 
Q 3597 2675 3597 1894 
z
M 3022 2063 
Q 3016 2534 2758 2815 
Q 2500 3097 2075 3097 
Q 1594 3097 1305 2825 
Q 1016 2553 972 2059 
L 3022 2063 
z
" transform="scale(0.015625)"/>
       <path id="DejaVuSans-64" d="M 2906 2969 
L 2906 4863 
L 3481 4863 
L 3481 0 
L 2906 0 
L 2906 525 
Q 2725 213 2448 61 
Q 2172 -91 1784 -91 
Q 1150 -91 751 415 
Q 353 922 353 1747 
Q 353 2572 751 3078 
Q 1150 3584 1784 3584 
Q 2172 3584 2448 3432 
Q 2725 3281 2906 2969 
z
M 947 1747 
Q 947 1113 1208 752 
Q 1469 391 1925 391 
Q 2381 391 2643 752 
Q 2906 1113 2906 1747 
Q 2906 2381 2643 2742 
Q 2381 3103 1925 3103 
Q 1469 3103 1208 2742 
Q 947 2381 947 1747 
z
" transform="scale(0.015625)"/>
       <path id="DejaVuSans-69" d="M 603 3500 
L 1178 3500 
L 1178 0 
L 603 0 
L 603 3500 
z
M 603 4863 
L 1178 4863 
L 1178 4134 
L 603 4134 
L 603 4863 
z
" transform="scale(0.015625)"/>
       <path id="DejaVuSans-63" d="M 3122 3366 
L 3122 2828 
Q 2878 2963 2633 3030 
Q 2388 3097 2138 3097 
Q 1578 3097 1268 2742 
Q 959 2388 959 1747 
Q 959 1106 1268 751 
Q 1578 397 2138 397 
Q 2388 397 2633 464 
Q 2878 531 3122 666 
L 3122 134 
Q 2881 22 2623 -34 
Q 2366 -91 2075 -91 
Q 1284 -91 818 406 
Q 353 903 353 1747 
Q 353 2603 823 3093 
Q 1294 3584 2113 3584 
Q 2378 3584 2631 3529 
Q 2884 3475 3122 3366 
z
" transform="scale(0.015625)"/>
       <path id="DejaVuSans-74" d="M 1172 4494 
L 1172 3500 
L 2356 3500 
L 2356 3053 
L 1172 3053 
L 1172 1153 
Q 1172 725 1289 603 
Q 1406 481 1766 481 
L 2356 481 
L 2356 0 
L 1766 0 
Q 1100 0 847 248 
Q 594 497 594 1153 
L 594 3053 
L 172 3053 
L 172 3500 
L 594 3500 
L 594 4494 
L 1172 4494 
z
" transform="scale(0.015625)"/>
       <path id="DejaVuSans-20" transform="scale(0.015625)"/>
       <path id="DejaVuSans-73" d="M 2834 3397 
L 2834 2853 
Q 2591 2978 2328 3040 
Q 2066 3103 1784 3103 
Q 1356 3103 1142 2972 
Q 928 2841 928 2578 
Q 928 2378 1081 2264 
Q 1234 2150 1697 2047 
L 1894 2003 
Q 2506 1872 2764 1633 
Q 3022 1394 3022 966 
Q 3022 478 2636 193 
Q 2250 -91 1575 -91 
Q 1294 -91 989 -36 
Q 684 19 347 128 
L 347 722 
Q 666 556 975 473 
Q 1284 391 1588 391 
Q 1994 391 2212 530 
Q 2431 669 2431 922 
Q 2431 1156 2273 1281 
Q 2116 1406 1581 1522 
L 1381 1569 
Q 847 1681 609 1914 
Q 372 2147 372 2553 
Q 372 3047 722 3315 
Q 1072 3584 1716 3584 
Q 2034 3584 2315 3537 
Q 2597 3491 2834 3397 
z
" transform="scale(0.015625)"/>
       <path id="DejaVuSans-6c" d="M 603 4863 
L 1178 4863 
L 1178 0 
L 603 0 
L 603 4863 
z
" transform="scale(0.015625)"/>
       <path id="DejaVuSans-66" d="M 2375 4863 
L 2375 4384 
L 1825 4384 
Q 1516 4384 1395 4259 
Q 1275 4134 1275 3809 
L 1275 3500 
L 2222 3500 
L 2222 3053 
L 1275 3053 
L 1275 0 
L 697 0 
L 697 3053 
L 147 3053 
L 147 3500 
L 697 3500 
L 697 3744 
Q 697 4328 969 4595 
Q 1241 4863 1831 4863 
L 2375 4863 
z
" transform="scale(0.015625)"/>
       <path id="DejaVuSans-61" d="M 2194 1759 
Q 1497 1759 1228 1600 
Q 959 1441 959 1056 
Q 959 750 1161 570 
Q 1363 391 1709 391 
Q 2188 391 2477 730 
Q 2766 1069 2766 1631 
L 2766 1759 
L 2194 1759 
z
M 3341 1997 
L 3341 0 
L 2766 0 
L 2766 531 
Q 2569 213 2275 61 
Q 1981 -91 1556 -91 
Q 1019 -91 701 211 
Q 384 513 384 1019 
Q 384 1609 779 1909 
Q 1175 2209 1959 2209 
L 2766 2209 
L 2766 2266 
Q 2766 2663 2505 2880 
Q 2244 3097 1772 3097 
Q 1472 3097 1187 3025 
Q 903 2953 641 2809 
L 641 3341 
Q 956 3463 1253 3523 
Q 1550 3584 1831 3584 
Q 2591 3584 2966 3190 
Q 3341 2797 3341 1997 
z
" transform="scale(0.015625)"/>
       <path id="DejaVuSans-6d" d="M 3328 2828 
Q 3544 3216 3844 3400 
Q 4144 3584 4550 3584 
Q 5097 3584 5394 3201 
Q 5691 2819 5691 2113 
L 5691 0 
L 5113 0 
L 5113 2094 
Q 5113 2597 4934 2840 
Q 4756 3084 4391 3084 
Q 3944 3084 3684 2787 
Q 3425 2491 3425 1978 
L 3425 0 
L 2847 0 
L 2847 2094 
Q 2847 2600 2669 2842 
Q 2491 3084 2119 3084 
Q 1678 3084 1418 2786 
Q 1159 2488 1159 1978 
L 1159 0 
L 581 0 
L 581 3500 
L 1159 3500 
L 1159 2956 
Q 1356 3278 1631 3431 
Q 1906 3584 2284 3584 
Q 2666 3584 2933 3390 
Q 3200 3197 3328 2828 
z
" transform="scale(0.015625)"/>
       <path id="DejaVuSans-62" d="M 3116 1747 
Q 3116 2381 2855 2742 
Q 2594 3103 2138 3103 
Q 1681 3103 1420 2742 
Q 1159 2381 1159 1747 
Q 1159 1113 1420 752 
Q 1681 391 2138 391 
Q 2594 391 2855 752 
Q 3116 1113 3116 1747 
z
M 1159 2969 
Q 1341 3281 1617 3432 
Q 1894 3584 2278 3584 
Q 2916 3584 3314 3078 
Q 3713 2572 3713 1747 
Q 3713 922 3314 415 
Q 2916 -91 2278 -91 
Q 1894 -91 1617 61 
Q 1341 213 1159 525 
L 1159 0 
L 581 0 
L 581 4863 
L 1159 4863 
L 1159 2969 
z
" transform="scale(0.015625)"/>
       <path id="DejaVuSans-79" d="M 2059 -325 
Q 1816 -950 1584 -1140 
Q 1353 -1331 966 -1331 
L 506 -1331 
L 506 -850 
L 844 -850 
Q 1081 -850 1212 -737 
Q 1344 -625 1503 -206 
L 1606 56 
L 191 3500 
L 800 3500 
L 1894 763 
L 2988 3500 
L 3597 3500 
L 2059 -325 
z
" transform="scale(0.015625)"/>
       <path id="DejaVuSans-70" d="M 1159 525 
L 1159 -1331 
L 581 -1331 
L 581 3500 
L 1159 3500 
L 1159 2969 
Q 1341 3281 1617 3432 
Q 1894 3584 2278 3584 
Q 2916 3584 3314 3078 
Q 3713 2572 3713 1747 
Q 3713 922 3314 415 
Q 2916 -91 2278 -91 
Q 1894 -91 1617 61 
Q 1341 213 1159 525 
z
M 3116 1747 
Q 3116 2381 2855 2742 
Q 2594 3103 2138 3103 
Q 1681 3103 1420 2742 
Q 1159 2381 1159 1747 
Q 1159 1113 1420 752 
Q 1681 391 2138 391 
Q 2594 391 2855 752 
Q 3116 1113 3116 1747 
z
" transform="scale(0.015625)"/>
       <path id="DejaVuSans-6f" d="M 1959 3097 
Q 1497 3097 1228 2736 
Q 959 2375 959 1747 
Q 959 1119 1226 758 
Q 1494 397 1959 397 
Q 2419 397 2687 759 
Q 2956 1122 2956 1747 
Q 2956 2369 2687 2733 
Q 2419 3097 1959 3097 
z
M 1959 3584 
Q 2709 3584 3137 3096 
Q 3566 2609 3566 1747 
Q 3566 888 3137 398 
Q 2709 -91 1959 -91 
Q 1206 -91 779 398 
Q 353 888 353 1747 
Q 353 2609 779 3096 
Q 1206 3584 1959 3584 
z
" transform="scale(0.015625)"/>
      </defs>
      <use xlink:href="#DejaVuSans-50"/>
      <use xlink:href="#DejaVuSans-72" x="58.552734"/>
      <use xlink:href="#DejaVuSans-65" x="97.416016"/>
      <use xlink:href="#DejaVuSans-64" x="158.939453"/>
      <use xlink:href="#DejaVuSans-69" x="222.416016"/>
      <use xlink:href="#DejaVuSans-63" x="250.199219"/>
      <use xlink:href="#DejaVuSans-74" x="305.179688"/>
      <use xlink:href="#DejaVuSans-65" x="344.388672"/>
      <use xlink:href="#DejaVuSans-64" x="405.912109"/>
      <use xlink:href="#DejaVuSans-20" x="469.388672"/>
      <use xlink:href="#DejaVuSans-73" x="501.175781"/>
      <use xlink:href="#DejaVuSans-65" x="553.275391"/>
      <use xlink:href="#DejaVuSans-6c" x="614.798828"/>
      <use xlink:href="#DejaVuSans-66" x="642.582031"/>
      <use xlink:href="#DejaVuSans-20" x="677.787109"/>
      <use xlink:href="#DejaVuSans-61" x="709.574219"/>
      <use xlink:href="#DejaVuSans-73" x="770.853516"/>
      <use xlink:href="#DejaVuSans-73" x="822.953125"/>
      <use xlink:href="#DejaVuSans-65" x="875.052734"/>
      <use xlink:href="#DejaVuSans-6d" x="936.576172"/>
      <use xlink:href="#DejaVuSans-62" x="1033.988281"/>
      <use xlink:href="#DejaVuSans-6c" x="1097.464844"/>
      <use xlink:href="#DejaVuSans-79" x="1125.248047"/>
      <use xlink:href="#DejaVuSans-20" x="1184.427734"/>
      <use xlink:href="#DejaVuSans-70" x="1216.214844"/>
      <use xlink:href="#DejaVuSans-72" x="1279.691406"/>
      <use xlink:href="#DejaVuSans-6f" x="1318.554688"/>
      <use xlink:href="#DejaVuSans-62" x="1379.736328"/>
      <use xlink:href="#DejaVuSans-61" x="1443.212891"/>
      <use xlink:href="#DejaVuSans-62" x="1504.492188"/>
      <use xlink:href="#DejaVuSans-69" x="1567.96875"/>
      <use xlink:href="#DejaVuSans-6c" x="1595.751953"/>
      <use xlink:href="#DejaVuSans-69" x="1623.535156"/>
      <use xlink:href="#DejaVuSans-74" x="1651.318359"/>
      <use xlink:href="#DejaVuSans-79" x="1690.527344"/>
     </g>
    </g>
   </g>
   <g id="matplotlib.axis_2">
    <g id="ytick_1">
     <g id="line2d_10">
      <defs>
       <path id="md9004848da" d="M 0 0 
L -3.5 0 
" style="stroke: #000000; stroke-width: 0.8"/>
      </defs>
      <g>
       <use xlink:href="#md9004848da" x="52.71875" y="249.32" style="stroke: #000000; stroke-width: 0.8"/>
      </g>
     </g>
     <g id="text_11">
      <!-- 0 -->
      <g transform="translate(38.08375 253.879062) scale(0.12 -0.12)">
       <use xlink:href="#DejaVuSans-30"/>
      </g>
     </g>
    </g>
    <g id="ytick_2">
     <g id="line2d_11">
      <g>
       <use xlink:href="#md9004848da" x="52.71875" y="217.037333" style="stroke: #000000; stroke-width: 0.8"/>
      </g>
     </g>
     <g id="text_12">
      <!-- 100 -->
      <g transform="translate(22.81375 221.596396) scale(0.12 -0.12)">
       <use xlink:href="#DejaVuSans-31"/>
       <use xlink:href="#DejaVuSans-30" x="63.623047"/>
       <use xlink:href="#DejaVuSans-30" x="127.246094"/>
      </g>
     </g>
    </g>
    <g id="ytick_3">
     <g id="line2d_12">
      <g>
       <use xlink:href="#md9004848da" x="52.71875" y="184.754667" style="stroke: #000000; stroke-width: 0.8"/>
      </g>
     </g>
     <g id="text_13">
      <!-- 200 -->
      <g transform="translate(22.81375 189.313729) scale(0.12 -0.12)">
       <defs>
        <path id="DejaVuSans-32" d="M 1228 531 
L 3431 531 
L 3431 0 
L 469 0 
L 469 531 
Q 828 903 1448 1529 
Q 2069 2156 2228 2338 
Q 2531 2678 2651 2914 
Q 2772 3150 2772 3378 
Q 2772 3750 2511 3984 
Q 2250 4219 1831 4219 
Q 1534 4219 1204 4116 
Q 875 4013 500 3803 
L 500 4441 
Q 881 4594 1212 4672 
Q 1544 4750 1819 4750 
Q 2544 4750 2975 4387 
Q 3406 4025 3406 3419 
Q 3406 3131 3298 2873 
Q 3191 2616 2906 2266 
Q 2828 2175 2409 1742 
Q 1991 1309 1228 531 
z
" transform="scale(0.015625)"/>
       </defs>
       <use xlink:href="#DejaVuSans-32"/>
       <use xlink:href="#DejaVuSans-30" x="63.623047"/>
       <use xlink:href="#DejaVuSans-30" x="127.246094"/>
      </g>
     </g>
    </g>
    <g id="ytick_4">
     <g id="line2d_13">
      <g>
       <use xlink:href="#md9004848da" x="52.71875" y="152.472" style="stroke: #000000; stroke-width: 0.8"/>
      </g>
     </g>
     <g id="text_14">
      <!-- 300 -->
      <g transform="translate(22.81375 157.031062) scale(0.12 -0.12)">
       <defs>
        <path id="DejaVuSans-33" d="M 2597 2516 
Q 3050 2419 3304 2112 
Q 3559 1806 3559 1356 
Q 3559 666 3084 287 
Q 2609 -91 1734 -91 
Q 1441 -91 1130 -33 
Q 819 25 488 141 
L 488 750 
Q 750 597 1062 519 
Q 1375 441 1716 441 
Q 2309 441 2620 675 
Q 2931 909 2931 1356 
Q 2931 1769 2642 2001 
Q 2353 2234 1838 2234 
L 1294 2234 
L 1294 2753 
L 1863 2753 
Q 2328 2753 2575 2939 
Q 2822 3125 2822 3475 
Q 2822 3834 2567 4026 
Q 2313 4219 1838 4219 
Q 1578 4219 1281 4162 
Q 984 4106 628 3988 
L 628 4550 
Q 988 4650 1302 4700 
Q 1616 4750 1894 4750 
Q 2613 4750 3031 4423 
Q 3450 4097 3450 3541 
Q 3450 3153 3228 2886 
Q 3006 2619 2597 2516 
z
" transform="scale(0.015625)"/>
       </defs>
       <use xlink:href="#DejaVuSans-33"/>
       <use xlink:href="#DejaVuSans-30" x="63.623047"/>
       <use xlink:href="#DejaVuSans-30" x="127.246094"/>
      </g>
     </g>
    </g>
    <g id="ytick_5">
     <g id="line2d_14">
      <g>
       <use xlink:href="#md9004848da" x="52.71875" y="120.189333" style="stroke: #000000; stroke-width: 0.8"/>
      </g>
     </g>
     <g id="text_15">
      <!-- 400 -->
      <g transform="translate(22.81375 124.748396) scale(0.12 -0.12)">
       <defs>
        <path id="DejaVuSans-34" d="M 2419 4116 
L 825 1625 
L 2419 1625 
L 2419 4116 
z
M 2253 4666 
L 3047 4666 
L 3047 1625 
L 3713 1625 
L 3713 1100 
L 3047 1100 
L 3047 0 
L 2419 0 
L 2419 1100 
L 313 1100 
L 313 1709 
L 2253 4666 
z
" transform="scale(0.015625)"/>
       </defs>
       <use xlink:href="#DejaVuSans-34"/>
       <use xlink:href="#DejaVuSans-30" x="63.623047"/>
       <use xlink:href="#DejaVuSans-30" x="127.246094"/>
      </g>
     </g>
    </g>
    <g id="ytick_6">
     <g id="line2d_15">
      <g>
       <use xlink:href="#md9004848da" x="52.71875" y="87.906667" style="stroke: #000000; stroke-width: 0.8"/>
      </g>
     </g>
     <g id="text_16">
      <!-- 500 -->
      <g transform="translate(22.81375 92.465729) scale(0.12 -0.12)">
       <use xlink:href="#DejaVuSans-35"/>
       <use xlink:href="#DejaVuSans-30" x="63.623047"/>
       <use xlink:href="#DejaVuSans-30" x="127.246094"/>
      </g>
     </g>
    </g>
    <g id="ytick_7">
     <g id="line2d_16">
      <g>
       <use xlink:href="#md9004848da" x="52.71875" y="55.624" style="stroke: #000000; stroke-width: 0.8"/>
      </g>
     </g>
     <g id="text_17">
      <!-- 600 -->
      <g transform="translate(22.81375 60.183062) scale(0.12 -0.12)">
       <defs>
        <path id="DejaVuSans-36" d="M 2113 2584 
Q 1688 2584 1439 2293 
Q 1191 2003 1191 1497 
Q 1191 994 1439 701 
Q 1688 409 2113 409 
Q 2538 409 2786 701 
Q 3034 994 3034 1497 
Q 3034 2003 2786 2293 
Q 2538 2584 2113 2584 
z
M 3366 4563 
L 3366 3988 
Q 3128 4100 2886 4159 
Q 2644 4219 2406 4219 
Q 1781 4219 1451 3797 
Q 1122 3375 1075 2522 
Q 1259 2794 1537 2939 
Q 1816 3084 2150 3084 
Q 2853 3084 3261 2657 
Q 3669 2231 3669 1497 
Q 3669 778 3244 343 
Q 2819 -91 2113 -91 
Q 1303 -91 875 529 
Q 447 1150 447 2328 
Q 447 3434 972 4092 
Q 1497 4750 2381 4750 
Q 2619 4750 2861 4703 
Q 3103 4656 3366 4563 
z
" transform="scale(0.015625)"/>
       </defs>
       <use xlink:href="#DejaVuSans-36"/>
       <use xlink:href="#DejaVuSans-30" x="63.623047"/>
       <use xlink:href="#DejaVuSans-30" x="127.246094"/>
      </g>
     </g>
    </g>
    <g id="ytick_8">
     <g id="line2d_17">
      <g>
       <use xlink:href="#md9004848da" x="52.71875" y="23.341333" style="stroke: #000000; stroke-width: 0.8"/>
      </g>
     </g>
     <g id="text_18">
      <!-- 700 -->
      <g transform="translate(22.81375 27.900396) scale(0.12 -0.12)">
       <defs>
        <path id="DejaVuSans-37" d="M 525 4666 
L 3525 4666 
L 3525 4397 
L 1831 0 
L 1172 0 
L 2766 4134 
L 525 4134 
L 525 4666 
z
" transform="scale(0.015625)"/>
       </defs>
       <use xlink:href="#DejaVuSans-37"/>
       <use xlink:href="#DejaVuSans-30" x="63.623047"/>
       <use xlink:href="#DejaVuSans-30" x="127.246094"/>
      </g>
     </g>
    </g>
    <g id="text_19">
     <!-- Number of peptides -->
     <g transform="translate(16.318125 187.915937) rotate(-90) scale(0.12 -0.12)">
      <defs>
       <path id="DejaVuSans-4e" d="M 628 4666 
L 1478 4666 
L 3547 763 
L 3547 4666 
L 4159 4666 
L 4159 0 
L 3309 0 
L 1241 3903 
L 1241 0 
L 628 0 
L 628 4666 
z
" transform="scale(0.015625)"/>
       <path id="DejaVuSans-75" d="M 544 1381 
L 544 3500 
L 1119 3500 
L 1119 1403 
Q 1119 906 1312 657 
Q 1506 409 1894 409 
Q 2359 409 2629 706 
Q 2900 1003 2900 1516 
L 2900 3500 
L 3475 3500 
L 3475 0 
L 2900 0 
L 2900 538 
Q 2691 219 2414 64 
Q 2138 -91 1772 -91 
Q 1169 -91 856 284 
Q 544 659 544 1381 
z
M 1991 3584 
L 1991 3584 
z
" transform="scale(0.015625)"/>
      </defs>
      <use xlink:href="#DejaVuSans-4e"/>
      <use xlink:href="#DejaVuSans-75" x="74.804688"/>
      <use xlink:href="#DejaVuSans-6d" x="138.183594"/>
      <use xlink:href="#DejaVuSans-62" x="235.595703"/>
      <use xlink:href="#DejaVuSans-65" x="299.072266"/>
      <use xlink:href="#DejaVuSans-72" x="360.595703"/>
      <use xlink:href="#DejaVuSans-20" x="401.708984"/>
      <use xlink:href="#DejaVuSans-6f" x="433.496094"/>
      <use xlink:href="#DejaVuSans-66" x="494.677734"/>
      <use xlink:href="#DejaVuSans-20" x="529.882812"/>
      <use xlink:href="#DejaVuSans-70" x="561.669922"/>
      <use xlink:href="#DejaVuSans-65" x="625.146484"/>
      <use xlink:href="#DejaVuSans-70" x="686.669922"/>
      <use xlink:href="#DejaVuSans-74" x="750.146484"/>
      <use xlink:href="#DejaVuSans-69" x="789.355469"/>
      <use xlink:href="#DejaVuSans-64" x="817.138672"/>
      <use xlink:href="#DejaVuSans-65" x="880.615234"/>
      <use xlink:href="#DejaVuSans-73" x="942.138672"/>
     </g>
    </g>
   </g>
   <g id="line2d_18">
    <path d="M 221.702449 249.32 
L 1014.498819 249.26471 
L 1026.243951 249.061387 
L 1032.116516 248.802225 
L 1037.989082 248.335041 
L 1043.861648 247.539296 
L 1049.734214 246.259512 
L 1055.606779 244.317781 
L 1061.479345 241.541778 
L 1067.351911 237.808132 
L 1073.224476 233.094505 
L 1079.097042 227.526788 
L 1090.842174 215.183825 
L 1096.714739 209.427176 
L 1102.587305 204.702693 
L 1108.459871 201.481026 
L 1114.332436 200.043938 
L 1120.205002 200.435622 
L 1126.077568 202.468507 
L 1131.950134 205.778393 
L 1137.822699 209.909151 
L 1149.567831 218.862226 
L 1155.440396 223.006437 
L 1161.312962 226.66469 
L 1167.185528 229.770183 
L 1173.058093 232.332264 
L 1178.930659 234.407431 
L 1184.803225 236.073927 
L 1190.675791 237.412854 
L 1196.548356 238.49627 
L 1202.420922 239.381457 
L 1208.293488 240.109997 
L 1220.038619 241.200584 
L 1231.783751 241.905527 
L 1243.528882 242.322137 
L 1261.146579 242.608077 
L 1278.764276 242.621889 
L 1296.381973 242.3249 
L 1319.872236 241.572322 
L 1360.980196 240.129045 
L 1366.852762 240.196195 
L 1372.725328 240.465406 
L 1378.597893 240.962815 
L 1384.470459 241.683727 
L 1390.343025 242.590227 
L 1390.343025 242.590227 
" clip-path="url(#pe5af746202)" style="fill: none; stroke: #ff120a; stroke-width: 1.5; stroke-linecap: square"/>
   </g>
   <g id="line2d_19">
    <path d="M 221.702449 249.32 
L 568.183825 249.266643 
L 579.928957 249.065076 
L 585.801523 248.805563 
L 591.674088 248.335389 
L 597.546654 247.53216 
L 603.41922 246.239204 
L 609.291785 244.280005 
L 615.164351 241.488949 
L 621.036917 237.757364 
L 626.909483 233.086679 
L 632.782048 227.633351 
L 644.52718 215.845552 
L 650.399745 210.547794 
L 656.272311 206.369833 
L 662.144877 203.718311 
L 668.017442 202.788286 
L 673.890008 203.531591 
L 679.762574 205.683431 
L 685.63514 208.83583 
L 703.252837 219.998545 
L 709.125402 223.260612 
L 714.997968 226.06744 
L 720.870534 228.425469 
L 726.7431 230.388844 
L 732.615665 232.028125 
L 738.488231 233.409815 
L 744.360797 234.58736 
L 750.233362 235.600839 
L 761.978494 237.255331 
L 773.723625 238.587 
L 797.213888 240.899637 
L 808.959019 241.879907 
L 820.704151 242.570073 
L 832.449282 242.895857 
L 844.194414 242.916708 
L 867.684677 242.573583 
L 891.174939 242.076143 
L 920.537768 241.077842 
L 926.410334 241.097752 
L 932.282899 241.314648 
L 938.155465 241.757515 
L 944.028031 242.422451 
L 949.900597 243.270473 
L 973.390859 247.029469 
L 979.263425 247.727603 
L 985.135991 248.267685 
L 991.008556 248.659499 
L 1002.753688 249.097585 
L 1014.498819 249.259432 
L 1043.861648 249.319089 
L 1390.343025 249.32 
L 1390.343025 249.32 
" clip-path="url(#pe5af746202)" style="fill: none; stroke: #ff120a; stroke-width: 1.5; stroke-linecap: square"/>
   </g>
   <g id="line2d_20">
    <path d="M 221.702449 229.412152 
L 233.44758 214.185072 
L 239.320146 207.40253 
L 245.192711 202.387507 
L 251.065277 199.631725 
L 256.937843 199.115794 
L 262.810409 200.36453 
L 268.682974 202.656396 
L 280.428106 207.87639 
L 292.173237 212.822898 
L 298.045803 215.66403 
L 303.918369 218.930649 
L 309.790934 222.432594 
L 315.6635 225.759326 
L 321.536066 228.473092 
L 327.408631 230.315981 
L 333.281197 231.317249 
L 339.153763 231.755583 
L 345.026328 232.012749 
L 350.898894 232.40358 
L 356.77146 233.066295 
L 386.134288 237.420377 
L 397.87942 239.028717 
L 421.369683 242.622365 
L 433.114814 244.02047 
L 444.859946 245.078822 
L 456.605077 245.768882 
L 468.350208 246.096928 
L 480.09534 246.35563 
L 491.840471 246.867145 
L 509.458168 248.075267 
L 521.2033 248.78077 
L 532.948431 249.161812 
L 550.566128 249.308898 
L 644.52718 249.32 
L 1390.343025 249.32 
L 1390.343025 249.32 
" clip-path="url(#pe5af746202)" style="fill: none; stroke: #ff120a; stroke-width: 1.5; stroke-linecap: square"/>
   </g>
   <g id="line2d_21">
    <path d="M 221.702449 249.32 
L 1037.989082 249.270041 
L 1049.734214 249.058716 
L 1055.606779 248.782419 
L 1061.479345 248.288261 
L 1067.351911 247.471396 
L 1073.224476 246.224964 
L 1079.097042 244.472745 
L 1084.969608 242.209967 
L 1090.842174 239.537981 
L 1102.587305 233.927893 
L 1108.459871 231.632026 
L 1114.332436 230.067324 
L 1120.205002 229.389046 
L 1126.077568 229.593323 
L 1131.950134 230.530411 
L 1137.822699 231.95704 
L 1149.567831 235.245235 
L 1155.440396 236.717048 
L 1161.312962 237.939162 
L 1167.185528 238.888089 
L 1173.058093 239.570541 
L 1178.930659 239.999664 
L 1184.803225 240.184312 
L 1190.675791 240.131793 
L 1196.548356 239.857534 
L 1202.420922 239.392631 
L 1214.166053 238.080874 
L 1249.401448 233.651666 
L 1261.146579 232.485575 
L 1272.891711 231.445075 
L 1278.764276 230.811514 
L 1284.636842 229.981647 
L 1290.509408 228.875376 
L 1296.381973 227.435452 
L 1302.254539 225.619196 
L 1308.127105 223.37031 
L 1313.99967 220.578632 
L 1319.872236 217.042195 
L 1325.744802 212.448732 
L 1331.617368 206.394512 
L 1337.489933 198.457999 
L 1343.362499 188.340453 
L 1349.235065 176.06671 
L 1355.10763 162.201923 
L 1360.980196 147.99439 
L 1366.852762 135.331294 
L 1372.725328 126.42945 
L 1378.597893 123.288838 
L 1384.470459 127.073147 
L 1390.343025 137.667399 
L 1390.343025 137.667399 
" clip-path="url(#pe5af746202)" style="fill: none; stroke: #2e85ff; stroke-width: 1.5; stroke-linecap: square"/>
   </g>
   <g id="line2d_22">
    <path d="M 221.702449 249.32 
L 597.546654 249.237604 
L 609.291785 248.948992 
L 615.164351 248.606322 
L 621.036917 248.032305 
L 626.909483 247.138065 
L 632.782048 245.843184 
L 638.654614 244.102077 
L 644.52718 241.931866 
L 650.399745 239.431526 
L 662.144877 234.222671 
L 668.017442 232.005849 
L 673.890008 230.344261 
L 679.762574 229.364941 
L 685.63514 229.0855 
L 691.507705 229.418532 
L 697.380271 230.20075 
L 714.997968 233.353744 
L 720.870534 234.196935 
L 726.7431 234.826985 
L 732.615665 235.24979 
L 738.488231 235.501441 
L 750.233362 235.70219 
L 779.596191 235.908347 
L 785.468757 235.803537 
L 791.341322 235.575791 
L 803.086454 234.754081 
L 832.449282 232.111655 
L 844.194414 231.128785 
L 850.066979 230.486908 
L 855.939545 229.628892 
L 861.812111 228.440657 
L 867.684677 226.761124 
L 873.557242 224.34974 
L 879.429808 220.860345 
L 885.302374 215.842979 
L 891.174939 208.797059 
L 897.047505 199.294474 
L 902.920071 187.174301 
L 908.792637 172.776838 
L 914.665202 157.138105 
L 920.537768 142.030336 
L 926.410334 129.74623 
L 932.282899 122.609172 
L 938.155465 122.327722 
L 944.028031 129.429487 
L 949.900597 143.023175 
L 955.773162 161.015557 
L 961.645728 180.707518 
L 967.518294 199.524929 
L 973.390859 215.601698 
L 979.263425 228.035084 
L 985.135991 236.802725 
L 991.008556 242.466053 
L 996.881122 245.82723 
L 1002.753688 247.664088 
L 1008.626254 248.589855 
L 1014.498819 249.020654 
L 1020.371385 249.205913 
L 1037.989082 249.315931 
L 1267.019145 249.32 
L 1390.343025 249.32 
L 1390.343025 249.32 
" clip-path="url(#pe5af746202)" style="fill: none; stroke: #2e85ff; stroke-width: 1.5; stroke-linecap: square"/>
   </g>
   <g id="line2d_23">
    <path d="M 221.702449 241.539478 
L 227.575014 238.694952 
L 233.44758 235.436296 
L 239.320146 231.873672 
L 251.065277 224.487695 
L 256.937843 221.098654 
L 262.810409 218.238675 
L 268.682974 216.112427 
L 274.55554 214.824801 
L 280.428106 214.346978 
L 286.300671 214.52392 
L 292.173237 215.121872 
L 303.918369 216.658112 
L 309.790934 217.304727 
L 321.536066 218.252151 
L 333.281197 218.904996 
L 339.153763 219.011293 
L 345.026328 218.809911 
L 350.898894 218.201111 
L 356.77146 217.181036 
L 374.389157 213.262146 
L 380.261723 212.386631 
L 386.134288 211.928027 
L 392.006854 211.837906 
L 403.751986 212.136323 
L 409.624551 212.094635 
L 415.497117 211.61226 
L 421.369683 210.471778 
L 427.242248 208.509152 
L 433.114814 205.646112 
L 438.98738 201.906928 
L 444.859946 197.415895 
L 450.732511 192.388431 
L 456.605077 187.135595 
L 462.477643 182.089615 
L 468.350208 177.831524 
L 474.222774 175.078462 
L 480.09534 174.587877 
L 485.967905 176.970117 
L 491.840471 182.459982 
L 497.713037 190.748122 
L 503.585603 200.973685 
L 509.458168 211.914242 
L 515.330734 222.30901 
L 521.2033 231.180191 
L 527.075865 238.022915 
L 532.948431 242.810737 
L 538.820997 245.85651 
L 544.693563 247.620762 
L 550.566128 248.552251 
L 556.438694 249.000863 
L 562.31126 249.198053 
L 574.056391 249.306203 
L 644.52718 249.32 
L 1390.343025 249.32 
L 1390.343025 249.32 
" clip-path="url(#pe5af746202)" style="fill: none; stroke: #2e85ff; stroke-width: 1.5; stroke-linecap: square"/>
   </g>
   <g id="line2d_24">
    <path d="M 216.20625 247.38304 
L 245.93125 229.304747 
L 275.65625 207.352533 
L 305.38125 218.651467 
L 335.10625 219.29712 
L 364.83125 214.777547 
L 394.55625 211.226453 
L 424.28125 215.100373 
L 454.00625 191.856853 
L 483.73125 136.330667 
" clip-path="url(#pe5af746202)" style="fill: none; stroke: #2e85ff; stroke-width: 1.5; stroke-linecap: square"/>
   </g>
   <g id="line2d_25">
    <path d="M 216.20625 243.186293 
L 245.93125 191.2112 
L 275.65625 208.64384 
L 305.38125 218.005813 
L 335.10625 233.501493 
L 364.83125 233.82432 
L 394.55625 238.021067 
L 424.28125 243.50912 
L 454.00625 246.091733 
L 483.73125 245.123253 
" clip-path="url(#pe5af746202)" style="fill: none; stroke: #ff120a; stroke-width: 1.5; stroke-linecap: square"/>
   </g>
   <g id="line2d_26">
    <path d="M 662.08125 232.533013 
L 691.80625 225.753653 
L 721.53125 235.76128 
L 751.25625 235.438453 
L 780.98125 237.69824 
L 810.70625 232.85584 
L 840.43125 232.533013 
L 870.15625 227.367787 
L 899.88125 215.746027 
L 929.60625 15.593493 
" clip-path="url(#pe5af746202)" style="fill: none; stroke: #2e85ff; stroke-width: 1.5; stroke-linecap: square"/>
   </g>
   <g id="line2d_27">
    <path d="M 662.08125 167.96768 
L 691.80625 220.911253 
L 721.53125 229.9504 
L 751.25625 237.375413 
L 780.98125 238.343893 
L 810.70625 243.186293 
L 840.43125 242.863467 
L 870.15625 242.54064 
L 899.88125 242.54064 
L 929.60625 235.438453 
" clip-path="url(#pe5af746202)" style="fill: none; stroke: #ff120a; stroke-width: 1.5; stroke-linecap: square"/>
   </g>
   <g id="line2d_28">
    <path d="M 1107.95625 224.13952 
L 1137.68125 233.82432 
L 1167.40625 239.312373 
L 1197.13125 241.894987 
L 1226.85625 236.084107 
L 1256.58125 231.564533 
L 1286.30625 233.82432 
L 1316.03125 220.2656 
L 1345.75625 201.218827 
L 1375.48125 29.152213 
" clip-path="url(#pe5af746202)" style="fill: none; stroke: #2e85ff; stroke-width: 1.5; stroke-linecap: square"/>
   </g>
   <g id="line2d_29">
    <path d="M 1107.95625 165.707893 
L 1137.68125 214.45472 
L 1167.40625 235.115627 
L 1197.13125 239.958027 
L 1226.85625 241.57216 
L 1256.58125 243.831947 
L 1286.30625 243.186293 
L 1316.03125 240.60368 
L 1345.75625 242.217813 
L 1375.48125 234.469973 
" clip-path="url(#pe5af746202)" style="fill: none; stroke: #ff120a; stroke-width: 1.5; stroke-linecap: square"/>
   </g>
   <g id="patch_195">
    <path d="M 52.71875 249.32 
L 52.71875 7.2 
" style="fill: none; stroke: #000000; stroke-width: 0.8; stroke-linejoin: miter; stroke-linecap: square"/>
   </g>
   <g id="patch_196">
    <path d="M 52.71875 249.32 
L 1420.06875 249.32 
" style="fill: none; stroke: #000000; stroke-width: 0.8; stroke-linejoin: miter; stroke-linecap: square"/>
   </g>
  </g>
 </g>
 <defs>
  <clipPath id="pe5af746202">
   <rect x="52.71875" y="7.2" width="1367.35" height="242.12"/>
  </clipPath>
 </defs>
</svg>
