<?xml version="1.0" encoding="utf-8" standalone="no"?>
<!DOCTYPE svg PUBLIC "-//W3C//DTD SVG 1.1//EN"
  "http://www.w3.org/Graphics/SVG/1.1/DTD/svg11.dtd">
<svg xmlns:xlink="http://www.w3.org/1999/xlink" width="606.303125pt" height="439.248375pt" viewBox="0 0 606.303125 439.248375" xmlns="http://www.w3.org/2000/svg" version="1.1">
 <metadata>
  <rdf:RDF xmlns:dc="http://purl.org/dc/elements/1.1/" xmlns:cc="http://creativecommons.org/ns#" xmlns:rdf="http://www.w3.org/1999/02/22-rdf-syntax-ns#">
   <cc:Work>
    <dc:type rdf:resource="http://purl.org/dc/dcmitype/StillImage"/>
    <dc:date>2024-09-24T11:17:33.167138</dc:date>
    <dc:format>image/svg+xml</dc:format>
    <dc:creator>
     <cc:Agent>
      <dc:title>Matplotlib v3.7.0, https://matplotlib.org/</dc:title>
     </cc:Agent>
    </dc:creator>
   </cc:Work>
  </rdf:RDF>
 </metadata>
 <defs>
  <style type="text/css">*{stroke-linejoin: round; stroke-linecap: butt}</style>
 </defs>
 <g id="figure_1">
  <g id="patch_1">
   <path d="M -0 439.248375 
L 606.303125 439.248375 
L 606.303125 0 
L -0 0 
z
" style="fill: #ffffff"/>
  </g>
  <g id="axes_1">
   <g id="patch_2">
    <path d="M 124.591562 328.9341 
L 481.711563 328.9341 
L 481.711563 62.8221 
L 124.591562 62.8221 
z
" style="fill: #ffffff"/>
   </g>
   <g id="patch_3">
    <path d="M 481.711563 62.8221 
L 476.424563 70.258135 
L 474.082786 68.428906 
L 433.07144 97.581831 
L 432.824938 97.389281 
L 473.836283 68.236356 
L 471.494506 66.407127 
z
" clip-path="url(#p019d14c77d)" style="fill: #1f77b4; stroke: #000000; stroke-linejoin: miter"/>
   </g>
   <g id="matplotlib.axis_1">
    <g id="xtick_1">
     <g id="line2d_1">
      <defs>
       <path id="m7a869b6c69" d="M 0 0 
L 0 3.5 
" style="stroke: #000000; stroke-width: 0.8"/>
      </defs>
      <g>
       <use xlink:href="#m7a869b6c69" x="124.591562" y="328.9341" style="stroke: #000000; stroke-width: 0.8"/>
      </g>
     </g>
     <g id="text_1">
      <!-- 0.0 -->
      <g transform="translate(107.098125 352.650662) scale(0.22 -0.22)">
       <defs>
        <path id="DejaVuSans-30" d="M 2034 4250 
Q 1547 4250 1301 3770 
Q 1056 3291 1056 2328 
Q 1056 1369 1301 889 
Q 1547 409 2034 409 
Q 2525 409 2770 889 
Q 3016 1369 3016 2328 
Q 3016 3291 2770 3770 
Q 2525 4250 2034 4250 
z
M 2034 4750 
Q 2819 4750 3233 4129 
Q 3647 3509 3647 2328 
Q 3647 1150 3233 529 
Q 2819 -91 2034 -91 
Q 1250 -91 836 529 
Q 422 1150 422 2328 
Q 422 3509 836 4129 
Q 1250 4750 2034 4750 
z
" transform="scale(0.015625)"/>
        <path id="DejaVuSans-2e" d="M 684 794 
L 1344 794 
L 1344 0 
L 684 0 
L 684 794 
z
" transform="scale(0.015625)"/>
       </defs>
       <use xlink:href="#DejaVuSans-30"/>
       <use xlink:href="#DejaVuSans-2e" x="63.623047"/>
       <use xlink:href="#DejaVuSans-30" x="95.410156"/>
      </g>
     </g>
    </g>
    <g id="xtick_2">
     <g id="line2d_2">
      <g>
       <use xlink:href="#m7a869b6c69" x="196.015562" y="328.9341" style="stroke: #000000; stroke-width: 0.8"/>
      </g>
     </g>
     <g id="text_2">
      <!-- 0.2 -->
      <g transform="translate(178.522125 352.650662) scale(0.22 -0.22)">
       <defs>
        <path id="DejaVuSans-32" d="M 1228 531 
L 3431 531 
L 3431 0 
L 469 0 
L 469 531 
Q 828 903 1448 1529 
Q 2069 2156 2228 2338 
Q 2531 2678 2651 2914 
Q 2772 3150 2772 3378 
Q 2772 3750 2511 3984 
Q 2250 4219 1831 4219 
Q 1534 4219 1204 4116 
Q 875 4013 500 3803 
L 500 4441 
Q 881 4594 1212 4672 
Q 1544 4750 1819 4750 
Q 2544 4750 2975 4387 
Q 3406 4025 3406 3419 
Q 3406 3131 3298 2873 
Q 3191 2616 2906 2266 
Q 2828 2175 2409 1742 
Q 1991 1309 1228 531 
z
" transform="scale(0.015625)"/>
       </defs>
       <use xlink:href="#DejaVuSans-30"/>
       <use xlink:href="#DejaVuSans-2e" x="63.623047"/>
       <use xlink:href="#DejaVuSans-32" x="95.410156"/>
      </g>
     </g>
    </g>
    <g id="xtick_3">
     <g id="line2d_3">
      <g>
       <use xlink:href="#m7a869b6c69" x="267.439562" y="328.9341" style="stroke: #000000; stroke-width: 0.8"/>
      </g>
     </g>
     <g id="text_3">
      <!-- 0.4 -->
      <g transform="translate(249.946125 352.650662) scale(0.22 -0.22)">
       <defs>
        <path id="DejaVuSans-34" d="M 2419 4116 
L 825 1625 
L 2419 1625 
L 2419 4116 
z
M 2253 4666 
L 3047 4666 
L 3047 1625 
L 3713 1625 
L 3713 1100 
L 3047 1100 
L 3047 0 
L 2419 0 
L 2419 1100 
L 313 1100 
L 313 1709 
L 2253 4666 
z
" transform="scale(0.015625)"/>
       </defs>
       <use xlink:href="#DejaVuSans-30"/>
       <use xlink:href="#DejaVuSans-2e" x="63.623047"/>
       <use xlink:href="#DejaVuSans-34" x="95.410156"/>
      </g>
     </g>
    </g>
    <g id="xtick_4">
     <g id="line2d_4">
      <g>
       <use xlink:href="#m7a869b6c69" x="338.863563" y="328.9341" style="stroke: #000000; stroke-width: 0.8"/>
      </g>
     </g>
     <g id="text_4">
      <!-- 0.6 -->
      <g transform="translate(321.370125 352.650662) scale(0.22 -0.22)">
       <defs>
        <path id="DejaVuSans-36" d="M 2113 2584 
Q 1688 2584 1439 2293 
Q 1191 2003 1191 1497 
Q 1191 994 1439 701 
Q 1688 409 2113 409 
Q 2538 409 2786 701 
Q 3034 994 3034 1497 
Q 3034 2003 2786 2293 
Q 2538 2584 2113 2584 
z
M 3366 4563 
L 3366 3988 
Q 3128 4100 2886 4159 
Q 2644 4219 2406 4219 
Q 1781 4219 1451 3797 
Q 1122 3375 1075 2522 
Q 1259 2794 1537 2939 
Q 1816 3084 2150 3084 
Q 2853 3084 3261 2657 
Q 3669 2231 3669 1497 
Q 3669 778 3244 343 
Q 2819 -91 2113 -91 
Q 1303 -91 875 529 
Q 447 1150 447 2328 
Q 447 3434 972 4092 
Q 1497 4750 2381 4750 
Q 2619 4750 2861 4703 
Q 3103 4656 3366 4563 
z
" transform="scale(0.015625)"/>
       </defs>
       <use xlink:href="#DejaVuSans-30"/>
       <use xlink:href="#DejaVuSans-2e" x="63.623047"/>
       <use xlink:href="#DejaVuSans-36" x="95.410156"/>
      </g>
     </g>
    </g>
    <g id="xtick_5">
     <g id="line2d_5">
      <g>
       <use xlink:href="#m7a869b6c69" x="410.287562" y="328.9341" style="stroke: #000000; stroke-width: 0.8"/>
      </g>
     </g>
     <g id="text_5">
      <!-- 0.8 -->
      <g transform="translate(392.794125 352.650662) scale(0.22 -0.22)">
       <defs>
        <path id="DejaVuSans-38" d="M 2034 2216 
Q 1584 2216 1326 1975 
Q 1069 1734 1069 1313 
Q 1069 891 1326 650 
Q 1584 409 2034 409 
Q 2484 409 2743 651 
Q 3003 894 3003 1313 
Q 3003 1734 2745 1975 
Q 2488 2216 2034 2216 
z
M 1403 2484 
Q 997 2584 770 2862 
Q 544 3141 544 3541 
Q 544 4100 942 4425 
Q 1341 4750 2034 4750 
Q 2731 4750 3128 4425 
Q 3525 4100 3525 3541 
Q 3525 3141 3298 2862 
Q 3072 2584 2669 2484 
Q 3125 2378 3379 2068 
Q 3634 1759 3634 1313 
Q 3634 634 3220 271 
Q 2806 -91 2034 -91 
Q 1263 -91 848 271 
Q 434 634 434 1313 
Q 434 1759 690 2068 
Q 947 2378 1403 2484 
z
M 1172 3481 
Q 1172 3119 1398 2916 
Q 1625 2713 2034 2713 
Q 2441 2713 2670 2916 
Q 2900 3119 2900 3481 
Q 2900 3844 2670 4047 
Q 2441 4250 2034 4250 
Q 1625 4250 1398 4047 
Q 1172 3844 1172 3481 
z
" transform="scale(0.015625)"/>
       </defs>
       <use xlink:href="#DejaVuSans-30"/>
       <use xlink:href="#DejaVuSans-2e" x="63.623047"/>
       <use xlink:href="#DejaVuSans-38" x="95.410156"/>
      </g>
     </g>
    </g>
    <g id="xtick_6">
     <g id="line2d_6">
      <g>
       <use xlink:href="#m7a869b6c69" x="481.711563" y="328.9341" style="stroke: #000000; stroke-width: 0.8"/>
      </g>
     </g>
     <g id="text_6">
      <!-- 1.0 -->
      <g transform="translate(464.218125 352.650662) scale(0.22 -0.22)">
       <defs>
        <path id="DejaVuSans-31" d="M 794 531 
L 1825 531 
L 1825 4091 
L 703 3866 
L 703 4441 
L 1819 4666 
L 2450 4666 
L 2450 531 
L 3481 531 
L 3481 0 
L 794 0 
L 794 531 
z
" transform="scale(0.015625)"/>
       </defs>
       <use xlink:href="#DejaVuSans-31"/>
       <use xlink:href="#DejaVuSans-2e" x="63.623047"/>
       <use xlink:href="#DejaVuSans-30" x="95.410156"/>
      </g>
     </g>
    </g>
    <g id="text_7">
     <!-- Recall -->
     <g transform="translate(270.33375 377.942537) scale(0.22 -0.22)">
      <defs>
       <path id="DejaVuSans-52" d="M 2841 2188 
Q 3044 2119 3236 1894 
Q 3428 1669 3622 1275 
L 4263 0 
L 3584 0 
L 2988 1197 
Q 2756 1666 2539 1819 
Q 2322 1972 1947 1972 
L 1259 1972 
L 1259 0 
L 628 0 
L 628 4666 
L 2053 4666 
Q 2853 4666 3247 4331 
Q 3641 3997 3641 3322 
Q 3641 2881 3436 2590 
Q 3231 2300 2841 2188 
z
M 1259 4147 
L 1259 2491 
L 2053 2491 
Q 2509 2491 2742 2702 
Q 2975 2913 2975 3322 
Q 2975 3731 2742 3939 
Q 2509 4147 2053 4147 
L 1259 4147 
z
" transform="scale(0.015625)"/>
       <path id="DejaVuSans-65" d="M 3597 1894 
L 3597 1613 
L 953 1613 
Q 991 1019 1311 708 
Q 1631 397 2203 397 
Q 2534 397 2845 478 
Q 3156 559 3463 722 
L 3463 178 
Q 3153 47 2828 -22 
Q 2503 -91 2169 -91 
Q 1331 -91 842 396 
Q 353 884 353 1716 
Q 353 2575 817 3079 
Q 1281 3584 2069 3584 
Q 2775 3584 3186 3129 
Q 3597 2675 3597 1894 
z
M 3022 2063 
Q 3016 2534 2758 2815 
Q 2500 3097 2075 3097 
Q 1594 3097 1305 2825 
Q 1016 2553 972 2059 
L 3022 2063 
z
" transform="scale(0.015625)"/>
       <path id="DejaVuSans-63" d="M 3122 3366 
L 3122 2828 
Q 2878 2963 2633 3030 
Q 2388 3097 2138 3097 
Q 1578 3097 1268 2742 
Q 959 2388 959 1747 
Q 959 1106 1268 751 
Q 1578 397 2138 397 
Q 2388 397 2633 464 
Q 2878 531 3122 666 
L 3122 134 
Q 2881 22 2623 -34 
Q 2366 -91 2075 -91 
Q 1284 -91 818 406 
Q 353 903 353 1747 
Q 353 2603 823 3093 
Q 1294 3584 2113 3584 
Q 2378 3584 2631 3529 
Q 2884 3475 3122 3366 
z
" transform="scale(0.015625)"/>
       <path id="DejaVuSans-61" d="M 2194 1759 
Q 1497 1759 1228 1600 
Q 959 1441 959 1056 
Q 959 750 1161 570 
Q 1363 391 1709 391 
Q 2188 391 2477 730 
Q 2766 1069 2766 1631 
L 2766 1759 
L 2194 1759 
z
M 3341 1997 
L 3341 0 
L 2766 0 
L 2766 531 
Q 2569 213 2275 61 
Q 1981 -91 1556 -91 
Q 1019 -91 701 211 
Q 384 513 384 1019 
Q 384 1609 779 1909 
Q 1175 2209 1959 2209 
L 2766 2209 
L 2766 2266 
Q 2766 2663 2505 2880 
Q 2244 3097 1772 3097 
Q 1472 3097 1187 3025 
Q 903 2953 641 2809 
L 641 3341 
Q 956 3463 1253 3523 
Q 1550 3584 1831 3584 
Q 2591 3584 2966 3190 
Q 3341 2797 3341 1997 
z
" transform="scale(0.015625)"/>
       <path id="DejaVuSans-6c" d="M 603 4863 
L 1178 4863 
L 1178 0 
L 603 0 
L 603 4863 
z
" transform="scale(0.015625)"/>
      </defs>
      <use xlink:href="#DejaVuSans-52"/>
      <use xlink:href="#DejaVuSans-65" x="64.982422"/>
      <use xlink:href="#DejaVuSans-63" x="126.505859"/>
      <use xlink:href="#DejaVuSans-61" x="181.486328"/>
      <use xlink:href="#DejaVuSans-6c" x="242.765625"/>
      <use xlink:href="#DejaVuSans-6c" x="270.548828"/>
     </g>
    </g>
   </g>
   <g id="matplotlib.axis_2">
    <g id="ytick_1">
     <g id="line2d_7">
      <defs>
       <path id="mc83336f9e1" d="M 0 0 
L -3.5 0 
" style="stroke: #000000; stroke-width: 0.8"/>
      </defs>
      <g>
       <use xlink:href="#mc83336f9e1" x="124.591562" y="328.9341" style="stroke: #000000; stroke-width: 0.8"/>
      </g>
     </g>
     <g id="text_8">
      <!-- 0.0 -->
      <g transform="translate(82.604687 337.292381) scale(0.22 -0.22)">
       <use xlink:href="#DejaVuSans-30"/>
       <use xlink:href="#DejaVuSans-2e" x="63.623047"/>
       <use xlink:href="#DejaVuSans-30" x="95.410156"/>
      </g>
     </g>
    </g>
    <g id="ytick_2">
     <g id="line2d_8">
      <g>
       <use xlink:href="#mc83336f9e1" x="124.591562" y="275.7117" style="stroke: #000000; stroke-width: 0.8"/>
      </g>
     </g>
     <g id="text_9">
      <!-- 0.2 -->
      <g transform="translate(82.604687 284.069981) scale(0.22 -0.22)">
       <use xlink:href="#DejaVuSans-30"/>
       <use xlink:href="#DejaVuSans-2e" x="63.623047"/>
       <use xlink:href="#DejaVuSans-32" x="95.410156"/>
      </g>
     </g>
    </g>
    <g id="ytick_3">
     <g id="line2d_9">
      <g>
       <use xlink:href="#mc83336f9e1" x="124.591562" y="222.4893" style="stroke: #000000; stroke-width: 0.8"/>
      </g>
     </g>
     <g id="text_10">
      <!-- 0.4 -->
      <g transform="translate(82.604687 230.847581) scale(0.22 -0.22)">
       <use xlink:href="#DejaVuSans-30"/>
       <use xlink:href="#DejaVuSans-2e" x="63.623047"/>
       <use xlink:href="#DejaVuSans-34" x="95.410156"/>
      </g>
     </g>
    </g>
    <g id="ytick_4">
     <g id="line2d_10">
      <g>
       <use xlink:href="#mc83336f9e1" x="124.591562" y="169.2669" style="stroke: #000000; stroke-width: 0.8"/>
      </g>
     </g>
     <g id="text_11">
      <!-- 0.6 -->
      <g transform="translate(82.604687 177.625181) scale(0.22 -0.22)">
       <use xlink:href="#DejaVuSans-30"/>
       <use xlink:href="#DejaVuSans-2e" x="63.623047"/>
       <use xlink:href="#DejaVuSans-36" x="95.410156"/>
      </g>
     </g>
    </g>
    <g id="ytick_5">
     <g id="line2d_11">
      <g>
       <use xlink:href="#mc83336f9e1" x="124.591562" y="116.0445" style="stroke: #000000; stroke-width: 0.8"/>
      </g>
     </g>
     <g id="text_12">
      <!-- 0.8 -->
      <g transform="translate(82.604687 124.402781) scale(0.22 -0.22)">
       <use xlink:href="#DejaVuSans-30"/>
       <use xlink:href="#DejaVuSans-2e" x="63.623047"/>
       <use xlink:href="#DejaVuSans-38" x="95.410156"/>
      </g>
     </g>
    </g>
    <g id="ytick_6">
     <g id="line2d_12">
      <g>
       <use xlink:href="#mc83336f9e1" x="124.591562" y="62.8221" style="stroke: #000000; stroke-width: 0.8"/>
      </g>
     </g>
     <g id="text_13">
      <!-- 1.0 -->
      <g transform="translate(82.604687 71.180381) scale(0.22 -0.22)">
       <use xlink:href="#DejaVuSans-31"/>
       <use xlink:href="#DejaVuSans-2e" x="63.623047"/>
       <use xlink:href="#DejaVuSans-30" x="95.410156"/>
      </g>
     </g>
    </g>
    <g id="text_14">
     <!-- Precision -->
     <g transform="translate(74.029375 244.953569) rotate(-90) scale(0.22 -0.22)">
      <defs>
       <path id="DejaVuSans-50" d="M 1259 4147 
L 1259 2394 
L 2053 2394 
Q 2494 2394 2734 2622 
Q 2975 2850 2975 3272 
Q 2975 3691 2734 3919 
Q 2494 4147 2053 4147 
L 1259 4147 
z
M 628 4666 
L 2053 4666 
Q 2838 4666 3239 4311 
Q 3641 3956 3641 3272 
Q 3641 2581 3239 2228 
Q 2838 1875 2053 1875 
L 1259 1875 
L 1259 0 
L 628 0 
L 628 4666 
z
" transform="scale(0.015625)"/>
       <path id="DejaVuSans-72" d="M 2631 2963 
Q 2534 3019 2420 3045 
Q 2306 3072 2169 3072 
Q 1681 3072 1420 2755 
Q 1159 2438 1159 1844 
L 1159 0 
L 581 0 
L 581 3500 
L 1159 3500 
L 1159 2956 
Q 1341 3275 1631 3429 
Q 1922 3584 2338 3584 
Q 2397 3584 2469 3576 
Q 2541 3569 2628 3553 
L 2631 2963 
z
" transform="scale(0.015625)"/>
       <path id="DejaVuSans-69" d="M 603 3500 
L 1178 3500 
L 1178 0 
L 603 0 
L 603 3500 
z
M 603 4863 
L 1178 4863 
L 1178 4134 
L 603 4134 
L 603 4863 
z
" transform="scale(0.015625)"/>
       <path id="DejaVuSans-73" d="M 2834 3397 
L 2834 2853 
Q 2591 2978 2328 3040 
Q 2066 3103 1784 3103 
Q 1356 3103 1142 2972 
Q 928 2841 928 2578 
Q 928 2378 1081 2264 
Q 1234 2150 1697 2047 
L 1894 2003 
Q 2506 1872 2764 1633 
Q 3022 1394 3022 966 
Q 3022 478 2636 193 
Q 2250 -91 1575 -91 
Q 1294 -91 989 -36 
Q 684 19 347 128 
L 347 722 
Q 666 556 975 473 
Q 1284 391 1588 391 
Q 1994 391 2212 530 
Q 2431 669 2431 922 
Q 2431 1156 2273 1281 
Q 2116 1406 1581 1522 
L 1381 1569 
Q 847 1681 609 1914 
Q 372 2147 372 2553 
Q 372 3047 722 3315 
Q 1072 3584 1716 3584 
Q 2034 3584 2315 3537 
Q 2597 3491 2834 3397 
z
" transform="scale(0.015625)"/>
       <path id="DejaVuSans-6f" d="M 1959 3097 
Q 1497 3097 1228 2736 
Q 959 2375 959 1747 
Q 959 1119 1226 758 
Q 1494 397 1959 397 
Q 2419 397 2687 759 
Q 2956 1122 2956 1747 
Q 2956 2369 2687 2733 
Q 2419 3097 1959 3097 
z
M 1959 3584 
Q 2709 3584 3137 3096 
Q 3566 2609 3566 1747 
Q 3566 888 3137 398 
Q 2709 -91 1959 -91 
Q 1206 -91 779 398 
Q 353 888 353 1747 
Q 353 2609 779 3096 
Q 1206 3584 1959 3584 
z
" transform="scale(0.015625)"/>
       <path id="DejaVuSans-6e" d="M 3513 2113 
L 3513 0 
L 2938 0 
L 2938 2094 
Q 2938 2591 2744 2837 
Q 2550 3084 2163 3084 
Q 1697 3084 1428 2787 
Q 1159 2491 1159 1978 
L 1159 0 
L 581 0 
L 581 3500 
L 1159 3500 
L 1159 2956 
Q 1366 3272 1645 3428 
Q 1925 3584 2291 3584 
Q 2894 3584 3203 3211 
Q 3513 2838 3513 2113 
z
" transform="scale(0.015625)"/>
      </defs>
      <use xlink:href="#DejaVuSans-50"/>
      <use xlink:href="#DejaVuSans-72" x="58.552734"/>
      <use xlink:href="#DejaVuSans-65" x="97.416016"/>
      <use xlink:href="#DejaVuSans-63" x="158.939453"/>
      <use xlink:href="#DejaVuSans-69" x="213.919922"/>
      <use xlink:href="#DejaVuSans-73" x="241.703125"/>
      <use xlink:href="#DejaVuSans-69" x="293.802734"/>
      <use xlink:href="#DejaVuSans-6f" x="321.585938"/>
      <use xlink:href="#DejaVuSans-6e" x="382.767578"/>
     </g>
    </g>
   </g>
   <g id="line2d_13">
    <path d="M 481.711563 148.874622 
L 481.711563 147.692612 
L 481.137876 147.78557 
L 481.137876 147.68631 
L 481.137876 147.487465 
L 480.851032 147.533933 
L 480.851032 147.434317 
L 480.851032 147.034758 
L 480.564189 147.081131 
L 480.564189 146.980936 
L 480.564189 146.780216 
L 480.277346 146.82655 
L 480.277346 146.725994 
L 480.277346 146.524548 
L 479.990502 146.570843 
L 479.990502 146.469923 
L 479.990502 144.013871 
L 479.703659 144.059433 
L 479.703659 143.955629 
L 479.703659 143.643517 
L 479.416816 143.688999 
L 479.416816 143.584695 
L 479.416816 143.480272 
L 479.129972 143.525739 
L 479.129972 143.421166 
L 479.129972 142.896525 
L 478.843129 142.941842 
L 478.843129 142.836524 
L 478.843129 142.308137 
L 478.556285 142.3533 
L 478.556285 142.247228 
L 478.556285 142.141035 
L 478.269442 142.18618 
L 478.269442 142.079831 
L 478.269442 141.439188 
L 477.982599 141.484138 
L 477.982599 141.376901 
L 477.982599 141.054453 
L 477.695755 141.099311 
L 477.695755 140.991546 
L 477.695755 140.883657 
L 477.122069 140.865297 
L 477.122069 139.008637 
L 476.835225 139.052905 
L 476.835225 138.942509 
L 476.835225 138.277428 
L 476.548382 138.321477 
L 476.548382 138.210137 
L 476.548382 137.987068 
L 476.261538 138.03105 
L 476.261538 137.91928 
L 476.261538 136.90743 
L 475.974695 136.951061 
L 475.974695 136.83793 
L 475.687852 136.881572 
L 475.687852 135.283037 
L 474.827322 135.412509 
L 474.827322 135.181714 
L 474.253635 135.268113 
L 474.253635 134.920626 
L 473.966791 134.963773 
L 473.966791 134.264781 
L 473.679948 134.307715 
L 473.679948 134.073508 
L 473.393105 134.116405 
L 473.393105 133.055049 
L 472.819418 133.14018 
L 472.819418 132.186251 
L 472.532575 132.22852 
L 472.532575 132.108578 
L 471.958888 132.193177 
L 471.958888 131.952662 
L 471.672044 131.994944 
L 471.672044 131.753745 
L 471.098358 131.838272 
L 471.098358 131.596288 
L 470.811514 131.638532 
L 470.811514 131.395856 
L 470.237828 131.480307 
L 470.237828 130.748093 
L 469.664141 130.832159 
L 469.664141 130.463712 
L 469.377297 130.505673 
L 469.377297 130.259178 
L 469.090454 130.301091 
L 469.090454 130.053881 
L 468.803611 130.095744 
L 468.803611 129.100308 
L 468.516767 129.141809 
L 468.516767 128.514321 
L 468.229924 128.555611 
L 468.229924 128.429587 
L 467.943081 128.470875 
L 467.943081 128.218244 
L 467.369394 128.300762 
L 467.369394 128.047278 
L 467.08255 128.088507 
L 467.08255 127.96147 
L 466.795707 128.002697 
L 466.795707 127.748032 
L 466.22202 127.830425 
L 466.22202 127.574893 
L 465.648334 127.657276 
L 465.648334 127.529155 
L 465.36149 127.57037 
L 465.36149 125.889106 
L 465.074647 125.929637 
L 465.074647 125.40643 
L 464.50096 125.487184 
L 464.50096 124.960801 
L 464.214117 125.00102 
L 464.214117 124.736687 
L 463.927273 124.776839 
L 463.927273 124.644356 
L 463.64043 124.6845 
L 463.64043 124.418896 
L 462.206213 124.619799 
L 462.206213 124.352896 
L 461.91937 124.393112 
L 461.91937 124.259337 
L 461.632526 124.299545 
L 461.632526 123.762446 
L 460.485153 123.922816 
L 460.485153 123.787851 
L 460.198309 123.828013 
L 460.198309 123.0141 
L 459.624623 123.093825 
L 459.624623 122.547104 
L 459.337779 122.586788 
L 459.337779 122.036895 
L 459.050936 122.076372 
L 459.050936 121.800193 
L 458.764093 121.839591 
L 458.764093 121.423739 
L 458.477249 121.462989 
L 458.477249 120.765842 
L 457.903563 120.843828 
L 457.903563 119.858952 
L 457.043032 119.97488 
L 457.043032 119.833213 
L 456.469346 119.910621 
L 456.469346 119.768622 
L 456.182502 119.807335 
L 456.182502 118.51996 
L 455.895659 118.558084 
L 455.895659 117.545269 
L 455.608816 117.582931 
L 455.608816 117.437373 
L 455.035129 117.512704 
L 455.035129 117.074374 
L 454.748285 117.111893 
L 454.748285 116.965303 
L 454.461442 117.002798 
L 454.461442 116.708857 
L 453.887755 116.7837 
L 453.887755 116.636271 
L 453.600912 116.673694 
L 453.600912 116.525983 
L 453.314069 116.563381 
L 453.314069 116.267188 
L 452.740382 116.341832 
L 452.740382 116.19327 
L 452.166695 116.267967 
L 452.166695 115.371272 
L 451.593008 115.445233 
L 451.593008 115.144333 
L 451.019322 115.218182 
L 451.019322 114.004749 
L 450.445635 114.077503 
L 450.445635 113.157346 
L 449.871948 113.229305 
L 449.871948 112.765756 
L 449.011418 112.873316 
L 449.011418 112.7181 
L 448.724575 112.753971 
L 448.724575 112.286722 
L 447.577201 112.429684 
L 447.577201 111.644679 
L 447.290358 111.680109 
L 447.290358 111.2061 
L 447.003514 111.241314 
L 447.003514 111.082761 
L 446.716671 111.117937 
L 446.716671 110.959063 
L 446.429828 110.994199 
L 446.429828 109.714082 
L 445.856141 109.783041 
L 445.856141 109.460286 
L 445.569297 109.494654 
L 445.569297 107.701315 
L 445.282454 107.734683 
L 445.282454 107.074879 
L 444.995611 107.107903 
L 444.995611 106.942237 
L 444.421924 107.008236 
L 444.421924 106.675763 
L 444.135081 106.708637 
L 444.135081 106.541926 
L 443.848237 106.574749 
L 443.848237 106.407687 
L 443.561394 106.440458 
L 443.561394 106.273044 
L 443.27455 106.305763 
L 443.27455 106.137994 
L 442.987707 106.170661 
L 442.987707 105.665529 
L 442.127177 105.7629 
L 442.127177 105.593703 
L 441.840334 105.626155 
L 441.840334 104.433816 
L 441.55349 104.465581 
L 441.55349 104.2941 
L 440.69296 104.389365 
L 440.69296 104.044971 
L 439.83243 104.140028 
L 439.83243 103.446754 
L 438.685056 103.572429 
L 438.685056 103.223302 
L 438.398213 103.254621 
L 438.398213 103.07954 
L 437.824526 103.1421 
L 437.824526 102.966523 
L 437.537683 102.997764 
L 437.537683 102.821801 
L 437.25084 102.852978 
L 437.25084 102.676627 
L 436.963996 102.707739 
L 436.963996 102.176692 
L 436.677153 102.20751 
L 436.677153 101.316289 
L 436.390309 101.346575 
L 436.390309 100.987887 
L 436.103466 101.017986 
L 436.103466 100.657929 
L 435.529779 100.717796 
L 435.529779 99.9933 
L 434.956093 100.052396 
L 434.956093 99.87031 
L 434.095563 99.958942 
L 434.095563 99.593167 
L 433.808719 99.62256 
L 433.808719 99.071331 
L 433.521876 99.1004 
L 433.521876 97.989198 
L 433.235032 98.017558 
L 433.235032 97.831185 
L 432.948189 97.859463 
L 432.948189 97.485556 
L 432.661346 97.513624 
L 432.661346 97.326087 
L 431.800816 97.410175 
L 431.800816 97.221944 
L 430.940285 97.306051 
L 430.940285 96.738335 
L 430.366599 96.793845 
L 430.366599 96.603722 
L 429.219225 96.714754 
L 429.219225 96.523784 
L 428.071852 96.635011 
L 428.071852 96.251045 
L 426.350791 96.417635 
L 426.350791 95.836828 
L 425.490261 95.919502 
L 425.490261 95.724837 
L 424.916575 95.779904 
L 424.916575 95.193107 
L 424.342888 95.247512 
L 424.342888 94.656897 
L 421.761297 94.900117 
L 421.761297 94.701278 
L 421.187611 94.75554 
L 421.187611 93.955613 
L 419.753394 94.089119 
L 419.753394 93.887535 
L 419.46655 93.914224 
L 419.46655 93.712143 
L 419.179707 93.738727 
L 419.179707 93.536147 
L 418.60602 93.589147 
L 418.60602 92.978391 
L 415.450743 93.268102 
L 415.450743 93.0621 
L 414.877056 93.11506 
L 414.877056 92.701342 
L 413.155996 92.859433 
L 413.155996 92.44234 
L 412.295466 92.521048 
L 412.295466 92.311462 
L 410.287562 92.495606 
L 410.287562 92.073017 
L 410.000719 92.099181 
L 410.000719 91.674745 
L 409.713876 91.700622 
L 409.713876 91.487666 
L 409.427032 91.513421 
L 409.427032 91.299913 
L 408.853346 91.351224 
L 408.853346 91.136993 
L 407.419129 91.26523 
L 407.419129 91.049755 
L 405.411225 91.230042 
L 405.411225 91.01296 
L 403.977008 91.142276 
L 403.977008 90.923918 
L 402.829635 91.027519 
L 402.829635 90.808048 
L 401.969105 90.885715 
L 401.969105 90.6653 
L 401.395418 90.716957 
L 401.395418 89.829742 
L 400.248044 89.930706 
L 400.248044 89.707129 
L 399.387514 89.78279 
L 399.387514 89.558235 
L 397.666454 89.709715 
L 397.666454 89.483605 
L 397.092767 89.5341 
L 397.092767 89.307181 
L 395.945394 89.40798 
L 395.945394 89.17986 
L 395.084864 89.255384 
L 395.084864 89.026245 
L 393.650647 89.152106 
L 393.650647 88.921546 
L 392.503273 89.022316 
L 392.503273 88.325573 
L 392.21643 88.350286 
L 392.21643 87.883133 
L 391.642743 87.93189 
L 391.642743 87.697224 
L 390.208526 87.818922 
L 390.208526 87.582766 
L 386.766406 87.877244 
L 386.766406 87.6381 
L 383.897972 87.886757 
L 383.897972 87.159981 
L 383.037442 87.233584 
L 383.037442 86.989688 
L 382.750599 87.0141 
L 382.750599 86.524383 
L 379.021635 86.840414 
L 379.021635 86.591858 
L 378.734791 86.616287 
L 378.734791 86.366989 
L 378.447948 86.391237 
L 378.447948 85.890633 
L 377.300575 85.986253 
L 377.300575 85.481689 
L 376.153201 85.576202 
L 376.153201 85.322175 
L 375.579514 85.369246 
L 375.579514 85.114205 
L 372.997924 85.326286 
L 372.997924 85.0685 
L 372.424237 85.115682 
L 372.424237 84.856852 
L 371.85055 84.903734 
L 371.85055 84.643851 
L 369.555803 84.831363 
L 369.555803 84.042238 
L 368.121587 84.15719 
L 368.121587 83.891705 
L 366.974213 83.983512 
L 366.974213 83.71639 
L 366.400526 83.762061 
L 366.400526 83.49382 
L 365.539996 83.561894 
L 365.539996 83.292254 
L 364.679466 83.359961 
L 364.679466 83.088908 
L 364.392623 83.111302 
L 364.392623 82.839374 
L 361.524189 83.063281 
L 361.524189 82.78795 
L 360.376816 82.877785 
L 360.376816 82.600695 
L 355.787322 82.963605 
L 355.787322 82.681204 
L 355.500478 82.704031 
L 355.500478 82.420682 
L 354.353105 82.511312 
L 354.353105 82.2261 
L 352.918888 82.339045 
L 352.918888 82.051638 
L 352.632044 82.074077 
L 352.632044 81.785689 
L 352.345201 81.807868 
L 352.345201 81.518493 
L 351.197828 81.606476 
L 351.197828 81.31516 
L 350.624141 81.358827 
L 350.624141 81.066185 
L 349.189924 81.174652 
L 349.189924 80.8797 
L 348.329394 80.944423 
L 348.329394 80.647784 
L 345.747803 80.841776 
L 345.747803 80.541422 
L 345.46096 80.5629 
L 345.46096 80.261479 
L 345.174117 80.282669 
L 345.174117 79.980173 
L 342.592526 80.170115 
L 342.592526 79.863755 
L 329.110888 80.910759 
L 329.110888 80.586121 
L 324.521394 80.9661 
L 324.521394 80.634148 
L 322.800334 80.778375 
L 322.800334 80.44303 
L 321.079273 80.58707 
L 321.079273 80.248261 
L 320.505587 80.295939 
L 320.505587 79.613804 
L 319.645056 79.683191 
L 319.645056 79.339397 
L 315.055562 79.712142 
L 315.055562 79.360134 
L 311.613442 79.645272 
L 311.613442 79.286583 
L 308.745008 79.526941 
L 308.745008 79.162311 
L 308.171322 79.210229 
L 308.171322 78.843527 
L 306.737105 78.962029 
L 306.737105 78.220272 
L 305.589731 78.312201 
L 305.589731 77.93758 
L 302.434454 78.19027 
L 302.434454 77.808621 
L 300.42655 77.970014 
L 300.42655 77.58332 
L 299.852864 77.62895 
L 299.852864 77.239933 
L 298.70549 77.329764 
L 298.70549 76.937245 
L 296.410743 77.115636 
L 296.410743 76.717189 
L 293.255466 76.963317 
L 293.255466 76.556913 
L 292.108093 76.6461 
L 292.108093 76.235876 
L 291.821249 76.257722 
L 291.821249 75.845526 
L 289.813346 75.995961 
L 289.813346 75.577882 
L 287.518599 75.748814 
L 287.518599 75.324006 
L 274.323803 76.36962 
L 274.323803 75.909575 
L 264.284285 76.800746 
L 264.284285 76.309258 
L 263.997442 76.3356 
L 263.997442 75.841278 
L 261.415852 76.07469 
L 261.415852 75.56998 
L 260.268478 75.672579 
L 260.268478 75.161971 
L 257.973731 75.364264 
L 257.973731 74.843587 
L 247.073683 75.860995 
L 247.073683 75.2961 
L 243.918406 75.610091 
L 243.918406 75.029072 
L 243.057876 75.113647 
L 243.057876 74.5261 
L 240.476285 74.775121 
L 240.476285 74.172849 
L 231.297297 75.104192 
L 231.297297 74.451673 
L 229.863081 74.6031 
L 229.863081 73.93905 
L 224.126213 74.551555 
L 224.126213 73.84884 
L 216.381442 74.737563 
L 216.381442 73.976495 
L 209.497201 74.840061 
L 209.497201 74.01775 
L 206.915611 74.35362 
L 206.915611 72.645026 
L 205.19455 72.846867 
L 205.19455 71.966842 
L 204.047177 72.094295 
L 204.047177 71.196254 
L 195.155032 72.214288 
L 190.278695 72.885159 
L 190.278695 71.804784 
L 188.557635 72.0381 
L 188.557635 70.921161 
L 185.689201 71.2893 
L 185.689201 70.11284 
L 180.52602 70.765742 
L 180.52602 69.4749 
L 179.378647 69.610671 
L 179.378647 68.280808 
L 171.920719 69.120609 
L 165.897008 70.014316 
L 161.020671 70.947657 
L 156.71802 71.998376 
L 153.2759 73.057177 
L 150.120623 74.267777 
L 147.539032 75.4941 
L 145.244285 76.827995 
L 144.096912 77.6061 
L 144.096912 74.066269 
L 142.089008 75.2961 
L 140.654791 76.353219 
L 140.654791 71.998376 
L 138.933731 73.057177 
L 137.212671 74.392187 
L 137.212671 68.7357 
L 135.491611 69.645485 
L 134.057394 70.648924 
L 132.91002 71.6925 
L 131.762647 73.057177 
L 130.902117 74.392187 
L 130.041587 76.1277 
L 129.181056 78.475747 
L 128.60737 80.5629 
L 128.60737 62.8221 
L 124.591562 62.8221 
L 124.591562 62.8221 
" clip-path="url(#p019d14c77d)" style="fill: none; stroke: #ff0000; stroke-width: 1.5; stroke-linecap: square"/>
   </g>
   <g id="line2d_14">
    <defs>
     <path id="mb8c5a6f6bf" d="M 0 3 
C 0.795609 3 1.55874 2.683901 2.12132 2.12132 
C 2.683901 1.55874 3 0.795609 3 0 
C 3 -0.795609 2.683901 -1.55874 2.12132 -2.12132 
C 1.55874 -2.683901 0.795609 -3 0 -3 
C -0.795609 -3 -1.55874 -2.683901 -2.12132 -2.12132 
C -2.683901 -1.55874 -3 -0.795609 -3 0 
C -3 0.795609 -2.683901 1.55874 -2.12132 2.12132 
C -1.55874 2.683901 -0.795609 3 0 3 
z
" style="stroke: #000000"/>
    </defs>
    <g clip-path="url(#p019d14c77d)">
     <use xlink:href="#mb8c5a6f6bf" x="432.948189" y="97.485556" style="fill: #ff0000; stroke: #000000"/>
    </g>
   </g>
   <g id="line2d_15">
    <path d="M 124.591562 148.874622 
L 481.711563 148.874622 
" clip-path="url(#p019d14c77d)" style="fill: none; stroke: #00bfbf; stroke-width: 1.5; stroke-linecap: square"/>
   </g>
   <g id="patch_4">
    <path d="M 124.591562 328.9341 
L 124.591562 62.8221 
" style="fill: none; stroke: #000000; stroke-width: 0.8; stroke-linejoin: miter; stroke-linecap: square"/>
   </g>
   <g id="patch_5">
    <path d="M 481.711563 328.9341 
L 481.711563 62.8221 
" style="fill: none; stroke: #000000; stroke-width: 0.8; stroke-linejoin: miter; stroke-linecap: square"/>
   </g>
   <g id="patch_6">
    <path d="M 124.591562 328.9341 
L 481.711563 328.9341 
" style="fill: none; stroke: #000000; stroke-width: 0.8; stroke-linejoin: miter; stroke-linecap: square"/>
   </g>
   <g id="patch_7">
    <path d="M 124.591562 62.8221 
L 481.711563 62.8221 
" style="fill: none; stroke: #000000; stroke-width: 0.8; stroke-linejoin: miter; stroke-linecap: square"/>
   </g>
   <g id="text_15">
    <!-- AP model -->
    <g transform="translate(240.864062 27.259875) scale(0.264 -0.264)">
     <defs>
      <path id="DejaVuSans-41" d="M 2188 4044 
L 1331 1722 
L 3047 1722 
L 2188 4044 
z
M 1831 4666 
L 2547 4666 
L 4325 0 
L 3669 0 
L 3244 1197 
L 1141 1197 
L 716 0 
L 50 0 
L 1831 4666 
z
" transform="scale(0.015625)"/>
      <path id="DejaVuSans-20" transform="scale(0.015625)"/>
      <path id="DejaVuSans-6d" d="M 3328 2828 
Q 3544 3216 3844 3400 
Q 4144 3584 4550 3584 
Q 5097 3584 5394 3201 
Q 5691 2819 5691 2113 
L 5691 0 
L 5113 0 
L 5113 2094 
Q 5113 2597 4934 2840 
Q 4756 3084 4391 3084 
Q 3944 3084 3684 2787 
Q 3425 2491 3425 1978 
L 3425 0 
L 2847 0 
L 2847 2094 
Q 2847 2600 2669 2842 
Q 2491 3084 2119 3084 
Q 1678 3084 1418 2786 
Q 1159 2488 1159 1978 
L 1159 0 
L 581 0 
L 581 3500 
L 1159 3500 
L 1159 2956 
Q 1356 3278 1631 3431 
Q 1906 3584 2284 3584 
Q 2666 3584 2933 3390 
Q 3200 3197 3328 2828 
z
" transform="scale(0.015625)"/>
      <path id="DejaVuSans-64" d="M 2906 2969 
L 2906 4863 
L 3481 4863 
L 3481 0 
L 2906 0 
L 2906 525 
Q 2725 213 2448 61 
Q 2172 -91 1784 -91 
Q 1150 -91 751 415 
Q 353 922 353 1747 
Q 353 2572 751 3078 
Q 1150 3584 1784 3584 
Q 2172 3584 2448 3432 
Q 2725 3281 2906 2969 
z
M 947 1747 
Q 947 1113 1208 752 
Q 1469 391 1925 391 
Q 2381 391 2643 752 
Q 2906 1113 2906 1747 
Q 2906 2381 2643 2742 
Q 2381 3103 1925 3103 
Q 1469 3103 1208 2742 
Q 947 2381 947 1747 
z
" transform="scale(0.015625)"/>
     </defs>
     <use xlink:href="#DejaVuSans-41"/>
     <use xlink:href="#DejaVuSans-50" x="68.408203"/>
     <use xlink:href="#DejaVuSans-20" x="128.710938"/>
     <use xlink:href="#DejaVuSans-6d" x="160.498047"/>
     <use xlink:href="#DejaVuSans-6f" x="257.910156"/>
     <use xlink:href="#DejaVuSans-64" x="319.091797"/>
     <use xlink:href="#DejaVuSans-65" x="382.568359"/>
     <use xlink:href="#DejaVuSans-6c" x="444.091797"/>
    </g>
    <!-- Precision - Recall (PR) curve -->
    <g transform="translate(118.920812 56.8221) scale(0.264 -0.264)">
     <defs>
      <path id="DejaVuSans-2d" d="M 313 2009 
L 1997 2009 
L 1997 1497 
L 313 1497 
L 313 2009 
z
" transform="scale(0.015625)"/>
      <path id="DejaVuSans-28" d="M 1984 4856 
Q 1566 4138 1362 3434 
Q 1159 2731 1159 2009 
Q 1159 1288 1364 580 
Q 1569 -128 1984 -844 
L 1484 -844 
Q 1016 -109 783 600 
Q 550 1309 550 2009 
Q 550 2706 781 3412 
Q 1013 4119 1484 4856 
L 1984 4856 
z
" transform="scale(0.015625)"/>
      <path id="DejaVuSans-29" d="M 513 4856 
L 1013 4856 
Q 1481 4119 1714 3412 
Q 1947 2706 1947 2009 
Q 1947 1309 1714 600 
Q 1481 -109 1013 -844 
L 513 -844 
Q 928 -128 1133 580 
Q 1338 1288 1338 2009 
Q 1338 2731 1133 3434 
Q 928 4138 513 4856 
z
" transform="scale(0.015625)"/>
      <path id="DejaVuSans-75" d="M 544 1381 
L 544 3500 
L 1119 3500 
L 1119 1403 
Q 1119 906 1312 657 
Q 1506 409 1894 409 
Q 2359 409 2629 706 
Q 2900 1003 2900 1516 
L 2900 3500 
L 3475 3500 
L 3475 0 
L 2900 0 
L 2900 538 
Q 2691 219 2414 64 
Q 2138 -91 1772 -91 
Q 1169 -91 856 284 
Q 544 659 544 1381 
z
M 1991 3584 
L 1991 3584 
z
" transform="scale(0.015625)"/>
      <path id="DejaVuSans-76" d="M 191 3500 
L 800 3500 
L 1894 563 
L 2988 3500 
L 3597 3500 
L 2284 0 
L 1503 0 
L 191 3500 
z
" transform="scale(0.015625)"/>
     </defs>
     <use xlink:href="#DejaVuSans-50"/>
     <use xlink:href="#DejaVuSans-72" x="58.552734"/>
     <use xlink:href="#DejaVuSans-65" x="97.416016"/>
     <use xlink:href="#DejaVuSans-63" x="158.939453"/>
     <use xlink:href="#DejaVuSans-69" x="213.919922"/>
     <use xlink:href="#DejaVuSans-73" x="241.703125"/>
     <use xlink:href="#DejaVuSans-69" x="293.802734"/>
     <use xlink:href="#DejaVuSans-6f" x="321.585938"/>
     <use xlink:href="#DejaVuSans-6e" x="382.767578"/>
     <use xlink:href="#DejaVuSans-20" x="446.146484"/>
     <use xlink:href="#DejaVuSans-2d" x="477.933594"/>
     <use xlink:href="#DejaVuSans-20" x="514.017578"/>
     <use xlink:href="#DejaVuSans-52" x="545.804688"/>
     <use xlink:href="#DejaVuSans-65" x="610.787109"/>
     <use xlink:href="#DejaVuSans-63" x="672.310547"/>
     <use xlink:href="#DejaVuSans-61" x="727.291016"/>
     <use xlink:href="#DejaVuSans-6c" x="788.570312"/>
     <use xlink:href="#DejaVuSans-6c" x="816.353516"/>
     <use xlink:href="#DejaVuSans-20" x="844.136719"/>
     <use xlink:href="#DejaVuSans-28" x="875.923828"/>
     <use xlink:href="#DejaVuSans-50" x="914.9375"/>
     <use xlink:href="#DejaVuSans-52" x="975.240234"/>
     <use xlink:href="#DejaVuSans-29" x="1044.722656"/>
     <use xlink:href="#DejaVuSans-20" x="1083.736328"/>
     <use xlink:href="#DejaVuSans-63" x="1115.523438"/>
     <use xlink:href="#DejaVuSans-75" x="1170.503906"/>
     <use xlink:href="#DejaVuSans-72" x="1233.882812"/>
     <use xlink:href="#DejaVuSans-76" x="1274.996094"/>
     <use xlink:href="#DejaVuSans-65" x="1334.175781"/>
    </g>
   </g>
   <g id="legend_1">
    <g id="patch_8">
     <path d="M 11.6 432.048375 
L 594.703125 432.048375 
Q 599.103125 432.048375 599.103125 427.648375 
L 599.103125 397.5565 
Q 599.103125 393.1565 594.703125 393.1565 
L 11.6 393.1565 
Q 7.2 393.1565 7.2 397.5565 
L 7.2 427.648375 
Q 7.2 432.048375 11.6 432.048375 
z
" style="fill: #ffffff; opacity: 0.8; stroke: #cccccc; stroke-linejoin: miter"/>
    </g>
    <g id="line2d_16">
     <path d="M 16 410.973062 
L 38 410.973062 
L 60 410.973062 
" style="fill: none; stroke: #ff0000; stroke-width: 1.5; stroke-linecap: square"/>
    </g>
    <g id="text_16">
     <!-- model performance -->
     <g transform="translate(77.6 418.673062) scale(0.22 -0.22)">
      <defs>
       <path id="DejaVuSans-70" d="M 1159 525 
L 1159 -1331 
L 581 -1331 
L 581 3500 
L 1159 3500 
L 1159 2969 
Q 1341 3281 1617 3432 
Q 1894 3584 2278 3584 
Q 2916 3584 3314 3078 
Q 3713 2572 3713 1747 
Q 3713 922 3314 415 
Q 2916 -91 2278 -91 
Q 1894 -91 1617 61 
Q 1341 213 1159 525 
z
M 3116 1747 
Q 3116 2381 2855 2742 
Q 2594 3103 2138 3103 
Q 1681 3103 1420 2742 
Q 1159 2381 1159 1747 
Q 1159 1113 1420 752 
Q 1681 391 2138 391 
Q 2594 391 2855 752 
Q 3116 1113 3116 1747 
z
" transform="scale(0.015625)"/>
       <path id="DejaVuSans-66" d="M 2375 4863 
L 2375 4384 
L 1825 4384 
Q 1516 4384 1395 4259 
Q 1275 4134 1275 3809 
L 1275 3500 
L 2222 3500 
L 2222 3053 
L 1275 3053 
L 1275 0 
L 697 0 
L 697 3053 
L 147 3053 
L 147 3500 
L 697 3500 
L 697 3744 
Q 697 4328 969 4595 
Q 1241 4863 1831 4863 
L 2375 4863 
z
" transform="scale(0.015625)"/>
      </defs>
      <use xlink:href="#DejaVuSans-6d"/>
      <use xlink:href="#DejaVuSans-6f" x="97.412109"/>
      <use xlink:href="#DejaVuSans-64" x="158.59375"/>
      <use xlink:href="#DejaVuSans-65" x="222.070312"/>
      <use xlink:href="#DejaVuSans-6c" x="283.59375"/>
      <use xlink:href="#DejaVuSans-20" x="311.376953"/>
      <use xlink:href="#DejaVuSans-70" x="343.164062"/>
      <use xlink:href="#DejaVuSans-65" x="406.640625"/>
      <use xlink:href="#DejaVuSans-72" x="468.164062"/>
      <use xlink:href="#DejaVuSans-66" x="509.277344"/>
      <use xlink:href="#DejaVuSans-6f" x="544.482422"/>
      <use xlink:href="#DejaVuSans-72" x="605.664062"/>
      <use xlink:href="#DejaVuSans-6d" x="645.027344"/>
      <use xlink:href="#DejaVuSans-61" x="742.439453"/>
      <use xlink:href="#DejaVuSans-6e" x="803.71875"/>
      <use xlink:href="#DejaVuSans-63" x="867.097656"/>
      <use xlink:href="#DejaVuSans-65" x="922.078125"/>
     </g>
    </g>
    <g id="line2d_17">
     <path d="M 337.9975 410.973062 
L 359.9975 410.973062 
L 381.9975 410.973062 
" style="fill: none; stroke: #00bfbf; stroke-width: 1.5; stroke-linecap: square"/>
    </g>
    <g id="text_17">
     <!-- random guessing -->
     <g transform="translate(399.5975 418.673062) scale(0.22 -0.22)">
      <defs>
       <path id="DejaVuSans-67" d="M 2906 1791 
Q 2906 2416 2648 2759 
Q 2391 3103 1925 3103 
Q 1463 3103 1205 2759 
Q 947 2416 947 1791 
Q 947 1169 1205 825 
Q 1463 481 1925 481 
Q 2391 481 2648 825 
Q 2906 1169 2906 1791 
z
M 3481 434 
Q 3481 -459 3084 -895 
Q 2688 -1331 1869 -1331 
Q 1566 -1331 1297 -1286 
Q 1028 -1241 775 -1147 
L 775 -588 
Q 1028 -725 1275 -790 
Q 1522 -856 1778 -856 
Q 2344 -856 2625 -561 
Q 2906 -266 2906 331 
L 2906 616 
Q 2728 306 2450 153 
Q 2172 0 1784 0 
Q 1141 0 747 490 
Q 353 981 353 1791 
Q 353 2603 747 3093 
Q 1141 3584 1784 3584 
Q 2172 3584 2450 3431 
Q 2728 3278 2906 2969 
L 2906 3500 
L 3481 3500 
L 3481 434 
z
" transform="scale(0.015625)"/>
      </defs>
      <use xlink:href="#DejaVuSans-72"/>
      <use xlink:href="#DejaVuSans-61" x="41.113281"/>
      <use xlink:href="#DejaVuSans-6e" x="102.392578"/>
      <use xlink:href="#DejaVuSans-64" x="165.771484"/>
      <use xlink:href="#DejaVuSans-6f" x="229.248047"/>
      <use xlink:href="#DejaVuSans-6d" x="290.429688"/>
      <use xlink:href="#DejaVuSans-20" x="387.841797"/>
      <use xlink:href="#DejaVuSans-67" x="419.628906"/>
      <use xlink:href="#DejaVuSans-75" x="483.105469"/>
      <use xlink:href="#DejaVuSans-65" x="546.484375"/>
      <use xlink:href="#DejaVuSans-73" x="608.007812"/>
      <use xlink:href="#DejaVuSans-73" x="660.107422"/>
      <use xlink:href="#DejaVuSans-69" x="712.207031"/>
      <use xlink:href="#DejaVuSans-6e" x="739.990234"/>
      <use xlink:href="#DejaVuSans-67" x="803.369141"/>
     </g>
    </g>
   </g>
  </g>
 </g>
 <defs>
  <clipPath id="p019d14c77d">
   <rect x="124.591562" y="62.8221" width="357.12" height="266.112"/>
  </clipPath>
 </defs>
</svg>
