<?xml version="1.0" encoding="utf-8" standalone="no"?>
<!DOCTYPE svg PUBLIC "-//W3C//DTD SVG 1.1//EN"
  "http://www.w3.org/Graphics/SVG/1.1/DTD/svg11.dtd">
<svg xmlns:xlink="http://www.w3.org/1999/xlink" width="413.064687pt" height="359.867056pt" viewBox="0 0 413.064687 359.867056" xmlns="http://www.w3.org/2000/svg" version="1.1">
 <metadata>
  <rdf:RDF xmlns:dc="http://purl.org/dc/elements/1.1/" xmlns:cc="http://creativecommons.org/ns#" xmlns:rdf="http://www.w3.org/1999/02/22-rdf-syntax-ns#">
   <cc:Work>
    <dc:type rdf:resource="http://purl.org/dc/dcmitype/StillImage"/>
    <dc:date>2024-09-25T06:57:20.195172</dc:date>
    <dc:format>image/svg+xml</dc:format>
    <dc:creator>
     <cc:Agent>
      <dc:title>Matplotlib v3.7.0, https://matplotlib.org/</dc:title>
     </cc:Agent>
    </dc:creator>
   </cc:Work>
  </rdf:RDF>
 </metadata>
 <defs>
  <style type="text/css">*{stroke-linejoin: round; stroke-linecap: butt}</style>
 </defs>
 <g id="figure_1">
  <g id="patch_1">
   <path d="M 0 359.867056 
L 413.064687 359.867056 
L 413.064687 0 
L 0 0 
z
" style="fill: #ffffff"/>
  </g>
  <g id="axes_1">
   <g id="patch_2">
    <path d="M 45.269688 288.252469 
L 402.389688 288.252469 
L 402.389688 22.140469 
L 45.269688 22.140469 
z
" style="fill: #ffffff"/>
   </g>
   <g id="patch_3">
    <path d="M 402.389688 22.140469 
L 397.102688 29.576504 
L 394.760911 27.747275 
L 353.749565 56.9002 
L 353.503063 56.70765 
L 394.514408 27.554725 
L 392.172631 25.725496 
z
" clip-path="url(#p884ff3bd59)" style="fill: #1f77b4; stroke: #000000; stroke-linejoin: miter"/>
   </g>
   <g id="matplotlib.axis_1">
    <g id="xtick_1">
     <g id="line2d_1">
      <defs>
       <path id="mc67ac7ee42" d="M 0 0 
L 0 3.5 
" style="stroke: #000000; stroke-width: 0.8"/>
      </defs>
      <g>
       <use xlink:href="#mc67ac7ee42" x="45.269688" y="288.252469" style="stroke: #000000; stroke-width: 0.8"/>
      </g>
     </g>
     <g id="text_1">
      <text style="font: 5px 'Arial'; text-anchor: middle" x="45.269688" y="298.831375" transform="rotate(-0 45.269688 298.831375)">0.0</text>
     </g>
    </g>
    <g id="xtick_2">
     <g id="line2d_2">
      <g>
       <use xlink:href="#mc67ac7ee42" x="116.693688" y="288.252469" style="stroke: #000000; stroke-width: 0.8"/>
      </g>
     </g>
     <g id="text_2">
      <text style="font: 5px 'Arial'; text-anchor: middle" x="116.693688" y="298.831375" transform="rotate(-0 116.693688 298.831375)">0.2</text>
     </g>
    </g>
    <g id="xtick_3">
     <g id="line2d_3">
      <g>
       <use xlink:href="#mc67ac7ee42" x="188.117688" y="288.252469" style="stroke: #000000; stroke-width: 0.8"/>
      </g>
     </g>
     <g id="text_3">
      <text style="font: 5px 'Arial'; text-anchor: middle" x="188.117688" y="298.831375" transform="rotate(-0 188.117688 298.831375)">0.4</text>
     </g>
    </g>
    <g id="xtick_4">
     <g id="line2d_4">
      <g>
       <use xlink:href="#mc67ac7ee42" x="259.541688" y="288.252469" style="stroke: #000000; stroke-width: 0.8"/>
      </g>
     </g>
     <g id="text_4">
      <text style="font: 5px 'Arial'; text-anchor: middle" x="259.541688" y="298.831375" transform="rotate(-0 259.541688 298.831375)">0.6</text>
     </g>
    </g>
    <g id="xtick_5">
     <g id="line2d_5">
      <g>
       <use xlink:href="#mc67ac7ee42" x="330.965688" y="288.252469" style="stroke: #000000; stroke-width: 0.8"/>
      </g>
     </g>
     <g id="text_5">
      <text style="font: 5px 'Arial'; text-anchor: middle" x="330.965688" y="298.831375" transform="rotate(-0 330.965688 298.831375)">0.8</text>
     </g>
    </g>
    <g id="xtick_6">
     <g id="line2d_6">
      <g>
       <use xlink:href="#mc67ac7ee42" x="402.389688" y="288.252469" style="stroke: #000000; stroke-width: 0.8"/>
      </g>
     </g>
     <g id="text_6">
      <text style="font: 5px 'Arial'; text-anchor: middle" x="402.389688" y="298.831375" transform="rotate(-0 402.389688 298.831375)">1.0</text>
     </g>
    </g>
    <g id="text_7">
     <text style="font: 22px 'Arial'; text-anchor: middle" x="223.829688" y="319.572312" transform="rotate(-0 223.829688 319.572312)">Recall</text>
    </g>
   </g>
   <g id="matplotlib.axis_2">
    <g id="ytick_1">
     <g id="line2d_7">
      <defs>
       <path id="mf0f28ef348" d="M 0 0 
L -3.5 0 
" style="stroke: #000000; stroke-width: 0.8"/>
      </defs>
      <g>
       <use xlink:href="#mf0f28ef348" x="45.269688" y="288.252469" style="stroke: #000000; stroke-width: 0.8"/>
      </g>
     </g>
     <g id="text_8">
      <text style="font: 5px 'Arial'; text-anchor: end" x="38.269688" y="290.041922" transform="rotate(-0 38.269688 290.041922)">0.0</text>
     </g>
    </g>
    <g id="ytick_2">
     <g id="line2d_8">
      <g>
       <use xlink:href="#mf0f28ef348" x="45.269688" y="235.030069" style="stroke: #000000; stroke-width: 0.8"/>
      </g>
     </g>
     <g id="text_9">
      <text style="font: 5px 'Arial'; text-anchor: end" x="38.269688" y="236.819522" transform="rotate(-0 38.269688 236.819522)">0.2</text>
     </g>
    </g>
    <g id="ytick_3">
     <g id="line2d_9">
      <g>
       <use xlink:href="#mf0f28ef348" x="45.269688" y="181.807669" style="stroke: #000000; stroke-width: 0.8"/>
      </g>
     </g>
     <g id="text_10">
      <text style="font: 5px 'Arial'; text-anchor: end" x="38.269688" y="183.597122" transform="rotate(-0 38.269688 183.597122)">0.4</text>
     </g>
    </g>
    <g id="ytick_4">
     <g id="line2d_10">
      <g>
       <use xlink:href="#mf0f28ef348" x="45.269688" y="128.585269" style="stroke: #000000; stroke-width: 0.8"/>
      </g>
     </g>
     <g id="text_11">
      <text style="font: 5px 'Arial'; text-anchor: end" x="38.269688" y="130.374722" transform="rotate(-0 38.269688 130.374722)">0.6</text>
     </g>
    </g>
    <g id="ytick_5">
     <g id="line2d_11">
      <g>
       <use xlink:href="#mf0f28ef348" x="45.269688" y="75.362869" style="stroke: #000000; stroke-width: 0.8"/>
      </g>
     </g>
     <g id="text_12">
      <text style="font: 5px 'Arial'; text-anchor: end" x="38.269688" y="77.152322" transform="rotate(-0 38.269688 77.152322)">0.8</text>
     </g>
    </g>
    <g id="ytick_6">
     <g id="line2d_12">
      <g>
       <use xlink:href="#mf0f28ef348" x="45.269688" y="22.140469" style="stroke: #000000; stroke-width: 0.8"/>
      </g>
     </g>
     <g id="text_13">
      <text style="font: 5px 'Arial'; text-anchor: end" x="38.269688" y="23.929922" transform="rotate(-0 38.269688 23.929922)">1.0</text>
     </g>
    </g>
    <g id="text_14">
     <text style="font: 22px 'Arial'; text-anchor: middle" x="22.947188" y="155.196469" transform="rotate(-90 22.947188 155.196469)">Precision</text>
    </g>
   </g>
   <g id="line2d_13">
    <path d="M 402.389688 108.19299 
L 402.389688 107.010981 
L 401.816001 107.103939 
L 401.816001 107.004679 
L 401.816001 106.805834 
L 401.529157 106.852302 
L 401.529157 106.752686 
L 401.529157 106.353127 
L 401.242314 106.3995 
L 401.242314 106.299305 
L 401.242314 106.098585 
L 400.955471 106.144919 
L 400.955471 106.044363 
L 400.955471 105.842917 
L 400.668627 105.889212 
L 400.668627 105.788292 
L 400.668627 103.33224 
L 400.381784 103.377802 
L 400.381784 103.273998 
L 400.381784 102.961886 
L 400.094941 103.007368 
L 400.094941 102.903063 
L 400.094941 102.798641 
L 399.808097 102.844108 
L 399.808097 102.739535 
L 399.808097 102.214894 
L 399.521254 102.260211 
L 399.521254 102.154892 
L 399.521254 101.626506 
L 399.23441 101.671669 
L 399.23441 101.565597 
L 399.23441 101.459404 
L 398.947567 101.504548 
L 398.947567 101.3982 
L 398.947567 100.757557 
L 398.660724 100.802506 
L 398.660724 100.69527 
L 398.660724 100.372822 
L 398.37388 100.41768 
L 398.37388 100.309915 
L 398.37388 100.202026 
L 397.800194 100.183666 
L 397.800194 98.327005 
L 397.51335 98.371274 
L 397.51335 98.260878 
L 397.51335 97.595797 
L 397.226507 97.639845 
L 397.226507 97.528506 
L 397.226507 97.305437 
L 396.939663 97.349419 
L 396.939663 97.237649 
L 396.939663 96.225799 
L 396.65282 96.26943 
L 396.65282 96.156299 
L 396.365977 96.19994 
L 396.365977 94.601406 
L 395.505447 94.730877 
L 395.505447 94.500082 
L 394.93176 94.586482 
L 394.93176 94.238995 
L 394.644916 94.282142 
L 394.644916 93.58315 
L 394.358073 93.626084 
L 394.358073 93.391877 
L 394.07123 93.434773 
L 394.07123 92.373418 
L 393.497543 92.458549 
L 393.497543 91.50462 
L 393.2107 91.546889 
L 393.2107 91.426947 
L 392.637013 91.511546 
L 392.637013 91.271031 
L 392.350169 91.313313 
L 392.350169 91.072114 
L 391.776483 91.15664 
L 391.776483 90.914657 
L 391.489639 90.956901 
L 391.489639 90.714225 
L 390.915953 90.798676 
L 390.915953 90.066461 
L 390.342266 90.150528 
L 390.342266 89.782081 
L 390.055422 89.824042 
L 390.055422 89.577547 
L 389.768579 89.619459 
L 389.768579 89.37225 
L 389.481736 89.414113 
L 389.481736 88.418677 
L 389.194892 88.460178 
L 389.194892 87.83269 
L 388.908049 87.87398 
L 388.908049 87.747956 
L 388.621206 87.789244 
L 388.621206 87.536612 
L 388.047519 87.619131 
L 388.047519 87.365646 
L 387.760675 87.406876 
L 387.760675 87.279839 
L 387.473832 87.321066 
L 387.473832 87.0664 
L 386.900145 87.148794 
L 386.900145 86.893262 
L 386.326459 86.975644 
L 386.326459 86.847524 
L 386.039615 86.888739 
L 386.039615 85.207475 
L 385.752772 85.248006 
L 385.752772 84.724799 
L 385.179085 84.805553 
L 385.179085 84.27917 
L 384.892242 84.319389 
L 384.892242 84.055056 
L 384.605398 84.095208 
L 384.605398 83.962724 
L 384.318555 84.002869 
L 384.318555 83.737265 
L 382.884338 83.938167 
L 382.884338 83.671264 
L 382.597495 83.711481 
L 382.597495 83.577706 
L 382.310651 83.617914 
L 382.310651 83.080815 
L 381.163278 83.241185 
L 381.163278 83.10622 
L 380.876434 83.146382 
L 380.876434 82.332469 
L 380.302748 82.412193 
L 380.302748 81.865473 
L 380.015904 81.905157 
L 380.015904 81.355264 
L 379.729061 81.394741 
L 379.729061 81.118562 
L 379.442218 81.15796 
L 379.442218 80.742107 
L 379.155374 80.781358 
L 379.155374 80.084211 
L 378.581688 80.162197 
L 378.581688 79.177321 
L 377.721157 79.293249 
L 377.721157 79.151582 
L 377.147471 79.22899 
L 377.147471 79.08699 
L 376.860627 79.125703 
L 376.860627 77.838329 
L 376.573784 77.876452 
L 376.573784 76.863638 
L 376.286941 76.9013 
L 376.286941 76.755741 
L 375.713254 76.831073 
L 375.713254 76.392742 
L 375.42641 76.430261 
L 375.42641 76.283672 
L 375.139567 76.321167 
L 375.139567 76.027226 
L 374.56588 76.102069 
L 374.56588 75.95464 
L 374.279037 75.992063 
L 374.279037 75.844352 
L 373.992194 75.88175 
L 373.992194 75.585557 
L 373.418507 75.660201 
L 373.418507 75.511639 
L 372.84482 75.586336 
L 372.84482 74.689641 
L 372.271133 74.763602 
L 372.271133 74.462701 
L 371.697447 74.536551 
L 371.697447 73.323117 
L 371.12376 73.395872 
L 371.12376 72.475715 
L 370.550073 72.547674 
L 370.550073 72.084125 
L 369.689543 72.191685 
L 369.689543 72.036469 
L 369.4027 72.072339 
L 369.4027 71.605091 
L 368.255326 71.748053 
L 368.255326 70.963047 
L 367.968483 70.998477 
L 367.968483 70.524469 
L 367.681639 70.559683 
L 367.681639 70.40113 
L 367.394796 70.436305 
L 367.394796 70.277432 
L 367.107953 70.312568 
L 367.107953 69.032451 
L 366.534266 69.10141 
L 366.534266 68.778654 
L 366.247422 68.813023 
L 366.247422 67.019684 
L 365.960579 67.053052 
L 365.960579 66.393247 
L 365.673736 66.426272 
L 365.673736 66.260606 
L 365.100049 66.326605 
L 365.100049 65.994132 
L 364.813206 66.027005 
L 364.813206 65.860295 
L 364.526362 65.893117 
L 364.526362 65.726056 
L 364.239519 65.758827 
L 364.239519 65.591412 
L 363.952675 65.624131 
L 363.952675 65.456363 
L 363.665832 65.48903 
L 363.665832 64.983897 
L 362.805302 65.081269 
L 362.805302 64.912071 
L 362.518459 64.944523 
L 362.518459 63.752185 
L 362.231615 63.78395 
L 362.231615 63.612469 
L 361.371085 63.707734 
L 361.371085 63.36334 
L 360.510555 63.458396 
L 360.510555 62.765123 
L 359.363181 62.890798 
L 359.363181 62.541671 
L 359.076338 62.57299 
L 359.076338 62.397909 
L 358.502651 62.460469 
L 358.502651 62.284892 
L 358.215808 62.316133 
L 358.215808 62.14017 
L 357.928965 62.171346 
L 357.928965 61.994996 
L 357.642121 62.026108 
L 357.642121 61.49506 
L 357.355278 61.525878 
L 357.355278 60.634657 
L 357.068434 60.664944 
L 357.068434 60.306256 
L 356.781591 60.336355 
L 356.781591 59.976298 
L 356.207904 60.036165 
L 356.207904 59.311669 
L 355.634218 59.370764 
L 355.634218 59.188679 
L 354.773688 59.277311 
L 354.773688 58.911536 
L 354.486844 58.940929 
L 354.486844 58.3897 
L 354.200001 58.418769 
L 354.200001 57.307566 
L 353.913157 57.335927 
L 353.913157 57.149553 
L 353.626314 57.177832 
L 353.626314 56.803925 
L 353.339471 56.831993 
L 353.339471 56.644456 
L 352.478941 56.728543 
L 352.478941 56.540313 
L 351.61841 56.62442 
L 351.61841 56.056704 
L 351.044724 56.112213 
L 351.044724 55.92209 
L 349.89735 56.033123 
L 349.89735 55.842153 
L 348.749977 55.95338 
L 348.749977 55.569414 
L 347.028916 55.736004 
L 347.028916 55.155196 
L 346.168386 55.237871 
L 346.168386 55.043206 
L 345.5947 55.098273 
L 345.5947 54.511475 
L 345.021013 54.565881 
L 345.021013 53.975266 
L 342.439422 54.218486 
L 342.439422 54.019646 
L 341.865736 54.073909 
L 341.865736 53.273982 
L 340.431519 53.407488 
L 340.431519 53.205904 
L 340.144675 53.232592 
L 340.144675 53.030512 
L 339.857832 53.057095 
L 339.857832 52.854515 
L 339.284145 52.907516 
L 339.284145 52.296759 
L 336.128868 52.58647 
L 336.128868 52.380469 
L 335.555181 52.433428 
L 335.555181 52.019711 
L 333.834121 52.177802 
L 333.834121 51.760709 
L 332.973591 51.839416 
L 332.973591 51.62983 
L 330.965688 51.813975 
L 330.965688 51.391386 
L 330.678844 51.417549 
L 330.678844 50.993114 
L 330.392001 51.018991 
L 330.392001 50.806034 
L 330.105157 50.83179 
L 330.105157 50.618282 
L 329.531471 50.669593 
L 329.531471 50.455361 
L 328.097254 50.583599 
L 328.097254 50.368124 
L 326.08935 50.54841 
L 326.08935 50.331329 
L 324.655133 50.460645 
L 324.655133 50.242287 
L 323.50776 50.345888 
L 323.50776 50.126417 
L 322.64723 50.204084 
L 322.64723 49.983669 
L 322.073543 50.035326 
L 322.073543 49.148111 
L 320.926169 49.249074 
L 320.926169 49.025498 
L 320.065639 49.101159 
L 320.065639 48.876604 
L 318.344579 49.028083 
L 318.344579 48.801973 
L 317.770892 48.852469 
L 317.770892 48.625549 
L 316.623519 48.726349 
L 316.623519 48.498229 
L 315.762989 48.573752 
L 315.762989 48.344614 
L 314.328772 48.470475 
L 314.328772 48.239915 
L 313.181398 48.340685 
L 313.181398 47.643942 
L 312.894555 47.668655 
L 312.894555 47.201502 
L 312.320868 47.250259 
L 312.320868 47.015592 
L 310.886651 47.137291 
L 310.886651 46.901135 
L 307.444531 47.195612 
L 307.444531 46.956469 
L 304.576097 47.205126 
L 304.576097 46.47835 
L 303.715567 46.551953 
L 303.715567 46.308057 
L 303.428724 46.332469 
L 303.428724 45.842752 
L 299.69976 46.158783 
L 299.69976 45.910226 
L 299.412916 45.934656 
L 299.412916 45.685358 
L 299.126073 45.709606 
L 299.126073 45.209001 
L 297.9787 45.304622 
L 297.9787 44.800058 
L 296.831326 44.894571 
L 296.831326 44.640544 
L 296.257639 44.687615 
L 296.257639 44.432573 
L 293.676049 44.644655 
L 293.676049 44.386869 
L 293.102362 44.434051 
L 293.102362 44.17522 
L 292.528675 44.222103 
L 292.528675 43.96222 
L 290.233928 44.149732 
L 290.233928 43.360607 
L 288.799712 43.475559 
L 288.799712 43.210074 
L 287.652338 43.301881 
L 287.652338 43.034759 
L 287.078651 43.080429 
L 287.078651 42.812189 
L 286.218121 42.880262 
L 286.218121 42.610623 
L 285.357591 42.67833 
L 285.357591 42.407277 
L 285.070748 42.429671 
L 285.070748 42.157743 
L 282.202314 42.38165 
L 282.202314 42.106319 
L 281.054941 42.196154 
L 281.054941 41.919063 
L 276.465447 42.281973 
L 276.465447 41.999573 
L 276.178603 42.0224 
L 276.178603 41.739051 
L 275.03123 41.82968 
L 275.03123 41.544469 
L 273.597013 41.657414 
L 273.597013 41.370007 
L 273.310169 41.392445 
L 273.310169 41.104058 
L 273.023326 41.126237 
L 273.023326 40.836862 
L 271.875953 40.924845 
L 271.875953 40.633529 
L 271.302266 40.677196 
L 271.302266 40.384554 
L 269.868049 40.49302 
L 269.868049 40.198069 
L 269.007519 40.262791 
L 269.007519 39.966153 
L 266.425928 40.160145 
L 266.425928 39.859791 
L 266.139085 39.881269 
L 266.139085 39.579847 
L 265.852242 39.601037 
L 265.852242 39.298542 
L 263.270651 39.488484 
L 263.270651 39.182124 
L 249.789013 40.229128 
L 249.789013 39.90449 
L 245.199519 40.284469 
L 245.199519 39.952517 
L 243.478459 40.096744 
L 243.478459 39.761398 
L 241.757398 39.905439 
L 241.757398 39.56663 
L 241.183712 39.614307 
L 241.183712 38.932172 
L 240.323181 39.00156 
L 240.323181 38.657765 
L 235.733688 39.030511 
L 235.733688 38.678503 
L 232.291567 38.963641 
L 232.291567 38.604952 
L 229.423133 38.84531 
L 229.423133 38.480679 
L 228.849447 38.528598 
L 228.849447 38.161896 
L 227.41523 38.280398 
L 227.41523 37.538641 
L 226.267856 37.63057 
L 226.267856 37.255949 
L 223.112579 37.508639 
L 223.112579 37.126989 
L 221.104675 37.288383 
L 221.104675 36.901689 
L 220.530989 36.947319 
L 220.530989 36.558302 
L 219.383615 36.648132 
L 219.383615 36.255614 
L 217.088868 36.434004 
L 217.088868 36.035557 
L 213.933591 36.281686 
L 213.933591 35.875282 
L 212.786218 35.964469 
L 212.786218 35.554244 
L 212.499374 35.576091 
L 212.499374 35.163895 
L 210.491471 35.31433 
L 210.491471 34.896251 
L 208.196724 35.067182 
L 208.196724 34.642375 
L 195.001928 35.687989 
L 195.001928 35.227944 
L 184.96241 36.119115 
L 184.96241 35.627627 
L 184.675567 35.653969 
L 184.675567 35.159647 
L 182.093977 35.393058 
L 182.093977 34.888349 
L 180.946603 34.990948 
L 180.946603 34.48034 
L 178.651856 34.682633 
L 178.651856 34.161955 
L 167.751808 35.179364 
L 167.751808 34.614469 
L 164.596531 34.92846 
L 164.596531 34.347441 
L 163.736001 34.432016 
L 163.736001 33.844469 
L 161.15441 34.09349 
L 161.15441 33.491218 
L 151.975422 34.422561 
L 151.975422 33.770042 
L 150.541206 33.921469 
L 150.541206 33.257419 
L 144.804338 33.869923 
L 144.804338 33.167209 
L 137.059567 34.055931 
L 137.059567 33.294864 
L 130.175326 34.15843 
L 130.175326 33.336119 
L 127.593736 33.671989 
L 127.593736 31.963395 
L 125.872675 32.165236 
L 125.872675 31.285211 
L 124.725302 31.412664 
L 124.725302 30.514623 
L 115.833157 31.532657 
L 110.95682 32.203528 
L 110.95682 31.123152 
L 109.23576 31.356469 
L 109.23576 30.23953 
L 106.367326 30.607669 
L 106.367326 29.431208 
L 101.204145 30.084111 
L 101.204145 28.793269 
L 100.056772 28.92904 
L 100.056772 27.599176 
L 92.598844 28.438978 
L 86.575133 29.332685 
L 81.698796 30.266026 
L 77.396145 31.316745 
L 73.954025 32.375546 
L 70.798748 33.586146 
L 68.217157 34.812469 
L 65.92241 36.146363 
L 64.775037 36.924469 
L 64.775037 33.384638 
L 62.767133 34.614469 
L 61.332916 35.671587 
L 61.332916 31.316745 
L 59.611856 32.375546 
L 57.890796 33.710556 
L 57.890796 28.054069 
L 56.169736 28.963853 
L 54.735519 29.967292 
L 53.588145 31.010869 
L 52.440772 32.375546 
L 51.580242 33.710556 
L 50.719712 35.446069 
L 49.859181 37.794116 
L 49.285495 39.881269 
L 49.285495 22.140469 
L 45.269688 22.140469 
L 45.269688 22.140469 
" clip-path="url(#p884ff3bd59)" style="fill: none; stroke: #ff0000; stroke-width: 1.5; stroke-linecap: square"/>
   </g>
   <g id="line2d_14">
    <defs>
     <path id="m57a199117c" d="M 0 3 
C 0.795609 3 1.55874 2.683901 2.12132 2.12132 
C 2.683901 1.55874 3 0.795609 3 0 
C 3 -0.795609 2.683901 -1.55874 2.12132 -2.12132 
C 1.55874 -2.683901 0.795609 -3 0 -3 
C -0.795609 -3 -1.55874 -2.683901 -2.12132 -2.12132 
C -2.683901 -1.55874 -3 -0.795609 -3 0 
C -3 0.795609 -2.683901 1.55874 -2.12132 2.12132 
C -1.55874 2.683901 -0.795609 3 0 3 
z
" style="stroke: #000000"/>
    </defs>
    <g clip-path="url(#p884ff3bd59)">
     <use xlink:href="#m57a199117c" x="353.626314" y="56.803925" style="fill: #ff0000; stroke: #000000"/>
    </g>
   </g>
   <g id="line2d_15">
    <path d="M 45.269688 108.19299 
L 402.389688 108.19299 
" clip-path="url(#p884ff3bd59)" style="fill: none; stroke: #00bfbf; stroke-width: 1.5; stroke-linecap: square"/>
   </g>
   <g id="patch_4">
    <path d="M 45.269688 288.252469 
L 45.269688 22.140469 
" style="fill: none; stroke: #000000; stroke-width: 0.8; stroke-linejoin: miter; stroke-linecap: square"/>
   </g>
   <g id="patch_5">
    <path d="M 402.389688 288.252469 
L 402.389688 22.140469 
" style="fill: none; stroke: #000000; stroke-width: 0.8; stroke-linejoin: miter; stroke-linecap: square"/>
   </g>
   <g id="patch_6">
    <path d="M 45.269688 288.252469 
L 402.389688 288.252469 
" style="fill: none; stroke: #000000; stroke-width: 0.8; stroke-linejoin: miter; stroke-linecap: square"/>
   </g>
   <g id="patch_7">
    <path d="M 45.269688 22.140469 
L 402.389688 22.140469 
" style="fill: none; stroke: #000000; stroke-width: 0.8; stroke-linejoin: miter; stroke-linecap: square"/>
   </g>
   <g id="text_15">
    <text style="font: 5px 'Arial'" transform="translate(213.035156 10.778906)">AP model</text>
    <text style="font: 5px 'Arial'" transform="translate(191.739844 16.140469)">Precision - Recall (PR) curve</text>
   </g>
   <g id="legend_1">
    <g id="patch_8">
     <path d="M 163.116406 352.667056 
L 284.542969 352.667056 
Q 285.542969 352.667056 285.542969 351.667056 
L 285.542969 344.974869 
Q 285.542969 343.974869 284.542969 343.974869 
L 163.116406 343.974869 
Q 162.116406 343.974869 162.116406 344.974869 
L 162.116406 351.667056 
Q 162.116406 352.667056 163.116406 352.667056 
z
" style="fill: #ffffff; opacity: 0.8; stroke: #cccccc; stroke-linejoin: miter"/>
    </g>
    <g id="line2d_16">
     <path d="M 164.116406 347.864712 
L 169.116406 347.864712 
L 174.116406 347.864712 
" style="fill: none; stroke: #ff0000; stroke-width: 1.5; stroke-linecap: square"/>
    </g>
    <g id="text_16">
     <text style="font: 5px 'Arial'; text-anchor: start" x="178.116406" y="349.614712" transform="rotate(-0 178.116406 349.614712)">model performance</text>
    </g>
    <g id="line2d_17">
     <path d="M 231.189063 347.864712 
L 236.189063 347.864712 
L 241.189063 347.864712 
" style="fill: none; stroke: #00bfbf; stroke-width: 1.5; stroke-linecap: square"/>
    </g>
    <g id="text_17">
     <text style="font: 5px 'Arial'; text-anchor: start" x="245.189063" y="349.614712" transform="rotate(-0 245.189063 349.614712)">random guessing</text>
    </g>
   </g>
  </g>
 </g>
 <defs>
  <clipPath id="p884ff3bd59">
   <rect x="45.269688" y="22.140469" width="357.12" height="266.112"/>
  </clipPath>
 </defs>
</svg>
