<?xml version="1.0" encoding="utf-8" standalone="no"?>
<!DOCTYPE svg PUBLIC "-//W3C//DTD SVG 1.1//EN"
  "http://www.w3.org/Graphics/SVG/1.1/DTD/svg11.dtd">
<svg xmlns:xlink="http://www.w3.org/1999/xlink" width="238.114192pt" height="476.122835pt" viewBox="0 0 238.114192 476.122835" xmlns="http://www.w3.org/2000/svg" version="1.1">
 <metadata>
  <rdf:RDF xmlns:dc="http://purl.org/dc/elements/1.1/" xmlns:cc="http://creativecommons.org/ns#" xmlns:rdf="http://www.w3.org/1999/02/22-rdf-syntax-ns#">
   <cc:Work>
    <dc:type rdf:resource="http://purl.org/dc/dcmitype/StillImage"/>
    <dc:date>2024-09-25T17:35:11.486992</dc:date>
    <dc:format>image/svg+xml</dc:format>
    <dc:creator>
     <cc:Agent>
      <dc:title>Matplotlib v3.7.0, https://matplotlib.org/</dc:title>
     </cc:Agent>
    </dc:creator>
   </cc:Work>
  </rdf:RDF>
 </metadata>
 <defs>
  <style type="text/css">*{stroke-linejoin: round; stroke-linecap: butt}</style>
 </defs>
 <g id="figure_1">
  <g id="patch_1">
   <path d="M 0 476.122835 
L 238.114192 476.122835 
L 238.114192 0 
L 0 0 
z
" style="fill: #ffffff"/>
  </g>
  <g id="axes_1">
   <g id="patch_2">
    <path d="M 29.722656 425.935744 
L 227.439192 425.935744 
L 227.439192 22.140469 
L 29.722656 22.140469 
z
" style="fill: #ffffff"/>
   </g>
   <g id="patch_3">
    <path d="M 227.439192 22.140469 
L 224.512088 33.423822 
L 223.215583 30.648172 
L 200.50999 74.884484 
L 200.373516 74.59231 
L 223.079108 30.355998 
L 221.782603 27.580348 
z
" clip-path="url(#pe29ab5dd2e)" style="fill: #1f77b4; stroke: #000000; stroke-linejoin: miter"/>
   </g>
   <g id="matplotlib.axis_1">
    <g id="xtick_1">
     <g id="line2d_1">
      <defs>
       <path id="m37e1827c32" d="M 0 0 
L 0 3.5 
" style="stroke: #000000; stroke-width: 0.8"/>
      </defs>
      <g>
       <use xlink:href="#m37e1827c32" x="29.722656" y="425.935744" style="stroke: #000000; stroke-width: 0.8"/>
      </g>
     </g>
     <g id="text_1">
      <text style="font: 5px 'Arial'; text-anchor: middle" x="29.722656" y="436.514651" transform="rotate(-0 29.722656 436.514651)">0.0</text>
     </g>
    </g>
    <g id="xtick_2">
     <g id="line2d_2">
      <g>
       <use xlink:href="#m37e1827c32" x="69.265963" y="425.935744" style="stroke: #000000; stroke-width: 0.8"/>
      </g>
     </g>
     <g id="text_2">
      <text style="font: 5px 'Arial'; text-anchor: middle" x="69.265963" y="436.514651" transform="rotate(-0 69.265963 436.514651)">0.2</text>
     </g>
    </g>
    <g id="xtick_3">
     <g id="line2d_3">
      <g>
       <use xlink:href="#m37e1827c32" x="108.80927" y="425.935744" style="stroke: #000000; stroke-width: 0.8"/>
      </g>
     </g>
     <g id="text_3">
      <text style="font: 5px 'Arial'; text-anchor: middle" x="108.80927" y="436.514651" transform="rotate(-0 108.80927 436.514651)">0.4</text>
     </g>
    </g>
    <g id="xtick_4">
     <g id="line2d_4">
      <g>
       <use xlink:href="#m37e1827c32" x="148.352578" y="425.935744" style="stroke: #000000; stroke-width: 0.8"/>
      </g>
     </g>
     <g id="text_4">
      <text style="font: 5px 'Arial'; text-anchor: middle" x="148.352578" y="436.514651" transform="rotate(-0 148.352578 436.514651)">0.6</text>
     </g>
    </g>
    <g id="xtick_5">
     <g id="line2d_5">
      <g>
       <use xlink:href="#m37e1827c32" x="187.895885" y="425.935744" style="stroke: #000000; stroke-width: 0.8"/>
      </g>
     </g>
     <g id="text_5">
      <text style="font: 5px 'Arial'; text-anchor: middle" x="187.895885" y="436.514651" transform="rotate(-0 187.895885 436.514651)">0.8</text>
     </g>
    </g>
    <g id="xtick_6">
     <g id="line2d_6">
      <g>
       <use xlink:href="#m37e1827c32" x="227.439192" y="425.935744" style="stroke: #000000; stroke-width: 0.8"/>
      </g>
     </g>
     <g id="text_6">
      <text style="font: 5px 'Arial'; text-anchor: middle" x="227.439192" y="436.514651" transform="rotate(-0 227.439192 436.514651)">1.0</text>
     </g>
    </g>
    <g id="text_7">
     <text style="font: 5px 'Arial'; text-anchor: middle" x="128.580924" y="445.087307" transform="rotate(-0 128.580924 445.087307)">Recall</text>
    </g>
   </g>
   <g id="matplotlib.axis_2">
    <g id="ytick_1">
     <g id="line2d_7">
      <defs>
       <path id="m2ad6715f4a" d="M 0 0 
L -3.5 0 
" style="stroke: #000000; stroke-width: 0.8"/>
      </defs>
      <g>
       <use xlink:href="#m2ad6715f4a" x="29.722656" y="425.935744" style="stroke: #000000; stroke-width: 0.8"/>
      </g>
     </g>
     <g id="text_8">
      <text style="font: 5px 'Arial'; text-anchor: end" x="22.722656" y="427.725197" transform="rotate(-0 22.722656 427.725197)">0.0</text>
     </g>
    </g>
    <g id="ytick_2">
     <g id="line2d_8">
      <g>
       <use xlink:href="#m2ad6715f4a" x="29.722656" y="345.176689" style="stroke: #000000; stroke-width: 0.8"/>
      </g>
     </g>
     <g id="text_9">
      <text style="font: 5px 'Arial'; text-anchor: end" x="22.722656" y="346.966142" transform="rotate(-0 22.722656 346.966142)">0.2</text>
     </g>
    </g>
    <g id="ytick_3">
     <g id="line2d_9">
      <g>
       <use xlink:href="#m2ad6715f4a" x="29.722656" y="264.417634" style="stroke: #000000; stroke-width: 0.8"/>
      </g>
     </g>
     <g id="text_10">
      <text style="font: 5px 'Arial'; text-anchor: end" x="22.722656" y="266.207087" transform="rotate(-0 22.722656 266.207087)">0.4</text>
     </g>
    </g>
    <g id="ytick_4">
     <g id="line2d_10">
      <g>
       <use xlink:href="#m2ad6715f4a" x="29.722656" y="183.658579" style="stroke: #000000; stroke-width: 0.8"/>
      </g>
     </g>
     <g id="text_11">
      <text style="font: 5px 'Arial'; text-anchor: end" x="22.722656" y="185.448032" transform="rotate(-0 22.722656 185.448032)">0.6</text>
     </g>
    </g>
    <g id="ytick_5">
     <g id="line2d_11">
      <g>
       <use xlink:href="#m2ad6715f4a" x="29.722656" y="102.899524" style="stroke: #000000; stroke-width: 0.8"/>
      </g>
     </g>
     <g id="text_12">
      <text style="font: 5px 'Arial'; text-anchor: end" x="22.722656" y="104.688977" transform="rotate(-0 22.722656 104.688977)">0.8</text>
     </g>
    </g>
    <g id="ytick_6">
     <g id="line2d_12">
      <g>
       <use xlink:href="#m2ad6715f4a" x="29.722656" y="22.140469" style="stroke: #000000; stroke-width: 0.8"/>
      </g>
     </g>
     <g id="text_13">
      <text style="font: 5px 'Arial'; text-anchor: end" x="22.722656" y="23.929922" transform="rotate(-0 22.722656 23.929922)">1.0</text>
     </g>
    </g>
    <g id="text_14">
     <text style="font: 5px 'Arial'; text-anchor: middle" x="10.778906" y="224.038107" transform="rotate(-90 10.778906 224.038107)">Precision</text>
    </g>
   </g>
   <g id="line2d_13">
    <path d="M 227.439192 152.715571 
L 227.439192 150.922004 
L 227.121575 151.063057 
L 227.121575 150.610716 
L 226.962766 150.681226 
L 226.962766 149.923784 
L 226.803958 149.994149 
L 226.803958 149.537544 
L 226.645149 149.607852 
L 226.645149 149.149596 
L 226.486341 149.219845 
L 226.486341 145.339925 
L 226.327532 145.40906 
L 226.327532 144.777954 
L 226.168724 144.846968 
L 226.168724 144.530248 
L 226.009916 144.599239 
L 226.009916 143.644477 
L 225.851107 143.71324 
L 225.851107 142.751664 
L 225.692299 142.820193 
L 225.692299 142.498105 
L 225.53349 142.566607 
L 225.53349 141.43313 
L 225.374682 141.501336 
L 225.374682 140.849338 
L 225.215873 140.917405 
L 225.215873 140.590174 
L 225.057065 140.658209 
L 225.057065 140.494256 
L 224.898256 140.562315 
L 224.898256 137.74504 
L 224.739448 137.812212 
L 224.739448 136.635512 
L 224.580639 136.702351 
L 224.580639 136.194924 
L 224.421831 136.261661 
L 224.421831 134.556693 
L 224.263022 134.622898 
L 224.263022 134.451235 
L 224.104214 134.517456 
L 224.104214 132.091858 
L 223.627789 132.288316 
L 223.627789 131.938111 
L 223.310172 132.069212 
L 223.310172 131.54194 
L 223.151363 131.607411 
L 223.151363 130.546768 
L 222.992555 130.611916 
L 222.992555 130.256532 
L 222.833746 130.321623 
L 222.833746 128.711135 
L 222.516129 128.840311 
L 222.516129 127.39283 
L 222.357321 127.45697 
L 222.357321 127.27497 
L 222.039704 127.40334 
L 222.039704 127.038386 
L 221.880896 127.102543 
L 221.880896 126.736551 
L 221.563279 126.864811 
L 221.563279 126.497627 
L 221.40447 126.561729 
L 221.40447 126.193495 
L 221.086853 126.321639 
L 221.086853 125.210585 
L 220.769236 125.338147 
L 220.769236 124.779069 
L 220.610428 124.842741 
L 220.610428 124.468713 
L 220.451619 124.53231 
L 220.451619 124.157197 
L 220.292811 124.220719 
L 220.292811 122.710256 
L 220.134002 122.77323 
L 220.134002 121.821086 
L 219.975194 121.883739 
L 219.975194 121.692512 
L 219.816385 121.755162 
L 219.816385 121.371822 
L 219.498769 121.497035 
L 219.498769 121.1124 
L 219.33996 121.174961 
L 219.33996 120.982197 
L 219.181152 121.044755 
L 219.181152 120.658327 
L 218.863535 120.78335 
L 218.863535 120.395609 
L 218.545918 120.520615 
L 218.545918 120.326207 
L 218.387109 120.388746 
L 218.387109 117.837615 
L 218.228301 117.899117 
L 218.228301 117.105208 
L 217.910684 117.227743 
L 217.910684 116.429016 
L 217.751875 116.490044 
L 217.751875 116.088948 
L 217.593067 116.149875 
L 217.593067 115.948846 
L 217.434259 116.00976 
L 217.434259 115.606735 
L 216.640216 115.911583 
L 216.640216 115.506587 
L 216.481408 115.567611 
L 216.481408 115.364623 
L 216.322599 115.425634 
L 216.322599 114.610647 
L 215.687365 114.853989 
L 215.687365 114.649195 
L 215.528557 114.710137 
L 215.528557 113.475114 
L 215.21094 113.596087 
L 215.21094 112.7665 
L 215.052132 112.826717 
L 215.052132 111.992316 
L 214.893323 112.052217 
L 214.893323 111.633147 
L 214.734515 111.692928 
L 214.734515 111.061918 
L 214.575706 111.121477 
L 214.575706 110.063634 
L 214.258089 110.181969 
L 214.258089 108.687529 
L 213.781664 108.863438 
L 213.781664 108.648474 
L 213.464047 108.765932 
L 213.464047 108.550463 
L 213.305239 108.609206 
L 213.305239 106.655759 
L 213.14643 106.713607 
L 213.14643 105.176774 
L 212.987622 105.233922 
L 212.987622 105.013053 
L 212.670005 105.12736 
L 212.670005 104.462242 
L 212.511196 104.519173 
L 212.511196 104.296739 
L 212.352388 104.353634 
L 212.352388 103.907612 
L 212.034771 104.021177 
L 212.034771 103.79747 
L 211.875962 103.854255 
L 211.875962 103.630121 
L 211.717154 103.686868 
L 211.717154 103.237428 
L 211.399537 103.350692 
L 211.399537 103.125265 
L 211.08192 103.23861 
L 211.08192 101.877976 
L 210.764303 101.990203 
L 210.764303 101.53362 
L 210.446686 101.645678 
L 210.446686 99.804429 
L 210.129069 99.914825 
L 210.129069 98.51859 
L 209.811452 98.62778 
L 209.811452 97.924396 
L 209.335027 98.087606 
L 209.335027 97.852083 
L 209.176219 97.906513 
L 209.176219 97.197516 
L 208.540985 97.414444 
L 208.540985 96.223286 
L 208.382176 96.277047 
L 208.382176 95.557792 
L 208.223368 95.611225 
L 208.223368 95.370639 
L 208.064559 95.424014 
L 208.064559 95.18294 
L 207.905751 95.236256 
L 207.905751 93.293821 
L 207.588134 93.398459 
L 207.588134 92.908713 
L 207.429325 92.960863 
L 207.429325 90.239672 
L 207.270517 90.290303 
L 207.270517 89.289124 
L 207.111709 89.339235 
L 207.111709 89.087856 
L 206.794092 89.188001 
L 206.794092 88.68351 
L 206.635283 88.733393 
L 206.635283 88.480428 
L 206.476475 88.530233 
L 206.476475 88.276735 
L 206.317666 88.326461 
L 206.317666 88.072429 
L 206.158858 88.122076 
L 206.158858 87.867507 
L 206.000049 87.917075 
L 206.000049 87.150592 
L 205.523624 87.298343 
L 205.523624 87.041605 
L 205.364815 87.090847 
L 205.364815 85.281606 
L 205.206007 85.329806 
L 205.206007 85.069603 
L 204.729582 85.214157 
L 204.729582 84.691577 
L 204.253156 84.835815 
L 204.253156 83.783849 
L 203.617922 83.974548 
L 203.617922 83.444786 
L 203.459114 83.492309 
L 203.459114 83.226643 
L 203.141497 83.321571 
L 203.141497 83.055153 
L 202.982689 83.102557 
L 202.982689 82.835553 
L 202.82388 82.88286 
L 202.82388 82.615268 
L 202.665072 82.662477 
L 202.665072 81.856671 
L 202.506263 81.903434 
L 202.506263 80.551106 
L 202.347455 80.597063 
L 202.347455 80.052794 
L 202.188646 80.098466 
L 202.188646 79.552119 
L 201.871029 79.642961 
L 201.871029 78.543618 
L 201.553412 78.63329 
L 201.553412 78.356995 
L 201.076987 78.491484 
L 201.076987 77.936461 
L 200.918178 77.981062 
L 200.918178 77.144633 
L 200.75937 77.188742 
L 200.75937 75.502616 
L 200.600562 75.54565 
L 200.600562 75.26285 
L 200.441753 75.305759 
L 200.441753 74.738397 
L 200.282945 74.780986 
L 200.282945 74.49642 
L 199.806519 74.624014 
L 199.806519 74.338395 
L 199.330094 74.466018 
L 199.330094 73.604573 
L 199.012477 73.688802 
L 199.012477 73.400311 
L 198.377243 73.568791 
L 198.377243 73.279015 
L 197.742009 73.447789 
L 197.742009 72.865165 
L 196.789158 73.117945 
L 196.789158 72.236635 
L 196.312733 72.362085 
L 196.312733 72.066702 
L 195.995116 72.15026 
L 195.995116 71.25986 
L 195.677499 71.342414 
L 195.677499 70.446222 
L 194.248223 70.815281 
L 194.248223 70.513565 
L 193.930606 70.595902 
L 193.930606 69.382102 
L 193.136564 69.584682 
L 193.136564 69.278801 
L 192.977755 69.319298 
L 192.977755 69.012663 
L 192.818947 69.053001 
L 192.818947 68.745608 
L 192.50133 68.826031 
L 192.50133 67.899276 
L 190.754437 68.33888 
L 190.754437 68.026296 
L 190.43682 68.106656 
L 190.43682 67.478886 
L 189.483969 67.718771 
L 189.483969 67.085879 
L 189.007544 67.205309 
L 189.007544 66.887286 
L 187.895885 67.166704 
L 187.895885 66.525472 
L 187.737076 66.565173 
L 187.737076 65.921139 
L 187.578268 65.960404 
L 187.578268 65.637267 
L 187.419459 65.676348 
L 187.419459 65.352373 
L 187.101842 65.430233 
L 187.101842 65.10516 
L 186.3078 65.299746 
L 186.3078 64.972787 
L 185.196141 65.246351 
L 185.196141 64.916955 
L 184.402098 65.113177 
L 184.402098 64.781843 
L 183.766865 64.939046 
L 183.766865 64.606024 
L 183.290439 64.723874 
L 183.290439 64.389419 
L 182.972822 64.467803 
L 182.972822 63.121554 
L 182.337588 63.274754 
L 182.337588 62.935501 
L 181.861163 63.050309 
L 181.861163 62.709572 
L 180.908312 62.939425 
L 180.908312 62.596328 
L 180.590695 62.672949 
L 180.590695 62.328624 
L 179.955461 62.481576 
L 179.955461 62.135429 
L 179.479036 62.250028 
L 179.479036 61.902336 
L 178.684994 62.093315 
L 178.684994 61.743467 
L 178.04976 61.896374 
L 178.04976 60.839145 
L 177.890951 60.876643 
L 177.890951 60.167791 
L 177.573335 60.241774 
L 177.573335 59.885694 
L 176.779292 60.070358 
L 176.779292 59.712017 
L 174.873591 60.158854 
L 174.873591 59.795981 
L 173.285506 60.17329 
L 173.285506 59.070489 
L 172.809081 59.182172 
L 172.809081 58.812088 
L 172.650272 58.84913 
L 172.650272 58.10604 
L 170.585762 58.585581 
L 170.585762 58.208425 
L 170.426954 58.245493 
L 170.426954 57.867211 
L 170.268145 57.904005 
L 170.268145 57.144394 
L 169.632911 57.289488 
L 169.632911 56.523867 
L 168.997678 56.667281 
L 168.997678 56.281823 
L 168.680061 56.353248 
L 168.680061 55.966251 
L 167.250785 56.288061 
L 167.250785 55.896899 
L 166.933168 55.968493 
L 166.933168 55.575746 
L 166.615551 55.646885 
L 166.615551 55.252541 
L 165.345083 55.53707 
L 165.345083 54.339661 
L 164.551041 54.514088 
L 164.551041 54.111244 
L 163.915807 54.250551 
L 163.915807 53.845223 
L 163.59819 53.914523 
L 163.59819 53.507498 
L 163.121764 53.610792 
L 163.121764 53.201644 
L 162.645339 53.304382 
L 162.645339 52.893089 
L 162.486531 52.92707 
L 162.486531 52.51445 
L 160.898446 52.854203 
L 160.898446 52.436419 
L 160.263212 52.572734 
L 160.263212 52.15228 
L 157.722277 52.702955 
L 157.722277 52.274445 
L 157.563468 52.309081 
L 157.563468 51.879131 
L 156.928234 52.016651 
L 156.928234 51.583874 
L 156.134192 51.755256 
L 156.134192 51.319148 
L 155.975384 51.353196 
L 155.975384 50.915599 
L 155.816575 50.949254 
L 155.816575 50.51016 
L 155.181341 50.643665 
L 155.181341 50.201625 
L 154.863724 50.267885 
L 154.863724 49.823833 
L 154.069682 49.988419 
L 154.069682 49.540862 
L 153.593257 49.639072 
L 153.593257 49.188956 
L 152.163981 49.483317 
L 152.163981 49.027563 
L 152.005172 49.060154 
L 152.005172 48.60278 
L 151.846364 48.634934 
L 151.846364 48.175931 
L 150.417088 48.464146 
L 150.417088 47.99928 
L 142.95309 49.587991 
L 142.95309 49.095389 
L 140.412154 49.671965 
L 140.412154 49.168265 
L 139.459304 49.387114 
L 139.459304 48.878264 
L 138.506453 49.096829 
L 138.506453 48.582724 
L 138.188836 48.65507 
L 138.188836 47.620006 
L 137.712411 47.725293 
L 137.712411 47.203624 
L 135.171475 47.769224 
L 135.171475 47.23509 
L 133.265774 47.667756 
L 133.265774 47.123486 
L 131.677689 47.488201 
L 131.677689 46.934915 
L 131.360072 47.007626 
L 131.360072 46.451198 
L 130.56603 46.631011 
L 130.56603 45.505477 
L 129.930796 45.64497 
L 129.930796 45.076523 
L 128.183903 45.459953 
L 128.183903 44.880842 
L 127.072244 45.125738 
L 127.072244 44.538974 
L 126.754627 44.608212 
L 126.754627 44.017922 
L 126.119393 44.15423 
L 126.119393 43.558627 
L 124.848925 43.829315 
L 124.848925 43.224716 
L 123.102032 43.598189 
L 123.102032 42.981515 
L 122.466798 43.116847 
L 122.466798 42.494377 
L 122.30799 42.527527 
L 122.30799 41.902065 
L 121.19633 42.130334 
L 121.19633 41.495945 
L 119.925863 41.755315 
L 119.925863 41.110717 
L 112.93829 42.622838 
L 112.620674 42.697319 
L 112.620674 41.999253 
L 107.062377 43.351505 
L 107.062377 42.605726 
L 106.903569 42.645698 
L 106.903569 41.895619 
L 105.474293 42.249795 
L 105.474293 41.483955 
L 104.839059 41.639637 
L 104.839059 40.864846 
L 103.568591 41.171803 
L 103.568591 40.381734 
L 97.692678 41.881571 
L 97.53387 41.925538 
L 97.53387 41.068372 
L 95.786977 41.544818 
L 95.786977 40.663188 
L 95.310551 40.791521 
L 95.310551 39.899983 
L 93.881275 40.277845 
L 93.881275 39.363964 
L 88.799404 40.777174 
L 88.799404 39.787049 
L 88.005362 40.016822 
L 88.005362 39.009201 
L 84.829193 39.938608 
L 84.829193 38.872317 
L 80.541364 40.220854 
L 80.541364 39.066019 
L 76.729961 40.376384 
L 76.729961 39.12862 
L 75.300685 39.638264 
L 75.300685 37.045663 
L 74.347834 37.351935 
L 74.347834 36.016595 
L 73.7126 36.209991 
L 73.7126 34.847313 
L 69.58358 36.117998 
L 66.089794 37.410038 
L 66.089794 35.770689 
L 65.136943 36.124721 
L 65.136943 34.42989 
L 63.548859 34.9885 
L 63.548859 33.203353 
L 60.690306 34.194059 
L 60.690306 32.235351 
L 60.055073 32.441369 
L 60.055073 30.423449 
L 56.561286 31.476776 
L 53.702734 32.560992 
L 51.161799 33.760477 
L 48.93848 35.061918 
L 47.032779 36.434107 
L 45.285886 37.975578 
L 43.697801 39.696785 
L 42.268525 41.600482 
L 40.998057 43.676217 
L 40.521632 44.57354 
L 40.521632 39.202241 
L 39.409972 41.068372 
L 38.61593 42.672432 
L 38.61593 36.064444 
L 37.504271 37.975578 
L 36.710229 39.696785 
L 36.710229 31.113697 
L 35.757378 32.494194 
L 34.963336 34.0168 
L 34.169293 36.064444 
L 33.534059 38.29228 
L 32.898825 41.368815 
L 32.263592 45.893132 
L 31.945975 49.060154 
L 31.945975 22.140469 
L 29.722656 22.140469 
L 29.722656 22.140469 
" clip-path="url(#pe29ab5dd2e)" style="fill: none; stroke: #ff0000; stroke-width: 1.5; stroke-linecap: square"/>
   </g>
   <g id="line2d_14">
    <defs>
     <path id="m69ce3df60b" d="M 0 3 
C 0.795609 3 1.55874 2.683901 2.12132 2.12132 
C 2.683901 1.55874 3 0.795609 3 0 
C 3 -0.795609 2.683901 -1.55874 2.12132 -2.12132 
C 1.55874 -2.683901 0.795609 -3 0 -3 
C -0.795609 -3 -1.55874 -2.683901 -2.12132 -2.12132 
C -2.683901 -1.55874 -3 -0.795609 -3 0 
C -3 0.795609 -2.683901 1.55874 -2.12132 2.12132 
C -1.55874 2.683901 -0.795609 3 0 3 
z
" style="stroke: #000000"/>
    </defs>
    <g clip-path="url(#pe29ab5dd2e)">
     <use xlink:href="#m69ce3df60b" x="200.441753" y="74.738397" style="fill: #ff0000; stroke: #000000"/>
    </g>
   </g>
   <g id="line2d_15">
    <path d="M 29.722656 152.715571 
L 227.439192 152.715571 
" clip-path="url(#pe29ab5dd2e)" style="fill: none; stroke: #00bfbf; stroke-width: 1.5; stroke-linecap: square"/>
   </g>
   <g id="patch_4">
    <path d="M 29.722656 425.935744 
L 29.722656 22.140469 
" style="fill: none; stroke: #000000; stroke-width: 0.8; stroke-linejoin: miter; stroke-linecap: square"/>
   </g>
   <g id="patch_5">
    <path d="M 227.439192 425.935744 
L 227.439192 22.140469 
" style="fill: none; stroke: #000000; stroke-width: 0.8; stroke-linejoin: miter; stroke-linecap: square"/>
   </g>
   <g id="patch_6">
    <path d="M 29.722656 425.935744 
L 227.439192 425.935744 
" style="fill: none; stroke: #000000; stroke-width: 0.8; stroke-linejoin: miter; stroke-linecap: square"/>
   </g>
   <g id="patch_7">
    <path d="M 29.722656 22.140469 
L 227.439192 22.140469 
" style="fill: none; stroke: #000000; stroke-width: 0.8; stroke-linejoin: miter; stroke-linecap: square"/>
   </g>
   <g id="text_15">
    <text style="font: 5px 'Arial'" transform="translate(117.786393 10.778906)">AP model</text>
    <text style="font: 5px 'Arial'" transform="translate(96.49108 16.140469)">Precision - Recall (PR) curve</text>
   </g>
   <g id="legend_1">
    <g id="patch_8">
     <path d="M 67.867643 468.922835 
L 189.294205 468.922835 
Q 190.294205 468.922835 190.294205 467.922835 
L 190.294205 461.230648 
Q 190.294205 460.230648 189.294205 460.230648 
L 67.867643 460.230648 
Q 66.867643 460.230648 66.867643 461.230648 
L 66.867643 467.922835 
Q 66.867643 468.922835 67.867643 468.922835 
z
" style="fill: #ffffff; opacity: 0.8; stroke: #cccccc; stroke-linejoin: miter"/>
    </g>
    <g id="line2d_16">
     <path d="M 68.867643 464.120492 
L 73.867643 464.120492 
L 78.867643 464.120492 
" style="fill: none; stroke: #ff0000; stroke-width: 1.5; stroke-linecap: square"/>
    </g>
    <g id="text_16">
     <text style="font: 5px 'Arial'; text-anchor: start" x="82.867643" y="465.870492" transform="rotate(-0 82.867643 465.870492)">model performance</text>
    </g>
    <g id="line2d_17">
     <path d="M 135.940299 464.120492 
L 140.940299 464.120492 
L 145.940299 464.120492 
" style="fill: none; stroke: #00bfbf; stroke-width: 1.5; stroke-linecap: square"/>
    </g>
    <g id="text_17">
     <text style="font: 5px 'Arial'; text-anchor: start" x="149.940299" y="465.870492" transform="rotate(-0 149.940299 465.870492)">random guessing</text>
    </g>
   </g>
  </g>
 </g>
 <defs>
  <clipPath id="pe29ab5dd2e">
   <rect x="29.722656" y="22.140469" width="197.716535" height="403.795276"/>
  </clipPath>
 </defs>
</svg>
