<?xml version="1.0" encoding="utf-8" standalone="no"?>
<!DOCTYPE svg PUBLIC "-//W3C//DTD SVG 1.1//EN"
  "http://www.w3.org/Graphics/SVG/1.1/DTD/svg11.dtd">
<svg xmlns:xlink="http://www.w3.org/1999/xlink" width="242.837664pt" height="268.22835pt" viewBox="0 0 242.837664 268.22835" xmlns="http://www.w3.org/2000/svg" version="1.1">
 <metadata>
  <rdf:RDF xmlns:dc="http://purl.org/dc/elements/1.1/" xmlns:cc="http://creativecommons.org/ns#" xmlns:rdf="http://www.w3.org/1999/02/22-rdf-syntax-ns#">
   <cc:Work>
    <dc:type rdf:resource="http://purl.org/dc/dcmitype/StillImage"/>
    <dc:date>2024-09-25T18:05:56.564685</dc:date>
    <dc:format>image/svg+xml</dc:format>
    <dc:creator>
     <cc:Agent>
      <dc:title>Matplotlib v3.7.0, https://matplotlib.org/</dc:title>
     </cc:Agent>
    </dc:creator>
   </cc:Work>
  </rdf:RDF>
 </metadata>
 <defs>
  <style type="text/css">*{stroke-linejoin: round; stroke-linecap: butt}</style>
 </defs>
 <g id="figure_1">
  <g id="patch_1">
   <path d="M -0 268.22835 
L 242.837664 268.22835 
L 242.837664 0 
L -0 0 
z
" style="fill: #ffffff"/>
  </g>
  <g id="axes_1">
   <g id="patch_2">
    <path d="M 34.331719 222.157601 
L 230.772664 222.157601 
L 230.772664 25.716656 
L 34.331719 25.716656 
z
" style="fill: #ffffff"/>
   </g>
   <g id="patch_3">
    <path d="M 230.772664 25.716656 
L 227.864444 31.205855 
L 226.576304 29.855539 
L 204.017199 51.375907 
L 203.881605 51.233768 
L 226.44071 29.7134 
L 225.152569 28.363084 
z
" clip-path="url(#pe1e59920a7)" style="fill: #1f77b4; stroke: #000000; stroke-linejoin: miter"/>
   </g>
   <g id="matplotlib.axis_1">
    <g id="xtick_1">
     <g id="line2d_1">
      <defs>
       <path id="m29c35a5075" d="M 0 0 
L 0 3.5 
" style="stroke: #000000; stroke-width: 0.8"/>
      </defs>
      <g>
       <use xlink:href="#m29c35a5075" x="34.331719" y="222.157601" style="stroke: #000000; stroke-width: 0.8"/>
      </g>
     </g>
     <g id="text_1">
      <text style="font: 7px 'Arial'; text-anchor: middle" x="34.331719" y="234.16807" transform="rotate(-0 34.331719 234.16807)">0.0</text>
     </g>
    </g>
    <g id="xtick_2">
     <g id="line2d_2">
      <g>
       <use xlink:href="#m29c35a5075" x="73.619908" y="222.157601" style="stroke: #000000; stroke-width: 0.8"/>
      </g>
     </g>
     <g id="text_2">
      <text style="font: 7px 'Arial'; text-anchor: middle" x="73.619908" y="234.16807" transform="rotate(-0 73.619908 234.16807)">0.2</text>
     </g>
    </g>
    <g id="xtick_3">
     <g id="line2d_3">
      <g>
       <use xlink:href="#m29c35a5075" x="112.908097" y="222.157601" style="stroke: #000000; stroke-width: 0.8"/>
      </g>
     </g>
     <g id="text_3">
      <text style="font: 7px 'Arial'; text-anchor: middle" x="112.908097" y="234.16807" transform="rotate(-0 112.908097 234.16807)">0.4</text>
     </g>
    </g>
    <g id="xtick_4">
     <g id="line2d_4">
      <g>
       <use xlink:href="#m29c35a5075" x="152.196286" y="222.157601" style="stroke: #000000; stroke-width: 0.8"/>
      </g>
     </g>
     <g id="text_4">
      <text style="font: 7px 'Arial'; text-anchor: middle" x="152.196286" y="234.16807" transform="rotate(-0 152.196286 234.16807)">0.6</text>
     </g>
    </g>
    <g id="xtick_5">
     <g id="line2d_5">
      <g>
       <use xlink:href="#m29c35a5075" x="191.484475" y="222.157601" style="stroke: #000000; stroke-width: 0.8"/>
      </g>
     </g>
     <g id="text_5">
      <text style="font: 7px 'Arial'; text-anchor: middle" x="191.484475" y="234.16807" transform="rotate(-0 191.484475 234.16807)">0.8</text>
     </g>
    </g>
    <g id="xtick_6">
     <g id="line2d_6">
      <g>
       <use xlink:href="#m29c35a5075" x="230.772664" y="222.157601" style="stroke: #000000; stroke-width: 0.8"/>
      </g>
     </g>
     <g id="text_6">
      <text style="font: 7px 'Arial'; text-anchor: middle" x="230.772664" y="234.16807" transform="rotate(-0 230.772664 234.16807)">1.0</text>
     </g>
    </g>
    <g id="text_7">
     <text style="font: 7px 'Arial'; text-anchor: middle" x="132.552191" y="244.569789" transform="rotate(-0 132.552191 244.569789)">Recall</text>
    </g>
   </g>
   <g id="matplotlib.axis_2">
    <g id="ytick_1">
     <g id="line2d_7">
      <defs>
       <path id="m14432f123a" d="M 0 0 
L -3.5 0 
" style="stroke: #000000; stroke-width: 0.8"/>
      </defs>
      <g>
       <use xlink:href="#m14432f123a" x="34.331719" y="222.157601" style="stroke: #000000; stroke-width: 0.8"/>
      </g>
     </g>
     <g id="text_8">
      <text style="font: 7px 'Arial'; text-anchor: end" x="27.331719" y="224.662836" transform="rotate(-0 27.331719 224.662836)">0.0</text>
     </g>
    </g>
    <g id="ytick_2">
     <g id="line2d_8">
      <g>
       <use xlink:href="#m14432f123a" x="34.331719" y="182.869412" style="stroke: #000000; stroke-width: 0.8"/>
      </g>
     </g>
     <g id="text_9">
      <text style="font: 7px 'Arial'; text-anchor: end" x="27.331719" y="185.374647" transform="rotate(-0 27.331719 185.374647)">0.2</text>
     </g>
    </g>
    <g id="ytick_3">
     <g id="line2d_9">
      <g>
       <use xlink:href="#m14432f123a" x="34.331719" y="143.581223" style="stroke: #000000; stroke-width: 0.8"/>
      </g>
     </g>
     <g id="text_10">
      <text style="font: 7px 'Arial'; text-anchor: end" x="27.331719" y="146.086458" transform="rotate(-0 27.331719 146.086458)">0.4</text>
     </g>
    </g>
    <g id="ytick_4">
     <g id="line2d_10">
      <g>
       <use xlink:href="#m14432f123a" x="34.331719" y="104.293034" style="stroke: #000000; stroke-width: 0.8"/>
      </g>
     </g>
     <g id="text_11">
      <text style="font: 7px 'Arial'; text-anchor: end" x="27.331719" y="106.798269" transform="rotate(-0 27.331719 106.798269)">0.6</text>
     </g>
    </g>
    <g id="ytick_5">
     <g id="line2d_11">
      <g>
       <use xlink:href="#m14432f123a" x="34.331719" y="65.004845" style="stroke: #000000; stroke-width: 0.8"/>
      </g>
     </g>
     <g id="text_12">
      <text style="font: 7px 'Arial'; text-anchor: end" x="27.331719" y="67.51008" transform="rotate(-0 27.331719 67.51008)">0.8</text>
     </g>
    </g>
    <g id="ytick_6">
     <g id="line2d_12">
      <g>
       <use xlink:href="#m14432f123a" x="34.331719" y="25.716656" style="stroke: #000000; stroke-width: 0.8"/>
      </g>
     </g>
     <g id="text_13">
      <text style="font: 7px 'Arial'; text-anchor: end" x="27.331719" y="28.221891" transform="rotate(-0 27.331719 28.221891)">1.0</text>
     </g>
    </g>
    <g id="text_14">
     <text style="font: 7px 'Arial'; text-anchor: middle" x="12.210469" y="123.937129" transform="rotate(-90 12.210469 123.937129)">Precision</text>
    </g>
   </g>
   <g id="line2d_13">
    <path d="M 230.772664 89.239679 
L 230.772664 88.367133 
L 230.457096 88.435753 
L 230.457096 88.362481 
L 230.457096 88.215695 
L 230.299312 88.249998 
L 230.299312 88.176462 
L 230.299312 87.881512 
L 230.141528 87.915744 
L 230.141528 87.841782 
L 230.141528 87.693612 
L 229.983744 87.727815 
L 229.983744 87.653586 
L 229.983744 87.50488 
L 229.82596 87.539055 
L 229.82596 87.464557 
L 229.82596 85.651527 
L 229.668176 85.68516 
L 229.668176 85.608533 
L 229.668176 85.378136 
L 229.510393 85.41171 
L 229.510393 85.334713 
L 229.510393 85.25763 
L 229.352609 85.291193 
L 229.352609 85.213998 
L 229.352609 84.826714 
L 229.194825 84.860167 
L 229.194825 84.782422 
L 229.194825 84.392373 
L 229.037041 84.425711 
L 229.037041 84.34741 
L 229.037041 84.26902 
L 228.879257 84.302345 
L 228.879257 84.22384 
L 228.879257 83.750924 
L 228.721473 83.784105 
L 228.721473 83.704944 
L 228.721473 83.466917 
L 228.563689 83.500031 
L 228.563689 83.420479 
L 228.563689 83.340837 
L 228.248121 83.327284 
L 228.248121 81.956718 
L 228.090337 81.989396 
L 228.090337 81.907903 
L 228.090337 81.416948 
L 227.932554 81.449464 
L 227.932554 81.367274 
L 227.932554 81.202607 
L 227.77477 81.235074 
L 227.77477 81.152567 
L 227.77477 80.40563 
L 227.459202 80.386542 
L 227.459202 79.206521 
L 226.98585 79.302096 
L 226.98585 79.216961 
L 226.98585 79.131725 
L 226.670282 79.195505 
L 226.670282 79.110103 
L 226.670282 78.938994 
L 226.512499 78.970844 
L 226.512499 78.885104 
L 226.512499 78.454856 
L 226.354715 78.486549 
L 226.354715 78.400157 
L 226.354715 78.31366 
L 226.196931 78.345326 
L 226.196931 78.258692 
L 226.196931 77.561845 
L 225.881363 77.624688 
L 225.881363 77.537039 
L 225.881363 76.920508 
L 225.408011 76.925621 
L 225.408011 76.748075 
L 225.250227 76.779287 
L 225.250227 76.690316 
L 225.250227 76.601237 
L 224.93466 76.663633 
L 224.93466 76.574373 
L 224.93466 76.485004 
L 224.776876 76.516188 
L 224.776876 76.426673 
L 224.776876 76.337047 
L 224.461308 76.399388 
L 224.461308 76.30958 
L 224.461308 75.858875 
L 224.14574 75.920932 
L 224.14574 75.830383 
L 224.14574 75.648949 
L 223.987956 75.679924 
L 223.987956 75.589 
L 223.987956 75.497964 
L 223.830172 75.528903 
L 223.830172 75.437716 
L 223.830172 75.346416 
L 223.672389 75.377319 
L 223.672389 75.285867 
L 223.672389 74.642499 
L 223.514605 74.673135 
L 223.514605 74.580726 
L 223.514605 74.20993 
L 223.199037 74.177859 
L 223.199037 73.991369 
L 222.883469 74.052283 
L 222.883469 73.958782 
L 222.883469 73.865163 
L 222.567901 73.832255 
L 222.567901 73.644263 
L 222.252333 73.705085 
L 222.252333 73.610829 
L 222.252333 73.516454 
L 221.778982 73.513115 
L 221.778982 72.272025 
L 221.621198 72.301945 
L 221.621198 72.205574 
L 221.621198 71.915719 
L 221.30563 71.97533 
L 221.30563 71.878376 
L 221.30563 71.58676 
L 221.147846 71.61645 
L 221.147846 71.518949 
L 221.147846 71.421322 
L 220.832278 71.382798 
L 220.832278 71.186732 
L 220.043359 71.335036 
L 220.043359 71.236588 
L 220.043359 71.138011 
L 219.727791 71.098628 
L 219.727791 70.702148 
L 218.938872 70.750549 
L 218.938872 70.149727 
L 218.623304 70.208579 
L 218.623304 70.107884 
L 218.623304 69.804996 
L 218.46552 69.83429 
L 218.46552 69.733012 
L 218.46552 69.428366 
L 218.307736 69.457507 
L 218.307736 69.355639 
L 218.307736 69.253635 
L 218.149952 69.282718 
L 218.149952 69.180528 
L 218.149952 68.97574 
L 217.992168 69.004714 
L 217.992168 68.902065 
L 217.992168 68.490088 
L 217.676601 68.547656 
L 217.676601 68.444215 
L 217.676601 67.820632 
L 216.887681 67.858773 
L 216.887681 67.753951 
L 216.729897 67.782528 
L 216.729897 67.677511 
L 216.729897 66.832203 
L 216.572113 66.860345 
L 216.572113 66.753977 
L 216.572113 66.112696 
L 216.098762 66.088657 
L 216.098762 65.765087 
L 215.783194 65.71225 
L 215.783194 65.495266 
L 215.309842 65.469309 
L 215.309842 65.360271 
L 215.152058 65.387878 
L 215.152058 65.278631 
L 215.152058 65.169231 
L 214.520923 65.169806 
L 214.520923 64.507876 
L 214.205355 64.562473 
L 214.205355 64.45149 
L 214.205355 64.340352 
L 213.889787 64.394866 
L 213.889787 64.283452 
L 213.889787 63.499123 
L 213.574219 63.55283 
L 213.574219 62.87358 
L 213.258652 62.926699 
L 213.258652 62.584513 
L 212.7853 62.663912 
L 212.7853 62.549333 
L 212.627516 62.575813 
L 212.627516 62.230895 
L 211.996381 62.336428 
L 211.996381 61.756946 
L 211.838597 61.7831 
L 211.838597 61.433192 
L 211.680813 61.459186 
L 211.680813 61.342144 
L 211.523029 61.368111 
L 211.523029 61.250832 
L 211.365245 61.276769 
L 211.365245 60.331801 
L 211.049677 60.382705 
L 211.049677 60.144451 
L 210.891893 60.169821 
L 210.891893 58.845998 
L 210.734109 58.87063 
L 210.734109 58.38357 
L 210.576326 58.407948 
L 210.576326 58.285655 
L 210.260758 58.334375 
L 210.260758 58.088947 
L 210.102974 58.113214 
L 210.102974 57.99015 
L 209.94519 58.014379 
L 209.94519 57.891056 
L 209.787406 57.915247 
L 209.787406 57.791664 
L 209.629622 57.815817 
L 209.629622 57.691972 
L 209.471838 57.716086 
L 209.471838 57.343203 
L 208.998487 57.415081 
L 208.998487 57.290182 
L 208.840703 57.314138 
L 208.840703 56.433966 
L 208.682919 56.457415 
L 208.682919 56.330829 
L 208.209567 56.401153 
L 208.209567 56.146925 
L 207.736215 56.217095 
L 207.736215 55.705328 
L 207.10508 55.7981 
L 207.10508 55.540378 
L 206.947296 55.563497 
L 206.947296 55.434255 
L 206.631728 55.480436 
L 206.631728 55.350827 
L 206.473944 55.373888 
L 206.473944 55.243995 
L 206.31616 55.267009 
L 206.31616 55.136829 
L 206.158377 55.159796 
L 206.158377 54.767782 
L 206.000593 54.790531 
L 206.000593 54.132642 
L 205.842809 54.154999 
L 205.842809 53.89022 
L 205.685025 53.912439 
L 205.685025 53.646648 
L 205.369457 53.690841 
L 205.369457 53.156026 
L 205.053889 53.19965 
L 205.053889 53.065236 
L 204.580538 53.130664 
L 204.580538 52.860653 
L 204.422754 52.88235 
L 204.422754 52.475439 
L 204.26497 52.496897 
L 204.26497 51.67662 
L 204.107186 51.697555 
L 204.107186 51.559977 
L 203.949402 51.580852 
L 203.949402 51.304838 
L 203.791618 51.325557 
L 203.791618 51.187119 
L 203.318267 51.249192 
L 203.318267 51.110242 
L 202.844915 51.172329 
L 202.844915 50.753247 
L 202.529347 50.794224 
L 202.529347 50.653877 
L 201.898211 50.73584 
L 201.898211 50.594868 
L 201.267076 50.676974 
L 201.267076 50.393535 
L 200.320373 50.51651 
L 200.320373 50.087764 
L 199.847021 50.148794 
L 199.847021 50.005094 
L 199.531453 50.045744 
L 199.531453 49.612577 
L 199.215885 49.652738 
L 199.215885 49.216752 
L 197.79583 49.396295 
L 197.79583 49.249514 
L 197.480263 49.28957 
L 197.480263 48.699073 
L 196.691343 48.797625 
L 196.691343 48.648818 
L 196.533559 48.668519 
L 196.533559 48.519345 
L 196.375775 48.538969 
L 196.375775 48.389427 
L 196.060208 48.428552 
L 196.060208 47.977698 
L 194.324585 48.191559 
L 194.324585 48.039491 
L 194.009017 48.078585 
L 194.009017 47.773183 
L 193.062314 47.889885 
L 193.062314 47.581991 
L 192.588962 47.640092 
L 192.588962 47.485378 
L 191.484475 47.621311 
L 191.484475 47.309361 
L 191.326691 47.328674 
L 191.326691 47.015361 
L 191.168907 47.034463 
L 191.168907 46.877261 
L 191.011123 46.896273 
L 191.011123 46.738664 
L 190.695555 46.776541 
L 190.695555 46.618398 
L 189.906636 46.713062 
L 189.906636 46.554 
L 188.802149 46.687086 
L 188.802149 46.526839 
L 188.013229 46.622298 
L 188.013229 46.461109 
L 187.382093 46.537586 
L 187.382093 46.375575 
L 186.908742 46.432908 
L 186.908742 46.2702 
L 186.593174 46.308332 
L 186.593174 45.6534 
L 185.962038 45.72793 
L 185.962038 45.562888 
L 185.488687 45.618741 
L 185.488687 45.452977 
L 184.541983 45.564797 
L 184.541983 45.397885 
L 184.226416 45.43516 
L 184.226416 45.267651 
L 183.59528 45.34206 
L 183.59528 45.173664 
L 183.121928 45.229415 
L 183.121928 45.060267 
L 182.333009 45.153176 
L 182.333009 44.98298 
L 181.701873 45.057367 
L 181.701873 44.543039 
L 181.544089 44.561282 
L 181.544089 44.216435 
L 181.228522 44.252426 
L 181.228522 44.079198 
L 180.439602 44.169035 
L 180.439602 43.994707 
L 178.546196 44.212087 
L 178.546196 44.035554 
L 176.968357 44.21911 
L 176.968357 43.682612 
L 176.495005 43.736945 
L 176.495005 43.556904 
L 176.337221 43.574924 
L 176.337221 43.213421 
L 174.28603 43.446711 
L 174.28603 43.263229 
L 174.128247 43.281263 
L 174.128247 43.097234 
L 173.970463 43.115133 
L 173.970463 42.745593 
L 173.339327 42.816179 
L 173.339327 42.443715 
L 172.708192 42.513484 
L 172.708192 42.325964 
L 172.392624 42.360711 
L 172.392624 42.172442 
L 170.972569 42.328998 
L 170.972569 42.138703 
L 170.657001 42.173533 
L 170.657001 41.982467 
L 170.341433 42.017075 
L 170.341433 41.825232 
L 169.079162 41.963652 
L 169.079162 41.381128 
L 168.290243 41.465984 
L 168.290243 41.270007 
L 167.659107 41.337777 
L 167.659107 41.140591 
L 167.343539 41.174304 
L 167.343539 40.976292 
L 166.870188 41.026543 
L 166.870188 40.827498 
L 166.396836 40.877479 
L 166.396836 40.67739 
L 166.239052 40.693922 
L 166.239052 40.493188 
L 164.661213 40.658473 
L 164.661213 40.455227 
L 164.030078 40.521542 
L 164.030078 40.316997 
L 161.505535 40.584893 
L 161.505535 40.376428 
L 161.347751 40.393279 
L 161.347751 40.184114 
L 160.716616 40.251015 
L 160.716616 40.040475 
L 159.927696 40.12385 
L 159.927696 39.91169 
L 159.769912 39.928253 
L 159.769912 39.715368 
L 159.612129 39.731741 
L 159.612129 39.518128 
L 158.980993 39.583076 
L 158.980993 39.368029 
L 158.665425 39.400264 
L 158.665425 39.184239 
L 157.876506 39.264308 
L 157.876506 39.046578 
L 157.403154 39.094355 
L 157.403154 38.87538 
L 155.983099 39.018582 
L 155.983099 38.796864 
L 155.825315 38.812719 
L 155.825315 38.590213 
L 155.667531 38.605856 
L 155.667531 38.382557 
L 154.247476 38.52277 
L 154.247476 38.296618 
L 146.831633 39.069505 
L 146.831633 38.829861 
L 144.307091 39.110357 
L 144.307091 38.865314 
L 143.360388 38.971781 
L 143.360388 38.724232 
L 142.413684 38.830561 
L 142.413684 38.580456 
L 142.098117 38.615651 
L 142.098117 38.112107 
L 141.624765 38.163328 
L 141.624765 37.909542 
L 139.100223 38.184699 
L 139.100223 37.924851 
L 137.206816 38.135337 
L 137.206816 37.870556 
L 135.628977 38.047986 
L 135.628977 37.77882 
L 135.313409 37.814192 
L 135.313409 37.543497 
L 134.52449 37.630974 
L 134.52449 37.083417 
L 133.893354 37.151278 
L 133.893354 36.874737 
L 132.157731 37.06127 
L 132.157731 36.779541 
L 131.053244 36.898679 
L 131.053244 36.613226 
L 130.737676 36.64691 
L 130.737676 36.359741 
L 130.106541 36.426054 
L 130.106541 36.136301 
L 128.84427 36.267987 
L 128.84427 35.973857 
L 127.108647 36.155547 
L 127.108647 35.855544 
L 126.477511 35.921381 
L 126.477511 35.618558 
L 126.319727 35.634684 
L 126.319727 35.330406 
L 125.21524 35.441456 
L 125.21524 35.132834 
L 123.952969 35.259014 
L 123.952969 34.945425 
L 116.69491 35.717286 
L 116.69491 35.377686 
L 111.172474 36.035539 
L 111.172474 35.672728 
L 111.01469 35.692173 
L 111.01469 35.32727 
L 109.594635 35.499572 
L 109.594635 35.127001 
L 108.963499 35.202738 
L 108.963499 34.825813 
L 107.701228 34.975143 
L 107.701228 34.590785 
L 101.70544 35.341825 
L 101.70544 34.924826 
L 99.969818 35.15661 
L 99.969818 34.727709 
L 99.496466 34.790141 
L 99.496466 34.35642 
L 98.076411 34.540245 
L 98.076411 34.095654 
L 93.027326 34.783161 
L 93.027326 34.301479 
L 92.238407 34.413261 
L 92.238407 33.923066 
L 89.082729 34.37521 
L 89.082729 33.856474 
L 84.822564 34.512519 
L 84.822564 33.950708 
L 81.035751 34.588183 
L 81.035751 33.981162 
L 79.615696 34.229097 
L 79.615696 32.967832 
L 78.668992 33.116829 
L 78.668992 32.467204 
L 78.037857 32.561288 
L 78.037857 31.898364 
L 72.357637 32.78853 
L 70.46423 33.145095 
L 70.46423 32.347574 
L 69.517527 32.519806 
L 69.517527 31.695294 
L 67.939688 31.96705 
L 67.939688 31.0986 
L 65.099578 31.580565 
L 65.099578 30.62768 
L 64.468442 30.727905 
L 64.468442 29.746214 
L 59.734925 30.478861 
L 56.105896 31.250204 
L 53.108002 32.10498 
L 50.741243 32.992247 
L 48.690053 33.987854 
L 46.95443 35.070987 
L 45.534375 36.193507 
L 45.061023 36.630042 
L 45.061023 34.016978 
L 43.640968 35.221863 
L 43.167617 35.705179 
L 43.167617 32.490482 
L 41.905346 33.574294 
L 41.27421 34.257567 
L 41.27421 30.082011 
L 40.169723 30.886155 
L 39.223019 31.855436 
L 38.4341 32.992247 
L 37.802964 34.257567 
L 37.171829 36.055653 
L 36.698477 37.994215 
L 36.540693 38.812719 
L 36.540693 25.716656 
L 34.331719 25.716656 
L 34.331719 25.716656 
" clip-path="url(#pe1e59920a7)" style="fill: none; stroke: #ff0000; stroke-width: 1.5; stroke-linecap: square"/>
   </g>
   <g id="line2d_14">
    <defs>
     <path id="m10263318e3" d="M 0 3 
C 0.795609 3 1.55874 2.683901 2.12132 2.12132 
C 2.683901 1.55874 3 0.795609 3 0 
C 3 -0.795609 2.683901 -1.55874 2.12132 -2.12132 
C 1.55874 -2.683901 0.795609 -3 0 -3 
C -0.795609 -3 -1.55874 -2.683901 -2.12132 -2.12132 
C -2.683901 -1.55874 -3 -0.795609 -3 0 
C -3 0.795609 -2.683901 1.55874 -2.12132 2.12132 
C -1.55874 2.683901 -0.795609 3 0 3 
z
" style="stroke: #000000"/>
    </defs>
    <g clip-path="url(#pe1e59920a7)">
     <use xlink:href="#m10263318e3" x="203.949402" y="51.304838" style="fill: #ff0000; stroke: #000000"/>
    </g>
   </g>
   <g id="line2d_15">
    <path d="M 34.331719 89.239679 
L 230.772664 89.239679 
" clip-path="url(#pe1e59920a7)" style="fill: none; stroke: #00bfbf; stroke-width: 1.5; stroke-linecap: square"/>
   </g>
   <g id="patch_4">
    <path d="M 34.331719 222.157601 
L 34.331719 25.716656 
" style="fill: none; stroke: #000000; stroke-width: 0.8; stroke-linejoin: miter; stroke-linecap: square"/>
   </g>
   <g id="patch_5">
    <path d="M 230.772664 222.157601 
L 230.772664 25.716656 
" style="fill: none; stroke: #000000; stroke-width: 0.8; stroke-linejoin: miter; stroke-linecap: square"/>
   </g>
   <g id="patch_6">
    <path d="M 34.331719 222.157601 
L 230.772664 222.157601 
" style="fill: none; stroke: #000000; stroke-width: 0.8; stroke-linejoin: miter; stroke-linecap: square"/>
   </g>
   <g id="patch_7">
    <path d="M 34.331719 25.716656 
L 230.772664 25.716656 
" style="fill: none; stroke: #000000; stroke-width: 0.8; stroke-linejoin: miter; stroke-linecap: square"/>
   </g>
   <g id="text_15">
    <text style="font: 7px 'Arial'" transform="translate(117.439847 12.210469)">AP model</text>
    <text style="font: 7px 'Arial'" transform="translate(87.62641 19.716656)">Precision - Recall (PR) curve</text>
   </g>
   <g id="legend_1">
    <g id="patch_8">
     <path d="M 47.553597 261.02835 
L 217.550785 261.02835 
Q 218.950785 261.02835 218.950785 259.62835 
L 218.950785 250.259288 
Q 218.950785 248.859288 217.550785 248.859288 
L 47.553597 248.859288 
Q 46.153597 248.859288 46.153597 250.259288 
L 46.153597 259.62835 
Q 46.153597 261.02835 47.553597 261.02835 
z
" style="fill: #ffffff; opacity: 0.8; stroke: #cccccc; stroke-linejoin: miter"/>
    </g>
    <g id="line2d_16">
     <path d="M 48.953597 254.305069 
L 55.953597 254.305069 
L 62.953597 254.305069 
" style="fill: none; stroke: #ff0000; stroke-width: 1.5; stroke-linecap: square"/>
    </g>
    <g id="text_16">
     <text style="font: 7px 'Arial'; text-anchor: start" x="68.553597" y="256.755069" transform="rotate(-0 68.553597 256.755069)">model performance</text>
    </g>
    <g id="line2d_17">
     <path d="M 142.855316 254.305069 
L 149.855316 254.305069 
L 156.855316 254.305069 
" style="fill: none; stroke: #00bfbf; stroke-width: 1.5; stroke-linecap: square"/>
    </g>
    <g id="text_17">
     <text style="font: 7px 'Arial'; text-anchor: start" x="162.455316" y="256.755069" transform="rotate(-0 162.455316 256.755069)">random guessing</text>
    </g>
   </g>
  </g>
 </g>
 <defs>
  <clipPath id="pe1e59920a7">
   <rect x="34.331719" y="25.716656" width="196.440945" height="196.440945"/>
  </clipPath>
 </defs>
</svg>
