<?xml version="1.0" encoding="utf-8" standalone="no"?>
<!DOCTYPE svg PUBLIC "-//W3C//DTD SVG 1.1//EN"
  "http://www.w3.org/Graphics/SVG/1.1/DTD/svg11.dtd">
<svg xmlns:xlink="http://www.w3.org/1999/xlink" width="238.114192pt" height="476.126585pt" viewBox="0 0 238.114192 476.126585" xmlns="http://www.w3.org/2000/svg" version="1.1">
 <metadata>
  <rdf:RDF xmlns:dc="http://purl.org/dc/elements/1.1/" xmlns:cc="http://creativecommons.org/ns#" xmlns:rdf="http://www.w3.org/1999/02/22-rdf-syntax-ns#">
   <cc:Work>
    <dc:type rdf:resource="http://purl.org/dc/dcmitype/StillImage"/>
    <dc:date>2024-09-25T17:35:12.069707</dc:date>
    <dc:format>image/svg+xml</dc:format>
    <dc:creator>
     <cc:Agent>
      <dc:title>Matplotlib v3.7.0, https://matplotlib.org/</dc:title>
     </cc:Agent>
    </dc:creator>
   </cc:Work>
  </rdf:RDF>
 </metadata>
 <defs>
  <style type="text/css">*{stroke-linejoin: round; stroke-linecap: butt}</style>
 </defs>
 <g id="figure_1">
  <g id="patch_1">
   <path d="M 0 476.126585 
L 238.114192 476.126585 
L 238.114192 0 
L 0 0 
z
" style="fill: #ffffff"/>
  </g>
  <g id="axes_1">
   <g id="patch_2">
    <path d="M 29.722656 425.939494 
L 227.439192 425.939494 
L 227.439192 22.144219 
L 29.722656 22.144219 
z
" style="fill: #ffffff"/>
   </g>
   <g id="patch_3">
    <path d="M 29.722656 22.144219 
L 35.586073 26.577539 
L 34.410383 29.569197 
L 73.315402 93.340145 
L 73.191645 93.655056 
L 34.286626 29.884108 
L 33.110936 32.875766 
z
" clip-path="url(#p6499de9127)" style="fill: #1f77b4; stroke: #000000; stroke-linejoin: miter"/>
   </g>
   <g id="matplotlib.axis_1">
    <g id="xtick_1">
     <g id="line2d_1">
      <defs>
       <path id="m5b8c9159ab" d="M 0 0 
L 0 3.5 
" style="stroke: #000000; stroke-width: 0.8"/>
      </defs>
      <g>
       <use xlink:href="#m5b8c9159ab" x="29.722656" y="425.939494" style="stroke: #000000; stroke-width: 0.8"/>
      </g>
     </g>
     <g id="text_1">
      <text style="font: 5px 'Arial'; text-anchor: middle" x="29.722656" y="436.518401" transform="rotate(-0 29.722656 436.518401)">0.0</text>
     </g>
    </g>
    <g id="xtick_2">
     <g id="line2d_2">
      <g>
       <use xlink:href="#m5b8c9159ab" x="69.265963" y="425.939494" style="stroke: #000000; stroke-width: 0.8"/>
      </g>
     </g>
     <g id="text_2">
      <text style="font: 5px 'Arial'; text-anchor: middle" x="69.265963" y="436.518401" transform="rotate(-0 69.265963 436.518401)">0.2</text>
     </g>
    </g>
    <g id="xtick_3">
     <g id="line2d_3">
      <g>
       <use xlink:href="#m5b8c9159ab" x="108.80927" y="425.939494" style="stroke: #000000; stroke-width: 0.8"/>
      </g>
     </g>
     <g id="text_3">
      <text style="font: 5px 'Arial'; text-anchor: middle" x="108.80927" y="436.518401" transform="rotate(-0 108.80927 436.518401)">0.4</text>
     </g>
    </g>
    <g id="xtick_4">
     <g id="line2d_4">
      <g>
       <use xlink:href="#m5b8c9159ab" x="148.352578" y="425.939494" style="stroke: #000000; stroke-width: 0.8"/>
      </g>
     </g>
     <g id="text_4">
      <text style="font: 5px 'Arial'; text-anchor: middle" x="148.352578" y="436.518401" transform="rotate(-0 148.352578 436.518401)">0.6</text>
     </g>
    </g>
    <g id="xtick_5">
     <g id="line2d_5">
      <g>
       <use xlink:href="#m5b8c9159ab" x="187.895885" y="425.939494" style="stroke: #000000; stroke-width: 0.8"/>
      </g>
     </g>
     <g id="text_5">
      <text style="font: 5px 'Arial'; text-anchor: middle" x="187.895885" y="436.518401" transform="rotate(-0 187.895885 436.518401)">0.8</text>
     </g>
    </g>
    <g id="xtick_6">
     <g id="line2d_6">
      <g>
       <use xlink:href="#m5b8c9159ab" x="227.439192" y="425.939494" style="stroke: #000000; stroke-width: 0.8"/>
      </g>
     </g>
     <g id="text_6">
      <text style="font: 5px 'Arial'; text-anchor: middle" x="227.439192" y="436.518401" transform="rotate(-0 227.439192 436.518401)">1.0</text>
     </g>
    </g>
    <g id="text_7">
     <text style="font: 5px 'Arial'; text-anchor: middle" x="128.580924" y="445.091057" transform="rotate(-0 128.580924 445.091057)">FPR</text>
    </g>
   </g>
   <g id="matplotlib.axis_2">
    <g id="ytick_1">
     <g id="line2d_7">
      <defs>
       <path id="mdd61b88f26" d="M 0 0 
L -3.5 0 
" style="stroke: #000000; stroke-width: 0.8"/>
      </defs>
      <g>
       <use xlink:href="#mdd61b88f26" x="29.722656" y="425.939494" style="stroke: #000000; stroke-width: 0.8"/>
      </g>
     </g>
     <g id="text_8">
      <text style="font: 5px 'Arial'; text-anchor: end" x="22.722656" y="427.728947" transform="rotate(-0 22.722656 427.728947)">0.0</text>
     </g>
    </g>
    <g id="ytick_2">
     <g id="line2d_8">
      <g>
       <use xlink:href="#mdd61b88f26" x="29.722656" y="345.180439" style="stroke: #000000; stroke-width: 0.8"/>
      </g>
     </g>
     <g id="text_9">
      <text style="font: 5px 'Arial'; text-anchor: end" x="22.722656" y="346.969892" transform="rotate(-0 22.722656 346.969892)">0.2</text>
     </g>
    </g>
    <g id="ytick_3">
     <g id="line2d_9">
      <g>
       <use xlink:href="#mdd61b88f26" x="29.722656" y="264.421384" style="stroke: #000000; stroke-width: 0.8"/>
      </g>
     </g>
     <g id="text_10">
      <text style="font: 5px 'Arial'; text-anchor: end" x="22.722656" y="266.210837" transform="rotate(-0 22.722656 266.210837)">0.4</text>
     </g>
    </g>
    <g id="ytick_4">
     <g id="line2d_10">
      <g>
       <use xlink:href="#mdd61b88f26" x="29.722656" y="183.662329" style="stroke: #000000; stroke-width: 0.8"/>
      </g>
     </g>
     <g id="text_11">
      <text style="font: 5px 'Arial'; text-anchor: end" x="22.722656" y="185.451782" transform="rotate(-0 22.722656 185.451782)">0.6</text>
     </g>
    </g>
    <g id="ytick_5">
     <g id="line2d_11">
      <g>
       <use xlink:href="#mdd61b88f26" x="29.722656" y="102.903274" style="stroke: #000000; stroke-width: 0.8"/>
      </g>
     </g>
     <g id="text_12">
      <text style="font: 5px 'Arial'; text-anchor: end" x="22.722656" y="104.692727" transform="rotate(-0 22.722656 104.692727)">0.8</text>
     </g>
    </g>
    <g id="ytick_6">
     <g id="line2d_12">
      <g>
       <use xlink:href="#mdd61b88f26" x="29.722656" y="22.144219" style="stroke: #000000; stroke-width: 0.8"/>
      </g>
     </g>
     <g id="text_13">
      <text style="font: 5px 'Arial'; text-anchor: end" x="22.722656" y="23.933672" transform="rotate(-0 22.722656 23.933672)">1.0</text>
     </g>
    </g>
    <g id="text_14">
     <text style="font: 5px 'Arial'; text-anchor: middle" x="10.778906" y="224.041857" transform="rotate(-90 10.778906 224.041857)">TPR</text>
    </g>
   </g>
   <g id="line2d_13">
    <path d="M 29.722656 425.939494 
L 29.722656 421.398825 
L 30.054953 421.398825 
L 30.054953 411.668818 
L 30.38725 411.668818 
L 30.38725 407.776815 
L 30.719546 407.776815 
L 30.719546 403.884813 
L 31.051843 403.884813 
L 31.051843 363.991785 
L 31.38414 363.991785 
L 31.38414 362.694451 
L 31.716436 362.694451 
L 31.716436 356.856447 
L 32.048733 356.856447 
L 32.048733 353.613112 
L 32.38103 353.613112 
L 32.38103 351.66711 
L 32.713327 351.66711 
L 32.713327 336.0991 
L 33.045623 336.0991 
L 33.045623 334.801765 
L 33.37792 334.801765 
L 33.37792 332.855764 
L 34.042513 332.855764 
L 34.042513 329.936762 
L 34.37481 329.936762 
L 34.37481 322.152757 
L 34.707107 322.152757 
L 34.707107 313.395751 
L 35.039403 313.395751 
L 35.039403 306.90908 
L 35.3717 306.90908 
L 35.3717 305.287412 
L 35.703997 305.287412 
L 35.703997 294.908738 
L 36.036294 294.908738 
L 36.036294 291.989736 
L 36.36859 291.989736 
L 36.36859 291.016736 
L 36.700887 291.016736 
L 36.700887 287.449066 
L 37.033184 287.449066 
L 37.033184 275.124391 
L 37.36548 275.124391 
L 37.36548 272.529723 
L 37.697777 272.529723 
L 37.697777 271.232389 
L 38.030074 271.232389 
L 38.030074 268.313387 
L 38.36237 268.313387 
L 38.36237 267.989053 
L 38.694667 267.989053 
L 38.694667 256.637379 
L 39.026964 256.637379 
L 39.026964 241.718035 
L 39.35926 241.718035 
L 39.35926 239.123367 
L 39.691557 239.123367 
L 39.691557 236.853032 
L 40.023854 236.853032 
L 40.023854 236.528698 
L 40.356151 236.528698 
L 40.356151 235.231364 
L 40.688447 235.231364 
L 40.688447 231.663695 
L 41.020744 231.663695 
L 41.020744 229.069027 
L 41.353041 229.069027 
L 41.353041 227.771692 
L 41.685337 227.771692 
L 41.685337 227.123025 
L 42.017634 227.123025 
L 42.017634 224.85269 
L 42.349931 224.85269 
L 42.349931 221.285021 
L 42.682227 221.285021 
L 42.682227 219.987687 
L 43.346821 219.987687 
L 43.346821 218.366019 
L 43.679118 218.366019 
L 43.679118 217.717352 
L 44.011414 217.717352 
L 44.011414 214.474017 
L 44.343711 214.474017 
L 44.343711 210.582014 
L 44.676008 210.582014 
L 44.676008 205.392677 
L 45.008304 205.392677 
L 45.008304 204.419676 
L 45.672898 204.419676 
L 45.672898 203.771009 
L 46.005194 203.771009 
L 46.005194 201.825008 
L 46.337491 201.825008 
L 46.337491 199.879007 
L 46.669788 199.879007 
L 46.669788 194.68967 
L 47.002085 194.68967 
L 47.002085 179.445993 
L 47.334381 179.445993 
L 47.334381 176.526991 
L 47.666678 176.526991 
L 47.666678 176.202657 
L 47.998975 176.202657 
L 47.998975 175.878324 
L 48.331271 175.878324 
L 48.331271 172.959322 
L 48.663568 172.959322 
L 48.663568 171.986321 
L 48.995865 171.986321 
L 48.995865 170.364653 
L 49.328161 170.364653 
L 49.328161 169.715986 
L 49.660458 169.715986 
L 49.660458 168.418652 
L 49.992755 168.418652 
L 49.992755 168.094318 
L 50.325052 168.094318 
L 50.325052 167.769985 
L 50.657348 167.769985 
L 50.657348 166.148317 
L 50.989645 166.148317 
L 50.989645 164.850983 
L 51.321942 164.850983 
L 51.321942 164.526649 
L 51.654238 164.526649 
L 51.654238 159.337312 
L 51.986535 159.337312 
L 51.986535 158.039978 
L 52.318832 158.039978 
L 52.318832 154.796643 
L 52.651128 154.796643 
L 52.651128 154.472309 
L 52.983425 154.472309 
L 52.983425 153.499308 
L 53.315722 153.499308 
L 53.315722 152.526308 
L 53.648019 152.526308 
L 53.648019 151.877641 
L 53.980315 151.877641 
L 53.980315 150.580306 
L 54.312612 150.580306 
L 54.312612 148.958639 
L 55.309502 148.958639 
L 55.309502 146.36397 
L 55.641799 146.36397 
L 55.641799 145.715303 
L 55.974095 145.715303 
L 55.974095 145.066636 
L 56.306392 145.066636 
L 56.306392 142.147634 
L 56.638689 142.147634 
L 56.638689 141.498967 
L 56.970986 141.498967 
L 56.970986 140.201633 
L 57.635579 140.201633 
L 57.635579 138.904298 
L 58.300172 138.904298 
L 58.300172 138.579965 
L 58.632469 138.579965 
L 58.632469 138.255631 
L 58.964766 138.255631 
L 58.964766 134.039295 
L 59.629359 134.039295 
L 59.629359 133.714962 
L 59.961656 133.714962 
L 59.961656 132.741961 
L 60.958546 132.741961 
L 60.958546 129.498625 
L 61.290843 129.498625 
L 61.290843 125.606623 
L 61.623139 125.606623 
L 61.623139 123.984955 
L 61.955436 123.984955 
L 61.955436 123.336288 
L 62.620029 123.336288 
L 62.620029 123.011954 
L 63.616919 123.011954 
L 63.616919 121.71462 
L 63.949216 121.71462 
L 63.949216 120.092952 
L 64.281513 120.092952 
L 64.281513 119.119952 
L 64.61381 119.119952 
L 64.61381 117.822617 
L 64.946106 117.822617 
L 64.946106 117.17395 
L 65.278403 117.17395 
L 65.278403 115.227949 
L 65.6107 115.227949 
L 65.6107 114.254948 
L 65.942996 114.254948 
L 65.942996 112.957614 
L 67.272183 112.957614 
L 67.272183 112.308947 
L 67.60448 112.308947 
L 67.60448 111.335946 
L 67.936777 111.335946 
L 67.936777 110.038612 
L 68.269073 110.038612 
L 68.269073 108.416944 
L 68.60137 108.416944 
L 68.60137 106.146609 
L 68.933667 106.146609 
L 68.933667 104.524942 
L 69.265963 104.524942 
L 69.265963 103.876275 
L 69.59826 103.876275 
L 69.59826 103.551941 
L 69.930557 103.551941 
L 69.930557 103.227607 
L 70.59515 103.227607 
L 70.59515 102.903274 
L 71.259744 102.903274 
L 71.259744 100.632939 
L 71.59204 100.632939 
L 71.59204 99.659938 
L 72.256634 99.659938 
L 72.256634 97.713937 
L 72.921227 97.713937 
L 72.921227 97.06527 
L 73.253524 97.06527 
L 73.253524 93.497601 
L 74.250414 93.497601 
L 74.250414 92.848934 
L 74.582711 92.848934 
L 74.582711 92.5246 
L 74.915007 92.5246 
L 74.915007 92.200267 
L 75.247304 92.200267 
L 75.247304 90.578599 
L 76.576491 90.578599 
L 76.576491 89.929932 
L 76.908787 89.929932 
L 76.908787 87.01093 
L 77.905677 87.01093 
L 77.905677 86.362263 
L 78.902568 86.362263 
L 78.902568 85.713595 
L 79.234864 85.713595 
L 79.234864 84.740595 
L 80.231754 84.740595 
L 80.231754 82.794593 
L 80.896348 82.794593 
L 80.896348 81.497259 
L 81.228644 81.497259 
L 81.228644 80.199925 
L 81.560941 80.199925 
L 81.560941 79.551258 
L 82.557831 79.551258 
L 82.557831 78.578257 
L 82.890128 78.578257 
L 82.890128 77.605257 
L 83.222425 77.605257 
L 83.222425 77.280923 
L 83.887018 77.280923 
L 83.887018 76.956589 
L 84.219315 76.956589 
L 84.219315 76.632256 
L 86.213095 76.632256 
L 86.213095 76.307922 
L 87.209985 76.307922 
L 87.209985 75.983589 
L 87.874578 75.983589 
L 87.874578 75.010588 
L 88.206875 75.010588 
L 88.206875 74.361921 
L 89.536062 74.361921 
L 89.536062 73.713254 
L 90.200655 73.713254 
L 90.200655 73.38892 
L 90.865249 73.38892 
L 90.865249 73.064587 
L 92.526732 73.064587 
L 92.526732 72.740253 
L 93.523622 72.740253 
L 93.523622 72.41592 
L 93.855919 72.41592 
L 93.855919 72.091586 
L 94.188216 72.091586 
L 94.188216 71.767253 
L 94.520512 71.767253 
L 94.520512 71.118586 
L 94.852809 71.118586 
L 94.852809 70.794252 
L 95.517402 70.794252 
L 95.517402 69.496918 
L 96.846589 69.496918 
L 96.846589 68.523917 
L 97.511183 68.523917 
L 97.511183 67.550916 
L 97.843479 67.550916 
L 97.843479 67.226583 
L 100.169556 67.226583 
L 100.169556 66.902249 
L 100.501853 66.902249 
L 100.501853 65.929249 
L 101.498743 65.929249 
L 101.498743 65.604915 
L 101.83104 65.604915 
L 101.83104 65.280582 
L 102.163336 65.280582 
L 102.163336 64.956248 
L 102.495633 64.956248 
L 102.495633 64.631914 
L 102.82793 64.631914 
L 102.82793 64.307581 
L 103.492523 64.307581 
L 103.492523 63.658914 
L 103.82482 63.658914 
L 103.82482 63.33458 
L 105.154007 63.33458 
L 105.154007 63.010247 
L 108.80927 63.010247 
L 108.80927 62.685913 
L 109.473864 62.685913 
L 109.473864 62.037246 
L 112.132237 62.037246 
L 112.132237 61.712912 
L 112.464534 61.712912 
L 112.464534 61.388579 
L 112.796831 61.388579 
L 112.796831 61.064245 
L 113.793721 61.064245 
L 113.793721 60.739912 
L 115.455204 60.739912 
L 115.455204 59.442578 
L 116.452094 59.442578 
L 116.452094 59.118244 
L 116.784391 59.118244 
L 116.784391 58.145243 
L 117.781281 58.145243 
L 117.781281 57.496576 
L 119.775061 57.496576 
L 119.775061 56.847909 
L 122.433435 56.847909 
L 122.433435 56.199242 
L 123.098028 56.199242 
L 123.098028 55.550575 
L 125.091809 55.550575 
L 125.091809 54.901908 
L 125.424105 54.901908 
L 125.424105 54.253241 
L 126.088699 54.253241 
L 126.088699 53.928907 
L 126.420995 53.928907 
L 126.420995 53.604574 
L 126.753292 53.604574 
L 126.753292 52.955906 
L 127.417886 52.955906 
L 127.417886 52.631573 
L 127.750182 52.631573 
L 127.750182 52.307239 
L 128.747072 52.307239 
L 128.747072 51.658572 
L 129.079369 51.658572 
L 129.079369 51.334239 
L 131.405446 51.334239 
L 131.405446 51.009905 
L 134.396116 51.009905 
L 134.396116 50.685572 
L 134.728413 50.685572 
L 134.728413 50.036904 
L 135.06071 50.036904 
L 135.06071 49.063904 
L 137.386786 49.063904 
L 137.386786 48.415237 
L 139.04827 48.415237 
L 139.04827 48.090903 
L 140.04516 48.090903 
L 140.04516 47.76657 
L 140.709753 47.76657 
L 140.709753 47.442236 
L 142.03894 47.442236 
L 142.03894 47.117902 
L 143.368127 47.117902 
L 143.368127 46.469235 
L 145.361907 46.469235 
L 145.361907 46.144902 
L 145.694204 46.144902 
L 145.694204 44.847568 
L 147.023391 44.847568 
L 147.023391 44.523234 
L 147.355687 44.523234 
L 147.355687 44.1989 
L 148.020281 44.1989 
L 148.020281 42.577233 
L 148.684874 42.577233 
L 148.684874 42.252899 
L 149.017171 42.252899 
L 149.017171 41.928566 
L 149.681764 41.928566 
L 149.681764 41.604232 
L 151.010951 41.604232 
L 151.010951 40.955565 
L 152.340138 40.955565 
L 152.340138 40.631231 
L 156.659995 40.631231 
L 156.659995 40.306898 
L 156.992292 40.306898 
L 156.992292 39.658231 
L 157.656885 39.658231 
L 157.656885 39.009564 
L 158.321478 39.009564 
L 158.321478 38.68523 
L 158.653775 38.68523 
L 158.653775 38.360896 
L 159.318369 38.360896 
L 159.318369 37.712229 
L 159.982962 37.712229 
L 159.982962 37.387896 
L 160.315259 37.387896 
L 160.315259 37.063562 
L 161.976742 37.063562 
L 161.976742 36.739229 
L 164.635116 36.739229 
L 164.635116 36.414895 
L 165.299709 36.414895 
L 165.299709 36.090562 
L 165.964303 36.090562 
L 165.964303 35.766228 
L 166.961193 35.766228 
L 166.961193 35.117561 
L 168.954973 35.117561 
L 168.954973 34.468894 
L 169.619566 34.468894 
L 169.619566 34.14456 
L 170.28416 34.14456 
L 170.28416 33.495893 
L 170.948753 33.495893 
L 170.948753 33.17156 
L 171.613346 33.17156 
L 171.613346 32.522893 
L 171.945643 32.522893 
L 171.945643 32.198559 
L 174.604017 32.198559 
L 174.604017 31.549892 
L 177.594687 31.549892 
L 177.594687 31.225558 
L 178.25928 31.225558 
L 178.25928 30.901225 
L 180.253061 30.901225 
L 180.253061 30.576891 
L 181.249951 30.576891 
L 181.249951 29.928224 
L 181.914544 29.928224 
L 181.914544 28.955223 
L 186.566698 28.955223 
L 186.566698 28.63089 
L 186.898995 28.63089 
L 186.898995 28.306556 
L 190.221961 28.306556 
L 190.221961 27.982223 
L 191.218852 27.982223 
L 191.218852 27.657889 
L 193.544928 27.657889 
L 193.544928 27.333556 
L 199.193972 27.333556 
L 199.193972 27.009222 
L 199.526269 27.009222 
L 199.526269 26.684889 
L 200.190862 26.684889 
L 200.190862 26.360555 
L 201.520049 26.360555 
L 201.520049 26.036221 
L 203.846126 26.036221 
L 203.846126 25.711888 
L 204.51072 25.711888 
L 204.51072 25.387554 
L 206.5045 25.387554 
L 206.5045 25.063221 
L 208.49828 25.063221 
L 208.49828 24.738887 
L 209.162873 24.738887 
L 209.162873 24.414554 
L 210.49206 24.414554 
L 210.49206 24.09022 
L 218.799478 24.09022 
L 218.799478 23.765887 
L 219.796368 23.765887 
L 219.796368 23.441553 
L 220.793258 23.441553 
L 220.793258 23.117219 
L 222.454741 23.117219 
L 222.454741 22.792886 
L 223.451631 22.792886 
L 223.451631 22.144219 
L 227.439192 22.144219 
L 227.439192 22.144219 
" clip-path="url(#p6499de9127)" style="fill: none; stroke: #ff0000; stroke-width: 1.5; stroke-linecap: square"/>
   </g>
   <g id="line2d_14">
    <defs>
     <path id="m9bc82d3150" d="M 0 3 
C 0.795609 3 1.55874 2.683901 2.12132 2.12132 
C 2.683901 1.55874 3 0.795609 3 0 
C 3 -0.795609 2.683901 -1.55874 2.12132 -2.12132 
C 1.55874 -2.683901 0.795609 -3 0 -3 
C -0.795609 -3 -1.55874 -2.683901 -2.12132 -2.12132 
C -2.683901 -1.55874 -3 -0.795609 -3 0 
C -3 0.795609 -2.683901 1.55874 -2.12132 2.12132 
C -1.55874 2.683901 -0.795609 3 0 3 
z
" style="stroke: #000000"/>
    </defs>
    <g clip-path="url(#p6499de9127)">
     <use xlink:href="#m9bc82d3150" x="73.253524" y="93.497601" style="fill: #ff0000; stroke: #000000"/>
    </g>
   </g>
   <g id="line2d_15">
    <path d="M 29.722656 425.939494 
L 227.439192 22.144219 
" clip-path="url(#p6499de9127)" style="fill: none; stroke: #00bfbf; stroke-width: 1.5; stroke-linecap: square"/>
   </g>
   <g id="patch_4">
    <path d="M 29.722656 425.939494 
L 29.722656 22.144219 
" style="fill: none; stroke: #000000; stroke-width: 0.8; stroke-linejoin: miter; stroke-linecap: square"/>
   </g>
   <g id="patch_5">
    <path d="M 227.439192 425.939494 
L 227.439192 22.144219 
" style="fill: none; stroke: #000000; stroke-width: 0.8; stroke-linejoin: miter; stroke-linecap: square"/>
   </g>
   <g id="patch_6">
    <path d="M 29.722656 425.939494 
L 227.439192 425.939494 
" style="fill: none; stroke: #000000; stroke-width: 0.8; stroke-linejoin: miter; stroke-linecap: square"/>
   </g>
   <g id="patch_7">
    <path d="M 29.722656 22.144219 
L 227.439192 22.144219 
" style="fill: none; stroke: #000000; stroke-width: 0.8; stroke-linejoin: miter; stroke-linecap: square"/>
   </g>
   <g id="text_15">
    <text style="font: 5px 'Arial'" transform="translate(117.786393 10.778906)">AP model</text>
    <text style="font: 5px 'Arial'" transform="translate(76.346158 16.144219)">Receiver Operating Characteristic (ROC) curve</text>
   </g>
   <g id="legend_1">
    <g id="patch_8">
     <path d="M 67.867643 468.926585 
L 189.294205 468.926585 
Q 190.294205 468.926585 190.294205 467.926585 
L 190.294205 461.234398 
Q 190.294205 460.234398 189.294205 460.234398 
L 67.867643 460.234398 
Q 66.867643 460.234398 66.867643 461.234398 
L 66.867643 467.926585 
Q 66.867643 468.926585 67.867643 468.926585 
z
" style="fill: #ffffff; opacity: 0.8; stroke: #cccccc; stroke-linejoin: miter"/>
    </g>
    <g id="line2d_16">
     <path d="M 68.867643 464.124242 
L 73.867643 464.124242 
L 78.867643 464.124242 
" style="fill: none; stroke: #ff0000; stroke-width: 1.5; stroke-linecap: square"/>
    </g>
    <g id="text_16">
     <text style="font: 5px 'Arial'; text-anchor: start" x="82.867643" y="465.874242" transform="rotate(-0 82.867643 465.874242)">model performance</text>
    </g>
    <g id="line2d_17">
     <path d="M 135.940299 464.124242 
L 140.940299 464.124242 
L 145.940299 464.124242 
" style="fill: none; stroke: #00bfbf; stroke-width: 1.5; stroke-linecap: square"/>
    </g>
    <g id="text_17">
     <text style="font: 5px 'Arial'; text-anchor: start" x="149.940299" y="465.874242" transform="rotate(-0 149.940299 465.874242)">random guessing</text>
    </g>
   </g>
  </g>
 </g>
 <defs>
  <clipPath id="p6499de9127">
   <rect x="29.722656" y="22.144219" width="197.716535" height="403.795276"/>
  </clipPath>
 </defs>
</svg>
