<?xml version="1.0" encoding="utf-8" standalone="no"?>
<!DOCTYPE svg PUBLIC "-//W3C//DTD SVG 1.1//EN"
  "http://www.w3.org/Graphics/SVG/1.1/DTD/svg11.dtd">
<svg xmlns:xlink="http://www.w3.org/1999/xlink" width="413.064687pt" height="346.716041pt" viewBox="0 0 413.064687 346.716041" xmlns="http://www.w3.org/2000/svg" version="1.1">
 <metadata>
  <rdf:RDF xmlns:dc="http://purl.org/dc/elements/1.1/" xmlns:cc="http://creativecommons.org/ns#" xmlns:rdf="http://www.w3.org/1999/02/22-rdf-syntax-ns#">
   <cc:Work>
    <dc:type rdf:resource="http://purl.org/dc/dcmitype/StillImage"/>
    <dc:date>2024-09-25T06:57:20.575158</dc:date>
    <dc:format>image/svg+xml</dc:format>
    <dc:creator>
     <cc:Agent>
      <dc:title>Matplotlib v3.7.0, https://matplotlib.org/</dc:title>
     </cc:Agent>
    </dc:creator>
   </cc:Work>
  </rdf:RDF>
 </metadata>
 <defs>
  <style type="text/css">*{stroke-linejoin: round; stroke-linecap: butt}</style>
 </defs>
 <g id="figure_1">
  <g id="patch_1">
   <path d="M 0 346.716041 
L 413.064687 346.716041 
L 413.064687 0 
L 0 0 
z
" style="fill: #ffffff"/>
  </g>
  <g id="axes_1">
   <g id="patch_2">
    <path d="M 45.269688 275.101453 
L 402.389688 275.101453 
L 402.389688 8.989453 
L 45.269688 8.989453 
z
" style="fill: #ffffff"/>
   </g>
   <g id="patch_3">
    <path d="M 45.269688 8.989453 
L 55.86032 11.911131 
L 53.736763 13.882714 
L 124.007874 55.909493 
L 123.784342 56.117028 
L 53.513231 14.090249 
L 51.389674 16.061833 
z
" clip-path="url(#p680dce4878)" style="fill: #1f77b4; stroke: #000000; stroke-linejoin: miter"/>
   </g>
   <g id="matplotlib.axis_1">
    <g id="xtick_1">
     <g id="line2d_1">
      <defs>
       <path id="ma9df4e1791" d="M 0 0 
L 0 3.5 
" style="stroke: #000000; stroke-width: 0.8"/>
      </defs>
      <g>
       <use xlink:href="#ma9df4e1791" x="45.269688" y="275.101453" style="stroke: #000000; stroke-width: 0.8"/>
      </g>
     </g>
     <g id="text_1">
      <text style="font: 5px 'Arial'; text-anchor: middle" x="45.269688" y="285.680359" transform="rotate(-0 45.269688 285.680359)">0.0</text>
     </g>
    </g>
    <g id="xtick_2">
     <g id="line2d_2">
      <g>
       <use xlink:href="#ma9df4e1791" x="116.693688" y="275.101453" style="stroke: #000000; stroke-width: 0.8"/>
      </g>
     </g>
     <g id="text_2">
      <text style="font: 5px 'Arial'; text-anchor: middle" x="116.693688" y="285.680359" transform="rotate(-0 116.693688 285.680359)">0.2</text>
     </g>
    </g>
    <g id="xtick_3">
     <g id="line2d_3">
      <g>
       <use xlink:href="#ma9df4e1791" x="188.117688" y="275.101453" style="stroke: #000000; stroke-width: 0.8"/>
      </g>
     </g>
     <g id="text_3">
      <text style="font: 5px 'Arial'; text-anchor: middle" x="188.117688" y="285.680359" transform="rotate(-0 188.117688 285.680359)">0.4</text>
     </g>
    </g>
    <g id="xtick_4">
     <g id="line2d_4">
      <g>
       <use xlink:href="#ma9df4e1791" x="259.541688" y="275.101453" style="stroke: #000000; stroke-width: 0.8"/>
      </g>
     </g>
     <g id="text_4">
      <text style="font: 5px 'Arial'; text-anchor: middle" x="259.541688" y="285.680359" transform="rotate(-0 259.541688 285.680359)">0.6</text>
     </g>
    </g>
    <g id="xtick_5">
     <g id="line2d_5">
      <g>
       <use xlink:href="#ma9df4e1791" x="330.965688" y="275.101453" style="stroke: #000000; stroke-width: 0.8"/>
      </g>
     </g>
     <g id="text_5">
      <text style="font: 5px 'Arial'; text-anchor: middle" x="330.965688" y="285.680359" transform="rotate(-0 330.965688 285.680359)">0.8</text>
     </g>
    </g>
    <g id="xtick_6">
     <g id="line2d_6">
      <g>
       <use xlink:href="#ma9df4e1791" x="402.389688" y="275.101453" style="stroke: #000000; stroke-width: 0.8"/>
      </g>
     </g>
     <g id="text_6">
      <text style="font: 5px 'Arial'; text-anchor: middle" x="402.389688" y="285.680359" transform="rotate(-0 402.389688 285.680359)">1.0</text>
     </g>
    </g>
    <g id="text_7">
     <text style="font: 22px 'Arial'; text-anchor: middle" x="223.829688" y="306.421297" transform="rotate(-0 223.829688 306.421297)">FPR</text>
    </g>
   </g>
   <g id="matplotlib.axis_2">
    <g id="ytick_1">
     <g id="line2d_7">
      <defs>
       <path id="m4be7cbdf2d" d="M 0 0 
L -3.5 0 
" style="stroke: #000000; stroke-width: 0.8"/>
      </defs>
      <g>
       <use xlink:href="#m4be7cbdf2d" x="45.269688" y="275.101453" style="stroke: #000000; stroke-width: 0.8"/>
      </g>
     </g>
     <g id="text_8">
      <text style="font: 5px 'Arial'; text-anchor: end" x="38.269688" y="276.890906" transform="rotate(-0 38.269688 276.890906)">0.0</text>
     </g>
    </g>
    <g id="ytick_2">
     <g id="line2d_8">
      <g>
       <use xlink:href="#m4be7cbdf2d" x="45.269688" y="221.879053" style="stroke: #000000; stroke-width: 0.8"/>
      </g>
     </g>
     <g id="text_9">
      <text style="font: 5px 'Arial'; text-anchor: end" x="38.269688" y="223.668506" transform="rotate(-0 38.269688 223.668506)">0.2</text>
     </g>
    </g>
    <g id="ytick_3">
     <g id="line2d_9">
      <g>
       <use xlink:href="#m4be7cbdf2d" x="45.269688" y="168.656653" style="stroke: #000000; stroke-width: 0.8"/>
      </g>
     </g>
     <g id="text_10">
      <text style="font: 5px 'Arial'; text-anchor: end" x="38.269688" y="170.446106" transform="rotate(-0 38.269688 170.446106)">0.4</text>
     </g>
    </g>
    <g id="ytick_4">
     <g id="line2d_10">
      <g>
       <use xlink:href="#m4be7cbdf2d" x="45.269688" y="115.434253" style="stroke: #000000; stroke-width: 0.8"/>
      </g>
     </g>
     <g id="text_11">
      <text style="font: 5px 'Arial'; text-anchor: end" x="38.269688" y="117.223706" transform="rotate(-0 38.269688 117.223706)">0.6</text>
     </g>
    </g>
    <g id="ytick_5">
     <g id="line2d_11">
      <g>
       <use xlink:href="#m4be7cbdf2d" x="45.269688" y="62.211853" style="stroke: #000000; stroke-width: 0.8"/>
      </g>
     </g>
     <g id="text_12">
      <text style="font: 5px 'Arial'; text-anchor: end" x="38.269688" y="64.001306" transform="rotate(-0 38.269688 64.001306)">0.8</text>
     </g>
    </g>
    <g id="ytick_6">
     <g id="line2d_12">
      <g>
       <use xlink:href="#m4be7cbdf2d" x="45.269688" y="8.989453" style="stroke: #000000; stroke-width: 0.8"/>
      </g>
     </g>
     <g id="text_13">
      <text style="font: 5px 'Arial'; text-anchor: end" x="38.269688" y="10.778906" transform="rotate(-0 38.269688 10.778906)">1.0</text>
     </g>
    </g>
    <g id="text_14">
     <text style="font: 22px 'Arial'; text-anchor: middle" x="22.947188" y="142.045453" transform="rotate(-90 22.947188 142.045453)">TPR</text>
    </g>
   </g>
   <g id="line2d_13">
    <path d="M 45.269688 275.101453 
L 45.269688 272.109029 
L 45.869889 272.109029 
L 45.869889 265.696692 
L 46.470091 265.696692 
L 46.470091 263.131757 
L 47.070293 263.131757 
L 47.070293 260.566822 
L 47.670494 260.566822 
L 47.670494 234.276239 
L 48.270696 234.276239 
L 48.270696 233.42126 
L 48.870898 233.42126 
L 48.870898 229.573858 
L 49.471099 229.573858 
L 49.471099 227.436412 
L 50.071301 227.436412 
L 50.071301 226.153945 
L 50.671503 226.153945 
L 50.671503 215.894205 
L 51.271704 215.894205 
L 51.271704 215.039227 
L 51.871906 215.039227 
L 51.871906 213.756759 
L 53.072309 213.756759 
L 53.072309 211.833058 
L 53.672511 211.833058 
L 53.672511 206.703188 
L 54.272713 206.703188 
L 54.272713 200.932084 
L 54.872914 200.932084 
L 54.872914 196.657193 
L 55.473116 196.657193 
L 55.473116 195.58847 
L 56.073318 195.58847 
L 56.073318 188.748643 
L 56.673519 188.748643 
L 56.673519 186.824942 
L 57.273721 186.824942 
L 57.273721 186.183709 
L 57.873923 186.183709 
L 57.873923 183.832518 
L 58.474124 183.832518 
L 58.474124 175.710224 
L 59.074326 175.710224 
L 59.074326 174.000268 
L 59.674528 174.000268 
L 59.674528 173.145289 
L 60.27473 173.145289 
L 60.27473 171.221588 
L 60.874931 171.221588 
L 60.874931 171.007843 
L 61.475133 171.007843 
L 61.475133 163.526783 
L 62.075335 163.526783 
L 62.075335 153.694533 
L 62.675536 153.694533 
L 62.675536 151.984576 
L 63.275738 151.984576 
L 63.275738 150.488364 
L 63.87594 150.488364 
L 63.87594 150.274619 
L 64.476141 150.274619 
L 64.476141 149.419641 
L 65.076343 149.419641 
L 65.076343 147.068451 
L 65.676545 147.068451 
L 65.676545 145.358494 
L 66.276746 145.358494 
L 66.276746 144.503516 
L 66.876948 144.503516 
L 66.876948 144.076027 
L 67.47715 144.076027 
L 67.47715 142.579815 
L 68.077351 142.579815 
L 68.077351 140.228624 
L 68.677553 140.228624 
L 68.677553 139.373646 
L 69.877956 139.373646 
L 69.877956 138.304923 
L 70.478158 138.304923 
L 70.478158 137.877434 
L 71.07836 137.877434 
L 71.07836 135.739988 
L 71.678561 135.739988 
L 71.678561 133.175053 
L 72.278763 133.175053 
L 72.278763 129.75514 
L 72.878965 129.75514 
L 72.878965 129.113906 
L 74.079368 129.113906 
L 74.079368 128.686417 
L 74.67957 128.686417 
L 74.67957 127.40395 
L 75.279772 127.40395 
L 75.279772 126.121482 
L 75.879973 126.121482 
L 75.879973 122.701569 
L 76.480175 122.701569 
L 76.480175 112.655574 
L 77.080377 112.655574 
L 77.080377 110.731872 
L 77.680578 110.731872 
L 77.680578 110.518128 
L 78.28078 110.518128 
L 78.28078 110.304383 
L 78.880982 110.304383 
L 78.880982 108.380682 
L 79.481183 108.380682 
L 79.481183 107.739448 
L 80.081385 107.739448 
L 80.081385 106.670725 
L 80.681587 106.670725 
L 80.681587 106.243236 
L 81.281788 106.243236 
L 81.281788 105.388258 
L 81.88199 105.388258 
L 81.88199 105.174513 
L 82.482192 105.174513 
L 82.482192 104.960769 
L 83.082393 104.960769 
L 83.082393 103.892046 
L 83.682595 103.892046 
L 83.682595 103.037068 
L 84.282797 103.037068 
L 84.282797 102.823323 
L 84.882998 102.823323 
L 84.882998 99.40341 
L 85.4832 99.40341 
L 85.4832 98.548431 
L 86.083402 98.548431 
L 86.083402 96.410986 
L 86.683603 96.410986 
L 86.683603 96.197241 
L 87.283805 96.197241 
L 87.283805 95.556007 
L 87.884007 95.556007 
L 87.884007 94.914774 
L 88.484209 94.914774 
L 88.484209 94.487284 
L 89.08441 94.487284 
L 89.08441 93.632306 
L 89.684612 93.632306 
L 89.684612 92.563583 
L 91.485217 92.563583 
L 91.485217 90.853627 
L 92.085419 90.853627 
L 92.085419 90.426137 
L 92.68562 90.426137 
L 92.68562 89.998648 
L 93.285822 89.998648 
L 93.285822 88.074947 
L 93.886024 88.074947 
L 93.886024 87.647458 
L 94.486225 87.647458 
L 94.486225 86.79248 
L 95.686629 86.79248 
L 95.686629 85.937501 
L 96.887032 85.937501 
L 96.887032 85.723757 
L 97.487234 85.723757 
L 97.487234 85.510012 
L 98.087435 85.510012 
L 98.087435 82.731333 
L 99.287839 82.731333 
L 99.287839 82.517588 
L 99.88804 82.517588 
L 99.88804 81.876354 
L 101.688645 81.876354 
L 101.688645 79.738909 
L 102.288847 79.738909 
L 102.288847 77.173974 
L 102.889049 77.173974 
L 102.889049 76.105251 
L 103.489251 76.105251 
L 103.489251 75.677762 
L 104.689654 75.677762 
L 104.689654 75.464017 
L 106.490259 75.464017 
L 106.490259 74.609039 
L 107.090461 74.609039 
L 107.090461 73.540316 
L 107.690662 73.540316 
L 107.690662 72.899082 
L 108.290864 72.899082 
L 108.290864 72.044104 
L 108.891066 72.044104 
L 108.891066 71.616615 
L 109.491267 71.616615 
L 109.491267 70.334147 
L 110.091469 70.334147 
L 110.091469 69.692913 
L 110.691671 69.692913 
L 110.691671 68.837935 
L 113.092477 68.837935 
L 113.092477 68.410446 
L 113.692679 68.410446 
L 113.692679 67.769212 
L 114.292881 67.769212 
L 114.292881 66.914234 
L 114.893082 66.914234 
L 114.893082 65.845511 
L 115.493284 65.845511 
L 115.493284 64.349299 
L 116.093486 64.349299 
L 116.093486 63.280576 
L 116.693688 63.280576 
L 116.693688 62.853087 
L 117.293889 62.853087 
L 117.293889 62.639342 
L 117.894091 62.639342 
L 117.894091 62.425598 
L 119.094494 62.425598 
L 119.094494 62.211853 
L 120.294898 62.211853 
L 120.294898 60.715641 
L 120.895099 60.715641 
L 120.895099 60.074407 
L 122.095503 60.074407 
L 122.095503 58.79194 
L 123.295906 58.79194 
L 123.295906 58.364451 
L 123.896108 58.364451 
L 123.896108 56.01326 
L 125.696713 56.01326 
L 125.696713 55.585771 
L 126.296914 55.585771 
L 126.296914 55.372027 
L 126.897116 55.372027 
L 126.897116 55.158282 
L 127.497318 55.158282 
L 127.497318 54.089559 
L 129.898124 54.089559 
L 129.898124 53.66207 
L 130.498326 53.66207 
L 130.498326 51.738369 
L 132.298931 51.738369 
L 132.298931 51.31088 
L 134.099536 51.31088 
L 134.099536 50.88339 
L 134.699738 50.88339 
L 134.699738 50.242157 
L 136.500343 50.242157 
L 136.500343 48.959689 
L 137.700746 48.959689 
L 137.700746 48.104711 
L 138.300948 48.104711 
L 138.300948 47.249733 
L 138.90115 47.249733 
L 138.90115 46.822243 
L 140.701755 46.822243 
L 140.701755 46.18101 
L 141.301956 46.18101 
L 141.301956 45.539776 
L 141.902158 45.539776 
L 141.902158 45.326031 
L 143.102561 45.326031 
L 143.102561 45.112287 
L 143.702763 45.112287 
L 143.702763 44.898542 
L 147.303973 44.898542 
L 147.303973 44.684798 
L 149.104578 44.684798 
L 149.104578 44.471053 
L 150.304982 44.471053 
L 150.304982 43.829819 
L 150.905183 43.829819 
L 150.905183 43.40233 
L 153.30599 43.40233 
L 153.30599 42.974841 
L 154.506393 42.974841 
L 154.506393 42.761096 
L 155.706797 42.761096 
L 155.706797 42.547352 
L 158.707805 42.547352 
L 158.707805 42.333607 
L 160.50841 42.333607 
L 160.50841 42.119863 
L 161.108612 42.119863 
L 161.108612 41.906118 
L 161.708814 41.906118 
L 161.708814 41.692374 
L 162.309015 41.692374 
L 162.309015 41.264884 
L 162.909217 41.264884 
L 162.909217 41.05114 
L 164.10962 41.05114 
L 164.10962 40.196162 
L 166.510427 40.196162 
L 166.510427 39.554928 
L 167.71083 39.554928 
L 167.71083 38.913694 
L 168.311032 38.913694 
L 168.311032 38.69995 
L 172.512444 38.69995 
L 172.512444 38.486205 
L 173.112645 38.486205 
L 173.112645 37.844971 
L 174.913251 37.844971 
L 174.913251 37.631227 
L 175.513452 37.631227 
L 175.513452 37.417482 
L 176.113654 37.417482 
L 176.113654 37.203737 
L 176.713856 37.203737 
L 176.713856 36.989993 
L 177.314057 36.989993 
L 177.314057 36.776248 
L 178.514461 36.776248 
L 178.514461 36.348759 
L 179.114662 36.348759 
L 179.114662 36.135015 
L 181.515469 36.135015 
L 181.515469 35.92127 
L 188.117688 35.92127 
L 188.117688 35.707525 
L 189.318091 35.707525 
L 189.318091 35.280036 
L 194.119704 35.280036 
L 194.119704 35.066292 
L 194.719906 35.066292 
L 194.719906 34.852547 
L 195.320108 34.852547 
L 195.320108 34.638803 
L 197.120713 34.638803 
L 197.120713 34.425058 
L 200.121721 34.425058 
L 200.121721 33.57008 
L 201.922326 33.57008 
L 201.922326 33.356335 
L 202.522528 33.356335 
L 202.522528 32.715101 
L 204.323133 32.715101 
L 204.323133 32.287612 
L 207.924343 32.287612 
L 207.924343 31.860123 
L 212.725956 31.860123 
L 212.725956 31.432634 
L 213.92636 31.432634 
L 213.92636 31.005145 
L 217.52757 31.005145 
L 217.52757 30.577656 
L 218.127772 30.577656 
L 218.127772 30.150166 
L 219.328175 30.150166 
L 219.328175 29.936422 
L 219.928377 29.936422 
L 219.928377 29.722677 
L 220.528578 29.722677 
L 220.528578 29.295188 
L 221.728982 29.295188 
L 221.728982 29.081443 
L 222.329183 29.081443 
L 222.329183 28.867699 
L 224.129788 28.867699 
L 224.129788 28.44021 
L 224.72999 28.44021 
L 224.72999 28.226465 
L 228.931402 28.226465 
L 228.931402 28.012721 
L 234.333217 28.012721 
L 234.333217 27.798976 
L 234.933419 27.798976 
L 234.933419 27.371487 
L 235.53362 27.371487 
L 235.53362 26.730253 
L 239.735032 26.730253 
L 239.735032 26.302764 
L 242.73604 26.302764 
L 242.73604 26.089019 
L 244.536645 26.089019 
L 244.536645 25.875275 
L 245.737049 25.875275 
L 245.737049 25.66153 
L 248.137856 25.66153 
L 248.137856 25.447786 
L 250.538662 25.447786 
L 250.538662 25.020296 
L 254.139872 25.020296 
L 254.139872 24.806552 
L 254.740074 24.806552 
L 254.740074 23.951574 
L 257.140881 23.951574 
L 257.140881 23.737829 
L 257.741082 23.737829 
L 257.741082 23.524084 
L 258.941486 23.524084 
L 258.941486 22.455362 
L 260.141889 22.455362 
L 260.141889 22.241617 
L 260.742091 22.241617 
L 260.742091 22.027872 
L 261.942494 22.027872 
L 261.942494 21.814128 
L 264.343301 21.814128 
L 264.343301 21.386639 
L 266.744108 21.386639 
L 266.744108 21.172894 
L 274.54673 21.172894 
L 274.54673 20.95915 
L 275.146931 20.95915 
L 275.146931 20.53166 
L 276.347335 20.53166 
L 276.347335 20.104171 
L 277.547738 20.104171 
L 277.547738 19.890427 
L 278.14794 19.890427 
L 278.14794 19.676682 
L 279.348343 19.676682 
L 279.348343 19.249193 
L 280.548746 19.249193 
L 280.548746 19.035448 
L 281.148948 19.035448 
L 281.148948 18.821704 
L 284.149956 18.821704 
L 284.149956 18.607959 
L 288.95157 18.607959 
L 288.95157 18.394215 
L 290.151973 18.394215 
L 290.151973 18.18047 
L 291.352377 18.18047 
L 291.352377 17.966725 
L 293.152982 17.966725 
L 293.152982 17.539236 
L 296.754192 17.539236 
L 296.754192 17.111747 
L 297.954595 17.111747 
L 297.954595 16.898003 
L 299.154998 16.898003 
L 299.154998 16.470513 
L 300.355402 16.470513 
L 300.355402 16.256769 
L 301.555805 16.256769 
L 301.555805 15.82928 
L 302.156007 15.82928 
L 302.156007 15.615535 
L 306.95762 15.615535 
L 306.95762 15.188046 
L 312.359435 15.188046 
L 312.359435 14.974301 
L 313.559839 14.974301 
L 313.559839 14.760557 
L 317.161049 14.760557 
L 317.161049 14.546812 
L 318.961654 14.546812 
L 318.961654 14.119323 
L 320.162057 14.119323 
L 320.162057 13.478089 
L 328.564881 13.478089 
L 328.564881 13.264345 
L 329.165082 13.264345 
L 329.165082 13.0506 
L 335.167099 13.0506 
L 335.167099 12.836856 
L 336.967704 12.836856 
L 336.967704 12.623111 
L 341.169116 12.623111 
L 341.169116 12.409366 
L 351.372545 12.409366 
L 351.372545 12.195622 
L 351.972746 12.195622 
L 351.972746 11.981877 
L 353.17315 11.981877 
L 353.17315 11.768133 
L 355.573956 11.768133 
L 355.573956 11.554388 
L 359.775368 11.554388 
L 359.775368 11.340643 
L 360.975772 11.340643 
L 360.975772 11.126899 
L 364.576982 11.126899 
L 364.576982 10.913154 
L 368.178192 10.913154 
L 368.178192 10.69941 
L 369.378595 10.69941 
L 369.378595 10.485665 
L 371.779402 10.485665 
L 371.779402 10.271921 
L 386.784444 10.271921 
L 386.784444 10.058176 
L 388.585049 10.058176 
L 388.585049 9.844431 
L 390.385654 9.844431 
L 390.385654 9.630687 
L 393.386662 9.630687 
L 393.386662 9.416942 
L 395.187267 9.416942 
L 395.187267 8.989453 
L 402.389688 8.989453 
L 402.389688 8.989453 
" clip-path="url(#p680dce4878)" style="fill: none; stroke: #ff0000; stroke-width: 1.5; stroke-linecap: square"/>
   </g>
   <g id="line2d_14">
    <defs>
     <path id="m52550a525f" d="M 0 3 
C 0.795609 3 1.55874 2.683901 2.12132 2.12132 
C 2.683901 1.55874 3 0.795609 3 0 
C 3 -0.795609 2.683901 -1.55874 2.12132 -2.12132 
C 1.55874 -2.683901 0.795609 -3 0 -3 
C -0.795609 -3 -1.55874 -2.683901 -2.12132 -2.12132 
C -2.683901 -1.55874 -3 -0.795609 -3 0 
C -3 0.795609 -2.683901 1.55874 -2.12132 2.12132 
C -1.55874 2.683901 -0.795609 3 0 3 
z
" style="stroke: #000000"/>
    </defs>
    <g clip-path="url(#p680dce4878)">
     <use xlink:href="#m52550a525f" x="123.896108" y="56.01326" style="fill: #ff0000; stroke: #000000"/>
    </g>
   </g>
   <g id="line2d_15">
    <path d="M 45.269688 275.101453 
L 402.389688 8.989453 
" clip-path="url(#p680dce4878)" style="fill: none; stroke: #00bfbf; stroke-width: 1.5; stroke-linecap: square"/>
   </g>
   <g id="patch_4">
    <path d="M 45.269688 275.101453 
L 45.269688 8.989453 
" style="fill: none; stroke: #000000; stroke-width: 0.8; stroke-linejoin: miter; stroke-linecap: square"/>
   </g>
   <g id="patch_5">
    <path d="M 402.389688 275.101453 
L 402.389688 8.989453 
" style="fill: none; stroke: #000000; stroke-width: 0.8; stroke-linejoin: miter; stroke-linecap: square"/>
   </g>
   <g id="patch_6">
    <path d="M 45.269688 275.101453 
L 402.389688 275.101453 
" style="fill: none; stroke: #000000; stroke-width: 0.8; stroke-linejoin: miter; stroke-linecap: square"/>
   </g>
   <g id="patch_7">
    <path d="M 45.269688 8.989453 
L 402.389688 8.989453 
" style="fill: none; stroke: #000000; stroke-width: 0.8; stroke-linejoin: miter; stroke-linecap: square"/>
   </g>
   <g id="legend_1">
    <g id="patch_8">
     <path d="M 163.116406 339.516041 
L 284.542969 339.516041 
Q 285.542969 339.516041 285.542969 338.516041 
L 285.542969 331.823853 
Q 285.542969 330.823853 284.542969 330.823853 
L 163.116406 330.823853 
Q 162.116406 330.823853 162.116406 331.823853 
L 162.116406 338.516041 
Q 162.116406 339.516041 163.116406 339.516041 
z
" style="fill: #ffffff; opacity: 0.8; stroke: #cccccc; stroke-linejoin: miter"/>
    </g>
    <g id="line2d_16">
     <path d="M 164.116406 334.713697 
L 169.116406 334.713697 
L 174.116406 334.713697 
" style="fill: none; stroke: #ff0000; stroke-width: 1.5; stroke-linecap: square"/>
    </g>
    <g id="text_15">
     <text style="font: 5px 'Arial'; text-anchor: start" x="178.116406" y="336.463697" transform="rotate(-0 178.116406 336.463697)">model performance</text>
    </g>
    <g id="line2d_17">
     <path d="M 231.189063 334.713697 
L 236.189063 334.713697 
L 241.189063 334.713697 
" style="fill: none; stroke: #00bfbf; stroke-width: 1.5; stroke-linecap: square"/>
    </g>
    <g id="text_16">
     <text style="font: 5px 'Arial'; text-anchor: start" x="245.189063" y="336.463697" transform="rotate(-0 245.189063 336.463697)">random guessing</text>
    </g>
   </g>
  </g>
 </g>
 <defs>
  <clipPath id="p680dce4878">
   <rect x="45.269688" y="8.989453" width="357.12" height="266.112"/>
  </clipPath>
 </defs>
</svg>
