<?xml version="1.0" encoding="utf-8" standalone="no"?>
<!DOCTYPE svg PUBLIC "-//W3C//DTD SVG 1.1//EN"
  "http://www.w3.org/Graphics/SVG/1.1/DTD/svg11.dtd">
<svg xmlns:xlink="http://www.w3.org/1999/xlink" width="242.837664pt" height="268.2336pt" viewBox="0 0 242.837664 268.2336" xmlns="http://www.w3.org/2000/svg" version="1.1">
 <metadata>
  <rdf:RDF xmlns:dc="http://purl.org/dc/elements/1.1/" xmlns:cc="http://creativecommons.org/ns#" xmlns:rdf="http://www.w3.org/1999/02/22-rdf-syntax-ns#">
   <cc:Work>
    <dc:type rdf:resource="http://purl.org/dc/dcmitype/StillImage"/>
    <dc:date>2024-09-30T08:29:13.661330</dc:date>
    <dc:format>image/svg+xml</dc:format>
    <dc:creator>
     <cc:Agent>
      <dc:title>Matplotlib v3.7.0, https://matplotlib.org/</dc:title>
     </cc:Agent>
    </dc:creator>
   </cc:Work>
  </rdf:RDF>
 </metadata>
 <defs>
  <style type="text/css">*{stroke-linejoin: round; stroke-linecap: butt}</style>
 </defs>
 <g id="figure_1">
  <g id="patch_1">
   <path d="M -0 268.2336 
L 242.837664 268.2336 
L 242.837664 0 
L -0 0 
z
" style="fill: #ffffff"/>
  </g>
  <g id="axes_1">
   <g id="patch_2">
    <path d="M 34.331719 222.162851 
L 230.772664 222.162851 
L 230.772664 25.721906 
L 34.331719 25.721906 
z
" style="fill: #ffffff"/>
   </g>
   <g id="patch_3">
    <path d="M 34.331719 25.721906 
L 40.157307 27.878656 
L 38.989202 29.334058 
L 77.643221 60.357762 
L 77.520263 60.510962 
L 38.866244 29.487258 
L 37.698139 30.942659 
z
" clip-path="url(#pf311602cc5)" style="fill: #1f77b4; stroke: #000000; stroke-linejoin: miter"/>
   </g>
   <g id="matplotlib.axis_1">
    <g id="xtick_1">
     <g id="line2d_1">
      <defs>
       <path id="mfc58e946a2" d="M 0 0 
L 0 3.5 
" style="stroke: #000000; stroke-width: 0.8"/>
      </defs>
      <g>
       <use xlink:href="#mfc58e946a2" x="34.331719" y="222.162851" style="stroke: #000000; stroke-width: 0.8"/>
      </g>
     </g>
     <g id="text_1">
      <text style="font: 7px 'Arial'; text-anchor: middle" x="34.331719" y="234.17332" transform="rotate(-0 34.331719 234.17332)">0.0</text>
     </g>
    </g>
    <g id="xtick_2">
     <g id="line2d_2">
      <g>
       <use xlink:href="#mfc58e946a2" x="73.619908" y="222.162851" style="stroke: #000000; stroke-width: 0.8"/>
      </g>
     </g>
     <g id="text_2">
      <text style="font: 7px 'Arial'; text-anchor: middle" x="73.619908" y="234.17332" transform="rotate(-0 73.619908 234.17332)">0.2</text>
     </g>
    </g>
    <g id="xtick_3">
     <g id="line2d_3">
      <g>
       <use xlink:href="#mfc58e946a2" x="112.908097" y="222.162851" style="stroke: #000000; stroke-width: 0.8"/>
      </g>
     </g>
     <g id="text_3">
      <text style="font: 7px 'Arial'; text-anchor: middle" x="112.908097" y="234.17332" transform="rotate(-0 112.908097 234.17332)">0.4</text>
     </g>
    </g>
    <g id="xtick_4">
     <g id="line2d_4">
      <g>
       <use xlink:href="#mfc58e946a2" x="152.196286" y="222.162851" style="stroke: #000000; stroke-width: 0.8"/>
      </g>
     </g>
     <g id="text_4">
      <text style="font: 7px 'Arial'; text-anchor: middle" x="152.196286" y="234.17332" transform="rotate(-0 152.196286 234.17332)">0.6</text>
     </g>
    </g>
    <g id="xtick_5">
     <g id="line2d_5">
      <g>
       <use xlink:href="#mfc58e946a2" x="191.484475" y="222.162851" style="stroke: #000000; stroke-width: 0.8"/>
      </g>
     </g>
     <g id="text_5">
      <text style="font: 7px 'Arial'; text-anchor: middle" x="191.484475" y="234.17332" transform="rotate(-0 191.484475 234.17332)">0.8</text>
     </g>
    </g>
    <g id="xtick_6">
     <g id="line2d_6">
      <g>
       <use xlink:href="#mfc58e946a2" x="230.772664" y="222.162851" style="stroke: #000000; stroke-width: 0.8"/>
      </g>
     </g>
     <g id="text_6">
      <text style="font: 7px 'Arial'; text-anchor: middle" x="230.772664" y="234.17332" transform="rotate(-0 230.772664 234.17332)">1.0</text>
     </g>
    </g>
    <g id="text_7">
     <text style="font: 7px 'Arial'; text-anchor: middle" x="132.552191" y="244.575039" transform="rotate(-0 132.552191 244.575039)">FPR</text>
    </g>
   </g>
   <g id="matplotlib.axis_2">
    <g id="ytick_1">
     <g id="line2d_7">
      <defs>
       <path id="m792c634afd" d="M 0 0 
L -3.5 0 
" style="stroke: #000000; stroke-width: 0.8"/>
      </defs>
      <g>
       <use xlink:href="#m792c634afd" x="34.331719" y="222.162851" style="stroke: #000000; stroke-width: 0.8"/>
      </g>
     </g>
     <g id="text_8">
      <text style="font: 7px 'Arial'; text-anchor: end" x="27.331719" y="224.668086" transform="rotate(-0 27.331719 224.668086)">0.0</text>
     </g>
    </g>
    <g id="ytick_2">
     <g id="line2d_8">
      <g>
       <use xlink:href="#m792c634afd" x="34.331719" y="182.874662" style="stroke: #000000; stroke-width: 0.8"/>
      </g>
     </g>
     <g id="text_9">
      <text style="font: 7px 'Arial'; text-anchor: end" x="27.331719" y="185.379897" transform="rotate(-0 27.331719 185.379897)">0.2</text>
     </g>
    </g>
    <g id="ytick_3">
     <g id="line2d_9">
      <g>
       <use xlink:href="#m792c634afd" x="34.331719" y="143.586473" style="stroke: #000000; stroke-width: 0.8"/>
      </g>
     </g>
     <g id="text_10">
      <text style="font: 7px 'Arial'; text-anchor: end" x="27.331719" y="146.091708" transform="rotate(-0 27.331719 146.091708)">0.4</text>
     </g>
    </g>
    <g id="ytick_4">
     <g id="line2d_10">
      <g>
       <use xlink:href="#m792c634afd" x="34.331719" y="104.298284" style="stroke: #000000; stroke-width: 0.8"/>
      </g>
     </g>
     <g id="text_11">
      <text style="font: 7px 'Arial'; text-anchor: end" x="27.331719" y="106.803519" transform="rotate(-0 27.331719 106.803519)">0.6</text>
     </g>
    </g>
    <g id="ytick_5">
     <g id="line2d_11">
      <g>
       <use xlink:href="#m792c634afd" x="34.331719" y="65.010095" style="stroke: #000000; stroke-width: 0.8"/>
      </g>
     </g>
     <g id="text_12">
      <text style="font: 7px 'Arial'; text-anchor: end" x="27.331719" y="67.51533" transform="rotate(-0 27.331719 67.51533)">0.8</text>
     </g>
    </g>
    <g id="ytick_6">
     <g id="line2d_12">
      <g>
       <use xlink:href="#m792c634afd" x="34.331719" y="25.721906" style="stroke: #000000; stroke-width: 0.8"/>
      </g>
     </g>
     <g id="text_13">
      <text style="font: 7px 'Arial'; text-anchor: end" x="27.331719" y="28.227141" transform="rotate(-0 27.331719 28.227141)">1.0</text>
     </g>
    </g>
    <g id="text_14">
     <text style="font: 7px 'Arial'; text-anchor: middle" x="12.210469" y="123.942379" transform="rotate(-90 12.210469 123.942379)">TPR</text>
    </g>
   </g>
   <g id="line2d_13">
    <path d="M 34.331719 222.162851 
L 34.331719 219.953877 
L 34.661872 219.953877 
L 34.661872 215.22036 
L 34.992024 215.22036 
L 34.992024 213.326953 
L 35.322177 213.326953 
L 35.322177 211.433547 
L 35.65233 211.433547 
L 35.65233 192.026128 
L 35.982483 192.026128 
L 35.982483 191.394992 
L 36.312636 191.394992 
L 36.312636 188.554882 
L 36.642789 188.554882 
L 36.642789 186.977043 
L 36.972942 186.977043 
L 36.972942 186.03034 
L 37.303094 186.03034 
L 37.303094 178.456713 
L 37.633247 178.456713 
L 37.633247 177.825578 
L 37.9634 177.825578 
L 37.9634 176.878874 
L 38.623706 176.878874 
L 38.623706 175.458819 
L 38.953859 175.458819 
L 38.953859 171.672006 
L 39.284011 171.672006 
L 39.284011 167.411841 
L 39.614164 167.411841 
L 39.614164 164.256163 
L 39.944317 164.256163 
L 39.944317 163.467244 
L 40.27447 163.467244 
L 40.27447 158.418159 
L 40.604623 158.418159 
L 40.604623 156.998104 
L 40.934776 156.998104 
L 40.934776 156.524752 
L 41.264929 156.524752 
L 41.264929 154.789129 
L 41.595081 154.789129 
L 41.595081 148.793342 
L 41.925234 148.793342 
L 41.925234 147.53107 
L 42.255387 147.53107 
L 42.255387 146.899935 
L 42.58554 146.899935 
L 42.58554 145.47988 
L 42.915693 145.47988 
L 42.915693 145.322096 
L 43.245846 145.322096 
L 43.245846 139.79966 
L 43.575999 139.79966 
L 43.575999 132.541601 
L 43.906151 132.541601 
L 43.906151 131.27933 
L 44.236304 131.27933 
L 44.236304 130.174842 
L 44.566457 130.174842 
L 44.566457 130.017059 
L 44.89661 130.017059 
L 44.89661 129.385923 
L 45.226763 129.385923 
L 45.226763 127.6503 
L 45.556916 127.6503 
L 45.556916 126.388029 
L 45.887068 126.388029 
L 45.887068 125.756893 
L 46.217221 125.756893 
L 46.217221 125.441326 
L 46.547374 125.441326 
L 46.547374 124.336838 
L 46.877527 124.336838 
L 46.877527 122.601216 
L 47.20768 122.601216 
L 47.20768 121.97008 
L 47.867986 121.97008 
L 47.867986 121.181161 
L 48.198138 121.181161 
L 48.198138 120.865593 
L 48.528291 120.865593 
L 48.528291 119.287754 
L 48.858444 119.287754 
L 48.858444 117.394347 
L 49.188597 117.394347 
L 49.188597 114.869805 
L 49.51875 114.869805 
L 49.51875 114.396453 
L 50.179055 114.396453 
L 50.179055 114.080885 
L 50.509208 114.080885 
L 50.509208 113.134182 
L 50.839361 113.134182 
L 50.839361 112.187479 
L 51.169514 112.187479 
L 51.169514 109.662937 
L 51.499667 109.662937 
L 51.499667 102.247094 
L 51.82982 102.247094 
L 51.82982 100.827039 
L 52.159973 100.827039 
L 52.159973 100.669255 
L 52.490125 100.669255 
L 52.490125 100.511471 
L 52.820278 100.511471 
L 52.820278 99.091416 
L 53.150431 99.091416 
L 53.150431 98.618064 
L 53.480584 98.618064 
L 53.480584 97.829145 
L 53.810737 97.829145 
L 53.810737 97.513577 
L 54.14089 97.513577 
L 54.14089 96.882441 
L 54.471043 96.882441 
L 54.471043 96.724657 
L 54.801195 96.724657 
L 54.801195 96.566874 
L 55.131348 96.566874 
L 55.131348 95.777954 
L 55.461501 95.777954 
L 55.461501 95.146818 
L 55.791654 95.146818 
L 55.791654 94.989035 
L 56.121807 94.989035 
L 56.121807 92.464492 
L 56.45196 92.464492 
L 56.45196 91.833357 
L 56.782112 91.833357 
L 56.782112 90.255518 
L 57.112265 90.255518 
L 57.112265 90.097734 
L 57.442418 90.097734 
L 57.442418 89.624382 
L 57.772571 89.624382 
L 57.772571 89.151031 
L 58.102724 89.151031 
L 58.102724 88.835463 
L 58.432877 88.835463 
L 58.432877 88.204327 
L 58.76303 88.204327 
L 58.76303 87.415408 
L 59.753488 87.415408 
L 59.753488 86.153137 
L 60.083641 86.153137 
L 60.083641 85.837569 
L 60.413794 85.837569 
L 60.413794 85.522001 
L 60.743947 85.522001 
L 60.743947 84.101946 
L 61.074099 84.101946 
L 61.074099 83.786378 
L 61.404252 83.786378 
L 61.404252 83.155243 
L 62.064558 83.155243 
L 62.064558 82.524107 
L 62.724864 82.524107 
L 62.724864 82.366323 
L 63.055017 82.366323 
L 63.055017 82.208539 
L 63.385169 82.208539 
L 63.385169 80.157349 
L 64.045475 80.157349 
L 64.045475 79.999565 
L 64.375628 79.999565 
L 64.375628 79.526213 
L 65.366087 79.526213 
L 65.366087 77.948374 
L 65.696239 77.948374 
L 65.696239 76.054968 
L 66.026392 76.054968 
L 66.026392 75.266048 
L 66.356545 75.266048 
L 66.356545 74.95048 
L 67.016851 74.95048 
L 67.016851 74.792696 
L 68.007309 74.792696 
L 68.007309 74.161561 
L 68.337462 74.161561 
L 68.337462 73.372641 
L 68.667615 73.372641 
L 68.667615 72.89929 
L 68.997768 72.89929 
L 68.997768 72.268154 
L 69.327921 72.268154 
L 69.327921 71.952586 
L 69.658074 71.952586 
L 69.658074 71.005883 
L 69.988226 71.005883 
L 69.988226 70.532531 
L 70.318379 70.532531 
L 70.318379 69.901396 
L 71.638991 69.901396 
L 71.638991 69.585828 
L 71.969143 69.585828 
L 71.969143 69.112476 
L 72.299296 69.112476 
L 72.299296 68.481341 
L 72.629449 68.481341 
L 72.629449 67.692421 
L 72.959602 67.692421 
L 72.959602 66.587934 
L 73.289755 66.587934 
L 73.289755 65.799015 
L 73.619908 65.799015 
L 73.619908 65.483447 
L 73.950061 65.483447 
L 73.950061 65.325663 
L 74.280213 65.325663 
L 74.280213 65.167879 
L 74.940519 65.167879 
L 74.940519 65.010095 
L 75.600825 65.010095 
L 75.600825 63.905608 
L 75.930978 63.905608 
L 75.930978 63.432256 
L 76.591283 63.432256 
L 76.591283 62.485553 
L 77.251589 62.485553 
L 77.251589 62.169985 
L 77.581742 62.169985 
L 77.581742 60.434362 
L 78.5722 60.434362 
L 78.5722 60.118795 
L 78.902353 60.118795 
L 78.902353 59.961011 
L 79.232506 59.961011 
L 79.232506 59.803227 
L 79.562659 59.803227 
L 79.562659 59.014307 
L 80.88327 59.014307 
L 80.88327 58.69874 
L 81.213423 58.69874 
L 81.213423 57.278685 
L 82.203882 57.278685 
L 82.203882 56.963117 
L 83.19434 56.963117 
L 83.19434 56.647549 
L 83.524493 56.647549 
L 83.524493 56.174197 
L 84.514952 56.174197 
L 84.514952 55.227494 
L 85.175257 55.227494 
L 85.175257 54.596358 
L 85.50541 54.596358 
L 85.50541 53.965223 
L 85.835563 53.965223 
L 85.835563 53.649655 
L 86.826022 53.649655 
L 86.826022 53.176303 
L 87.156175 53.176303 
L 87.156175 52.702952 
L 87.486327 52.702952 
L 87.486327 52.545168 
L 88.146633 52.545168 
L 88.146633 52.387384 
L 88.476786 52.387384 
L 88.476786 52.2296 
L 90.457703 52.2296 
L 90.457703 52.071816 
L 91.448162 52.071816 
L 91.448162 51.914032 
L 92.108467 51.914032 
L 92.108467 51.440681 
L 92.43862 51.440681 
L 92.43862 51.125113 
L 93.759231 51.125113 
L 93.759231 50.809545 
L 94.419537 50.809545 
L 94.419537 50.651761 
L 95.079843 50.651761 
L 95.079843 50.493977 
L 96.730607 50.493977 
L 96.730607 50.336193 
L 97.721066 50.336193 
L 97.721066 50.178409 
L 98.051219 50.178409 
L 98.051219 50.020626 
L 98.381371 50.020626 
L 98.381371 49.862842 
L 98.711524 49.862842 
L 98.711524 49.547274 
L 99.041677 49.547274 
L 99.041677 49.38949 
L 99.701983 49.38949 
L 99.701983 48.758354 
L 101.022594 48.758354 
L 101.022594 48.285003 
L 101.6829 48.285003 
L 101.6829 47.811651 
L 102.013053 47.811651 
L 102.013053 47.653867 
L 104.324123 47.653867 
L 104.324123 47.496083 
L 104.654275 47.496083 
L 104.654275 47.022732 
L 105.644734 47.022732 
L 105.644734 46.864948 
L 105.974887 46.864948 
L 105.974887 46.707164 
L 106.30504 46.707164 
L 106.30504 46.54938 
L 106.635193 46.54938 
L 106.635193 46.391596 
L 106.965345 46.391596 
L 106.965345 46.233812 
L 107.625651 46.233812 
L 107.625651 45.918244 
L 107.955804 45.918244 
L 107.955804 45.76046 
L 109.276415 45.76046 
L 109.276415 45.602677 
L 112.908097 45.602677 
L 112.908097 45.444893 
L 113.568402 45.444893 
L 113.568402 45.129325 
L 116.209625 45.129325 
L 116.209625 44.971541 
L 116.539778 44.971541 
L 116.539778 44.813757 
L 116.869931 44.813757 
L 116.869931 44.655973 
L 117.860389 44.655973 
L 117.860389 44.498189 
L 119.511154 44.498189 
L 119.511154 43.867054 
L 120.501612 43.867054 
L 120.501612 43.70927 
L 120.831765 43.70927 
L 120.831765 43.235918 
L 121.822224 43.235918 
L 121.822224 42.92035 
L 123.803141 42.92035 
L 123.803141 42.604783 
L 126.444363 42.604783 
L 126.444363 42.289215 
L 127.104669 42.289215 
L 127.104669 41.973647 
L 129.085586 41.973647 
L 129.085586 41.658079 
L 129.415739 41.658079 
L 129.415739 41.342512 
L 130.076045 41.342512 
L 130.076045 41.184728 
L 130.406198 41.184728 
L 130.406198 41.026944 
L 130.736351 41.026944 
L 130.736351 40.711376 
L 131.396656 40.711376 
L 131.396656 40.553592 
L 131.726809 40.553592 
L 131.726809 40.395808 
L 132.717268 40.395808 
L 132.717268 40.08024 
L 133.04742 40.08024 
L 133.04742 39.922456 
L 135.35849 39.922456 
L 135.35849 39.764673 
L 138.329866 39.764673 
L 138.329866 39.606889 
L 138.660019 39.606889 
L 138.660019 39.291321 
L 138.990172 39.291321 
L 138.990172 38.817969 
L 141.301242 38.817969 
L 141.301242 38.502401 
L 142.952006 38.502401 
L 142.952006 38.344618 
L 143.942464 38.344618 
L 143.942464 38.186834 
L 144.60277 38.186834 
L 144.60277 38.02905 
L 145.923382 38.02905 
L 145.923382 37.871266 
L 147.243993 37.871266 
L 147.243993 37.555698 
L 149.22491 37.555698 
L 149.22491 37.397914 
L 149.555063 37.397914 
L 149.555063 36.766779 
L 150.875674 36.766779 
L 150.875674 36.608995 
L 151.205827 36.608995 
L 151.205827 36.451211 
L 151.866133 36.451211 
L 151.866133 35.662291 
L 152.526439 35.662291 
L 152.526439 35.504508 
L 152.856591 35.504508 
L 152.856591 35.346724 
L 153.516897 35.346724 
L 153.516897 35.18894 
L 154.837508 35.18894 
L 154.837508 34.873372 
L 156.15812 34.873372 
L 156.15812 34.715588 
L 160.450107 34.715588 
L 160.450107 34.557804 
L 160.78026 34.557804 
L 160.78026 34.242236 
L 161.440565 34.242236 
L 161.440565 33.926669 
L 162.100871 33.926669 
L 162.100871 33.768885 
L 162.431024 33.768885 
L 162.431024 33.611101 
L 163.09133 33.611101 
L 163.09133 33.295533 
L 163.751635 33.295533 
L 163.751635 33.137749 
L 164.081788 33.137749 
L 164.081788 32.979965 
L 165.732552 32.979965 
L 165.732552 32.822181 
L 168.373775 32.822181 
L 168.373775 32.664397 
L 169.034081 32.664397 
L 169.034081 32.506614 
L 169.694387 32.506614 
L 169.694387 32.34883 
L 170.684845 32.34883 
L 170.684845 32.033262 
L 172.665762 32.033262 
L 172.665762 31.717694 
L 173.326068 31.717694 
L 173.326068 31.55991 
L 173.986374 31.55991 
L 173.986374 31.244342 
L 174.646679 31.244342 
L 174.646679 31.086559 
L 175.306985 31.086559 
L 175.306985 30.770991 
L 175.637138 30.770991 
L 175.637138 30.613207 
L 178.278361 30.613207 
L 178.278361 30.297639 
L 181.249736 30.297639 
L 181.249736 30.139855 
L 181.910042 30.139855 
L 181.910042 29.982071 
L 183.890959 29.982071 
L 183.890959 29.824287 
L 184.881418 29.824287 
L 184.881418 29.50872 
L 185.541723 29.50872 
L 185.541723 29.035368 
L 190.163863 29.035368 
L 190.163863 28.877584 
L 190.494016 28.877584 
L 190.494016 28.7198 
L 193.795545 28.7198 
L 193.795545 28.562016 
L 194.786003 28.562016 
L 194.786003 28.404232 
L 197.097073 28.404232 
L 197.097073 28.246449 
L 202.709672 28.246449 
L 202.709672 28.088665 
L 203.039824 28.088665 
L 203.039824 27.930881 
L 203.70013 27.930881 
L 203.70013 27.773097 
L 205.020741 27.773097 
L 205.020741 27.615313 
L 207.331811 27.615313 
L 207.331811 27.457529 
L 207.992117 27.457529 
L 207.992117 27.299745 
L 209.973034 27.299745 
L 209.973034 27.141961 
L 211.953951 27.141961 
L 211.953951 26.984177 
L 212.614257 26.984177 
L 212.614257 26.826393 
L 213.934868 26.826393 
L 213.934868 26.66861 
L 222.18869 26.66861 
L 222.18869 26.510826 
L 223.179148 26.510826 
L 223.179148 26.353042 
L 224.169607 26.353042 
L 224.169607 26.195258 
L 225.820371 26.195258 
L 225.820371 26.037474 
L 226.810829 26.037474 
L 226.810829 25.721906 
L 230.772664 25.721906 
L 230.772664 25.721906 
" clip-path="url(#pf311602cc5)" style="fill: none; stroke: #ff0000; stroke-width: 1.5; stroke-linecap: square"/>
   </g>
   <g id="line2d_14">
    <defs>
     <path id="m6ca892c7f9" d="M 0 3 
C 0.795609 3 1.55874 2.683901 2.12132 2.12132 
C 2.683901 1.55874 3 0.795609 3 0 
C 3 -0.795609 2.683901 -1.55874 2.12132 -2.12132 
C 1.55874 -2.683901 0.795609 -3 0 -3 
C -0.795609 -3 -1.55874 -2.683901 -2.12132 -2.12132 
C -2.683901 -1.55874 -3 -0.795609 -3 0 
C -3 0.795609 -2.683901 1.55874 -2.12132 2.12132 
C -1.55874 2.683901 -0.795609 3 0 3 
z
" style="stroke: #000000"/>
    </defs>
    <g clip-path="url(#pf311602cc5)">
     <use xlink:href="#m6ca892c7f9" x="77.581742" y="60.434362" style="fill: #ff0000; stroke: #000000"/>
    </g>
   </g>
   <g id="line2d_15">
    <path d="M 34.331719 222.162851 
L 230.772664 25.721906 
" clip-path="url(#pf311602cc5)" style="fill: none; stroke: #00bfbf; stroke-width: 1.5; stroke-linecap: square"/>
   </g>
   <g id="patch_4">
    <path d="M 34.331719 222.162851 
L 34.331719 25.721906 
" style="fill: none; stroke: #000000; stroke-width: 0.8; stroke-linejoin: miter; stroke-linecap: square"/>
   </g>
   <g id="patch_5">
    <path d="M 230.772664 222.162851 
L 230.772664 25.721906 
" style="fill: none; stroke: #000000; stroke-width: 0.8; stroke-linejoin: miter; stroke-linecap: square"/>
   </g>
   <g id="patch_6">
    <path d="M 34.331719 222.162851 
L 230.772664 222.162851 
" style="fill: none; stroke: #000000; stroke-width: 0.8; stroke-linejoin: miter; stroke-linecap: square"/>
   </g>
   <g id="patch_7">
    <path d="M 34.331719 25.721906 
L 230.772664 25.721906 
" style="fill: none; stroke: #000000; stroke-width: 0.8; stroke-linejoin: miter; stroke-linecap: square"/>
   </g>
   <g id="text_15">
    <text style="font: 7px 'Arial'" transform="translate(117.439847 12.210469)">AP model</text>
    <text style="font: 7px 'Arial'" transform="translate(59.423519 19.721906)">Receiver Operating Characteristic (ROC) curve</text>
   </g>
   <g id="legend_1">
    <g id="patch_8">
     <path d="M 47.553597 261.0336 
L 217.550785 261.0336 
Q 218.950785 261.0336 218.950785 259.6336 
L 218.950785 250.264538 
Q 218.950785 248.864538 217.550785 248.864538 
L 47.553597 248.864538 
Q 46.153597 248.864538 46.153597 250.264538 
L 46.153597 259.6336 
Q 46.153597 261.0336 47.553597 261.0336 
z
" style="fill: #ffffff; opacity: 0.8; stroke: #cccccc; stroke-linejoin: miter"/>
    </g>
    <g id="line2d_16">
     <path d="M 48.953597 254.310319 
L 55.953597 254.310319 
L 62.953597 254.310319 
" style="fill: none; stroke: #ff0000; stroke-width: 1.5; stroke-linecap: square"/>
    </g>
    <g id="text_16">
     <text style="font: 7px 'Arial'; text-anchor: start" x="68.553597" y="256.760319" transform="rotate(-0 68.553597 256.760319)">model performance</text>
    </g>
    <g id="line2d_17">
     <path d="M 142.855316 254.310319 
L 149.855316 254.310319 
L 156.855316 254.310319 
" style="fill: none; stroke: #00bfbf; stroke-width: 1.5; stroke-linecap: square"/>
    </g>
    <g id="text_17">
     <text style="font: 7px 'Arial'; text-anchor: start" x="162.455316" y="256.760319" transform="rotate(-0 162.455316 256.760319)">random guessing</text>
    </g>
   </g>
  </g>
 </g>
 <defs>
  <clipPath id="pf311602cc5">
   <rect x="34.331719" y="25.721906" width="196.440945" height="196.440945"/>
  </clipPath>
 </defs>
</svg>
