<?xml version="1.0" encoding="utf-8" standalone="no"?>
<!DOCTYPE svg PUBLIC "-//W3C//DTD SVG 1.1//EN"
  "http://www.w3.org/Graphics/SVG/1.1/DTD/svg11.dtd">
<svg xmlns:xlink="http://www.w3.org/1999/xlink" width="238.114192pt" height="462.97182pt" viewBox="0 0 238.114192 462.97182" xmlns="http://www.w3.org/2000/svg" version="1.1">
 <metadata>
  <rdf:RDF xmlns:dc="http://purl.org/dc/elements/1.1/" xmlns:cc="http://creativecommons.org/ns#" xmlns:rdf="http://www.w3.org/1999/02/22-rdf-syntax-ns#">
   <cc:Work>
    <dc:type rdf:resource="http://purl.org/dc/dcmitype/StillImage"/>
    <dc:date>2024-09-25T14:38:18.735042</dc:date>
    <dc:format>image/svg+xml</dc:format>
    <dc:creator>
     <cc:Agent>
      <dc:title>Matplotlib v3.7.0, https://matplotlib.org/</dc:title>
     </cc:Agent>
    </dc:creator>
   </cc:Work>
  </rdf:RDF>
 </metadata>
 <defs>
  <style type="text/css">*{stroke-linejoin: round; stroke-linecap: butt}</style>
 </defs>
 <g id="figure_1">
  <g id="patch_1">
   <path d="M 0 462.97182 
L 238.114192 462.97182 
L 238.114192 0 
L 0 0 
z
" style="fill: #ffffff"/>
  </g>
  <g id="axes_1">
   <g id="patch_2">
    <path d="M 29.722656 412.784729 
L 227.439192 412.784729 
L 227.439192 8.989453 
L 29.722656 8.989453 
z
" style="fill: #ffffff"/>
   </g>
   <g id="patch_3">
    <path d="M 29.722656 8.989453 
L 35.586073 13.422773 
L 34.410383 16.414431 
L 73.315402 80.185379 
L 73.191645 80.500291 
L 34.286626 16.729342 
L 33.110936 19.721001 
z
" clip-path="url(#p03393844cf)" style="fill: #1f77b4; stroke: #000000; stroke-linejoin: miter"/>
   </g>
   <g id="matplotlib.axis_1">
    <g id="xtick_1">
     <g id="line2d_1">
      <defs>
       <path id="madd24ba07d" d="M 0 0 
L 0 3.5 
" style="stroke: #000000; stroke-width: 0.8"/>
      </defs>
      <g>
       <use xlink:href="#madd24ba07d" x="29.722656" y="412.784729" style="stroke: #000000; stroke-width: 0.8"/>
      </g>
     </g>
     <g id="text_1">
      <text style="font: 5px 'Arial'; text-anchor: middle" x="29.722656" y="423.363635" transform="rotate(-0 29.722656 423.363635)">0.0</text>
     </g>
    </g>
    <g id="xtick_2">
     <g id="line2d_2">
      <g>
       <use xlink:href="#madd24ba07d" x="69.265963" y="412.784729" style="stroke: #000000; stroke-width: 0.8"/>
      </g>
     </g>
     <g id="text_2">
      <text style="font: 5px 'Arial'; text-anchor: middle" x="69.265963" y="423.363635" transform="rotate(-0 69.265963 423.363635)">0.2</text>
     </g>
    </g>
    <g id="xtick_3">
     <g id="line2d_3">
      <g>
       <use xlink:href="#madd24ba07d" x="108.80927" y="412.784729" style="stroke: #000000; stroke-width: 0.8"/>
      </g>
     </g>
     <g id="text_3">
      <text style="font: 5px 'Arial'; text-anchor: middle" x="108.80927" y="423.363635" transform="rotate(-0 108.80927 423.363635)">0.4</text>
     </g>
    </g>
    <g id="xtick_4">
     <g id="line2d_4">
      <g>
       <use xlink:href="#madd24ba07d" x="148.352578" y="412.784729" style="stroke: #000000; stroke-width: 0.8"/>
      </g>
     </g>
     <g id="text_4">
      <text style="font: 5px 'Arial'; text-anchor: middle" x="148.352578" y="423.363635" transform="rotate(-0 148.352578 423.363635)">0.6</text>
     </g>
    </g>
    <g id="xtick_5">
     <g id="line2d_5">
      <g>
       <use xlink:href="#madd24ba07d" x="187.895885" y="412.784729" style="stroke: #000000; stroke-width: 0.8"/>
      </g>
     </g>
     <g id="text_5">
      <text style="font: 5px 'Arial'; text-anchor: middle" x="187.895885" y="423.363635" transform="rotate(-0 187.895885 423.363635)">0.8</text>
     </g>
    </g>
    <g id="xtick_6">
     <g id="line2d_6">
      <g>
       <use xlink:href="#madd24ba07d" x="227.439192" y="412.784729" style="stroke: #000000; stroke-width: 0.8"/>
      </g>
     </g>
     <g id="text_6">
      <text style="font: 5px 'Arial'; text-anchor: middle" x="227.439192" y="423.363635" transform="rotate(-0 227.439192 423.363635)">1.0</text>
     </g>
    </g>
    <g id="text_7">
     <text style="font: 5px 'Arial'; text-anchor: middle" x="128.580924" y="431.936291" transform="rotate(-0 128.580924 431.936291)">FPR</text>
    </g>
   </g>
   <g id="matplotlib.axis_2">
    <g id="ytick_1">
     <g id="line2d_7">
      <defs>
       <path id="m05e3367d7b" d="M 0 0 
L -3.5 0 
" style="stroke: #000000; stroke-width: 0.8"/>
      </defs>
      <g>
       <use xlink:href="#m05e3367d7b" x="29.722656" y="412.784729" style="stroke: #000000; stroke-width: 0.8"/>
      </g>
     </g>
     <g id="text_8">
      <text style="font: 5px 'Arial'; text-anchor: end" x="22.722656" y="414.574182" transform="rotate(-0 22.722656 414.574182)">0.0</text>
     </g>
    </g>
    <g id="ytick_2">
     <g id="line2d_8">
      <g>
       <use xlink:href="#m05e3367d7b" x="29.722656" y="332.025674" style="stroke: #000000; stroke-width: 0.8"/>
      </g>
     </g>
     <g id="text_9">
      <text style="font: 5px 'Arial'; text-anchor: end" x="22.722656" y="333.815127" transform="rotate(-0 22.722656 333.815127)">0.2</text>
     </g>
    </g>
    <g id="ytick_3">
     <g id="line2d_9">
      <g>
       <use xlink:href="#m05e3367d7b" x="29.722656" y="251.266618" style="stroke: #000000; stroke-width: 0.8"/>
      </g>
     </g>
     <g id="text_10">
      <text style="font: 5px 'Arial'; text-anchor: end" x="22.722656" y="253.056072" transform="rotate(-0 22.722656 253.056072)">0.4</text>
     </g>
    </g>
    <g id="ytick_4">
     <g id="line2d_10">
      <g>
       <use xlink:href="#m05e3367d7b" x="29.722656" y="170.507563" style="stroke: #000000; stroke-width: 0.8"/>
      </g>
     </g>
     <g id="text_11">
      <text style="font: 5px 'Arial'; text-anchor: end" x="22.722656" y="172.297016" transform="rotate(-0 22.722656 172.297016)">0.6</text>
     </g>
    </g>
    <g id="ytick_5">
     <g id="line2d_11">
      <g>
       <use xlink:href="#m05e3367d7b" x="29.722656" y="89.748508" style="stroke: #000000; stroke-width: 0.8"/>
      </g>
     </g>
     <g id="text_12">
      <text style="font: 5px 'Arial'; text-anchor: end" x="22.722656" y="91.537961" transform="rotate(-0 22.722656 91.537961)">0.8</text>
     </g>
    </g>
    <g id="ytick_6">
     <g id="line2d_12">
      <g>
       <use xlink:href="#m05e3367d7b" x="29.722656" y="8.989453" style="stroke: #000000; stroke-width: 0.8"/>
      </g>
     </g>
     <g id="text_13">
      <text style="font: 5px 'Arial'; text-anchor: end" x="22.722656" y="10.778906" transform="rotate(-0 22.722656 10.778906)">1.0</text>
     </g>
    </g>
    <g id="text_14">
     <text style="font: 5px 'Arial'; text-anchor: middle" x="10.778906" y="210.887091" transform="rotate(-90 10.778906 210.887091)">TPR</text>
    </g>
   </g>
   <g id="line2d_13">
    <path d="M 29.722656 412.784729 
L 29.722656 408.244059 
L 30.054953 408.244059 
L 30.054953 398.514052 
L 30.38725 398.514052 
L 30.38725 394.62205 
L 30.719546 394.62205 
L 30.719546 390.730047 
L 31.051843 390.730047 
L 31.051843 350.83702 
L 31.38414 350.83702 
L 31.38414 349.539686 
L 31.716436 349.539686 
L 31.716436 343.701682 
L 32.048733 343.701682 
L 32.048733 340.458346 
L 32.38103 340.458346 
L 32.38103 338.512345 
L 32.713327 338.512345 
L 32.713327 322.944334 
L 33.045623 322.944334 
L 33.045623 321.647 
L 33.37792 321.647 
L 33.37792 319.700999 
L 34.042513 319.700999 
L 34.042513 316.781997 
L 34.37481 316.781997 
L 34.37481 308.997991 
L 34.707107 308.997991 
L 34.707107 300.240985 
L 35.039403 300.240985 
L 35.039403 293.754314 
L 35.3717 293.754314 
L 35.3717 292.132646 
L 35.703997 292.132646 
L 35.703997 281.753973 
L 36.036294 281.753973 
L 36.036294 278.834971 
L 36.36859 278.834971 
L 36.36859 277.86197 
L 36.700887 277.86197 
L 36.700887 274.294301 
L 37.033184 274.294301 
L 37.033184 261.969626 
L 37.36548 261.969626 
L 37.36548 259.374957 
L 37.697777 259.374957 
L 37.697777 258.077623 
L 38.030074 258.077623 
L 38.030074 255.158621 
L 38.36237 255.158621 
L 38.36237 254.834288 
L 38.694667 254.834288 
L 38.694667 243.482613 
L 39.026964 243.482613 
L 39.026964 228.56327 
L 39.35926 228.56327 
L 39.35926 225.968601 
L 39.691557 225.968601 
L 39.691557 223.698266 
L 40.023854 223.698266 
L 40.023854 223.373933 
L 40.356151 223.373933 
L 40.356151 222.076599 
L 40.688447 222.076599 
L 40.688447 218.508929 
L 41.020744 218.508929 
L 41.020744 215.914261 
L 41.353041 215.914261 
L 41.353041 214.616927 
L 41.685337 214.616927 
L 41.685337 213.96826 
L 42.017634 213.96826 
L 42.017634 211.697925 
L 42.349931 211.697925 
L 42.349931 208.130256 
L 42.682227 208.130256 
L 42.682227 206.832921 
L 43.346821 206.832921 
L 43.346821 205.211254 
L 43.679118 205.211254 
L 43.679118 204.562587 
L 44.011414 204.562587 
L 44.011414 201.319251 
L 44.343711 201.319251 
L 44.343711 197.427248 
L 44.676008 197.427248 
L 44.676008 192.237912 
L 45.008304 192.237912 
L 45.008304 191.264911 
L 45.672898 191.264911 
L 45.672898 190.616244 
L 46.005194 190.616244 
L 46.005194 188.670242 
L 46.337491 188.670242 
L 46.337491 186.724241 
L 46.669788 186.724241 
L 46.669788 181.534904 
L 47.002085 181.534904 
L 47.002085 166.291227 
L 47.334381 166.291227 
L 47.334381 163.372225 
L 47.666678 163.372225 
L 47.666678 163.047892 
L 47.998975 163.047892 
L 47.998975 162.723558 
L 48.331271 162.723558 
L 48.331271 159.804556 
L 48.663568 159.804556 
L 48.663568 158.831555 
L 48.995865 158.831555 
L 48.995865 157.209888 
L 49.328161 157.209888 
L 49.328161 156.561221 
L 49.660458 156.561221 
L 49.660458 155.263886 
L 49.992755 155.263886 
L 49.992755 154.939553 
L 50.325052 154.939553 
L 50.325052 154.615219 
L 50.657348 154.615219 
L 50.657348 152.993551 
L 50.989645 152.993551 
L 50.989645 151.696217 
L 51.321942 151.696217 
L 51.321942 151.371884 
L 51.654238 151.371884 
L 51.654238 146.182547 
L 51.986535 146.182547 
L 51.986535 144.885213 
L 52.318832 144.885213 
L 52.318832 141.641877 
L 52.651128 141.641877 
L 52.651128 141.317543 
L 52.983425 141.317543 
L 52.983425 140.344543 
L 53.315722 140.344543 
L 53.315722 139.371542 
L 53.648019 139.371542 
L 53.648019 138.722875 
L 53.980315 138.722875 
L 53.980315 137.425541 
L 54.312612 137.425541 
L 54.312612 135.803873 
L 55.309502 135.803873 
L 55.309502 133.209205 
L 55.641799 133.209205 
L 55.641799 132.560537 
L 55.974095 132.560537 
L 55.974095 131.91187 
L 56.306392 131.91187 
L 56.306392 128.992868 
L 56.638689 128.992868 
L 56.638689 128.344201 
L 56.970986 128.344201 
L 56.970986 127.046867 
L 57.635579 127.046867 
L 57.635579 125.749533 
L 58.300172 125.749533 
L 58.300172 125.425199 
L 58.632469 125.425199 
L 58.632469 125.100866 
L 58.964766 125.100866 
L 58.964766 120.884529 
L 59.629359 120.884529 
L 59.629359 120.560196 
L 59.961656 120.560196 
L 59.961656 119.587195 
L 60.958546 119.587195 
L 60.958546 116.34386 
L 61.290843 116.34386 
L 61.290843 112.451857 
L 61.623139 112.451857 
L 61.623139 110.830189 
L 61.955436 110.830189 
L 61.955436 110.181522 
L 62.620029 110.181522 
L 62.620029 109.857189 
L 63.616919 109.857189 
L 63.616919 108.559854 
L 63.949216 108.559854 
L 63.949216 106.938187 
L 64.281513 106.938187 
L 64.281513 105.965186 
L 64.61381 105.965186 
L 64.61381 104.667852 
L 64.946106 104.667852 
L 64.946106 104.019185 
L 65.278403 104.019185 
L 65.278403 102.073183 
L 65.6107 102.073183 
L 65.6107 101.100183 
L 65.942996 101.100183 
L 65.942996 99.802848 
L 67.272183 99.802848 
L 67.272183 99.154181 
L 67.60448 99.154181 
L 67.60448 98.181181 
L 67.936777 98.181181 
L 67.936777 96.883846 
L 68.269073 96.883846 
L 68.269073 95.262179 
L 68.60137 95.262179 
L 68.60137 92.991844 
L 68.933667 92.991844 
L 68.933667 91.370176 
L 69.265963 91.370176 
L 69.265963 90.721509 
L 69.59826 90.721509 
L 69.59826 90.397175 
L 69.930557 90.397175 
L 69.930557 90.072842 
L 70.59515 90.072842 
L 70.59515 89.748508 
L 71.259744 89.748508 
L 71.259744 87.478173 
L 71.59204 87.478173 
L 71.59204 86.505173 
L 72.256634 86.505173 
L 72.256634 84.559171 
L 72.921227 84.559171 
L 72.921227 83.910504 
L 73.253524 83.910504 
L 73.253524 80.342835 
L 74.250414 80.342835 
L 74.250414 79.694168 
L 74.582711 79.694168 
L 74.582711 79.369834 
L 74.915007 79.369834 
L 74.915007 79.045501 
L 75.247304 79.045501 
L 75.247304 77.423833 
L 76.576491 77.423833 
L 76.576491 76.775166 
L 76.908787 76.775166 
L 76.908787 73.856164 
L 77.905677 73.856164 
L 77.905677 73.207497 
L 78.902568 73.207497 
L 78.902568 72.55883 
L 79.234864 72.55883 
L 79.234864 71.585829 
L 80.231754 71.585829 
L 80.231754 69.639828 
L 80.896348 69.639828 
L 80.896348 68.342494 
L 81.228644 68.342494 
L 81.228644 67.045159 
L 81.560941 67.045159 
L 81.560941 66.396492 
L 82.557831 66.396492 
L 82.557831 65.423492 
L 82.890128 65.423492 
L 82.890128 64.450491 
L 83.222425 64.450491 
L 83.222425 64.126157 
L 83.887018 64.126157 
L 83.887018 63.801824 
L 84.219315 63.801824 
L 84.219315 63.47749 
L 86.213095 63.47749 
L 86.213095 63.153157 
L 87.209985 63.153157 
L 87.209985 62.828823 
L 87.874578 62.828823 
L 87.874578 61.855823 
L 88.206875 61.855823 
L 88.206875 61.207155 
L 89.536062 61.207155 
L 89.536062 60.558488 
L 90.200655 60.558488 
L 90.200655 60.234155 
L 90.865249 60.234155 
L 90.865249 59.909821 
L 92.526732 59.909821 
L 92.526732 59.585488 
L 93.523622 59.585488 
L 93.523622 59.261154 
L 93.855919 59.261154 
L 93.855919 58.936821 
L 94.188216 58.936821 
L 94.188216 58.612487 
L 94.520512 58.612487 
L 94.520512 57.96382 
L 94.852809 57.96382 
L 94.852809 57.639486 
L 95.517402 57.639486 
L 95.517402 56.342152 
L 96.846589 56.342152 
L 96.846589 55.369151 
L 97.511183 55.369151 
L 97.511183 54.396151 
L 97.843479 54.396151 
L 97.843479 54.071817 
L 100.169556 54.071817 
L 100.169556 53.747484 
L 100.501853 53.747484 
L 100.501853 52.774483 
L 101.498743 52.774483 
L 101.498743 52.450149 
L 101.83104 52.450149 
L 101.83104 52.125816 
L 102.163336 52.125816 
L 102.163336 51.801482 
L 102.495633 51.801482 
L 102.495633 51.477149 
L 102.82793 51.477149 
L 102.82793 51.152815 
L 103.492523 51.152815 
L 103.492523 50.504148 
L 103.82482 50.504148 
L 103.82482 50.179815 
L 105.154007 50.179815 
L 105.154007 49.855481 
L 108.80927 49.855481 
L 108.80927 49.531147 
L 109.473864 49.531147 
L 109.473864 48.88248 
L 112.132237 48.88248 
L 112.132237 48.558147 
L 112.464534 48.558147 
L 112.464534 48.233813 
L 112.796831 48.233813 
L 112.796831 47.90948 
L 113.793721 47.90948 
L 113.793721 47.585146 
L 115.455204 47.585146 
L 115.455204 46.287812 
L 116.452094 46.287812 
L 116.452094 45.963478 
L 116.784391 45.963478 
L 116.784391 44.990478 
L 117.781281 44.990478 
L 117.781281 44.341811 
L 119.775061 44.341811 
L 119.775061 43.693143 
L 122.433435 43.693143 
L 122.433435 43.044476 
L 123.098028 43.044476 
L 123.098028 42.395809 
L 125.091809 42.395809 
L 125.091809 41.747142 
L 125.424105 41.747142 
L 125.424105 41.098475 
L 126.088699 41.098475 
L 126.088699 40.774141 
L 126.420995 40.774141 
L 126.420995 40.449808 
L 126.753292 40.449808 
L 126.753292 39.801141 
L 127.417886 39.801141 
L 127.417886 39.476807 
L 127.750182 39.476807 
L 127.750182 39.152474 
L 128.747072 39.152474 
L 128.747072 38.503807 
L 129.079369 38.503807 
L 129.079369 38.179473 
L 131.405446 38.179473 
L 131.405446 37.855139 
L 134.396116 37.855139 
L 134.396116 37.530806 
L 134.728413 37.530806 
L 134.728413 36.882139 
L 135.06071 36.882139 
L 135.06071 35.909138 
L 137.386786 35.909138 
L 137.386786 35.260471 
L 139.04827 35.260471 
L 139.04827 34.936138 
L 140.04516 34.936138 
L 140.04516 34.611804 
L 140.709753 34.611804 
L 140.709753 34.28747 
L 142.03894 34.28747 
L 142.03894 33.963137 
L 143.368127 33.963137 
L 143.368127 33.31447 
L 145.361907 33.31447 
L 145.361907 32.990136 
L 145.694204 32.990136 
L 145.694204 31.692802 
L 147.023391 31.692802 
L 147.023391 31.368468 
L 147.355687 31.368468 
L 147.355687 31.044135 
L 148.020281 31.044135 
L 148.020281 29.422467 
L 148.684874 29.422467 
L 148.684874 29.098134 
L 149.017171 29.098134 
L 149.017171 28.7738 
L 149.681764 28.7738 
L 149.681764 28.449466 
L 151.010951 28.449466 
L 151.010951 27.800799 
L 152.340138 27.800799 
L 152.340138 27.476466 
L 156.659995 27.476466 
L 156.659995 27.152132 
L 156.992292 27.152132 
L 156.992292 26.503465 
L 157.656885 26.503465 
L 157.656885 25.854798 
L 158.321478 25.854798 
L 158.321478 25.530464 
L 158.653775 25.530464 
L 158.653775 25.206131 
L 159.318369 25.206131 
L 159.318369 24.557464 
L 159.982962 24.557464 
L 159.982962 24.23313 
L 160.315259 24.23313 
L 160.315259 23.908797 
L 161.976742 23.908797 
L 161.976742 23.584463 
L 164.635116 23.584463 
L 164.635116 23.26013 
L 165.299709 23.26013 
L 165.299709 22.935796 
L 165.964303 22.935796 
L 165.964303 22.611462 
L 166.961193 22.611462 
L 166.961193 21.962795 
L 168.954973 21.962795 
L 168.954973 21.314128 
L 169.619566 21.314128 
L 169.619566 20.989795 
L 170.28416 20.989795 
L 170.28416 20.341128 
L 170.948753 20.341128 
L 170.948753 20.016794 
L 171.613346 20.016794 
L 171.613346 19.368127 
L 171.945643 19.368127 
L 171.945643 19.043793 
L 174.604017 19.043793 
L 174.604017 18.395126 
L 177.594687 18.395126 
L 177.594687 18.070793 
L 178.25928 18.070793 
L 178.25928 17.746459 
L 180.253061 17.746459 
L 180.253061 17.422126 
L 181.249951 17.422126 
L 181.249951 16.773458 
L 181.914544 16.773458 
L 181.914544 15.800458 
L 186.566698 15.800458 
L 186.566698 15.476124 
L 186.898995 15.476124 
L 186.898995 15.151791 
L 190.221961 15.151791 
L 190.221961 14.827457 
L 191.218852 14.827457 
L 191.218852 14.503124 
L 193.544928 14.503124 
L 193.544928 14.17879 
L 199.193972 14.17879 
L 199.193972 13.854456 
L 199.526269 13.854456 
L 199.526269 13.530123 
L 200.190862 13.530123 
L 200.190862 13.205789 
L 201.520049 13.205789 
L 201.520049 12.881456 
L 203.846126 12.881456 
L 203.846126 12.557122 
L 204.51072 12.557122 
L 204.51072 12.232789 
L 206.5045 12.232789 
L 206.5045 11.908455 
L 208.49828 11.908455 
L 208.49828 11.584122 
L 209.162873 11.584122 
L 209.162873 11.259788 
L 210.49206 11.259788 
L 210.49206 10.935454 
L 218.799478 10.935454 
L 218.799478 10.611121 
L 219.796368 10.611121 
L 219.796368 10.286787 
L 220.793258 10.286787 
L 220.793258 9.962454 
L 222.454741 9.962454 
L 222.454741 9.63812 
L 223.451631 9.63812 
L 223.451631 8.989453 
L 227.439192 8.989453 
L 227.439192 8.989453 
" clip-path="url(#p03393844cf)" style="fill: none; stroke: #ff0000; stroke-width: 1.5; stroke-linecap: square"/>
   </g>
   <g id="line2d_14">
    <defs>
     <path id="m9d465c894d" d="M 0 3 
C 0.795609 3 1.55874 2.683901 2.12132 2.12132 
C 2.683901 1.55874 3 0.795609 3 0 
C 3 -0.795609 2.683901 -1.55874 2.12132 -2.12132 
C 1.55874 -2.683901 0.795609 -3 0 -3 
C -0.795609 -3 -1.55874 -2.683901 -2.12132 -2.12132 
C -2.683901 -1.55874 -3 -0.795609 -3 0 
C -3 0.795609 -2.683901 1.55874 -2.12132 2.12132 
C -1.55874 2.683901 -0.795609 3 0 3 
z
" style="stroke: #000000"/>
    </defs>
    <g clip-path="url(#p03393844cf)">
     <use xlink:href="#m9d465c894d" x="73.253524" y="80.342835" style="fill: #ff0000; stroke: #000000"/>
    </g>
   </g>
   <g id="line2d_15">
    <path d="M 29.722656 412.784729 
L 227.439192 8.989453 
" clip-path="url(#p03393844cf)" style="fill: none; stroke: #00bfbf; stroke-width: 1.5; stroke-linecap: square"/>
   </g>
   <g id="patch_4">
    <path d="M 29.722656 412.784729 
L 29.722656 8.989453 
" style="fill: none; stroke: #000000; stroke-width: 0.8; stroke-linejoin: miter; stroke-linecap: square"/>
   </g>
   <g id="patch_5">
    <path d="M 227.439192 412.784729 
L 227.439192 8.989453 
" style="fill: none; stroke: #000000; stroke-width: 0.8; stroke-linejoin: miter; stroke-linecap: square"/>
   </g>
   <g id="patch_6">
    <path d="M 29.722656 412.784729 
L 227.439192 412.784729 
" style="fill: none; stroke: #000000; stroke-width: 0.8; stroke-linejoin: miter; stroke-linecap: square"/>
   </g>
   <g id="patch_7">
    <path d="M 29.722656 8.989453 
L 227.439192 8.989453 
" style="fill: none; stroke: #000000; stroke-width: 0.8; stroke-linejoin: miter; stroke-linecap: square"/>
   </g>
   <g id="legend_1">
    <g id="patch_8">
     <path d="M 67.867643 455.77182 
L 189.294205 455.77182 
Q 190.294205 455.77182 190.294205 454.77182 
L 190.294205 448.079632 
Q 190.294205 447.079632 189.294205 447.079632 
L 67.867643 447.079632 
Q 66.867643 447.079632 66.867643 448.079632 
L 66.867643 454.77182 
Q 66.867643 455.77182 67.867643 455.77182 
z
" style="fill: #ffffff; opacity: 0.8; stroke: #cccccc; stroke-linejoin: miter"/>
    </g>
    <g id="line2d_16">
     <path d="M 68.867643 450.969476 
L 73.867643 450.969476 
L 78.867643 450.969476 
" style="fill: none; stroke: #ff0000; stroke-width: 1.5; stroke-linecap: square"/>
    </g>
    <g id="text_15">
     <text style="font: 5px 'Arial'; text-anchor: start" x="82.867643" y="452.719476" transform="rotate(-0 82.867643 452.719476)">model performance</text>
    </g>
    <g id="line2d_17">
     <path d="M 135.940299 450.969476 
L 140.940299 450.969476 
L 145.940299 450.969476 
" style="fill: none; stroke: #00bfbf; stroke-width: 1.5; stroke-linecap: square"/>
    </g>
    <g id="text_16">
     <text style="font: 5px 'Arial'; text-anchor: start" x="149.940299" y="452.719476" transform="rotate(-0 149.940299 452.719476)">random guessing</text>
    </g>
   </g>
  </g>
 </g>
 <defs>
  <clipPath id="p03393844cf">
   <rect x="29.722656" y="8.989453" width="197.716535" height="403.795276"/>
  </clipPath>
 </defs>
</svg>
