<?xml version="1.0" encoding="utf-8" standalone="no"?>
<!DOCTYPE svg PUBLIC "-//W3C//DTD SVG 1.1//EN"
  "http://www.w3.org/Graphics/SVG/1.1/DTD/svg11.dtd">
<svg xmlns:xlink="http://www.w3.org/1999/xlink" width="238.114192pt" height="462.97182pt" viewBox="0 0 238.114192 462.97182" xmlns="http://www.w3.org/2000/svg" version="1.1">
 <metadata>
  <rdf:RDF xmlns:dc="http://purl.org/dc/elements/1.1/" xmlns:cc="http://creativecommons.org/ns#" xmlns:rdf="http://www.w3.org/1999/02/22-rdf-syntax-ns#">
   <cc:Work>
    <dc:type rdf:resource="http://purl.org/dc/dcmitype/StillImage"/>
    <dc:date>2024-09-25T14:38:17.527702</dc:date>
    <dc:format>image/svg+xml</dc:format>
    <dc:creator>
     <cc:Agent>
      <dc:title>Matplotlib v3.7.0, https://matplotlib.org/</dc:title>
     </cc:Agent>
    </dc:creator>
   </cc:Work>
  </rdf:RDF>
 </metadata>
 <defs>
  <style type="text/css">*{stroke-linejoin: round; stroke-linecap: butt}</style>
 </defs>
 <g id="figure_1">
  <g id="patch_1">
   <path d="M 0 462.97182 
L 238.114192 462.97182 
L 238.114192 0 
L 0 0 
z
" style="fill: #ffffff"/>
  </g>
  <g id="axes_1">
   <g id="patch_2">
    <path d="M 29.722656 412.784729 
L 227.439192 412.784729 
L 227.439192 8.989453 
L 29.722656 8.989453 
z
" style="fill: #ffffff"/>
   </g>
   <g id="patch_3">
    <path d="M 29.722656 8.989453 
L 35.303695 14.745619 
L 33.97023 17.447248 
L 69.336146 90.254984 
L 69.195781 90.539366 
L 33.829865 17.73163 
L 32.496399 20.433259 
z
" clip-path="url(#p149da7c67e)" style="fill: #1f77b4; stroke: #000000; stroke-linejoin: miter"/>
   </g>
   <g id="matplotlib.axis_1">
    <g id="xtick_1">
     <g id="line2d_1">
      <defs>
       <path id="m6e0b6a62fe" d="M 0 0 
L 0 3.5 
" style="stroke: #000000; stroke-width: 0.8"/>
      </defs>
      <g>
       <use xlink:href="#m6e0b6a62fe" x="29.722656" y="412.784729" style="stroke: #000000; stroke-width: 0.8"/>
      </g>
     </g>
     <g id="text_1">
      <text style="font: 5px 'Arial'; text-anchor: middle" x="29.722656" y="423.363635" transform="rotate(-0 29.722656 423.363635)">0.0</text>
     </g>
    </g>
    <g id="xtick_2">
     <g id="line2d_2">
      <g>
       <use xlink:href="#m6e0b6a62fe" x="69.265963" y="412.784729" style="stroke: #000000; stroke-width: 0.8"/>
      </g>
     </g>
     <g id="text_2">
      <text style="font: 5px 'Arial'; text-anchor: middle" x="69.265963" y="423.363635" transform="rotate(-0 69.265963 423.363635)">0.2</text>
     </g>
    </g>
    <g id="xtick_3">
     <g id="line2d_3">
      <g>
       <use xlink:href="#m6e0b6a62fe" x="108.80927" y="412.784729" style="stroke: #000000; stroke-width: 0.8"/>
      </g>
     </g>
     <g id="text_3">
      <text style="font: 5px 'Arial'; text-anchor: middle" x="108.80927" y="423.363635" transform="rotate(-0 108.80927 423.363635)">0.4</text>
     </g>
    </g>
    <g id="xtick_4">
     <g id="line2d_4">
      <g>
       <use xlink:href="#m6e0b6a62fe" x="148.352578" y="412.784729" style="stroke: #000000; stroke-width: 0.8"/>
      </g>
     </g>
     <g id="text_4">
      <text style="font: 5px 'Arial'; text-anchor: middle" x="148.352578" y="423.363635" transform="rotate(-0 148.352578 423.363635)">0.6</text>
     </g>
    </g>
    <g id="xtick_5">
     <g id="line2d_5">
      <g>
       <use xlink:href="#m6e0b6a62fe" x="187.895885" y="412.784729" style="stroke: #000000; stroke-width: 0.8"/>
      </g>
     </g>
     <g id="text_5">
      <text style="font: 5px 'Arial'; text-anchor: middle" x="187.895885" y="423.363635" transform="rotate(-0 187.895885 423.363635)">0.8</text>
     </g>
    </g>
    <g id="xtick_6">
     <g id="line2d_6">
      <g>
       <use xlink:href="#m6e0b6a62fe" x="227.439192" y="412.784729" style="stroke: #000000; stroke-width: 0.8"/>
      </g>
     </g>
     <g id="text_6">
      <text style="font: 5px 'Arial'; text-anchor: middle" x="227.439192" y="423.363635" transform="rotate(-0 227.439192 423.363635)">1.0</text>
     </g>
    </g>
    <g id="text_7">
     <text style="font: 5px 'Arial'; text-anchor: middle" x="128.580924" y="431.936291" transform="rotate(-0 128.580924 431.936291)">FPR</text>
    </g>
   </g>
   <g id="matplotlib.axis_2">
    <g id="ytick_1">
     <g id="line2d_7">
      <defs>
       <path id="mb19aac07d9" d="M 0 0 
L -3.5 0 
" style="stroke: #000000; stroke-width: 0.8"/>
      </defs>
      <g>
       <use xlink:href="#mb19aac07d9" x="29.722656" y="412.784729" style="stroke: #000000; stroke-width: 0.8"/>
      </g>
     </g>
     <g id="text_8">
      <text style="font: 5px 'Arial'; text-anchor: end" x="22.722656" y="414.574182" transform="rotate(-0 22.722656 414.574182)">0.0</text>
     </g>
    </g>
    <g id="ytick_2">
     <g id="line2d_8">
      <g>
       <use xlink:href="#mb19aac07d9" x="29.722656" y="332.025674" style="stroke: #000000; stroke-width: 0.8"/>
      </g>
     </g>
     <g id="text_9">
      <text style="font: 5px 'Arial'; text-anchor: end" x="22.722656" y="333.815127" transform="rotate(-0 22.722656 333.815127)">0.2</text>
     </g>
    </g>
    <g id="ytick_3">
     <g id="line2d_9">
      <g>
       <use xlink:href="#mb19aac07d9" x="29.722656" y="251.266618" style="stroke: #000000; stroke-width: 0.8"/>
      </g>
     </g>
     <g id="text_10">
      <text style="font: 5px 'Arial'; text-anchor: end" x="22.722656" y="253.056072" transform="rotate(-0 22.722656 253.056072)">0.4</text>
     </g>
    </g>
    <g id="ytick_4">
     <g id="line2d_10">
      <g>
       <use xlink:href="#mb19aac07d9" x="29.722656" y="170.507563" style="stroke: #000000; stroke-width: 0.8"/>
      </g>
     </g>
     <g id="text_11">
      <text style="font: 5px 'Arial'; text-anchor: end" x="22.722656" y="172.297016" transform="rotate(-0 22.722656 172.297016)">0.6</text>
     </g>
    </g>
    <g id="ytick_5">
     <g id="line2d_11">
      <g>
       <use xlink:href="#mb19aac07d9" x="29.722656" y="89.748508" style="stroke: #000000; stroke-width: 0.8"/>
      </g>
     </g>
     <g id="text_12">
      <text style="font: 5px 'Arial'; text-anchor: end" x="22.722656" y="91.537961" transform="rotate(-0 22.722656 91.537961)">0.8</text>
     </g>
    </g>
    <g id="ytick_6">
     <g id="line2d_12">
      <g>
       <use xlink:href="#mb19aac07d9" x="29.722656" y="8.989453" style="stroke: #000000; stroke-width: 0.8"/>
      </g>
     </g>
     <g id="text_13">
      <text style="font: 5px 'Arial'; text-anchor: end" x="22.722656" y="10.778906" transform="rotate(-0 22.722656 10.778906)">1.0</text>
     </g>
    </g>
    <g id="text_14">
     <text style="font: 5px 'Arial'; text-anchor: middle" x="10.778906" y="210.887091" transform="rotate(-90 10.778906 210.887091)">TPR</text>
    </g>
   </g>
   <g id="line2d_13">
    <path d="M 29.722656 412.784729 
L 29.722656 405.649391 
L 30.054953 405.649391 
L 30.054953 387.486711 
L 30.38725 387.486711 
L 30.38725 386.838044 
L 30.719546 386.838044 
L 30.719546 386.189377 
L 31.051843 386.189377 
L 31.051843 368.675365 
L 31.38414 368.675365 
L 31.38414 359.594026 
L 31.716436 359.594026 
L 31.716436 354.080355 
L 32.048733 354.080355 
L 32.048733 351.485687 
L 32.38103 351.485687 
L 32.38103 350.83702 
L 32.713327 350.83702 
L 32.713327 349.215352 
L 33.045623 349.215352 
L 33.045623 348.242351 
L 33.37792 348.242351 
L 33.37792 346.620684 
L 33.710217 346.620684 
L 33.710217 343.701682 
L 34.042513 343.701682 
L 34.042513 342.404347 
L 34.37481 342.404347 
L 34.37481 331.377006 
L 34.707107 331.377006 
L 34.707107 327.16067 
L 35.039403 327.16067 
L 35.039403 322.620001 
L 35.3717 322.620001 
L 35.3717 318.727998 
L 35.703997 318.727998 
L 35.703997 304.457321 
L 36.036294 304.457321 
L 36.036294 303.484321 
L 36.36859 303.484321 
L 36.36859 291.159646 
L 36.700887 291.159646 
L 36.700887 272.996967 
L 37.033184 272.996967 
L 37.033184 267.158963 
L 37.36548 267.158963 
L 37.36548 257.428956 
L 37.697777 257.428956 
L 37.697777 257.104622 
L 38.030074 257.104622 
L 38.030074 254.509954 
L 38.36237 254.509954 
L 38.36237 248.347616 
L 38.694667 248.347616 
L 38.694667 245.104281 
L 39.026964 245.104281 
L 39.026964 238.293276 
L 39.35926 238.293276 
L 39.35926 233.103939 
L 39.691557 233.103939 
L 39.691557 230.509271 
L 40.023854 230.509271 
L 40.023854 224.346933 
L 40.356151 224.346933 
L 40.356151 213.96826 
L 40.688447 213.96826 
L 40.688447 213.643926 
L 41.020744 213.643926 
L 41.020744 211.373591 
L 41.353041 211.373591 
L 41.353041 206.508588 
L 41.685337 206.508588 
L 41.685337 205.535587 
L 42.017634 205.535587 
L 42.017634 204.88692 
L 42.349931 204.88692 
L 42.349931 203.913919 
L 42.682227 203.913919 
L 42.682227 200.34625 
L 43.014524 200.34625 
L 43.014524 194.508246 
L 43.346821 194.508246 
L 43.346821 183.156572 
L 44.011414 183.156572 
L 44.011414 177.318568 
L 44.343711 177.318568 
L 44.343711 176.669901 
L 44.676008 176.669901 
L 44.676008 174.075232 
L 45.008304 174.075232 
L 45.008304 170.507563 
L 45.340601 170.507563 
L 45.340601 169.534563 
L 45.672898 169.534563 
L 45.672898 168.885896 
L 46.005194 168.885896 
L 46.005194 167.264228 
L 46.337491 167.264228 
L 46.337491 164.020892 
L 46.669788 164.020892 
L 46.669788 162.723558 
L 47.002085 162.723558 
L 47.002085 161.426224 
L 47.334381 161.426224 
L 47.334381 157.209888 
L 47.666678 157.209888 
L 47.666678 156.236887 
L 47.998975 156.236887 
L 47.998975 155.263886 
L 48.331271 155.263886 
L 48.331271 152.669218 
L 48.663568 152.669218 
L 48.663568 152.020551 
L 48.995865 152.020551 
L 48.995865 151.04755 
L 49.328161 151.04755 
L 49.328161 148.777215 
L 49.660458 148.777215 
L 49.660458 145.858213 
L 49.992755 145.858213 
L 49.992755 144.560879 
L 50.989645 144.560879 
L 50.989645 143.912212 
L 51.654238 143.912212 
L 51.654238 142.939211 
L 51.986535 142.939211 
L 51.986535 139.695876 
L 52.318832 139.695876 
L 52.318832 139.371542 
L 52.651128 139.371542 
L 52.651128 137.749874 
L 53.315722 137.749874 
L 53.315722 137.101207 
L 53.648019 137.101207 
L 53.648019 136.776874 
L 53.980315 136.776874 
L 53.980315 136.45254 
L 54.312612 136.45254 
L 54.312612 135.479539 
L 54.644909 135.479539 
L 54.644909 132.236204 
L 54.977205 132.236204 
L 54.977205 131.263203 
L 55.641799 131.263203 
L 55.641799 129.317202 
L 56.306392 129.317202 
L 56.306392 128.668535 
L 56.638689 128.668535 
L 56.638689 127.695534 
L 56.970986 127.695534 
L 56.970986 126.3982 
L 57.303282 126.3982 
L 57.303282 124.452199 
L 57.635579 124.452199 
L 57.635579 122.181864 
L 57.967876 122.181864 
L 57.967876 121.85753 
L 58.300172 121.85753 
L 58.300172 120.884529 
L 58.632469 120.884529 
L 58.632469 120.560196 
L 59.297062 120.560196 
L 59.297062 120.235862 
L 59.629359 120.235862 
L 59.629359 119.262862 
L 59.961656 119.262862 
L 59.961656 118.614195 
L 60.293952 118.614195 
L 60.293952 117.31686 
L 60.626249 117.31686 
L 60.626249 116.668193 
L 61.290843 116.668193 
L 61.290843 116.34386 
L 61.623139 116.34386 
L 61.623139 115.046526 
L 61.955436 115.046526 
L 61.955436 112.451857 
L 62.620029 112.451857 
L 62.620029 111.80319 
L 62.952326 111.80319 
L 62.952326 110.505856 
L 63.284623 110.505856 
L 63.284623 110.181522 
L 63.616919 110.181522 
L 63.616919 109.208522 
L 63.949216 109.208522 
L 63.949216 105.965186 
L 64.281513 105.965186 
L 64.281513 105.640852 
L 64.61381 105.640852 
L 64.61381 102.72185 
L 65.278403 102.72185 
L 65.278403 101.74885 
L 65.942996 101.74885 
L 65.942996 101.424516 
L 66.275293 101.424516 
L 66.275293 99.478515 
L 66.60759 99.478515 
L 66.60759 97.532514 
L 67.272183 97.532514 
L 67.272183 96.559513 
L 67.60448 96.559513 
L 67.60448 95.910846 
L 67.936777 95.910846 
L 67.936777 95.586512 
L 68.269073 95.586512 
L 68.269073 94.937845 
L 68.60137 94.937845 
L 68.60137 93.964844 
L 68.933667 93.964844 
L 68.933667 92.343177 
L 69.265963 92.343177 
L 69.265963 90.397175 
L 69.59826 90.397175 
L 69.59826 90.072842 
L 69.930557 90.072842 
L 69.930557 89.424175 
L 70.59515 89.424175 
L 70.59515 89.099841 
L 70.927447 89.099841 
L 70.927447 88.775508 
L 71.259744 88.775508 
L 71.259744 88.451174 
L 71.924337 88.451174 
L 71.924337 87.478173 
L 72.58893 87.478173 
L 72.58893 87.15384 
L 73.253524 87.15384 
L 73.253524 86.180839 
L 73.58582 86.180839 
L 73.58582 85.532172 
L 74.250414 85.532172 
L 74.250414 84.559171 
L 75.247304 84.559171 
L 75.247304 83.910504 
L 75.579601 83.910504 
L 75.579601 83.586171 
L 76.244194 83.586171 
L 76.244194 83.261837 
L 76.576491 83.261837 
L 76.576491 82.937504 
L 76.908787 82.937504 
L 76.908787 82.61317 
L 78.237974 82.61317 
L 78.237974 82.288836 
L 78.570271 82.288836 
L 78.570271 81.964503 
L 78.902568 81.964503 
L 78.902568 81.640169 
L 79.234864 81.640169 
L 79.234864 81.315836 
L 79.899458 81.315836 
L 79.899458 80.667169 
L 80.231754 80.667169 
L 80.231754 80.342835 
L 80.564051 80.342835 
L 80.564051 78.721167 
L 80.896348 78.721167 
L 80.896348 77.423833 
L 81.893238 77.423833 
L 81.893238 77.0995 
L 82.225535 77.0995 
L 82.225535 76.126499 
L 82.557831 76.126499 
L 82.557831 75.802165 
L 82.890128 75.802165 
L 82.890128 75.153498 
L 83.222425 75.153498 
L 83.222425 74.504831 
L 83.554721 74.504831 
L 83.554721 73.207497 
L 83.887018 73.207497 
L 83.887018 71.910163 
L 85.548502 71.910163 
L 85.548502 70.937162 
L 86.877688 70.937162 
L 86.877688 70.612829 
L 87.209985 70.612829 
L 87.209985 69.639828 
L 87.874578 69.639828 
L 87.874578 68.666827 
L 88.539172 68.666827 
L 88.539172 68.342494 
L 89.868359 68.342494 
L 89.868359 66.720826 
L 90.532952 66.720826 
L 90.532952 66.396492 
L 91.197545 66.396492 
L 91.197545 66.072159 
L 91.529842 66.072159 
L 91.529842 65.747825 
L 91.862139 65.747825 
L 91.862139 64.450491 
L 92.194436 64.450491 
L 92.194436 63.47749 
L 92.859029 63.47749 
L 92.859029 63.153157 
L 94.520512 63.153157 
L 94.520512 62.50449 
L 95.849699 62.50449 
L 95.849699 60.882822 
L 96.514293 60.882822 
L 96.514293 60.558488 
L 96.846589 60.558488 
L 96.846589 60.234155 
L 97.178886 60.234155 
L 97.178886 59.909821 
L 99.172666 59.909821 
L 99.172666 59.585488 
L 99.504963 59.585488 
L 99.504963 58.936821 
L 100.169556 58.936821 
L 100.169556 58.612487 
L 100.501853 58.612487 
L 100.501853 57.96382 
L 100.83415 57.96382 
L 100.83415 56.990819 
L 103.160227 56.990819 
L 103.160227 56.666486 
L 104.157117 56.666486 
L 104.157117 56.342152 
L 104.489413 56.342152 
L 104.489413 55.369151 
L 104.82171 55.369151 
L 104.82171 54.396151 
L 105.8186 54.396151 
L 105.8186 54.071817 
L 106.483194 54.071817 
L 106.483194 53.42315 
L 108.144677 53.42315 
L 108.144677 53.098817 
L 109.141567 53.098817 
L 109.141567 52.125816 
L 109.473864 52.125816 
L 109.473864 51.801482 
L 110.138457 51.801482 
L 110.138457 51.152815 
L 112.464534 51.152815 
L 112.464534 49.531147 
L 114.790611 49.531147 
L 114.790611 49.206814 
L 117.116688 49.206814 
L 117.116688 48.558147 
L 117.448985 48.558147 
L 117.448985 48.233813 
L 117.781281 48.233813 
L 117.781281 47.90948 
L 118.113578 47.90948 
L 118.113578 47.585146 
L 118.778171 47.585146 
L 118.778171 45.314811 
L 119.110468 45.314811 
L 119.110468 44.990478 
L 119.442765 44.990478 
L 119.442765 44.341811 
L 120.771952 44.341811 
L 120.771952 44.017477 
L 122.101138 44.017477 
L 122.101138 43.36881 
L 122.433435 43.36881 
L 122.433435 42.395809 
L 123.098028 42.395809 
L 123.098028 42.071476 
L 123.430325 42.071476 
L 123.430325 41.422809 
L 123.762622 41.422809 
L 123.762622 41.098475 
L 125.091809 41.098475 
L 125.091809 40.774141 
L 125.424105 40.774141 
L 125.424105 40.125474 
L 125.756402 40.125474 
L 125.756402 39.801141 
L 126.088699 39.801141 
L 126.088699 39.476807 
L 127.085589 39.476807 
L 127.085589 38.82814 
L 127.750182 38.82814 
L 127.750182 38.503807 
L 128.414776 38.503807 
L 128.414776 38.179473 
L 128.747072 38.179473 
L 128.747072 37.855139 
L 130.076259 37.855139 
L 130.076259 37.530806 
L 131.073149 37.530806 
L 131.073149 36.557805 
L 131.405446 36.557805 
L 131.405446 35.909138 
L 132.070039 35.909138 
L 132.070039 35.260471 
L 133.066929 35.260471 
L 133.066929 34.611804 
L 133.399226 34.611804 
L 133.399226 34.28747 
L 134.063819 34.28747 
L 134.063819 33.963137 
L 135.06071 33.963137 
L 135.06071 32.990136 
L 135.725303 32.990136 
L 135.725303 31.692802 
L 136.722193 31.692802 
L 136.722193 31.368468 
L 137.719083 31.368468 
L 137.719083 31.044135 
L 138.05138 31.044135 
L 138.05138 30.395468 
L 138.715973 30.395468 
L 138.715973 30.071134 
L 139.04827 30.071134 
L 139.04827 27.800799 
L 139.712863 27.800799 
L 139.712863 27.476466 
L 140.377457 27.476466 
L 140.377457 27.152132 
L 140.709753 27.152132 
L 140.709753 26.827799 
L 141.04205 26.827799 
L 141.04205 26.503465 
L 142.703534 26.503465 
L 142.703534 26.179132 
L 143.368127 26.179132 
L 143.368127 25.854798 
L 143.700424 25.854798 
L 143.700424 25.530464 
L 144.365017 25.530464 
L 144.365017 25.206131 
L 145.361907 25.206131 
L 145.361907 24.881797 
L 146.026501 24.881797 
L 146.026501 24.557464 
L 146.358797 24.557464 
L 146.358797 24.23313 
L 148.020281 24.23313 
L 148.020281 23.908797 
L 149.017171 23.908797 
L 149.017171 23.584463 
L 149.349468 23.584463 
L 149.349468 23.26013 
L 149.681764 23.26013 
L 149.681764 22.935796 
L 150.014061 22.935796 
L 150.014061 22.611462 
L 152.007841 22.611462 
L 152.007841 22.287129 
L 153.337028 22.287129 
L 153.337028 21.638462 
L 153.669325 21.638462 
L 153.669325 21.314128 
L 154.666215 21.314128 
L 154.666215 20.665461 
L 154.998511 20.665461 
L 154.998511 20.341128 
L 155.995402 20.341128 
L 155.995402 20.016794 
L 156.327698 20.016794 
L 156.327698 19.69246 
L 158.321478 19.69246 
L 158.321478 19.368127 
L 158.653775 19.368127 
L 158.653775 19.043793 
L 159.650665 19.043793 
L 159.650665 18.71946 
L 161.312149 18.71946 
L 161.312149 18.070793 
L 161.976742 18.070793 
L 161.976742 17.746459 
L 163.638226 17.746459 
L 163.638226 17.422126 
L 164.302819 17.422126 
L 164.302819 17.097792 
L 166.961193 17.097792 
L 166.961193 16.773458 
L 167.958083 16.773458 
L 167.958083 16.449125 
L 169.287269 16.449125 
L 169.287269 16.124791 
L 170.948753 16.124791 
L 170.948753 15.800458 
L 171.945643 15.800458 
L 171.945643 15.476124 
L 172.942533 15.476124 
L 172.942533 15.151791 
L 173.27483 15.151791 
L 173.27483 14.503124 
L 178.25928 14.503124 
L 178.25928 14.17879 
L 179.588467 14.17879 
L 179.588467 13.854456 
L 181.249951 13.854456 
L 181.249951 13.530123 
L 181.582247 13.530123 
L 181.582247 13.205789 
L 182.246841 13.205789 
L 182.246841 12.881456 
L 183.243731 12.881456 
L 183.243731 12.232789 
L 185.569808 12.232789 
L 185.569808 11.908455 
L 189.889665 11.908455 
L 189.889665 10.935454 
L 191.551148 10.935454 
L 191.551148 10.611121 
L 195.206412 10.611121 
L 195.206412 10.286787 
L 198.197082 10.286787 
L 198.197082 9.962454 
L 200.855456 9.962454 
L 200.855456 9.63812 
L 215.144214 9.63812 
L 215.144214 9.313787 
L 221.125554 9.313787 
L 221.125554 8.989453 
L 227.439192 8.989453 
L 227.439192 8.989453 
" clip-path="url(#p149da7c67e)" style="fill: none; stroke: #ff0000; stroke-width: 1.5; stroke-linecap: square"/>
   </g>
   <g id="line2d_14">
    <defs>
     <path id="mbcf6df490b" d="M 0 3 
C 0.795609 3 1.55874 2.683901 2.12132 2.12132 
C 2.683901 1.55874 3 0.795609 3 0 
C 3 -0.795609 2.683901 -1.55874 2.12132 -2.12132 
C 1.55874 -2.683901 0.795609 -3 0 -3 
C -0.795609 -3 -1.55874 -2.683901 -2.12132 -2.12132 
C -2.683901 -1.55874 -3 -0.795609 -3 0 
C -3 0.795609 -2.683901 1.55874 -2.12132 2.12132 
C -1.55874 2.683901 -0.795609 3 0 3 
z
" style="stroke: #000000"/>
    </defs>
    <g clip-path="url(#p149da7c67e)">
     <use xlink:href="#mbcf6df490b" x="69.265963" y="90.397175" style="fill: #ff0000; stroke: #000000"/>
    </g>
   </g>
   <g id="line2d_15">
    <path d="M 29.722656 412.784729 
L 227.439192 8.989453 
" clip-path="url(#p149da7c67e)" style="fill: none; stroke: #00bfbf; stroke-width: 1.5; stroke-linecap: square"/>
   </g>
   <g id="patch_4">
    <path d="M 29.722656 412.784729 
L 29.722656 8.989453 
" style="fill: none; stroke: #000000; stroke-width: 0.8; stroke-linejoin: miter; stroke-linecap: square"/>
   </g>
   <g id="patch_5">
    <path d="M 227.439192 412.784729 
L 227.439192 8.989453 
" style="fill: none; stroke: #000000; stroke-width: 0.8; stroke-linejoin: miter; stroke-linecap: square"/>
   </g>
   <g id="patch_6">
    <path d="M 29.722656 412.784729 
L 227.439192 412.784729 
" style="fill: none; stroke: #000000; stroke-width: 0.8; stroke-linejoin: miter; stroke-linecap: square"/>
   </g>
   <g id="patch_7">
    <path d="M 29.722656 8.989453 
L 227.439192 8.989453 
" style="fill: none; stroke: #000000; stroke-width: 0.8; stroke-linejoin: miter; stroke-linecap: square"/>
   </g>
   <g id="legend_1">
    <g id="patch_8">
     <path d="M 67.867643 455.77182 
L 189.294205 455.77182 
Q 190.294205 455.77182 190.294205 454.77182 
L 190.294205 448.079632 
Q 190.294205 447.079632 189.294205 447.079632 
L 67.867643 447.079632 
Q 66.867643 447.079632 66.867643 448.079632 
L 66.867643 454.77182 
Q 66.867643 455.77182 67.867643 455.77182 
z
" style="fill: #ffffff; opacity: 0.8; stroke: #cccccc; stroke-linejoin: miter"/>
    </g>
    <g id="line2d_16">
     <path d="M 68.867643 450.969476 
L 73.867643 450.969476 
L 78.867643 450.969476 
" style="fill: none; stroke: #ff0000; stroke-width: 1.5; stroke-linecap: square"/>
    </g>
    <g id="text_15">
     <text style="font: 5px 'Arial'; text-anchor: start" x="82.867643" y="452.719476" transform="rotate(-0 82.867643 452.719476)">model performance</text>
    </g>
    <g id="line2d_17">
     <path d="M 135.940299 450.969476 
L 140.940299 450.969476 
L 145.940299 450.969476 
" style="fill: none; stroke: #00bfbf; stroke-width: 1.5; stroke-linecap: square"/>
    </g>
    <g id="text_16">
     <text style="font: 5px 'Arial'; text-anchor: start" x="149.940299" y="452.719476" transform="rotate(-0 149.940299 452.719476)">random guessing</text>
    </g>
   </g>
  </g>
 </g>
 <defs>
  <clipPath id="p149da7c67e">
   <rect x="29.722656" y="8.989453" width="197.716535" height="403.795276"/>
  </clipPath>
 </defs>
</svg>
