<?xml version="1.0" encoding="utf-8" standalone="no"?>
<!DOCTYPE svg PUBLIC "-//W3C//DTD SVG 1.1//EN"
  "http://www.w3.org/Graphics/SVG/1.1/DTD/svg11.dtd">
<svg xmlns:xlink="http://www.w3.org/1999/xlink" width="413.064687pt" height="359.986587pt" viewBox="0 0 413.064687 359.986587" xmlns="http://www.w3.org/2000/svg" version="1.1">
 <metadata>
  <rdf:RDF xmlns:dc="http://purl.org/dc/elements/1.1/" xmlns:cc="http://creativecommons.org/ns#" xmlns:rdf="http://www.w3.org/1999/02/22-rdf-syntax-ns#">
   <cc:Work>
    <dc:type rdf:resource="http://purl.org/dc/dcmitype/StillImage"/>
    <dc:date>2024-09-25T06:57:19.385851</dc:date>
    <dc:format>image/svg+xml</dc:format>
    <dc:creator>
     <cc:Agent>
      <dc:title>Matplotlib v3.7.0, https://matplotlib.org/</dc:title>
     </cc:Agent>
    </dc:creator>
   </cc:Work>
  </rdf:RDF>
 </metadata>
 <defs>
  <style type="text/css">*{stroke-linejoin: round; stroke-linecap: butt}</style>
 </defs>
 <g id="figure_1">
  <g id="patch_1">
   <path d="M 0 359.986587 
L 413.064687 359.986587 
L 413.064687 0 
L 0 0 
z
" style="fill: #ffffff"/>
  </g>
  <g id="axes_1">
   <g id="patch_2">
    <path d="M 45.269688 288.372 
L 402.389688 288.372 
L 402.389688 22.26 
L 45.269688 22.26 
z
" style="fill: #ffffff"/>
   </g>
   <g id="patch_3">
    <path d="M 402.389688 22.26 
L 403.632731 30.624067 
L 400.315658 30.093467 
L 385.927355 80.039145 
L 385.578189 79.983293 
L 399.966492 30.037615 
L 396.649419 29.507015 
z
" clip-path="url(#p2a2d68c1eb)" style="fill: #1f77b4; stroke: #000000; stroke-linejoin: miter"/>
   </g>
   <g id="matplotlib.axis_1">
    <g id="xtick_1">
     <g id="line2d_1">
      <defs>
       <path id="m4b95d2ce8e" d="M 0 0 
L 0 3.5 
" style="stroke: #000000; stroke-width: 0.8"/>
      </defs>
      <g>
       <use xlink:href="#m4b95d2ce8e" x="45.269688" y="288.372" style="stroke: #000000; stroke-width: 0.8"/>
      </g>
     </g>
     <g id="text_1">
      <text style="font: 5px 'Arial'; text-anchor: middle" x="45.269688" y="298.950906" transform="rotate(-0 45.269688 298.950906)">0.0</text>
     </g>
    </g>
    <g id="xtick_2">
     <g id="line2d_2">
      <g>
       <use xlink:href="#m4b95d2ce8e" x="116.693688" y="288.372" style="stroke: #000000; stroke-width: 0.8"/>
      </g>
     </g>
     <g id="text_2">
      <text style="font: 5px 'Arial'; text-anchor: middle" x="116.693688" y="298.950906" transform="rotate(-0 116.693688 298.950906)">0.2</text>
     </g>
    </g>
    <g id="xtick_3">
     <g id="line2d_3">
      <g>
       <use xlink:href="#m4b95d2ce8e" x="188.117688" y="288.372" style="stroke: #000000; stroke-width: 0.8"/>
      </g>
     </g>
     <g id="text_3">
      <text style="font: 5px 'Arial'; text-anchor: middle" x="188.117688" y="298.950906" transform="rotate(-0 188.117688 298.950906)">0.4</text>
     </g>
    </g>
    <g id="xtick_4">
     <g id="line2d_4">
      <g>
       <use xlink:href="#m4b95d2ce8e" x="259.541688" y="288.372" style="stroke: #000000; stroke-width: 0.8"/>
      </g>
     </g>
     <g id="text_4">
      <text style="font: 5px 'Arial'; text-anchor: middle" x="259.541688" y="298.950906" transform="rotate(-0 259.541688 298.950906)">0.6</text>
     </g>
    </g>
    <g id="xtick_5">
     <g id="line2d_5">
      <g>
       <use xlink:href="#m4b95d2ce8e" x="330.965688" y="288.372" style="stroke: #000000; stroke-width: 0.8"/>
      </g>
     </g>
     <g id="text_5">
      <text style="font: 5px 'Arial'; text-anchor: middle" x="330.965688" y="298.950906" transform="rotate(-0 330.965688 298.950906)">0.8</text>
     </g>
    </g>
    <g id="xtick_6">
     <g id="line2d_6">
      <g>
       <use xlink:href="#m4b95d2ce8e" x="402.389688" y="288.372" style="stroke: #000000; stroke-width: 0.8"/>
      </g>
     </g>
     <g id="text_6">
      <text style="font: 5px 'Arial'; text-anchor: middle" x="402.389688" y="298.950906" transform="rotate(-0 402.389688 298.950906)">1.0</text>
     </g>
    </g>
    <g id="text_7">
     <text style="font: 22px 'Arial'; text-anchor: middle" x="223.829688" y="319.691844" transform="rotate(-0 223.829688 319.691844)">Recall</text>
    </g>
   </g>
   <g id="matplotlib.axis_2">
    <g id="ytick_1">
     <g id="line2d_7">
      <defs>
       <path id="maafebc21c4" d="M 0 0 
L -3.5 0 
" style="stroke: #000000; stroke-width: 0.8"/>
      </defs>
      <g>
       <use xlink:href="#maafebc21c4" x="45.269688" y="288.372" style="stroke: #000000; stroke-width: 0.8"/>
      </g>
     </g>
     <g id="text_8">
      <text style="font: 5px 'Arial'; text-anchor: end" x="38.269688" y="290.161453" transform="rotate(-0 38.269688 290.161453)">0.0</text>
     </g>
    </g>
    <g id="ytick_2">
     <g id="line2d_8">
      <g>
       <use xlink:href="#maafebc21c4" x="45.269688" y="235.1496" style="stroke: #000000; stroke-width: 0.8"/>
      </g>
     </g>
     <g id="text_9">
      <text style="font: 5px 'Arial'; text-anchor: end" x="38.269688" y="236.939053" transform="rotate(-0 38.269688 236.939053)">0.2</text>
     </g>
    </g>
    <g id="ytick_3">
     <g id="line2d_9">
      <g>
       <use xlink:href="#maafebc21c4" x="45.269688" y="181.9272" style="stroke: #000000; stroke-width: 0.8"/>
      </g>
     </g>
     <g id="text_10">
      <text style="font: 5px 'Arial'; text-anchor: end" x="38.269688" y="183.716653" transform="rotate(-0 38.269688 183.716653)">0.4</text>
     </g>
    </g>
    <g id="ytick_4">
     <g id="line2d_10">
      <g>
       <use xlink:href="#maafebc21c4" x="45.269688" y="128.7048" style="stroke: #000000; stroke-width: 0.8"/>
      </g>
     </g>
     <g id="text_11">
      <text style="font: 5px 'Arial'; text-anchor: end" x="38.269688" y="130.494253" transform="rotate(-0 38.269688 130.494253)">0.6</text>
     </g>
    </g>
    <g id="ytick_5">
     <g id="line2d_11">
      <g>
       <use xlink:href="#maafebc21c4" x="45.269688" y="75.4824" style="stroke: #000000; stroke-width: 0.8"/>
      </g>
     </g>
     <g id="text_12">
      <text style="font: 5px 'Arial'; text-anchor: end" x="38.269688" y="77.271853" transform="rotate(-0 38.269688 77.271853)">0.8</text>
     </g>
    </g>
    <g id="ytick_6">
     <g id="line2d_12">
      <g>
       <use xlink:href="#maafebc21c4" x="45.269688" y="22.26" style="stroke: #000000; stroke-width: 0.8"/>
      </g>
     </g>
     <g id="text_13">
      <text style="font: 5px 'Arial'; text-anchor: end" x="38.269688" y="24.049453" transform="rotate(-0 38.269688 24.049453)">1.0</text>
     </g>
    </g>
    <g id="text_14">
     <text style="font: 22px 'Arial'; text-anchor: middle" x="22.947188" y="155.316" transform="rotate(-90 22.947188 155.316)">Precision</text>
    </g>
   </g>
   <g id="line2d_13">
    <path d="M 402.389688 108.312522 
L 402.389688 106.433812 
L 402.102844 106.480062 
L 402.102844 106.380066 
L 402.102844 104.663161 
L 401.816001 104.708915 
L 401.816001 104.60688 
L 401.816001 100.216587 
L 401.529157 100.260956 
L 401.529157 100.153831 
L 401.529157 99.400528 
L 401.242314 99.444659 
L 401.242314 99.336515 
L 401.242314 98.466887 
L 400.955471 98.510734 
L 400.955471 98.40143 
L 400.955471 97.301427 
L 400.668627 97.344904 
L 400.668627 97.234163 
L 400.668627 96.789915 
L 399.808097 96.920061 
L 399.808097 96.808557 
L 399.808097 95.46031 
L 399.521254 95.503268 
L 399.521254 94.707698 
L 398.947567 94.793182 
L 398.947567 94.449957 
L 398.660724 94.492648 
L 398.660724 94.263069 
L 398.37388 94.305725 
L 398.37388 94.190689 
L 398.087037 94.233352 
L 398.087037 93.655902 
L 397.800194 93.6984 
L 397.800194 93.233785 
L 397.51335 93.276158 
L 397.51335 91.513243 
L 396.939663 91.596782 
L 396.939663 91.478028 
L 396.65282 91.519826 
L 396.65282 91.162563 
L 396.365977 91.204271 
L 396.365977 90.845567 
L 396.079133 90.887184 
L 396.079133 90.286196 
L 395.79229 90.327625 
L 395.79229 89.844 
L 395.505447 89.885285 
L 395.505447 89.520867 
L 395.218603 89.562055 
L 395.218603 88.583298 
L 394.93176 88.624138 
L 394.93176 88.37784 
L 394.644916 88.418628 
L 394.644916 87.79996 
L 394.358073 87.840542 
L 394.358073 87.591898 
L 393.784386 87.673006 
L 393.784386 87.048164 
L 393.497543 87.088531 
L 393.497543 86.711596 
L 393.2107 86.751853 
L 393.2107 86.62584 
L 392.923856 86.666094 
L 392.923856 85.906373 
L 392.637013 85.946352 
L 392.637013 85.81912 
L 392.350169 85.859094 
L 392.350169 85.476272 
L 392.063326 85.516131 
L 392.063326 85.388146 
L 391.489639 85.467904 
L 391.489639 85.082643 
L 391.202796 85.122429 
L 391.202796 84.993627 
L 390.629109 85.073239 
L 390.629109 84.555939 
L 390.342266 84.595593 
L 390.342266 83.814341 
L 390.055422 83.853698 
L 390.055422 83.722848 
L 389.768579 83.762197 
L 389.768579 83.631121 
L 389.481736 83.670462 
L 389.481736 83.539158 
L 389.194892 83.57849 
L 389.194892 83.18339 
L 388.908049 83.222595 
L 388.908049 82.560395 
L 388.621206 82.599349 
L 388.621206 82.466335 
L 388.334362 82.505278 
L 388.334362 82.238611 
L 388.047519 82.277483 
L 388.047519 81.876 
L 387.760675 81.914737 
L 387.760675 81.646087 
L 387.473832 81.68475 
L 387.473832 81.5501 
L 387.186989 81.588751 
L 387.186989 81.318799 
L 386.900145 81.357374 
L 386.900145 80.679083 
L 386.613302 80.71739 
L 386.613302 80.581134 
L 386.326459 80.619427 
L 386.326459 80.482928 
L 386.039615 80.521207 
L 386.039615 80.247539 
L 385.752772 80.285739 
L 385.752772 80.011219 
L 383.744868 80.279117 
L 383.744868 80.141125 
L 383.458025 80.179533 
L 383.458025 79.902865 
L 382.884338 79.979569 
L 382.884338 79.840826 
L 382.597495 79.879187 
L 382.597495 79.461645 
L 382.310651 79.499856 
L 382.310651 79.080434 
L 381.163278 79.232972 
L 381.163278 78.951871 
L 380.302748 79.0664 
L 380.302748 78.642704 
L 380.015904 78.680775 
L 380.015904 78.397217 
L 379.729061 78.435199 
L 379.729061 78.293062 
L 379.155374 78.369039 
L 379.155374 77.941043 
L 378.581688 78.0168 
L 378.581688 77.730213 
L 378.008001 77.805888 
L 378.008001 77.662157 
L 377.147471 77.775841 
L 377.147471 77.342813 
L 376.860627 77.380593 
L 376.860627 76.800149 
L 376.573784 76.837685 
L 376.573784 76.692 
L 376.286941 76.729513 
L 376.286941 76.437391 
L 376.000097 76.474807 
L 376.000097 76.181726 
L 375.42641 76.25641 
L 375.42641 75.814809 
L 375.139567 75.852 
L 375.139567 75.704314 
L 374.852724 75.74148 
L 374.852724 75.593511 
L 374.279037 75.667844 
L 374.279037 75.519515 
L 373.992194 75.556681 
L 373.992194 74.960977 
L 373.70535 74.997882 
L 373.70535 74.848356 
L 373.131663 74.922164 
L 373.131663 74.77227 
L 372.84482 74.809172 
L 372.84482 74.508591 
L 371.98429 74.619131 
L 371.98429 74.468282 
L 371.410603 74.542075 
L 371.410603 73.935895 
L 371.12376 73.972545 
L 371.12376 73.362589 
L 370.550073 73.435385 
L 370.550073 73.282187 
L 370.26323 73.318579 
L 370.26323 73.165079 
L 368.255326 73.4207 
L 368.255326 73.111862 
L 367.968483 73.14842 
L 367.968483 72.993583 
L 367.681639 73.030108 
L 367.681639 72.874963 
L 367.394796 72.911455 
L 367.394796 72.756 
L 366.821109 72.828971 
L 366.821109 71.733255 
L 366.534266 71.769209 
L 366.534266 70.661671 
L 365.100049 70.839097 
L 365.100049 69.716967 
L 364.526362 69.787014 
L 364.526362 69.463902 
L 364.239519 69.498817 
L 364.239519 69.336808 
L 363.378989 69.441579 
L 363.378989 68.953258 
L 363.092145 68.988 
L 363.092145 68.168792 
L 362.518459 68.237466 
L 362.518459 67.907676 
L 362.231615 67.941895 
L 362.231615 67.445058 
L 361.371085 67.547133 
L 361.371085 67.380723 
L 360.510555 67.482961 
L 360.510555 67.316 
L 360.223712 67.350082 
L 360.223712 66.847378 
L 359.936868 66.881208 
L 359.936868 65.698572 
L 359.076338 65.798202 
L 359.076338 65.627908 
L 358.502651 65.694372 
L 358.502651 65.523607 
L 358.215808 65.55681 
L 358.215808 65.214281 
L 357.642121 65.280416 
L 357.642121 65.108542 
L 357.355278 65.141579 
L 357.355278 64.104102 
L 357.068434 64.13654 
L 357.068434 63.962579 
L 356.781591 63.994957 
L 356.781591 63.820615 
L 356.494748 63.852933 
L 356.494748 63.503215 
L 355.060531 63.664447 
L 355.060531 62.959482 
L 354.486844 63.023425 
L 354.486844 62.134826 
L 354.200001 62.166298 
L 354.200001 61.808661 
L 353.339471 61.902675 
L 353.339471 61.72308 
L 352.192097 61.848659 
L 352.192097 61.668306 
L 351.905254 61.699707 
L 351.905254 61.518947 
L 351.61841 61.550279 
L 351.61841 61.187655 
L 351.331567 61.218797 
L 351.331567 60.854769 
L 349.89735 61.010018 
L 349.89735 60.276 
L 349.610507 60.306708 
L 349.610507 59.93767 
L 348.749977 60.029343 
L 348.749977 59.658356 
L 347.889447 59.74972 
L 347.889447 59.563394 
L 347.602603 59.593821 
L 347.602603 58.844956 
L 346.742073 58.934993 
L 346.742073 57.99003 
L 345.5947 58.108145 
L 345.5947 57.917687 
L 344.447326 58.036053 
L 344.447326 57.844744 
L 343.873639 57.903953 
L 343.873639 57.712057 
L 343.299953 57.771193 
L 343.299953 57.578705 
L 343.013109 57.608211 
L 343.013109 57.415264 
L 342.152579 57.503668 
L 342.152579 57.309987 
L 341.865736 57.339416 
L 341.865736 56.756 
L 340.718362 56.872541 
L 340.718362 56.676852 
L 339.284145 56.822934 
L 339.284145 56.626206 
L 338.997302 56.655429 
L 338.997302 56.458223 
L 338.423615 56.516532 
L 338.423615 56.120536 
L 338.136772 56.149477 
L 338.136772 55.950826 
L 337.849928 55.979671 
L 337.849928 55.780535 
L 337.563085 55.809283 
L 337.563085 55.609658 
L 337.276242 55.638309 
L 337.276242 54.835779 
L 336.989398 54.863886 
L 336.989398 54.662238 
L 336.702555 54.690244 
L 336.702555 54.488097 
L 336.415712 54.516 
L 336.415712 54.110352 
L 336.128868 54.138 
L 336.128868 53.934495 
L 335.555181 53.989629 
L 335.555181 53.376063 
L 334.694651 53.457732 
L 334.694651 53.045963 
L 334.120965 53.100021 
L 334.120965 52.893279 
L 333.260434 52.974248 
L 333.260434 52.558718 
L 332.973591 52.585484 
L 332.973591 52.168163 
L 332.113061 52.247776 
L 332.113061 51.828 
L 331.826218 51.854306 
L 331.826218 51.643694 
L 331.539374 51.669882 
L 331.539374 51.45873 
L 331.252531 51.4848 
L 331.252531 51.06103 
L 330.678844 51.112645 
L 330.678844 50.899857 
L 330.392001 50.925566 
L 330.392001 50.712226 
L 328.670941 50.866439 
L 328.670941 50.651696 
L 327.236724 50.780632 
L 327.236724 50.56464 
L 326.376194 50.642046 
L 326.376194 50.425139 
L 325.802507 50.476629 
L 325.802507 50.258975 
L 325.515663 50.284615 
L 325.515663 50.066387 
L 324.941977 50.117455 
L 324.941977 49.898471 
L 324.081447 49.97489 
L 324.081447 49.534637 
L 322.360386 49.686585 
L 322.360386 49.464758 
L 320.639326 49.617308 
L 320.639326 49.393964 
L 320.352483 49.419371 
L 320.352483 48.971054 
L 319.491953 49.046438 
L 319.491953 48.595306 
L 316.910362 48.820608 
L 316.910362 48.592681 
L 316.623519 48.61776 
L 316.623519 48.389205 
L 313.755085 48.640689 
L 313.755085 48.409734 
L 312.894555 48.48553 
L 312.894555 48.253532 
L 312.607712 48.278695 
L 312.607712 48.046047 
L 311.460338 48.146381 
L 311.460338 47.912471 
L 310.886651 47.962525 
L 310.886651 47.492516 
L 308.591904 47.691393 
L 308.591904 47.454036 
L 307.444531 47.553814 
L 307.444531 47.315144 
L 307.157688 47.34 
L 307.157688 46.860811 
L 306.584001 46.909817 
L 306.584001 46.669077 
L 305.436627 46.766811 
L 305.436627 46.524721 
L 304.862941 46.573446 
L 304.862941 46.330432 
L 304.00241 46.403226 
L 304.00241 46.15906 
L 303.715567 46.1832 
L 303.715567 45.692939 
L 303.428724 45.716681 
L 303.428724 45.47058 
L 302.568194 45.541416 
L 302.568194 45.294134 
L 302.28135 45.317615 
L 302.28135 45.0696 
L 300.273447 45.233698 
L 300.273447 44.983556 
L 298.552386 45.124696 
L 298.552386 44.872626 
L 297.405013 44.966747 
L 297.405013 44.7132 
L 296.544483 44.783586 
L 296.544483 44.528787 
L 295.970796 44.575472 
L 295.970796 44.063294 
L 294.249736 44.201581 
L 294.249736 43.684271 
L 293.389206 43.752574 
L 293.389206 43.49234 
L 290.520772 43.720645 
L 290.520772 43.457296 
L 289.660242 43.52597 
L 289.660242 43.261271 
L 289.373398 43.284 
L 289.373398 43.018466 
L 289.086555 43.04098 
L 289.086555 42.774606 
L 288.512868 42.819251 
L 288.512868 42.283695 
L 287.078651 42.393474 
L 287.078651 42.123464 
L 286.791808 42.145292 
L 286.791808 41.874416 
L 283.923374 42.092596 
L 283.923374 41.818343 
L 283.062844 41.883902 
L 283.062844 41.331857 
L 282.489157 41.374667 
L 282.489157 40.540216 
L 281.341784 40.622932 
L 281.341784 40.342356 
L 278.760194 40.528558 
L 278.760194 40.24466 
L 276.75229 40.390032 
L 276.75229 40.103348 
L 275.89176 40.165448 
L 275.89176 39.877171 
L 275.318073 39.918189 
L 275.318073 39.628615 
L 273.023326 39.792085 
L 273.023326 39.499293 
L 272.162796 39.560426 
L 272.162796 39.265974 
L 271.302266 39.326565 
L 271.302266 39.030435 
L 267.573302 39.293739 
L 267.573302 38.992556 
L 266.425928 39.073881 
L 266.425928 38.770599 
L 265.278555 38.851335 
L 265.278555 38.545924 
L 262.410121 38.747732 
L 262.410121 38.438025 
L 260.975904 38.539011 
L 260.975904 38.22672 
L 260.402218 38.266737 
L 260.402218 37.952928 
L 259.541688 38.012222 
L 259.541688 37.696509 
L 256.38641 37.913647 
L 256.38641 37.592958 
L 254.091663 37.751643 
L 254.091663 37.427005 
L 253.517977 37.4664 
L 253.517977 37.140125 
L 248.354796 37.496772 
L 248.354796 36.826879 
L 238.315278 37.540941 
L 238.315278 37.189144 
L 233.152097 37.575799 
L 233.152097 37.214421 
L 229.99682 37.455268 
L 229.99682 37.087355 
L 229.13629 37.152866 
L 229.13629 36.782336 
L 228.562603 36.825302 
L 228.562603 36.45264 
L 227.702073 36.516 
L 227.702073 36.140656 
L 223.399422 36.458049 
L 223.399422 36.073447 
L 221.391519 36.222667 
L 221.391519 35.832946 
L 221.104675 35.853957 
L 221.104675 35.462456 
L 211.925688 36.151654 
L 211.925688 35.739529 
L 206.475663 36.17142 
L 206.475663 35.745405 
L 204.180916 35.930137 
L 204.180916 35.497132 
L 199.591422 35.870667 
L 199.591422 35.424551 
L 193.567712 35.931809 
L 193.567712 35.467765 
L 190.699278 35.715101 
L 190.699278 35.241073 
L 185.249254 35.720918 
L 185.249254 35.228421 
L 182.954507 35.433861 
L 182.954507 34.932 
L 182.667663 34.957193 
L 182.667663 34.452382 
L 174.062362 35.227322 
L 174.062362 34.68986 
L 168.899181 35.183762 
L 168.899181 34.623611 
L 157.138603 35.856964 
L 152.835953 36.372 
L 152.835953 35.734025 
L 143.083278 37.003047 
L 141.935904 37.168235 
L 141.935904 36.462607 
L 141.075374 36.583309 
L 141.075374 35.868 
L 132.470073 37.135826 
L 128.454266 37.812 
L 128.454266 36.995844 
L 125.012145 37.595268 
L 125.012145 36.742286 
L 120.996338 37.4664 
L 120.996338 36.567097 
L 117.267374 37.266316 
L 117.267374 36.318747 
L 110.669977 37.654909 
L 107.5147 38.388 
L 107.5147 37.301113 
L 106.367326 37.567327 
L 106.367326 36.45264 
L 103.785736 37.044 
L 103.785736 35.875033 
L 102.351519 36.1992 
L 102.351519 34.992632 
L 101.490989 35.178058 
L 101.490989 33.942966 
L 100.056772 34.23504 
L 100.056772 32.95797 
L 99.483085 33.066579 
L 99.483085 31.764 
L 97.188338 32.168426 
L 97.188338 30.798353 
L 92.312001 31.652188 
L 92.312001 30.133136 
L 86.861977 31.1304 
L 84.280386 31.696596 
L 84.280386 29.8632 
L 79.690892 30.844258 
L 75.961928 31.849622 
L 72.806651 32.90448 
L 69.938218 34.0872 
L 68.790844 34.637302 
L 68.790844 31.652188 
L 68.217157 31.878506 
L 68.217157 28.750537 
L 67.643471 28.9128 
L 67.643471 25.628506 
L 63.914507 26.292 
L 61.046073 27.012 
L 58.751326 27.804 
L 57.030266 28.596 
L 55.596049 29.452216 
L 54.161832 30.576 
L 53.014459 31.764 
L 52.153928 32.90448 
L 51.580242 33.830087 
L 51.580242 22.26 
L 45.269688 22.26 
L 45.269688 22.26 
" clip-path="url(#p2a2d68c1eb)" style="fill: none; stroke: #ff0000; stroke-width: 1.5; stroke-linecap: square"/>
   </g>
   <g id="line2d_14">
    <defs>
     <path id="mf6631d89e0" d="M 0 3 
C 0.795609 3 1.55874 2.683901 2.12132 2.12132 
C 2.683901 1.55874 3 0.795609 3 0 
C 3 -0.795609 2.683901 -1.55874 2.12132 -2.12132 
C 1.55874 -2.683901 0.795609 -3 0 -3 
C -0.795609 -3 -1.55874 -2.683901 -2.12132 -2.12132 
C -2.683901 -1.55874 -3 -0.795609 -3 0 
C -3 0.795609 -2.683901 1.55874 -2.12132 2.12132 
C -1.55874 2.683901 -0.795609 3 0 3 
z
" style="stroke: #000000"/>
    </defs>
    <g clip-path="url(#p2a2d68c1eb)">
     <use xlink:href="#mf6631d89e0" x="385.752772" y="80.011219" style="fill: #ff0000; stroke: #000000"/>
    </g>
   </g>
   <g id="line2d_15">
    <path d="M 45.269688 108.312522 
L 402.389688 108.312522 
" clip-path="url(#p2a2d68c1eb)" style="fill: none; stroke: #00bfbf; stroke-width: 1.5; stroke-linecap: square"/>
   </g>
   <g id="patch_4">
    <path d="M 45.269688 288.372 
L 45.269688 22.26 
" style="fill: none; stroke: #000000; stroke-width: 0.8; stroke-linejoin: miter; stroke-linecap: square"/>
   </g>
   <g id="patch_5">
    <path d="M 402.389688 288.372 
L 402.389688 22.26 
" style="fill: none; stroke: #000000; stroke-width: 0.8; stroke-linejoin: miter; stroke-linecap: square"/>
   </g>
   <g id="patch_6">
    <path d="M 45.269688 288.372 
L 402.389688 288.372 
" style="fill: none; stroke: #000000; stroke-width: 0.8; stroke-linejoin: miter; stroke-linecap: square"/>
   </g>
   <g id="patch_7">
    <path d="M 45.269688 22.26 
L 402.389688 22.26 
" style="fill: none; stroke: #000000; stroke-width: 0.8; stroke-linejoin: miter; stroke-linecap: square"/>
   </g>
   <g id="text_15">
    <text style="font: 5px 'Arial'" transform="translate(201.086719 10.839844)">Hybrid AP-SP model</text>
    <text style="font: 5px 'Arial'" transform="translate(191.739844 16.26)">Precision - Recall (PR) curve</text>
   </g>
   <g id="legend_1">
    <g id="patch_8">
     <path d="M 163.116406 352.786587 
L 284.542969 352.786587 
Q 285.542969 352.786587 285.542969 351.786587 
L 285.542969 345.0944 
Q 285.542969 344.0944 284.542969 344.0944 
L 163.116406 344.0944 
Q 162.116406 344.0944 162.116406 345.0944 
L 162.116406 351.786587 
Q 162.116406 352.786587 163.116406 352.786587 
z
" style="fill: #ffffff; opacity: 0.8; stroke: #cccccc; stroke-linejoin: miter"/>
    </g>
    <g id="line2d_16">
     <path d="M 164.116406 347.984244 
L 169.116406 347.984244 
L 174.116406 347.984244 
" style="fill: none; stroke: #ff0000; stroke-width: 1.5; stroke-linecap: square"/>
    </g>
    <g id="text_16">
     <text style="font: 5px 'Arial'; text-anchor: start" x="178.116406" y="349.734244" transform="rotate(-0 178.116406 349.734244)">model performance</text>
    </g>
    <g id="line2d_17">
     <path d="M 231.189063 347.984244 
L 236.189063 347.984244 
L 241.189063 347.984244 
" style="fill: none; stroke: #00bfbf; stroke-width: 1.5; stroke-linecap: square"/>
    </g>
    <g id="text_17">
     <text style="font: 5px 'Arial'; text-anchor: start" x="245.189063" y="349.734244" transform="rotate(-0 245.189063 349.734244)">random guessing</text>
    </g>
   </g>
  </g>
 </g>
 <defs>
  <clipPath id="p2a2d68c1eb">
   <rect x="45.269688" y="22.26" width="357.12" height="266.112"/>
  </clipPath>
 </defs>
</svg>
