<?xml version="1.0" encoding="utf-8" standalone="no"?>
<!DOCTYPE svg PUBLIC "-//W3C//DTD SVG 1.1//EN"
  "http://www.w3.org/Graphics/SVG/1.1/DTD/svg11.dtd">
<svg xmlns:xlink="http://www.w3.org/1999/xlink" width="606.303125pt" height="439.248375pt" viewBox="0 0 606.303125 439.248375" xmlns="http://www.w3.org/2000/svg" version="1.1">
 <metadata>
  <rdf:RDF xmlns:dc="http://purl.org/dc/elements/1.1/" xmlns:cc="http://creativecommons.org/ns#" xmlns:rdf="http://www.w3.org/1999/02/22-rdf-syntax-ns#">
   <cc:Work>
    <dc:type rdf:resource="http://purl.org/dc/dcmitype/StillImage"/>
    <dc:date>2024-09-24T11:17:32.533177</dc:date>
    <dc:format>image/svg+xml</dc:format>
    <dc:creator>
     <cc:Agent>
      <dc:title>Matplotlib v3.7.0, https://matplotlib.org/</dc:title>
     </cc:Agent>
    </dc:creator>
   </cc:Work>
  </rdf:RDF>
 </metadata>
 <defs>
  <style type="text/css">*{stroke-linejoin: round; stroke-linecap: butt}</style>
 </defs>
 <g id="figure_1">
  <g id="patch_1">
   <path d="M -0 439.248375 
L 606.303125 439.248375 
L 606.303125 0 
L -0 0 
z
" style="fill: #ffffff"/>
  </g>
  <g id="axes_1">
   <g id="patch_2">
    <path d="M 124.591562 328.9341 
L 481.711563 328.9341 
L 481.711563 62.8221 
L 124.591562 62.8221 
z
" style="fill: #ffffff"/>
   </g>
   <g id="patch_3">
    <path d="M 481.711563 62.8221 
L 482.954606 71.186167 
L 479.637533 70.655567 
L 465.24923 120.601245 
L 464.900064 120.545393 
L 479.288367 70.599715 
L 475.971294 70.069115 
z
" clip-path="url(#pe12340a798)" style="fill: #1f77b4; stroke: #000000; stroke-linejoin: miter"/>
   </g>
   <g id="matplotlib.axis_1">
    <g id="xtick_1">
     <g id="line2d_1">
      <defs>
       <path id="mc13f49b6ce" d="M 0 0 
L 0 3.5 
" style="stroke: #000000; stroke-width: 0.8"/>
      </defs>
      <g>
       <use xlink:href="#mc13f49b6ce" x="124.591562" y="328.9341" style="stroke: #000000; stroke-width: 0.8"/>
      </g>
     </g>
     <g id="text_1">
      <!-- 0.0 -->
      <g transform="translate(107.098125 352.650662) scale(0.22 -0.22)">
       <defs>
        <path id="DejaVuSans-30" d="M 2034 4250 
Q 1547 4250 1301 3770 
Q 1056 3291 1056 2328 
Q 1056 1369 1301 889 
Q 1547 409 2034 409 
Q 2525 409 2770 889 
Q 3016 1369 3016 2328 
Q 3016 3291 2770 3770 
Q 2525 4250 2034 4250 
z
M 2034 4750 
Q 2819 4750 3233 4129 
Q 3647 3509 3647 2328 
Q 3647 1150 3233 529 
Q 2819 -91 2034 -91 
Q 1250 -91 836 529 
Q 422 1150 422 2328 
Q 422 3509 836 4129 
Q 1250 4750 2034 4750 
z
" transform="scale(0.015625)"/>
        <path id="DejaVuSans-2e" d="M 684 794 
L 1344 794 
L 1344 0 
L 684 0 
L 684 794 
z
" transform="scale(0.015625)"/>
       </defs>
       <use xlink:href="#DejaVuSans-30"/>
       <use xlink:href="#DejaVuSans-2e" x="63.623047"/>
       <use xlink:href="#DejaVuSans-30" x="95.410156"/>
      </g>
     </g>
    </g>
    <g id="xtick_2">
     <g id="line2d_2">
      <g>
       <use xlink:href="#mc13f49b6ce" x="196.015562" y="328.9341" style="stroke: #000000; stroke-width: 0.8"/>
      </g>
     </g>
     <g id="text_2">
      <!-- 0.2 -->
      <g transform="translate(178.522125 352.650662) scale(0.22 -0.22)">
       <defs>
        <path id="DejaVuSans-32" d="M 1228 531 
L 3431 531 
L 3431 0 
L 469 0 
L 469 531 
Q 828 903 1448 1529 
Q 2069 2156 2228 2338 
Q 2531 2678 2651 2914 
Q 2772 3150 2772 3378 
Q 2772 3750 2511 3984 
Q 2250 4219 1831 4219 
Q 1534 4219 1204 4116 
Q 875 4013 500 3803 
L 500 4441 
Q 881 4594 1212 4672 
Q 1544 4750 1819 4750 
Q 2544 4750 2975 4387 
Q 3406 4025 3406 3419 
Q 3406 3131 3298 2873 
Q 3191 2616 2906 2266 
Q 2828 2175 2409 1742 
Q 1991 1309 1228 531 
z
" transform="scale(0.015625)"/>
       </defs>
       <use xlink:href="#DejaVuSans-30"/>
       <use xlink:href="#DejaVuSans-2e" x="63.623047"/>
       <use xlink:href="#DejaVuSans-32" x="95.410156"/>
      </g>
     </g>
    </g>
    <g id="xtick_3">
     <g id="line2d_3">
      <g>
       <use xlink:href="#mc13f49b6ce" x="267.439562" y="328.9341" style="stroke: #000000; stroke-width: 0.8"/>
      </g>
     </g>
     <g id="text_3">
      <!-- 0.4 -->
      <g transform="translate(249.946125 352.650662) scale(0.22 -0.22)">
       <defs>
        <path id="DejaVuSans-34" d="M 2419 4116 
L 825 1625 
L 2419 1625 
L 2419 4116 
z
M 2253 4666 
L 3047 4666 
L 3047 1625 
L 3713 1625 
L 3713 1100 
L 3047 1100 
L 3047 0 
L 2419 0 
L 2419 1100 
L 313 1100 
L 313 1709 
L 2253 4666 
z
" transform="scale(0.015625)"/>
       </defs>
       <use xlink:href="#DejaVuSans-30"/>
       <use xlink:href="#DejaVuSans-2e" x="63.623047"/>
       <use xlink:href="#DejaVuSans-34" x="95.410156"/>
      </g>
     </g>
    </g>
    <g id="xtick_4">
     <g id="line2d_4">
      <g>
       <use xlink:href="#mc13f49b6ce" x="338.863563" y="328.9341" style="stroke: #000000; stroke-width: 0.8"/>
      </g>
     </g>
     <g id="text_4">
      <!-- 0.6 -->
      <g transform="translate(321.370125 352.650662) scale(0.22 -0.22)">
       <defs>
        <path id="DejaVuSans-36" d="M 2113 2584 
Q 1688 2584 1439 2293 
Q 1191 2003 1191 1497 
Q 1191 994 1439 701 
Q 1688 409 2113 409 
Q 2538 409 2786 701 
Q 3034 994 3034 1497 
Q 3034 2003 2786 2293 
Q 2538 2584 2113 2584 
z
M 3366 4563 
L 3366 3988 
Q 3128 4100 2886 4159 
Q 2644 4219 2406 4219 
Q 1781 4219 1451 3797 
Q 1122 3375 1075 2522 
Q 1259 2794 1537 2939 
Q 1816 3084 2150 3084 
Q 2853 3084 3261 2657 
Q 3669 2231 3669 1497 
Q 3669 778 3244 343 
Q 2819 -91 2113 -91 
Q 1303 -91 875 529 
Q 447 1150 447 2328 
Q 447 3434 972 4092 
Q 1497 4750 2381 4750 
Q 2619 4750 2861 4703 
Q 3103 4656 3366 4563 
z
" transform="scale(0.015625)"/>
       </defs>
       <use xlink:href="#DejaVuSans-30"/>
       <use xlink:href="#DejaVuSans-2e" x="63.623047"/>
       <use xlink:href="#DejaVuSans-36" x="95.410156"/>
      </g>
     </g>
    </g>
    <g id="xtick_5">
     <g id="line2d_5">
      <g>
       <use xlink:href="#mc13f49b6ce" x="410.287562" y="328.9341" style="stroke: #000000; stroke-width: 0.8"/>
      </g>
     </g>
     <g id="text_5">
      <!-- 0.8 -->
      <g transform="translate(392.794125 352.650662) scale(0.22 -0.22)">
       <defs>
        <path id="DejaVuSans-38" d="M 2034 2216 
Q 1584 2216 1326 1975 
Q 1069 1734 1069 1313 
Q 1069 891 1326 650 
Q 1584 409 2034 409 
Q 2484 409 2743 651 
Q 3003 894 3003 1313 
Q 3003 1734 2745 1975 
Q 2488 2216 2034 2216 
z
M 1403 2484 
Q 997 2584 770 2862 
Q 544 3141 544 3541 
Q 544 4100 942 4425 
Q 1341 4750 2034 4750 
Q 2731 4750 3128 4425 
Q 3525 4100 3525 3541 
Q 3525 3141 3298 2862 
Q 3072 2584 2669 2484 
Q 3125 2378 3379 2068 
Q 3634 1759 3634 1313 
Q 3634 634 3220 271 
Q 2806 -91 2034 -91 
Q 1263 -91 848 271 
Q 434 634 434 1313 
Q 434 1759 690 2068 
Q 947 2378 1403 2484 
z
M 1172 3481 
Q 1172 3119 1398 2916 
Q 1625 2713 2034 2713 
Q 2441 2713 2670 2916 
Q 2900 3119 2900 3481 
Q 2900 3844 2670 4047 
Q 2441 4250 2034 4250 
Q 1625 4250 1398 4047 
Q 1172 3844 1172 3481 
z
" transform="scale(0.015625)"/>
       </defs>
       <use xlink:href="#DejaVuSans-30"/>
       <use xlink:href="#DejaVuSans-2e" x="63.623047"/>
       <use xlink:href="#DejaVuSans-38" x="95.410156"/>
      </g>
     </g>
    </g>
    <g id="xtick_6">
     <g id="line2d_6">
      <g>
       <use xlink:href="#mc13f49b6ce" x="481.711563" y="328.9341" style="stroke: #000000; stroke-width: 0.8"/>
      </g>
     </g>
     <g id="text_6">
      <!-- 1.0 -->
      <g transform="translate(464.218125 352.650662) scale(0.22 -0.22)">
       <defs>
        <path id="DejaVuSans-31" d="M 794 531 
L 1825 531 
L 1825 4091 
L 703 3866 
L 703 4441 
L 1819 4666 
L 2450 4666 
L 2450 531 
L 3481 531 
L 3481 0 
L 794 0 
L 794 531 
z
" transform="scale(0.015625)"/>
       </defs>
       <use xlink:href="#DejaVuSans-31"/>
       <use xlink:href="#DejaVuSans-2e" x="63.623047"/>
       <use xlink:href="#DejaVuSans-30" x="95.410156"/>
      </g>
     </g>
    </g>
    <g id="text_7">
     <!-- Recall -->
     <g transform="translate(270.33375 377.942537) scale(0.22 -0.22)">
      <defs>
       <path id="DejaVuSans-52" d="M 2841 2188 
Q 3044 2119 3236 1894 
Q 3428 1669 3622 1275 
L 4263 0 
L 3584 0 
L 2988 1197 
Q 2756 1666 2539 1819 
Q 2322 1972 1947 1972 
L 1259 1972 
L 1259 0 
L 628 0 
L 628 4666 
L 2053 4666 
Q 2853 4666 3247 4331 
Q 3641 3997 3641 3322 
Q 3641 2881 3436 2590 
Q 3231 2300 2841 2188 
z
M 1259 4147 
L 1259 2491 
L 2053 2491 
Q 2509 2491 2742 2702 
Q 2975 2913 2975 3322 
Q 2975 3731 2742 3939 
Q 2509 4147 2053 4147 
L 1259 4147 
z
" transform="scale(0.015625)"/>
       <path id="DejaVuSans-65" d="M 3597 1894 
L 3597 1613 
L 953 1613 
Q 991 1019 1311 708 
Q 1631 397 2203 397 
Q 2534 397 2845 478 
Q 3156 559 3463 722 
L 3463 178 
Q 3153 47 2828 -22 
Q 2503 -91 2169 -91 
Q 1331 -91 842 396 
Q 353 884 353 1716 
Q 353 2575 817 3079 
Q 1281 3584 2069 3584 
Q 2775 3584 3186 3129 
Q 3597 2675 3597 1894 
z
M 3022 2063 
Q 3016 2534 2758 2815 
Q 2500 3097 2075 3097 
Q 1594 3097 1305 2825 
Q 1016 2553 972 2059 
L 3022 2063 
z
" transform="scale(0.015625)"/>
       <path id="DejaVuSans-63" d="M 3122 3366 
L 3122 2828 
Q 2878 2963 2633 3030 
Q 2388 3097 2138 3097 
Q 1578 3097 1268 2742 
Q 959 2388 959 1747 
Q 959 1106 1268 751 
Q 1578 397 2138 397 
Q 2388 397 2633 464 
Q 2878 531 3122 666 
L 3122 134 
Q 2881 22 2623 -34 
Q 2366 -91 2075 -91 
Q 1284 -91 818 406 
Q 353 903 353 1747 
Q 353 2603 823 3093 
Q 1294 3584 2113 3584 
Q 2378 3584 2631 3529 
Q 2884 3475 3122 3366 
z
" transform="scale(0.015625)"/>
       <path id="DejaVuSans-61" d="M 2194 1759 
Q 1497 1759 1228 1600 
Q 959 1441 959 1056 
Q 959 750 1161 570 
Q 1363 391 1709 391 
Q 2188 391 2477 730 
Q 2766 1069 2766 1631 
L 2766 1759 
L 2194 1759 
z
M 3341 1997 
L 3341 0 
L 2766 0 
L 2766 531 
Q 2569 213 2275 61 
Q 1981 -91 1556 -91 
Q 1019 -91 701 211 
Q 384 513 384 1019 
Q 384 1609 779 1909 
Q 1175 2209 1959 2209 
L 2766 2209 
L 2766 2266 
Q 2766 2663 2505 2880 
Q 2244 3097 1772 3097 
Q 1472 3097 1187 3025 
Q 903 2953 641 2809 
L 641 3341 
Q 956 3463 1253 3523 
Q 1550 3584 1831 3584 
Q 2591 3584 2966 3190 
Q 3341 2797 3341 1997 
z
" transform="scale(0.015625)"/>
       <path id="DejaVuSans-6c" d="M 603 4863 
L 1178 4863 
L 1178 0 
L 603 0 
L 603 4863 
z
" transform="scale(0.015625)"/>
      </defs>
      <use xlink:href="#DejaVuSans-52"/>
      <use xlink:href="#DejaVuSans-65" x="64.982422"/>
      <use xlink:href="#DejaVuSans-63" x="126.505859"/>
      <use xlink:href="#DejaVuSans-61" x="181.486328"/>
      <use xlink:href="#DejaVuSans-6c" x="242.765625"/>
      <use xlink:href="#DejaVuSans-6c" x="270.548828"/>
     </g>
    </g>
   </g>
   <g id="matplotlib.axis_2">
    <g id="ytick_1">
     <g id="line2d_7">
      <defs>
       <path id="m22303bab2b" d="M 0 0 
L -3.5 0 
" style="stroke: #000000; stroke-width: 0.8"/>
      </defs>
      <g>
       <use xlink:href="#m22303bab2b" x="124.591562" y="328.9341" style="stroke: #000000; stroke-width: 0.8"/>
      </g>
     </g>
     <g id="text_8">
      <!-- 0.0 -->
      <g transform="translate(82.604687 337.292381) scale(0.22 -0.22)">
       <use xlink:href="#DejaVuSans-30"/>
       <use xlink:href="#DejaVuSans-2e" x="63.623047"/>
       <use xlink:href="#DejaVuSans-30" x="95.410156"/>
      </g>
     </g>
    </g>
    <g id="ytick_2">
     <g id="line2d_8">
      <g>
       <use xlink:href="#m22303bab2b" x="124.591562" y="275.7117" style="stroke: #000000; stroke-width: 0.8"/>
      </g>
     </g>
     <g id="text_9">
      <!-- 0.2 -->
      <g transform="translate(82.604687 284.069981) scale(0.22 -0.22)">
       <use xlink:href="#DejaVuSans-30"/>
       <use xlink:href="#DejaVuSans-2e" x="63.623047"/>
       <use xlink:href="#DejaVuSans-32" x="95.410156"/>
      </g>
     </g>
    </g>
    <g id="ytick_3">
     <g id="line2d_9">
      <g>
       <use xlink:href="#m22303bab2b" x="124.591562" y="222.4893" style="stroke: #000000; stroke-width: 0.8"/>
      </g>
     </g>
     <g id="text_10">
      <!-- 0.4 -->
      <g transform="translate(82.604687 230.847581) scale(0.22 -0.22)">
       <use xlink:href="#DejaVuSans-30"/>
       <use xlink:href="#DejaVuSans-2e" x="63.623047"/>
       <use xlink:href="#DejaVuSans-34" x="95.410156"/>
      </g>
     </g>
    </g>
    <g id="ytick_4">
     <g id="line2d_10">
      <g>
       <use xlink:href="#m22303bab2b" x="124.591562" y="169.2669" style="stroke: #000000; stroke-width: 0.8"/>
      </g>
     </g>
     <g id="text_11">
      <!-- 0.6 -->
      <g transform="translate(82.604687 177.625181) scale(0.22 -0.22)">
       <use xlink:href="#DejaVuSans-30"/>
       <use xlink:href="#DejaVuSans-2e" x="63.623047"/>
       <use xlink:href="#DejaVuSans-36" x="95.410156"/>
      </g>
     </g>
    </g>
    <g id="ytick_5">
     <g id="line2d_11">
      <g>
       <use xlink:href="#m22303bab2b" x="124.591562" y="116.0445" style="stroke: #000000; stroke-width: 0.8"/>
      </g>
     </g>
     <g id="text_12">
      <!-- 0.8 -->
      <g transform="translate(82.604687 124.402781) scale(0.22 -0.22)">
       <use xlink:href="#DejaVuSans-30"/>
       <use xlink:href="#DejaVuSans-2e" x="63.623047"/>
       <use xlink:href="#DejaVuSans-38" x="95.410156"/>
      </g>
     </g>
    </g>
    <g id="ytick_6">
     <g id="line2d_12">
      <g>
       <use xlink:href="#m22303bab2b" x="124.591562" y="62.8221" style="stroke: #000000; stroke-width: 0.8"/>
      </g>
     </g>
     <g id="text_13">
      <!-- 1.0 -->
      <g transform="translate(82.604687 71.180381) scale(0.22 -0.22)">
       <use xlink:href="#DejaVuSans-31"/>
       <use xlink:href="#DejaVuSans-2e" x="63.623047"/>
       <use xlink:href="#DejaVuSans-30" x="95.410156"/>
      </g>
     </g>
    </g>
    <g id="text_14">
     <!-- Precision -->
     <g transform="translate(74.029375 244.953569) rotate(-90) scale(0.22 -0.22)">
      <defs>
       <path id="DejaVuSans-50" d="M 1259 4147 
L 1259 2394 
L 2053 2394 
Q 2494 2394 2734 2622 
Q 2975 2850 2975 3272 
Q 2975 3691 2734 3919 
Q 2494 4147 2053 4147 
L 1259 4147 
z
M 628 4666 
L 2053 4666 
Q 2838 4666 3239 4311 
Q 3641 3956 3641 3272 
Q 3641 2581 3239 2228 
Q 2838 1875 2053 1875 
L 1259 1875 
L 1259 0 
L 628 0 
L 628 4666 
z
" transform="scale(0.015625)"/>
       <path id="DejaVuSans-72" d="M 2631 2963 
Q 2534 3019 2420 3045 
Q 2306 3072 2169 3072 
Q 1681 3072 1420 2755 
Q 1159 2438 1159 1844 
L 1159 0 
L 581 0 
L 581 3500 
L 1159 3500 
L 1159 2956 
Q 1341 3275 1631 3429 
Q 1922 3584 2338 3584 
Q 2397 3584 2469 3576 
Q 2541 3569 2628 3553 
L 2631 2963 
z
" transform="scale(0.015625)"/>
       <path id="DejaVuSans-69" d="M 603 3500 
L 1178 3500 
L 1178 0 
L 603 0 
L 603 3500 
z
M 603 4863 
L 1178 4863 
L 1178 4134 
L 603 4134 
L 603 4863 
z
" transform="scale(0.015625)"/>
       <path id="DejaVuSans-73" d="M 2834 3397 
L 2834 2853 
Q 2591 2978 2328 3040 
Q 2066 3103 1784 3103 
Q 1356 3103 1142 2972 
Q 928 2841 928 2578 
Q 928 2378 1081 2264 
Q 1234 2150 1697 2047 
L 1894 2003 
Q 2506 1872 2764 1633 
Q 3022 1394 3022 966 
Q 3022 478 2636 193 
Q 2250 -91 1575 -91 
Q 1294 -91 989 -36 
Q 684 19 347 128 
L 347 722 
Q 666 556 975 473 
Q 1284 391 1588 391 
Q 1994 391 2212 530 
Q 2431 669 2431 922 
Q 2431 1156 2273 1281 
Q 2116 1406 1581 1522 
L 1381 1569 
Q 847 1681 609 1914 
Q 372 2147 372 2553 
Q 372 3047 722 3315 
Q 1072 3584 1716 3584 
Q 2034 3584 2315 3537 
Q 2597 3491 2834 3397 
z
" transform="scale(0.015625)"/>
       <path id="DejaVuSans-6f" d="M 1959 3097 
Q 1497 3097 1228 2736 
Q 959 2375 959 1747 
Q 959 1119 1226 758 
Q 1494 397 1959 397 
Q 2419 397 2687 759 
Q 2956 1122 2956 1747 
Q 2956 2369 2687 2733 
Q 2419 3097 1959 3097 
z
M 1959 3584 
Q 2709 3584 3137 3096 
Q 3566 2609 3566 1747 
Q 3566 888 3137 398 
Q 2709 -91 1959 -91 
Q 1206 -91 779 398 
Q 353 888 353 1747 
Q 353 2609 779 3096 
Q 1206 3584 1959 3584 
z
" transform="scale(0.015625)"/>
       <path id="DejaVuSans-6e" d="M 3513 2113 
L 3513 0 
L 2938 0 
L 2938 2094 
Q 2938 2591 2744 2837 
Q 2550 3084 2163 3084 
Q 1697 3084 1428 2787 
Q 1159 2491 1159 1978 
L 1159 0 
L 581 0 
L 581 3500 
L 1159 3500 
L 1159 2956 
Q 1366 3272 1645 3428 
Q 1925 3584 2291 3584 
Q 2894 3584 3203 3211 
Q 3513 2838 3513 2113 
z
" transform="scale(0.015625)"/>
      </defs>
      <use xlink:href="#DejaVuSans-50"/>
      <use xlink:href="#DejaVuSans-72" x="58.552734"/>
      <use xlink:href="#DejaVuSans-65" x="97.416016"/>
      <use xlink:href="#DejaVuSans-63" x="158.939453"/>
      <use xlink:href="#DejaVuSans-69" x="213.919922"/>
      <use xlink:href="#DejaVuSans-73" x="241.703125"/>
      <use xlink:href="#DejaVuSans-69" x="293.802734"/>
      <use xlink:href="#DejaVuSans-6f" x="321.585938"/>
      <use xlink:href="#DejaVuSans-6e" x="382.767578"/>
     </g>
    </g>
   </g>
   <g id="line2d_13">
    <path d="M 481.711563 148.874622 
L 481.711563 146.995912 
L 481.424719 147.042162 
L 481.424719 146.942166 
L 481.424719 145.225261 
L 481.137876 145.271015 
L 481.137876 145.16898 
L 481.137876 140.778687 
L 480.851032 140.823056 
L 480.851032 140.715931 
L 480.851032 139.962628 
L 480.564189 140.006759 
L 480.564189 139.898615 
L 480.564189 139.028987 
L 480.277346 139.072834 
L 480.277346 138.96353 
L 480.277346 137.863527 
L 479.990502 137.907004 
L 479.990502 137.796263 
L 479.990502 137.352015 
L 479.129972 137.482161 
L 479.129972 137.370657 
L 479.129972 136.02241 
L 478.843129 136.065368 
L 478.843129 135.269798 
L 478.269442 135.355282 
L 478.269442 135.012057 
L 477.982599 135.054748 
L 477.982599 134.825169 
L 477.695755 134.867825 
L 477.695755 134.752789 
L 477.408912 134.795452 
L 477.408912 134.218002 
L 477.122069 134.2605 
L 477.122069 133.795885 
L 476.835225 133.838258 
L 476.835225 132.075343 
L 476.261538 132.158882 
L 476.261538 132.040128 
L 475.974695 132.081926 
L 475.974695 131.724663 
L 475.687852 131.766371 
L 475.687852 131.407667 
L 475.401008 131.449284 
L 475.401008 130.848296 
L 475.114165 130.889725 
L 475.114165 130.4061 
L 474.827322 130.447385 
L 474.827322 130.082967 
L 474.540478 130.124155 
L 474.540478 129.145398 
L 474.253635 129.186238 
L 474.253635 128.93994 
L 473.966791 128.980728 
L 473.966791 128.36206 
L 473.679948 128.402642 
L 473.679948 128.153998 
L 473.106261 128.235106 
L 473.106261 127.610264 
L 472.819418 127.650631 
L 472.819418 127.273696 
L 472.532575 127.313953 
L 472.532575 127.18794 
L 472.245731 127.228194 
L 472.245731 126.468473 
L 471.958888 126.508452 
L 471.958888 126.38122 
L 471.672044 126.421194 
L 471.672044 126.038372 
L 471.385201 126.078231 
L 471.385201 125.950246 
L 470.811514 126.030004 
L 470.811514 125.644743 
L 470.524671 125.684529 
L 470.524671 125.555727 
L 469.950984 125.635339 
L 469.950984 125.118039 
L 469.664141 125.157693 
L 469.664141 124.376441 
L 469.377297 124.415798 
L 469.377297 124.284948 
L 469.090454 124.324297 
L 469.090454 124.193221 
L 468.803611 124.232562 
L 468.803611 124.101258 
L 468.516767 124.14059 
L 468.516767 123.74549 
L 468.229924 123.784695 
L 468.229924 123.122495 
L 467.943081 123.161449 
L 467.943081 123.028435 
L 467.656237 123.067378 
L 467.656237 122.800711 
L 467.369394 122.839583 
L 467.369394 122.4381 
L 467.08255 122.476837 
L 467.08255 122.208187 
L 466.795707 122.24685 
L 466.795707 122.1122 
L 466.508864 122.150851 
L 466.508864 121.880899 
L 466.22202 121.919474 
L 466.22202 121.241183 
L 465.935177 121.27949 
L 465.935177 121.143234 
L 465.648334 121.181527 
L 465.648334 121.045028 
L 465.36149 121.083307 
L 465.36149 120.809639 
L 465.074647 120.847839 
L 465.074647 120.573319 
L 463.066743 120.841217 
L 463.066743 120.703225 
L 462.7799 120.741633 
L 462.7799 120.464965 
L 462.206213 120.541669 
L 462.206213 120.402926 
L 461.91937 120.441287 
L 461.91937 120.023745 
L 461.632526 120.061956 
L 461.632526 119.642534 
L 460.485153 119.795072 
L 460.485153 119.513971 
L 459.624623 119.6285 
L 459.624623 119.204804 
L 459.337779 119.242875 
L 459.337779 118.959317 
L 459.050936 118.997299 
L 459.050936 118.855162 
L 458.477249 118.931139 
L 458.477249 118.503143 
L 457.903563 118.5789 
L 457.903563 118.292313 
L 457.329876 118.367988 
L 457.329876 118.224257 
L 456.469346 118.337941 
L 456.469346 117.904913 
L 456.182502 117.942693 
L 456.182502 117.362249 
L 455.895659 117.399785 
L 455.895659 117.2541 
L 455.608816 117.291613 
L 455.608816 116.999491 
L 455.321972 117.036907 
L 455.321972 116.743826 
L 454.748285 116.81851 
L 454.748285 116.376909 
L 454.461442 116.4141 
L 454.461442 116.266414 
L 454.174599 116.30358 
L 454.174599 116.155611 
L 453.600912 116.229944 
L 453.600912 116.081615 
L 453.314069 116.118781 
L 453.314069 115.523077 
L 453.027225 115.559982 
L 453.027225 115.410456 
L 452.453538 115.484264 
L 452.453538 115.33437 
L 452.166695 115.371272 
L 452.166695 115.070691 
L 451.306165 115.181231 
L 451.306165 115.030382 
L 450.732478 115.104175 
L 450.732478 114.497995 
L 450.445635 114.534645 
L 450.445635 113.924689 
L 449.871948 113.997485 
L 449.871948 113.844287 
L 449.585105 113.880679 
L 449.585105 113.727179 
L 447.577201 113.9828 
L 447.577201 113.673962 
L 447.290358 113.71052 
L 447.290358 113.555683 
L 447.003514 113.592208 
L 447.003514 113.437063 
L 446.716671 113.473555 
L 446.716671 113.3181 
L 446.142984 113.391071 
L 446.142984 112.295355 
L 445.856141 112.331309 
L 445.856141 111.223771 
L 444.421924 111.401197 
L 444.421924 110.279067 
L 443.848237 110.349114 
L 443.848237 110.026002 
L 443.561394 110.060917 
L 443.561394 109.898908 
L 442.700864 110.003679 
L 442.700864 109.515358 
L 442.41402 109.5501 
L 442.41402 108.730892 
L 441.840334 108.799566 
L 441.840334 108.469776 
L 441.55349 108.503995 
L 441.55349 108.007158 
L 440.69296 108.109233 
L 440.69296 107.942823 
L 439.83243 108.045061 
L 439.83243 107.8781 
L 439.545587 107.912182 
L 439.545587 107.409478 
L 439.258743 107.443308 
L 439.258743 106.260672 
L 438.398213 106.360302 
L 438.398213 106.190008 
L 437.824526 106.256472 
L 437.824526 106.085707 
L 437.537683 106.11891 
L 437.537683 105.776381 
L 436.963996 105.842516 
L 436.963996 105.670642 
L 436.677153 105.703679 
L 436.677153 104.666202 
L 436.390309 104.69864 
L 436.390309 104.524679 
L 436.103466 104.557057 
L 436.103466 104.382715 
L 435.816623 104.415033 
L 435.816623 104.065315 
L 434.382406 104.226547 
L 434.382406 103.521582 
L 433.808719 103.585525 
L 433.808719 102.696926 
L 433.521876 102.728398 
L 433.521876 102.370761 
L 432.661346 102.464775 
L 432.661346 102.28518 
L 431.513972 102.410759 
L 431.513972 102.230406 
L 431.227129 102.261807 
L 431.227129 102.081047 
L 430.940285 102.112379 
L 430.940285 101.749755 
L 430.653442 101.780897 
L 430.653442 101.416869 
L 429.219225 101.572118 
L 429.219225 100.8381 
L 428.932382 100.868808 
L 428.932382 100.49977 
L 428.071852 100.591443 
L 428.071852 100.220456 
L 427.211322 100.31182 
L 427.211322 100.125494 
L 426.924478 100.155921 
L 426.924478 99.407056 
L 426.063948 99.497093 
L 426.063948 98.55213 
L 424.916575 98.670245 
L 424.916575 98.479787 
L 423.769201 98.598153 
L 423.769201 98.406844 
L 423.195514 98.466053 
L 423.195514 98.274157 
L 422.621828 98.333293 
L 422.621828 98.140805 
L 422.334984 98.170311 
L 422.334984 97.977364 
L 421.474454 98.065768 
L 421.474454 97.872087 
L 421.187611 97.901516 
L 421.187611 97.3181 
L 420.040237 97.434641 
L 420.040237 97.238952 
L 418.60602 97.385034 
L 418.60602 97.188306 
L 418.319177 97.217529 
L 418.319177 97.020323 
L 417.74549 97.078632 
L 417.74549 96.682636 
L 417.458647 96.711577 
L 417.458647 96.512926 
L 417.171803 96.541771 
L 417.171803 96.342635 
L 416.88496 96.371383 
L 416.88496 96.171758 
L 416.598117 96.200409 
L 416.598117 95.397879 
L 416.311273 95.425986 
L 416.311273 95.224338 
L 416.02443 95.252344 
L 416.02443 95.050197 
L 415.737587 95.0781 
L 415.737587 94.672452 
L 415.450743 94.7001 
L 415.450743 94.496595 
L 414.877056 94.551729 
L 414.877056 93.938163 
L 414.016526 94.019832 
L 414.016526 93.608063 
L 413.44284 93.662121 
L 413.44284 93.455379 
L 412.582309 93.536348 
L 412.582309 93.120818 
L 412.295466 93.147584 
L 412.295466 92.730263 
L 411.434936 92.809876 
L 411.434936 92.3901 
L 411.148093 92.416406 
L 411.148093 92.205794 
L 410.861249 92.231982 
L 410.861249 92.02083 
L 410.574406 92.0469 
L 410.574406 91.62313 
L 410.000719 91.674745 
L 410.000719 91.461957 
L 409.713876 91.487666 
L 409.713876 91.274326 
L 407.992816 91.428539 
L 407.992816 91.213796 
L 406.558599 91.342732 
L 406.558599 91.12674 
L 405.698069 91.204146 
L 405.698069 90.987239 
L 405.124382 91.038729 
L 405.124382 90.821075 
L 404.837538 90.846715 
L 404.837538 90.628487 
L 404.263852 90.679555 
L 404.263852 90.460571 
L 403.403322 90.53699 
L 403.403322 90.096737 
L 401.682261 90.248685 
L 401.682261 90.026858 
L 399.961201 90.179408 
L 399.961201 89.956064 
L 399.674358 89.981471 
L 399.674358 89.533154 
L 398.813828 89.608538 
L 398.813828 89.157406 
L 396.232237 89.382708 
L 396.232237 89.154781 
L 395.945394 89.17986 
L 395.945394 88.951305 
L 393.07696 89.202789 
L 393.07696 88.971834 
L 392.21643 89.04763 
L 392.21643 88.815632 
L 391.929587 88.840795 
L 391.929587 88.608147 
L 390.782213 88.708481 
L 390.782213 88.474571 
L 390.208526 88.524625 
L 390.208526 88.054616 
L 387.913779 88.253493 
L 387.913779 88.016136 
L 386.766406 88.115914 
L 386.766406 87.877244 
L 386.479562 87.9021 
L 386.479562 87.422911 
L 385.905876 87.471917 
L 385.905876 87.231177 
L 384.758502 87.328911 
L 384.758502 87.086821 
L 384.184816 87.135546 
L 384.184816 86.892532 
L 383.324285 86.965326 
L 383.324285 86.72116 
L 383.037442 86.7453 
L 383.037442 86.255039 
L 382.750599 86.278781 
L 382.750599 86.03268 
L 381.890069 86.103516 
L 381.890069 85.856234 
L 381.603225 85.879715 
L 381.603225 85.6317 
L 379.595322 85.795798 
L 379.595322 85.545656 
L 377.874261 85.686796 
L 377.874261 85.434726 
L 376.726888 85.528847 
L 376.726888 85.2753 
L 375.866358 85.345686 
L 375.866358 85.090887 
L 375.292671 85.137572 
L 375.292671 84.625394 
L 373.571611 84.763681 
L 373.571611 84.246371 
L 372.711081 84.314674 
L 372.711081 84.05444 
L 369.842647 84.282745 
L 369.842647 84.019396 
L 368.982117 84.08807 
L 368.982117 83.823371 
L 368.695273 83.8461 
L 368.695273 83.580566 
L 368.40843 83.60308 
L 368.40843 83.336706 
L 367.834743 83.381351 
L 367.834743 82.845795 
L 366.400526 82.955574 
L 366.400526 82.685564 
L 366.113683 82.707392 
L 366.113683 82.436516 
L 363.245249 82.654696 
L 363.245249 82.380443 
L 362.384719 82.446002 
L 362.384719 81.893957 
L 361.811032 81.936767 
L 361.811032 81.102316 
L 360.663659 81.185032 
L 360.663659 80.904456 
L 358.082069 81.090658 
L 358.082069 80.80676 
L 356.074165 80.952132 
L 356.074165 80.665448 
L 355.213635 80.727548 
L 355.213635 80.439271 
L 354.639948 80.480289 
L 354.639948 80.190715 
L 352.345201 80.354185 
L 352.345201 80.061393 
L 351.484671 80.122526 
L 351.484671 79.828074 
L 350.624141 79.888665 
L 350.624141 79.592535 
L 346.895177 79.855839 
L 346.895177 79.554656 
L 345.747803 79.635981 
L 345.747803 79.332699 
L 344.60043 79.413435 
L 344.60043 79.108024 
L 341.731996 79.309832 
L 341.731996 79.000125 
L 340.297779 79.101111 
L 340.297779 78.78882 
L 339.724093 78.828837 
L 339.724093 78.515028 
L 338.863563 78.574322 
L 338.863563 78.258609 
L 335.708285 78.475747 
L 335.708285 78.155058 
L 333.413538 78.313743 
L 333.413538 77.989105 
L 332.839852 78.0285 
L 332.839852 77.702225 
L 327.676671 78.058872 
L 327.676671 77.388979 
L 317.637153 78.103041 
L 317.637153 77.751244 
L 312.473972 78.137899 
L 312.473972 77.776521 
L 309.318695 78.017368 
L 309.318695 77.649455 
L 308.458165 77.714966 
L 308.458165 77.344436 
L 307.884478 77.387402 
L 307.884478 77.01474 
L 307.023948 77.0781 
L 307.023948 76.702756 
L 302.721297 77.020149 
L 302.721297 76.635547 
L 300.713394 76.784767 
L 300.713394 76.395046 
L 300.42655 76.416057 
L 300.42655 76.024556 
L 291.247562 76.713754 
L 291.247562 76.301629 
L 285.797538 76.73352 
L 285.797538 76.307505 
L 283.502791 76.492237 
L 283.502791 76.059232 
L 278.913297 76.432767 
L 278.913297 75.986651 
L 272.889587 76.493909 
L 272.889587 76.029865 
L 270.021153 76.277201 
L 270.021153 75.803173 
L 264.571129 76.283018 
L 264.571129 75.790521 
L 262.276382 75.995961 
L 262.276382 75.4941 
L 261.989538 75.519293 
L 261.989538 75.014482 
L 253.384237 75.789422 
L 253.384237 75.25196 
L 248.221056 75.745862 
L 248.221056 75.185711 
L 236.460478 76.419064 
L 232.157828 76.9341 
L 232.157828 76.296125 
L 222.405153 77.565147 
L 221.257779 77.730335 
L 221.257779 77.024707 
L 220.397249 77.145409 
L 220.397249 76.4301 
L 211.791948 77.697926 
L 207.776141 78.3741 
L 207.776141 77.557944 
L 204.33402 78.157368 
L 204.33402 77.304386 
L 200.318213 78.0285 
L 200.318213 77.129197 
L 196.589249 77.828416 
L 196.589249 76.880847 
L 189.991852 78.217009 
L 186.836575 78.9501 
L 186.836575 77.863213 
L 185.689201 78.129427 
L 185.689201 77.01474 
L 183.107611 77.6061 
L 183.107611 76.437133 
L 181.673394 76.7613 
L 181.673394 75.554732 
L 180.812864 75.740158 
L 180.812864 74.505066 
L 179.378647 74.79714 
L 179.378647 73.52007 
L 178.80496 73.628679 
L 178.80496 72.3261 
L 176.510213 72.730526 
L 176.510213 71.360453 
L 171.633876 72.214288 
L 171.633876 70.695236 
L 166.183852 71.6925 
L 163.602261 72.258696 
L 163.602261 70.4253 
L 159.012767 71.406358 
L 155.283803 72.411722 
L 152.128526 73.46658 
L 149.260093 74.6493 
L 148.112719 75.199402 
L 148.112719 72.214288 
L 147.539032 72.440606 
L 147.539032 69.312637 
L 146.965346 69.4749 
L 146.965346 66.190606 
L 143.236382 66.8541 
L 140.367948 67.5741 
L 138.073201 68.3661 
L 136.352141 69.1581 
L 134.917924 70.014316 
L 133.483707 71.1381 
L 132.336334 72.3261 
L 131.475803 73.46658 
L 130.902117 74.392187 
L 130.902117 62.8221 
L 124.591562 62.8221 
L 124.591562 62.8221 
" clip-path="url(#pe12340a798)" style="fill: none; stroke: #ff0000; stroke-width: 1.5; stroke-linecap: square"/>
   </g>
   <g id="line2d_14">
    <defs>
     <path id="m2b2c0a9697" d="M 0 3 
C 0.795609 3 1.55874 2.683901 2.12132 2.12132 
C 2.683901 1.55874 3 0.795609 3 0 
C 3 -0.795609 2.683901 -1.55874 2.12132 -2.12132 
C 1.55874 -2.683901 0.795609 -3 0 -3 
C -0.795609 -3 -1.55874 -2.683901 -2.12132 -2.12132 
C -2.683901 -1.55874 -3 -0.795609 -3 0 
C -3 0.795609 -2.683901 1.55874 -2.12132 2.12132 
C -1.55874 2.683901 -0.795609 3 0 3 
z
" style="stroke: #000000"/>
    </defs>
    <g clip-path="url(#pe12340a798)">
     <use xlink:href="#m2b2c0a9697" x="465.074647" y="120.573319" style="fill: #ff0000; stroke: #000000"/>
    </g>
   </g>
   <g id="line2d_15">
    <path d="M 124.591562 148.874622 
L 481.711563 148.874622 
" clip-path="url(#pe12340a798)" style="fill: none; stroke: #00bfbf; stroke-width: 1.5; stroke-linecap: square"/>
   </g>
   <g id="patch_4">
    <path d="M 124.591562 328.9341 
L 124.591562 62.8221 
" style="fill: none; stroke: #000000; stroke-width: 0.8; stroke-linejoin: miter; stroke-linecap: square"/>
   </g>
   <g id="patch_5">
    <path d="M 481.711563 328.9341 
L 481.711563 62.8221 
" style="fill: none; stroke: #000000; stroke-width: 0.8; stroke-linejoin: miter; stroke-linecap: square"/>
   </g>
   <g id="patch_6">
    <path d="M 124.591562 328.9341 
L 481.711563 328.9341 
" style="fill: none; stroke: #000000; stroke-width: 0.8; stroke-linejoin: miter; stroke-linecap: square"/>
   </g>
   <g id="patch_7">
    <path d="M 124.591562 62.8221 
L 481.711563 62.8221 
" style="fill: none; stroke: #000000; stroke-width: 0.8; stroke-linejoin: miter; stroke-linecap: square"/>
   </g>
   <g id="text_15">
    <!-- Hybrid AP-SP model -->
    <g transform="translate(172.2715 27.259875) scale(0.264 -0.264)">
     <defs>
      <path id="DejaVuSans-48" d="M 628 4666 
L 1259 4666 
L 1259 2753 
L 3553 2753 
L 3553 4666 
L 4184 4666 
L 4184 0 
L 3553 0 
L 3553 2222 
L 1259 2222 
L 1259 0 
L 628 0 
L 628 4666 
z
" transform="scale(0.015625)"/>
      <path id="DejaVuSans-79" d="M 2059 -325 
Q 1816 -950 1584 -1140 
Q 1353 -1331 966 -1331 
L 506 -1331 
L 506 -850 
L 844 -850 
Q 1081 -850 1212 -737 
Q 1344 -625 1503 -206 
L 1606 56 
L 191 3500 
L 800 3500 
L 1894 763 
L 2988 3500 
L 3597 3500 
L 2059 -325 
z
" transform="scale(0.015625)"/>
      <path id="DejaVuSans-62" d="M 3116 1747 
Q 3116 2381 2855 2742 
Q 2594 3103 2138 3103 
Q 1681 3103 1420 2742 
Q 1159 2381 1159 1747 
Q 1159 1113 1420 752 
Q 1681 391 2138 391 
Q 2594 391 2855 752 
Q 3116 1113 3116 1747 
z
M 1159 2969 
Q 1341 3281 1617 3432 
Q 1894 3584 2278 3584 
Q 2916 3584 3314 3078 
Q 3713 2572 3713 1747 
Q 3713 922 3314 415 
Q 2916 -91 2278 -91 
Q 1894 -91 1617 61 
Q 1341 213 1159 525 
L 1159 0 
L 581 0 
L 581 4863 
L 1159 4863 
L 1159 2969 
z
" transform="scale(0.015625)"/>
      <path id="DejaVuSans-64" d="M 2906 2969 
L 2906 4863 
L 3481 4863 
L 3481 0 
L 2906 0 
L 2906 525 
Q 2725 213 2448 61 
Q 2172 -91 1784 -91 
Q 1150 -91 751 415 
Q 353 922 353 1747 
Q 353 2572 751 3078 
Q 1150 3584 1784 3584 
Q 2172 3584 2448 3432 
Q 2725 3281 2906 2969 
z
M 947 1747 
Q 947 1113 1208 752 
Q 1469 391 1925 391 
Q 2381 391 2643 752 
Q 2906 1113 2906 1747 
Q 2906 2381 2643 2742 
Q 2381 3103 1925 3103 
Q 1469 3103 1208 2742 
Q 947 2381 947 1747 
z
" transform="scale(0.015625)"/>
      <path id="DejaVuSans-20" transform="scale(0.015625)"/>
      <path id="DejaVuSans-41" d="M 2188 4044 
L 1331 1722 
L 3047 1722 
L 2188 4044 
z
M 1831 4666 
L 2547 4666 
L 4325 0 
L 3669 0 
L 3244 1197 
L 1141 1197 
L 716 0 
L 50 0 
L 1831 4666 
z
" transform="scale(0.015625)"/>
      <path id="DejaVuSans-2d" d="M 313 2009 
L 1997 2009 
L 1997 1497 
L 313 1497 
L 313 2009 
z
" transform="scale(0.015625)"/>
      <path id="DejaVuSans-53" d="M 3425 4513 
L 3425 3897 
Q 3066 4069 2747 4153 
Q 2428 4238 2131 4238 
Q 1616 4238 1336 4038 
Q 1056 3838 1056 3469 
Q 1056 3159 1242 3001 
Q 1428 2844 1947 2747 
L 2328 2669 
Q 3034 2534 3370 2195 
Q 3706 1856 3706 1288 
Q 3706 609 3251 259 
Q 2797 -91 1919 -91 
Q 1588 -91 1214 -16 
Q 841 59 441 206 
L 441 856 
Q 825 641 1194 531 
Q 1563 422 1919 422 
Q 2459 422 2753 634 
Q 3047 847 3047 1241 
Q 3047 1584 2836 1778 
Q 2625 1972 2144 2069 
L 1759 2144 
Q 1053 2284 737 2584 
Q 422 2884 422 3419 
Q 422 4038 858 4394 
Q 1294 4750 2059 4750 
Q 2388 4750 2728 4690 
Q 3069 4631 3425 4513 
z
" transform="scale(0.015625)"/>
      <path id="DejaVuSans-6d" d="M 3328 2828 
Q 3544 3216 3844 3400 
Q 4144 3584 4550 3584 
Q 5097 3584 5394 3201 
Q 5691 2819 5691 2113 
L 5691 0 
L 5113 0 
L 5113 2094 
Q 5113 2597 4934 2840 
Q 4756 3084 4391 3084 
Q 3944 3084 3684 2787 
Q 3425 2491 3425 1978 
L 3425 0 
L 2847 0 
L 2847 2094 
Q 2847 2600 2669 2842 
Q 2491 3084 2119 3084 
Q 1678 3084 1418 2786 
Q 1159 2488 1159 1978 
L 1159 0 
L 581 0 
L 581 3500 
L 1159 3500 
L 1159 2956 
Q 1356 3278 1631 3431 
Q 1906 3584 2284 3584 
Q 2666 3584 2933 3390 
Q 3200 3197 3328 2828 
z
" transform="scale(0.015625)"/>
     </defs>
     <use xlink:href="#DejaVuSans-48"/>
     <use xlink:href="#DejaVuSans-79" x="75.195312"/>
     <use xlink:href="#DejaVuSans-62" x="134.375"/>
     <use xlink:href="#DejaVuSans-72" x="197.851562"/>
     <use xlink:href="#DejaVuSans-69" x="238.964844"/>
     <use xlink:href="#DejaVuSans-64" x="266.748047"/>
     <use xlink:href="#DejaVuSans-20" x="330.224609"/>
     <use xlink:href="#DejaVuSans-41" x="362.011719"/>
     <use xlink:href="#DejaVuSans-50" x="430.419922"/>
     <use xlink:href="#DejaVuSans-2d" x="488.472656"/>
     <use xlink:href="#DejaVuSans-53" x="524.556641"/>
     <use xlink:href="#DejaVuSans-50" x="588.033203"/>
     <use xlink:href="#DejaVuSans-20" x="648.335938"/>
     <use xlink:href="#DejaVuSans-6d" x="680.123047"/>
     <use xlink:href="#DejaVuSans-6f" x="777.535156"/>
     <use xlink:href="#DejaVuSans-64" x="838.716797"/>
     <use xlink:href="#DejaVuSans-65" x="902.193359"/>
     <use xlink:href="#DejaVuSans-6c" x="963.716797"/>
    </g>
    <!-- Precision - Recall (PR) curve -->
    <g transform="translate(118.920812 56.8221) scale(0.264 -0.264)">
     <defs>
      <path id="DejaVuSans-28" d="M 1984 4856 
Q 1566 4138 1362 3434 
Q 1159 2731 1159 2009 
Q 1159 1288 1364 580 
Q 1569 -128 1984 -844 
L 1484 -844 
Q 1016 -109 783 600 
Q 550 1309 550 2009 
Q 550 2706 781 3412 
Q 1013 4119 1484 4856 
L 1984 4856 
z
" transform="scale(0.015625)"/>
      <path id="DejaVuSans-29" d="M 513 4856 
L 1013 4856 
Q 1481 4119 1714 3412 
Q 1947 2706 1947 2009 
Q 1947 1309 1714 600 
Q 1481 -109 1013 -844 
L 513 -844 
Q 928 -128 1133 580 
Q 1338 1288 1338 2009 
Q 1338 2731 1133 3434 
Q 928 4138 513 4856 
z
" transform="scale(0.015625)"/>
      <path id="DejaVuSans-75" d="M 544 1381 
L 544 3500 
L 1119 3500 
L 1119 1403 
Q 1119 906 1312 657 
Q 1506 409 1894 409 
Q 2359 409 2629 706 
Q 2900 1003 2900 1516 
L 2900 3500 
L 3475 3500 
L 3475 0 
L 2900 0 
L 2900 538 
Q 2691 219 2414 64 
Q 2138 -91 1772 -91 
Q 1169 -91 856 284 
Q 544 659 544 1381 
z
M 1991 3584 
L 1991 3584 
z
" transform="scale(0.015625)"/>
      <path id="DejaVuSans-76" d="M 191 3500 
L 800 3500 
L 1894 563 
L 2988 3500 
L 3597 3500 
L 2284 0 
L 1503 0 
L 191 3500 
z
" transform="scale(0.015625)"/>
     </defs>
     <use xlink:href="#DejaVuSans-50"/>
     <use xlink:href="#DejaVuSans-72" x="58.552734"/>
     <use xlink:href="#DejaVuSans-65" x="97.416016"/>
     <use xlink:href="#DejaVuSans-63" x="158.939453"/>
     <use xlink:href="#DejaVuSans-69" x="213.919922"/>
     <use xlink:href="#DejaVuSans-73" x="241.703125"/>
     <use xlink:href="#DejaVuSans-69" x="293.802734"/>
     <use xlink:href="#DejaVuSans-6f" x="321.585938"/>
     <use xlink:href="#DejaVuSans-6e" x="382.767578"/>
     <use xlink:href="#DejaVuSans-20" x="446.146484"/>
     <use xlink:href="#DejaVuSans-2d" x="477.933594"/>
     <use xlink:href="#DejaVuSans-20" x="514.017578"/>
     <use xlink:href="#DejaVuSans-52" x="545.804688"/>
     <use xlink:href="#DejaVuSans-65" x="610.787109"/>
     <use xlink:href="#DejaVuSans-63" x="672.310547"/>
     <use xlink:href="#DejaVuSans-61" x="727.291016"/>
     <use xlink:href="#DejaVuSans-6c" x="788.570312"/>
     <use xlink:href="#DejaVuSans-6c" x="816.353516"/>
     <use xlink:href="#DejaVuSans-20" x="844.136719"/>
     <use xlink:href="#DejaVuSans-28" x="875.923828"/>
     <use xlink:href="#DejaVuSans-50" x="914.9375"/>
     <use xlink:href="#DejaVuSans-52" x="975.240234"/>
     <use xlink:href="#DejaVuSans-29" x="1044.722656"/>
     <use xlink:href="#DejaVuSans-20" x="1083.736328"/>
     <use xlink:href="#DejaVuSans-63" x="1115.523438"/>
     <use xlink:href="#DejaVuSans-75" x="1170.503906"/>
     <use xlink:href="#DejaVuSans-72" x="1233.882812"/>
     <use xlink:href="#DejaVuSans-76" x="1274.996094"/>
     <use xlink:href="#DejaVuSans-65" x="1334.175781"/>
    </g>
   </g>
   <g id="legend_1">
    <g id="patch_8">
     <path d="M 11.6 432.048375 
L 594.703125 432.048375 
Q 599.103125 432.048375 599.103125 427.648375 
L 599.103125 397.5565 
Q 599.103125 393.1565 594.703125 393.1565 
L 11.6 393.1565 
Q 7.2 393.1565 7.2 397.5565 
L 7.2 427.648375 
Q 7.2 432.048375 11.6 432.048375 
z
" style="fill: #ffffff; opacity: 0.8; stroke: #cccccc; stroke-linejoin: miter"/>
    </g>
    <g id="line2d_16">
     <path d="M 16 410.973062 
L 38 410.973062 
L 60 410.973062 
" style="fill: none; stroke: #ff0000; stroke-width: 1.5; stroke-linecap: square"/>
    </g>
    <g id="text_16">
     <!-- model performance -->
     <g transform="translate(77.6 418.673062) scale(0.22 -0.22)">
      <defs>
       <path id="DejaVuSans-70" d="M 1159 525 
L 1159 -1331 
L 581 -1331 
L 581 3500 
L 1159 3500 
L 1159 2969 
Q 1341 3281 1617 3432 
Q 1894 3584 2278 3584 
Q 2916 3584 3314 3078 
Q 3713 2572 3713 1747 
Q 3713 922 3314 415 
Q 2916 -91 2278 -91 
Q 1894 -91 1617 61 
Q 1341 213 1159 525 
z
M 3116 1747 
Q 3116 2381 2855 2742 
Q 2594 3103 2138 3103 
Q 1681 3103 1420 2742 
Q 1159 2381 1159 1747 
Q 1159 1113 1420 752 
Q 1681 391 2138 391 
Q 2594 391 2855 752 
Q 3116 1113 3116 1747 
z
" transform="scale(0.015625)"/>
       <path id="DejaVuSans-66" d="M 2375 4863 
L 2375 4384 
L 1825 4384 
Q 1516 4384 1395 4259 
Q 1275 4134 1275 3809 
L 1275 3500 
L 2222 3500 
L 2222 3053 
L 1275 3053 
L 1275 0 
L 697 0 
L 697 3053 
L 147 3053 
L 147 3500 
L 697 3500 
L 697 3744 
Q 697 4328 969 4595 
Q 1241 4863 1831 4863 
L 2375 4863 
z
" transform="scale(0.015625)"/>
      </defs>
      <use xlink:href="#DejaVuSans-6d"/>
      <use xlink:href="#DejaVuSans-6f" x="97.412109"/>
      <use xlink:href="#DejaVuSans-64" x="158.59375"/>
      <use xlink:href="#DejaVuSans-65" x="222.070312"/>
      <use xlink:href="#DejaVuSans-6c" x="283.59375"/>
      <use xlink:href="#DejaVuSans-20" x="311.376953"/>
      <use xlink:href="#DejaVuSans-70" x="343.164062"/>
      <use xlink:href="#DejaVuSans-65" x="406.640625"/>
      <use xlink:href="#DejaVuSans-72" x="468.164062"/>
      <use xlink:href="#DejaVuSans-66" x="509.277344"/>
      <use xlink:href="#DejaVuSans-6f" x="544.482422"/>
      <use xlink:href="#DejaVuSans-72" x="605.664062"/>
      <use xlink:href="#DejaVuSans-6d" x="645.027344"/>
      <use xlink:href="#DejaVuSans-61" x="742.439453"/>
      <use xlink:href="#DejaVuSans-6e" x="803.71875"/>
      <use xlink:href="#DejaVuSans-63" x="867.097656"/>
      <use xlink:href="#DejaVuSans-65" x="922.078125"/>
     </g>
    </g>
    <g id="line2d_17">
     <path d="M 337.9975 410.973062 
L 359.9975 410.973062 
L 381.9975 410.973062 
" style="fill: none; stroke: #00bfbf; stroke-width: 1.5; stroke-linecap: square"/>
    </g>
    <g id="text_17">
     <!-- random guessing -->
     <g transform="translate(399.5975 418.673062) scale(0.22 -0.22)">
      <defs>
       <path id="DejaVuSans-67" d="M 2906 1791 
Q 2906 2416 2648 2759 
Q 2391 3103 1925 3103 
Q 1463 3103 1205 2759 
Q 947 2416 947 1791 
Q 947 1169 1205 825 
Q 1463 481 1925 481 
Q 2391 481 2648 825 
Q 2906 1169 2906 1791 
z
M 3481 434 
Q 3481 -459 3084 -895 
Q 2688 -1331 1869 -1331 
Q 1566 -1331 1297 -1286 
Q 1028 -1241 775 -1147 
L 775 -588 
Q 1028 -725 1275 -790 
Q 1522 -856 1778 -856 
Q 2344 -856 2625 -561 
Q 2906 -266 2906 331 
L 2906 616 
Q 2728 306 2450 153 
Q 2172 0 1784 0 
Q 1141 0 747 490 
Q 353 981 353 1791 
Q 353 2603 747 3093 
Q 1141 3584 1784 3584 
Q 2172 3584 2450 3431 
Q 2728 3278 2906 2969 
L 2906 3500 
L 3481 3500 
L 3481 434 
z
" transform="scale(0.015625)"/>
      </defs>
      <use xlink:href="#DejaVuSans-72"/>
      <use xlink:href="#DejaVuSans-61" x="41.113281"/>
      <use xlink:href="#DejaVuSans-6e" x="102.392578"/>
      <use xlink:href="#DejaVuSans-64" x="165.771484"/>
      <use xlink:href="#DejaVuSans-6f" x="229.248047"/>
      <use xlink:href="#DejaVuSans-6d" x="290.429688"/>
      <use xlink:href="#DejaVuSans-20" x="387.841797"/>
      <use xlink:href="#DejaVuSans-67" x="419.628906"/>
      <use xlink:href="#DejaVuSans-75" x="483.105469"/>
      <use xlink:href="#DejaVuSans-65" x="546.484375"/>
      <use xlink:href="#DejaVuSans-73" x="608.007812"/>
      <use xlink:href="#DejaVuSans-73" x="660.107422"/>
      <use xlink:href="#DejaVuSans-69" x="712.207031"/>
      <use xlink:href="#DejaVuSans-6e" x="739.990234"/>
      <use xlink:href="#DejaVuSans-67" x="803.369141"/>
     </g>
    </g>
   </g>
  </g>
 </g>
 <defs>
  <clipPath id="pe12340a798">
   <rect x="124.591562" y="62.8221" width="357.12" height="266.112"/>
  </clipPath>
 </defs>
</svg>
