<?xml version="1.0" encoding="utf-8" standalone="no"?>
<!DOCTYPE svg PUBLIC "-//W3C//DTD SVG 1.1//EN"
  "http://www.w3.org/Graphics/SVG/1.1/DTD/svg11.dtd">
<svg xmlns:xlink="http://www.w3.org/1999/xlink" width="242.837664pt" height="268.395694pt" viewBox="0 0 242.837664 268.395694" xmlns="http://www.w3.org/2000/svg" version="1.1">
 <metadata>
  <rdf:RDF xmlns:dc="http://purl.org/dc/elements/1.1/" xmlns:cc="http://creativecommons.org/ns#" xmlns:rdf="http://www.w3.org/1999/02/22-rdf-syntax-ns#">
   <cc:Work>
    <dc:type rdf:resource="http://purl.org/dc/dcmitype/StillImage"/>
    <dc:date>2024-09-26T14:59:56.568098</dc:date>
    <dc:format>image/svg+xml</dc:format>
    <dc:creator>
     <cc:Agent>
      <dc:title>Matplotlib v3.7.0, https://matplotlib.org/</dc:title>
     </cc:Agent>
    </dc:creator>
   </cc:Work>
  </rdf:RDF>
 </metadata>
 <defs>
  <style type="text/css">*{stroke-linejoin: round; stroke-linecap: butt}</style>
 </defs>
 <g id="figure_1">
  <g id="patch_1">
   <path d="M -0 268.395694 
L 242.837664 268.395694 
L 242.837664 0 
L -0 0 
z
" style="fill: #ffffff"/>
  </g>
  <g id="axes_1">
   <g id="patch_2">
    <path d="M 34.331719 222.324945 
L 230.772664 222.324945 
L 230.772664 25.884 
L 34.331719 25.884 
z
" style="fill: #ffffff"/>
   </g>
   <g id="patch_3">
    <path d="M 230.772664 25.884 
L 231.456424 32.058262 
L 229.631802 31.666579 
L 221.717231 68.535928 
L 221.525165 68.494698 
L 229.439737 31.625349 
L 227.615115 31.233666 
z
" clip-path="url(#pc99b1dd47c)" style="fill: #1f77b4; stroke: #000000; stroke-linejoin: miter"/>
   </g>
   <g id="matplotlib.axis_1">
    <g id="xtick_1">
     <g id="line2d_1">
      <defs>
       <path id="m9a90b34b08" d="M 0 0 
L 0 3.5 
" style="stroke: #000000; stroke-width: 0.8"/>
      </defs>
      <g>
       <use xlink:href="#m9a90b34b08" x="34.331719" y="222.324945" style="stroke: #000000; stroke-width: 0.8"/>
      </g>
     </g>
     <g id="text_1">
      <text style="font: 7px 'Arial'; text-anchor: middle" x="34.331719" y="234.335414" transform="rotate(-0 34.331719 234.335414)">0.0</text>
     </g>
    </g>
    <g id="xtick_2">
     <g id="line2d_2">
      <g>
       <use xlink:href="#m9a90b34b08" x="73.619908" y="222.324945" style="stroke: #000000; stroke-width: 0.8"/>
      </g>
     </g>
     <g id="text_2">
      <text style="font: 7px 'Arial'; text-anchor: middle" x="73.619908" y="234.335414" transform="rotate(-0 73.619908 234.335414)">0.2</text>
     </g>
    </g>
    <g id="xtick_3">
     <g id="line2d_3">
      <g>
       <use xlink:href="#m9a90b34b08" x="112.908097" y="222.324945" style="stroke: #000000; stroke-width: 0.8"/>
      </g>
     </g>
     <g id="text_3">
      <text style="font: 7px 'Arial'; text-anchor: middle" x="112.908097" y="234.335414" transform="rotate(-0 112.908097 234.335414)">0.4</text>
     </g>
    </g>
    <g id="xtick_4">
     <g id="line2d_4">
      <g>
       <use xlink:href="#m9a90b34b08" x="152.196286" y="222.324945" style="stroke: #000000; stroke-width: 0.8"/>
      </g>
     </g>
     <g id="text_4">
      <text style="font: 7px 'Arial'; text-anchor: middle" x="152.196286" y="234.335414" transform="rotate(-0 152.196286 234.335414)">0.6</text>
     </g>
    </g>
    <g id="xtick_5">
     <g id="line2d_5">
      <g>
       <use xlink:href="#m9a90b34b08" x="191.484475" y="222.324945" style="stroke: #000000; stroke-width: 0.8"/>
      </g>
     </g>
     <g id="text_5">
      <text style="font: 7px 'Arial'; text-anchor: middle" x="191.484475" y="234.335414" transform="rotate(-0 191.484475 234.335414)">0.8</text>
     </g>
    </g>
    <g id="xtick_6">
     <g id="line2d_6">
      <g>
       <use xlink:href="#m9a90b34b08" x="230.772664" y="222.324945" style="stroke: #000000; stroke-width: 0.8"/>
      </g>
     </g>
     <g id="text_6">
      <text style="font: 7px 'Arial'; text-anchor: middle" x="230.772664" y="234.335414" transform="rotate(-0 230.772664 234.335414)">1.0</text>
     </g>
    </g>
    <g id="text_7">
     <text style="font: 7px 'Arial'; text-anchor: middle" x="132.552191" y="244.737132" transform="rotate(-0 132.552191 244.737132)">Recall</text>
    </g>
   </g>
   <g id="matplotlib.axis_2">
    <g id="ytick_1">
     <g id="line2d_7">
      <defs>
       <path id="md41a523d91" d="M 0 0 
L -3.5 0 
" style="stroke: #000000; stroke-width: 0.8"/>
      </defs>
      <g>
       <use xlink:href="#md41a523d91" x="34.331719" y="222.324945" style="stroke: #000000; stroke-width: 0.8"/>
      </g>
     </g>
     <g id="text_8">
      <text style="font: 7px 'Arial'; text-anchor: end" x="27.331719" y="224.830179" transform="rotate(-0 27.331719 224.830179)">0.0</text>
     </g>
    </g>
    <g id="ytick_2">
     <g id="line2d_8">
      <g>
       <use xlink:href="#md41a523d91" x="34.331719" y="183.036756" style="stroke: #000000; stroke-width: 0.8"/>
      </g>
     </g>
     <g id="text_9">
      <text style="font: 7px 'Arial'; text-anchor: end" x="27.331719" y="185.54199" transform="rotate(-0 27.331719 185.54199)">0.2</text>
     </g>
    </g>
    <g id="ytick_3">
     <g id="line2d_9">
      <g>
       <use xlink:href="#md41a523d91" x="34.331719" y="143.748567" style="stroke: #000000; stroke-width: 0.8"/>
      </g>
     </g>
     <g id="text_10">
      <text style="font: 7px 'Arial'; text-anchor: end" x="27.331719" y="146.253801" transform="rotate(-0 27.331719 146.253801)">0.4</text>
     </g>
    </g>
    <g id="ytick_4">
     <g id="line2d_10">
      <g>
       <use xlink:href="#md41a523d91" x="34.331719" y="104.460378" style="stroke: #000000; stroke-width: 0.8"/>
      </g>
     </g>
     <g id="text_11">
      <text style="font: 7px 'Arial'; text-anchor: end" x="27.331719" y="106.965612" transform="rotate(-0 27.331719 106.965612)">0.6</text>
     </g>
    </g>
    <g id="ytick_5">
     <g id="line2d_11">
      <g>
       <use xlink:href="#md41a523d91" x="34.331719" y="65.172189" style="stroke: #000000; stroke-width: 0.8"/>
      </g>
     </g>
     <g id="text_12">
      <text style="font: 7px 'Arial'; text-anchor: end" x="27.331719" y="67.677423" transform="rotate(-0 27.331719 67.677423)">0.8</text>
     </g>
    </g>
    <g id="ytick_6">
     <g id="line2d_12">
      <g>
       <use xlink:href="#md41a523d91" x="34.331719" y="25.884" style="stroke: #000000; stroke-width: 0.8"/>
      </g>
     </g>
     <g id="text_13">
      <text style="font: 7px 'Arial'; text-anchor: end" x="27.331719" y="28.389234" transform="rotate(-0 27.331719 28.389234)">1.0</text>
     </g>
    </g>
    <g id="text_14">
     <text style="font: 7px 'Arial'; text-anchor: middle" x="12.210469" y="124.104472" transform="rotate(-90 12.210469 124.104472)">Precision</text>
    </g>
   </g>
   <g id="line2d_13">
    <path d="M 230.772664 89.407023 
L 230.772664 88.02018 
L 230.61488 88.054321 
L 230.61488 87.980505 
L 230.61488 86.713105 
L 230.457096 86.74688 
L 230.457096 86.671559 
L 230.457096 83.430693 
L 230.299312 83.463446 
L 230.299312 83.384368 
L 230.299312 82.828288 
L 230.141528 82.860864 
L 230.141528 82.781034 
L 230.141528 82.139084 
L 229.983744 82.171451 
L 229.983744 82.090764 
L 229.983744 81.278754 
L 229.82596 81.310848 
L 229.82596 81.229101 
L 229.82596 80.901162 
L 229.352609 80.997234 
L 229.352609 80.914923 
L 229.352609 79.919662 
L 229.194825 79.951373 
L 229.194825 79.867771 
L 229.194825 79.364092 
L 228.879257 79.427196 
L 228.879257 79.34284 
L 228.879257 79.173831 
L 228.721473 79.205345 
L 228.721473 79.120658 
L 228.721473 79.035872 
L 228.405905 79.013935 
L 228.405905 78.587668 
L 228.248121 78.619039 
L 228.248121 78.533449 
L 228.248121 78.276066 
L 228.090337 78.307345 
L 228.090337 78.221313 
L 228.090337 77.005981 
L 227.616986 77.01084 
L 227.616986 76.747112 
L 227.459202 76.777901 
L 227.459202 76.689744 
L 227.459202 76.51311 
L 227.301418 76.543831 
L 227.301418 76.455318 
L 227.301418 76.100188 
L 227.143634 76.13077 
L 227.143634 76.041682 
L 227.143634 75.773764 
L 226.98585 75.80424 
L 226.98585 75.71468 
L 226.98585 75.53523 
L 226.828066 75.565635 
L 226.828066 75.475709 
L 226.828066 74.843128 
L 226.670282 74.873275 
L 226.670282 74.782424 
L 226.670282 74.69146 
L 226.512499 74.72157 
L 226.512499 74.630457 
L 226.512499 74.264876 
L 226.354715 74.294833 
L 226.354715 74.203117 
L 226.354715 74.111287 
L 226.039147 74.17116 
L 226.039147 74.079139 
L 226.039147 73.709909 
L 225.881363 73.739707 
L 225.881363 73.647073 
L 225.881363 73.461457 
L 225.565795 73.427868 
L 225.565795 72.867051 
L 225.250227 72.83215 
L 225.250227 72.549555 
L 224.776876 72.543378 
L 224.776876 72.258983 
L 224.303524 72.25204 
L 224.303524 71.870175 
L 224.14574 71.899447 
L 224.14574 71.803635 
L 224.14574 71.322736 
L 223.830172 71.284244 
L 223.830172 71.187485 
L 223.514605 71.148634 
L 223.514605 70.856975 
L 223.356821 70.885915 
L 223.356821 70.788401 
L 223.356821 70.397087 
L 223.041253 70.3564 
L 223.041253 70.15955 
L 222.883469 70.188244 
L 222.883469 70.089582 
L 222.883469 69.891874 
L 222.725685 69.920469 
L 222.725685 69.821376 
L 222.725685 69.722155 
L 222.410117 69.67983 
L 222.410117 69.480554 
L 222.252333 69.50903 
L 222.252333 69.409151 
L 222.252333 69.008323 
L 221.936766 68.964286 
L 221.936766 68.863523 
L 221.778982 68.891781 
L 221.778982 68.790838 
L 221.778982 68.689762 
L 221.621198 68.717961 
L 221.621198 68.616704 
L 221.621198 68.515313 
L 220.358927 68.639561 
L 220.358927 68.435328 
L 219.885575 68.417849 
L 219.885575 68.109624 
L 219.727791 68.13783 
L 219.727791 68.034764 
L 219.727791 67.828218 
L 219.096656 67.94082 
L 219.096656 67.837137 
L 219.096656 67.733314 
L 218.623304 67.817858 
L 218.623304 67.713743 
L 218.623304 67.505091 
L 218.46552 67.533194 
L 218.46552 67.428605 
L 218.46552 67.323875 
L 217.992168 67.303074 
L 217.992168 66.987132 
L 217.676601 67.043055 
L 217.676601 66.937349 
L 217.676601 66.831499 
L 216.887681 66.865182 
L 216.887681 66.545525 
L 216.729897 66.573414 
L 216.729897 66.466515 
L 216.729897 66.144936 
L 216.41433 66.092794 
L 216.41433 65.877153 
L 216.256546 65.904773 
L 216.256546 65.796673 
L 216.256546 65.688424 
L 215.940978 65.743555 
L 215.940978 65.635044 
L 215.940978 65.41757 
L 215.62541 65.363439 
L 215.62541 65.25421 
L 215.152058 65.227022 
L 215.152058 64.78728 
L 214.678707 64.758629 
L 214.678707 64.647979 
L 214.520923 64.67522 
L 214.520923 64.564355 
L 214.520923 64.453334 
L 213.732003 64.478051 
L 213.732003 64.030576 
L 213.574219 64.05763 
L 213.574219 63.945304 
L 213.574219 63.607368 
L 213.258652 63.661105 
L 213.258652 63.548016 
L 213.100868 63.57488 
L 213.100868 63.461568 
L 211.996381 63.650265 
L 211.996381 63.422284 
L 211.838597 63.449271 
L 211.838597 63.334972 
L 211.680813 63.361934 
L 211.680813 63.247407 
L 211.523029 63.274346 
L 211.523029 63.159591 
L 211.207461 63.213457 
L 211.207461 62.404611 
L 211.049677 62.431153 
L 211.049677 61.61358 
L 210.260758 61.744554 
L 210.260758 60.91621 
L 209.94519 60.967918 
L 209.94519 60.7294 
L 209.787406 60.755174 
L 209.787406 60.635581 
L 209.314054 60.712921 
L 209.314054 60.352448 
L 209.156271 60.378094 
L 209.156271 59.773364 
L 208.840703 59.824059 
L 208.840703 59.580612 
L 208.682919 59.605871 
L 208.682919 59.239112 
L 208.209567 59.314462 
L 208.209567 59.191621 
L 207.736215 59.267091 
L 207.736215 59.143843 
L 207.578432 59.169001 
L 207.578432 58.797911 
L 207.420648 58.822884 
L 207.420648 57.949875 
L 206.947296 58.023421 
L 206.947296 57.897712 
L 206.631728 57.946775 
L 206.631728 57.820718 
L 206.473944 57.845228 
L 206.473944 57.592377 
L 206.158377 57.641197 
L 206.158377 57.514322 
L 206.000593 57.538709 
L 206.000593 56.772855 
L 205.842809 56.7968 
L 205.842809 56.668384 
L 205.685025 56.692285 
L 205.685025 56.563588 
L 205.527241 56.587445 
L 205.527241 56.329287 
L 204.738322 56.448307 
L 204.738322 55.927909 
L 204.422754 55.975111 
L 204.422754 55.319157 
L 204.26497 55.34239 
L 204.26497 55.078385 
L 203.791618 55.147786 
L 203.791618 55.015211 
L 203.160483 55.107911 
L 203.160483 54.974777 
L 203.002699 54.997957 
L 203.002699 54.864522 
L 202.844915 54.887651 
L 202.844915 54.619966 
L 202.687131 54.642954 
L 202.687131 54.374233 
L 201.898211 54.488836 
L 201.898211 53.946992 
L 201.740428 53.96966 
L 201.740428 53.697241 
L 201.267076 53.764913 
L 201.267076 53.491054 
L 200.793724 53.558498 
L 200.793724 53.420954 
L 200.63594 53.443415 
L 200.63594 52.890611 
L 200.162589 52.957075 
L 200.162589 52.259514 
L 199.531453 52.346706 
L 199.531453 52.206112 
L 198.900318 52.293488 
L 198.900318 52.152266 
L 198.58475 52.195973 
L 198.58475 52.054317 
L 198.269182 52.097971 
L 198.269182 51.955878 
L 198.111398 51.977659 
L 198.111398 51.835229 
L 197.638046 51.900487 
L 197.638046 51.757514 
L 197.480263 51.779238 
L 197.480263 51.348567 
L 196.849127 51.434596 
L 196.849127 51.290141 
L 196.060208 51.397977 
L 196.060208 51.252754 
L 195.902424 51.274326 
L 195.902424 51.128751 
L 195.586856 51.171794 
L 195.586856 50.879475 
L 195.429072 50.900838 
L 195.429072 50.754197 
L 195.271288 50.77549 
L 195.271288 50.628489 
L 195.113504 50.649711 
L 195.113504 50.50235 
L 194.95572 50.5235 
L 194.95572 49.931081 
L 194.797936 49.951829 
L 194.797936 49.802975 
L 194.640152 49.823648 
L 194.640152 49.674426 
L 194.482369 49.695024 
L 194.482369 49.395579 
L 194.324585 49.415988 
L 194.324585 49.265763 
L 194.009017 49.306463 
L 194.009017 48.853535 
L 193.535665 48.913822 
L 193.535665 48.609859 
L 193.220097 48.649764 
L 193.220097 48.497149 
L 192.746746 48.55692 
L 192.746746 48.25018 
L 192.588962 48.269938 
L 192.588962 47.961876 
L 192.11561 48.020646 
L 192.11561 47.710772 
L 191.957826 47.73019 
L 191.957826 47.574719 
L 191.800042 47.594051 
L 191.800042 47.43818 
L 191.642259 47.457425 
L 191.642259 47.144603 
L 191.326691 47.182705 
L 191.326691 47.025626 
L 191.168907 47.044604 
L 191.168907 46.88712 
L 190.222204 47.000958 
L 190.222204 46.842437 
L 189.433284 46.937616 
L 189.433284 46.778173 
L 188.959932 46.835313 
L 188.959932 46.675195 
L 188.644365 46.713204 
L 188.644365 46.552535 
L 188.486581 46.571462 
L 188.486581 46.410368 
L 188.171013 46.448066 
L 188.171013 46.286414 
L 187.697661 46.342827 
L 187.697661 46.017836 
L 186.750958 46.130003 
L 186.750958 45.966253 
L 185.804255 46.078863 
L 185.804255 45.913993 
L 185.646471 45.932748 
L 185.646471 45.601806 
L 185.173119 45.657454 
L 185.173119 45.324433 
L 183.753064 45.490748 
L 183.753064 45.322495 
L 183.59528 45.341008 
L 183.59528 45.172291 
L 182.017441 45.357934 
L 182.017441 45.187445 
L 181.544089 45.243397 
L 181.544089 45.072139 
L 181.386306 45.090714 
L 181.386306 44.918975 
L 180.75517 44.993041 
L 180.75517 44.820372 
L 180.439602 44.857321 
L 180.439602 44.510365 
L 179.177331 44.657174 
L 179.177331 44.481959 
L 178.546196 44.555615 
L 178.546196 44.379431 
L 178.388412 44.39778 
L 178.388412 44.044048 
L 178.072844 44.080223 
L 178.072844 43.902511 
L 177.441708 43.974658 
L 177.441708 43.79595 
L 177.126141 43.831918 
L 177.126141 43.652528 
L 176.652789 43.706263 
L 176.652789 43.526022 
L 176.495005 43.543843 
L 176.495005 43.181937 
L 176.337221 43.199463 
L 176.337221 43.017794 
L 175.863869 43.070085 
L 175.863869 42.887544 
L 175.706086 42.904877 
L 175.706086 42.721795 
L 174.601598 42.84293 
L 174.601598 42.658278 
L 173.654895 42.762466 
L 173.654895 42.576391 
L 173.023759 42.64587 
L 173.023759 42.458705 
L 172.550408 42.510663 
L 172.550408 42.322573 
L 172.23484 42.357035 
L 172.23484 41.978951 
L 171.288137 42.081034 
L 171.288137 41.699161 
L 170.814785 41.749581 
L 170.814785 41.55748 
L 169.236946 41.726012 
L 169.236946 41.53161 
L 168.763594 41.582304 
L 168.763594 41.386907 
L 168.60581 41.403685 
L 168.60581 41.207671 
L 168.448027 41.224291 
L 168.448027 41.027656 
L 168.132459 41.060613 
L 168.132459 40.665271 
L 167.343539 40.746308 
L 167.343539 40.54699 
L 167.185755 40.563104 
L 167.185755 40.363146 
L 165.607916 40.524204 
L 165.607916 40.321753 
L 165.134565 40.370148 
L 165.134565 39.962634 
L 164.818997 39.994236 
L 164.818997 39.378254 
L 164.187861 39.439314 
L 164.187861 39.232196 
L 162.767806 39.369648 
L 162.767806 39.160078 
L 161.663319 39.26739 
L 161.663319 39.055763 
L 161.189967 39.101604 
L 161.189967 38.888801 
L 160.8744 38.91908 
L 160.8744 38.70532 
L 159.612129 38.825992 
L 159.612129 38.609856 
L 159.138777 38.654983 
L 159.138777 38.437623 
L 158.665425 38.48235 
L 158.665425 38.26375 
L 156.614235 38.458118 
L 156.614235 38.235789 
L 155.983099 38.295822 
L 155.983099 38.071942 
L 155.351964 38.131541 
L 155.351964 37.90609 
L 153.774125 38.055062 
L 153.774125 37.82644 
L 152.985205 37.900987 
L 152.985205 37.670457 
L 152.669637 37.699997 
L 152.669637 37.468347 
L 152.196286 37.512116 
L 152.196286 37.279061 
L 150.460663 37.43935 
L 150.460663 37.20262 
L 149.198392 37.31976 
L 149.198392 37.080116 
L 148.882824 37.109197 
L 148.882824 36.868344 
L 146.042714 37.131617 
L 146.042714 36.637109 
L 140.520278 37.164222 
L 140.520278 36.90453 
L 137.680168 37.189954 
L 137.680168 36.923189 
L 135.944545 37.100979 
L 135.944545 36.82939 
L 135.471193 36.877749 
L 135.471193 36.604229 
L 135.155625 36.635945 
L 135.155625 36.36085 
L 134.682274 36.407622 
L 134.682274 36.130547 
L 132.315515 36.364843 
L 132.315515 36.080935 
L 131.211028 36.191087 
L 131.211028 35.903399 
L 131.053244 35.918909 
L 131.053244 35.629907 
L 126.00416 36.138666 
L 126.00416 35.83444 
L 123.006266 36.153257 
L 123.006266 35.838778 
L 121.743995 35.975144 
L 121.743995 35.655505 
L 119.219452 35.931244 
L 119.219452 35.601927 
L 115.905991 35.976379 
L 115.905991 35.633826 
L 114.328152 35.816407 
L 114.328152 35.466485 
L 111.330258 35.820701 
L 111.330258 35.457145 
L 110.067987 35.608799 
L 110.067987 35.238331 
L 109.910203 35.256928 
L 109.910203 34.884282 
L 105.176686 35.456334 
L 105.176686 35.059586 
L 102.336576 35.424178 
L 102.336576 35.010681 
L 94.920733 36.069827 
L 93.500678 36.301323 
L 93.500678 35.830377 
L 87.50489 36.889095 
L 87.50489 36.368208 
L 87.031539 36.457309 
L 87.031539 35.929276 
L 81.509102 37.038375 
L 80.089047 37.364315 
L 80.089047 36.761837 
L 78.195641 37.204326 
L 78.195641 36.574664 
L 75.986666 37.109197 
L 75.986666 36.445341 
L 73.935476 36.961497 
L 73.935476 36.262012 
L 69.833094 37.391001 
L 68.570823 37.789512 
L 68.570823 36.987184 
L 67.939688 37.1837 
L 67.939688 36.36085 
L 66.519633 36.797386 
L 66.519633 35.934467 
L 65.730713 36.173764 
L 65.730713 35.283088 
L 65.257361 35.419968 
L 65.257361 34.508237 
L 64.468442 34.723843 
L 64.468442 33.781123 
L 64.152874 33.861297 
L 64.152874 32.899748 
L 62.890603 33.198291 
L 62.890603 32.186918 
L 60.208277 32.81721 
L 60.208277 31.695862 
L 56.737031 32.565665 
L 55.790328 32.849991 
L 55.790328 31.496598 
L 52.792434 32.377916 
L 50.425676 33.296866 
L 48.374485 34.333073 
L 47.269998 35.020788 
L 47.269998 32.81721 
L 46.95443 32.984275 
L 46.95443 30.675243 
L 46.638862 30.795024 
L 46.638862 28.370594 
L 44.272104 28.95339 
L 42.536481 29.590433 
L 41.116426 30.348567 
L 40.011939 31.193215 
L 39.065235 32.220805 
L 38.276316 33.439421 
L 37.802964 34.424911 
L 37.802964 25.884 
L 34.331719 25.884 
L 34.331719 25.884 
" clip-path="url(#pc99b1dd47c)" style="fill: none; stroke: #ff0000; stroke-width: 1.5; stroke-linecap: square"/>
   </g>
   <g id="line2d_14">
    <defs>
     <path id="mb333cbfb5a" d="M 0 3 
C 0.795609 3 1.55874 2.683901 2.12132 2.12132 
C 2.683901 1.55874 3 0.795609 3 0 
C 3 -0.795609 2.683901 -1.55874 2.12132 -2.12132 
C 1.55874 -2.683901 0.795609 -3 0 -3 
C -0.795609 -3 -1.55874 -2.683901 -2.12132 -2.12132 
C -2.683901 -1.55874 -3 -0.795609 -3 0 
C -3 0.795609 -2.683901 1.55874 -2.12132 2.12132 
C -1.55874 2.683901 -0.795609 3 0 3 
z
" style="stroke: #000000"/>
    </defs>
    <g clip-path="url(#pc99b1dd47c)">
     <use xlink:href="#mb333cbfb5a" x="221.621198" y="68.515313" style="fill: #ff0000; stroke: #000000"/>
    </g>
   </g>
   <g id="line2d_15">
    <path d="M 34.331719 89.407023 
L 230.772664 89.407023 
" clip-path="url(#pc99b1dd47c)" style="fill: none; stroke: #00bfbf; stroke-width: 1.5; stroke-linecap: square"/>
   </g>
   <g id="patch_4">
    <path d="M 34.331719 222.324945 
L 34.331719 25.884 
" style="fill: none; stroke: #000000; stroke-width: 0.8; stroke-linejoin: miter; stroke-linecap: square"/>
   </g>
   <g id="patch_5">
    <path d="M 230.772664 222.324945 
L 230.772664 25.884 
" style="fill: none; stroke: #000000; stroke-width: 0.8; stroke-linejoin: miter; stroke-linecap: square"/>
   </g>
   <g id="patch_6">
    <path d="M 34.331719 222.324945 
L 230.772664 222.324945 
" style="fill: none; stroke: #000000; stroke-width: 0.8; stroke-linejoin: miter; stroke-linecap: square"/>
   </g>
   <g id="patch_7">
    <path d="M 34.331719 25.884 
L 230.772664 25.884 
" style="fill: none; stroke: #000000; stroke-width: 0.8; stroke-linejoin: miter; stroke-linecap: square"/>
   </g>
   <g id="text_15">
    <text style="font: 7px 'Arial'" transform="translate(100.712035 12.295781)">Hybrid AP-SP model</text>
    <text style="font: 7px 'Arial'" transform="translate(87.62641 19.884)">Precision - Recall (PR) curve</text>
   </g>
   <g id="legend_1">
    <g id="patch_8">
     <path d="M 47.553597 261.195694 
L 217.550785 261.195694 
Q 218.950785 261.195694 218.950785 259.795694 
L 218.950785 250.426631 
Q 218.950785 249.026631 217.550785 249.026631 
L 47.553597 249.026631 
Q 46.153597 249.026631 46.153597 250.426631 
L 46.153597 259.795694 
Q 46.153597 261.195694 47.553597 261.195694 
z
" style="fill: #ffffff; opacity: 0.8; stroke: #cccccc; stroke-linejoin: miter"/>
    </g>
    <g id="line2d_16">
     <path d="M 48.953597 254.472413 
L 55.953597 254.472413 
L 62.953597 254.472413 
" style="fill: none; stroke: #ff0000; stroke-width: 1.5; stroke-linecap: square"/>
    </g>
    <g id="text_16">
     <text style="font: 7px 'Arial'; text-anchor: start" x="68.553597" y="256.922413" transform="rotate(-0 68.553597 256.922413)">model performance</text>
    </g>
    <g id="line2d_17">
     <path d="M 142.855316 254.472413 
L 149.855316 254.472413 
L 156.855316 254.472413 
" style="fill: none; stroke: #00bfbf; stroke-width: 1.5; stroke-linecap: square"/>
    </g>
    <g id="text_17">
     <text style="font: 7px 'Arial'; text-anchor: start" x="162.455316" y="256.922413" transform="rotate(-0 162.455316 256.922413)">random guessing</text>
    </g>
   </g>
  </g>
 </g>
 <defs>
  <clipPath id="pc99b1dd47c">
   <rect x="34.331719" y="25.884" width="196.440945" height="196.440945"/>
  </clipPath>
 </defs>
</svg>
