<?xml version="1.0" encoding="utf-8" standalone="no"?>
<!DOCTYPE svg PUBLIC "-//W3C//DTD SVG 1.1//EN"
  "http://www.w3.org/Graphics/SVG/1.1/DTD/svg11.dtd">
<svg xmlns:xlink="http://www.w3.org/1999/xlink" width="238.114192pt" height="476.246117pt" viewBox="0 0 238.114192 476.246117" xmlns="http://www.w3.org/2000/svg" version="1.1">
 <metadata>
  <rdf:RDF xmlns:dc="http://purl.org/dc/elements/1.1/" xmlns:cc="http://creativecommons.org/ns#" xmlns:rdf="http://www.w3.org/1999/02/22-rdf-syntax-ns#">
   <cc:Work>
    <dc:type rdf:resource="http://purl.org/dc/dcmitype/StillImage"/>
    <dc:date>2024-09-25T17:35:10.921509</dc:date>
    <dc:format>image/svg+xml</dc:format>
    <dc:creator>
     <cc:Agent>
      <dc:title>Matplotlib v3.7.0, https://matplotlib.org/</dc:title>
     </cc:Agent>
    </dc:creator>
   </cc:Work>
  </rdf:RDF>
 </metadata>
 <defs>
  <style type="text/css">*{stroke-linejoin: round; stroke-linecap: butt}</style>
 </defs>
 <g id="figure_1">
  <g id="patch_1">
   <path d="M 0 476.246117 
L 238.114192 476.246117 
L 238.114192 0 
L 0 0 
z
" style="fill: #ffffff"/>
  </g>
  <g id="axes_1">
   <g id="patch_2">
    <path d="M 29.722656 426.059026 
L 227.439192 426.059026 
L 227.439192 22.26375 
L 29.722656 22.26375 
z
" style="fill: #ffffff"/>
   </g>
   <g id="patch_3">
    <path d="M 29.722656 22.26375 
L 35.303695 28.019916 
L 33.97023 30.721545 
L 69.336146 103.529281 
L 69.195781 103.813663 
L 33.829865 31.005927 
L 32.496399 33.707556 
z
" clip-path="url(#p890fd5a48a)" style="fill: #1f77b4; stroke: #000000; stroke-linejoin: miter"/>
   </g>
   <g id="matplotlib.axis_1">
    <g id="xtick_1">
     <g id="line2d_1">
      <defs>
       <path id="m946554e69d" d="M 0 0 
L 0 3.5 
" style="stroke: #000000; stroke-width: 0.8"/>
      </defs>
      <g>
       <use xlink:href="#m946554e69d" x="29.722656" y="426.059026" style="stroke: #000000; stroke-width: 0.8"/>
      </g>
     </g>
     <g id="text_1">
      <text style="font: 5px 'Arial'; text-anchor: middle" x="29.722656" y="436.637932" transform="rotate(-0 29.722656 436.637932)">0.0</text>
     </g>
    </g>
    <g id="xtick_2">
     <g id="line2d_2">
      <g>
       <use xlink:href="#m946554e69d" x="69.265963" y="426.059026" style="stroke: #000000; stroke-width: 0.8"/>
      </g>
     </g>
     <g id="text_2">
      <text style="font: 5px 'Arial'; text-anchor: middle" x="69.265963" y="436.637932" transform="rotate(-0 69.265963 436.637932)">0.2</text>
     </g>
    </g>
    <g id="xtick_3">
     <g id="line2d_3">
      <g>
       <use xlink:href="#m946554e69d" x="108.80927" y="426.059026" style="stroke: #000000; stroke-width: 0.8"/>
      </g>
     </g>
     <g id="text_3">
      <text style="font: 5px 'Arial'; text-anchor: middle" x="108.80927" y="436.637932" transform="rotate(-0 108.80927 436.637932)">0.4</text>
     </g>
    </g>
    <g id="xtick_4">
     <g id="line2d_4">
      <g>
       <use xlink:href="#m946554e69d" x="148.352578" y="426.059026" style="stroke: #000000; stroke-width: 0.8"/>
      </g>
     </g>
     <g id="text_4">
      <text style="font: 5px 'Arial'; text-anchor: middle" x="148.352578" y="436.637932" transform="rotate(-0 148.352578 436.637932)">0.6</text>
     </g>
    </g>
    <g id="xtick_5">
     <g id="line2d_5">
      <g>
       <use xlink:href="#m946554e69d" x="187.895885" y="426.059026" style="stroke: #000000; stroke-width: 0.8"/>
      </g>
     </g>
     <g id="text_5">
      <text style="font: 5px 'Arial'; text-anchor: middle" x="187.895885" y="436.637932" transform="rotate(-0 187.895885 436.637932)">0.8</text>
     </g>
    </g>
    <g id="xtick_6">
     <g id="line2d_6">
      <g>
       <use xlink:href="#m946554e69d" x="227.439192" y="426.059026" style="stroke: #000000; stroke-width: 0.8"/>
      </g>
     </g>
     <g id="text_6">
      <text style="font: 5px 'Arial'; text-anchor: middle" x="227.439192" y="436.637932" transform="rotate(-0 227.439192 436.637932)">1.0</text>
     </g>
    </g>
    <g id="text_7">
     <text style="font: 5px 'Arial'; text-anchor: middle" x="128.580924" y="445.210588" transform="rotate(-0 128.580924 445.210588)">FPR</text>
    </g>
   </g>
   <g id="matplotlib.axis_2">
    <g id="ytick_1">
     <g id="line2d_7">
      <defs>
       <path id="m7d1749a2b9" d="M 0 0 
L -3.5 0 
" style="stroke: #000000; stroke-width: 0.8"/>
      </defs>
      <g>
       <use xlink:href="#m7d1749a2b9" x="29.722656" y="426.059026" style="stroke: #000000; stroke-width: 0.8"/>
      </g>
     </g>
     <g id="text_8">
      <text style="font: 5px 'Arial'; text-anchor: end" x="22.722656" y="427.848479" transform="rotate(-0 22.722656 427.848479)">0.0</text>
     </g>
    </g>
    <g id="ytick_2">
     <g id="line2d_8">
      <g>
       <use xlink:href="#m7d1749a2b9" x="29.722656" y="345.29997" style="stroke: #000000; stroke-width: 0.8"/>
      </g>
     </g>
     <g id="text_9">
      <text style="font: 5px 'Arial'; text-anchor: end" x="22.722656" y="347.089424" transform="rotate(-0 22.722656 347.089424)">0.2</text>
     </g>
    </g>
    <g id="ytick_3">
     <g id="line2d_9">
      <g>
       <use xlink:href="#m7d1749a2b9" x="29.722656" y="264.540915" style="stroke: #000000; stroke-width: 0.8"/>
      </g>
     </g>
     <g id="text_10">
      <text style="font: 5px 'Arial'; text-anchor: end" x="22.722656" y="266.330368" transform="rotate(-0 22.722656 266.330368)">0.4</text>
     </g>
    </g>
    <g id="ytick_4">
     <g id="line2d_10">
      <g>
       <use xlink:href="#m7d1749a2b9" x="29.722656" y="183.78186" style="stroke: #000000; stroke-width: 0.8"/>
      </g>
     </g>
     <g id="text_11">
      <text style="font: 5px 'Arial'; text-anchor: end" x="22.722656" y="185.571313" transform="rotate(-0 22.722656 185.571313)">0.6</text>
     </g>
    </g>
    <g id="ytick_5">
     <g id="line2d_11">
      <g>
       <use xlink:href="#m7d1749a2b9" x="29.722656" y="103.022805" style="stroke: #000000; stroke-width: 0.8"/>
      </g>
     </g>
     <g id="text_12">
      <text style="font: 5px 'Arial'; text-anchor: end" x="22.722656" y="104.812258" transform="rotate(-0 22.722656 104.812258)">0.8</text>
     </g>
    </g>
    <g id="ytick_6">
     <g id="line2d_12">
      <g>
       <use xlink:href="#m7d1749a2b9" x="29.722656" y="22.26375" style="stroke: #000000; stroke-width: 0.8"/>
      </g>
     </g>
     <g id="text_13">
      <text style="font: 5px 'Arial'; text-anchor: end" x="22.722656" y="24.053203" transform="rotate(-0 22.722656 24.053203)">1.0</text>
     </g>
    </g>
    <g id="text_14">
     <text style="font: 5px 'Arial'; text-anchor: middle" x="10.778906" y="224.161388" transform="rotate(-90 10.778906 224.161388)">TPR</text>
    </g>
   </g>
   <g id="line2d_13">
    <path d="M 29.722656 426.059026 
L 29.722656 418.923687 
L 30.054953 418.923687 
L 30.054953 400.761008 
L 30.38725 400.761008 
L 30.38725 400.112341 
L 30.719546 400.112341 
L 30.719546 399.463674 
L 31.051843 399.463674 
L 31.051843 381.949662 
L 31.38414 381.949662 
L 31.38414 372.868323 
L 31.716436 372.868323 
L 31.716436 367.354652 
L 32.048733 367.354652 
L 32.048733 364.759984 
L 32.38103 364.759984 
L 32.38103 364.111317 
L 32.713327 364.111317 
L 32.713327 362.489649 
L 33.045623 362.489649 
L 33.045623 361.516648 
L 33.37792 361.516648 
L 33.37792 359.89498 
L 33.710217 359.89498 
L 33.710217 356.975978 
L 34.042513 356.975978 
L 34.042513 355.678644 
L 34.37481 355.678644 
L 34.37481 344.651303 
L 34.707107 344.651303 
L 34.707107 340.434967 
L 35.039403 340.434967 
L 35.039403 335.894297 
L 35.3717 335.894297 
L 35.3717 332.002295 
L 35.703997 332.002295 
L 35.703997 317.731618 
L 36.036294 317.731618 
L 36.036294 316.758618 
L 36.36859 316.758618 
L 36.36859 304.433943 
L 36.700887 304.433943 
L 36.700887 286.271264 
L 37.033184 286.271264 
L 37.033184 280.43326 
L 37.36548 280.43326 
L 37.36548 270.703253 
L 37.697777 270.703253 
L 37.697777 270.378919 
L 38.030074 270.378919 
L 38.030074 267.784251 
L 38.36237 267.784251 
L 38.36237 261.621913 
L 38.694667 261.621913 
L 38.694667 258.378578 
L 39.026964 258.378578 
L 39.026964 251.567573 
L 39.35926 251.567573 
L 39.35926 246.378236 
L 39.691557 246.378236 
L 39.691557 243.783568 
L 40.023854 243.783568 
L 40.023854 237.62123 
L 40.356151 237.62123 
L 40.356151 227.242557 
L 40.688447 227.242557 
L 40.688447 226.918223 
L 41.020744 226.918223 
L 41.020744 224.647888 
L 41.353041 224.647888 
L 41.353041 219.782885 
L 41.685337 219.782885 
L 41.685337 218.809884 
L 42.017634 218.809884 
L 42.017634 218.161217 
L 42.349931 218.161217 
L 42.349931 217.188216 
L 42.682227 217.188216 
L 42.682227 213.620547 
L 43.014524 213.620547 
L 43.014524 207.782543 
L 43.346821 207.782543 
L 43.346821 196.430869 
L 44.011414 196.430869 
L 44.011414 190.592865 
L 44.343711 190.592865 
L 44.343711 189.944198 
L 44.676008 189.944198 
L 44.676008 187.349529 
L 45.008304 187.349529 
L 45.008304 183.78186 
L 45.340601 183.78186 
L 45.340601 182.80886 
L 45.672898 182.80886 
L 45.672898 182.160192 
L 46.005194 182.160192 
L 46.005194 180.538525 
L 46.337491 180.538525 
L 46.337491 177.295189 
L 46.669788 177.295189 
L 46.669788 175.997855 
L 47.002085 175.997855 
L 47.002085 174.700521 
L 47.334381 174.700521 
L 47.334381 170.484184 
L 47.666678 170.484184 
L 47.666678 169.511184 
L 47.998975 169.511184 
L 47.998975 168.538183 
L 48.331271 168.538183 
L 48.331271 165.943515 
L 48.663568 165.943515 
L 48.663568 165.294848 
L 48.995865 165.294848 
L 48.995865 164.321847 
L 49.328161 164.321847 
L 49.328161 162.051512 
L 49.660458 162.051512 
L 49.660458 159.13251 
L 49.992755 159.13251 
L 49.992755 157.835176 
L 50.989645 157.835176 
L 50.989645 157.186509 
L 51.654238 157.186509 
L 51.654238 156.213508 
L 51.986535 156.213508 
L 51.986535 152.970173 
L 52.318832 152.970173 
L 52.318832 152.645839 
L 52.651128 152.645839 
L 52.651128 151.024171 
L 53.315722 151.024171 
L 53.315722 150.375504 
L 53.648019 150.375504 
L 53.648019 150.051171 
L 53.980315 150.051171 
L 53.980315 149.726837 
L 54.312612 149.726837 
L 54.312612 148.753836 
L 54.644909 148.753836 
L 54.644909 145.510501 
L 54.977205 145.510501 
L 54.977205 144.5375 
L 55.641799 144.5375 
L 55.641799 142.591499 
L 56.306392 142.591499 
L 56.306392 141.942832 
L 56.638689 141.942832 
L 56.638689 140.969831 
L 56.970986 140.969831 
L 56.970986 139.672497 
L 57.303282 139.672497 
L 57.303282 137.726495 
L 57.635579 137.726495 
L 57.635579 135.456161 
L 57.967876 135.456161 
L 57.967876 135.131827 
L 58.300172 135.131827 
L 58.300172 134.158826 
L 58.632469 134.158826 
L 58.632469 133.834493 
L 59.297062 133.834493 
L 59.297062 133.510159 
L 59.629359 133.510159 
L 59.629359 132.537159 
L 59.961656 132.537159 
L 59.961656 131.888491 
L 60.293952 131.888491 
L 60.293952 130.591157 
L 60.626249 130.591157 
L 60.626249 129.94249 
L 61.290843 129.94249 
L 61.290843 129.618157 
L 61.623139 129.618157 
L 61.623139 128.320822 
L 61.955436 128.320822 
L 61.955436 125.726154 
L 62.620029 125.726154 
L 62.620029 125.077487 
L 62.952326 125.077487 
L 62.952326 123.780153 
L 63.284623 123.780153 
L 63.284623 123.455819 
L 63.616919 123.455819 
L 63.616919 122.482818 
L 63.949216 122.482818 
L 63.949216 119.239483 
L 64.281513 119.239483 
L 64.281513 118.915149 
L 64.61381 118.915149 
L 64.61381 115.996147 
L 65.278403 115.996147 
L 65.278403 115.023147 
L 65.942996 115.023147 
L 65.942996 114.698813 
L 66.275293 114.698813 
L 66.275293 112.752812 
L 66.60759 112.752812 
L 66.60759 110.80681 
L 67.272183 110.80681 
L 67.272183 109.83381 
L 67.60448 109.83381 
L 67.60448 109.185143 
L 67.936777 109.185143 
L 67.936777 108.860809 
L 68.269073 108.860809 
L 68.269073 108.212142 
L 68.60137 108.212142 
L 68.60137 107.239141 
L 68.933667 107.239141 
L 68.933667 105.617474 
L 69.265963 105.617474 
L 69.265963 103.671472 
L 69.59826 103.671472 
L 69.59826 103.347139 
L 69.930557 103.347139 
L 69.930557 102.698472 
L 70.59515 102.698472 
L 70.59515 102.374138 
L 70.927447 102.374138 
L 70.927447 102.049804 
L 71.259744 102.049804 
L 71.259744 101.725471 
L 71.924337 101.725471 
L 71.924337 100.75247 
L 72.58893 100.75247 
L 72.58893 100.428137 
L 73.253524 100.428137 
L 73.253524 99.455136 
L 73.58582 99.455136 
L 73.58582 98.806469 
L 74.250414 98.806469 
L 74.250414 97.833468 
L 75.247304 97.833468 
L 75.247304 97.184801 
L 75.579601 97.184801 
L 75.579601 96.860468 
L 76.244194 96.860468 
L 76.244194 96.536134 
L 76.576491 96.536134 
L 76.576491 96.2118 
L 76.908787 96.2118 
L 76.908787 95.887467 
L 78.237974 95.887467 
L 78.237974 95.563133 
L 78.570271 95.563133 
L 78.570271 95.2388 
L 78.902568 95.2388 
L 78.902568 94.914466 
L 79.234864 94.914466 
L 79.234864 94.590133 
L 79.899458 94.590133 
L 79.899458 93.941466 
L 80.231754 93.941466 
L 80.231754 93.617132 
L 80.564051 93.617132 
L 80.564051 91.995464 
L 80.896348 91.995464 
L 80.896348 90.69813 
L 81.893238 90.69813 
L 81.893238 90.373796 
L 82.225535 90.373796 
L 82.225535 89.400796 
L 82.557831 89.400796 
L 82.557831 89.076462 
L 82.890128 89.076462 
L 82.890128 88.427795 
L 83.222425 88.427795 
L 83.222425 87.779128 
L 83.554721 87.779128 
L 83.554721 86.481794 
L 83.887018 86.481794 
L 83.887018 85.18446 
L 85.548502 85.18446 
L 85.548502 84.211459 
L 86.877688 84.211459 
L 86.877688 83.887125 
L 87.209985 83.887125 
L 87.209985 82.914125 
L 87.874578 82.914125 
L 87.874578 81.941124 
L 88.539172 81.941124 
L 88.539172 81.616791 
L 89.868359 81.616791 
L 89.868359 79.995123 
L 90.532952 79.995123 
L 90.532952 79.670789 
L 91.197545 79.670789 
L 91.197545 79.346456 
L 91.529842 79.346456 
L 91.529842 79.022122 
L 91.862139 79.022122 
L 91.862139 77.724788 
L 92.194436 77.724788 
L 92.194436 76.751787 
L 92.859029 76.751787 
L 92.859029 76.427454 
L 94.520512 76.427454 
L 94.520512 75.778787 
L 95.849699 75.778787 
L 95.849699 74.157119 
L 96.514293 74.157119 
L 96.514293 73.832785 
L 96.846589 73.832785 
L 96.846589 73.508452 
L 97.178886 73.508452 
L 97.178886 73.184118 
L 99.172666 73.184118 
L 99.172666 72.859785 
L 99.504963 72.859785 
L 99.504963 72.211117 
L 100.169556 72.211117 
L 100.169556 71.886784 
L 100.501853 71.886784 
L 100.501853 71.238117 
L 100.83415 71.238117 
L 100.83415 70.265116 
L 103.160227 70.265116 
L 103.160227 69.940783 
L 104.157117 69.940783 
L 104.157117 69.616449 
L 104.489413 69.616449 
L 104.489413 68.643448 
L 104.82171 68.643448 
L 104.82171 67.670448 
L 105.8186 67.670448 
L 105.8186 67.346114 
L 106.483194 67.346114 
L 106.483194 66.697447 
L 108.144677 66.697447 
L 108.144677 66.373113 
L 109.141567 66.373113 
L 109.141567 65.400113 
L 109.473864 65.400113 
L 109.473864 65.075779 
L 110.138457 65.075779 
L 110.138457 64.427112 
L 112.464534 64.427112 
L 112.464534 62.805444 
L 114.790611 62.805444 
L 114.790611 62.481111 
L 117.116688 62.481111 
L 117.116688 61.832444 
L 117.448985 61.832444 
L 117.448985 61.50811 
L 117.781281 61.50811 
L 117.781281 61.183777 
L 118.113578 61.183777 
L 118.113578 60.859443 
L 118.778171 60.859443 
L 118.778171 58.589108 
L 119.110468 58.589108 
L 119.110468 58.264775 
L 119.442765 58.264775 
L 119.442765 57.616107 
L 120.771952 57.616107 
L 120.771952 57.291774 
L 122.101138 57.291774 
L 122.101138 56.643107 
L 122.433435 56.643107 
L 122.433435 55.670106 
L 123.098028 55.670106 
L 123.098028 55.345773 
L 123.430325 55.345773 
L 123.430325 54.697105 
L 123.762622 54.697105 
L 123.762622 54.372772 
L 125.091809 54.372772 
L 125.091809 54.048438 
L 125.424105 54.048438 
L 125.424105 53.399771 
L 125.756402 53.399771 
L 125.756402 53.075438 
L 126.088699 53.075438 
L 126.088699 52.751104 
L 127.085589 52.751104 
L 127.085589 52.102437 
L 127.750182 52.102437 
L 127.750182 51.778103 
L 128.414776 51.778103 
L 128.414776 51.45377 
L 128.747072 51.45377 
L 128.747072 51.129436 
L 130.076259 51.129436 
L 130.076259 50.805103 
L 131.073149 50.805103 
L 131.073149 49.832102 
L 131.405446 49.832102 
L 131.405446 49.183435 
L 132.070039 49.183435 
L 132.070039 48.534768 
L 133.066929 48.534768 
L 133.066929 47.886101 
L 133.399226 47.886101 
L 133.399226 47.561767 
L 134.063819 47.561767 
L 134.063819 47.237434 
L 135.06071 47.237434 
L 135.06071 46.264433 
L 135.725303 46.264433 
L 135.725303 44.967099 
L 136.722193 44.967099 
L 136.722193 44.642765 
L 137.719083 44.642765 
L 137.719083 44.318432 
L 138.05138 44.318432 
L 138.05138 43.669765 
L 138.715973 43.669765 
L 138.715973 43.345431 
L 139.04827 43.345431 
L 139.04827 41.075096 
L 139.712863 41.075096 
L 139.712863 40.750763 
L 140.377457 40.750763 
L 140.377457 40.426429 
L 140.709753 40.426429 
L 140.709753 40.102096 
L 141.04205 40.102096 
L 141.04205 39.777762 
L 142.703534 39.777762 
L 142.703534 39.453428 
L 143.368127 39.453428 
L 143.368127 39.129095 
L 143.700424 39.129095 
L 143.700424 38.804761 
L 144.365017 38.804761 
L 144.365017 38.480428 
L 145.361907 38.480428 
L 145.361907 38.156094 
L 146.026501 38.156094 
L 146.026501 37.831761 
L 146.358797 37.831761 
L 146.358797 37.507427 
L 148.020281 37.507427 
L 148.020281 37.183094 
L 149.017171 37.183094 
L 149.017171 36.85876 
L 149.349468 36.85876 
L 149.349468 36.534426 
L 149.681764 36.534426 
L 149.681764 36.210093 
L 150.014061 36.210093 
L 150.014061 35.885759 
L 152.007841 35.885759 
L 152.007841 35.561426 
L 153.337028 35.561426 
L 153.337028 34.912759 
L 153.669325 34.912759 
L 153.669325 34.588425 
L 154.666215 34.588425 
L 154.666215 33.939758 
L 154.998511 33.939758 
L 154.998511 33.615424 
L 155.995402 33.615424 
L 155.995402 33.291091 
L 156.327698 33.291091 
L 156.327698 32.966757 
L 158.321478 32.966757 
L 158.321478 32.642424 
L 158.653775 32.642424 
L 158.653775 32.31809 
L 159.650665 32.31809 
L 159.650665 31.993757 
L 161.312149 31.993757 
L 161.312149 31.34509 
L 161.976742 31.34509 
L 161.976742 31.020756 
L 163.638226 31.020756 
L 163.638226 30.696422 
L 164.302819 30.696422 
L 164.302819 30.372089 
L 166.961193 30.372089 
L 166.961193 30.047755 
L 167.958083 30.047755 
L 167.958083 29.723422 
L 169.287269 29.723422 
L 169.287269 29.399088 
L 170.948753 29.399088 
L 170.948753 29.074755 
L 171.945643 29.074755 
L 171.945643 28.750421 
L 172.942533 28.750421 
L 172.942533 28.426088 
L 173.27483 28.426088 
L 173.27483 27.77742 
L 178.25928 27.77742 
L 178.25928 27.453087 
L 179.588467 27.453087 
L 179.588467 27.128753 
L 181.249951 27.128753 
L 181.249951 26.80442 
L 181.582247 26.80442 
L 181.582247 26.480086 
L 182.246841 26.480086 
L 182.246841 26.155753 
L 183.243731 26.155753 
L 183.243731 25.507086 
L 185.569808 25.507086 
L 185.569808 25.182752 
L 189.889665 25.182752 
L 189.889665 24.209751 
L 191.551148 24.209751 
L 191.551148 23.885418 
L 195.206412 23.885418 
L 195.206412 23.561084 
L 198.197082 23.561084 
L 198.197082 23.236751 
L 200.855456 23.236751 
L 200.855456 22.912417 
L 215.144214 22.912417 
L 215.144214 22.588084 
L 221.125554 22.588084 
L 221.125554 22.26375 
L 227.439192 22.26375 
L 227.439192 22.26375 
" clip-path="url(#p890fd5a48a)" style="fill: none; stroke: #ff0000; stroke-width: 1.5; stroke-linecap: square"/>
   </g>
   <g id="line2d_14">
    <defs>
     <path id="m2b0b070254" d="M 0 3 
C 0.795609 3 1.55874 2.683901 2.12132 2.12132 
C 2.683901 1.55874 3 0.795609 3 0 
C 3 -0.795609 2.683901 -1.55874 2.12132 -2.12132 
C 1.55874 -2.683901 0.795609 -3 0 -3 
C -0.795609 -3 -1.55874 -2.683901 -2.12132 -2.12132 
C -2.683901 -1.55874 -3 -0.795609 -3 0 
C -3 0.795609 -2.683901 1.55874 -2.12132 2.12132 
C -1.55874 2.683901 -0.795609 3 0 3 
z
" style="stroke: #000000"/>
    </defs>
    <g clip-path="url(#p890fd5a48a)">
     <use xlink:href="#m2b0b070254" x="69.265963" y="103.671472" style="fill: #ff0000; stroke: #000000"/>
    </g>
   </g>
   <g id="line2d_15">
    <path d="M 29.722656 426.059026 
L 227.439192 22.26375 
" clip-path="url(#p890fd5a48a)" style="fill: none; stroke: #00bfbf; stroke-width: 1.5; stroke-linecap: square"/>
   </g>
   <g id="patch_4">
    <path d="M 29.722656 426.059026 
L 29.722656 22.26375 
" style="fill: none; stroke: #000000; stroke-width: 0.8; stroke-linejoin: miter; stroke-linecap: square"/>
   </g>
   <g id="patch_5">
    <path d="M 227.439192 426.059026 
L 227.439192 22.26375 
" style="fill: none; stroke: #000000; stroke-width: 0.8; stroke-linejoin: miter; stroke-linecap: square"/>
   </g>
   <g id="patch_6">
    <path d="M 29.722656 426.059026 
L 227.439192 426.059026 
" style="fill: none; stroke: #000000; stroke-width: 0.8; stroke-linejoin: miter; stroke-linecap: square"/>
   </g>
   <g id="patch_7">
    <path d="M 29.722656 22.26375 
L 227.439192 22.26375 
" style="fill: none; stroke: #000000; stroke-width: 0.8; stroke-linejoin: miter; stroke-linecap: square"/>
   </g>
   <g id="text_15">
    <text style="font: 5px 'Arial'" transform="translate(105.837955 10.839844)">Hybrid AP-SP model</text>
    <text style="font: 5px 'Arial'" transform="translate(76.346158 16.26375)">Receiver Operating Characteristic (ROC) curve</text>
   </g>
   <g id="legend_1">
    <g id="patch_8">
     <path d="M 67.867643 469.046117 
L 189.294205 469.046117 
Q 190.294205 469.046117 190.294205 468.046117 
L 190.294205 461.353929 
Q 190.294205 460.353929 189.294205 460.353929 
L 67.867643 460.353929 
Q 66.867643 460.353929 66.867643 461.353929 
L 66.867643 468.046117 
Q 66.867643 469.046117 67.867643 469.046117 
z
" style="fill: #ffffff; opacity: 0.8; stroke: #cccccc; stroke-linejoin: miter"/>
    </g>
    <g id="line2d_16">
     <path d="M 68.867643 464.243773 
L 73.867643 464.243773 
L 78.867643 464.243773 
" style="fill: none; stroke: #ff0000; stroke-width: 1.5; stroke-linecap: square"/>
    </g>
    <g id="text_16">
     <text style="font: 5px 'Arial'; text-anchor: start" x="82.867643" y="465.993773" transform="rotate(-0 82.867643 465.993773)">model performance</text>
    </g>
    <g id="line2d_17">
     <path d="M 135.940299 464.243773 
L 140.940299 464.243773 
L 145.940299 464.243773 
" style="fill: none; stroke: #00bfbf; stroke-width: 1.5; stroke-linecap: square"/>
    </g>
    <g id="text_17">
     <text style="font: 5px 'Arial'; text-anchor: start" x="149.940299" y="465.993773" transform="rotate(-0 149.940299 465.993773)">random guessing</text>
    </g>
   </g>
  </g>
 </g>
 <defs>
  <clipPath id="p890fd5a48a">
   <rect x="29.722656" y="22.26375" width="197.716535" height="403.795276"/>
  </clipPath>
 </defs>
</svg>
