<?xml version="1.0" encoding="utf-8" standalone="no"?>
<!DOCTYPE svg PUBLIC "-//W3C//DTD SVG 1.1//EN"
  "http://www.w3.org/Graphics/SVG/1.1/DTD/svg11.dtd">
<svg xmlns:xlink="http://www.w3.org/1999/xlink" width="413.064687pt" height="346.716041pt" viewBox="0 0 413.064687 346.716041" xmlns="http://www.w3.org/2000/svg" version="1.1">
 <metadata>
  <rdf:RDF xmlns:dc="http://purl.org/dc/elements/1.1/" xmlns:cc="http://creativecommons.org/ns#" xmlns:rdf="http://www.w3.org/1999/02/22-rdf-syntax-ns#">
   <cc:Work>
    <dc:type rdf:resource="http://purl.org/dc/dcmitype/StillImage"/>
    <dc:date>2024-09-25T06:57:19.770055</dc:date>
    <dc:format>image/svg+xml</dc:format>
    <dc:creator>
     <cc:Agent>
      <dc:title>Matplotlib v3.7.0, https://matplotlib.org/</dc:title>
     </cc:Agent>
    </dc:creator>
   </cc:Work>
  </rdf:RDF>
 </metadata>
 <defs>
  <style type="text/css">*{stroke-linejoin: round; stroke-linecap: butt}</style>
 </defs>
 <g id="figure_1">
  <g id="patch_1">
   <path d="M 0 346.716041 
L 413.064687 346.716041 
L 413.064687 0 
L 0 0 
z
" style="fill: #ffffff"/>
  </g>
  <g id="axes_1">
   <g id="patch_2">
    <path d="M 45.269688 275.101453 
L 402.389688 275.101453 
L 402.389688 8.989453 
L 45.269688 8.989453 
z
" style="fill: #ffffff"/>
   </g>
   <g id="patch_3">
    <path d="M 45.269688 8.989453 
L 55.350284 12.782922 
L 52.941749 14.563368 
L 116.820453 62.545635 
L 116.566922 62.73305 
L 52.688219 14.750784 
L 50.279683 16.53123 
z
" clip-path="url(#paccabeb62e)" style="fill: #1f77b4; stroke: #000000; stroke-linejoin: miter"/>
   </g>
   <g id="matplotlib.axis_1">
    <g id="xtick_1">
     <g id="line2d_1">
      <defs>
       <path id="m32a1ffed8e" d="M 0 0 
L 0 3.5 
" style="stroke: #000000; stroke-width: 0.8"/>
      </defs>
      <g>
       <use xlink:href="#m32a1ffed8e" x="45.269688" y="275.101453" style="stroke: #000000; stroke-width: 0.8"/>
      </g>
     </g>
     <g id="text_1">
      <text style="font: 5px 'Arial'; text-anchor: middle" x="45.269688" y="285.680359" transform="rotate(-0 45.269688 285.680359)">0.0</text>
     </g>
    </g>
    <g id="xtick_2">
     <g id="line2d_2">
      <g>
       <use xlink:href="#m32a1ffed8e" x="116.693688" y="275.101453" style="stroke: #000000; stroke-width: 0.8"/>
      </g>
     </g>
     <g id="text_2">
      <text style="font: 5px 'Arial'; text-anchor: middle" x="116.693688" y="285.680359" transform="rotate(-0 116.693688 285.680359)">0.2</text>
     </g>
    </g>
    <g id="xtick_3">
     <g id="line2d_3">
      <g>
       <use xlink:href="#m32a1ffed8e" x="188.117688" y="275.101453" style="stroke: #000000; stroke-width: 0.8"/>
      </g>
     </g>
     <g id="text_3">
      <text style="font: 5px 'Arial'; text-anchor: middle" x="188.117688" y="285.680359" transform="rotate(-0 188.117688 285.680359)">0.4</text>
     </g>
    </g>
    <g id="xtick_4">
     <g id="line2d_4">
      <g>
       <use xlink:href="#m32a1ffed8e" x="259.541688" y="275.101453" style="stroke: #000000; stroke-width: 0.8"/>
      </g>
     </g>
     <g id="text_4">
      <text style="font: 5px 'Arial'; text-anchor: middle" x="259.541688" y="285.680359" transform="rotate(-0 259.541688 285.680359)">0.6</text>
     </g>
    </g>
    <g id="xtick_5">
     <g id="line2d_5">
      <g>
       <use xlink:href="#m32a1ffed8e" x="330.965688" y="275.101453" style="stroke: #000000; stroke-width: 0.8"/>
      </g>
     </g>
     <g id="text_5">
      <text style="font: 5px 'Arial'; text-anchor: middle" x="330.965688" y="285.680359" transform="rotate(-0 330.965688 285.680359)">0.8</text>
     </g>
    </g>
    <g id="xtick_6">
     <g id="line2d_6">
      <g>
       <use xlink:href="#m32a1ffed8e" x="402.389688" y="275.101453" style="stroke: #000000; stroke-width: 0.8"/>
      </g>
     </g>
     <g id="text_6">
      <text style="font: 5px 'Arial'; text-anchor: middle" x="402.389688" y="285.680359" transform="rotate(-0 402.389688 285.680359)">1.0</text>
     </g>
    </g>
    <g id="text_7">
     <text style="font: 22px 'Arial'; text-anchor: middle" x="223.829688" y="306.421297" transform="rotate(-0 223.829688 306.421297)">FPR</text>
    </g>
   </g>
   <g id="matplotlib.axis_2">
    <g id="ytick_1">
     <g id="line2d_7">
      <defs>
       <path id="m8387e07ca3" d="M 0 0 
L -3.5 0 
" style="stroke: #000000; stroke-width: 0.8"/>
      </defs>
      <g>
       <use xlink:href="#m8387e07ca3" x="45.269688" y="275.101453" style="stroke: #000000; stroke-width: 0.8"/>
      </g>
     </g>
     <g id="text_8">
      <text style="font: 5px 'Arial'; text-anchor: end" x="38.269688" y="276.890906" transform="rotate(-0 38.269688 276.890906)">0.0</text>
     </g>
    </g>
    <g id="ytick_2">
     <g id="line2d_8">
      <g>
       <use xlink:href="#m8387e07ca3" x="45.269688" y="221.879053" style="stroke: #000000; stroke-width: 0.8"/>
      </g>
     </g>
     <g id="text_9">
      <text style="font: 5px 'Arial'; text-anchor: end" x="38.269688" y="223.668506" transform="rotate(-0 38.269688 223.668506)">0.2</text>
     </g>
    </g>
    <g id="ytick_3">
     <g id="line2d_9">
      <g>
       <use xlink:href="#m8387e07ca3" x="45.269688" y="168.656653" style="stroke: #000000; stroke-width: 0.8"/>
      </g>
     </g>
     <g id="text_10">
      <text style="font: 5px 'Arial'; text-anchor: end" x="38.269688" y="170.446106" transform="rotate(-0 38.269688 170.446106)">0.4</text>
     </g>
    </g>
    <g id="ytick_4">
     <g id="line2d_10">
      <g>
       <use xlink:href="#m8387e07ca3" x="45.269688" y="115.434253" style="stroke: #000000; stroke-width: 0.8"/>
      </g>
     </g>
     <g id="text_11">
      <text style="font: 5px 'Arial'; text-anchor: end" x="38.269688" y="117.223706" transform="rotate(-0 38.269688 117.223706)">0.6</text>
     </g>
    </g>
    <g id="ytick_5">
     <g id="line2d_11">
      <g>
       <use xlink:href="#m8387e07ca3" x="45.269688" y="62.211853" style="stroke: #000000; stroke-width: 0.8"/>
      </g>
     </g>
     <g id="text_12">
      <text style="font: 5px 'Arial'; text-anchor: end" x="38.269688" y="64.001306" transform="rotate(-0 38.269688 64.001306)">0.8</text>
     </g>
    </g>
    <g id="ytick_6">
     <g id="line2d_12">
      <g>
       <use xlink:href="#m8387e07ca3" x="45.269688" y="8.989453" style="stroke: #000000; stroke-width: 0.8"/>
      </g>
     </g>
     <g id="text_13">
      <text style="font: 5px 'Arial'; text-anchor: end" x="38.269688" y="10.778906" transform="rotate(-0 38.269688 10.778906)">1.0</text>
     </g>
    </g>
    <g id="text_14">
     <text style="font: 22px 'Arial'; text-anchor: middle" x="22.947188" y="142.045453" transform="rotate(-90 22.947188 142.045453)">TPR</text>
    </g>
   </g>
   <g id="line2d_13">
    <path d="M 45.269688 275.101453 
L 45.269688 270.399072 
L 45.869889 270.399072 
L 45.869889 258.429376 
L 46.470091 258.429376 
L 46.470091 258.001887 
L 47.070293 258.001887 
L 47.070293 257.574398 
L 47.670494 257.574398 
L 47.670494 246.03219 
L 48.270696 246.03219 
L 48.270696 240.047342 
L 48.870898 240.047342 
L 48.870898 236.413684 
L 49.471099 236.413684 
L 49.471099 234.703728 
L 50.071301 234.703728 
L 50.071301 234.276239 
L 50.671503 234.276239 
L 50.671503 233.207516 
L 51.271704 233.207516 
L 51.271704 232.566282 
L 51.871906 232.566282 
L 51.871906 231.497559 
L 52.472108 231.497559 
L 52.472108 229.573858 
L 53.072309 229.573858 
L 53.072309 228.71888 
L 53.672511 228.71888 
L 53.672511 221.451564 
L 54.272713 221.451564 
L 54.272713 218.672884 
L 54.872914 218.672884 
L 54.872914 215.68046 
L 55.473116 215.68046 
L 55.473116 213.115525 
L 56.073318 213.115525 
L 56.073318 203.710764 
L 56.673519 203.710764 
L 56.673519 203.06953 
L 57.273721 203.06953 
L 57.273721 194.947236 
L 57.873923 194.947236 
L 57.873923 182.97754 
L 58.474124 182.97754 
L 58.474124 179.130137 
L 59.074326 179.130137 
L 59.074326 172.7178 
L 59.674528 172.7178 
L 59.674528 172.504056 
L 60.27473 172.504056 
L 60.27473 170.794099 
L 60.874931 170.794099 
L 60.874931 166.732952 
L 61.475133 166.732952 
L 61.475133 164.595506 
L 62.075335 164.595506 
L 62.075335 160.10687 
L 62.675536 160.10687 
L 62.675536 156.686957 
L 63.275738 156.686957 
L 63.275738 154.977 
L 63.87594 154.977 
L 63.87594 150.915853 
L 64.476141 150.915853 
L 64.476141 144.076027 
L 65.076343 144.076027 
L 65.076343 143.862282 
L 65.676545 143.862282 
L 65.676545 142.36607 
L 66.276746 142.36607 
L 66.276746 139.159901 
L 66.876948 139.159901 
L 66.876948 138.518668 
L 67.47715 138.518668 
L 67.47715 138.091178 
L 68.077351 138.091178 
L 68.077351 137.449945 
L 68.677553 137.449945 
L 68.677553 135.098754 
L 69.277755 135.098754 
L 69.277755 131.251352 
L 69.877956 131.251352 
L 69.877956 123.770292 
L 71.07836 123.770292 
L 71.07836 119.922889 
L 71.678561 119.922889 
L 71.678561 119.4954 
L 72.278763 119.4954 
L 72.278763 117.785443 
L 72.878965 117.785443 
L 72.878965 115.434253 
L 73.479166 115.434253 
L 73.479166 114.793019 
L 74.079368 114.793019 
L 74.079368 114.36553 
L 74.67957 114.36553 
L 74.67957 113.296807 
L 75.279772 113.296807 
L 75.279772 111.159362 
L 75.879973 111.159362 
L 75.879973 110.304383 
L 76.480175 110.304383 
L 76.480175 109.449405 
L 77.080377 109.449405 
L 77.080377 106.670725 
L 77.680578 106.670725 
L 77.680578 106.029492 
L 78.28078 106.029492 
L 78.28078 105.388258 
L 78.880982 105.388258 
L 78.880982 103.678301 
L 79.481183 103.678301 
L 79.481183 103.250812 
L 80.081385 103.250812 
L 80.081385 102.609578 
L 80.681587 102.609578 
L 80.681587 101.113366 
L 81.281788 101.113366 
L 81.281788 99.189665 
L 81.88199 99.189665 
L 81.88199 98.334687 
L 83.682595 98.334687 
L 83.682595 97.907198 
L 84.882998 97.907198 
L 84.882998 97.265964 
L 85.4832 97.265964 
L 85.4832 95.128518 
L 86.083402 95.128518 
L 86.083402 94.914774 
L 86.683603 94.914774 
L 86.683603 93.846051 
L 87.884007 93.846051 
L 87.884007 93.418562 
L 88.484209 93.418562 
L 88.484209 93.204817 
L 89.08441 93.204817 
L 89.08441 92.991072 
L 89.684612 92.991072 
L 89.684612 92.349839 
L 90.284814 92.349839 
L 90.284814 90.212393 
L 90.885015 90.212393 
L 90.885015 89.571159 
L 92.085419 89.571159 
L 92.085419 88.288692 
L 93.285822 88.288692 
L 93.285822 87.861203 
L 93.886024 87.861203 
L 93.886024 87.219969 
L 94.486225 87.219969 
L 94.486225 86.36499 
L 95.086427 86.36499 
L 95.086427 85.082523 
L 95.686629 85.082523 
L 95.686629 83.586311 
L 96.28683 83.586311 
L 96.28683 83.372566 
L 96.887032 83.372566 
L 96.887032 82.731333 
L 97.487234 82.731333 
L 97.487234 82.517588 
L 98.687637 82.517588 
L 98.687637 82.303843 
L 99.287839 82.303843 
L 99.287839 81.66261 
L 99.88804 81.66261 
L 99.88804 81.235121 
L 100.488242 81.235121 
L 100.488242 80.380142 
L 101.088444 80.380142 
L 101.088444 79.952653 
L 102.288847 79.952653 
L 102.288847 79.738909 
L 102.889049 79.738909 
L 102.889049 78.88393 
L 103.489251 78.88393 
L 103.489251 77.173974 
L 104.689654 77.173974 
L 104.689654 76.746484 
L 105.289856 76.746484 
L 105.289856 75.891506 
L 105.890057 75.891506 
L 105.890057 75.677762 
L 106.490259 75.677762 
L 106.490259 75.036528 
L 107.090461 75.036528 
L 107.090461 72.899082 
L 107.690662 72.899082 
L 107.690662 72.685337 
L 108.290864 72.685337 
L 108.290864 70.761636 
L 109.491267 70.761636 
L 109.491267 70.120403 
L 110.691671 70.120403 
L 110.691671 69.906658 
L 111.291872 69.906658 
L 111.291872 68.62419 
L 111.892074 68.62419 
L 111.892074 67.341723 
L 113.092477 67.341723 
L 113.092477 66.700489 
L 113.692679 66.700489 
L 113.692679 66.273 
L 114.292881 66.273 
L 114.292881 66.059256 
L 114.893082 66.059256 
L 114.893082 65.631766 
L 115.493284 65.631766 
L 115.493284 64.990533 
L 116.093486 64.990533 
L 116.093486 63.92181 
L 116.693688 63.92181 
L 116.693688 62.639342 
L 117.293889 62.639342 
L 117.293889 62.425598 
L 117.894091 62.425598 
L 117.894091 61.998109 
L 119.094494 61.998109 
L 119.094494 61.784364 
L 119.694696 61.784364 
L 119.694696 61.570619 
L 120.294898 61.570619 
L 120.294898 61.356875 
L 121.495301 61.356875 
L 121.495301 60.715641 
L 122.695704 60.715641 
L 122.695704 60.501896 
L 123.896108 60.501896 
L 123.896108 59.860663 
L 124.496309 59.860663 
L 124.496309 59.433174 
L 125.696713 59.433174 
L 125.696713 58.79194 
L 127.497318 58.79194 
L 127.497318 58.364451 
L 128.097519 58.364451 
L 128.097519 58.150706 
L 129.297923 58.150706 
L 129.297923 57.936962 
L 129.898124 57.936962 
L 129.898124 57.723217 
L 130.498326 57.723217 
L 130.498326 57.509472 
L 132.899133 57.509472 
L 132.899133 57.295728 
L 133.499335 57.295728 
L 133.499335 57.081983 
L 134.099536 57.081983 
L 134.099536 56.868239 
L 134.699738 56.868239 
L 134.699738 56.654494 
L 135.900141 56.654494 
L 135.900141 56.227005 
L 136.500343 56.227005 
L 136.500343 56.01326 
L 137.100545 56.01326 
L 137.100545 54.944537 
L 137.700746 54.944537 
L 137.700746 54.089559 
L 139.501351 54.089559 
L 139.501351 53.875815 
L 140.101553 53.875815 
L 140.101553 53.234581 
L 140.701755 53.234581 
L 140.701755 53.020836 
L 141.301956 53.020836 
L 141.301956 52.593347 
L 141.902158 52.593347 
L 141.902158 52.165858 
L 142.50236 52.165858 
L 142.50236 51.31088 
L 143.102561 51.31088 
L 143.102561 50.455901 
L 146.10357 50.455901 
L 146.10357 49.814668 
L 148.504377 49.814668 
L 148.504377 49.600923 
L 149.104578 49.600923 
L 149.104578 48.959689 
L 150.304982 48.959689 
L 150.304982 48.318456 
L 151.505385 48.318456 
L 151.505385 48.104711 
L 153.906192 48.104711 
L 153.906192 47.035988 
L 155.106595 47.035988 
L 155.106595 46.822243 
L 156.306998 46.822243 
L 156.306998 46.608499 
L 156.9072 46.608499 
L 156.9072 46.394754 
L 157.507402 46.394754 
L 157.507402 45.539776 
L 158.107603 45.539776 
L 158.107603 44.898542 
L 159.308007 44.898542 
L 159.308007 44.684798 
L 162.309015 44.684798 
L 162.309015 44.257309 
L 164.709822 44.257309 
L 164.709822 43.188586 
L 165.910225 43.188586 
L 165.910225 42.974841 
L 166.510427 42.974841 
L 166.510427 42.761096 
L 167.110629 42.761096 
L 167.110629 42.547352 
L 170.711839 42.547352 
L 170.711839 42.333607 
L 171.31204 42.333607 
L 171.31204 41.906118 
L 172.512444 41.906118 
L 172.512444 41.692374 
L 173.112645 41.692374 
L 173.112645 41.264884 
L 173.712847 41.264884 
L 173.712847 40.623651 
L 177.914259 40.623651 
L 177.914259 40.409906 
L 179.714864 40.409906 
L 179.714864 40.196162 
L 180.315066 40.196162 
L 180.315066 39.554928 
L 180.915267 39.554928 
L 180.915267 38.913694 
L 182.715872 38.913694 
L 182.715872 38.69995 
L 183.916276 38.69995 
L 183.916276 38.27246 
L 186.917284 38.27246 
L 186.917284 38.058716 
L 188.717889 38.058716 
L 188.717889 37.417482 
L 189.318091 37.417482 
L 189.318091 37.203737 
L 190.518494 37.203737 
L 190.518494 36.776248 
L 194.719906 36.776248 
L 194.719906 35.707525 
L 198.921318 35.707525 
L 198.921318 35.493781 
L 203.12273 35.493781 
L 203.12273 35.066292 
L 203.722931 35.066292 
L 203.722931 34.852547 
L 204.323133 34.852547 
L 204.323133 34.638803 
L 204.923335 34.638803 
L 204.923335 34.425058 
L 206.123738 34.425058 
L 206.123738 32.928846 
L 206.72394 32.928846 
L 206.72394 32.715101 
L 207.324141 32.715101 
L 207.324141 32.287612 
L 209.724948 32.287612 
L 209.724948 32.073868 
L 212.125755 32.073868 
L 212.125755 31.646378 
L 212.725956 31.646378 
L 212.725956 31.005145 
L 213.92636 31.005145 
L 213.92636 30.7914 
L 214.526561 30.7914 
L 214.526561 30.363911 
L 215.126763 30.363911 
L 215.126763 30.150166 
L 217.52757 30.150166 
L 217.52757 29.936422 
L 218.127772 29.936422 
L 218.127772 29.508933 
L 218.727973 29.508933 
L 218.727973 29.295188 
L 219.328175 29.295188 
L 219.328175 29.081443 
L 221.12878 29.081443 
L 221.12878 28.653954 
L 222.329183 28.653954 
L 222.329183 28.44021 
L 223.529587 28.44021 
L 223.529587 28.226465 
L 224.129788 28.226465 
L 224.129788 28.012721 
L 226.530595 28.012721 
L 226.530595 27.798976 
L 228.3312 27.798976 
L 228.3312 27.157742 
L 228.931402 27.157742 
L 228.931402 26.730253 
L 230.131805 26.730253 
L 230.131805 26.302764 
L 231.93241 26.302764 
L 231.93241 25.875275 
L 232.532612 25.875275 
L 232.532612 25.66153 
L 233.733015 25.66153 
L 233.733015 25.447786 
L 235.53362 25.447786 
L 235.53362 24.806552 
L 236.734024 24.806552 
L 236.734024 23.951574 
L 238.534629 23.951574 
L 238.534629 23.737829 
L 240.335234 23.737829 
L 240.335234 23.524084 
L 240.935435 23.524084 
L 240.935435 23.096595 
L 242.135839 23.096595 
L 242.135839 22.882851 
L 242.73604 22.882851 
L 242.73604 21.386639 
L 243.936444 21.386639 
L 243.936444 21.172894 
L 245.136847 21.172894 
L 245.136847 20.95915 
L 245.737049 20.95915 
L 245.737049 20.745405 
L 246.337251 20.745405 
L 246.337251 20.53166 
L 249.338259 20.53166 
L 249.338259 20.317916 
L 250.538662 20.317916 
L 250.538662 20.104171 
L 251.138864 20.104171 
L 251.138864 19.890427 
L 252.339267 19.890427 
L 252.339267 19.676682 
L 254.139872 19.676682 
L 254.139872 19.462937 
L 255.340276 19.462937 
L 255.340276 19.249193 
L 255.940477 19.249193 
L 255.940477 19.035448 
L 258.941486 19.035448 
L 258.941486 18.821704 
L 260.742091 18.821704 
L 260.742091 18.607959 
L 261.342293 18.607959 
L 261.342293 18.394215 
L 261.942494 18.394215 
L 261.942494 18.18047 
L 262.542696 18.18047 
L 262.542696 17.966725 
L 266.143906 17.966725 
L 266.143906 17.752981 
L 268.544713 17.752981 
L 268.544713 17.325492 
L 269.144914 17.325492 
L 269.144914 17.111747 
L 270.945519 17.111747 
L 270.945519 16.684258 
L 271.545721 16.684258 
L 271.545721 16.470513 
L 273.346326 16.470513 
L 273.346326 16.256769 
L 273.946528 16.256769 
L 273.946528 16.043024 
L 277.547738 16.043024 
L 277.547738 15.82928 
L 278.14794 15.82928 
L 278.14794 15.615535 
L 279.948545 15.615535 
L 279.948545 15.40179 
L 282.949553 15.40179 
L 282.949553 14.974301 
L 284.149956 14.974301 
L 284.149956 14.760557 
L 287.150965 14.760557 
L 287.150965 14.546812 
L 288.351368 14.546812 
L 288.351368 14.333068 
L 293.152982 14.333068 
L 293.152982 14.119323 
L 294.953587 14.119323 
L 294.953587 13.905578 
L 297.354393 13.905578 
L 297.354393 13.691834 
L 300.355402 13.691834 
L 300.355402 13.478089 
L 302.156007 13.478089 
L 302.156007 13.264345 
L 303.956612 13.264345 
L 303.956612 13.0506 
L 304.556814 13.0506 
L 304.556814 12.623111 
L 313.559839 12.623111 
L 313.559839 12.409366 
L 315.960645 12.409366 
L 315.960645 12.195622 
L 318.961654 12.195622 
L 318.961654 11.981877 
L 319.561856 11.981877 
L 319.561856 11.768133 
L 320.762259 11.768133 
L 320.762259 11.554388 
L 322.562864 11.554388 
L 322.562864 11.126899 
L 326.764276 11.126899 
L 326.764276 10.913154 
L 334.566898 10.913154 
L 334.566898 10.271921 
L 337.567906 10.271921 
L 337.567906 10.058176 
L 344.170124 10.058176 
L 344.170124 9.844431 
L 349.57194 9.844431 
L 349.57194 9.630687 
L 354.373553 9.630687 
L 354.373553 9.416942 
L 380.182225 9.416942 
L 380.182225 9.203198 
L 390.985856 9.203198 
L 390.985856 8.989453 
L 402.389688 8.989453 
L 402.389688 8.989453 
" clip-path="url(#paccabeb62e)" style="fill: none; stroke: #ff0000; stroke-width: 1.5; stroke-linecap: square"/>
   </g>
   <g id="line2d_14">
    <defs>
     <path id="m9390f89b08" d="M 0 3 
C 0.795609 3 1.55874 2.683901 2.12132 2.12132 
C 2.683901 1.55874 3 0.795609 3 0 
C 3 -0.795609 2.683901 -1.55874 2.12132 -2.12132 
C 1.55874 -2.683901 0.795609 -3 0 -3 
C -0.795609 -3 -1.55874 -2.683901 -2.12132 -2.12132 
C -2.683901 -1.55874 -3 -0.795609 -3 0 
C -3 0.795609 -2.683901 1.55874 -2.12132 2.12132 
C -1.55874 2.683901 -0.795609 3 0 3 
z
" style="stroke: #000000"/>
    </defs>
    <g clip-path="url(#paccabeb62e)">
     <use xlink:href="#m9390f89b08" x="116.693688" y="62.639342" style="fill: #ff0000; stroke: #000000"/>
    </g>
   </g>
   <g id="line2d_15">
    <path d="M 45.269688 275.101453 
L 402.389688 8.989453 
" clip-path="url(#paccabeb62e)" style="fill: none; stroke: #00bfbf; stroke-width: 1.5; stroke-linecap: square"/>
   </g>
   <g id="patch_4">
    <path d="M 45.269688 275.101453 
L 45.269688 8.989453 
" style="fill: none; stroke: #000000; stroke-width: 0.8; stroke-linejoin: miter; stroke-linecap: square"/>
   </g>
   <g id="patch_5">
    <path d="M 402.389688 275.101453 
L 402.389688 8.989453 
" style="fill: none; stroke: #000000; stroke-width: 0.8; stroke-linejoin: miter; stroke-linecap: square"/>
   </g>
   <g id="patch_6">
    <path d="M 45.269688 275.101453 
L 402.389688 275.101453 
" style="fill: none; stroke: #000000; stroke-width: 0.8; stroke-linejoin: miter; stroke-linecap: square"/>
   </g>
   <g id="patch_7">
    <path d="M 45.269688 8.989453 
L 402.389688 8.989453 
" style="fill: none; stroke: #000000; stroke-width: 0.8; stroke-linejoin: miter; stroke-linecap: square"/>
   </g>
   <g id="legend_1">
    <g id="patch_8">
     <path d="M 163.116406 339.516041 
L 284.542969 339.516041 
Q 285.542969 339.516041 285.542969 338.516041 
L 285.542969 331.823853 
Q 285.542969 330.823853 284.542969 330.823853 
L 163.116406 330.823853 
Q 162.116406 330.823853 162.116406 331.823853 
L 162.116406 338.516041 
Q 162.116406 339.516041 163.116406 339.516041 
z
" style="fill: #ffffff; opacity: 0.8; stroke: #cccccc; stroke-linejoin: miter"/>
    </g>
    <g id="line2d_16">
     <path d="M 164.116406 334.713697 
L 169.116406 334.713697 
L 174.116406 334.713697 
" style="fill: none; stroke: #ff0000; stroke-width: 1.5; stroke-linecap: square"/>
    </g>
    <g id="text_15">
     <text style="font: 5px 'Arial'; text-anchor: start" x="178.116406" y="336.463697" transform="rotate(-0 178.116406 336.463697)">model performance</text>
    </g>
    <g id="line2d_17">
     <path d="M 231.189063 334.713697 
L 236.189063 334.713697 
L 241.189063 334.713697 
" style="fill: none; stroke: #00bfbf; stroke-width: 1.5; stroke-linecap: square"/>
    </g>
    <g id="text_16">
     <text style="font: 5px 'Arial'; text-anchor: start" x="245.189063" y="336.463697" transform="rotate(-0 245.189063 336.463697)">random guessing</text>
    </g>
   </g>
  </g>
 </g>
 <defs>
  <clipPath id="paccabeb62e">
   <rect x="45.269688" y="8.989453" width="357.12" height="266.112"/>
  </clipPath>
 </defs>
</svg>
