<?xml version="1.0" encoding="utf-8" standalone="no"?>
<!DOCTYPE svg PUBLIC "-//W3C//DTD SVG 1.1//EN"
  "http://www.w3.org/Graphics/SVG/1.1/DTD/svg11.dtd">
<svg xmlns:xlink="http://www.w3.org/1999/xlink" width="238.114192pt" height="476.242367pt" viewBox="0 0 238.114192 476.242367" xmlns="http://www.w3.org/2000/svg" version="1.1">
 <metadata>
  <rdf:RDF xmlns:dc="http://purl.org/dc/elements/1.1/" xmlns:cc="http://creativecommons.org/ns#" xmlns:rdf="http://www.w3.org/1999/02/22-rdf-syntax-ns#">
   <cc:Work>
    <dc:type rdf:resource="http://purl.org/dc/dcmitype/StillImage"/>
    <dc:date>2024-09-25T17:35:10.367913</dc:date>
    <dc:format>image/svg+xml</dc:format>
    <dc:creator>
     <cc:Agent>
      <dc:title>Matplotlib v3.7.0, https://matplotlib.org/</dc:title>
     </cc:Agent>
    </dc:creator>
   </cc:Work>
  </rdf:RDF>
 </metadata>
 <defs>
  <style type="text/css">*{stroke-linejoin: round; stroke-linecap: butt}</style>
 </defs>
 <g id="figure_1">
  <g id="patch_1">
   <path d="M 0 476.242367 
L 238.114192 476.242367 
L 238.114192 0 
L 0 0 
z
" style="fill: #ffffff"/>
  </g>
  <g id="axes_1">
   <g id="patch_2">
    <path d="M 29.722656 426.055276 
L 227.439192 426.055276 
L 227.439192 22.26 
L 29.722656 22.26 
z
" style="fill: #ffffff"/>
   </g>
   <g id="patch_3">
    <path d="M 227.439192 22.26 
L 228.127392 34.951539 
L 226.290922 34.146413 
L 218.324957 109.933408 
L 218.131645 109.848658 
L 226.097609 34.061663 
L 224.261139 33.256536 
z
" clip-path="url(#p7055331d09)" style="fill: #1f77b4; stroke: #000000; stroke-linejoin: miter"/>
   </g>
   <g id="matplotlib.axis_1">
    <g id="xtick_1">
     <g id="line2d_1">
      <defs>
       <path id="m038e27ab1d" d="M 0 0 
L 0 3.5 
" style="stroke: #000000; stroke-width: 0.8"/>
      </defs>
      <g>
       <use xlink:href="#m038e27ab1d" x="29.722656" y="426.055276" style="stroke: #000000; stroke-width: 0.8"/>
      </g>
     </g>
     <g id="text_1">
      <text style="font: 5px 'Arial'; text-anchor: middle" x="29.722656" y="436.634182" transform="rotate(-0 29.722656 436.634182)">0.0</text>
     </g>
    </g>
    <g id="xtick_2">
     <g id="line2d_2">
      <g>
       <use xlink:href="#m038e27ab1d" x="69.265963" y="426.055276" style="stroke: #000000; stroke-width: 0.8"/>
      </g>
     </g>
     <g id="text_2">
      <text style="font: 5px 'Arial'; text-anchor: middle" x="69.265963" y="436.634182" transform="rotate(-0 69.265963 436.634182)">0.2</text>
     </g>
    </g>
    <g id="xtick_3">
     <g id="line2d_3">
      <g>
       <use xlink:href="#m038e27ab1d" x="108.80927" y="426.055276" style="stroke: #000000; stroke-width: 0.8"/>
      </g>
     </g>
     <g id="text_3">
      <text style="font: 5px 'Arial'; text-anchor: middle" x="108.80927" y="436.634182" transform="rotate(-0 108.80927 436.634182)">0.4</text>
     </g>
    </g>
    <g id="xtick_4">
     <g id="line2d_4">
      <g>
       <use xlink:href="#m038e27ab1d" x="148.352578" y="426.055276" style="stroke: #000000; stroke-width: 0.8"/>
      </g>
     </g>
     <g id="text_4">
      <text style="font: 5px 'Arial'; text-anchor: middle" x="148.352578" y="436.634182" transform="rotate(-0 148.352578 436.634182)">0.6</text>
     </g>
    </g>
    <g id="xtick_5">
     <g id="line2d_5">
      <g>
       <use xlink:href="#m038e27ab1d" x="187.895885" y="426.055276" style="stroke: #000000; stroke-width: 0.8"/>
      </g>
     </g>
     <g id="text_5">
      <text style="font: 5px 'Arial'; text-anchor: middle" x="187.895885" y="436.634182" transform="rotate(-0 187.895885 436.634182)">0.8</text>
     </g>
    </g>
    <g id="xtick_6">
     <g id="line2d_6">
      <g>
       <use xlink:href="#m038e27ab1d" x="227.439192" y="426.055276" style="stroke: #000000; stroke-width: 0.8"/>
      </g>
     </g>
     <g id="text_6">
      <text style="font: 5px 'Arial'; text-anchor: middle" x="227.439192" y="436.634182" transform="rotate(-0 227.439192 436.634182)">1.0</text>
     </g>
    </g>
    <g id="text_7">
     <text style="font: 5px 'Arial'; text-anchor: middle" x="128.580924" y="445.206838" transform="rotate(-0 128.580924 445.206838)">Recall</text>
    </g>
   </g>
   <g id="matplotlib.axis_2">
    <g id="ytick_1">
     <g id="line2d_7">
      <defs>
       <path id="mfa4f933c96" d="M 0 0 
L -3.5 0 
" style="stroke: #000000; stroke-width: 0.8"/>
      </defs>
      <g>
       <use xlink:href="#mfa4f933c96" x="29.722656" y="426.055276" style="stroke: #000000; stroke-width: 0.8"/>
      </g>
     </g>
     <g id="text_8">
      <text style="font: 5px 'Arial'; text-anchor: end" x="22.722656" y="427.844729" transform="rotate(-0 22.722656 427.844729)">0.0</text>
     </g>
    </g>
    <g id="ytick_2">
     <g id="line2d_8">
      <g>
       <use xlink:href="#mfa4f933c96" x="29.722656" y="345.29622" style="stroke: #000000; stroke-width: 0.8"/>
      </g>
     </g>
     <g id="text_9">
      <text style="font: 5px 'Arial'; text-anchor: end" x="22.722656" y="347.085674" transform="rotate(-0 22.722656 347.085674)">0.2</text>
     </g>
    </g>
    <g id="ytick_3">
     <g id="line2d_9">
      <g>
       <use xlink:href="#mfa4f933c96" x="29.722656" y="264.537165" style="stroke: #000000; stroke-width: 0.8"/>
      </g>
     </g>
     <g id="text_10">
      <text style="font: 5px 'Arial'; text-anchor: end" x="22.722656" y="266.326618" transform="rotate(-0 22.722656 266.326618)">0.4</text>
     </g>
    </g>
    <g id="ytick_4">
     <g id="line2d_10">
      <g>
       <use xlink:href="#mfa4f933c96" x="29.722656" y="183.77811" style="stroke: #000000; stroke-width: 0.8"/>
      </g>
     </g>
     <g id="text_11">
      <text style="font: 5px 'Arial'; text-anchor: end" x="22.722656" y="185.567563" transform="rotate(-0 22.722656 185.567563)">0.6</text>
     </g>
    </g>
    <g id="ytick_5">
     <g id="line2d_11">
      <g>
       <use xlink:href="#mfa4f933c96" x="29.722656" y="103.019055" style="stroke: #000000; stroke-width: 0.8"/>
      </g>
     </g>
     <g id="text_12">
      <text style="font: 5px 'Arial'; text-anchor: end" x="22.722656" y="104.808508" transform="rotate(-0 22.722656 104.808508)">0.8</text>
     </g>
    </g>
    <g id="ytick_6">
     <g id="line2d_12">
      <g>
       <use xlink:href="#mfa4f933c96" x="29.722656" y="22.26" style="stroke: #000000; stroke-width: 0.8"/>
      </g>
     </g>
     <g id="text_13">
      <text style="font: 5px 'Arial'; text-anchor: end" x="22.722656" y="24.049453" transform="rotate(-0 22.722656 24.049453)">1.0</text>
     </g>
    </g>
    <g id="text_14">
     <text style="font: 5px 'Arial'; text-anchor: middle" x="10.778906" y="224.157638" transform="rotate(-90 10.778906 224.157638)">Precision</text>
    </g>
   </g>
   <g id="line2d_13">
    <path d="M 227.439192 152.835103 
L 227.439192 149.984371 
L 227.280383 150.054549 
L 227.280383 147.297605 
L 227.121575 147.367032 
L 227.121575 140.550425 
L 226.962766 140.61775 
L 226.962766 139.312147 
L 226.803958 139.37911 
L 226.803958 137.89545 
L 226.645149 137.961983 
L 226.645149 136.126994 
L 226.486341 136.192966 
L 226.486341 135.350833 
L 226.009916 135.548314 
L 226.009916 133.333305 
L 225.851107 133.398488 
L 225.851107 132.191301 
L 225.53349 132.321013 
L 225.53349 131.800208 
L 225.374682 131.864986 
L 225.374682 131.516626 
L 225.215873 131.581351 
L 225.215873 131.406796 
L 225.057065 131.471534 
L 225.057065 130.595318 
L 224.898256 130.659803 
L 224.898256 129.954802 
L 224.739448 130.019097 
L 224.739448 127.344072 
L 224.421831 127.470832 
L 224.421831 127.290636 
L 224.263022 127.35406 
L 224.263022 126.811953 
L 224.104214 126.875241 
L 224.104214 126.330947 
L 223.945406 126.394097 
L 223.945406 125.482164 
L 223.786597 125.545028 
L 223.786597 124.811181 
L 223.627789 124.873827 
L 223.627789 124.320862 
L 223.46898 124.383361 
L 223.46898 122.898207 
L 223.310172 122.960176 
L 223.310172 122.586446 
L 223.151363 122.648338 
L 223.151363 121.709579 
L 222.992555 121.771158 
L 222.992555 121.393868 
L 222.674938 121.516939 
L 222.674938 120.568812 
L 222.516129 120.630064 
L 222.516129 120.058107 
L 222.357321 120.119192 
L 222.357321 119.927982 
L 222.198512 119.989063 
L 222.198512 118.836271 
L 222.039704 118.896935 
L 222.039704 118.703875 
L 221.880896 118.764531 
L 221.880896 118.183641 
L 221.722087 118.244123 
L 221.722087 118.04992 
L 221.40447 118.170944 
L 221.40447 117.586353 
L 221.245662 117.646724 
L 221.245662 117.451282 
L 220.928045 117.572083 
L 220.928045 116.787138 
L 220.769236 116.847308 
L 220.769236 115.661846 
L 220.610428 115.721566 
L 220.610428 115.523016 
L 220.451619 115.582724 
L 220.451619 115.38383 
L 220.292811 115.443525 
L 220.292811 115.244287 
L 220.134002 115.303969 
L 220.134002 114.704449 
L 219.975194 114.763937 
L 219.975194 113.759123 
L 219.816385 113.818231 
L 219.816385 113.616397 
L 219.657577 113.675489 
L 219.657577 113.270852 
L 219.498769 113.329835 
L 219.498769 112.72063 
L 219.33996 112.779409 
L 219.33996 112.371763 
L 219.181152 112.430429 
L 219.181152 112.226114 
L 219.022343 112.284762 
L 219.022343 111.875139 
L 218.863535 111.933673 
L 218.863535 110.904441 
L 218.704726 110.962569 
L 218.704726 110.755815 
L 218.545918 110.813921 
L 218.545918 110.606798 
L 218.387109 110.664883 
L 218.387109 110.249622 
L 218.228301 110.307586 
L 218.228301 109.891033 
L 217.116642 110.297539 
L 217.116642 110.08815 
L 216.957833 110.14643 
L 216.957833 109.726618 
L 216.640216 109.843007 
L 216.640216 109.63248 
L 216.481408 109.690689 
L 216.481408 109.057115 
L 216.322599 109.115096 
L 216.322599 108.47867 
L 215.687365 108.710129 
L 215.687365 108.28359 
L 215.21094 108.457375 
L 215.21094 107.814465 
L 215.052132 107.872233 
L 215.052132 107.441965 
L 214.893323 107.499598 
L 214.893323 107.283921 
L 214.575706 107.399207 
L 214.575706 106.749772 
L 214.258089 106.864724 
L 214.258089 106.42986 
L 213.940472 106.544689 
L 213.940472 106.326593 
L 213.464047 106.499096 
L 213.464047 105.842024 
L 213.305239 105.899351 
L 213.305239 105.018592 
L 213.14643 105.075549 
L 213.14643 104.854488 
L 212.987622 104.911411 
L 212.987622 104.468148 
L 212.828813 104.524921 
L 212.828813 104.080205 
L 212.511196 104.193529 
L 212.511196 103.523449 
L 212.352388 103.579882 
L 212.352388 103.355785 
L 212.193579 103.41218 
L 212.193579 103.187654 
L 211.875962 103.300446 
L 211.875962 103.075372 
L 211.717154 103.131768 
L 211.717154 102.227854 
L 211.558345 102.283854 
L 211.558345 102.056964 
L 211.240729 102.16896 
L 211.240729 101.941512 
L 211.08192 101.997507 
L 211.08192 101.541409 
L 210.605495 101.709141 
L 210.605495 101.480245 
L 210.287878 101.592217 
L 210.287878 100.672406 
L 210.129069 100.728018 
L 210.129069 99.802478 
L 209.811452 99.912938 
L 209.811452 99.680477 
L 209.652644 99.735698 
L 209.652644 99.502779 
L 208.540985 99.890656 
L 208.540985 99.422028 
L 208.382176 99.477501 
L 208.382176 99.242553 
L 208.223368 99.297976 
L 208.223368 99.06256 
L 208.064559 99.117933 
L 208.064559 98.882047 
L 207.746942 98.992773 
L 207.746942 97.330146 
L 207.588134 97.384702 
L 207.588134 95.704137 
L 206.794092 95.97336 
L 206.794092 94.270653 
L 206.476475 94.376942 
L 206.476475 93.886656 
L 206.317666 93.939635 
L 206.317666 93.693805 
L 205.841241 93.852783 
L 205.841241 93.11181 
L 205.682432 93.164528 
L 205.682432 91.92147 
L 205.364815 92.025676 
L 205.364815 91.525257 
L 205.206007 91.57718 
L 205.206007 90.823285 
L 204.729582 90.978172 
L 204.729582 90.725665 
L 204.253156 90.880798 
L 204.253156 90.627454 
L 204.094348 90.679169 
L 204.094348 89.916373 
L 203.935539 89.967706 
L 203.935539 88.173188 
L 203.459114 88.324365 
L 203.459114 88.065963 
L 203.141497 88.166815 
L 203.141497 87.907698 
L 202.982689 87.95808 
L 202.982689 87.43833 
L 202.665072 87.538682 
L 202.665072 87.277883 
L 202.506263 87.328013 
L 202.506263 85.753758 
L 202.347455 85.802977 
L 202.347455 85.539011 
L 202.188646 85.588141 
L 202.188646 85.323598 
L 202.029838 85.372636 
L 202.029838 84.841978 
L 201.235795 85.08663 
L 201.235795 84.016925 
L 200.918178 84.11395 
L 200.918178 82.765601 
L 200.75937 82.813356 
L 200.75937 82.270681 
L 200.282945 82.413337 
L 200.282945 82.140822 
L 199.647711 82.331374 
L 199.647711 82.057708 
L 199.488902 82.105356 
L 199.488902 81.831073 
L 199.330094 81.878616 
L 199.330094 81.328374 
L 199.171285 81.375628 
L 199.171285 80.823257 
L 198.377243 81.058829 
L 198.377243 79.945039 
L 198.218435 79.991635 
L 198.218435 79.431661 
L 197.742009 79.570765 
L 197.742009 79.007833 
L 197.265584 79.146468 
L 197.265584 78.863739 
L 197.106775 78.909908 
L 197.106775 77.773589 
L 196.63035 77.91021 
L 196.63035 76.476334 
L 195.995116 76.655562 
L 195.995116 76.366563 
L 195.359882 76.54617 
L 195.359882 76.25588 
L 195.042265 76.345723 
L 195.042265 76.054541 
L 194.724648 76.144274 
L 194.724648 75.852194 
L 194.56584 75.896966 
L 194.56584 75.604192 
L 194.089415 75.738335 
L 194.089415 75.444445 
L 193.930606 75.4891 
L 193.930606 74.603832 
L 193.295372 74.780669 
L 193.295372 74.483734 
L 192.50133 74.705397 
L 192.50133 74.406884 
L 192.342522 74.451226 
L 192.342522 74.151989 
L 192.024905 74.240466 
L 192.024905 73.639587 
L 191.866096 73.683501 
L 191.866096 73.382071 
L 191.707288 73.42584 
L 191.707288 73.123672 
L 191.548479 73.167295 
L 191.548479 72.864386 
L 191.389671 72.907861 
L 191.389671 71.690111 
L 191.230862 71.73276 
L 191.230862 71.426782 
L 191.072054 71.469277 
L 191.072054 71.162542 
L 190.913245 71.204882 
L 190.913245 70.589356 
L 190.754437 70.631309 
L 190.754437 70.322513 
L 190.43682 70.406173 
L 190.43682 69.475154 
L 189.960395 69.599079 
L 189.960395 68.974265 
L 189.642778 69.056292 
L 189.642778 68.742584 
L 189.166352 68.865446 
L 189.166352 68.234925 
L 189.007544 68.275539 
L 189.007544 67.642301 
L 188.531118 67.763106 
L 188.531118 67.126142 
L 188.37231 67.166058 
L 188.37231 66.846477 
L 188.213502 66.886216 
L 188.213502 66.565815 
L 188.054693 66.605374 
L 188.054693 65.962351 
L 187.737076 66.040671 
L 187.737076 65.717788 
L 187.578268 65.756798 
L 187.578268 65.43308 
L 186.625417 65.66708 
L 186.625417 65.341232 
L 185.831375 65.536878 
L 185.831375 65.209134 
L 185.354949 65.326588 
L 185.354949 64.997456 
L 185.037332 65.075587 
L 185.037332 64.745322 
L 184.878524 64.784228 
L 184.878524 64.45309 
L 184.560907 64.53058 
L 184.560907 64.198296 
L 184.084482 64.314255 
L 184.084482 63.646219 
L 183.131631 63.876783 
L 183.131631 63.540186 
L 182.17878 63.771664 
L 182.17878 63.432764 
L 182.019971 63.471316 
L 182.019971 62.791045 
L 181.543546 62.905432 
L 181.543546 62.22089 
L 180.11427 62.56276 
L 180.11427 62.216906 
L 179.955461 62.254961 
L 179.955461 61.908154 
L 178.367377 62.289753 
L 178.367377 61.939305 
L 177.890951 62.054317 
L 177.890951 61.702285 
L 177.732143 61.740467 
L 177.732143 61.387449 
L 177.096909 61.539696 
L 177.096909 61.184764 
L 176.779292 61.260714 
L 176.779292 60.547529 
L 175.508825 60.849302 
L 175.508825 60.489139 
L 174.873591 60.640541 
L 174.873591 60.278386 
L 174.714782 60.316102 
L 174.714782 59.588987 
L 174.397165 59.663347 
L 174.397165 59.298051 
L 173.761931 59.446352 
L 173.761931 59.079008 
L 173.444315 59.152942 
L 173.444315 58.784196 
L 172.967889 58.894652 
L 172.967889 58.524157 
L 172.809081 58.560787 
L 172.809081 57.816871 
L 172.650272 57.852897 
L 172.650272 57.479466 
L 172.173847 57.586952 
L 172.173847 57.21173 
L 172.015038 57.247358 
L 172.015038 56.871024 
L 170.903379 57.120024 
L 170.903379 56.740461 
L 169.950528 56.954625 
L 169.950528 56.572137 
L 169.315295 56.714956 
L 169.315295 56.330226 
L 168.838869 56.43703 
L 168.838869 56.0504 
L 168.521252 56.121239 
L 168.521252 55.344067 
L 167.568401 55.553902 
L 167.568401 54.768942 
L 167.091976 54.872583 
L 167.091976 54.477708 
L 165.503891 54.824135 
L 165.503891 54.424532 
L 165.027466 54.528737 
L 165.027466 54.127087 
L 164.868658 54.161575 
L 164.868658 53.758656 
L 164.709849 53.79282 
L 164.709849 53.388626 
L 164.392232 53.456371 
L 164.392232 52.643723 
L 163.59819 52.8103 
L 163.59819 52.400591 
L 163.439381 52.433713 
L 163.439381 52.022688 
L 161.851297 52.353752 
L 161.851297 51.937604 
L 161.374871 52.037082 
L 161.374871 51.199415 
L 161.057254 51.264374 
L 161.057254 49.998189 
L 160.422021 50.123701 
L 160.422021 49.697958 
L 158.992744 49.980499 
L 158.992744 49.549715 
L 157.881085 49.770302 
L 157.881085 49.33529 
L 157.40466 49.42952 
L 157.40466 48.992091 
L 157.087043 49.054331 
L 157.087043 48.614936 
L 155.816575 48.862983 
L 155.816575 48.418705 
L 155.34015 48.511466 
L 155.34015 48.064668 
L 154.863724 48.156609 
L 154.863724 47.707265 
L 152.799214 48.106799 
L 152.799214 47.649788 
L 152.163981 47.773189 
L 152.163981 47.312992 
L 151.528747 47.4355 
L 151.528747 46.972073 
L 149.940662 47.278295 
L 149.940662 46.808348 
L 149.14662 46.961584 
L 149.14662 46.487717 
L 148.829003 46.548438 
L 148.829003 46.072268 
L 148.352578 46.162239 
L 148.352578 45.683181 
L 146.605684 46.012663 
L 146.605684 45.526053 
L 145.335217 45.76684 
L 145.335217 45.274239 
L 145.0176 45.334016 
L 145.0176 44.83893 
L 142.159047 45.380102 
L 142.159047 44.363613 
L 136.600751 45.447124 
L 136.600751 44.913311 
L 133.742199 45.500016 
L 133.742199 44.951665 
L 131.995306 45.317124 
L 131.995306 44.758857 
L 131.518881 44.858263 
L 131.518881 44.296025 
L 131.201264 44.361221 
L 131.201264 43.795748 
L 130.724838 43.89189 
L 130.724838 43.322347 
L 128.342711 43.803955 
L 128.342711 43.220365 
L 127.231052 43.446789 
L 127.231052 42.855431 
L 127.072244 42.887313 
L 127.072244 42.293254 
L 121.990373 43.339036 
L 121.990373 42.713682 
L 118.973012 43.369028 
L 118.973012 42.722598 
L 117.702544 43.002908 
L 117.702544 42.345871 
L 115.161609 42.912668 
L 115.161609 42.235738 
L 111.826631 43.005445 
L 111.826631 42.30131 
L 110.238547 42.676615 
L 110.238547 41.957331 
L 107.221186 42.685442 
L 107.221186 41.938132 
L 105.950718 42.249865 
L 105.950718 41.488346 
L 105.79191 41.526574 
L 105.79191 40.76058 
L 101.027656 41.936465 
L 101.027656 41.120926 
L 98.169103 41.870367 
L 98.169103 41.0204 
L 92.769616 42.546366 
L 89.27583 43.673386 
L 89.27583 42.70533 
L 84.670384 44.325316 
L 83.241108 44.881584 
L 83.241108 43.810871 
L 82.764683 43.994023 
L 82.764683 42.908622 
L 78.635663 44.555445 
L 75.77711 45.858425 
L 75.77711 44.619999 
L 73.871409 45.529558 
L 73.871409 44.235253 
L 71.64809 45.334016 
L 71.64809 43.969423 
L 69.58358 45.03041 
L 69.58358 43.592581 
L 66.566219 45.240219 
L 64.184093 46.732441 
L 64.184093 45.083211 
L 63.548859 45.487162 
L 63.548859 43.795748 
L 62.119583 44.693071 
L 62.119583 42.919293 
L 61.32554 43.411181 
L 61.32554 41.580348 
L 60.849115 41.861712 
L 60.849115 39.987597 
L 60.055073 40.430787 
L 60.055073 38.492976 
L 59.737456 38.657778 
L 59.737456 36.68126 
L 58.466988 37.29493 
L 58.466988 35.215998 
L 55.767244 36.511598 
L 55.767244 34.206606 
L 53.226309 35.455924 
L 51.320607 36.578981 
L 51.320607 33.797008 
L 49.097289 35.078898 
L 47.191587 36.428255 
L 45.444694 37.94137 
L 43.856609 39.627539 
L 42.74495 41.041176 
L 42.74495 36.511598 
L 42.427333 36.85501 
L 42.427333 32.108665 
L 42.109716 32.354882 
L 42.109716 27.371333 
L 40.362823 28.198166 
L 38.933547 29.103988 
L 37.663079 30.177554 
L 36.55142 31.437165 
L 35.598569 32.886191 
L 34.804527 34.49622 
L 34.010485 36.68126 
L 33.375251 39.084803 
L 33.216442 39.816316 
L 33.216442 22.26 
L 29.722656 22.26 
L 29.722656 22.26 
" clip-path="url(#p7055331d09)" style="fill: none; stroke: #ff0000; stroke-width: 1.5; stroke-linecap: square"/>
   </g>
   <g id="line2d_14">
    <defs>
     <path id="m6ce6b50562" d="M 0 3 
C 0.795609 3 1.55874 2.683901 2.12132 2.12132 
C 2.683901 1.55874 3 0.795609 3 0 
C 3 -0.795609 2.683901 -1.55874 2.12132 -2.12132 
C 1.55874 -2.683901 0.795609 -3 0 -3 
C -0.795609 -3 -1.55874 -2.683901 -2.12132 -2.12132 
C -2.683901 -1.55874 -3 -0.795609 -3 0 
C -3 0.795609 -2.683901 1.55874 -2.12132 2.12132 
C -1.55874 2.683901 -0.795609 3 0 3 
z
" style="stroke: #000000"/>
    </defs>
    <g clip-path="url(#p7055331d09)">
     <use xlink:href="#m6ce6b50562" x="218.228301" y="109.891033" style="fill: #ff0000; stroke: #000000"/>
    </g>
   </g>
   <g id="line2d_15">
    <path d="M 29.722656 152.835103 
L 227.439192 152.835103 
" clip-path="url(#p7055331d09)" style="fill: none; stroke: #00bfbf; stroke-width: 1.5; stroke-linecap: square"/>
   </g>
   <g id="patch_4">
    <path d="M 29.722656 426.055276 
L 29.722656 22.26 
" style="fill: none; stroke: #000000; stroke-width: 0.8; stroke-linejoin: miter; stroke-linecap: square"/>
   </g>
   <g id="patch_5">
    <path d="M 227.439192 426.055276 
L 227.439192 22.26 
" style="fill: none; stroke: #000000; stroke-width: 0.8; stroke-linejoin: miter; stroke-linecap: square"/>
   </g>
   <g id="patch_6">
    <path d="M 29.722656 426.055276 
L 227.439192 426.055276 
" style="fill: none; stroke: #000000; stroke-width: 0.8; stroke-linejoin: miter; stroke-linecap: square"/>
   </g>
   <g id="patch_7">
    <path d="M 29.722656 22.26 
L 227.439192 22.26 
" style="fill: none; stroke: #000000; stroke-width: 0.8; stroke-linejoin: miter; stroke-linecap: square"/>
   </g>
   <g id="text_15">
    <text style="font: 5px 'Arial'" transform="translate(105.837955 10.839844)">Hybrid AP-SP model</text>
    <text style="font: 5px 'Arial'" transform="translate(96.49108 16.26)">Precision - Recall (PR) curve</text>
   </g>
   <g id="legend_1">
    <g id="patch_8">
     <path d="M 67.867643 469.042367 
L 189.294205 469.042367 
Q 190.294205 469.042367 190.294205 468.042367 
L 190.294205 461.350179 
Q 190.294205 460.350179 189.294205 460.350179 
L 67.867643 460.350179 
Q 66.867643 460.350179 66.867643 461.350179 
L 66.867643 468.042367 
Q 66.867643 469.042367 67.867643 469.042367 
z
" style="fill: #ffffff; opacity: 0.8; stroke: #cccccc; stroke-linejoin: miter"/>
    </g>
    <g id="line2d_16">
     <path d="M 68.867643 464.240023 
L 73.867643 464.240023 
L 78.867643 464.240023 
" style="fill: none; stroke: #ff0000; stroke-width: 1.5; stroke-linecap: square"/>
    </g>
    <g id="text_16">
     <text style="font: 5px 'Arial'; text-anchor: start" x="82.867643" y="465.990023" transform="rotate(-0 82.867643 465.990023)">model performance</text>
    </g>
    <g id="line2d_17">
     <path d="M 135.940299 464.240023 
L 140.940299 464.240023 
L 145.940299 464.240023 
" style="fill: none; stroke: #00bfbf; stroke-width: 1.5; stroke-linecap: square"/>
    </g>
    <g id="text_17">
     <text style="font: 5px 'Arial'; text-anchor: start" x="149.940299" y="465.990023" transform="rotate(-0 149.940299 465.990023)">random guessing</text>
    </g>
   </g>
  </g>
 </g>
 <defs>
  <clipPath id="p7055331d09">
   <rect x="29.722656" y="22.26" width="197.716535" height="403.795276"/>
  </clipPath>
 </defs>
</svg>
