<?xml version="1.0" encoding="utf-8" standalone="no"?>
<!DOCTYPE svg PUBLIC "-//W3C//DTD SVG 1.1//EN"
  "http://www.w3.org/Graphics/SVG/1.1/DTD/svg11.dtd">
<svg xmlns:xlink="http://www.w3.org/1999/xlink" width="242.837664pt" height="268.400944pt" viewBox="0 0 242.837664 268.400944" xmlns="http://www.w3.org/2000/svg" version="1.1">
 <metadata>
  <rdf:RDF xmlns:dc="http://purl.org/dc/elements/1.1/" xmlns:cc="http://creativecommons.org/ns#" xmlns:rdf="http://www.w3.org/1999/02/22-rdf-syntax-ns#">
   <cc:Work>
    <dc:type rdf:resource="http://purl.org/dc/dcmitype/StillImage"/>
    <dc:date>2024-09-25T18:05:56.060167</dc:date>
    <dc:format>image/svg+xml</dc:format>
    <dc:creator>
     <cc:Agent>
      <dc:title>Matplotlib v3.7.0, https://matplotlib.org/</dc:title>
     </cc:Agent>
    </dc:creator>
   </cc:Work>
  </rdf:RDF>
 </metadata>
 <defs>
  <style type="text/css">*{stroke-linejoin: round; stroke-linecap: butt}</style>
 </defs>
 <g id="figure_1">
  <g id="patch_1">
   <path d="M -0 268.400944 
L 242.837664 268.400944 
L 242.837664 0 
L -0 0 
z
" style="fill: #ffffff"/>
  </g>
  <g id="axes_1">
   <g id="patch_2">
    <path d="M 34.331719 222.330195 
L 230.772664 222.330195 
L 230.772664 25.88925 
L 34.331719 25.88925 
z
" style="fill: #ffffff"/>
   </g>
   <g id="patch_3">
    <path d="M 34.331719 25.88925 
L 39.876751 28.689547 
L 38.551888 30.003853 
L 73.689637 65.423833 
L 73.550178 65.562181 
L 38.412429 30.142201 
L 37.087566 31.456507 
z
" clip-path="url(#p6eb184e989)" style="fill: #1f77b4; stroke: #000000; stroke-linejoin: miter"/>
   </g>
   <g id="matplotlib.axis_1">
    <g id="xtick_1">
     <g id="line2d_1">
      <defs>
       <path id="m604a6f2596" d="M 0 0 
L 0 3.5 
" style="stroke: #000000; stroke-width: 0.8"/>
      </defs>
      <g>
       <use xlink:href="#m604a6f2596" x="34.331719" y="222.330195" style="stroke: #000000; stroke-width: 0.8"/>
      </g>
     </g>
     <g id="text_1">
      <text style="font: 7px 'Arial'; text-anchor: middle" x="34.331719" y="234.340664" transform="rotate(-0 34.331719 234.340664)">0.0</text>
     </g>
    </g>
    <g id="xtick_2">
     <g id="line2d_2">
      <g>
       <use xlink:href="#m604a6f2596" x="73.619908" y="222.330195" style="stroke: #000000; stroke-width: 0.8"/>
      </g>
     </g>
     <g id="text_2">
      <text style="font: 7px 'Arial'; text-anchor: middle" x="73.619908" y="234.340664" transform="rotate(-0 73.619908 234.340664)">0.2</text>
     </g>
    </g>
    <g id="xtick_3">
     <g id="line2d_3">
      <g>
       <use xlink:href="#m604a6f2596" x="112.908097" y="222.330195" style="stroke: #000000; stroke-width: 0.8"/>
      </g>
     </g>
     <g id="text_3">
      <text style="font: 7px 'Arial'; text-anchor: middle" x="112.908097" y="234.340664" transform="rotate(-0 112.908097 234.340664)">0.4</text>
     </g>
    </g>
    <g id="xtick_4">
     <g id="line2d_4">
      <g>
       <use xlink:href="#m604a6f2596" x="152.196286" y="222.330195" style="stroke: #000000; stroke-width: 0.8"/>
      </g>
     </g>
     <g id="text_4">
      <text style="font: 7px 'Arial'; text-anchor: middle" x="152.196286" y="234.340664" transform="rotate(-0 152.196286 234.340664)">0.6</text>
     </g>
    </g>
    <g id="xtick_5">
     <g id="line2d_5">
      <g>
       <use xlink:href="#m604a6f2596" x="191.484475" y="222.330195" style="stroke: #000000; stroke-width: 0.8"/>
      </g>
     </g>
     <g id="text_5">
      <text style="font: 7px 'Arial'; text-anchor: middle" x="191.484475" y="234.340664" transform="rotate(-0 191.484475 234.340664)">0.8</text>
     </g>
    </g>
    <g id="xtick_6">
     <g id="line2d_6">
      <g>
       <use xlink:href="#m604a6f2596" x="230.772664" y="222.330195" style="stroke: #000000; stroke-width: 0.8"/>
      </g>
     </g>
     <g id="text_6">
      <text style="font: 7px 'Arial'; text-anchor: middle" x="230.772664" y="234.340664" transform="rotate(-0 230.772664 234.340664)">1.0</text>
     </g>
    </g>
    <g id="text_7">
     <text style="font: 7px 'Arial'; text-anchor: middle" x="132.552191" y="244.742382" transform="rotate(-0 132.552191 244.742382)">FPR</text>
    </g>
   </g>
   <g id="matplotlib.axis_2">
    <g id="ytick_1">
     <g id="line2d_7">
      <defs>
       <path id="m0f08ad4924" d="M 0 0 
L -3.5 0 
" style="stroke: #000000; stroke-width: 0.8"/>
      </defs>
      <g>
       <use xlink:href="#m0f08ad4924" x="34.331719" y="222.330195" style="stroke: #000000; stroke-width: 0.8"/>
      </g>
     </g>
     <g id="text_8">
      <text style="font: 7px 'Arial'; text-anchor: end" x="27.331719" y="224.835429" transform="rotate(-0 27.331719 224.835429)">0.0</text>
     </g>
    </g>
    <g id="ytick_2">
     <g id="line2d_8">
      <g>
       <use xlink:href="#m0f08ad4924" x="34.331719" y="183.042006" style="stroke: #000000; stroke-width: 0.8"/>
      </g>
     </g>
     <g id="text_9">
      <text style="font: 7px 'Arial'; text-anchor: end" x="27.331719" y="185.54724" transform="rotate(-0 27.331719 185.54724)">0.2</text>
     </g>
    </g>
    <g id="ytick_3">
     <g id="line2d_9">
      <g>
       <use xlink:href="#m0f08ad4924" x="34.331719" y="143.753817" style="stroke: #000000; stroke-width: 0.8"/>
      </g>
     </g>
     <g id="text_10">
      <text style="font: 7px 'Arial'; text-anchor: end" x="27.331719" y="146.259051" transform="rotate(-0 27.331719 146.259051)">0.4</text>
     </g>
    </g>
    <g id="ytick_4">
     <g id="line2d_10">
      <g>
       <use xlink:href="#m0f08ad4924" x="34.331719" y="104.465628" style="stroke: #000000; stroke-width: 0.8"/>
      </g>
     </g>
     <g id="text_11">
      <text style="font: 7px 'Arial'; text-anchor: end" x="27.331719" y="106.970862" transform="rotate(-0 27.331719 106.970862)">0.6</text>
     </g>
    </g>
    <g id="ytick_5">
     <g id="line2d_11">
      <g>
       <use xlink:href="#m0f08ad4924" x="34.331719" y="65.177439" style="stroke: #000000; stroke-width: 0.8"/>
      </g>
     </g>
     <g id="text_12">
      <text style="font: 7px 'Arial'; text-anchor: end" x="27.331719" y="67.682673" transform="rotate(-0 27.331719 67.682673)">0.8</text>
     </g>
    </g>
    <g id="ytick_6">
     <g id="line2d_12">
      <g>
       <use xlink:href="#m0f08ad4924" x="34.331719" y="25.88925" style="stroke: #000000; stroke-width: 0.8"/>
      </g>
     </g>
     <g id="text_13">
      <text style="font: 7px 'Arial'; text-anchor: end" x="27.331719" y="28.394484" transform="rotate(-0 27.331719 28.394484)">1.0</text>
     </g>
    </g>
    <g id="text_14">
     <text style="font: 7px 'Arial'; text-anchor: middle" x="12.210469" y="124.109722" transform="rotate(-90 12.210469 124.109722)">TPR</text>
    </g>
   </g>
   <g id="line2d_13">
    <path d="M 34.331719 222.330195 
L 34.331719 218.858949 
L 34.661872 218.858949 
L 34.661872 210.023051 
L 34.992024 210.023051 
L 34.992024 209.707484 
L 35.322177 209.707484 
L 35.322177 209.391916 
L 35.65233 209.391916 
L 35.65233 200.871586 
L 35.982483 200.871586 
L 35.982483 196.453637 
L 36.312636 196.453637 
L 36.312636 193.771311 
L 36.642789 193.771311 
L 36.642789 192.509039 
L 36.972942 192.509039 
L 36.972942 192.193472 
L 37.303094 192.193472 
L 37.303094 191.404552 
L 37.633247 191.404552 
L 37.633247 190.9312 
L 37.9634 190.9312 
L 37.9634 190.142281 
L 38.293553 190.142281 
L 38.293553 188.722226 
L 38.623706 188.722226 
L 38.623706 188.09109 
L 38.953859 188.09109 
L 38.953859 182.726438 
L 39.284011 182.726438 
L 39.284011 180.675248 
L 39.614164 180.675248 
L 39.614164 178.466273 
L 39.944317 178.466273 
L 39.944317 176.572866 
L 40.27447 176.572866 
L 40.27447 169.630375 
L 40.604623 169.630375 
L 40.604623 169.157023 
L 40.934776 169.157023 
L 40.934776 163.161236 
L 41.264929 163.161236 
L 41.264929 154.325338 
L 41.595081 154.325338 
L 41.595081 151.485228 
L 41.925234 151.485228 
L 41.925234 146.751711 
L 42.255387 146.751711 
L 42.255387 146.593927 
L 42.58554 146.593927 
L 42.58554 145.331656 
L 42.915693 145.331656 
L 42.915693 142.333762 
L 43.245846 142.333762 
L 43.245846 140.755923 
L 43.575999 140.755923 
L 43.575999 137.442461 
L 43.906151 137.442461 
L 43.906151 134.917919 
L 44.236304 134.917919 
L 44.236304 133.655648 
L 44.566457 133.655648 
L 44.566457 130.657754 
L 44.89661 130.657754 
L 44.89661 125.608669 
L 45.226763 125.608669 
L 45.226763 125.450886 
L 45.556916 125.450886 
L 45.556916 124.346398 
L 45.887068 124.346398 
L 45.887068 121.97964 
L 46.217221 121.97964 
L 46.217221 121.506288 
L 46.547374 121.506288 
L 46.547374 121.19072 
L 46.877527 121.19072 
L 46.877527 120.717369 
L 47.20768 120.717369 
L 47.20768 118.981746 
L 47.537833 118.981746 
L 47.537833 116.141636 
L 47.867986 116.141636 
L 47.867986 110.6192 
L 48.528291 110.6192 
L 48.528291 107.77909 
L 48.858444 107.77909 
L 48.858444 107.463522 
L 49.188597 107.463522 
L 49.188597 106.201251 
L 49.51875 106.201251 
L 49.51875 104.465628 
L 49.848903 104.465628 
L 49.848903 103.992276 
L 50.179055 103.992276 
L 50.179055 103.676708 
L 50.509208 103.676708 
L 50.509208 102.887789 
L 50.839361 102.887789 
L 50.839361 101.30995 
L 51.169514 101.30995 
L 51.169514 100.678815 
L 51.499667 100.678815 
L 51.499667 100.047679 
L 51.82982 100.047679 
L 51.82982 97.996488 
L 52.159973 97.996488 
L 52.159973 97.523137 
L 52.490125 97.523137 
L 52.490125 97.049785 
L 52.820278 97.049785 
L 52.820278 95.787514 
L 53.150431 95.787514 
L 53.150431 95.471946 
L 53.480584 95.471946 
L 53.480584 94.998594 
L 53.810737 94.998594 
L 53.810737 93.894107 
L 54.14089 93.894107 
L 54.14089 92.474052 
L 54.471043 92.474052 
L 54.471043 91.842917 
L 55.461501 91.842917 
L 55.461501 91.527349 
L 56.121807 91.527349 
L 56.121807 91.053997 
L 56.45196 91.053997 
L 56.45196 89.476158 
L 56.782112 89.476158 
L 56.782112 89.318374 
L 57.112265 89.318374 
L 57.112265 88.529455 
L 57.772571 88.529455 
L 57.772571 88.213887 
L 58.102724 88.213887 
L 58.102724 88.056103 
L 58.432877 88.056103 
L 58.432877 87.898319 
L 58.76303 87.898319 
L 58.76303 87.424968 
L 59.093182 87.424968 
L 59.093182 85.847129 
L 59.423335 85.847129 
L 59.423335 85.373777 
L 60.083641 85.373777 
L 60.083641 84.427074 
L 60.743947 84.427074 
L 60.743947 84.111506 
L 61.074099 84.111506 
L 61.074099 83.638154 
L 61.404252 83.638154 
L 61.404252 83.007019 
L 61.734405 83.007019 
L 61.734405 82.060315 
L 62.064558 82.060315 
L 62.064558 80.955828 
L 62.394711 80.955828 
L 62.394711 80.798044 
L 62.724864 80.798044 
L 62.724864 80.324693 
L 63.055017 80.324693 
L 63.055017 80.166909 
L 63.715322 80.166909 
L 63.715322 80.009125 
L 64.045475 80.009125 
L 64.045475 79.535773 
L 64.375628 79.535773 
L 64.375628 79.220205 
L 64.705781 79.220205 
L 64.705781 78.58907 
L 65.035934 78.58907 
L 65.035934 78.273502 
L 65.696239 78.273502 
L 65.696239 78.115718 
L 66.026392 78.115718 
L 66.026392 77.484583 
L 66.356545 77.484583 
L 66.356545 76.222311 
L 67.016851 76.222311 
L 67.016851 75.906744 
L 67.347004 75.906744 
L 67.347004 75.275608 
L 67.677156 75.275608 
L 67.677156 75.117824 
L 68.007309 75.117824 
L 68.007309 74.644472 
L 68.337462 74.644472 
L 68.337462 73.066634 
L 68.667615 73.066634 
L 68.667615 72.90885 
L 68.997768 72.90885 
L 68.997768 71.488795 
L 69.658074 71.488795 
L 69.658074 71.015443 
L 70.318379 71.015443 
L 70.318379 70.857659 
L 70.648532 70.857659 
L 70.648532 69.910956 
L 70.978685 69.910956 
L 70.978685 68.964252 
L 71.638991 68.964252 
L 71.638991 68.490901 
L 71.969143 68.490901 
L 71.969143 68.175333 
L 72.299296 68.175333 
L 72.299296 68.017549 
L 72.629449 68.017549 
L 72.629449 67.701981 
L 72.959602 67.701981 
L 72.959602 67.22863 
L 73.289755 67.22863 
L 73.289755 66.43971 
L 73.619908 66.43971 
L 73.619908 65.493007 
L 73.950061 65.493007 
L 73.950061 65.335223 
L 74.280213 65.335223 
L 74.280213 65.019655 
L 74.940519 65.019655 
L 74.940519 64.861871 
L 75.270672 64.861871 
L 75.270672 64.704087 
L 75.600825 64.704087 
L 75.600825 64.546303 
L 76.261131 64.546303 
L 76.261131 64.072952 
L 76.921436 64.072952 
L 76.921436 63.915168 
L 77.581742 63.915168 
L 77.581742 63.441816 
L 77.911895 63.441816 
L 77.911895 63.126248 
L 78.5722 63.126248 
L 78.5722 62.652897 
L 79.562659 62.652897 
L 79.562659 62.337329 
L 79.892812 62.337329 
L 79.892812 62.179545 
L 80.553118 62.179545 
L 80.553118 62.021761 
L 80.88327 62.021761 
L 80.88327 61.863977 
L 81.213423 61.863977 
L 81.213423 61.706193 
L 82.534035 61.706193 
L 82.534035 61.548409 
L 82.864187 61.548409 
L 82.864187 61.390626 
L 83.19434 61.390626 
L 83.19434 61.232842 
L 83.524493 61.232842 
L 83.524493 61.075058 
L 84.184799 61.075058 
L 84.184799 60.75949 
L 84.514952 60.75949 
L 84.514952 60.601706 
L 84.845105 60.601706 
L 84.845105 59.812787 
L 85.175257 59.812787 
L 85.175257 59.181651 
L 86.165716 59.181651 
L 86.165716 59.023867 
L 86.495869 59.023867 
L 86.495869 58.550516 
L 86.826022 58.550516 
L 86.826022 58.392732 
L 87.156175 58.392732 
L 87.156175 58.077164 
L 87.486327 58.077164 
L 87.486327 57.761596 
L 87.81648 57.761596 
L 87.81648 57.130461 
L 88.146633 57.130461 
L 88.146633 56.499325 
L 89.797397 56.499325 
L 89.797397 56.025973 
L 91.118009 56.025973 
L 91.118009 55.868189 
L 91.448162 55.868189 
L 91.448162 55.394838 
L 92.108467 55.394838 
L 92.108467 54.921486 
L 92.768773 54.921486 
L 92.768773 54.763702 
L 94.089384 54.763702 
L 94.089384 53.974783 
L 94.74969 53.974783 
L 94.74969 53.816999 
L 95.409996 53.816999 
L 95.409996 53.659215 
L 95.740149 53.659215 
L 95.740149 53.501431 
L 96.070301 53.501431 
L 96.070301 52.870295 
L 96.400454 52.870295 
L 96.400454 52.396944 
L 97.06076 52.396944 
L 97.06076 52.23916 
L 98.711524 52.23916 
L 98.711524 51.923592 
L 100.032136 51.923592 
L 100.032136 51.134673 
L 100.692441 51.134673 
L 100.692441 50.976889 
L 101.022594 50.976889 
L 101.022594 50.819105 
L 101.352747 50.819105 
L 101.352747 50.661321 
L 103.333664 50.661321 
L 103.333664 50.503537 
L 103.663817 50.503537 
L 103.663817 50.187969 
L 104.324123 50.187969 
L 104.324123 50.030185 
L 104.654275 50.030185 
L 104.654275 49.714618 
L 104.984428 49.714618 
L 104.984428 49.241266 
L 107.295498 49.241266 
L 107.295498 49.083482 
L 108.285957 49.083482 
L 108.285957 48.925698 
L 108.61611 48.925698 
L 108.61611 48.452346 
L 108.946263 48.452346 
L 108.946263 47.978995 
L 109.936721 47.978995 
L 109.936721 47.821211 
L 110.597027 47.821211 
L 110.597027 47.505643 
L 112.247791 47.505643 
L 112.247791 47.347859 
L 113.23825 47.347859 
L 113.23825 46.874508 
L 113.568402 46.874508 
L 113.568402 46.716724 
L 114.228708 46.716724 
L 114.228708 46.401156 
L 116.539778 46.401156 
L 116.539778 45.612236 
L 118.850848 45.612236 
L 118.850848 45.454453 
L 121.161918 45.454453 
L 121.161918 45.138885 
L 121.492071 45.138885 
L 121.492071 44.981101 
L 121.822224 44.981101 
L 121.822224 44.823317 
L 122.152376 44.823317 
L 122.152376 44.665533 
L 122.812682 44.665533 
L 122.812682 43.561046 
L 123.142835 43.561046 
L 123.142835 43.403262 
L 123.472988 43.403262 
L 123.472988 43.087694 
L 124.793599 43.087694 
L 124.793599 42.92991 
L 126.114211 42.92991 
L 126.114211 42.614342 
L 126.444363 42.614342 
L 126.444363 42.140991 
L 127.104669 42.140991 
L 127.104669 41.983207 
L 127.434822 41.983207 
L 127.434822 41.667639 
L 127.764975 41.667639 
L 127.764975 41.509855 
L 129.085586 41.509855 
L 129.085586 41.352071 
L 129.415739 41.352071 
L 129.415739 41.036504 
L 129.745892 41.036504 
L 129.745892 40.87872 
L 130.076045 40.87872 
L 130.076045 40.720936 
L 131.066503 40.720936 
L 131.066503 40.405368 
L 131.726809 40.405368 
L 131.726809 40.247584 
L 132.387115 40.247584 
L 132.387115 40.0898 
L 132.717268 40.0898 
L 132.717268 39.932016 
L 134.037879 39.932016 
L 134.037879 39.774232 
L 135.028338 39.774232 
L 135.028338 39.300881 
L 135.35849 39.300881 
L 135.35849 38.985313 
L 136.018796 38.985313 
L 136.018796 38.669745 
L 137.009255 38.669745 
L 137.009255 38.354177 
L 137.339407 38.354177 
L 137.339407 38.196394 
L 137.999713 38.196394 
L 137.999713 38.03861 
L 138.990172 38.03861 
L 138.990172 37.565258 
L 139.650477 37.565258 
L 139.650477 36.934122 
L 140.640936 36.934122 
L 140.640936 36.776339 
L 141.631395 36.776339 
L 141.631395 36.618555 
L 141.961547 36.618555 
L 141.961547 36.302987 
L 142.621853 36.302987 
L 142.621853 36.145203 
L 142.952006 36.145203 
L 142.952006 35.040716 
L 143.612312 35.040716 
L 143.612312 34.882932 
L 144.272617 34.882932 
L 144.272617 34.725148 
L 144.60277 34.725148 
L 144.60277 34.567364 
L 144.932923 34.567364 
L 144.932923 34.40958 
L 146.583687 34.40958 
L 146.583687 34.251796 
L 147.243993 34.251796 
L 147.243993 34.094012 
L 147.574146 34.094012 
L 147.574146 33.936228 
L 148.234451 33.936228 
L 148.234451 33.778445 
L 149.22491 33.778445 
L 149.22491 33.620661 
L 149.885216 33.620661 
L 149.885216 33.462877 
L 150.215369 33.462877 
L 150.215369 33.305093 
L 151.866133 33.305093 
L 151.866133 33.147309 
L 152.856591 33.147309 
L 152.856591 32.989525 
L 153.186744 32.989525 
L 153.186744 32.831741 
L 153.516897 32.831741 
L 153.516897 32.673957 
L 153.84705 32.673957 
L 153.84705 32.516173 
L 155.827967 32.516173 
L 155.827967 32.35839 
L 157.148578 32.35839 
L 157.148578 32.042822 
L 157.478731 32.042822 
L 157.478731 31.885038 
L 158.46919 31.885038 
L 158.46919 31.56947 
L 158.799343 31.56947 
L 158.799343 31.411686 
L 159.789801 31.411686 
L 159.789801 31.253902 
L 160.119954 31.253902 
L 160.119954 31.096118 
L 162.100871 31.096118 
L 162.100871 30.938335 
L 162.431024 30.938335 
L 162.431024 30.780551 
L 163.421483 30.780551 
L 163.421483 30.622767 
L 165.072247 30.622767 
L 165.072247 30.307199 
L 165.732552 30.307199 
L 165.732552 30.149415 
L 167.383317 30.149415 
L 167.383317 29.991631 
L 168.043622 29.991631 
L 168.043622 29.833847 
L 170.684845 29.833847 
L 170.684845 29.676063 
L 171.675304 29.676063 
L 171.675304 29.51828 
L 172.995915 29.51828 
L 172.995915 29.360496 
L 174.646679 29.360496 
L 174.646679 29.202712 
L 175.637138 29.202712 
L 175.637138 29.044928 
L 176.627596 29.044928 
L 176.627596 28.887144 
L 176.957749 28.887144 
L 176.957749 28.571576 
L 181.910042 28.571576 
L 181.910042 28.413792 
L 183.230653 28.413792 
L 183.230653 28.256008 
L 184.881418 28.256008 
L 184.881418 28.098224 
L 185.211571 28.098224 
L 185.211571 27.940441 
L 185.871876 27.940441 
L 185.871876 27.782657 
L 186.862335 27.782657 
L 186.862335 27.467089 
L 189.173405 27.467089 
L 189.173405 27.309305 
L 193.465392 27.309305 
L 193.465392 26.835953 
L 195.116156 26.835953 
L 195.116156 26.678169 
L 198.747837 26.678169 
L 198.747837 26.520386 
L 201.719213 26.520386 
L 201.719213 26.362602 
L 204.360436 26.362602 
L 204.360436 26.204818 
L 218.557008 26.204818 
L 218.557008 26.047034 
L 224.49976 26.047034 
L 224.49976 25.88925 
L 230.772664 25.88925 
L 230.772664 25.88925 
" clip-path="url(#p6eb184e989)" style="fill: none; stroke: #ff0000; stroke-width: 1.5; stroke-linecap: square"/>
   </g>
   <g id="line2d_14">
    <defs>
     <path id="mccd110c123" d="M 0 3 
C 0.795609 3 1.55874 2.683901 2.12132 2.12132 
C 2.683901 1.55874 3 0.795609 3 0 
C 3 -0.795609 2.683901 -1.55874 2.12132 -2.12132 
C 1.55874 -2.683901 0.795609 -3 0 -3 
C -0.795609 -3 -1.55874 -2.683901 -2.12132 -2.12132 
C -2.683901 -1.55874 -3 -0.795609 -3 0 
C -3 0.795609 -2.683901 1.55874 -2.12132 2.12132 
C -1.55874 2.683901 -0.795609 3 0 3 
z
" style="stroke: #000000"/>
    </defs>
    <g clip-path="url(#p6eb184e989)">
     <use xlink:href="#mccd110c123" x="73.619908" y="65.493007" style="fill: #ff0000; stroke: #000000"/>
    </g>
   </g>
   <g id="line2d_15">
    <path d="M 34.331719 222.330195 
L 230.772664 25.88925 
" clip-path="url(#p6eb184e989)" style="fill: none; stroke: #00bfbf; stroke-width: 1.5; stroke-linecap: square"/>
   </g>
   <g id="patch_4">
    <path d="M 34.331719 222.330195 
L 34.331719 25.88925 
" style="fill: none; stroke: #000000; stroke-width: 0.8; stroke-linejoin: miter; stroke-linecap: square"/>
   </g>
   <g id="patch_5">
    <path d="M 230.772664 222.330195 
L 230.772664 25.88925 
" style="fill: none; stroke: #000000; stroke-width: 0.8; stroke-linejoin: miter; stroke-linecap: square"/>
   </g>
   <g id="patch_6">
    <path d="M 34.331719 222.330195 
L 230.772664 222.330195 
" style="fill: none; stroke: #000000; stroke-width: 0.8; stroke-linejoin: miter; stroke-linecap: square"/>
   </g>
   <g id="patch_7">
    <path d="M 34.331719 25.88925 
L 230.772664 25.88925 
" style="fill: none; stroke: #000000; stroke-width: 0.8; stroke-linejoin: miter; stroke-linecap: square"/>
   </g>
   <g id="text_15">
    <text style="font: 7px 'Arial'" transform="translate(100.712035 12.295781)">Hybrid AP-SP model</text>
    <text style="font: 7px 'Arial'" transform="translate(59.423519 19.88925)">Receiver Operating Characteristic (ROC) curve</text>
   </g>
   <g id="legend_1">
    <g id="patch_8">
     <path d="M 47.553597 261.200944 
L 217.550785 261.200944 
Q 218.950785 261.200944 218.950785 259.800944 
L 218.950785 250.431881 
Q 218.950785 249.031881 217.550785 249.031881 
L 47.553597 249.031881 
Q 46.153597 249.031881 46.153597 250.431881 
L 46.153597 259.800944 
Q 46.153597 261.200944 47.553597 261.200944 
z
" style="fill: #ffffff; opacity: 0.8; stroke: #cccccc; stroke-linejoin: miter"/>
    </g>
    <g id="line2d_16">
     <path d="M 48.953597 254.477663 
L 55.953597 254.477663 
L 62.953597 254.477663 
" style="fill: none; stroke: #ff0000; stroke-width: 1.5; stroke-linecap: square"/>
    </g>
    <g id="text_16">
     <text style="font: 7px 'Arial'; text-anchor: start" x="68.553597" y="256.927663" transform="rotate(-0 68.553597 256.927663)">model performance</text>
    </g>
    <g id="line2d_17">
     <path d="M 142.855316 254.477663 
L 149.855316 254.477663 
L 156.855316 254.477663 
" style="fill: none; stroke: #00bfbf; stroke-width: 1.5; stroke-linecap: square"/>
    </g>
    <g id="text_17">
     <text style="font: 7px 'Arial'; text-anchor: start" x="162.455316" y="256.927663" transform="rotate(-0 162.455316 256.927663)">random guessing</text>
    </g>
   </g>
  </g>
 </g>
 <defs>
  <clipPath id="p6eb184e989">
   <rect x="34.331719" y="25.88925" width="196.440945" height="196.440945"/>
  </clipPath>
 </defs>
</svg>
