<?xml version="1.0" encoding="utf-8" standalone="no"?>
<!DOCTYPE svg PUBLIC "-//W3C//DTD SVG 1.1//EN"
  "http://www.w3.org/Graphics/SVG/1.1/DTD/svg11.dtd">
<svg xmlns:xlink="http://www.w3.org/1999/xlink" width="413.064687pt" height="359.867056pt" viewBox="0 0 413.064687 359.867056" xmlns="http://www.w3.org/2000/svg" version="1.1">
 <metadata>
  <rdf:RDF xmlns:dc="http://purl.org/dc/elements/1.1/" xmlns:cc="http://creativecommons.org/ns#" xmlns:rdf="http://www.w3.org/1999/02/22-rdf-syntax-ns#">
   <cc:Work>
    <dc:type rdf:resource="http://purl.org/dc/dcmitype/StillImage"/>
    <dc:date>2024-09-25T06:57:18.602665</dc:date>
    <dc:format>image/svg+xml</dc:format>
    <dc:creator>
     <cc:Agent>
      <dc:title>Matplotlib v3.7.0, https://matplotlib.org/</dc:title>
     </cc:Agent>
    </dc:creator>
   </cc:Work>
  </rdf:RDF>
 </metadata>
 <defs>
  <style type="text/css">*{stroke-linejoin: round; stroke-linecap: butt}</style>
 </defs>
 <g id="figure_1">
  <g id="patch_1">
   <path d="M 0 359.867056 
L 413.064687 359.867056 
L 413.064687 0 
L 0 0 
z
" style="fill: #ffffff"/>
  </g>
  <g id="axes_1">
   <g id="patch_2">
    <path d="M 45.269688 288.252469 
L 402.389688 288.252469 
L 402.389688 22.140469 
L 45.269688 22.140469 
z
" style="fill: #ffffff"/>
   </g>
   <g id="patch_3">
    <path d="M 402.389688 22.140469 
L 403.392591 30.52242 
L 400.091491 29.939122 
L 381.623863 87.972787 
L 381.276379 87.911387 
L 399.744007 29.877722 
L 396.442907 29.294424 
z
" clip-path="url(#p38e61aef0e)" style="fill: #1f77b4; stroke: #000000; stroke-linejoin: miter"/>
   </g>
   <g id="matplotlib.axis_1">
    <g id="xtick_1">
     <g id="line2d_1">
      <defs>
       <path id="m776927f308" d="M 0 0 
L 0 3.5 
" style="stroke: #000000; stroke-width: 0.8"/>
      </defs>
      <g>
       <use xlink:href="#m776927f308" x="45.269688" y="288.252469" style="stroke: #000000; stroke-width: 0.8"/>
      </g>
     </g>
     <g id="text_1">
      <text style="font: 5px 'Arial'; text-anchor: middle" x="45.269688" y="298.831375" transform="rotate(-0 45.269688 298.831375)">0.0</text>
     </g>
    </g>
    <g id="xtick_2">
     <g id="line2d_2">
      <g>
       <use xlink:href="#m776927f308" x="116.693688" y="288.252469" style="stroke: #000000; stroke-width: 0.8"/>
      </g>
     </g>
     <g id="text_2">
      <text style="font: 5px 'Arial'; text-anchor: middle" x="116.693688" y="298.831375" transform="rotate(-0 116.693688 298.831375)">0.2</text>
     </g>
    </g>
    <g id="xtick_3">
     <g id="line2d_3">
      <g>
       <use xlink:href="#m776927f308" x="188.117688" y="288.252469" style="stroke: #000000; stroke-width: 0.8"/>
      </g>
     </g>
     <g id="text_3">
      <text style="font: 5px 'Arial'; text-anchor: middle" x="188.117688" y="298.831375" transform="rotate(-0 188.117688 298.831375)">0.4</text>
     </g>
    </g>
    <g id="xtick_4">
     <g id="line2d_4">
      <g>
       <use xlink:href="#m776927f308" x="259.541688" y="288.252469" style="stroke: #000000; stroke-width: 0.8"/>
      </g>
     </g>
     <g id="text_4">
      <text style="font: 5px 'Arial'; text-anchor: middle" x="259.541688" y="298.831375" transform="rotate(-0 259.541688 298.831375)">0.6</text>
     </g>
    </g>
    <g id="xtick_5">
     <g id="line2d_5">
      <g>
       <use xlink:href="#m776927f308" x="330.965688" y="288.252469" style="stroke: #000000; stroke-width: 0.8"/>
      </g>
     </g>
     <g id="text_5">
      <text style="font: 5px 'Arial'; text-anchor: middle" x="330.965688" y="298.831375" transform="rotate(-0 330.965688 298.831375)">0.8</text>
     </g>
    </g>
    <g id="xtick_6">
     <g id="line2d_6">
      <g>
       <use xlink:href="#m776927f308" x="402.389688" y="288.252469" style="stroke: #000000; stroke-width: 0.8"/>
      </g>
     </g>
     <g id="text_6">
      <text style="font: 5px 'Arial'; text-anchor: middle" x="402.389688" y="298.831375" transform="rotate(-0 402.389688 298.831375)">1.0</text>
     </g>
    </g>
    <g id="text_7">
     <text style="font: 22px 'Arial'; text-anchor: middle" x="223.829688" y="319.572312" transform="rotate(-0 223.829688 319.572312)">Recall</text>
    </g>
   </g>
   <g id="matplotlib.axis_2">
    <g id="ytick_1">
     <g id="line2d_7">
      <defs>
       <path id="mae286ae7e4" d="M 0 0 
L -3.5 0 
" style="stroke: #000000; stroke-width: 0.8"/>
      </defs>
      <g>
       <use xlink:href="#mae286ae7e4" x="45.269688" y="288.252469" style="stroke: #000000; stroke-width: 0.8"/>
      </g>
     </g>
     <g id="text_8">
      <text style="font: 5px 'Arial'; text-anchor: end" x="38.269688" y="290.041922" transform="rotate(-0 38.269688 290.041922)">0.0</text>
     </g>
    </g>
    <g id="ytick_2">
     <g id="line2d_8">
      <g>
       <use xlink:href="#mae286ae7e4" x="45.269688" y="235.030069" style="stroke: #000000; stroke-width: 0.8"/>
      </g>
     </g>
     <g id="text_9">
      <text style="font: 5px 'Arial'; text-anchor: end" x="38.269688" y="236.819522" transform="rotate(-0 38.269688 236.819522)">0.2</text>
     </g>
    </g>
    <g id="ytick_3">
     <g id="line2d_9">
      <g>
       <use xlink:href="#mae286ae7e4" x="45.269688" y="181.807669" style="stroke: #000000; stroke-width: 0.8"/>
      </g>
     </g>
     <g id="text_10">
      <text style="font: 5px 'Arial'; text-anchor: end" x="38.269688" y="183.597122" transform="rotate(-0 38.269688 183.597122)">0.4</text>
     </g>
    </g>
    <g id="ytick_4">
     <g id="line2d_10">
      <g>
       <use xlink:href="#mae286ae7e4" x="45.269688" y="128.585269" style="stroke: #000000; stroke-width: 0.8"/>
      </g>
     </g>
     <g id="text_11">
      <text style="font: 5px 'Arial'; text-anchor: end" x="38.269688" y="130.374722" transform="rotate(-0 38.269688 130.374722)">0.6</text>
     </g>
    </g>
    <g id="ytick_5">
     <g id="line2d_11">
      <g>
       <use xlink:href="#mae286ae7e4" x="45.269688" y="75.362869" style="stroke: #000000; stroke-width: 0.8"/>
      </g>
     </g>
     <g id="text_12">
      <text style="font: 5px 'Arial'; text-anchor: end" x="38.269688" y="77.152322" transform="rotate(-0 38.269688 77.152322)">0.8</text>
     </g>
    </g>
    <g id="ytick_6">
     <g id="line2d_12">
      <g>
       <use xlink:href="#mae286ae7e4" x="45.269688" y="22.140469" style="stroke: #000000; stroke-width: 0.8"/>
      </g>
     </g>
     <g id="text_13">
      <text style="font: 5px 'Arial'; text-anchor: end" x="38.269688" y="23.929922" transform="rotate(-0 38.269688 23.929922)">1.0</text>
     </g>
    </g>
    <g id="text_14">
     <text style="font: 22px 'Arial'; text-anchor: middle" x="22.947188" y="155.196469" transform="rotate(-90 22.947188 155.196469)">Precision</text>
    </g>
   </g>
   <g id="line2d_13">
    <path d="M 402.389688 108.19299 
L 402.389688 108.095079 
L 402.102844 108.141844 
L 402.102844 108.043798 
L 402.102844 107.551962 
L 401.242314 107.593283 
L 401.242314 107.4944 
L 400.955471 107.541143 
L 400.955471 107.442124 
L 400.955471 107.044956 
L 400.668627 107.091607 
L 400.668627 106.992014 
L 400.668627 106.492398 
L 400.381784 106.538924 
L 400.381784 106.438641 
L 400.381784 106.237742 
L 400.094941 106.28423 
L 400.094941 106.183584 
L 400.094941 105.981957 
L 399.808097 106.028407 
L 399.808097 105.927396 
L 399.808097 105.826272 
L 399.521254 105.872713 
L 399.521254 105.771447 
L 399.521254 104.957254 
L 398.660724 105.096053 
L 398.660724 104.993674 
L 398.660724 104.58301 
L 398.087037 104.572469 
L 398.087037 103.744149 
L 396.939663 103.824367 
L 396.939663 103.720052 
L 396.65282 103.766221 
L 396.65282 103.661755 
L 396.65282 103.347647 
L 396.365977 103.393735 
L 396.365977 103.288762 
L 396.365977 102.7621 
L 395.79229 102.748268 
L 395.79229 102.642387 
L 395.505447 102.688361 
L 395.505447 102.582325 
L 395.505447 102.369888 
L 394.07123 102.493461 
L 394.07123 102.279945 
L 393.784386 102.326028 
L 393.784386 102.219051 
L 393.784386 101.897379 
L 393.497543 101.943375 
L 393.497543 101.835869 
L 393.497543 101.079834 
L 393.2107 101.125596 
L 393.2107 101.017053 
L 393.2107 100.472448 
L 392.923856 100.518043 
L 392.923856 100.408704 
L 392.923856 100.079923 
L 392.637013 100.125421 
L 392.637013 100.015534 
L 392.637013 99.905518 
L 392.350169 99.950995 
L 392.350169 99.840813 
L 392.350169 98.954691 
L 391.776483 99.045114 
L 391.776483 98.933684 
L 391.776483 96.905269 
L 391.489639 96.949798 
L 391.489639 96.492956 
L 390.915953 96.581841 
L 390.915953 95.891965 
L 390.629109 95.936233 
L 390.629109 95.473378 
L 390.342266 95.517528 
L 390.342266 95.401423 
L 390.055422 95.445583 
L 390.055422 94.979584 
L 389.768579 95.023622 
L 389.768579 94.906726 
L 389.481736 94.950774 
L 389.481736 94.716469 
L 389.194892 94.760481 
L 389.194892 94.407822 
L 388.621206 94.495739 
L 388.621206 92.831571 
L 388.047519 92.918415 
L 388.047519 92.798357 
L 387.473832 92.88532 
L 387.473832 92.76502 
L 387.186989 92.808535 
L 387.186989 92.68804 
L 386.900145 92.731561 
L 386.900145 92.610869 
L 386.613302 92.654396 
L 386.613302 91.683083 
L 386.326459 91.726277 
L 386.326459 90.621508 
L 385.752772 90.707163 
L 385.752772 90.583543 
L 385.465928 90.6264 
L 385.465928 90.378593 
L 385.179085 90.421402 
L 385.179085 90.048371 
L 384.892242 90.09108 
L 384.892242 89.966372 
L 384.031712 90.094668 
L 384.031712 89.844469 
L 383.744868 89.887238 
L 383.744868 89.510595 
L 383.458025 89.553262 
L 383.458025 89.427343 
L 382.884338 89.512733 
L 382.884338 89.1337 
L 382.597495 89.176316 
L 382.597495 89.049597 
L 382.023808 89.134886 
L 382.023808 88.49832 
L 381.450121 88.583286 
L 381.450121 87.942087 
L 380.876434 88.02672 
L 380.876434 87.768863 
L 380.015904 87.895886 
L 380.015904 87.76654 
L 379.729061 87.808934 
L 379.729061 87.679365 
L 378.581688 87.849265 
L 378.581688 87.066949 
L 377.721157 87.193924 
L 377.721157 87.06277 
L 377.434314 87.105148 
L 377.434314 86.578584 
L 376.286941 86.747713 
L 376.286941 86.350268 
L 375.713254 86.43481 
L 375.713254 86.035434 
L 374.852724 86.162126 
L 374.852724 86.028469 
L 374.56588 86.070751 
L 374.56588 85.936856 
L 374.279037 85.979133 
L 374.279037 85.844999 
L 373.418507 85.971985 
L 373.418507 85.83749 
L 373.131663 85.87987 
L 373.131663 85.61022 
L 371.98429 85.779811 
L 371.98429 85.644469 
L 371.697447 85.686946 
L 371.697447 85.143511 
L 371.12376 85.228136 
L 371.12376 84.95507 
L 369.976386 85.124496 
L 369.976386 84.987432 
L 369.689543 85.029868 
L 369.689543 84.755057 
L 369.115856 84.839843 
L 369.115856 84.70203 
L 368.542169 84.786917 
L 368.542169 84.648786 
L 368.255326 84.691251 
L 368.255326 84.552868 
L 367.681639 84.637841 
L 367.681639 84.360248 
L 367.107953 84.44519 
L 367.107953 84.305977 
L 366.821109 84.348469 
L 366.821109 84.069339 
L 366.534266 84.111756 
L 366.534266 83.831728 
L 365.960579 83.916469 
L 365.960579 83.776032 
L 364.813206 83.945944 
L 364.813206 83.805043 
L 364.526362 83.847599 
L 364.526362 83.706436 
L 364.239519 83.748983 
L 364.239519 83.607556 
L 363.665832 83.69269 
L 363.665832 83.124469 
L 363.378989 83.166848 
L 363.378989 83.02423 
L 363.092145 83.066598 
L 363.092145 82.350167 
L 360.510555 82.730973 
L 360.510555 82.151632 
L 360.223712 82.193953 
L 360.223712 82.048534 
L 359.363181 82.175637 
L 359.363181 82.029794 
L 359.076338 82.072208 
L 359.076338 81.486469 
L 358.789495 81.528648 
L 358.789495 81.08693 
L 357.642121 81.255349 
L 357.642121 81.107388 
L 357.068434 81.191807 
L 357.068434 80.597233 
L 355.921061 80.765575 
L 355.921061 80.616088 
L 355.634218 80.658248 
L 355.634218 80.358473 
L 354.200001 80.569408 
L 354.200001 80.418804 
L 353.339471 80.545864 
L 353.339471 80.394805 
L 352.765784 80.479662 
L 352.765784 80.024685 
L 352.478941 80.066967 
L 352.478941 79.914785 
L 352.192097 79.957048 
L 352.192097 79.804562 
L 351.905254 79.846807 
L 351.905254 79.694017 
L 351.61841 79.736243 
L 351.61841 79.583147 
L 351.331567 79.625353 
L 351.331567 78.856079 
L 349.610507 79.108149 
L 349.610507 77.861387 
L 349.03682 77.944552 
L 349.03682 77.630191 
L 348.17629 77.754887 
L 348.17629 77.597092 
L 347.31576 77.722089 
L 347.31576 77.563795 
L 346.45523 77.689093 
L 346.45523 77.530297 
L 345.881543 77.613967 
L 345.881543 76.975669 
L 345.5947 77.017242 
L 345.5947 75.890225 
L 345.307856 75.931224 
L 345.307856 75.606822 
L 344.160483 75.770703 
L 344.160483 75.444561 
L 343.586796 75.526504 
L 343.586796 75.362869 
L 343.299953 75.403841 
L 343.299953 75.239859 
L 343.013109 75.280799 
L 343.013109 75.116469 
L 342.726266 75.157377 
L 342.726266 74.992697 
L 342.152579 75.074512 
L 342.152579 74.909386 
L 341.865736 74.950292 
L 341.865736 74.619077 
L 341.578892 74.659853 
L 341.578892 74.160805 
L 341.292049 74.201351 
L 341.292049 74.034385 
L 340.718362 74.115469 
L 340.718362 73.444193 
L 340.431519 73.484431 
L 340.431519 73.315853 
L 340.144675 73.356054 
L 340.144675 73.18711 
L 339.570989 73.267499 
L 339.570989 72.928406 
L 338.997302 73.008639 
L 338.997302 72.838486 
L 338.710459 72.878595 
L 338.710459 72.70807 
L 338.423615 72.748139 
L 338.423615 72.062911 
L 338.136772 72.102626 
L 338.136772 71.412603 
L 337.849928 71.451958 
L 337.849928 71.278656 
L 337.276242 71.35734 
L 337.276242 70.485575 
L 336.415712 70.602445 
L 336.415712 70.42692 
L 336.128868 70.465892 
L 336.128868 70.289974 
L 335.555181 70.367886 
L 335.555181 70.191461 
L 335.268338 70.230401 
L 335.268338 70.053578 
L 334.981495 70.092469 
L 334.981495 69.737737 
L 334.120965 69.854112 
L 334.120965 69.497543 
L 333.834121 69.536233 
L 333.834121 69.357398 
L 333.547278 69.396037 
L 333.547278 67.95382 
L 332.973591 68.029419 
L 332.973591 67.665414 
L 332.113061 67.778567 
L 332.113061 67.595752 
L 331.252531 67.709107 
L 331.252531 67.525627 
L 330.965688 67.563416 
L 330.965688 67.010773 
L 330.678844 67.048258 
L 330.678844 66.306584 
L 330.105157 66.380751 
L 330.105157 66.007544 
L 329.818314 66.044469 
L 329.818314 65.66975 
L 329.531471 65.706484 
L 329.531471 65.518523 
L 328.957784 65.591921 
L 328.957784 65.21453 
L 328.670941 65.251064 
L 328.670941 64.872132 
L 328.384097 64.908469 
L 328.384097 64.718389 
L 328.097254 64.754656 
L 328.097254 64.564121 
L 327.523567 64.636578 
L 327.523567 64.445453 
L 327.236724 64.481642 
L 327.236724 63.905903 
L 326.663037 63.977665 
L 326.663037 63.591649 
L 325.802507 63.698943 
L 325.802507 63.505028 
L 322.934073 63.865347 
L 322.934073 63.669717 
L 322.073543 63.778623 
L 322.073543 63.582233 
L 320.352483 63.800923 
L 320.352483 63.008508 
L 319.205109 63.153301 
L 319.205109 62.953745 
L 318.344579 63.062581 
L 318.344579 62.862234 
L 318.057736 62.898495 
L 318.057736 62.697645 
L 317.197206 62.806378 
L 317.197206 62.604726 
L 316.910362 62.640952 
L 316.910362 62.438791 
L 315.476145 62.620152 
L 315.476145 62.41688 
L 314.615615 62.52603 
L 314.615615 62.321937 
L 313.755085 62.431225 
L 313.755085 62.226305 
L 311.460338 62.519438 
L 311.460338 62.106007 
L 310.886651 62.179338 
L 310.886651 61.763763 
L 310.599808 61.800215 
L 310.599808 61.591695 
L 308.591904 61.847635 
L 308.591904 61.637612 
L 308.305061 61.674285 
L 308.305061 61.252744 
L 307.157688 61.398822 
L 307.157688 61.186809 
L 306.297157 61.296592 
L 306.297157 61.083688 
L 302.855037 61.527065 
L 302.855037 61.311751 
L 302.568194 61.348986 
L 302.568194 61.133093 
L 301.42082 61.282062 
L 301.42082 60.629848 
L 300.56029 60.740768 
L 300.56029 60.522007 
L 300.273447 60.558948 
L 300.273447 60.119809 
L 299.986603 60.156469 
L 299.986603 59.715277 
L 299.69976 59.751652 
L 299.69976 59.530236 
L 299.126073 59.602838 
L 299.126073 59.380632 
L 298.552386 59.453154 
L 298.552386 59.006717 
L 297.9787 59.078791 
L 297.9787 58.629871 
L 297.405013 58.701489 
L 297.405013 58.475997 
L 296.831326 58.547524 
L 296.831326 58.094457 
L 295.110266 58.308469 
L 295.110266 58.080123 
L 294.823422 58.115848 
L 294.823422 57.886857 
L 294.536579 57.922461 
L 294.536579 57.69282 
L 294.249736 57.728301 
L 294.249736 57.267253 
L 293.676049 57.337647 
L 293.676049 57.106037 
L 293.389206 57.141143 
L 293.389206 56.676131 
L 292.528675 56.780679 
L 292.528675 56.312586 
L 291.954989 56.38183 
L 291.954989 56.146668 
L 291.668145 56.181192 
L 291.668145 54.52015 
L 291.094459 54.586502 
L 291.094459 53.866051 
L 289.947085 53.997014 
L 289.947085 53.755014 
L 289.660242 53.787708 
L 289.660242 53.058046 
L 289.086555 53.122323 
L 289.086555 52.140569 
L 288.512868 52.203331 
L 288.512868 51.956159 
L 288.226025 51.987412 
L 288.226025 51.739495 
L 287.939181 51.770586 
L 287.939181 51.27273 
L 287.652338 51.303428 
L 287.652338 51.053481 
L 287.365495 51.084013 
L 287.365495 50.833306 
L 286.791808 50.894096 
L 286.791808 50.64239 
L 286.218121 50.702968 
L 286.218121 50.450256 
L 281.915471 50.909334 
L 281.915471 50.395047 
L 281.628627 50.425692 
L 281.628627 49.908677 
L 281.341784 49.938893 
L 281.341784 49.679292 
L 280.481254 49.769584 
L 280.481254 49.508661 
L 280.19441 49.538637 
L 280.19441 49.014568 
L 279.907567 49.0441 
L 279.907567 48.780944 
L 279.33388 48.839688 
L 279.33388 48.575436 
L 279.047037 48.604646 
L 279.047037 48.339548 
L 275.03123 48.751669 
L 275.03123 48.482264 
L 272.736483 48.721463 
L 272.736483 48.449269 
L 271.302266 48.599605 
L 271.302266 48.325402 
L 269.294362 48.536815 
L 269.294362 47.982559 
L 268.720675 48.042448 
L 268.720675 47.484469 
L 267.286459 47.632506 
L 267.286459 47.351079 
L 265.278555 47.559186 
L 265.278555 46.990171 
L 264.704868 47.049056 
L 264.704868 46.762931 
L 263.844338 46.850869 
L 263.844338 46.563143 
L 261.549591 46.798259 
L 261.549591 46.507351 
L 259.254844 46.744498 
L 259.254844 46.450335 
L 258.968001 46.479981 
L 258.968001 46.184776 
L 257.246941 46.362225 
L 257.246941 46.064331 
L 256.38641 46.153047 
L 256.38641 45.853419 
L 252.94429 46.210901 
L 252.94429 45.601224 
L 252.370603 45.660469 
L 252.370603 45.353778 
L 252.08376 45.383162 
L 252.08376 45.075343 
L 251.796916 45.104448 
L 251.796916 44.795493 
L 250.936386 44.882183 
L 250.936386 44.571365 
L 250.3627 44.628807 
L 250.3627 44.316469 
L 249.502169 44.40209 
L 249.502169 44.08785 
L 249.215326 44.116169 
L 249.215326 43.800748 
L 248.928483 43.828769 
L 248.928483 43.512158 
L 248.641639 43.539877 
L 248.641639 42.903434 
L 247.207422 43.039317 
L 247.207422 42.717937 
L 246.633736 42.772017 
L 246.633736 42.449016 
L 245.486362 42.556469 
L 245.486362 41.904755 
L 244.912675 41.95732 
L 244.912675 41.629364 
L 243.478459 41.759986 
L 243.478459 41.429124 
L 241.757398 41.58573 
L 241.757398 41.251493 
L 240.896868 41.329497 
L 240.896868 40.99309 
L 240.610025 41.01881 
L 240.610025 40.002781 
L 239.175808 40.125969 
L 239.175808 39.783253 
L 236.881061 39.980379 
L 236.881061 39.633146 
L 234.873157 39.806096 
L 234.873157 39.454687 
L 233.438941 39.578007 
L 233.438941 39.223265 
L 230.85735 39.44544 
L 230.85735 38.72426 
L 229.709977 38.820959 
L 229.709977 38.456825 
L 227.41523 38.649633 
L 227.41523 38.280398 
L 226.267856 38.376469 
L 226.267856 38.004075 
L 225.694169 38.0515 
L 225.694169 37.676948 
L 224.259953 37.794116 
L 224.259953 37.41578 
L 220.817832 37.697786 
L 220.817832 36.924469 
L 219.096772 37.062637 
L 219.096772 36.670765 
L 218.236242 36.739089 
L 218.236242 36.344249 
L 214.507278 36.640161 
L 214.507278 36.236289 
L 213.359904 36.327377 
L 213.359904 35.510764 
L 212.786218 35.554244 
L 212.786218 34.72978 
L 211.925688 34.791695 
L 211.925688 34.375503 
L 207.623037 34.684469 
L 207.623037 34.256867 
L 204.754603 34.464695 
L 204.754603 33.591071 
L 200.738796 33.873802 
L 200.738796 33.42437 
L 197.009832 33.689633 
L 197.009832 33.228469 
L 196.149302 33.289059 
L 196.149302 32.356834 
L 194.715085 32.451081 
L 194.715085 31.978251 
L 191.272965 32.201414 
L 191.272965 31.716469 
L 186.970314 31.996469 
L 186.970314 31.495969 
L 175.496579 32.288808 
L 175.496579 31.74536 
L 174.349206 31.827629 
L 174.349206 31.277361 
L 172.054459 31.436958 
L 172.054459 30.874998 
L 166.604434 31.253893 
L 166.604434 30.665796 
L 153.122796 31.693207 
L 145.951712 32.347504 
L 145.951712 31.644469 
L 138.493784 32.375546 
L 138.493784 31.616267 
L 135.62535 31.906047 
L 135.62535 31.119708 
L 131.035856 31.583153 
L 131.035856 30.752508 
L 127.306892 31.130739 
L 127.306892 30.25914 
L 123.577928 30.633405 
L 123.577928 29.716611 
L 121.570025 29.910162 
L 121.570025 28.963853 
L 114.685784 29.621529 
L 114.685784 28.578662 
L 108.088386 29.236789 
L 108.088386 28.080469 
L 99.769928 28.963853 
L 93.172531 29.876283 
L 87.722507 30.836939 
L 83.133013 31.852586 
L 79.117206 32.95803 
L 75.675085 34.127496 
L 72.806651 35.31433 
L 70.225061 36.603077 
L 67.930314 37.980469 
L 65.92241 39.420469 
L 63.914507 41.148469 
L 62.193447 42.930469 
L 60.75923 44.692333 
L 59.325013 46.780469 
L 57.890796 49.294754 
L 56.743422 51.708469 
L 55.596049 54.593152 
L 54.448675 58.10155 
L 53.301302 62.460469 
L 52.440772 66.492469 
L 51.580242 71.420469 
L 50.719712 77.580469 
L 49.859181 85.500469 
L 49.572338 88.668469 
L 49.572338 78.164048 
L 48.711808 88.668469 
L 48.138121 98.172469 
L 47.564434 110.844469 
L 47.564434 94.716469 
L 47.277591 101.974069 
L 47.277591 55.404469 
L 46.703904 66.492469 
L 46.417061 75.362869 
L 46.130218 88.668469 
L 45.843374 110.844469 
L 45.556531 155.196469 
L 45.556531 22.140469 
L 45.269688 22.140469 
L 45.269688 22.140469 
" clip-path="url(#p38e61aef0e)" style="fill: none; stroke: #ff0000; stroke-width: 1.5; stroke-linecap: square"/>
   </g>
   <g id="line2d_14">
    <defs>
     <path id="m679b442e16" d="M 0 3 
C 0.795609 3 1.55874 2.683901 2.12132 2.12132 
C 2.683901 1.55874 3 0.795609 3 0 
C 3 -0.795609 2.683901 -1.55874 2.12132 -2.12132 
C 1.55874 -2.683901 0.795609 -3 0 -3 
C -0.795609 -3 -1.55874 -2.683901 -2.12132 -2.12132 
C -2.683901 -1.55874 -3 -0.795609 -3 0 
C -3 0.795609 -2.683901 1.55874 -2.12132 2.12132 
C -1.55874 2.683901 -0.795609 3 0 3 
z
" style="stroke: #000000"/>
    </defs>
    <g clip-path="url(#p38e61aef0e)">
     <use xlink:href="#m679b442e16" x="381.450121" y="87.942087" style="fill: #ff0000; stroke: #000000"/>
    </g>
   </g>
   <g id="line2d_15">
    <path d="M 45.269688 108.19299 
L 402.389688 108.19299 
" clip-path="url(#p38e61aef0e)" style="fill: none; stroke: #00bfbf; stroke-width: 1.5; stroke-linecap: square"/>
   </g>
   <g id="patch_4">
    <path d="M 45.269688 288.252469 
L 45.269688 22.140469 
" style="fill: none; stroke: #000000; stroke-width: 0.8; stroke-linejoin: miter; stroke-linecap: square"/>
   </g>
   <g id="patch_5">
    <path d="M 402.389688 288.252469 
L 402.389688 22.140469 
" style="fill: none; stroke: #000000; stroke-width: 0.8; stroke-linejoin: miter; stroke-linecap: square"/>
   </g>
   <g id="patch_6">
    <path d="M 45.269688 288.252469 
L 402.389688 288.252469 
" style="fill: none; stroke: #000000; stroke-width: 0.8; stroke-linejoin: miter; stroke-linecap: square"/>
   </g>
   <g id="patch_7">
    <path d="M 45.269688 22.140469 
L 402.389688 22.140469 
" style="fill: none; stroke: #000000; stroke-width: 0.8; stroke-linejoin: miter; stroke-linecap: square"/>
   </g>
   <g id="text_15">
    <text style="font: 5px 'Arial'" transform="translate(213.035156 10.778906)">SP model</text>
    <text style="font: 5px 'Arial'" transform="translate(191.739844 16.140469)">Precision - Recall (PR) curve</text>
   </g>
   <g id="legend_1">
    <g id="patch_8">
     <path d="M 163.116406 352.667056 
L 284.542969 352.667056 
Q 285.542969 352.667056 285.542969 351.667056 
L 285.542969 344.974869 
Q 285.542969 343.974869 284.542969 343.974869 
L 163.116406 343.974869 
Q 162.116406 343.974869 162.116406 344.974869 
L 162.116406 351.667056 
Q 162.116406 352.667056 163.116406 352.667056 
z
" style="fill: #ffffff; opacity: 0.8; stroke: #cccccc; stroke-linejoin: miter"/>
    </g>
    <g id="line2d_16">
     <path d="M 164.116406 347.864712 
L 169.116406 347.864712 
L 174.116406 347.864712 
" style="fill: none; stroke: #ff0000; stroke-width: 1.5; stroke-linecap: square"/>
    </g>
    <g id="text_16">
     <text style="font: 5px 'Arial'; text-anchor: start" x="178.116406" y="349.614712" transform="rotate(-0 178.116406 349.614712)">model performance</text>
    </g>
    <g id="line2d_17">
     <path d="M 231.189063 347.864712 
L 236.189063 347.864712 
L 241.189063 347.864712 
" style="fill: none; stroke: #00bfbf; stroke-width: 1.5; stroke-linecap: square"/>
    </g>
    <g id="text_17">
     <text style="font: 5px 'Arial'; text-anchor: start" x="245.189063" y="349.614712" transform="rotate(-0 245.189063 349.614712)">random guessing</text>
    </g>
   </g>
  </g>
 </g>
 <defs>
  <clipPath id="p38e61aef0e">
   <rect x="45.269688" y="22.140469" width="357.12" height="266.112"/>
  </clipPath>
 </defs>
</svg>
