<?xml version="1.0" encoding="utf-8" standalone="no"?>
<!DOCTYPE svg PUBLIC "-//W3C//DTD SVG 1.1//EN"
  "http://www.w3.org/Graphics/SVG/1.1/DTD/svg11.dtd">
<svg xmlns:xlink="http://www.w3.org/1999/xlink" width="242.837664pt" height="268.22835pt" viewBox="0 0 242.837664 268.22835" xmlns="http://www.w3.org/2000/svg" version="1.1">
 <metadata>
  <rdf:RDF xmlns:dc="http://purl.org/dc/elements/1.1/" xmlns:cc="http://creativecommons.org/ns#" xmlns:rdf="http://www.w3.org/1999/02/22-rdf-syntax-ns#">
   <cc:Work>
    <dc:type rdf:resource="http://purl.org/dc/dcmitype/StillImage"/>
    <dc:date>2024-09-25T18:05:54.576465</dc:date>
    <dc:format>image/svg+xml</dc:format>
    <dc:creator>
     <cc:Agent>
      <dc:title>Matplotlib v3.7.0, https://matplotlib.org/</dc:title>
     </cc:Agent>
    </dc:creator>
   </cc:Work>
  </rdf:RDF>
 </metadata>
 <defs>
  <style type="text/css">*{stroke-linejoin: round; stroke-linecap: butt}</style>
 </defs>
 <g id="figure_1">
  <g id="patch_1">
   <path d="M -0 268.22835 
L 242.837664 268.22835 
L 242.837664 0 
L -0 0 
z
" style="fill: #ffffff"/>
  </g>
  <g id="axes_1">
   <g id="patch_2">
    <path d="M 34.331719 222.157601 
L 230.772664 222.157601 
L 230.772664 25.716656 
L 34.331719 25.716656 
z
" style="fill: #ffffff"/>
   </g>
   <g id="patch_3">
    <path d="M 230.772664 25.716656 
L 231.32433 31.90412 
L 229.508495 31.473536 
L 219.35001 74.313348 
L 219.158869 74.268023 
L 229.317354 31.428211 
L 227.501519 30.997627 
z
" clip-path="url(#p94c994eeee)" style="fill: #1f77b4; stroke: #000000; stroke-linejoin: miter"/>
   </g>
   <g id="matplotlib.axis_1">
    <g id="xtick_1">
     <g id="line2d_1">
      <defs>
       <path id="m44195d3909" d="M 0 0 
L 0 3.5 
" style="stroke: #000000; stroke-width: 0.8"/>
      </defs>
      <g>
       <use xlink:href="#m44195d3909" x="34.331719" y="222.157601" style="stroke: #000000; stroke-width: 0.8"/>
      </g>
     </g>
     <g id="text_1">
      <text style="font: 7px 'Arial'; text-anchor: middle" x="34.331719" y="234.16807" transform="rotate(-0 34.331719 234.16807)">0.0</text>
     </g>
    </g>
    <g id="xtick_2">
     <g id="line2d_2">
      <g>
       <use xlink:href="#m44195d3909" x="73.619908" y="222.157601" style="stroke: #000000; stroke-width: 0.8"/>
      </g>
     </g>
     <g id="text_2">
      <text style="font: 7px 'Arial'; text-anchor: middle" x="73.619908" y="234.16807" transform="rotate(-0 73.619908 234.16807)">0.2</text>
     </g>
    </g>
    <g id="xtick_3">
     <g id="line2d_3">
      <g>
       <use xlink:href="#m44195d3909" x="112.908097" y="222.157601" style="stroke: #000000; stroke-width: 0.8"/>
      </g>
     </g>
     <g id="text_3">
      <text style="font: 7px 'Arial'; text-anchor: middle" x="112.908097" y="234.16807" transform="rotate(-0 112.908097 234.16807)">0.4</text>
     </g>
    </g>
    <g id="xtick_4">
     <g id="line2d_4">
      <g>
       <use xlink:href="#m44195d3909" x="152.196286" y="222.157601" style="stroke: #000000; stroke-width: 0.8"/>
      </g>
     </g>
     <g id="text_4">
      <text style="font: 7px 'Arial'; text-anchor: middle" x="152.196286" y="234.16807" transform="rotate(-0 152.196286 234.16807)">0.6</text>
     </g>
    </g>
    <g id="xtick_5">
     <g id="line2d_5">
      <g>
       <use xlink:href="#m44195d3909" x="191.484475" y="222.157601" style="stroke: #000000; stroke-width: 0.8"/>
      </g>
     </g>
     <g id="text_5">
      <text style="font: 7px 'Arial'; text-anchor: middle" x="191.484475" y="234.16807" transform="rotate(-0 191.484475 234.16807)">0.8</text>
     </g>
    </g>
    <g id="xtick_6">
     <g id="line2d_6">
      <g>
       <use xlink:href="#m44195d3909" x="230.772664" y="222.157601" style="stroke: #000000; stroke-width: 0.8"/>
      </g>
     </g>
     <g id="text_6">
      <text style="font: 7px 'Arial'; text-anchor: middle" x="230.772664" y="234.16807" transform="rotate(-0 230.772664 234.16807)">1.0</text>
     </g>
    </g>
    <g id="text_7">
     <text style="font: 7px 'Arial'; text-anchor: middle" x="132.552191" y="244.569789" transform="rotate(-0 132.552191 244.569789)">Recall</text>
    </g>
   </g>
   <g id="matplotlib.axis_2">
    <g id="ytick_1">
     <g id="line2d_7">
      <defs>
       <path id="mce3b917093" d="M 0 0 
L -3.5 0 
" style="stroke: #000000; stroke-width: 0.8"/>
      </defs>
      <g>
       <use xlink:href="#mce3b917093" x="34.331719" y="222.157601" style="stroke: #000000; stroke-width: 0.8"/>
      </g>
     </g>
     <g id="text_8">
      <text style="font: 7px 'Arial'; text-anchor: end" x="27.331719" y="224.662836" transform="rotate(-0 27.331719 224.662836)">0.0</text>
     </g>
    </g>
    <g id="ytick_2">
     <g id="line2d_8">
      <g>
       <use xlink:href="#mce3b917093" x="34.331719" y="182.869412" style="stroke: #000000; stroke-width: 0.8"/>
      </g>
     </g>
     <g id="text_9">
      <text style="font: 7px 'Arial'; text-anchor: end" x="27.331719" y="185.374647" transform="rotate(-0 27.331719 185.374647)">0.2</text>
     </g>
    </g>
    <g id="ytick_3">
     <g id="line2d_9">
      <g>
       <use xlink:href="#mce3b917093" x="34.331719" y="143.581223" style="stroke: #000000; stroke-width: 0.8"/>
      </g>
     </g>
     <g id="text_10">
      <text style="font: 7px 'Arial'; text-anchor: end" x="27.331719" y="146.086458" transform="rotate(-0 27.331719 146.086458)">0.4</text>
     </g>
    </g>
    <g id="ytick_4">
     <g id="line2d_10">
      <g>
       <use xlink:href="#mce3b917093" x="34.331719" y="104.293034" style="stroke: #000000; stroke-width: 0.8"/>
      </g>
     </g>
     <g id="text_11">
      <text style="font: 7px 'Arial'; text-anchor: end" x="27.331719" y="106.798269" transform="rotate(-0 27.331719 106.798269)">0.6</text>
     </g>
    </g>
    <g id="ytick_5">
     <g id="line2d_11">
      <g>
       <use xlink:href="#mce3b917093" x="34.331719" y="65.004845" style="stroke: #000000; stroke-width: 0.8"/>
      </g>
     </g>
     <g id="text_12">
      <text style="font: 7px 'Arial'; text-anchor: end" x="27.331719" y="67.51008" transform="rotate(-0 27.331719 67.51008)">0.8</text>
     </g>
    </g>
    <g id="ytick_6">
     <g id="line2d_12">
      <g>
       <use xlink:href="#mce3b917093" x="34.331719" y="25.716656" style="stroke: #000000; stroke-width: 0.8"/>
      </g>
     </g>
     <g id="text_13">
      <text style="font: 7px 'Arial'; text-anchor: end" x="27.331719" y="28.221891" transform="rotate(-0 27.331719 28.221891)">1.0</text>
     </g>
    </g>
    <g id="text_14">
     <text style="font: 7px 'Arial'; text-anchor: middle" x="12.210469" y="123.937129" transform="rotate(-90 12.210469 123.937129)">Precision</text>
    </g>
   </g>
   <g id="line2d_13">
    <path d="M 230.772664 89.239679 
L 230.772664 89.167402 
L 230.61488 89.201924 
L 230.61488 89.129547 
L 230.61488 88.766479 
L 230.141528 88.796982 
L 230.141528 88.723987 
L 229.983744 88.758493 
L 229.983744 88.685397 
L 229.983744 88.392213 
L 229.82596 88.42665 
L 229.82596 88.353131 
L 229.82596 87.984321 
L 229.668176 88.018666 
L 229.668176 87.944638 
L 229.668176 87.796336 
L 229.510393 87.830653 
L 229.510393 87.756357 
L 229.510393 87.607519 
L 229.352609 87.641807 
L 229.352609 87.567242 
L 229.352609 87.492594 
L 229.194825 87.526876 
L 229.194825 87.452123 
L 229.194825 86.851094 
L 228.721473 86.953554 
L 228.721473 86.877979 
L 228.721473 86.574831 
L 228.405905 86.56705 
L 228.405905 85.955593 
L 227.77477 86.014809 
L 227.77477 85.937806 
L 227.616986 85.971887 
L 227.616986 85.894771 
L 227.616986 85.6629 
L 227.459202 85.696922 
L 227.459202 85.619432 
L 227.459202 85.230655 
L 227.143634 85.220445 
L 227.143634 85.142285 
L 226.98585 85.176223 
L 226.98585 85.097948 
L 226.98585 84.941129 
L 226.196931 85.032349 
L 226.196931 84.874734 
L 226.039147 84.908752 
L 226.039147 84.829783 
L 226.039147 84.592328 
L 225.881363 84.626282 
L 225.881363 84.546922 
L 225.881363 83.988825 
L 225.723579 84.022606 
L 225.723579 83.942482 
L 225.723579 83.54046 
L 225.565795 83.574117 
L 225.565795 83.493405 
L 225.565795 83.250702 
L 225.408011 83.284289 
L 225.408011 83.203171 
L 225.408011 83.121959 
L 225.250227 83.155529 
L 225.250227 83.074194 
L 225.250227 82.420068 
L 224.93466 82.486817 
L 224.93466 82.404561 
L 224.93466 80.907207 
L 224.776876 80.940079 
L 224.776876 80.85592 
L 224.776876 80.602843 
L 224.461308 80.668457 
L 224.461308 80.583834 
L 224.461308 80.159198 
L 224.303524 80.191876 
L 224.303524 80.106612 
L 224.303524 79.850202 
L 223.987956 79.829683 
L 223.987956 79.485688 
L 223.672389 79.464421 
L 223.672389 79.291459 
L 223.514605 79.323949 
L 223.514605 79.237278 
L 223.514605 79.06362 
L 223.199037 79.128519 
L 223.199037 79.041465 
L 223.199037 77.900048 
L 222.567901 77.939726 
L 222.567901 77.850922 
L 222.252333 77.826222 
L 222.252333 77.737129 
L 222.09455 77.76926 
L 222.09455 77.680021 
L 222.09455 77.052248 
L 221.936766 77.084133 
L 221.936766 76.993969 
L 221.936766 76.268605 
L 221.463414 76.272216 
L 221.463414 76.089287 
L 221.30563 76.120889 
L 221.30563 76.029215 
L 221.30563 75.845521 
L 220.674495 75.879697 
L 220.674495 75.695003 
L 220.516711 75.726575 
L 220.516711 75.634014 
L 220.516711 75.448541 
L 220.043359 75.450119 
L 220.043359 75.170321 
L 219.570007 75.171196 
L 219.570007 74.701291 
L 219.25444 74.764011 
L 219.25444 74.669589 
L 219.25444 74.290686 
L 218.938872 74.35316 
L 218.938872 74.258048 
L 218.938872 74.162813 
L 218.307736 74.192393 
L 218.307736 74.096747 
L 217.676601 74.222165 
L 217.676601 74.126228 
L 217.676601 73.644668 
L 217.045465 73.672866 
L 217.045465 73.284163 
L 216.41433 73.409012 
L 216.41433 73.311343 
L 216.41433 73.115622 
L 216.098762 73.17803 
L 216.098762 73.079888 
L 216.098762 72.883216 
L 215.467626 72.909286 
L 215.467626 72.810446 
L 214.836491 72.836378 
L 214.836491 72.737095 
L 214.678707 72.76838 
L 214.678707 72.668919 
L 214.678707 72.569327 
L 213.889787 72.625965 
L 213.889787 72.224808 
L 213.574219 72.287276 
L 213.574219 72.186557 
L 213.574219 72.085702 
L 212.7853 72.140917 
L 212.7853 71.938055 
L 212.154164 71.961573 
L 212.154164 71.859607 
L 211.680813 71.851528 
L 211.680813 71.646611 
L 211.207461 71.637916 
L 211.207461 71.431866 
L 211.049677 71.463178 
L 211.049677 71.359892 
L 211.049677 71.256464 
L 210.102974 71.340776 
L 210.102974 71.236765 
L 209.787406 71.195382 
L 209.787406 71.090982 
L 209.471838 71.153828 
L 209.471838 71.049182 
L 209.471838 70.734373 
L 209.156271 70.691653 
L 209.156271 70.162792 
L 207.736215 70.443899 
L 207.736215 70.337208 
L 207.736215 70.016235 
L 207.10508 70.033956 
L 207.10508 69.926296 
L 206.947296 69.957606 
L 206.947296 69.849739 
L 206.947296 69.525219 
L 206.789512 69.556355 
L 206.789512 69.44782 
L 206.789512 69.230284 
L 205.842809 69.307703 
L 205.842809 68.868795 
L 205.053889 68.913836 
L 205.053889 68.692545 
L 203.791618 68.830875 
L 203.791618 68.719365 
L 203.47605 68.782005 
L 203.47605 68.670216 
L 203.47605 68.446146 
L 203.160483 68.396218 
L 203.160483 68.283655 
L 202.844915 68.233222 
L 202.844915 68.120208 
L 202.687131 68.151364 
L 202.687131 68.038125 
L 202.687131 67.583495 
L 201.740428 67.76957 
L 201.740428 66.849224 
L 201.42486 66.910616 
L 201.42486 66.678557 
L 200.951508 66.770607 
L 200.951508 66.654125 
L 200.478156 66.746395 
L 200.478156 66.629545 
L 200.004805 66.722038 
L 200.004805 66.604817 
L 199.689237 66.666581 
L 199.689237 66.195396 
L 199.531453 66.226085 
L 199.531453 65.394134 
L 199.373669 65.424399 
L 199.373669 65.184929 
L 198.742534 65.305904 
L 198.742534 65.065149 
L 198.426966 65.125639 
L 198.426966 65.004845 
L 198.269182 65.03509 
L 198.269182 64.91404 
L 198.111398 64.944262 
L 198.111398 64.822955 
L 197.953614 64.853153 
L 197.953614 64.731589 
L 197.638046 64.791984 
L 197.638046 64.670089 
L 197.480263 64.700286 
L 197.480263 64.455787 
L 197.322479 64.485887 
L 197.322479 64.117495 
L 197.164695 64.147426 
L 197.164695 64.024173 
L 196.849127 64.084028 
L 196.849127 63.5885 
L 196.691343 63.618203 
L 196.691343 63.493761 
L 196.533559 63.523437 
L 196.533559 63.398724 
L 196.217991 63.458066 
L 196.217991 63.207751 
L 195.902424 63.266979 
L 195.902424 63.141374 
L 195.74464 63.170982 
L 195.74464 63.045102 
L 195.586856 63.074681 
L 195.586856 62.568853 
L 195.429072 62.59817 
L 195.429072 62.088802 
L 195.271288 62.117854 
L 195.271288 61.989924 
L 194.95572 62.048008 
L 194.95572 61.404481 
L 194.482369 61.490753 
L 194.482369 61.361183 
L 194.324585 61.389951 
L 194.324585 61.260091 
L 194.009017 61.317604 
L 194.009017 61.187369 
L 193.851233 61.216114 
L 193.851233 61.085585 
L 193.693449 61.114294 
L 193.693449 60.852435 
L 193.220097 60.938342 
L 193.220097 60.675126 
L 193.062314 60.703687 
L 193.062314 60.571673 
L 192.90453 60.600196 
L 192.90453 59.535567 
L 192.588962 59.591374 
L 192.588962 59.322669 
L 192.11561 59.406197 
L 192.11561 59.271246 
L 191.642259 59.354923 
L 191.642259 59.21948 
L 191.484475 59.247375 
L 191.484475 58.83942 
L 191.326691 58.867091 
L 191.326691 58.319596 
L 191.011123 58.374345 
L 191.011123 58.098847 
L 190.853339 58.126105 
L 190.853339 57.849492 
L 190.695555 57.876608 
L 190.695555 57.737858 
L 190.379987 57.792039 
L 190.379987 57.513453 
L 190.222204 57.540423 
L 190.222204 57.260699 
L 190.06442 57.287522 
L 190.06442 57.147207 
L 189.906636 57.17398 
L 189.906636 57.033329 
L 189.591068 57.086816 
L 189.591068 56.94573 
L 189.433284 56.972444 
L 189.433284 56.547439 
L 189.117716 56.600413 
L 189.117716 56.315461 
L 188.644365 56.394664 
L 188.644365 56.251518 
L 187.066526 56.517501 
L 187.066526 56.37309 
L 186.593174 56.453482 
L 186.593174 56.308509 
L 185.646471 56.469944 
L 185.646471 55.884992 
L 185.015335 55.991877 
L 185.015335 55.844567 
L 184.541983 55.924908 
L 184.541983 55.777014 
L 184.3842 55.803782 
L 184.3842 55.655517 
L 183.910848 55.735782 
L 183.910848 55.586925 
L 183.753064 55.613667 
L 183.753064 55.464434 
L 182.964145 55.598312 
L 182.964145 55.448259 
L 182.490793 55.528832 
L 182.490793 55.378173 
L 182.017441 55.458848 
L 182.017441 55.307579 
L 180.75517 55.523966 
L 180.75517 55.218776 
L 180.439602 55.272909 
L 180.439602 54.966135 
L 180.281818 54.993044 
L 180.281818 54.839117 
L 179.177331 55.028048 
L 179.177331 54.873012 
L 179.019547 54.900084 
L 179.019547 54.588907 
L 178.388412 54.69674 
L 178.388412 54.540234 
L 177.91506 54.621275 
L 177.91506 54.464112 
L 176.021653 54.791407 
L 176.021653 54.632465 
L 175.863869 54.659951 
L 175.863869 54.500582 
L 175.232734 54.610549 
L 175.232734 54.129092 
L 174.759382 54.210972 
L 174.759382 54.049485 
L 174.601598 54.076754 
L 174.601598 53.752587 
L 174.443814 53.779648 
L 174.443814 53.453966 
L 174.28603 53.480817 
L 174.28603 53.31737 
L 173.970463 53.370964 
L 173.970463 53.206934 
L 173.654895 53.260469 
L 173.654895 52.930914 
L 173.339327 52.984119 
L 173.339327 52.652731 
L 173.023759 52.705599 
L 173.023759 52.539143 
L 172.708192 52.591943 
L 172.708192 52.257494 
L 171.761488 52.415475 
L 171.761488 52.246913 
L 171.603704 52.273285 
L 171.603704 52.104246 
L 171.44592 52.130528 
L 171.44592 51.96101 
L 171.288137 51.987202 
L 171.288137 51.646861 
L 170.972569 51.698825 
L 170.972569 51.527854 
L 170.814785 51.553768 
L 170.814785 51.210501 
L 170.341433 51.287677 
L 170.341433 50.942137 
L 170.025865 50.993252 
L 170.025865 50.819657 
L 169.868082 50.845143 
L 169.868082 49.61898 
L 169.552514 49.66796 
L 169.552514 49.136132 
L 168.921378 49.232807 
L 168.921378 49.054165 
L 168.763594 49.078299 
L 168.763594 48.539671 
L 168.448027 48.58712 
L 168.448027 47.8624 
L 168.132459 47.90873 
L 168.132459 47.72627 
L 167.974675 47.749341 
L 167.974675 47.566331 
L 167.816891 47.589282 
L 167.816891 47.22177 
L 167.659107 47.244431 
L 167.659107 47.059923 
L 167.501323 47.082461 
L 167.501323 46.897392 
L 167.185755 46.942267 
L 167.185755 46.756461 
L 166.870188 46.801178 
L 166.870188 46.614629 
L 164.503429 46.953515 
L 164.503429 46.573875 
L 164.345645 46.596496 
L 164.345645 46.214842 
L 164.187861 46.237147 
L 164.187861 46.045512 
L 163.71451 46.112164 
L 163.71451 45.919554 
L 163.556726 45.941682 
L 163.556726 45.55482 
L 163.398942 45.57662 
L 163.398942 45.382361 
L 163.083374 45.425726 
L 163.083374 45.230657 
L 162.92559 45.25222 
L 162.92559 45.056528 
L 160.716616 45.360751 
L 160.716616 45.161879 
L 159.454345 45.338453 
L 159.454345 45.137522 
L 158.665425 45.248499 
L 158.665425 45.046086 
L 157.560938 45.202148 
L 157.560938 44.793002 
L 157.24537 44.837212 
L 157.24537 44.425318 
L 156.456451 44.534597 
L 156.456451 44.326851 
L 155.351964 44.480473 
L 155.351964 44.060432 
L 155.036396 44.103901 
L 155.036396 43.892687 
L 154.563044 43.957601 
L 154.563044 43.745205 
L 153.300773 43.918765 
L 153.300773 43.70402 
L 152.038502 43.879079 
L 152.038502 43.661931 
L 151.880718 43.683816 
L 151.880718 43.465899 
L 150.934015 43.59689 
L 150.934015 43.376988 
L 150.460663 43.442477 
L 150.460663 43.221295 
L 148.567256 43.485184 
L 148.567256 43.035127 
L 148.251688 43.078861 
L 148.251688 42.852466 
L 148.093905 42.874156 
L 148.093905 42.646928 
L 147.936121 42.668413 
L 147.936121 42.440345 
L 147.462769 42.504339 
L 147.462769 42.274897 
L 147.147201 42.317299 
L 147.147201 42.086735 
L 146.673849 42.14994 
L 146.673849 41.917971 
L 146.516066 41.938876 
L 146.516066 41.706035 
L 146.358282 41.72672 
L 146.358282 41.493002 
L 146.200498 41.513464 
L 146.200498 41.043648 
L 145.411578 41.143956 
L 145.411578 40.906716 
L 145.096011 40.946638 
L 145.096011 40.708202 
L 144.464875 40.787522 
L 144.464875 40.306435 
L 144.149307 40.345237 
L 144.149307 40.103144 
L 143.360388 40.199568 
L 143.360388 39.955329 
L 142.413684 40.070934 
L 142.413684 39.824204 
L 141.940333 39.881786 
L 141.940333 39.633453 
L 141.782549 39.65244 
L 141.782549 38.902418 
L 140.993629 38.993355 
L 140.993629 38.740365 
L 139.731358 38.885882 
L 139.731358 38.629558 
L 138.626871 38.757227 
L 138.626871 38.497821 
L 137.837952 38.588855 
L 137.837952 38.326988 
L 136.417897 38.490995 
L 136.417897 37.958628 
L 135.786761 38.03001 
L 135.786761 37.761211 
L 134.52449 37.903539 
L 134.52449 37.630974 
L 133.893354 37.701892 
L 133.893354 37.426996 
L 133.577786 37.462004 
L 133.577786 37.185514 
L 132.788867 37.272006 
L 132.788867 36.992723 
L 130.89546 37.200896 
L 130.89546 36.630042 
L 129.948757 36.732036 
L 129.948757 36.442761 
L 129.475405 36.493197 
L 129.475405 36.20173 
L 127.424215 36.420169 
L 127.424215 36.122035 
L 126.793079 36.189275 
L 126.793079 35.586461 
L 126.477511 35.618558 
L 126.477511 35.009947 
L 126.00416 35.055652 
L 126.00416 34.748424 
L 123.637401 34.976499 
L 123.637401 34.660848 
L 122.059562 34.814264 
L 122.059562 34.169365 
L 119.850588 34.378074 
L 119.850588 34.046308 
L 117.799397 34.242122 
L 117.799397 33.901696 
L 117.326046 33.946423 
L 117.326046 33.258265 
L 116.537126 33.327837 
L 116.537126 32.978798 
L 114.64372 33.143535 
L 114.64372 32.785554 
L 112.276961 32.992247 
L 112.276961 32.622783 
L 105.965605 33.208048 
L 105.965605 32.806881 
L 105.33447 32.867611 
L 105.33447 32.46141 
L 104.072199 32.579222 
L 104.072199 32.16439 
L 101.074305 32.444086 
L 101.074305 32.009959 
L 92.553975 32.897265 
L 89.713865 33.251377 
L 89.713865 32.732404 
L 85.611483 33.272077 
L 85.611483 32.711586 
L 84.033645 32.925498 
L 84.033645 32.345032 
L 81.509102 32.687141 
L 81.509102 32.073968 
L 79.457912 32.353175 
L 79.457912 31.70977 
L 77.406721 31.986048 
L 77.406721 31.309281 
L 76.302234 31.452158 
L 76.302234 30.753604 
L 72.51542 31.239092 
L 72.51542 30.46926 
L 68.886391 30.955081 
L 68.886391 30.101499 
L 63.679523 30.859089 
L 59.577141 31.669412 
L 56.26368 32.537522 
L 53.42357 33.511932 
L 51.056811 34.565347 
L 49.163405 35.637916 
L 47.427782 36.878074 
L 46.007727 38.149627 
L 44.745456 39.550526 
L 43.483184 41.307207 
L 42.378697 43.256026 
L 41.431994 45.360751 
L 40.485291 48.039491 
L 39.696371 50.901393 
L 38.907452 54.60503 
L 38.118532 59.585785 
L 37.487397 65.004845 
L 36.856261 72.48831 
L 36.698477 74.826892 
L 36.698477 67.072645 
L 36.225125 74.826892 
L 35.751774 86.160024 
L 35.59399 91.196971 
L 35.59399 79.291459 
L 35.436206 84.64894 
L 35.436206 50.271774 
L 35.120638 58.456814 
L 34.80507 74.826892 
L 34.647287 91.196971 
L 34.489503 123.937129 
L 34.489503 25.716656 
L 34.331719 25.716656 
L 34.331719 25.716656 
" clip-path="url(#p94c994eeee)" style="fill: none; stroke: #ff0000; stroke-width: 1.5; stroke-linecap: square"/>
   </g>
   <g id="line2d_14">
    <defs>
     <path id="mdd267c5a21" d="M 0 3 
C 0.795609 3 1.55874 2.683901 2.12132 2.12132 
C 2.683901 1.55874 3 0.795609 3 0 
C 3 -0.795609 2.683901 -1.55874 2.12132 -2.12132 
C 1.55874 -2.683901 0.795609 -3 0 -3 
C -0.795609 -3 -1.55874 -2.683901 -2.12132 -2.12132 
C -2.683901 -1.55874 -3 -0.795609 -3 0 
C -3 0.795609 -2.683901 1.55874 -2.12132 2.12132 
C -1.55874 2.683901 -0.795609 3 0 3 
z
" style="stroke: #000000"/>
    </defs>
    <g clip-path="url(#p94c994eeee)">
     <use xlink:href="#mdd267c5a21" x="219.25444" y="74.290686" style="fill: #ff0000; stroke: #000000"/>
    </g>
   </g>
   <g id="line2d_15">
    <path d="M 34.331719 89.239679 
L 230.772664 89.239679 
" clip-path="url(#p94c994eeee)" style="fill: none; stroke: #00bfbf; stroke-width: 1.5; stroke-linecap: square"/>
   </g>
   <g id="patch_4">
    <path d="M 34.331719 222.157601 
L 34.331719 25.716656 
" style="fill: none; stroke: #000000; stroke-width: 0.8; stroke-linejoin: miter; stroke-linecap: square"/>
   </g>
   <g id="patch_5">
    <path d="M 230.772664 222.157601 
L 230.772664 25.716656 
" style="fill: none; stroke: #000000; stroke-width: 0.8; stroke-linejoin: miter; stroke-linecap: square"/>
   </g>
   <g id="patch_6">
    <path d="M 34.331719 222.157601 
L 230.772664 222.157601 
" style="fill: none; stroke: #000000; stroke-width: 0.8; stroke-linejoin: miter; stroke-linecap: square"/>
   </g>
   <g id="patch_7">
    <path d="M 34.331719 25.716656 
L 230.772664 25.716656 
" style="fill: none; stroke: #000000; stroke-width: 0.8; stroke-linejoin: miter; stroke-linecap: square"/>
   </g>
   <g id="text_15">
    <text style="font: 7px 'Arial'" transform="translate(117.439847 12.210469)">SP model</text>
    <text style="font: 7px 'Arial'" transform="translate(87.62641 19.716656)">Precision - Recall (PR) curve</text>
   </g>
   <g id="legend_1">
    <g id="patch_8">
     <path d="M 47.553597 261.02835 
L 217.550785 261.02835 
Q 218.950785 261.02835 218.950785 259.62835 
L 218.950785 250.259288 
Q 218.950785 248.859288 217.550785 248.859288 
L 47.553597 248.859288 
Q 46.153597 248.859288 46.153597 250.259288 
L 46.153597 259.62835 
Q 46.153597 261.02835 47.553597 261.02835 
z
" style="fill: #ffffff; opacity: 0.8; stroke: #cccccc; stroke-linejoin: miter"/>
    </g>
    <g id="line2d_16">
     <path d="M 48.953597 254.305069 
L 55.953597 254.305069 
L 62.953597 254.305069 
" style="fill: none; stroke: #ff0000; stroke-width: 1.5; stroke-linecap: square"/>
    </g>
    <g id="text_16">
     <text style="font: 7px 'Arial'; text-anchor: start" x="68.553597" y="256.755069" transform="rotate(-0 68.553597 256.755069)">model performance</text>
    </g>
    <g id="line2d_17">
     <path d="M 142.855316 254.305069 
L 149.855316 254.305069 
L 156.855316 254.305069 
" style="fill: none; stroke: #00bfbf; stroke-width: 1.5; stroke-linecap: square"/>
    </g>
    <g id="text_17">
     <text style="font: 7px 'Arial'; text-anchor: start" x="162.455316" y="256.755069" transform="rotate(-0 162.455316 256.755069)">random guessing</text>
    </g>
   </g>
  </g>
 </g>
 <defs>
  <clipPath id="p94c994eeee">
   <rect x="34.331719" y="25.716656" width="196.440945" height="196.440945"/>
  </clipPath>
 </defs>
</svg>
