<?xml version="1.0" encoding="utf-8" standalone="no"?>
<!DOCTYPE svg PUBLIC "-//W3C//DTD SVG 1.1//EN"
  "http://www.w3.org/Graphics/SVG/1.1/DTD/svg11.dtd">
<svg xmlns:xlink="http://www.w3.org/1999/xlink" width="606.303125pt" height="439.248375pt" viewBox="0 0 606.303125 439.248375" xmlns="http://www.w3.org/2000/svg" version="1.1">
 <metadata>
  <rdf:RDF xmlns:dc="http://purl.org/dc/elements/1.1/" xmlns:cc="http://creativecommons.org/ns#" xmlns:rdf="http://www.w3.org/1999/02/22-rdf-syntax-ns#">
   <cc:Work>
    <dc:type rdf:resource="http://purl.org/dc/dcmitype/StillImage"/>
    <dc:date>2024-09-24T11:17:31.820138</dc:date>
    <dc:format>image/svg+xml</dc:format>
    <dc:creator>
     <cc:Agent>
      <dc:title>Matplotlib v3.7.0, https://matplotlib.org/</dc:title>
     </cc:Agent>
    </dc:creator>
   </cc:Work>
  </rdf:RDF>
 </metadata>
 <defs>
  <style type="text/css">*{stroke-linejoin: round; stroke-linecap: butt}</style>
 </defs>
 <g id="figure_1">
  <g id="patch_1">
   <path d="M -0 439.248375 
L 606.303125 439.248375 
L 606.303125 0 
L -0 0 
z
" style="fill: #ffffff"/>
  </g>
  <g id="axes_1">
   <g id="patch_2">
    <path d="M 124.591562 328.9341 
L 481.711563 328.9341 
L 481.711563 62.8221 
L 124.591562 62.8221 
z
" style="fill: #ffffff"/>
   </g>
   <g id="patch_3">
    <path d="M 481.711563 62.8221 
L 482.714466 71.204051 
L 479.413366 70.620753 
L 460.945738 128.654418 
L 460.598254 128.593019 
L 479.065882 70.559353 
L 475.764782 69.976056 
z
" clip-path="url(#p396c639557)" style="fill: #1f77b4; stroke: #000000; stroke-linejoin: miter"/>
   </g>
   <g id="matplotlib.axis_1">
    <g id="xtick_1">
     <g id="line2d_1">
      <defs>
       <path id="m5f9dfb8dde" d="M 0 0 
L 0 3.5 
" style="stroke: #000000; stroke-width: 0.8"/>
      </defs>
      <g>
       <use xlink:href="#m5f9dfb8dde" x="124.591562" y="328.9341" style="stroke: #000000; stroke-width: 0.8"/>
      </g>
     </g>
     <g id="text_1">
      <!-- 0.0 -->
      <g transform="translate(107.098125 352.650662) scale(0.22 -0.22)">
       <defs>
        <path id="DejaVuSans-30" d="M 2034 4250 
Q 1547 4250 1301 3770 
Q 1056 3291 1056 2328 
Q 1056 1369 1301 889 
Q 1547 409 2034 409 
Q 2525 409 2770 889 
Q 3016 1369 3016 2328 
Q 3016 3291 2770 3770 
Q 2525 4250 2034 4250 
z
M 2034 4750 
Q 2819 4750 3233 4129 
Q 3647 3509 3647 2328 
Q 3647 1150 3233 529 
Q 2819 -91 2034 -91 
Q 1250 -91 836 529 
Q 422 1150 422 2328 
Q 422 3509 836 4129 
Q 1250 4750 2034 4750 
z
" transform="scale(0.015625)"/>
        <path id="DejaVuSans-2e" d="M 684 794 
L 1344 794 
L 1344 0 
L 684 0 
L 684 794 
z
" transform="scale(0.015625)"/>
       </defs>
       <use xlink:href="#DejaVuSans-30"/>
       <use xlink:href="#DejaVuSans-2e" x="63.623047"/>
       <use xlink:href="#DejaVuSans-30" x="95.410156"/>
      </g>
     </g>
    </g>
    <g id="xtick_2">
     <g id="line2d_2">
      <g>
       <use xlink:href="#m5f9dfb8dde" x="196.015562" y="328.9341" style="stroke: #000000; stroke-width: 0.8"/>
      </g>
     </g>
     <g id="text_2">
      <!-- 0.2 -->
      <g transform="translate(178.522125 352.650662) scale(0.22 -0.22)">
       <defs>
        <path id="DejaVuSans-32" d="M 1228 531 
L 3431 531 
L 3431 0 
L 469 0 
L 469 531 
Q 828 903 1448 1529 
Q 2069 2156 2228 2338 
Q 2531 2678 2651 2914 
Q 2772 3150 2772 3378 
Q 2772 3750 2511 3984 
Q 2250 4219 1831 4219 
Q 1534 4219 1204 4116 
Q 875 4013 500 3803 
L 500 4441 
Q 881 4594 1212 4672 
Q 1544 4750 1819 4750 
Q 2544 4750 2975 4387 
Q 3406 4025 3406 3419 
Q 3406 3131 3298 2873 
Q 3191 2616 2906 2266 
Q 2828 2175 2409 1742 
Q 1991 1309 1228 531 
z
" transform="scale(0.015625)"/>
       </defs>
       <use xlink:href="#DejaVuSans-30"/>
       <use xlink:href="#DejaVuSans-2e" x="63.623047"/>
       <use xlink:href="#DejaVuSans-32" x="95.410156"/>
      </g>
     </g>
    </g>
    <g id="xtick_3">
     <g id="line2d_3">
      <g>
       <use xlink:href="#m5f9dfb8dde" x="267.439562" y="328.9341" style="stroke: #000000; stroke-width: 0.8"/>
      </g>
     </g>
     <g id="text_3">
      <!-- 0.4 -->
      <g transform="translate(249.946125 352.650662) scale(0.22 -0.22)">
       <defs>
        <path id="DejaVuSans-34" d="M 2419 4116 
L 825 1625 
L 2419 1625 
L 2419 4116 
z
M 2253 4666 
L 3047 4666 
L 3047 1625 
L 3713 1625 
L 3713 1100 
L 3047 1100 
L 3047 0 
L 2419 0 
L 2419 1100 
L 313 1100 
L 313 1709 
L 2253 4666 
z
" transform="scale(0.015625)"/>
       </defs>
       <use xlink:href="#DejaVuSans-30"/>
       <use xlink:href="#DejaVuSans-2e" x="63.623047"/>
       <use xlink:href="#DejaVuSans-34" x="95.410156"/>
      </g>
     </g>
    </g>
    <g id="xtick_4">
     <g id="line2d_4">
      <g>
       <use xlink:href="#m5f9dfb8dde" x="338.863563" y="328.9341" style="stroke: #000000; stroke-width: 0.8"/>
      </g>
     </g>
     <g id="text_4">
      <!-- 0.6 -->
      <g transform="translate(321.370125 352.650662) scale(0.22 -0.22)">
       <defs>
        <path id="DejaVuSans-36" d="M 2113 2584 
Q 1688 2584 1439 2293 
Q 1191 2003 1191 1497 
Q 1191 994 1439 701 
Q 1688 409 2113 409 
Q 2538 409 2786 701 
Q 3034 994 3034 1497 
Q 3034 2003 2786 2293 
Q 2538 2584 2113 2584 
z
M 3366 4563 
L 3366 3988 
Q 3128 4100 2886 4159 
Q 2644 4219 2406 4219 
Q 1781 4219 1451 3797 
Q 1122 3375 1075 2522 
Q 1259 2794 1537 2939 
Q 1816 3084 2150 3084 
Q 2853 3084 3261 2657 
Q 3669 2231 3669 1497 
Q 3669 778 3244 343 
Q 2819 -91 2113 -91 
Q 1303 -91 875 529 
Q 447 1150 447 2328 
Q 447 3434 972 4092 
Q 1497 4750 2381 4750 
Q 2619 4750 2861 4703 
Q 3103 4656 3366 4563 
z
" transform="scale(0.015625)"/>
       </defs>
       <use xlink:href="#DejaVuSans-30"/>
       <use xlink:href="#DejaVuSans-2e" x="63.623047"/>
       <use xlink:href="#DejaVuSans-36" x="95.410156"/>
      </g>
     </g>
    </g>
    <g id="xtick_5">
     <g id="line2d_5">
      <g>
       <use xlink:href="#m5f9dfb8dde" x="410.287562" y="328.9341" style="stroke: #000000; stroke-width: 0.8"/>
      </g>
     </g>
     <g id="text_5">
      <!-- 0.8 -->
      <g transform="translate(392.794125 352.650662) scale(0.22 -0.22)">
       <defs>
        <path id="DejaVuSans-38" d="M 2034 2216 
Q 1584 2216 1326 1975 
Q 1069 1734 1069 1313 
Q 1069 891 1326 650 
Q 1584 409 2034 409 
Q 2484 409 2743 651 
Q 3003 894 3003 1313 
Q 3003 1734 2745 1975 
Q 2488 2216 2034 2216 
z
M 1403 2484 
Q 997 2584 770 2862 
Q 544 3141 544 3541 
Q 544 4100 942 4425 
Q 1341 4750 2034 4750 
Q 2731 4750 3128 4425 
Q 3525 4100 3525 3541 
Q 3525 3141 3298 2862 
Q 3072 2584 2669 2484 
Q 3125 2378 3379 2068 
Q 3634 1759 3634 1313 
Q 3634 634 3220 271 
Q 2806 -91 2034 -91 
Q 1263 -91 848 271 
Q 434 634 434 1313 
Q 434 1759 690 2068 
Q 947 2378 1403 2484 
z
M 1172 3481 
Q 1172 3119 1398 2916 
Q 1625 2713 2034 2713 
Q 2441 2713 2670 2916 
Q 2900 3119 2900 3481 
Q 2900 3844 2670 4047 
Q 2441 4250 2034 4250 
Q 1625 4250 1398 4047 
Q 1172 3844 1172 3481 
z
" transform="scale(0.015625)"/>
       </defs>
       <use xlink:href="#DejaVuSans-30"/>
       <use xlink:href="#DejaVuSans-2e" x="63.623047"/>
       <use xlink:href="#DejaVuSans-38" x="95.410156"/>
      </g>
     </g>
    </g>
    <g id="xtick_6">
     <g id="line2d_6">
      <g>
       <use xlink:href="#m5f9dfb8dde" x="481.711563" y="328.9341" style="stroke: #000000; stroke-width: 0.8"/>
      </g>
     </g>
     <g id="text_6">
      <!-- 1.0 -->
      <g transform="translate(464.218125 352.650662) scale(0.22 -0.22)">
       <defs>
        <path id="DejaVuSans-31" d="M 794 531 
L 1825 531 
L 1825 4091 
L 703 3866 
L 703 4441 
L 1819 4666 
L 2450 4666 
L 2450 531 
L 3481 531 
L 3481 0 
L 794 0 
L 794 531 
z
" transform="scale(0.015625)"/>
       </defs>
       <use xlink:href="#DejaVuSans-31"/>
       <use xlink:href="#DejaVuSans-2e" x="63.623047"/>
       <use xlink:href="#DejaVuSans-30" x="95.410156"/>
      </g>
     </g>
    </g>
    <g id="text_7">
     <!-- Recall -->
     <g transform="translate(270.33375 377.942537) scale(0.22 -0.22)">
      <defs>
       <path id="DejaVuSans-52" d="M 2841 2188 
Q 3044 2119 3236 1894 
Q 3428 1669 3622 1275 
L 4263 0 
L 3584 0 
L 2988 1197 
Q 2756 1666 2539 1819 
Q 2322 1972 1947 1972 
L 1259 1972 
L 1259 0 
L 628 0 
L 628 4666 
L 2053 4666 
Q 2853 4666 3247 4331 
Q 3641 3997 3641 3322 
Q 3641 2881 3436 2590 
Q 3231 2300 2841 2188 
z
M 1259 4147 
L 1259 2491 
L 2053 2491 
Q 2509 2491 2742 2702 
Q 2975 2913 2975 3322 
Q 2975 3731 2742 3939 
Q 2509 4147 2053 4147 
L 1259 4147 
z
" transform="scale(0.015625)"/>
       <path id="DejaVuSans-65" d="M 3597 1894 
L 3597 1613 
L 953 1613 
Q 991 1019 1311 708 
Q 1631 397 2203 397 
Q 2534 397 2845 478 
Q 3156 559 3463 722 
L 3463 178 
Q 3153 47 2828 -22 
Q 2503 -91 2169 -91 
Q 1331 -91 842 396 
Q 353 884 353 1716 
Q 353 2575 817 3079 
Q 1281 3584 2069 3584 
Q 2775 3584 3186 3129 
Q 3597 2675 3597 1894 
z
M 3022 2063 
Q 3016 2534 2758 2815 
Q 2500 3097 2075 3097 
Q 1594 3097 1305 2825 
Q 1016 2553 972 2059 
L 3022 2063 
z
" transform="scale(0.015625)"/>
       <path id="DejaVuSans-63" d="M 3122 3366 
L 3122 2828 
Q 2878 2963 2633 3030 
Q 2388 3097 2138 3097 
Q 1578 3097 1268 2742 
Q 959 2388 959 1747 
Q 959 1106 1268 751 
Q 1578 397 2138 397 
Q 2388 397 2633 464 
Q 2878 531 3122 666 
L 3122 134 
Q 2881 22 2623 -34 
Q 2366 -91 2075 -91 
Q 1284 -91 818 406 
Q 353 903 353 1747 
Q 353 2603 823 3093 
Q 1294 3584 2113 3584 
Q 2378 3584 2631 3529 
Q 2884 3475 3122 3366 
z
" transform="scale(0.015625)"/>
       <path id="DejaVuSans-61" d="M 2194 1759 
Q 1497 1759 1228 1600 
Q 959 1441 959 1056 
Q 959 750 1161 570 
Q 1363 391 1709 391 
Q 2188 391 2477 730 
Q 2766 1069 2766 1631 
L 2766 1759 
L 2194 1759 
z
M 3341 1997 
L 3341 0 
L 2766 0 
L 2766 531 
Q 2569 213 2275 61 
Q 1981 -91 1556 -91 
Q 1019 -91 701 211 
Q 384 513 384 1019 
Q 384 1609 779 1909 
Q 1175 2209 1959 2209 
L 2766 2209 
L 2766 2266 
Q 2766 2663 2505 2880 
Q 2244 3097 1772 3097 
Q 1472 3097 1187 3025 
Q 903 2953 641 2809 
L 641 3341 
Q 956 3463 1253 3523 
Q 1550 3584 1831 3584 
Q 2591 3584 2966 3190 
Q 3341 2797 3341 1997 
z
" transform="scale(0.015625)"/>
       <path id="DejaVuSans-6c" d="M 603 4863 
L 1178 4863 
L 1178 0 
L 603 0 
L 603 4863 
z
" transform="scale(0.015625)"/>
      </defs>
      <use xlink:href="#DejaVuSans-52"/>
      <use xlink:href="#DejaVuSans-65" x="64.982422"/>
      <use xlink:href="#DejaVuSans-63" x="126.505859"/>
      <use xlink:href="#DejaVuSans-61" x="181.486328"/>
      <use xlink:href="#DejaVuSans-6c" x="242.765625"/>
      <use xlink:href="#DejaVuSans-6c" x="270.548828"/>
     </g>
    </g>
   </g>
   <g id="matplotlib.axis_2">
    <g id="ytick_1">
     <g id="line2d_7">
      <defs>
       <path id="m6713a6fada" d="M 0 0 
L -3.5 0 
" style="stroke: #000000; stroke-width: 0.8"/>
      </defs>
      <g>
       <use xlink:href="#m6713a6fada" x="124.591562" y="328.9341" style="stroke: #000000; stroke-width: 0.8"/>
      </g>
     </g>
     <g id="text_8">
      <!-- 0.0 -->
      <g transform="translate(82.604687 337.292381) scale(0.22 -0.22)">
       <use xlink:href="#DejaVuSans-30"/>
       <use xlink:href="#DejaVuSans-2e" x="63.623047"/>
       <use xlink:href="#DejaVuSans-30" x="95.410156"/>
      </g>
     </g>
    </g>
    <g id="ytick_2">
     <g id="line2d_8">
      <g>
       <use xlink:href="#m6713a6fada" x="124.591562" y="275.7117" style="stroke: #000000; stroke-width: 0.8"/>
      </g>
     </g>
     <g id="text_9">
      <!-- 0.2 -->
      <g transform="translate(82.604687 284.069981) scale(0.22 -0.22)">
       <use xlink:href="#DejaVuSans-30"/>
       <use xlink:href="#DejaVuSans-2e" x="63.623047"/>
       <use xlink:href="#DejaVuSans-32" x="95.410156"/>
      </g>
     </g>
    </g>
    <g id="ytick_3">
     <g id="line2d_9">
      <g>
       <use xlink:href="#m6713a6fada" x="124.591562" y="222.4893" style="stroke: #000000; stroke-width: 0.8"/>
      </g>
     </g>
     <g id="text_10">
      <!-- 0.4 -->
      <g transform="translate(82.604687 230.847581) scale(0.22 -0.22)">
       <use xlink:href="#DejaVuSans-30"/>
       <use xlink:href="#DejaVuSans-2e" x="63.623047"/>
       <use xlink:href="#DejaVuSans-34" x="95.410156"/>
      </g>
     </g>
    </g>
    <g id="ytick_4">
     <g id="line2d_10">
      <g>
       <use xlink:href="#m6713a6fada" x="124.591562" y="169.2669" style="stroke: #000000; stroke-width: 0.8"/>
      </g>
     </g>
     <g id="text_11">
      <!-- 0.6 -->
      <g transform="translate(82.604687 177.625181) scale(0.22 -0.22)">
       <use xlink:href="#DejaVuSans-30"/>
       <use xlink:href="#DejaVuSans-2e" x="63.623047"/>
       <use xlink:href="#DejaVuSans-36" x="95.410156"/>
      </g>
     </g>
    </g>
    <g id="ytick_5">
     <g id="line2d_11">
      <g>
       <use xlink:href="#m6713a6fada" x="124.591562" y="116.0445" style="stroke: #000000; stroke-width: 0.8"/>
      </g>
     </g>
     <g id="text_12">
      <!-- 0.8 -->
      <g transform="translate(82.604687 124.402781) scale(0.22 -0.22)">
       <use xlink:href="#DejaVuSans-30"/>
       <use xlink:href="#DejaVuSans-2e" x="63.623047"/>
       <use xlink:href="#DejaVuSans-38" x="95.410156"/>
      </g>
     </g>
    </g>
    <g id="ytick_6">
     <g id="line2d_12">
      <g>
       <use xlink:href="#m6713a6fada" x="124.591562" y="62.8221" style="stroke: #000000; stroke-width: 0.8"/>
      </g>
     </g>
     <g id="text_13">
      <!-- 1.0 -->
      <g transform="translate(82.604687 71.180381) scale(0.22 -0.22)">
       <use xlink:href="#DejaVuSans-31"/>
       <use xlink:href="#DejaVuSans-2e" x="63.623047"/>
       <use xlink:href="#DejaVuSans-30" x="95.410156"/>
      </g>
     </g>
    </g>
    <g id="text_14">
     <!-- Precision -->
     <g transform="translate(74.029375 244.953569) rotate(-90) scale(0.22 -0.22)">
      <defs>
       <path id="DejaVuSans-50" d="M 1259 4147 
L 1259 2394 
L 2053 2394 
Q 2494 2394 2734 2622 
Q 2975 2850 2975 3272 
Q 2975 3691 2734 3919 
Q 2494 4147 2053 4147 
L 1259 4147 
z
M 628 4666 
L 2053 4666 
Q 2838 4666 3239 4311 
Q 3641 3956 3641 3272 
Q 3641 2581 3239 2228 
Q 2838 1875 2053 1875 
L 1259 1875 
L 1259 0 
L 628 0 
L 628 4666 
z
" transform="scale(0.015625)"/>
       <path id="DejaVuSans-72" d="M 2631 2963 
Q 2534 3019 2420 3045 
Q 2306 3072 2169 3072 
Q 1681 3072 1420 2755 
Q 1159 2438 1159 1844 
L 1159 0 
L 581 0 
L 581 3500 
L 1159 3500 
L 1159 2956 
Q 1341 3275 1631 3429 
Q 1922 3584 2338 3584 
Q 2397 3584 2469 3576 
Q 2541 3569 2628 3553 
L 2631 2963 
z
" transform="scale(0.015625)"/>
       <path id="DejaVuSans-69" d="M 603 3500 
L 1178 3500 
L 1178 0 
L 603 0 
L 603 3500 
z
M 603 4863 
L 1178 4863 
L 1178 4134 
L 603 4134 
L 603 4863 
z
" transform="scale(0.015625)"/>
       <path id="DejaVuSans-73" d="M 2834 3397 
L 2834 2853 
Q 2591 2978 2328 3040 
Q 2066 3103 1784 3103 
Q 1356 3103 1142 2972 
Q 928 2841 928 2578 
Q 928 2378 1081 2264 
Q 1234 2150 1697 2047 
L 1894 2003 
Q 2506 1872 2764 1633 
Q 3022 1394 3022 966 
Q 3022 478 2636 193 
Q 2250 -91 1575 -91 
Q 1294 -91 989 -36 
Q 684 19 347 128 
L 347 722 
Q 666 556 975 473 
Q 1284 391 1588 391 
Q 1994 391 2212 530 
Q 2431 669 2431 922 
Q 2431 1156 2273 1281 
Q 2116 1406 1581 1522 
L 1381 1569 
Q 847 1681 609 1914 
Q 372 2147 372 2553 
Q 372 3047 722 3315 
Q 1072 3584 1716 3584 
Q 2034 3584 2315 3537 
Q 2597 3491 2834 3397 
z
" transform="scale(0.015625)"/>
       <path id="DejaVuSans-6f" d="M 1959 3097 
Q 1497 3097 1228 2736 
Q 959 2375 959 1747 
Q 959 1119 1226 758 
Q 1494 397 1959 397 
Q 2419 397 2687 759 
Q 2956 1122 2956 1747 
Q 2956 2369 2687 2733 
Q 2419 3097 1959 3097 
z
M 1959 3584 
Q 2709 3584 3137 3096 
Q 3566 2609 3566 1747 
Q 3566 888 3137 398 
Q 2709 -91 1959 -91 
Q 1206 -91 779 398 
Q 353 888 353 1747 
Q 353 2609 779 3096 
Q 1206 3584 1959 3584 
z
" transform="scale(0.015625)"/>
       <path id="DejaVuSans-6e" d="M 3513 2113 
L 3513 0 
L 2938 0 
L 2938 2094 
Q 2938 2591 2744 2837 
Q 2550 3084 2163 3084 
Q 1697 3084 1428 2787 
Q 1159 2491 1159 1978 
L 1159 0 
L 581 0 
L 581 3500 
L 1159 3500 
L 1159 2956 
Q 1366 3272 1645 3428 
Q 1925 3584 2291 3584 
Q 2894 3584 3203 3211 
Q 3513 2838 3513 2113 
z
" transform="scale(0.015625)"/>
      </defs>
      <use xlink:href="#DejaVuSans-50"/>
      <use xlink:href="#DejaVuSans-72" x="58.552734"/>
      <use xlink:href="#DejaVuSans-65" x="97.416016"/>
      <use xlink:href="#DejaVuSans-63" x="158.939453"/>
      <use xlink:href="#DejaVuSans-69" x="213.919922"/>
      <use xlink:href="#DejaVuSans-73" x="241.703125"/>
      <use xlink:href="#DejaVuSans-69" x="293.802734"/>
      <use xlink:href="#DejaVuSans-6f" x="321.585938"/>
      <use xlink:href="#DejaVuSans-6e" x="382.767578"/>
     </g>
    </g>
   </g>
   <g id="line2d_13">
    <path d="M 481.711563 148.874622 
L 481.711563 148.77671 
L 481.424719 148.823475 
L 481.424719 148.725429 
L 481.424719 148.233593 
L 480.564189 148.274914 
L 480.564189 148.176031 
L 480.277346 148.222775 
L 480.277346 148.123755 
L 480.277346 147.726588 
L 479.990502 147.773238 
L 479.990502 147.673645 
L 479.990502 147.174029 
L 479.703659 147.220556 
L 479.703659 147.120272 
L 479.703659 146.919373 
L 479.416816 146.965861 
L 479.416816 146.865215 
L 479.416816 146.663588 
L 479.129972 146.710038 
L 479.129972 146.609027 
L 479.129972 146.507904 
L 478.843129 146.554344 
L 478.843129 146.453078 
L 478.843129 145.638885 
L 477.982599 145.777684 
L 477.982599 145.675305 
L 477.982599 145.264641 
L 477.408912 145.2541 
L 477.408912 144.42578 
L 476.261538 144.505998 
L 476.261538 144.401684 
L 475.974695 144.447852 
L 475.974695 144.343387 
L 475.974695 144.029279 
L 475.687852 144.075367 
L 475.687852 143.970393 
L 475.687852 143.443731 
L 475.114165 143.429899 
L 475.114165 143.324018 
L 474.827322 143.369993 
L 474.827322 143.263956 
L 474.827322 143.051519 
L 473.393105 143.175092 
L 473.393105 142.961576 
L 473.106261 143.00766 
L 473.106261 142.900682 
L 473.106261 142.579011 
L 472.819418 142.625007 
L 472.819418 142.5175 
L 472.819418 141.761465 
L 472.532575 141.807227 
L 472.532575 141.698685 
L 472.532575 141.154079 
L 472.245731 141.199674 
L 472.245731 141.090335 
L 472.245731 140.761554 
L 471.958888 140.807053 
L 471.958888 140.697165 
L 471.958888 140.58715 
L 471.672044 140.632626 
L 471.672044 140.522444 
L 471.672044 139.636322 
L 471.098358 139.726745 
L 471.098358 139.615316 
L 471.098358 137.5869 
L 470.811514 137.631429 
L 470.811514 137.174587 
L 470.237828 137.263472 
L 470.237828 136.573596 
L 469.950984 136.617865 
L 469.950984 136.15501 
L 469.664141 136.19916 
L 469.664141 136.083054 
L 469.377297 136.127214 
L 469.377297 135.661215 
L 469.090454 135.705254 
L 469.090454 135.588358 
L 468.803611 135.632405 
L 468.803611 135.3981 
L 468.516767 135.442112 
L 468.516767 135.089454 
L 467.943081 135.17737 
L 467.943081 133.513202 
L 467.369394 133.600046 
L 467.369394 133.479988 
L 466.795707 133.566952 
L 466.795707 133.446652 
L 466.508864 133.490167 
L 466.508864 133.369671 
L 466.22202 133.413192 
L 466.22202 133.2925 
L 465.935177 133.336027 
L 465.935177 132.364715 
L 465.648334 132.407909 
L 465.648334 131.303139 
L 465.074647 131.388794 
L 465.074647 131.265174 
L 464.787803 131.308031 
L 464.787803 131.060224 
L 464.50096 131.103034 
L 464.50096 130.730002 
L 464.214117 130.772711 
L 464.214117 130.648003 
L 463.353587 130.776299 
L 463.353587 130.5261 
L 463.066743 130.568869 
L 463.066743 130.192227 
L 462.7799 130.234893 
L 462.7799 130.108975 
L 462.206213 130.194364 
L 462.206213 129.815331 
L 461.91937 129.857947 
L 461.91937 129.731228 
L 461.345683 129.816517 
L 461.345683 129.179952 
L 460.771996 129.264917 
L 460.771996 128.623718 
L 460.198309 128.708351 
L 460.198309 128.450494 
L 459.337779 128.577517 
L 459.337779 128.448171 
L 459.050936 128.490565 
L 459.050936 128.360996 
L 457.903563 128.530896 
L 457.903563 127.74858 
L 457.043032 127.875555 
L 457.043032 127.744401 
L 456.756189 127.786779 
L 456.756189 127.260215 
L 455.608816 127.429344 
L 455.608816 127.031899 
L 455.035129 127.116441 
L 455.035129 126.717066 
L 454.174599 126.843758 
L 454.174599 126.7101 
L 453.887755 126.752382 
L 453.887755 126.618487 
L 453.600912 126.660764 
L 453.600912 126.526631 
L 452.740382 126.653616 
L 452.740382 126.519121 
L 452.453538 126.561501 
L 452.453538 126.291851 
L 451.306165 126.461443 
L 451.306165 126.3261 
L 451.019322 126.368578 
L 451.019322 125.825142 
L 450.445635 125.909767 
L 450.445635 125.636701 
L 449.298261 125.806127 
L 449.298261 125.669064 
L 449.011418 125.711499 
L 449.011418 125.436688 
L 448.437731 125.521474 
L 448.437731 125.383661 
L 447.864044 125.468548 
L 447.864044 125.330418 
L 447.577201 125.372883 
L 447.577201 125.2345 
L 447.003514 125.319472 
L 447.003514 125.041879 
L 446.429828 125.126821 
L 446.429828 124.987608 
L 446.142984 125.0301 
L 446.142984 124.750971 
L 445.856141 124.793388 
L 445.856141 124.513359 
L 445.282454 124.5981 
L 445.282454 124.457663 
L 444.135081 124.627575 
L 444.135081 124.486674 
L 443.848237 124.52923 
L 443.848237 124.388067 
L 443.561394 124.430614 
L 443.561394 124.289187 
L 442.987707 124.374322 
L 442.987707 123.8061 
L 442.700864 123.848479 
L 442.700864 123.705861 
L 442.41402 123.748229 
L 442.41402 123.031798 
L 439.83243 123.412605 
L 439.83243 122.833263 
L 439.545587 122.875584 
L 439.545587 122.730165 
L 438.685056 122.857268 
L 438.685056 122.711425 
L 438.398213 122.753839 
L 438.398213 122.1681 
L 438.11137 122.210279 
L 438.11137 121.768562 
L 436.963996 121.93698 
L 436.963996 121.789019 
L 436.390309 121.873439 
L 436.390309 121.278864 
L 435.242936 121.447206 
L 435.242936 121.29772 
L 434.956093 121.339879 
L 434.956093 121.040104 
L 433.521876 121.251039 
L 433.521876 121.100435 
L 432.661346 121.227495 
L 432.661346 121.076436 
L 432.087659 121.161293 
L 432.087659 120.706316 
L 431.800816 120.748598 
L 431.800816 120.596416 
L 431.513972 120.638679 
L 431.513972 120.486194 
L 431.227129 120.528438 
L 431.227129 120.375648 
L 430.940285 120.417874 
L 430.940285 120.264778 
L 430.653442 120.306985 
L 430.653442 119.537711 
L 428.932382 119.78978 
L 428.932382 118.543018 
L 428.358695 118.626184 
L 428.358695 118.311822 
L 427.498165 118.436518 
L 427.498165 118.278724 
L 426.637635 118.40372 
L 426.637635 118.245426 
L 425.777105 118.370724 
L 425.777105 118.211928 
L 425.203418 118.295598 
L 425.203418 117.6573 
L 424.916575 117.698873 
L 424.916575 116.571856 
L 424.629731 116.612855 
L 424.629731 116.288453 
L 423.482358 116.452334 
L 423.482358 116.126192 
L 422.908671 116.208135 
L 422.908671 116.0445 
L 422.621828 116.085472 
L 422.621828 115.92149 
L 422.334984 115.96243 
L 422.334984 115.7981 
L 422.048141 115.839008 
L 422.048141 115.674329 
L 421.474454 115.756143 
L 421.474454 115.591017 
L 421.187611 115.631923 
L 421.187611 115.300709 
L 420.900767 115.341485 
L 420.900767 114.842436 
L 420.613924 114.882982 
L 420.613924 114.716016 
L 420.040237 114.7971 
L 420.040237 114.125824 
L 419.753394 114.166062 
L 419.753394 113.997485 
L 419.46655 114.037685 
L 419.46655 113.868742 
L 418.892864 113.94913 
L 418.892864 113.610037 
L 418.319177 113.690271 
L 418.319177 113.520117 
L 418.032334 113.560227 
L 418.032334 113.389701 
L 417.74549 113.42977 
L 417.74549 112.744542 
L 417.458647 112.784258 
L 417.458647 112.094234 
L 417.171803 112.133589 
L 417.171803 111.960287 
L 416.598117 112.038971 
L 416.598117 111.167206 
L 415.737587 111.284076 
L 415.737587 111.108552 
L 415.450743 111.147524 
L 415.450743 110.971606 
L 414.877056 111.049517 
L 414.877056 110.873093 
L 414.590213 110.912032 
L 414.590213 110.735209 
L 414.30337 110.7741 
L 414.30337 110.419368 
L 413.44284 110.535743 
L 413.44284 110.179174 
L 413.155996 110.217865 
L 413.155996 110.039029 
L 412.869153 110.077668 
L 412.869153 108.635451 
L 412.295466 108.71105 
L 412.295466 108.347045 
L 411.434936 108.460198 
L 411.434936 108.277384 
L 410.574406 108.390738 
L 410.574406 108.207258 
L 410.287562 108.245048 
L 410.287562 107.692404 
L 410.000719 107.729889 
L 410.000719 106.988216 
L 409.427032 107.062382 
L 409.427032 106.689175 
L 409.140189 106.7261 
L 409.140189 106.351382 
L 408.853346 106.388115 
L 408.853346 106.200154 
L 408.279659 106.273552 
L 408.279659 105.896161 
L 407.992816 105.932695 
L 407.992816 105.553764 
L 407.705972 105.5901 
L 407.705972 105.40002 
L 407.419129 105.436287 
L 407.419129 105.245752 
L 406.845442 105.318209 
L 406.845442 105.127085 
L 406.558599 105.163274 
L 406.558599 104.587534 
L 405.984912 104.659296 
L 405.984912 104.273281 
L 405.124382 104.380575 
L 405.124382 104.18666 
L 402.255948 104.546978 
L 402.255948 104.351348 
L 401.395418 104.460254 
L 401.395418 104.263864 
L 399.674358 104.482554 
L 399.674358 103.690139 
L 398.526984 103.834933 
L 398.526984 103.635377 
L 397.666454 103.744212 
L 397.666454 103.543865 
L 397.379611 103.580127 
L 397.379611 103.379276 
L 396.519081 103.488009 
L 396.519081 103.286358 
L 396.232237 103.322583 
L 396.232237 103.120423 
L 394.79802 103.301783 
L 394.79802 103.098511 
L 393.93749 103.207661 
L 393.93749 103.003568 
L 393.07696 103.112856 
L 393.07696 102.907937 
L 390.782213 103.201069 
L 390.782213 102.787638 
L 390.208526 102.86097 
L 390.208526 102.445394 
L 389.921683 102.481846 
L 389.921683 102.273327 
L 387.913779 102.529266 
L 387.913779 102.319243 
L 387.626936 102.355916 
L 387.626936 101.934375 
L 386.479562 102.080453 
L 386.479562 101.86844 
L 385.619032 101.978224 
L 385.619032 101.76532 
L 382.176912 102.208696 
L 382.176912 101.993382 
L 381.890069 102.030617 
L 381.890069 101.814724 
L 380.742695 101.963693 
L 380.742695 101.311479 
L 379.882165 101.4224 
L 379.882165 101.203638 
L 379.595322 101.240579 
L 379.595322 100.80144 
L 379.308478 100.8381 
L 379.308478 100.396909 
L 379.021635 100.433283 
L 379.021635 100.211867 
L 378.447948 100.284469 
L 378.447948 100.062263 
L 377.874261 100.134785 
L 377.874261 99.688348 
L 377.300575 99.760423 
L 377.300575 99.311503 
L 376.726888 99.383121 
L 376.726888 99.157628 
L 376.153201 99.229155 
L 376.153201 98.776088 
L 374.432141 98.9901 
L 374.432141 98.761754 
L 374.145297 98.79748 
L 374.145297 98.568488 
L 373.858454 98.604092 
L 373.858454 98.374451 
L 373.571611 98.409932 
L 373.571611 97.948884 
L 372.997924 98.019278 
L 372.997924 97.787669 
L 372.711081 97.822775 
L 372.711081 97.357762 
L 371.85055 97.46231 
L 371.85055 96.994217 
L 371.276864 97.063462 
L 371.276864 96.828299 
L 370.99002 96.862823 
L 370.99002 95.201781 
L 370.416334 95.268133 
L 370.416334 94.547683 
L 369.26896 94.678645 
L 369.26896 94.436645 
L 368.982117 94.469339 
L 368.982117 93.739677 
L 368.40843 93.803954 
L 368.40843 92.8222 
L 367.834743 92.884962 
L 367.834743 92.63779 
L 367.5479 92.669043 
L 367.5479 92.421126 
L 367.261056 92.452218 
L 367.261056 91.954361 
L 366.974213 91.985059 
L 366.974213 91.735113 
L 366.68737 91.765644 
L 366.68737 91.514937 
L 366.113683 91.575727 
L 366.113683 91.324022 
L 365.539996 91.384599 
L 365.539996 91.131887 
L 361.237346 91.590965 
L 361.237346 91.076679 
L 360.950502 91.107323 
L 360.950502 90.590309 
L 360.663659 90.620524 
L 360.663659 90.360924 
L 359.803129 90.451215 
L 359.803129 90.190293 
L 359.516285 90.220269 
L 359.516285 89.696199 
L 359.229442 89.725731 
L 359.229442 89.462575 
L 358.655755 89.521319 
L 358.655755 89.257067 
L 358.368912 89.286277 
L 358.368912 89.02118 
L 354.353105 89.4333 
L 354.353105 89.163895 
L 352.058358 89.403094 
L 352.058358 89.1309 
L 350.624141 89.281236 
L 350.624141 89.007034 
L 348.616237 89.218446 
L 348.616237 88.66419 
L 348.04255 88.724079 
L 348.04255 88.1661 
L 346.608334 88.314137 
L 346.608334 88.032711 
L 344.60043 88.240817 
L 344.60043 87.671802 
L 344.026743 87.730688 
L 344.026743 87.444563 
L 343.166213 87.5325 
L 343.166213 87.244775 
L 340.871466 87.479891 
L 340.871466 87.188982 
L 338.576719 87.426129 
L 338.576719 87.131966 
L 338.289876 87.161612 
L 338.289876 86.866408 
L 336.568816 87.043856 
L 336.568816 86.745962 
L 335.708285 86.834678 
L 335.708285 86.53505 
L 332.266165 86.892532 
L 332.266165 86.282856 
L 331.692478 86.3421 
L 331.692478 86.03541 
L 331.405635 86.064794 
L 331.405635 85.756975 
L 331.118791 85.78608 
L 331.118791 85.477124 
L 330.258261 85.563814 
L 330.258261 85.252997 
L 329.684575 85.310438 
L 329.684575 84.9981 
L 328.824044 85.083722 
L 328.824044 84.769481 
L 328.537201 84.797801 
L 328.537201 84.482379 
L 328.250358 84.5104 
L 328.250358 84.193789 
L 327.963514 84.221509 
L 327.963514 83.585065 
L 326.529297 83.720948 
L 326.529297 83.399568 
L 325.955611 83.453648 
L 325.955611 83.130647 
L 324.808237 83.2381 
L 324.808237 82.586386 
L 324.23455 82.638951 
L 324.23455 82.310995 
L 322.800334 82.441617 
L 322.800334 82.110755 
L 321.079273 82.267361 
L 321.079273 81.933124 
L 320.218743 82.011129 
L 320.218743 81.674721 
L 319.9319 81.700441 
L 319.9319 80.684412 
L 318.497683 80.807601 
L 318.497683 80.464885 
L 316.202936 80.662011 
L 316.202936 80.314777 
L 314.195032 80.487727 
L 314.195032 80.136318 
L 312.760816 80.259638 
L 312.760816 79.904896 
L 310.179225 80.127071 
L 310.179225 79.405891 
L 309.031852 79.50259 
L 309.031852 79.138456 
L 306.737105 79.331264 
L 306.737105 78.962029 
L 305.589731 79.0581 
L 305.589731 78.685707 
L 305.016044 78.733131 
L 305.016044 78.358579 
L 303.581828 78.475747 
L 303.581828 78.097411 
L 300.139707 78.379417 
L 300.139707 77.6061 
L 298.418647 77.744268 
L 298.418647 77.352396 
L 297.558117 77.420721 
L 297.558117 77.02588 
L 293.829153 77.321792 
L 293.829153 76.91792 
L 292.681779 77.009008 
L 292.681779 76.192395 
L 292.108093 76.235876 
L 292.108093 75.411412 
L 291.247562 75.473326 
L 291.247562 75.057134 
L 286.944912 75.3661 
L 286.944912 74.938498 
L 284.076478 75.146326 
L 284.076478 74.272702 
L 280.060671 74.555433 
L 280.060671 74.106001 
L 276.331707 74.371265 
L 276.331707 73.9101 
L 275.471177 73.97069 
L 275.471177 73.038466 
L 274.03696 73.132713 
L 274.03696 72.659882 
L 270.59484 72.883045 
L 270.59484 72.3981 
L 266.292189 72.6781 
L 266.292189 72.1776 
L 254.818454 72.970439 
L 254.818454 72.426992 
L 253.671081 72.509261 
L 253.671081 71.958993 
L 251.376334 72.118589 
L 251.376334 71.55663 
L 245.926309 71.935525 
L 245.926309 71.347427 
L 232.444671 72.374838 
L 225.273587 73.029136 
L 225.273587 72.3261 
L 217.815659 73.057177 
L 217.815659 72.297898 
L 214.947225 72.587678 
L 214.947225 71.801339 
L 210.357731 72.264784 
L 210.357731 71.434139 
L 206.628767 71.81237 
L 206.628767 70.940771 
L 202.899803 71.315036 
L 202.899803 70.398242 
L 200.8919 70.591793 
L 200.8919 69.645485 
L 194.007659 70.30316 
L 194.007659 69.260294 
L 187.410261 69.91842 
L 187.410261 68.7621 
L 179.091803 69.645485 
L 172.494406 70.557914 
L 167.044382 71.518571 
L 162.454888 72.534217 
L 158.439081 73.639661 
L 154.99696 74.809127 
L 152.128526 75.995961 
L 149.546936 77.284709 
L 147.252189 78.6621 
L 145.244285 80.1021 
L 143.236382 81.8301 
L 141.515322 83.6121 
L 140.081105 85.373964 
L 138.646888 87.4621 
L 137.212671 89.976386 
L 136.065297 92.3901 
L 134.917924 95.274783 
L 133.77055 98.783181 
L 132.623177 103.1421 
L 131.762647 107.1741 
L 130.902117 112.1021 
L 130.041587 118.2621 
L 129.181056 126.1821 
L 128.894213 129.3501 
L 128.894213 118.845679 
L 128.033683 129.3501 
L 127.459996 138.8541 
L 126.886309 151.5261 
L 126.886309 135.3981 
L 126.599466 142.6557 
L 126.599466 96.0861 
L 126.025779 107.1741 
L 125.738936 116.0445 
L 125.452093 129.3501 
L 125.165249 151.5261 
L 124.878406 195.8781 
L 124.878406 62.8221 
L 124.591562 62.8221 
L 124.591562 62.8221 
" clip-path="url(#p396c639557)" style="fill: none; stroke: #ff0000; stroke-width: 1.5; stroke-linecap: square"/>
   </g>
   <g id="line2d_14">
    <defs>
     <path id="mdf3f2006e5" d="M 0 3 
C 0.795609 3 1.55874 2.683901 2.12132 2.12132 
C 2.683901 1.55874 3 0.795609 3 0 
C 3 -0.795609 2.683901 -1.55874 2.12132 -2.12132 
C 1.55874 -2.683901 0.795609 -3 0 -3 
C -0.795609 -3 -1.55874 -2.683901 -2.12132 -2.12132 
C -2.683901 -1.55874 -3 -0.795609 -3 0 
C -3 0.795609 -2.683901 1.55874 -2.12132 2.12132 
C -1.55874 2.683901 -0.795609 3 0 3 
z
" style="stroke: #000000"/>
    </defs>
    <g clip-path="url(#p396c639557)">
     <use xlink:href="#mdf3f2006e5" x="460.771996" y="128.623718" style="fill: #ff0000; stroke: #000000"/>
    </g>
   </g>
   <g id="line2d_15">
    <path d="M 124.591562 148.874622 
L 481.711563 148.874622 
" clip-path="url(#p396c639557)" style="fill: none; stroke: #00bfbf; stroke-width: 1.5; stroke-linecap: square"/>
   </g>
   <g id="patch_4">
    <path d="M 124.591562 328.9341 
L 124.591562 62.8221 
" style="fill: none; stroke: #000000; stroke-width: 0.8; stroke-linejoin: miter; stroke-linecap: square"/>
   </g>
   <g id="patch_5">
    <path d="M 481.711563 328.9341 
L 481.711563 62.8221 
" style="fill: none; stroke: #000000; stroke-width: 0.8; stroke-linejoin: miter; stroke-linecap: square"/>
   </g>
   <g id="patch_6">
    <path d="M 124.591562 328.9341 
L 481.711563 328.9341 
" style="fill: none; stroke: #000000; stroke-width: 0.8; stroke-linejoin: miter; stroke-linecap: square"/>
   </g>
   <g id="patch_7">
    <path d="M 124.591562 62.8221 
L 481.711563 62.8221 
" style="fill: none; stroke: #000000; stroke-width: 0.8; stroke-linejoin: miter; stroke-linecap: square"/>
   </g>
   <g id="text_15">
    <!-- SP model -->
    <g transform="translate(241.51375 27.259875) scale(0.264 -0.264)">
     <defs>
      <path id="DejaVuSans-53" d="M 3425 4513 
L 3425 3897 
Q 3066 4069 2747 4153 
Q 2428 4238 2131 4238 
Q 1616 4238 1336 4038 
Q 1056 3838 1056 3469 
Q 1056 3159 1242 3001 
Q 1428 2844 1947 2747 
L 2328 2669 
Q 3034 2534 3370 2195 
Q 3706 1856 3706 1288 
Q 3706 609 3251 259 
Q 2797 -91 1919 -91 
Q 1588 -91 1214 -16 
Q 841 59 441 206 
L 441 856 
Q 825 641 1194 531 
Q 1563 422 1919 422 
Q 2459 422 2753 634 
Q 3047 847 3047 1241 
Q 3047 1584 2836 1778 
Q 2625 1972 2144 2069 
L 1759 2144 
Q 1053 2284 737 2584 
Q 422 2884 422 3419 
Q 422 4038 858 4394 
Q 1294 4750 2059 4750 
Q 2388 4750 2728 4690 
Q 3069 4631 3425 4513 
z
" transform="scale(0.015625)"/>
      <path id="DejaVuSans-20" transform="scale(0.015625)"/>
      <path id="DejaVuSans-6d" d="M 3328 2828 
Q 3544 3216 3844 3400 
Q 4144 3584 4550 3584 
Q 5097 3584 5394 3201 
Q 5691 2819 5691 2113 
L 5691 0 
L 5113 0 
L 5113 2094 
Q 5113 2597 4934 2840 
Q 4756 3084 4391 3084 
Q 3944 3084 3684 2787 
Q 3425 2491 3425 1978 
L 3425 0 
L 2847 0 
L 2847 2094 
Q 2847 2600 2669 2842 
Q 2491 3084 2119 3084 
Q 1678 3084 1418 2786 
Q 1159 2488 1159 1978 
L 1159 0 
L 581 0 
L 581 3500 
L 1159 3500 
L 1159 2956 
Q 1356 3278 1631 3431 
Q 1906 3584 2284 3584 
Q 2666 3584 2933 3390 
Q 3200 3197 3328 2828 
z
" transform="scale(0.015625)"/>
      <path id="DejaVuSans-64" d="M 2906 2969 
L 2906 4863 
L 3481 4863 
L 3481 0 
L 2906 0 
L 2906 525 
Q 2725 213 2448 61 
Q 2172 -91 1784 -91 
Q 1150 -91 751 415 
Q 353 922 353 1747 
Q 353 2572 751 3078 
Q 1150 3584 1784 3584 
Q 2172 3584 2448 3432 
Q 2725 3281 2906 2969 
z
M 947 1747 
Q 947 1113 1208 752 
Q 1469 391 1925 391 
Q 2381 391 2643 752 
Q 2906 1113 2906 1747 
Q 2906 2381 2643 2742 
Q 2381 3103 1925 3103 
Q 1469 3103 1208 2742 
Q 947 2381 947 1747 
z
" transform="scale(0.015625)"/>
     </defs>
     <use xlink:href="#DejaVuSans-53"/>
     <use xlink:href="#DejaVuSans-50" x="63.476562"/>
     <use xlink:href="#DejaVuSans-20" x="123.779297"/>
     <use xlink:href="#DejaVuSans-6d" x="155.566406"/>
     <use xlink:href="#DejaVuSans-6f" x="252.978516"/>
     <use xlink:href="#DejaVuSans-64" x="314.160156"/>
     <use xlink:href="#DejaVuSans-65" x="377.636719"/>
     <use xlink:href="#DejaVuSans-6c" x="439.160156"/>
    </g>
    <!-- Precision - Recall (PR) curve -->
    <g transform="translate(118.920812 56.8221) scale(0.264 -0.264)">
     <defs>
      <path id="DejaVuSans-2d" d="M 313 2009 
L 1997 2009 
L 1997 1497 
L 313 1497 
L 313 2009 
z
" transform="scale(0.015625)"/>
      <path id="DejaVuSans-28" d="M 1984 4856 
Q 1566 4138 1362 3434 
Q 1159 2731 1159 2009 
Q 1159 1288 1364 580 
Q 1569 -128 1984 -844 
L 1484 -844 
Q 1016 -109 783 600 
Q 550 1309 550 2009 
Q 550 2706 781 3412 
Q 1013 4119 1484 4856 
L 1984 4856 
z
" transform="scale(0.015625)"/>
      <path id="DejaVuSans-29" d="M 513 4856 
L 1013 4856 
Q 1481 4119 1714 3412 
Q 1947 2706 1947 2009 
Q 1947 1309 1714 600 
Q 1481 -109 1013 -844 
L 513 -844 
Q 928 -128 1133 580 
Q 1338 1288 1338 2009 
Q 1338 2731 1133 3434 
Q 928 4138 513 4856 
z
" transform="scale(0.015625)"/>
      <path id="DejaVuSans-75" d="M 544 1381 
L 544 3500 
L 1119 3500 
L 1119 1403 
Q 1119 906 1312 657 
Q 1506 409 1894 409 
Q 2359 409 2629 706 
Q 2900 1003 2900 1516 
L 2900 3500 
L 3475 3500 
L 3475 0 
L 2900 0 
L 2900 538 
Q 2691 219 2414 64 
Q 2138 -91 1772 -91 
Q 1169 -91 856 284 
Q 544 659 544 1381 
z
M 1991 3584 
L 1991 3584 
z
" transform="scale(0.015625)"/>
      <path id="DejaVuSans-76" d="M 191 3500 
L 800 3500 
L 1894 563 
L 2988 3500 
L 3597 3500 
L 2284 0 
L 1503 0 
L 191 3500 
z
" transform="scale(0.015625)"/>
     </defs>
     <use xlink:href="#DejaVuSans-50"/>
     <use xlink:href="#DejaVuSans-72" x="58.552734"/>
     <use xlink:href="#DejaVuSans-65" x="97.416016"/>
     <use xlink:href="#DejaVuSans-63" x="158.939453"/>
     <use xlink:href="#DejaVuSans-69" x="213.919922"/>
     <use xlink:href="#DejaVuSans-73" x="241.703125"/>
     <use xlink:href="#DejaVuSans-69" x="293.802734"/>
     <use xlink:href="#DejaVuSans-6f" x="321.585938"/>
     <use xlink:href="#DejaVuSans-6e" x="382.767578"/>
     <use xlink:href="#DejaVuSans-20" x="446.146484"/>
     <use xlink:href="#DejaVuSans-2d" x="477.933594"/>
     <use xlink:href="#DejaVuSans-20" x="514.017578"/>
     <use xlink:href="#DejaVuSans-52" x="545.804688"/>
     <use xlink:href="#DejaVuSans-65" x="610.787109"/>
     <use xlink:href="#DejaVuSans-63" x="672.310547"/>
     <use xlink:href="#DejaVuSans-61" x="727.291016"/>
     <use xlink:href="#DejaVuSans-6c" x="788.570312"/>
     <use xlink:href="#DejaVuSans-6c" x="816.353516"/>
     <use xlink:href="#DejaVuSans-20" x="844.136719"/>
     <use xlink:href="#DejaVuSans-28" x="875.923828"/>
     <use xlink:href="#DejaVuSans-50" x="914.9375"/>
     <use xlink:href="#DejaVuSans-52" x="975.240234"/>
     <use xlink:href="#DejaVuSans-29" x="1044.722656"/>
     <use xlink:href="#DejaVuSans-20" x="1083.736328"/>
     <use xlink:href="#DejaVuSans-63" x="1115.523438"/>
     <use xlink:href="#DejaVuSans-75" x="1170.503906"/>
     <use xlink:href="#DejaVuSans-72" x="1233.882812"/>
     <use xlink:href="#DejaVuSans-76" x="1274.996094"/>
     <use xlink:href="#DejaVuSans-65" x="1334.175781"/>
    </g>
   </g>
   <g id="legend_1">
    <g id="patch_8">
     <path d="M 11.6 432.048375 
L 594.703125 432.048375 
Q 599.103125 432.048375 599.103125 427.648375 
L 599.103125 397.5565 
Q 599.103125 393.1565 594.703125 393.1565 
L 11.6 393.1565 
Q 7.2 393.1565 7.2 397.5565 
L 7.2 427.648375 
Q 7.2 432.048375 11.6 432.048375 
z
" style="fill: #ffffff; opacity: 0.8; stroke: #cccccc; stroke-linejoin: miter"/>
    </g>
    <g id="line2d_16">
     <path d="M 16 410.973062 
L 38 410.973062 
L 60 410.973062 
" style="fill: none; stroke: #ff0000; stroke-width: 1.5; stroke-linecap: square"/>
    </g>
    <g id="text_16">
     <!-- model performance -->
     <g transform="translate(77.6 418.673062) scale(0.22 -0.22)">
      <defs>
       <path id="DejaVuSans-70" d="M 1159 525 
L 1159 -1331 
L 581 -1331 
L 581 3500 
L 1159 3500 
L 1159 2969 
Q 1341 3281 1617 3432 
Q 1894 3584 2278 3584 
Q 2916 3584 3314 3078 
Q 3713 2572 3713 1747 
Q 3713 922 3314 415 
Q 2916 -91 2278 -91 
Q 1894 -91 1617 61 
Q 1341 213 1159 525 
z
M 3116 1747 
Q 3116 2381 2855 2742 
Q 2594 3103 2138 3103 
Q 1681 3103 1420 2742 
Q 1159 2381 1159 1747 
Q 1159 1113 1420 752 
Q 1681 391 2138 391 
Q 2594 391 2855 752 
Q 3116 1113 3116 1747 
z
" transform="scale(0.015625)"/>
       <path id="DejaVuSans-66" d="M 2375 4863 
L 2375 4384 
L 1825 4384 
Q 1516 4384 1395 4259 
Q 1275 4134 1275 3809 
L 1275 3500 
L 2222 3500 
L 2222 3053 
L 1275 3053 
L 1275 0 
L 697 0 
L 697 3053 
L 147 3053 
L 147 3500 
L 697 3500 
L 697 3744 
Q 697 4328 969 4595 
Q 1241 4863 1831 4863 
L 2375 4863 
z
" transform="scale(0.015625)"/>
      </defs>
      <use xlink:href="#DejaVuSans-6d"/>
      <use xlink:href="#DejaVuSans-6f" x="97.412109"/>
      <use xlink:href="#DejaVuSans-64" x="158.59375"/>
      <use xlink:href="#DejaVuSans-65" x="222.070312"/>
      <use xlink:href="#DejaVuSans-6c" x="283.59375"/>
      <use xlink:href="#DejaVuSans-20" x="311.376953"/>
      <use xlink:href="#DejaVuSans-70" x="343.164062"/>
      <use xlink:href="#DejaVuSans-65" x="406.640625"/>
      <use xlink:href="#DejaVuSans-72" x="468.164062"/>
      <use xlink:href="#DejaVuSans-66" x="509.277344"/>
      <use xlink:href="#DejaVuSans-6f" x="544.482422"/>
      <use xlink:href="#DejaVuSans-72" x="605.664062"/>
      <use xlink:href="#DejaVuSans-6d" x="645.027344"/>
      <use xlink:href="#DejaVuSans-61" x="742.439453"/>
      <use xlink:href="#DejaVuSans-6e" x="803.71875"/>
      <use xlink:href="#DejaVuSans-63" x="867.097656"/>
      <use xlink:href="#DejaVuSans-65" x="922.078125"/>
     </g>
    </g>
    <g id="line2d_17">
     <path d="M 337.9975 410.973062 
L 359.9975 410.973062 
L 381.9975 410.973062 
" style="fill: none; stroke: #00bfbf; stroke-width: 1.5; stroke-linecap: square"/>
    </g>
    <g id="text_17">
     <!-- random guessing -->
     <g transform="translate(399.5975 418.673062) scale(0.22 -0.22)">
      <defs>
       <path id="DejaVuSans-67" d="M 2906 1791 
Q 2906 2416 2648 2759 
Q 2391 3103 1925 3103 
Q 1463 3103 1205 2759 
Q 947 2416 947 1791 
Q 947 1169 1205 825 
Q 1463 481 1925 481 
Q 2391 481 2648 825 
Q 2906 1169 2906 1791 
z
M 3481 434 
Q 3481 -459 3084 -895 
Q 2688 -1331 1869 -1331 
Q 1566 -1331 1297 -1286 
Q 1028 -1241 775 -1147 
L 775 -588 
Q 1028 -725 1275 -790 
Q 1522 -856 1778 -856 
Q 2344 -856 2625 -561 
Q 2906 -266 2906 331 
L 2906 616 
Q 2728 306 2450 153 
Q 2172 0 1784 0 
Q 1141 0 747 490 
Q 353 981 353 1791 
Q 353 2603 747 3093 
Q 1141 3584 1784 3584 
Q 2172 3584 2450 3431 
Q 2728 3278 2906 2969 
L 2906 3500 
L 3481 3500 
L 3481 434 
z
" transform="scale(0.015625)"/>
      </defs>
      <use xlink:href="#DejaVuSans-72"/>
      <use xlink:href="#DejaVuSans-61" x="41.113281"/>
      <use xlink:href="#DejaVuSans-6e" x="102.392578"/>
      <use xlink:href="#DejaVuSans-64" x="165.771484"/>
      <use xlink:href="#DejaVuSans-6f" x="229.248047"/>
      <use xlink:href="#DejaVuSans-6d" x="290.429688"/>
      <use xlink:href="#DejaVuSans-20" x="387.841797"/>
      <use xlink:href="#DejaVuSans-67" x="419.628906"/>
      <use xlink:href="#DejaVuSans-75" x="483.105469"/>
      <use xlink:href="#DejaVuSans-65" x="546.484375"/>
      <use xlink:href="#DejaVuSans-73" x="608.007812"/>
      <use xlink:href="#DejaVuSans-73" x="660.107422"/>
      <use xlink:href="#DejaVuSans-69" x="712.207031"/>
      <use xlink:href="#DejaVuSans-6e" x="739.990234"/>
      <use xlink:href="#DejaVuSans-67" x="803.369141"/>
     </g>
    </g>
   </g>
  </g>
 </g>
 <defs>
  <clipPath id="p396c639557">
   <rect x="124.591562" y="62.8221" width="357.12" height="266.112"/>
  </clipPath>
 </defs>
</svg>
