<?xml version="1.0" encoding="utf-8" standalone="no"?>
<!DOCTYPE svg PUBLIC "-//W3C//DTD SVG 1.1//EN"
  "http://www.w3.org/Graphics/SVG/1.1/DTD/svg11.dtd">
<svg xmlns:xlink="http://www.w3.org/1999/xlink" width="238.114192pt" height="476.122835pt" viewBox="0 0 238.114192 476.122835" xmlns="http://www.w3.org/2000/svg" version="1.1">
 <metadata>
  <rdf:RDF xmlns:dc="http://purl.org/dc/elements/1.1/" xmlns:cc="http://creativecommons.org/ns#" xmlns:rdf="http://www.w3.org/1999/02/22-rdf-syntax-ns#">
   <cc:Work>
    <dc:type rdf:resource="http://purl.org/dc/dcmitype/StillImage"/>
    <dc:date>2024-09-25T17:35:09.242895</dc:date>
    <dc:format>image/svg+xml</dc:format>
    <dc:creator>
     <cc:Agent>
      <dc:title>Matplotlib v3.7.0, https://matplotlib.org/</dc:title>
     </cc:Agent>
    </dc:creator>
   </cc:Work>
  </rdf:RDF>
 </metadata>
 <defs>
  <style type="text/css">*{stroke-linejoin: round; stroke-linecap: butt}</style>
 </defs>
 <g id="figure_1">
  <g id="patch_1">
   <path d="M 0 476.122835 
L 238.114192 476.122835 
L 238.114192 0 
L 0 0 
z
" style="fill: #ffffff"/>
  </g>
  <g id="axes_1">
   <g id="patch_2">
    <path d="M 29.722656 425.935744 
L 227.439192 425.935744 
L 227.439192 22.140469 
L 29.722656 22.140469 
z
" style="fill: #ffffff"/>
   </g>
   <g id="patch_3">
    <path d="M 227.439192 22.140469 
L 227.994441 34.859144 
L 226.166814 33.974055 
L 215.942365 122.033668 
L 215.749983 121.940501 
L 225.974432 33.880888 
L 224.146806 32.995798 
z
" clip-path="url(#p20cd556f03)" style="fill: #1f77b4; stroke: #000000; stroke-linejoin: miter"/>
   </g>
   <g id="matplotlib.axis_1">
    <g id="xtick_1">
     <g id="line2d_1">
      <defs>
       <path id="m8030e622f9" d="M 0 0 
L 0 3.5 
" style="stroke: #000000; stroke-width: 0.8"/>
      </defs>
      <g>
       <use xlink:href="#m8030e622f9" x="29.722656" y="425.935744" style="stroke: #000000; stroke-width: 0.8"/>
      </g>
     </g>
     <g id="text_1">
      <text style="font: 5px 'Arial'; text-anchor: middle" x="29.722656" y="436.514651" transform="rotate(-0 29.722656 436.514651)">0.0</text>
     </g>
    </g>
    <g id="xtick_2">
     <g id="line2d_2">
      <g>
       <use xlink:href="#m8030e622f9" x="69.265963" y="425.935744" style="stroke: #000000; stroke-width: 0.8"/>
      </g>
     </g>
     <g id="text_2">
      <text style="font: 5px 'Arial'; text-anchor: middle" x="69.265963" y="436.514651" transform="rotate(-0 69.265963 436.514651)">0.2</text>
     </g>
    </g>
    <g id="xtick_3">
     <g id="line2d_3">
      <g>
       <use xlink:href="#m8030e622f9" x="108.80927" y="425.935744" style="stroke: #000000; stroke-width: 0.8"/>
      </g>
     </g>
     <g id="text_3">
      <text style="font: 5px 'Arial'; text-anchor: middle" x="108.80927" y="436.514651" transform="rotate(-0 108.80927 436.514651)">0.4</text>
     </g>
    </g>
    <g id="xtick_4">
     <g id="line2d_4">
      <g>
       <use xlink:href="#m8030e622f9" x="148.352578" y="425.935744" style="stroke: #000000; stroke-width: 0.8"/>
      </g>
     </g>
     <g id="text_4">
      <text style="font: 5px 'Arial'; text-anchor: middle" x="148.352578" y="436.514651" transform="rotate(-0 148.352578 436.514651)">0.6</text>
     </g>
    </g>
    <g id="xtick_5">
     <g id="line2d_5">
      <g>
       <use xlink:href="#m8030e622f9" x="187.895885" y="425.935744" style="stroke: #000000; stroke-width: 0.8"/>
      </g>
     </g>
     <g id="text_5">
      <text style="font: 5px 'Arial'; text-anchor: middle" x="187.895885" y="436.514651" transform="rotate(-0 187.895885 436.514651)">0.8</text>
     </g>
    </g>
    <g id="xtick_6">
     <g id="line2d_6">
      <g>
       <use xlink:href="#m8030e622f9" x="227.439192" y="425.935744" style="stroke: #000000; stroke-width: 0.8"/>
      </g>
     </g>
     <g id="text_6">
      <text style="font: 5px 'Arial'; text-anchor: middle" x="227.439192" y="436.514651" transform="rotate(-0 227.439192 436.514651)">1.0</text>
     </g>
    </g>
    <g id="text_7">
     <text style="font: 5px 'Arial'; text-anchor: middle" x="128.580924" y="445.087307" transform="rotate(-0 128.580924 445.087307)">Recall</text>
    </g>
   </g>
   <g id="matplotlib.axis_2">
    <g id="ytick_1">
     <g id="line2d_7">
      <defs>
       <path id="m91fd4f4800" d="M 0 0 
L -3.5 0 
" style="stroke: #000000; stroke-width: 0.8"/>
      </defs>
      <g>
       <use xlink:href="#m91fd4f4800" x="29.722656" y="425.935744" style="stroke: #000000; stroke-width: 0.8"/>
      </g>
     </g>
     <g id="text_8">
      <text style="font: 5px 'Arial'; text-anchor: end" x="22.722656" y="427.725197" transform="rotate(-0 22.722656 427.725197)">0.0</text>
     </g>
    </g>
    <g id="ytick_2">
     <g id="line2d_8">
      <g>
       <use xlink:href="#m91fd4f4800" x="29.722656" y="345.176689" style="stroke: #000000; stroke-width: 0.8"/>
      </g>
     </g>
     <g id="text_9">
      <text style="font: 5px 'Arial'; text-anchor: end" x="22.722656" y="346.966142" transform="rotate(-0 22.722656 346.966142)">0.2</text>
     </g>
    </g>
    <g id="ytick_3">
     <g id="line2d_9">
      <g>
       <use xlink:href="#m91fd4f4800" x="29.722656" y="264.417634" style="stroke: #000000; stroke-width: 0.8"/>
      </g>
     </g>
     <g id="text_10">
      <text style="font: 5px 'Arial'; text-anchor: end" x="22.722656" y="266.207087" transform="rotate(-0 22.722656 266.207087)">0.4</text>
     </g>
    </g>
    <g id="ytick_4">
     <g id="line2d_10">
      <g>
       <use xlink:href="#m91fd4f4800" x="29.722656" y="183.658579" style="stroke: #000000; stroke-width: 0.8"/>
      </g>
     </g>
     <g id="text_11">
      <text style="font: 5px 'Arial'; text-anchor: end" x="22.722656" y="185.448032" transform="rotate(-0 22.722656 185.448032)">0.6</text>
     </g>
    </g>
    <g id="ytick_5">
     <g id="line2d_11">
      <g>
       <use xlink:href="#m91fd4f4800" x="29.722656" y="102.899524" style="stroke: #000000; stroke-width: 0.8"/>
      </g>
     </g>
     <g id="text_12">
      <text style="font: 5px 'Arial'; text-anchor: end" x="22.722656" y="104.688977" transform="rotate(-0 22.722656 104.688977)">0.8</text>
     </g>
    </g>
    <g id="ytick_6">
     <g id="line2d_12">
      <g>
       <use xlink:href="#m91fd4f4800" x="29.722656" y="22.140469" style="stroke: #000000; stroke-width: 0.8"/>
      </g>
     </g>
     <g id="text_13">
      <text style="font: 5px 'Arial'; text-anchor: end" x="22.722656" y="23.929922" transform="rotate(-0 22.722656 23.929922)">1.0</text>
     </g>
    </g>
    <g id="text_14">
     <text style="font: 5px 'Arial'; text-anchor: middle" x="10.778906" y="224.038107" transform="rotate(-90 10.778906 224.038107)">Precision</text>
    </g>
   </g>
   <g id="line2d_13">
    <path d="M 227.439192 152.715571 
L 227.439192 152.567001 
L 227.280383 152.637963 
L 227.280383 151.742883 
L 227.121575 151.813665 
L 227.121575 151.663871 
L 226.803958 151.805582 
L 226.803958 151.655538 
L 226.645149 151.726466 
L 226.645149 150.973558 
L 226.486341 151.044345 
L 226.486341 150.135112 
L 226.327532 150.205711 
L 226.327532 149.748699 
L 226.168724 149.81924 
L 226.168724 149.360575 
L 226.009916 149.431057 
L 226.009916 149.124341 
L 225.851107 149.194809 
L 225.851107 147.805702 
L 225.374682 148.016314 
L 225.374682 147.237829 
L 225.215873 147.30795 
L 225.215873 147.151681 
L 225.057065 147.221834 
L 225.057065 145.96495 
L 224.898256 146.034789 
L 224.898256 145.876831 
L 224.421831 146.086673 
L 224.421831 145.928387 
L 224.263022 145.998442 
L 224.263022 145.363304 
L 224.104214 145.433237 
L 224.104214 144.474801 
L 223.945406 144.544507 
L 223.945406 144.384078 
L 223.786597 144.453812 
L 223.786597 144.293149 
L 223.627789 144.362911 
L 223.627789 143.879662 
L 222.992555 144.158881 
L 222.992555 143.997219 
L 222.833746 144.067171 
L 222.833746 143.743184 
L 222.674938 143.813111 
L 222.674938 143.162684 
L 222.516129 143.232478 
L 222.516129 141.92215 
L 222.357321 141.991588 
L 222.357321 141.000509 
L 222.198512 141.069694 
L 222.198512 140.404896 
L 222.039704 140.473935 
L 222.039704 140.140257 
L 221.880896 140.209263 
L 221.880896 138.697482 
L 221.563279 138.834689 
L 221.563279 135.587713 
L 221.40447 135.655281 
L 221.40447 134.962074 
L 221.086853 135.096948 
L 221.086853 134.050137 
L 220.928045 134.11731 
L 220.928045 133.414979 
L 220.769236 133.481972 
L 220.769236 133.305795 
L 220.610428 133.372802 
L 220.610428 132.665701 
L 220.451619 132.732524 
L 220.451619 132.555148 
L 220.292811 132.621985 
L 220.292811 132.266453 
L 220.134002 132.333236 
L 220.134002 131.798116 
L 219.816385 131.93152 
L 219.816385 129.40633 
L 219.498769 129.538107 
L 219.498769 129.355932 
L 219.181152 129.48789 
L 219.181152 129.305348 
L 219.022343 129.371377 
L 219.022343 129.188538 
L 218.863535 129.254576 
L 218.863535 129.07144 
L 218.704726 129.137487 
L 218.704726 127.663629 
L 218.545918 127.729171 
L 218.545918 126.052807 
L 218.228301 126.182779 
L 218.228301 125.995199 
L 218.069492 126.06023 
L 218.069492 125.68421 
L 217.910684 125.749169 
L 217.910684 125.183135 
L 217.751875 125.247942 
L 217.751875 125.058711 
L 217.27545 125.253386 
L 217.27545 124.873736 
L 217.116642 124.938634 
L 217.116642 124.367121 
L 216.957833 124.431862 
L 216.957833 124.240795 
L 216.640216 124.370364 
L 216.640216 123.795223 
L 216.481408 123.859889 
L 216.481408 123.667607 
L 216.163791 123.797023 
L 216.163791 122.831107 
L 215.846174 122.960032 
L 215.846174 121.987085 
L 215.528557 122.115505 
L 215.528557 121.724236 
L 215.052132 121.916979 
L 215.052132 121.720711 
L 214.893323 121.785039 
L 214.893323 121.588433 
L 214.258089 121.846237 
L 214.258089 120.65916 
L 213.781664 120.85183 
L 213.781664 120.652819 
L 213.622855 120.717122 
L 213.622855 119.918121 
L 212.987622 120.174755 
L 212.987622 119.571676 
L 212.670005 119.699959 
L 212.670005 119.093952 
L 212.193579 119.286193 
L 212.193579 119.083382 
L 212.034771 119.14754 
L 212.034771 118.944369 
L 211.875962 119.00852 
L 211.875962 118.804988 
L 211.399537 118.997674 
L 211.399537 118.793593 
L 211.240729 118.8579 
L 211.240729 118.448736 
L 210.605495 118.706072 
L 210.605495 118.500705 
L 210.446686 118.56516 
L 210.446686 117.740557 
L 210.129069 117.868966 
L 210.129069 117.454619 
L 209.493835 117.711704 
L 209.493835 117.503725 
L 209.335027 117.568117 
L 209.335027 117.151122 
L 209.01741 117.279775 
L 209.01741 117.070659 
L 208.699793 117.199465 
L 208.699793 116.989868 
L 208.540985 117.054304 
L 208.540985 116.844323 
L 208.223368 116.97326 
L 208.223368 116.552043 
L 207.905751 116.680933 
L 207.905751 116.469693 
L 207.746942 116.53417 
L 207.746942 116.110622 
L 207.588134 116.174985 
L 207.588134 115.750073 
L 207.270517 115.878658 
L 207.270517 115.66556 
L 206.635283 115.923383 
L 206.635283 115.709581 
L 206.476475 115.774156 
L 206.476475 115.559956 
L 206.317666 115.624517 
L 206.317666 115.409917 
L 206.000049 115.539099 
L 206.000049 114.676886 
L 205.841241 114.741192 
L 205.841241 114.524784 
L 205.682432 114.589074 
L 205.682432 113.50197 
L 204.253156 114.079801 
L 204.253156 113.200714 
L 204.094348 113.264932 
L 204.094348 113.044275 
L 203.617922 113.23714 
L 203.617922 113.015839 
L 203.459114 113.080198 
L 203.459114 112.191404 
L 203.300305 112.255406 
L 203.300305 111.585149 
L 202.665072 111.840705 
L 202.665072 111.616191 
L 202.347455 111.744288 
L 202.347455 110.842087 
L 201.712221 111.097527 
L 201.712221 110.870699 
L 201.553412 110.934671 
L 201.553412 110.479796 
L 200.75937 110.799866 
L 200.75937 110.571341 
L 200.282945 110.764141 
L 200.282945 110.534925 
L 199.965328 110.663686 
L 199.965328 109.97331 
L 199.806519 110.037468 
L 199.806519 109.806548 
L 199.647711 109.870679 
L 199.647711 109.639299 
L 199.488902 109.7034 
L 199.488902 109.471558 
L 199.330094 109.535631 
L 199.330094 109.303326 
L 199.171285 109.367369 
L 199.171285 108.200081 
L 198.218435 108.582568 
L 198.218435 106.690746 
L 197.900818 106.816941 
L 197.900818 106.339932 
L 197.424392 106.529144 
L 197.424392 106.289709 
L 196.947967 106.479377 
L 196.947967 106.239184 
L 196.471542 106.429309 
L 196.471542 106.188354 
L 196.153925 106.315315 
L 196.153925 105.346768 
L 195.995116 105.409851 
L 195.995116 103.699728 
L 195.836308 103.761939 
L 195.836308 103.269695 
L 195.201074 103.518367 
L 195.201074 103.023483 
L 194.883457 103.147822 
L 194.883457 102.899524 
L 194.724648 102.961694 
L 194.724648 102.71287 
L 194.56584 102.774992 
L 194.56584 102.525639 
L 194.407032 102.587713 
L 194.407032 102.33783 
L 194.089415 102.461975 
L 194.089415 102.211414 
L 193.930606 102.273485 
L 193.930606 101.770904 
L 193.771798 101.832776 
L 193.771798 101.075527 
L 193.612989 101.13705 
L 193.612989 100.883697 
L 193.295372 101.006734 
L 193.295372 99.988147 
L 193.136564 100.049204 
L 193.136564 99.793406 
L 192.977755 99.854406 
L 192.977755 99.598053 
L 192.660138 99.720034 
L 192.660138 99.205498 
L 192.342522 99.327243 
L 192.342522 99.069055 
L 192.183713 99.129916 
L 192.183713 98.871162 
L 192.024905 98.931963 
L 192.024905 97.892206 
L 191.866096 97.95247 
L 191.866096 96.905436 
L 191.707288 96.965152 
L 191.707288 96.702186 
L 191.389671 96.821581 
L 191.389671 95.498774 
L 190.913245 95.676111 
L 190.913245 95.409773 
L 190.754437 95.468909 
L 190.754437 95.201973 
L 190.43682 95.320195 
L 190.43682 95.05249 
L 190.278012 95.111576 
L 190.278012 94.843268 
L 190.119203 94.90228 
L 190.119203 94.364014 
L 189.642778 94.5406 
L 189.642778 93.999546 
L 189.483969 94.058255 
L 189.483969 93.786891 
L 189.325161 93.845522 
L 189.325161 91.657118 
L 189.007544 91.771832 
L 189.007544 91.219495 
L 188.531118 91.391191 
L 188.531118 91.113791 
L 188.054693 91.285794 
L 188.054693 91.007383 
L 187.895885 91.064725 
L 187.895885 90.22615 
L 187.737076 90.28303 
L 187.737076 89.157623 
L 187.419459 89.270162 
L 187.419459 88.703862 
L 187.260651 88.759891 
L 187.260651 88.191298 
L 187.101842 88.247037 
L 187.101842 87.961827 
L 186.784225 88.0732 
L 186.784225 87.500551 
L 186.625417 87.555988 
L 186.625417 86.981002 
L 186.466608 87.036138 
L 186.466608 86.747713 
L 186.3078 86.802745 
L 186.3078 86.513629 
L 185.990183 86.623574 
L 185.990183 86.333564 
L 185.831375 86.388477 
L 185.831375 85.514856 
L 185.513758 85.623747 
L 185.513758 85.038012 
L 185.037332 85.200818 
L 185.037332 84.906574 
L 183.449248 85.453317 
L 183.449248 85.156471 
L 182.972822 85.321723 
L 182.972822 85.023723 
L 182.019971 85.35556 
L 182.019971 84.153159 
L 181.384738 84.372867 
L 181.384738 84.070063 
L 180.908312 84.235209 
L 180.908312 83.931205 
L 180.749504 83.986228 
L 180.749504 83.68146 
L 180.273078 83.846449 
L 180.273078 83.540466 
L 180.11427 83.595435 
L 180.11427 83.288678 
L 179.320228 83.563873 
L 179.320228 83.255429 
L 178.843802 83.421053 
L 178.843802 83.111365 
L 178.367377 83.277197 
L 178.367377 82.966254 
L 177.096909 83.41105 
L 177.096909 82.783715 
L 176.779292 82.894987 
L 176.779292 82.264398 
L 176.620484 82.319709 
L 176.620484 82.003304 
L 175.508825 82.391664 
L 175.508825 82.072977 
L 175.350016 82.128625 
L 175.350016 81.488984 
L 174.714782 81.71064 
L 174.714782 81.388934 
L 174.238357 81.555519 
L 174.238357 81.23246 
L 172.332655 81.905234 
L 172.332655 81.57852 
L 172.173847 81.63502 
L 172.173847 81.307426 
L 171.538613 81.53347 
L 171.538613 80.543808 
L 171.062188 80.712118 
L 171.062188 80.380172 
L 170.903379 80.436226 
L 170.903379 79.769881 
L 170.744571 79.825508 
L 170.744571 79.156049 
L 170.585762 79.211243 
L 170.585762 78.87527 
L 170.268145 78.985435 
L 170.268145 78.648262 
L 169.950528 78.758307 
L 169.950528 78.080887 
L 169.632911 78.190253 
L 169.632911 77.509067 
L 169.315295 77.617739 
L 169.315295 77.27558 
L 168.997678 77.384114 
L 168.997678 76.696635 
L 168.044827 77.021374 
L 168.044827 76.674885 
L 167.886018 76.729094 
L 167.886018 76.381625 
L 167.72721 76.43565 
L 167.72721 76.087195 
L 167.568401 76.141035 
L 167.568401 75.441445 
L 167.250785 75.548261 
L 167.250785 75.196819 
L 167.091976 75.250088 
L 167.091976 74.544483 
L 166.615551 74.703123 
L 166.615551 73.992845 
L 166.297934 74.097916 
L 166.297934 73.741082 
L 166.139125 73.793468 
L 166.139125 71.273023 
L 165.821508 71.373704 
L 165.821508 70.280502 
L 165.186275 70.479222 
L 165.186275 70.112015 
L 165.027466 70.161624 
L 165.027466 69.054443 
L 164.709849 69.151977 
L 164.709849 67.662274 
L 164.392232 67.757508 
L 164.392232 67.382453 
L 164.233424 67.429876 
L 164.233424 67.053689 
L 164.074615 67.100867 
L 164.074615 66.345425 
L 163.915807 66.392006 
L 163.915807 66.01274 
L 163.756998 66.059068 
L 163.756998 65.678649 
L 163.439381 65.77089 
L 163.439381 65.388955 
L 163.121764 65.480876 
L 163.121764 65.097413 
L 160.739638 65.794012 
L 160.739638 65.01364 
L 160.580829 65.06014 
L 160.580829 64.275628 
L 160.422021 64.321477 
L 160.422021 63.927562 
L 159.945595 64.064568 
L 159.945595 63.668648 
L 159.786787 63.714133 
L 159.786787 62.918916 
L 159.627978 62.963727 
L 159.627978 62.564418 
L 159.310361 62.653556 
L 159.310361 62.252582 
L 159.151553 62.296905 
L 159.151553 61.89465 
L 156.928234 62.519996 
L 156.928234 62.111205 
L 155.657767 62.474163 
L 155.657767 62.061138 
L 154.863724 62.289256 
L 154.863724 61.873185 
L 153.752065 62.193979 
L 153.752065 61.352958 
L 153.434448 61.443833 
L 153.434448 60.597162 
L 152.640406 60.821792 
L 152.640406 60.394758 
L 151.528747 60.710536 
L 151.528747 59.84712 
L 151.21113 59.936472 
L 151.21113 59.502309 
L 150.734704 59.635744 
L 150.734704 59.199153 
L 149.464237 59.555915 
L 149.464237 59.114494 
L 148.193769 59.474339 
L 148.193769 59.027979 
L 148.034961 59.072963 
L 148.034961 58.625024 
L 147.08211 58.894282 
L 147.08211 58.442261 
L 146.605684 58.576878 
L 146.605684 58.122226 
L 144.699983 58.664665 
L 144.699983 57.739548 
L 144.382366 57.829445 
L 144.382366 57.364077 
L 144.223557 57.408664 
L 144.223557 56.941582 
L 144.064749 56.985746 
L 144.064749 56.516941 
L 143.588324 56.648483 
L 143.588324 56.176852 
L 143.270707 56.264013 
L 143.270707 55.790075 
L 142.794281 55.919996 
L 142.794281 55.443172 
L 142.635473 55.486143 
L 142.635473 55.007526 
L 142.476664 55.050045 
L 142.476664 54.569623 
L 142.317856 54.611684 
L 142.317856 53.645952 
L 141.523814 53.85214 
L 141.523814 53.364481 
L 141.206197 53.446541 
L 141.206197 52.956424 
L 140.570963 53.119471 
L 140.570963 52.130569 
L 140.253346 52.21033 
L 140.253346 51.712693 
L 139.459304 51.910898 
L 139.459304 51.408851 
L 138.506453 51.646483 
L 138.506453 51.139316 
L 138.030027 51.257679 
L 138.030027 50.747219 
L 137.871219 50.786245 
L 137.871219 49.244535 
L 137.077177 49.43146 
L 137.077177 48.911426 
L 135.806709 49.210543 
L 135.806709 48.683655 
L 134.69505 48.946087 
L 134.69505 48.412863 
L 133.901007 48.599988 
L 133.901007 48.061706 
L 132.471731 48.398832 
L 132.471731 47.304522 
L 131.836497 47.451251 
L 131.836497 46.898719 
L 130.56603 47.191283 
L 130.56603 46.631011 
L 129.930796 46.776788 
L 129.930796 46.211722 
L 129.613179 46.283684 
L 129.613179 45.715343 
L 128.819137 45.893132 
L 128.819137 45.31905 
L 126.913435 45.746962 
L 126.913435 44.57354 
L 125.960584 44.783194 
L 125.960584 44.188573 
L 125.484159 44.292247 
L 125.484159 43.693121 
L 123.419649 44.142134 
L 123.419649 43.529304 
L 122.784415 43.667519 
L 122.784415 42.4284 
L 122.466798 42.494377 
L 122.466798 41.243345 
L 121.990373 41.337293 
L 121.990373 40.705769 
L 119.608246 41.174589 
L 119.608246 40.525751 
L 118.020161 40.841108 
L 118.020161 39.515481 
L 115.796843 39.944493 
L 115.796843 39.26253 
L 113.732333 39.665038 
L 113.732333 38.965272 
L 113.255907 39.057211 
L 113.255907 37.642664 
L 112.461865 37.785673 
L 112.461865 37.068205 
L 110.556164 37.406831 
L 110.556164 36.670981 
L 108.174037 37.095849 
L 108.174037 36.336396 
L 101.821698 37.539441 
L 101.821698 36.714821 
L 101.186464 36.839654 
L 101.186464 36.004684 
L 99.915997 36.246854 
L 99.915997 35.394143 
L 96.898636 35.969074 
L 96.898636 35.076702 
L 90.705106 36.344323 
L 85.464426 37.628507 
L 85.464426 36.561729 
L 81.335406 37.671056 
L 81.335406 36.518936 
L 79.747322 36.958644 
L 79.747322 35.765463 
L 77.206386 36.468688 
L 77.206386 35.208277 
L 75.141876 35.782201 
L 75.141876 34.459647 
L 73.077366 35.027552 
L 73.077366 33.63642 
L 71.965707 33.930112 
L 71.965707 32.494194 
L 68.154304 33.492143 
L 68.154304 31.909709 
L 64.501709 32.908343 
L 64.501709 31.153756 
L 60.690306 32.235351 
L 57.514137 33.357004 
L 54.655585 34.603286 
L 52.273458 35.875002 
L 50.050139 37.320742 
L 48.144438 38.826224 
L 46.397545 40.494799 
L 44.80946 42.330233 
L 43.380184 44.327022 
L 42.109716 46.465485 
L 40.839249 49.060154 
L 39.727589 51.831298 
L 38.61593 55.238442 
L 37.663079 58.84913 
L 36.710229 63.344068 
L 35.757378 69.093408 
L 34.963336 75.271426 
L 34.169293 83.321571 
L 33.534059 91.760344 
L 32.898825 102.899524 
L 32.263592 118.282201 
L 32.104783 123.089288 
L 32.104783 107.15 
L 31.628358 123.089288 
L 31.151932 146.385169 
L 30.993124 156.738894 
L 30.993124 132.266453 
L 30.834315 143.279051 
L 30.834315 72.614878 
L 30.516699 89.439681 
L 30.199082 123.089288 
L 30.040273 156.738894 
L 29.881465 224.038107 
L 29.881465 22.140469 
L 29.722656 22.140469 
L 29.722656 22.140469 
" clip-path="url(#p20cd556f03)" style="fill: none; stroke: #ff0000; stroke-width: 1.5; stroke-linecap: square"/>
   </g>
   <g id="line2d_14">
    <defs>
     <path id="m6865b73daf" d="M 0 3 
C 0.795609 3 1.55874 2.683901 2.12132 2.12132 
C 2.683901 1.55874 3 0.795609 3 0 
C 3 -0.795609 2.683901 -1.55874 2.12132 -2.12132 
C 1.55874 -2.683901 0.795609 -3 0 -3 
C -0.795609 -3 -1.55874 -2.683901 -2.12132 -2.12132 
C -2.683901 -1.55874 -3 -0.795609 -3 0 
C -3 0.795609 -2.683901 1.55874 -2.12132 2.12132 
C -1.55874 2.683901 -0.795609 3 0 3 
z
" style="stroke: #000000"/>
    </defs>
    <g clip-path="url(#p20cd556f03)">
     <use xlink:href="#m6865b73daf" x="215.846174" y="121.987085" style="fill: #ff0000; stroke: #000000"/>
    </g>
   </g>
   <g id="line2d_15">
    <path d="M 29.722656 152.715571 
L 227.439192 152.715571 
" clip-path="url(#p20cd556f03)" style="fill: none; stroke: #00bfbf; stroke-width: 1.5; stroke-linecap: square"/>
   </g>
   <g id="patch_4">
    <path d="M 29.722656 425.935744 
L 29.722656 22.140469 
" style="fill: none; stroke: #000000; stroke-width: 0.8; stroke-linejoin: miter; stroke-linecap: square"/>
   </g>
   <g id="patch_5">
    <path d="M 227.439192 425.935744 
L 227.439192 22.140469 
" style="fill: none; stroke: #000000; stroke-width: 0.8; stroke-linejoin: miter; stroke-linecap: square"/>
   </g>
   <g id="patch_6">
    <path d="M 29.722656 425.935744 
L 227.439192 425.935744 
" style="fill: none; stroke: #000000; stroke-width: 0.8; stroke-linejoin: miter; stroke-linecap: square"/>
   </g>
   <g id="patch_7">
    <path d="M 29.722656 22.140469 
L 227.439192 22.140469 
" style="fill: none; stroke: #000000; stroke-width: 0.8; stroke-linejoin: miter; stroke-linecap: square"/>
   </g>
   <g id="text_15">
    <text style="font: 5px 'Arial'" transform="translate(117.786393 10.778906)">SP model</text>
    <text style="font: 5px 'Arial'" transform="translate(96.49108 16.140469)">Precision - Recall (PR) curve</text>
   </g>
   <g id="legend_1">
    <g id="patch_8">
     <path d="M 67.867643 468.922835 
L 189.294205 468.922835 
Q 190.294205 468.922835 190.294205 467.922835 
L 190.294205 461.230648 
Q 190.294205 460.230648 189.294205 460.230648 
L 67.867643 460.230648 
Q 66.867643 460.230648 66.867643 461.230648 
L 66.867643 467.922835 
Q 66.867643 468.922835 67.867643 468.922835 
z
" style="fill: #ffffff; opacity: 0.8; stroke: #cccccc; stroke-linejoin: miter"/>
    </g>
    <g id="line2d_16">
     <path d="M 68.867643 464.120492 
L 73.867643 464.120492 
L 78.867643 464.120492 
" style="fill: none; stroke: #ff0000; stroke-width: 1.5; stroke-linecap: square"/>
    </g>
    <g id="text_16">
     <text style="font: 5px 'Arial'; text-anchor: start" x="82.867643" y="465.870492" transform="rotate(-0 82.867643 465.870492)">model performance</text>
    </g>
    <g id="line2d_17">
     <path d="M 135.940299 464.120492 
L 140.940299 464.120492 
L 145.940299 464.120492 
" style="fill: none; stroke: #00bfbf; stroke-width: 1.5; stroke-linecap: square"/>
    </g>
    <g id="text_17">
     <text style="font: 5px 'Arial'; text-anchor: start" x="149.940299" y="465.870492" transform="rotate(-0 149.940299 465.870492)">random guessing</text>
    </g>
   </g>
  </g>
 </g>
 <defs>
  <clipPath id="p20cd556f03">
   <rect x="29.722656" y="22.140469" width="197.716535" height="403.795276"/>
  </clipPath>
 </defs>
</svg>
