<?xml version="1.0" encoding="utf-8" standalone="no"?>
<!DOCTYPE svg PUBLIC "-//W3C//DTD SVG 1.1//EN"
  "http://www.w3.org/Graphics/SVG/1.1/DTD/svg11.dtd">
<svg xmlns:xlink="http://www.w3.org/1999/xlink" width="238.114192pt" height="462.97182pt" viewBox="0 0 238.114192 462.97182" xmlns="http://www.w3.org/2000/svg" version="1.1">
 <metadata>
  <rdf:RDF xmlns:dc="http://purl.org/dc/elements/1.1/" xmlns:cc="http://creativecommons.org/ns#" xmlns:rdf="http://www.w3.org/1999/02/22-rdf-syntax-ns#">
   <cc:Work>
    <dc:type rdf:resource="http://purl.org/dc/dcmitype/StillImage"/>
    <dc:date>2024-09-25T14:38:16.306612</dc:date>
    <dc:format>image/svg+xml</dc:format>
    <dc:creator>
     <cc:Agent>
      <dc:title>Matplotlib v3.7.0, https://matplotlib.org/</dc:title>
     </cc:Agent>
    </dc:creator>
   </cc:Work>
  </rdf:RDF>
 </metadata>
 <defs>
  <style type="text/css">*{stroke-linejoin: round; stroke-linecap: butt}</style>
 </defs>
 <g id="figure_1">
  <g id="patch_1">
   <path d="M 0 462.97182 
L 238.114192 462.97182 
L 238.114192 0 
L 0 0 
z
" style="fill: #ffffff"/>
  </g>
  <g id="axes_1">
   <g id="patch_2">
    <path d="M 29.722656 412.784729 
L 227.439192 412.784729 
L 227.439192 8.989453 
L 29.722656 8.989453 
z
" style="fill: #ffffff"/>
   </g>
   <g id="patch_3">
    <path d="M 29.722656 8.989453 
L 34.254843 17.785818 
L 32.596761 19.58814 
L 63.704187 138.95235 
L 63.529652 139.142068 
L 32.422226 19.777858 
L 30.764145 21.580179 
z
" clip-path="url(#pf82a6ab5cb)" style="fill: #1f77b4; stroke: #000000; stroke-linejoin: miter"/>
   </g>
   <g id="matplotlib.axis_1">
    <g id="xtick_1">
     <g id="line2d_1">
      <defs>
       <path id="m6fe987a7f6" d="M 0 0 
L 0 3.5 
" style="stroke: #000000; stroke-width: 0.8"/>
      </defs>
      <g>
       <use xlink:href="#m6fe987a7f6" x="29.722656" y="412.784729" style="stroke: #000000; stroke-width: 0.8"/>
      </g>
     </g>
     <g id="text_1">
      <text style="font: 5px 'Arial'; text-anchor: middle" x="29.722656" y="423.363635" transform="rotate(-0 29.722656 423.363635)">0.0</text>
     </g>
    </g>
    <g id="xtick_2">
     <g id="line2d_2">
      <g>
       <use xlink:href="#m6fe987a7f6" x="69.265963" y="412.784729" style="stroke: #000000; stroke-width: 0.8"/>
      </g>
     </g>
     <g id="text_2">
      <text style="font: 5px 'Arial'; text-anchor: middle" x="69.265963" y="423.363635" transform="rotate(-0 69.265963 423.363635)">0.2</text>
     </g>
    </g>
    <g id="xtick_3">
     <g id="line2d_3">
      <g>
       <use xlink:href="#m6fe987a7f6" x="108.80927" y="412.784729" style="stroke: #000000; stroke-width: 0.8"/>
      </g>
     </g>
     <g id="text_3">
      <text style="font: 5px 'Arial'; text-anchor: middle" x="108.80927" y="423.363635" transform="rotate(-0 108.80927 423.363635)">0.4</text>
     </g>
    </g>
    <g id="xtick_4">
     <g id="line2d_4">
      <g>
       <use xlink:href="#m6fe987a7f6" x="148.352578" y="412.784729" style="stroke: #000000; stroke-width: 0.8"/>
      </g>
     </g>
     <g id="text_4">
      <text style="font: 5px 'Arial'; text-anchor: middle" x="148.352578" y="423.363635" transform="rotate(-0 148.352578 423.363635)">0.6</text>
     </g>
    </g>
    <g id="xtick_5">
     <g id="line2d_5">
      <g>
       <use xlink:href="#m6fe987a7f6" x="187.895885" y="412.784729" style="stroke: #000000; stroke-width: 0.8"/>
      </g>
     </g>
     <g id="text_5">
      <text style="font: 5px 'Arial'; text-anchor: middle" x="187.895885" y="423.363635" transform="rotate(-0 187.895885 423.363635)">0.8</text>
     </g>
    </g>
    <g id="xtick_6">
     <g id="line2d_6">
      <g>
       <use xlink:href="#m6fe987a7f6" x="227.439192" y="412.784729" style="stroke: #000000; stroke-width: 0.8"/>
      </g>
     </g>
     <g id="text_6">
      <text style="font: 5px 'Arial'; text-anchor: middle" x="227.439192" y="423.363635" transform="rotate(-0 227.439192 423.363635)">1.0</text>
     </g>
    </g>
    <g id="text_7">
     <text style="font: 5px 'Arial'; text-anchor: middle" x="128.580924" y="431.936291" transform="rotate(-0 128.580924 431.936291)">FPR</text>
    </g>
   </g>
   <g id="matplotlib.axis_2">
    <g id="ytick_1">
     <g id="line2d_7">
      <defs>
       <path id="mfa51a9687a" d="M 0 0 
L -3.5 0 
" style="stroke: #000000; stroke-width: 0.8"/>
      </defs>
      <g>
       <use xlink:href="#mfa51a9687a" x="29.722656" y="412.784729" style="stroke: #000000; stroke-width: 0.8"/>
      </g>
     </g>
     <g id="text_8">
      <text style="font: 5px 'Arial'; text-anchor: end" x="22.722656" y="414.574182" transform="rotate(-0 22.722656 414.574182)">0.0</text>
     </g>
    </g>
    <g id="ytick_2">
     <g id="line2d_8">
      <g>
       <use xlink:href="#mfa51a9687a" x="29.722656" y="332.025674" style="stroke: #000000; stroke-width: 0.8"/>
      </g>
     </g>
     <g id="text_9">
      <text style="font: 5px 'Arial'; text-anchor: end" x="22.722656" y="333.815127" transform="rotate(-0 22.722656 333.815127)">0.2</text>
     </g>
    </g>
    <g id="ytick_3">
     <g id="line2d_9">
      <g>
       <use xlink:href="#mfa51a9687a" x="29.722656" y="251.266618" style="stroke: #000000; stroke-width: 0.8"/>
      </g>
     </g>
     <g id="text_10">
      <text style="font: 5px 'Arial'; text-anchor: end" x="22.722656" y="253.056072" transform="rotate(-0 22.722656 253.056072)">0.4</text>
     </g>
    </g>
    <g id="ytick_4">
     <g id="line2d_10">
      <g>
       <use xlink:href="#mfa51a9687a" x="29.722656" y="170.507563" style="stroke: #000000; stroke-width: 0.8"/>
      </g>
     </g>
     <g id="text_11">
      <text style="font: 5px 'Arial'; text-anchor: end" x="22.722656" y="172.297016" transform="rotate(-0 22.722656 172.297016)">0.6</text>
     </g>
    </g>
    <g id="ytick_5">
     <g id="line2d_11">
      <g>
       <use xlink:href="#mfa51a9687a" x="29.722656" y="89.748508" style="stroke: #000000; stroke-width: 0.8"/>
      </g>
     </g>
     <g id="text_12">
      <text style="font: 5px 'Arial'; text-anchor: end" x="22.722656" y="91.537961" transform="rotate(-0 22.722656 91.537961)">0.8</text>
     </g>
    </g>
    <g id="ytick_6">
     <g id="line2d_12">
      <g>
       <use xlink:href="#mfa51a9687a" x="29.722656" y="8.989453" style="stroke: #000000; stroke-width: 0.8"/>
      </g>
     </g>
     <g id="text_13">
      <text style="font: 5px 'Arial'; text-anchor: end" x="22.722656" y="10.778906" transform="rotate(-0 22.722656 10.778906)">1.0</text>
     </g>
    </g>
    <g id="text_14">
     <text style="font: 5px 'Arial'; text-anchor: middle" x="10.778906" y="210.887091" transform="rotate(-90 10.778906 210.887091)">TPR</text>
    </g>
   </g>
   <g id="line2d_13">
    <path d="M 29.722656 412.784729 
L 29.722656 412.460395 
L 30.054953 412.460395 
L 30.054953 410.514394 
L 30.719546 410.514394 
L 30.719546 410.19006 
L 31.051843 410.19006 
L 31.051843 407.919725 
L 31.38414 407.919725 
L 31.38414 341.75568 
L 31.716436 341.75568 
L 31.716436 334.296008 
L 32.048733 334.296008 
L 32.048733 326.512003 
L 32.38103 326.512003 
L 32.38103 324.241668 
L 32.713327 324.241668 
L 32.713327 320.025332 
L 33.045623 320.025332 
L 33.045623 315.808996 
L 33.37792 315.808996 
L 33.37792 310.619659 
L 33.710217 310.619659 
L 33.710217 307.376323 
L 34.042513 307.376323 
L 34.042513 298.943651 
L 34.37481 298.943651 
L 34.37481 275.591635 
L 34.707107 275.591635 
L 34.707107 269.429298 
L 35.039403 269.429298 
L 35.039403 266.834629 
L 35.3717 266.834629 
L 35.3717 265.537295 
L 35.703997 265.537295 
L 35.703997 252.563953 
L 36.036294 252.563953 
L 36.036294 247.698949 
L 36.36859 247.698949 
L 36.36859 243.806947 
L 36.700887 243.806947 
L 36.700887 242.185279 
L 37.36548 242.185279 
L 37.36548 241.212278 
L 37.697777 241.212278 
L 37.697777 236.995942 
L 38.030074 236.995942 
L 38.030074 232.455272 
L 38.694667 232.455272 
L 38.694667 229.211937 
L 39.026964 229.211937 
L 39.026964 224.346933 
L 39.35926 224.346933 
L 39.35926 223.373933 
L 40.023854 223.373933 
L 40.023854 222.725266 
L 40.688447 222.725266 
L 40.688447 221.427931 
L 41.020744 221.427931 
L 41.020744 217.211595 
L 41.353041 217.211595 
L 41.353041 216.238595 
L 41.685337 216.238595 
L 41.685337 214.292593 
L 42.349931 214.292593 
L 42.349931 210.400591 
L 42.682227 210.400591 
L 42.682227 208.778923 
L 43.014524 208.778923 
L 43.014524 208.130256 
L 43.346821 208.130256 
L 43.346821 206.832921 
L 43.679118 206.832921 
L 43.679118 204.238253 
L 44.011414 204.238253 
L 44.011414 202.940919 
L 44.676008 202.940919 
L 44.676008 200.021917 
L 45.008304 200.021917 
L 45.008304 198.400249 
L 45.340601 198.400249 
L 45.340601 196.129914 
L 45.672898 196.129914 
L 45.672898 193.535246 
L 46.005194 193.535246 
L 46.005194 191.913578 
L 47.002085 191.913578 
L 47.002085 191.589244 
L 47.334381 191.589244 
L 47.334381 190.616244 
L 47.666678 190.616244 
L 47.666678 188.670242 
L 47.998975 188.670242 
L 47.998975 187.048575 
L 48.331271 187.048575 
L 48.331271 186.399908 
L 48.995865 186.399908 
L 48.995865 185.102573 
L 49.328161 185.102573 
L 49.328161 184.453906 
L 49.660458 184.453906 
L 49.660458 182.832238 
L 50.325052 182.832238 
L 50.325052 182.507905 
L 50.657348 182.507905 
L 50.657348 182.183571 
L 50.989645 182.183571 
L 50.989645 181.859238 
L 51.321942 181.859238 
L 51.321942 180.886237 
L 51.654238 180.886237 
L 51.654238 180.23757 
L 51.986535 180.23757 
L 51.986535 179.264569 
L 52.318832 179.264569 
L 52.318832 178.940236 
L 52.651128 178.940236 
L 52.651128 178.615902 
L 52.983425 178.615902 
L 52.983425 177.967235 
L 53.648019 177.967235 
L 53.648019 174.075232 
L 53.980315 174.075232 
L 53.980315 173.102232 
L 54.312612 173.102232 
L 54.312612 171.15623 
L 54.644909 171.15623 
L 54.644909 170.831897 
L 54.977205 170.831897 
L 54.977205 168.237228 
L 55.309502 168.237228 
L 55.309502 165.64256 
L 55.641799 165.64256 
L 55.641799 164.669559 
L 55.974095 164.669559 
L 55.974095 164.020892 
L 56.638689 164.020892 
L 56.638689 161.750557 
L 56.970986 161.750557 
L 56.970986 160.12889 
L 57.635579 160.12889 
L 57.635579 159.480223 
L 58.300172 159.480223 
L 58.300172 157.209888 
L 58.632469 157.209888 
L 58.632469 155.58822 
L 58.964766 155.58822 
L 58.964766 152.993551 
L 59.297062 152.993551 
L 59.297062 148.452882 
L 59.629359 148.452882 
L 59.629359 148.128548 
L 59.961656 148.128548 
L 59.961656 147.479881 
L 60.293952 147.479881 
L 60.293952 147.155547 
L 60.958546 147.155547 
L 60.958546 146.831214 
L 61.290843 146.831214 
L 61.290843 145.858213 
L 61.623139 145.858213 
L 61.623139 145.53388 
L 62.287733 145.53388 
L 62.287733 145.209546 
L 62.952326 145.209546 
L 62.952326 140.344543 
L 63.284623 140.344543 
L 63.284623 139.695876 
L 63.616919 139.695876 
L 63.616919 139.047209 
L 63.949216 139.047209 
L 63.949216 138.722875 
L 64.281513 138.722875 
L 64.281513 138.398541 
L 64.946106 138.398541 
L 64.946106 138.074208 
L 65.278403 138.074208 
L 65.278403 137.749874 
L 65.6107 137.749874 
L 65.6107 137.101207 
L 66.939886 137.101207 
L 66.939886 136.45254 
L 67.936777 136.45254 
L 67.936777 136.128207 
L 68.269073 136.128207 
L 68.269073 134.830872 
L 69.265963 134.830872 
L 69.265963 134.182205 
L 71.59204 134.182205 
L 71.59204 133.857872 
L 71.924337 133.857872 
L 71.924337 133.209205 
L 72.58893 133.209205 
L 72.58893 132.236204 
L 73.253524 132.236204 
L 73.253524 131.91187 
L 73.58582 131.91187 
L 73.58582 131.263203 
L 74.250414 131.263203 
L 74.250414 130.93887 
L 74.582711 130.93887 
L 74.582711 130.614536 
L 74.915007 130.614536 
L 74.915007 130.290203 
L 75.247304 130.290203 
L 75.247304 128.344201 
L 75.911897 128.344201 
L 75.911897 127.695534 
L 76.244194 127.695534 
L 76.244194 127.046867 
L 76.908787 127.046867 
L 76.908787 126.3982 
L 77.573381 126.3982 
L 77.573381 125.749533 
L 77.905677 125.749533 
L 77.905677 125.100866 
L 78.237974 125.100866 
L 78.237974 124.776532 
L 78.902568 124.776532 
L 78.902568 124.452199 
L 79.567161 124.452199 
L 79.567161 124.127865 
L 79.899458 124.127865 
L 79.899458 123.154864 
L 80.896348 123.154864 
L 80.896348 121.85753 
L 81.228644 121.85753 
L 81.228644 121.533197 
L 81.560941 121.533197 
L 81.560941 117.641194 
L 81.893238 117.641194 
L 81.893238 116.668193 
L 82.225535 116.668193 
L 82.225535 115.370859 
L 82.890128 115.370859 
L 82.890128 115.046526 
L 83.222425 115.046526 
L 83.222425 112.776191 
L 83.554721 112.776191 
L 83.554721 112.451857 
L 84.219315 112.451857 
L 84.219315 111.80319 
L 84.883908 111.80319 
L 84.883908 109.208522 
L 85.216205 109.208522 
L 85.216205 108.235521 
L 85.548502 108.235521 
L 85.548502 107.26252 
L 85.880798 107.26252 
L 85.880798 105.640852 
L 86.213095 105.640852 
L 86.213095 105.316519 
L 86.545392 105.316519 
L 86.545392 104.343518 
L 86.877688 104.343518 
L 86.877688 104.019185 
L 87.209985 104.019185 
L 87.209985 103.046184 
L 87.542282 103.046184 
L 87.542282 101.74885 
L 88.871469 101.74885 
L 88.871469 99.802848 
L 89.203765 99.802848 
L 89.203765 98.829848 
L 89.536062 98.829848 
L 89.536062 95.586512 
L 89.868359 95.586512 
L 89.868359 94.613512 
L 90.532952 94.613512 
L 90.532952 93.964844 
L 91.529842 93.964844 
L 91.529842 93.640511 
L 91.862139 93.640511 
L 91.862139 92.991844 
L 92.194436 92.991844 
L 92.194436 92.66751 
L 92.526732 92.66751 
L 92.526732 92.343177 
L 93.191326 92.343177 
L 93.191326 92.018843 
L 93.855919 92.018843 
L 93.855919 91.370176 
L 94.188216 91.370176 
L 94.188216 91.045842 
L 94.852809 91.045842 
L 94.852809 90.721509 
L 95.517402 90.721509 
L 95.517402 90.072842 
L 96.846589 90.072842 
L 96.846589 89.748508 
L 97.843479 89.748508 
L 97.843479 89.424175 
L 98.175776 89.424175 
L 98.175776 88.451174 
L 98.508073 88.451174 
L 98.508073 87.478173 
L 99.172666 87.478173 
L 99.172666 86.829506 
L 101.83104 86.829506 
L 101.83104 86.505173 
L 102.163336 86.505173 
L 102.163336 86.180839 
L 102.82793 86.180839 
L 102.82793 85.207838 
L 103.492523 85.207838 
L 103.492523 84.883505 
L 103.82482 84.883505 
L 103.82482 84.559171 
L 104.157117 84.559171 
L 104.157117 83.910504 
L 104.489413 83.910504 
L 104.489413 83.586171 
L 104.82171 83.586171 
L 104.82171 82.61317 
L 106.483194 82.61317 
L 106.483194 81.964503 
L 106.81549 81.964503 
L 106.81549 81.640169 
L 108.144677 81.640169 
L 108.144677 81.315836 
L 109.473864 81.315836 
L 109.473864 80.991502 
L 109.806161 80.991502 
L 109.806161 80.667169 
L 110.138457 80.667169 
L 110.138457 80.018502 
L 110.803051 80.018502 
L 110.803051 79.369834 
L 111.135347 79.369834 
L 111.135347 79.045501 
L 111.467644 79.045501 
L 111.467644 78.721167 
L 112.796831 78.721167 
L 112.796831 78.0725 
L 113.129127 78.0725 
L 113.129127 77.748167 
L 114.126018 77.748167 
L 114.126018 77.423833 
L 114.790611 77.423833 
L 114.790611 77.0995 
L 115.122908 77.0995 
L 115.122908 76.450833 
L 115.455204 76.450833 
L 115.455204 76.126499 
L 115.787501 76.126499 
L 115.787501 75.802165 
L 116.119798 75.802165 
L 116.119798 75.477832 
L 116.452094 75.477832 
L 116.452094 74.829165 
L 117.116688 74.829165 
L 117.116688 73.531831 
L 117.781281 73.531831 
L 117.781281 73.207497 
L 120.107358 73.207497 
L 120.107358 72.883163 
L 121.436545 72.883163 
L 121.436545 72.234496 
L 121.768842 72.234496 
L 121.768842 71.261496 
L 122.101138 71.261496 
L 122.101138 70.288495 
L 122.433435 70.288495 
L 122.433435 69.315494 
L 123.098028 69.315494 
L 123.098028 68.666827 
L 125.756402 68.666827 
L 125.756402 66.720826 
L 127.417886 66.720826 
L 127.417886 66.396492 
L 127.750182 66.396492 
L 127.750182 66.072159 
L 128.082479 66.072159 
L 128.082479 65.747825 
L 128.414776 65.747825 
L 128.414776 65.423492 
L 128.747072 65.423492 
L 128.747072 65.099158 
L 129.743962 65.099158 
L 129.743962 64.450491 
L 130.076259 64.450491 
L 130.076259 63.47749 
L 130.408556 63.47749 
L 130.408556 61.855823 
L 131.073149 61.855823 
L 131.073149 61.531489 
L 131.405446 61.531489 
L 131.405446 60.234155 
L 132.734633 60.234155 
L 132.734633 59.585488 
L 133.066929 59.585488 
L 133.066929 58.288153 
L 134.063819 58.288153 
L 134.063819 57.96382 
L 135.393006 57.96382 
L 135.393006 57.639486 
L 135.725303 57.639486 
L 135.725303 56.666486 
L 136.0576 56.666486 
L 136.0576 56.342152 
L 137.386786 56.342152 
L 137.386786 53.42315 
L 139.04827 53.42315 
L 139.04827 53.098817 
L 139.380567 53.098817 
L 139.380567 52.774483 
L 140.709753 52.774483 
L 140.709753 52.125816 
L 141.04205 52.125816 
L 141.04205 51.801482 
L 141.374347 51.801482 
L 141.374347 51.477149 
L 141.706644 51.477149 
L 141.706644 50.179815 
L 142.03894 50.179815 
L 142.03894 49.531147 
L 142.703534 49.531147 
L 142.703534 49.206814 
L 143.368127 49.206814 
L 143.368127 48.88248 
L 143.700424 48.88248 
L 143.700424 48.233813 
L 144.365017 48.233813 
L 144.365017 47.585146 
L 144.697314 47.585146 
L 144.697314 47.260813 
L 145.029611 47.260813 
L 145.029611 46.612145 
L 145.361907 46.612145 
L 145.361907 45.963478 
L 146.026501 45.963478 
L 146.026501 45.639145 
L 146.358797 45.639145 
L 146.358797 44.341811 
L 147.023391 44.341811 
L 147.023391 43.693143 
L 148.352578 43.693143 
L 148.352578 43.36881 
L 148.684874 43.36881 
L 148.684874 42.071476 
L 149.349468 42.071476 
L 149.349468 41.747142 
L 149.681764 41.747142 
L 149.681764 40.774141 
L 150.014061 40.774141 
L 150.014061 40.449808 
L 150.346358 40.449808 
L 150.346358 40.125474 
L 150.678654 40.125474 
L 150.678654 39.152474 
L 151.675544 39.152474 
L 151.675544 38.503807 
L 152.672435 38.503807 
L 152.672435 37.206472 
L 154.001621 37.206472 
L 154.001621 36.882139 
L 154.333918 36.882139 
L 154.333918 35.909138 
L 156.327698 35.909138 
L 156.327698 34.611804 
L 156.659995 34.611804 
L 156.659995 34.28747 
L 156.992292 34.28747 
L 156.992292 33.31447 
L 157.656885 33.31447 
L 157.656885 32.665803 
L 159.318369 32.665803 
L 159.318369 32.017136 
L 160.979852 32.017136 
L 160.979852 31.368468 
L 161.312149 31.368468 
L 161.312149 31.044135 
L 162.309039 31.044135 
L 162.309039 30.395468 
L 162.641336 30.395468 
L 162.641336 30.071134 
L 163.638226 30.071134 
L 163.638226 29.746801 
L 164.302819 29.746801 
L 164.302819 28.7738 
L 164.635116 28.7738 
L 164.635116 28.449466 
L 165.632006 28.449466 
L 165.632006 28.125133 
L 166.296599 28.125133 
L 166.296599 27.800799 
L 166.628896 27.800799 
L 166.628896 27.152132 
L 169.619566 27.152132 
L 169.619566 26.827799 
L 172.27794 26.827799 
L 172.27794 26.503465 
L 172.610236 26.503465 
L 172.610236 26.179132 
L 172.942533 26.179132 
L 172.942533 25.854798 
L 173.27483 25.854798 
L 173.27483 25.206131 
L 173.607127 25.206131 
L 173.607127 24.557464 
L 178.25928 24.557464 
L 178.25928 23.908797 
L 179.25617 23.908797 
L 179.25617 23.584463 
L 179.920764 23.584463 
L 179.920764 23.26013 
L 180.253061 23.26013 
L 180.253061 22.935796 
L 181.582247 22.935796 
L 181.582247 22.611462 
L 181.914544 22.611462 
L 181.914544 22.287129 
L 183.243731 22.287129 
L 183.243731 21.962795 
L 185.237511 21.962795 
L 185.237511 21.314128 
L 186.566698 21.314128 
L 186.566698 20.989795 
L 192.880335 20.989795 
L 192.880335 20.341128 
L 195.871005 20.341128 
L 195.871005 20.016794 
L 196.535599 20.016794 
L 196.535599 19.69246 
L 197.864786 19.69246 
L 197.864786 19.368127 
L 199.858566 19.368127 
L 199.858566 19.043793 
L 202.516939 19.043793 
L 202.516939 18.71946 
L 203.846126 18.71946 
L 203.846126 18.395126 
L 204.51072 18.395126 
L 204.51072 18.070793 
L 204.843016 18.070793 
L 204.843016 16.773458 
L 205.839906 16.773458 
L 205.839906 16.449125 
L 206.172203 16.449125 
L 206.172203 16.124791 
L 206.5045 16.124791 
L 206.5045 15.800458 
L 208.49828 15.800458 
L 208.49828 15.476124 
L 209.827467 15.476124 
L 209.827467 15.151791 
L 210.159763 15.151791 
L 210.159763 14.17879 
L 210.49206 14.17879 
L 210.49206 13.854456 
L 213.150434 13.854456 
L 213.150434 13.530123 
L 213.48273 13.530123 
L 213.48273 13.205789 
L 215.144214 13.205789 
L 215.144214 12.232789 
L 218.134884 12.232789 
L 218.134884 11.908455 
L 218.799478 11.908455 
L 218.799478 11.584122 
L 219.796368 11.584122 
L 219.796368 11.259788 
L 220.793258 11.259788 
L 220.793258 10.935454 
L 222.787038 10.935454 
L 222.787038 10.611121 
L 224.448521 10.611121 
L 224.448521 10.286787 
L 224.780818 10.286787 
L 224.780818 9.63812 
L 225.113115 9.63812 
L 225.113115 9.313787 
L 227.106895 9.313787 
L 227.106895 8.989453 
L 227.439192 8.989453 
L 227.439192 8.989453 
" clip-path="url(#pf82a6ab5cb)" style="fill: none; stroke: #ff0000; stroke-width: 1.5; stroke-linecap: square"/>
   </g>
   <g id="line2d_14">
    <defs>
     <path id="mf14814f159" d="M 0 3 
C 0.795609 3 1.55874 2.683901 2.12132 2.12132 
C 2.683901 1.55874 3 0.795609 3 0 
C 3 -0.795609 2.683901 -1.55874 2.12132 -2.12132 
C 1.55874 -2.683901 0.795609 -3 0 -3 
C -0.795609 -3 -1.55874 -2.683901 -2.12132 -2.12132 
C -2.683901 -1.55874 -3 -0.795609 -3 0 
C -3 0.795609 -2.683901 1.55874 -2.12132 2.12132 
C -1.55874 2.683901 -0.795609 3 0 3 
z
" style="stroke: #000000"/>
    </defs>
    <g clip-path="url(#pf82a6ab5cb)">
     <use xlink:href="#mf14814f159" x="63.616919" y="139.047209" style="fill: #ff0000; stroke: #000000"/>
    </g>
   </g>
   <g id="line2d_15">
    <path d="M 29.722656 412.784729 
L 227.439192 8.989453 
" clip-path="url(#pf82a6ab5cb)" style="fill: none; stroke: #00bfbf; stroke-width: 1.5; stroke-linecap: square"/>
   </g>
   <g id="patch_4">
    <path d="M 29.722656 412.784729 
L 29.722656 8.989453 
" style="fill: none; stroke: #000000; stroke-width: 0.8; stroke-linejoin: miter; stroke-linecap: square"/>
   </g>
   <g id="patch_5">
    <path d="M 227.439192 412.784729 
L 227.439192 8.989453 
" style="fill: none; stroke: #000000; stroke-width: 0.8; stroke-linejoin: miter; stroke-linecap: square"/>
   </g>
   <g id="patch_6">
    <path d="M 29.722656 412.784729 
L 227.439192 412.784729 
" style="fill: none; stroke: #000000; stroke-width: 0.8; stroke-linejoin: miter; stroke-linecap: square"/>
   </g>
   <g id="patch_7">
    <path d="M 29.722656 8.989453 
L 227.439192 8.989453 
" style="fill: none; stroke: #000000; stroke-width: 0.8; stroke-linejoin: miter; stroke-linecap: square"/>
   </g>
   <g id="legend_1">
    <g id="patch_8">
     <path d="M 67.867643 455.77182 
L 189.294205 455.77182 
Q 190.294205 455.77182 190.294205 454.77182 
L 190.294205 448.079632 
Q 190.294205 447.079632 189.294205 447.079632 
L 67.867643 447.079632 
Q 66.867643 447.079632 66.867643 448.079632 
L 66.867643 454.77182 
Q 66.867643 455.77182 67.867643 455.77182 
z
" style="fill: #ffffff; opacity: 0.8; stroke: #cccccc; stroke-linejoin: miter"/>
    </g>
    <g id="line2d_16">
     <path d="M 68.867643 450.969476 
L 73.867643 450.969476 
L 78.867643 450.969476 
" style="fill: none; stroke: #ff0000; stroke-width: 1.5; stroke-linecap: square"/>
    </g>
    <g id="text_15">
     <text style="font: 5px 'Arial'; text-anchor: start" x="82.867643" y="452.719476" transform="rotate(-0 82.867643 452.719476)">model performance</text>
    </g>
    <g id="line2d_17">
     <path d="M 135.940299 450.969476 
L 140.940299 450.969476 
L 145.940299 450.969476 
" style="fill: none; stroke: #00bfbf; stroke-width: 1.5; stroke-linecap: square"/>
    </g>
    <g id="text_16">
     <text style="font: 5px 'Arial'; text-anchor: start" x="149.940299" y="452.719476" transform="rotate(-0 149.940299 452.719476)">random guessing</text>
    </g>
   </g>
  </g>
 </g>
 <defs>
  <clipPath id="pf82a6ab5cb">
   <rect x="29.722656" y="8.989453" width="197.716535" height="403.795276"/>
  </clipPath>
 </defs>
</svg>
