<?xml version="1.0" encoding="utf-8" standalone="no"?>
<!DOCTYPE svg PUBLIC "-//W3C//DTD SVG 1.1//EN"
  "http://www.w3.org/Graphics/SVG/1.1/DTD/svg11.dtd">
<svg xmlns:xlink="http://www.w3.org/1999/xlink" width="242.837664pt" height="268.2336pt" viewBox="0 0 242.837664 268.2336" xmlns="http://www.w3.org/2000/svg" version="1.1">
 <metadata>
  <rdf:RDF xmlns:dc="http://purl.org/dc/elements/1.1/" xmlns:cc="http://creativecommons.org/ns#" xmlns:rdf="http://www.w3.org/1999/02/22-rdf-syntax-ns#">
   <cc:Work>
    <dc:type rdf:resource="http://purl.org/dc/dcmitype/StillImage"/>
    <dc:date>2024-09-30T08:29:12.169330</dc:date>
    <dc:format>image/svg+xml</dc:format>
    <dc:creator>
     <cc:Agent>
      <dc:title>Matplotlib v3.7.0, https://matplotlib.org/</dc:title>
     </cc:Agent>
    </dc:creator>
   </cc:Work>
  </rdf:RDF>
 </metadata>
 <defs>
  <style type="text/css">*{stroke-linejoin: round; stroke-linecap: butt}</style>
 </defs>
 <g id="figure_1">
  <g id="patch_1">
   <path d="M -0 268.2336 
L 242.837664 268.2336 
L 242.837664 0 
L -0 0 
z
" style="fill: #ffffff"/>
  </g>
  <g id="axes_1">
   <g id="patch_2">
    <path d="M 34.331719 222.162851 
L 230.772664 222.162851 
L 230.772664 25.721906 
L 34.331719 25.721906 
z
" style="fill: #ffffff"/>
   </g>
   <g id="patch_3">
    <path d="M 34.331719 25.721906 
L 38.834665 30.001219 
L 37.187281 30.878024 
L 68.094014 88.947099 
L 67.920605 89.039394 
L 37.013872 30.970319 
L 35.366488 31.847124 
z
" clip-path="url(#pfd845b22ce)" style="fill: #1f77b4; stroke: #000000; stroke-linejoin: miter"/>
   </g>
   <g id="matplotlib.axis_1">
    <g id="xtick_1">
     <g id="line2d_1">
      <defs>
       <path id="m0225ff6896" d="M 0 0 
L 0 3.5 
" style="stroke: #000000; stroke-width: 0.8"/>
      </defs>
      <g>
       <use xlink:href="#m0225ff6896" x="34.331719" y="222.162851" style="stroke: #000000; stroke-width: 0.8"/>
      </g>
     </g>
     <g id="text_1">
      <text style="font: 7px 'Arial'; text-anchor: middle" x="34.331719" y="234.17332" transform="rotate(-0 34.331719 234.17332)">0.0</text>
     </g>
    </g>
    <g id="xtick_2">
     <g id="line2d_2">
      <g>
       <use xlink:href="#m0225ff6896" x="73.619908" y="222.162851" style="stroke: #000000; stroke-width: 0.8"/>
      </g>
     </g>
     <g id="text_2">
      <text style="font: 7px 'Arial'; text-anchor: middle" x="73.619908" y="234.17332" transform="rotate(-0 73.619908 234.17332)">0.2</text>
     </g>
    </g>
    <g id="xtick_3">
     <g id="line2d_3">
      <g>
       <use xlink:href="#m0225ff6896" x="112.908097" y="222.162851" style="stroke: #000000; stroke-width: 0.8"/>
      </g>
     </g>
     <g id="text_3">
      <text style="font: 7px 'Arial'; text-anchor: middle" x="112.908097" y="234.17332" transform="rotate(-0 112.908097 234.17332)">0.4</text>
     </g>
    </g>
    <g id="xtick_4">
     <g id="line2d_4">
      <g>
       <use xlink:href="#m0225ff6896" x="152.196286" y="222.162851" style="stroke: #000000; stroke-width: 0.8"/>
      </g>
     </g>
     <g id="text_4">
      <text style="font: 7px 'Arial'; text-anchor: middle" x="152.196286" y="234.17332" transform="rotate(-0 152.196286 234.17332)">0.6</text>
     </g>
    </g>
    <g id="xtick_5">
     <g id="line2d_5">
      <g>
       <use xlink:href="#m0225ff6896" x="191.484475" y="222.162851" style="stroke: #000000; stroke-width: 0.8"/>
      </g>
     </g>
     <g id="text_5">
      <text style="font: 7px 'Arial'; text-anchor: middle" x="191.484475" y="234.17332" transform="rotate(-0 191.484475 234.17332)">0.8</text>
     </g>
    </g>
    <g id="xtick_6">
     <g id="line2d_6">
      <g>
       <use xlink:href="#m0225ff6896" x="230.772664" y="222.162851" style="stroke: #000000; stroke-width: 0.8"/>
      </g>
     </g>
     <g id="text_6">
      <text style="font: 7px 'Arial'; text-anchor: middle" x="230.772664" y="234.17332" transform="rotate(-0 230.772664 234.17332)">1.0</text>
     </g>
    </g>
    <g id="text_7">
     <text style="font: 7px 'Arial'; text-anchor: middle" x="132.552191" y="244.575039" transform="rotate(-0 132.552191 244.575039)">FPR</text>
    </g>
   </g>
   <g id="matplotlib.axis_2">
    <g id="ytick_1">
     <g id="line2d_7">
      <defs>
       <path id="m352056946b" d="M 0 0 
L -3.5 0 
" style="stroke: #000000; stroke-width: 0.8"/>
      </defs>
      <g>
       <use xlink:href="#m352056946b" x="34.331719" y="222.162851" style="stroke: #000000; stroke-width: 0.8"/>
      </g>
     </g>
     <g id="text_8">
      <text style="font: 7px 'Arial'; text-anchor: end" x="27.331719" y="224.668086" transform="rotate(-0 27.331719 224.668086)">0.0</text>
     </g>
    </g>
    <g id="ytick_2">
     <g id="line2d_8">
      <g>
       <use xlink:href="#m352056946b" x="34.331719" y="182.874662" style="stroke: #000000; stroke-width: 0.8"/>
      </g>
     </g>
     <g id="text_9">
      <text style="font: 7px 'Arial'; text-anchor: end" x="27.331719" y="185.379897" transform="rotate(-0 27.331719 185.379897)">0.2</text>
     </g>
    </g>
    <g id="ytick_3">
     <g id="line2d_9">
      <g>
       <use xlink:href="#m352056946b" x="34.331719" y="143.586473" style="stroke: #000000; stroke-width: 0.8"/>
      </g>
     </g>
     <g id="text_10">
      <text style="font: 7px 'Arial'; text-anchor: end" x="27.331719" y="146.091708" transform="rotate(-0 27.331719 146.091708)">0.4</text>
     </g>
    </g>
    <g id="ytick_4">
     <g id="line2d_10">
      <g>
       <use xlink:href="#m352056946b" x="34.331719" y="104.298284" style="stroke: #000000; stroke-width: 0.8"/>
      </g>
     </g>
     <g id="text_11">
      <text style="font: 7px 'Arial'; text-anchor: end" x="27.331719" y="106.803519" transform="rotate(-0 27.331719 106.803519)">0.6</text>
     </g>
    </g>
    <g id="ytick_5">
     <g id="line2d_11">
      <g>
       <use xlink:href="#m352056946b" x="34.331719" y="65.010095" style="stroke: #000000; stroke-width: 0.8"/>
      </g>
     </g>
     <g id="text_12">
      <text style="font: 7px 'Arial'; text-anchor: end" x="27.331719" y="67.51533" transform="rotate(-0 27.331719 67.51533)">0.8</text>
     </g>
    </g>
    <g id="ytick_6">
     <g id="line2d_12">
      <g>
       <use xlink:href="#m352056946b" x="34.331719" y="25.721906" style="stroke: #000000; stroke-width: 0.8"/>
      </g>
     </g>
     <g id="text_13">
      <text style="font: 7px 'Arial'; text-anchor: end" x="27.331719" y="28.227141" transform="rotate(-0 27.331719 28.227141)">1.0</text>
     </g>
    </g>
    <g id="text_14">
     <text style="font: 7px 'Arial'; text-anchor: middle" x="12.210469" y="123.942379" transform="rotate(-90 12.210469 123.942379)">TPR</text>
    </g>
   </g>
   <g id="line2d_13">
    <path d="M 34.331719 222.162851 
L 34.331719 222.005067 
L 34.661872 222.005067 
L 34.661872 221.058364 
L 35.322177 221.058364 
L 35.322177 220.90058 
L 35.65233 220.90058 
L 35.65233 219.796093 
L 35.982483 219.796093 
L 35.982483 187.608179 
L 36.312636 187.608179 
L 36.312636 183.979149 
L 36.642789 183.979149 
L 36.642789 180.192336 
L 36.972942 180.192336 
L 36.972942 179.087849 
L 37.303094 179.087849 
L 37.303094 177.036658 
L 37.633247 177.036658 
L 37.633247 174.985468 
L 37.9634 174.985468 
L 37.9634 172.460925 
L 38.293553 172.460925 
L 38.293553 170.883086 
L 38.623706 170.883086 
L 38.623706 166.780705 
L 38.953859 166.780705 
L 38.953859 155.420265 
L 39.284011 155.420265 
L 39.284011 152.422371 
L 39.614164 152.422371 
L 39.614164 151.1601 
L 39.944317 151.1601 
L 39.944317 150.528964 
L 40.27447 150.528964 
L 40.27447 144.217609 
L 40.604623 144.217609 
L 40.604623 141.85085 
L 40.934776 141.85085 
L 40.934776 139.957444 
L 41.264929 139.957444 
L 41.264929 139.168524 
L 41.925234 139.168524 
L 41.925234 138.695173 
L 42.255387 138.695173 
L 42.255387 136.643982 
L 42.58554 136.643982 
L 42.58554 134.435007 
L 43.245846 134.435007 
L 43.245846 132.857169 
L 43.575999 132.857169 
L 43.575999 130.49041 
L 43.906151 130.49041 
L 43.906151 130.017059 
L 44.566457 130.017059 
L 44.566457 129.701491 
L 45.226763 129.701491 
L 45.226763 129.070355 
L 45.556916 129.070355 
L 45.556916 127.019165 
L 45.887068 127.019165 
L 45.887068 126.545813 
L 46.217221 126.545813 
L 46.217221 125.59911 
L 46.877527 125.59911 
L 46.877527 123.705703 
L 47.20768 123.705703 
L 47.20768 122.916783 
L 47.537833 122.916783 
L 47.537833 122.601216 
L 47.867986 122.601216 
L 47.867986 121.97008 
L 48.198138 121.97008 
L 48.198138 120.707809 
L 48.528291 120.707809 
L 48.528291 120.076673 
L 49.188597 120.076673 
L 49.188597 118.656618 
L 49.51875 118.656618 
L 49.51875 117.867699 
L 49.848903 117.867699 
L 49.848903 116.763212 
L 50.179055 116.763212 
L 50.179055 115.50094 
L 50.509208 115.50094 
L 50.509208 114.712021 
L 51.499667 114.712021 
L 51.499667 114.554237 
L 51.82982 114.554237 
L 51.82982 114.080885 
L 52.159973 114.080885 
L 52.159973 113.134182 
L 52.490125 113.134182 
L 52.490125 112.345263 
L 52.820278 112.345263 
L 52.820278 112.029695 
L 53.480584 112.029695 
L 53.480584 111.398559 
L 53.810737 111.398559 
L 53.810737 111.082992 
L 54.14089 111.082992 
L 54.14089 110.294072 
L 54.801195 110.294072 
L 54.801195 110.136288 
L 55.131348 110.136288 
L 55.131348 109.978504 
L 55.461501 109.978504 
L 55.461501 109.82072 
L 55.791654 109.82072 
L 55.791654 109.347369 
L 56.121807 109.347369 
L 56.121807 109.031801 
L 56.45196 109.031801 
L 56.45196 108.558449 
L 56.782112 108.558449 
L 56.782112 108.400665 
L 57.112265 108.400665 
L 57.112265 108.242881 
L 57.442418 108.242881 
L 57.442418 107.927314 
L 58.102724 107.927314 
L 58.102724 106.033907 
L 58.432877 106.033907 
L 58.432877 105.560555 
L 58.76303 105.560555 
L 58.76303 104.613852 
L 59.093182 104.613852 
L 59.093182 104.456068 
L 59.423335 104.456068 
L 59.423335 103.193797 
L 59.753488 103.193797 
L 59.753488 101.931526 
L 60.083641 101.931526 
L 60.083641 101.458174 
L 60.413794 101.458174 
L 60.413794 101.142606 
L 61.074099 101.142606 
L 61.074099 100.038119 
L 61.404252 100.038119 
L 61.404252 99.2492 
L 62.064558 99.2492 
L 62.064558 98.933632 
L 62.724864 98.933632 
L 62.724864 97.829145 
L 63.055017 97.829145 
L 63.055017 97.040225 
L 63.385169 97.040225 
L 63.385169 95.777954 
L 63.715322 95.777954 
L 63.715322 93.56898 
L 64.045475 93.56898 
L 64.045475 93.411196 
L 64.375628 93.411196 
L 64.375628 93.095628 
L 64.705781 93.095628 
L 64.705781 92.937844 
L 65.366087 92.937844 
L 65.366087 92.78006 
L 65.696239 92.78006 
L 65.696239 92.306708 
L 66.026392 92.306708 
L 66.026392 92.148925 
L 66.686698 92.148925 
L 66.686698 91.991141 
L 67.347004 91.991141 
L 67.347004 89.624382 
L 67.677156 89.624382 
L 67.677156 89.308815 
L 68.007309 89.308815 
L 68.007309 88.993247 
L 68.337462 88.993247 
L 68.337462 88.835463 
L 68.667615 88.835463 
L 68.667615 88.677679 
L 69.327921 88.677679 
L 69.327921 88.519895 
L 69.658074 88.519895 
L 69.658074 88.362111 
L 69.988226 88.362111 
L 69.988226 88.046543 
L 71.308838 88.046543 
L 71.308838 87.730976 
L 72.299296 87.730976 
L 72.299296 87.573192 
L 72.629449 87.573192 
L 72.629449 86.942056 
L 73.619908 86.942056 
L 73.619908 86.626488 
L 75.930978 86.626488 
L 75.930978 86.468704 
L 76.261131 86.468704 
L 76.261131 86.153137 
L 76.921436 86.153137 
L 76.921436 85.679785 
L 77.581742 85.679785 
L 77.581742 85.522001 
L 77.911895 85.522001 
L 77.911895 85.206433 
L 78.5722 85.206433 
L 78.5722 85.048649 
L 78.902353 85.048649 
L 78.902353 84.890866 
L 79.232506 84.890866 
L 79.232506 84.733082 
L 79.562659 84.733082 
L 79.562659 83.786378 
L 80.222965 83.786378 
L 80.222965 83.470811 
L 80.553118 83.470811 
L 80.553118 83.155243 
L 81.213423 83.155243 
L 81.213423 82.839675 
L 81.873729 82.839675 
L 81.873729 82.524107 
L 82.203882 82.524107 
L 82.203882 82.208539 
L 82.534035 82.208539 
L 82.534035 82.050756 
L 83.19434 82.050756 
L 83.19434 81.892972 
L 83.854646 81.892972 
L 83.854646 81.735188 
L 84.184799 81.735188 
L 84.184799 81.261836 
L 85.175257 81.261836 
L 85.175257 80.6307 
L 85.50541 80.6307 
L 85.50541 80.472917 
L 85.835563 80.472917 
L 85.835563 78.57951 
L 86.165716 78.57951 
L 86.165716 78.106158 
L 86.495869 78.106158 
L 86.495869 77.475023 
L 87.156175 77.475023 
L 87.156175 77.317239 
L 87.486327 77.317239 
L 87.486327 76.212752 
L 87.81648 76.212752 
L 87.81648 76.054968 
L 88.476786 76.054968 
L 88.476786 75.7394 
L 89.137092 75.7394 
L 89.137092 74.477129 
L 89.467244 74.477129 
L 89.467244 74.003777 
L 89.797397 74.003777 
L 89.797397 73.530425 
L 90.12755 73.530425 
L 90.12755 72.741506 
L 90.457703 72.741506 
L 90.457703 72.583722 
L 90.787856 72.583722 
L 90.787856 72.11037 
L 91.118009 72.11037 
L 91.118009 71.952586 
L 91.448162 71.952586 
L 91.448162 71.479235 
L 91.778314 71.479235 
L 91.778314 70.848099 
L 93.098926 70.848099 
L 93.098926 69.901396 
L 93.429079 69.901396 
L 93.429079 69.428044 
L 93.759231 69.428044 
L 93.759231 67.850205 
L 94.089384 67.850205 
L 94.089384 67.376854 
L 94.74969 67.376854 
L 94.74969 67.061286 
L 95.740149 67.061286 
L 95.740149 66.903502 
L 96.070301 66.903502 
L 96.070301 66.587934 
L 96.400454 66.587934 
L 96.400454 66.43015 
L 96.730607 66.43015 
L 96.730607 66.272366 
L 97.390913 66.272366 
L 97.390913 66.114582 
L 98.051219 66.114582 
L 98.051219 65.799015 
L 98.381371 65.799015 
L 98.381371 65.641231 
L 99.041677 65.641231 
L 99.041677 65.483447 
L 99.701983 65.483447 
L 99.701983 65.167879 
L 101.022594 65.167879 
L 101.022594 65.010095 
L 102.013053 65.010095 
L 102.013053 64.852311 
L 102.343206 64.852311 
L 102.343206 64.37896 
L 102.673358 64.37896 
L 102.673358 63.905608 
L 103.333664 63.905608 
L 103.333664 63.59004 
L 105.974887 63.59004 
L 105.974887 63.432256 
L 106.30504 63.432256 
L 106.30504 63.274472 
L 106.965345 63.274472 
L 106.965345 62.801121 
L 107.625651 62.801121 
L 107.625651 62.643337 
L 107.955804 62.643337 
L 107.955804 62.485553 
L 108.285957 62.485553 
L 108.285957 62.169985 
L 108.61611 62.169985 
L 108.61611 62.012201 
L 108.946263 62.012201 
L 108.946263 61.53885 
L 110.597027 61.53885 
L 110.597027 61.223282 
L 110.92718 61.223282 
L 110.92718 61.065498 
L 112.247791 61.065498 
L 112.247791 60.907714 
L 113.568402 60.907714 
L 113.568402 60.74993 
L 113.898555 60.74993 
L 113.898555 60.592146 
L 114.228708 60.592146 
L 114.228708 60.276578 
L 114.889014 60.276578 
L 114.889014 59.961011 
L 115.219167 59.961011 
L 115.219167 59.803227 
L 115.549319 59.803227 
L 115.549319 59.645443 
L 116.869931 59.645443 
L 116.869931 59.329875 
L 117.200084 59.329875 
L 117.200084 59.172091 
L 118.190542 59.172091 
L 118.190542 59.014307 
L 118.850848 59.014307 
L 118.850848 58.856523 
L 119.181001 58.856523 
L 119.181001 58.540956 
L 119.511154 58.540956 
L 119.511154 58.383172 
L 119.841307 58.383172 
L 119.841307 58.225388 
L 120.171459 58.225388 
L 120.171459 58.067604 
L 120.501612 58.067604 
L 120.501612 57.752036 
L 121.161918 57.752036 
L 121.161918 57.120901 
L 121.822224 57.120901 
L 121.822224 56.963117 
L 124.133294 56.963117 
L 124.133294 56.805333 
L 125.453905 56.805333 
L 125.453905 56.489765 
L 125.784058 56.489765 
L 125.784058 56.016413 
L 126.114211 56.016413 
L 126.114211 55.543062 
L 126.444363 55.543062 
L 126.444363 55.06971 
L 127.104669 55.06971 
L 127.104669 54.754142 
L 129.745892 54.754142 
L 129.745892 53.807439 
L 131.396656 53.807439 
L 131.396656 53.649655 
L 131.726809 53.649655 
L 131.726809 53.491871 
L 132.056962 53.491871 
L 132.056962 53.334087 
L 132.387115 53.334087 
L 132.387115 53.176303 
L 132.717268 53.176303 
L 132.717268 53.018519 
L 133.707726 53.018519 
L 133.707726 52.702952 
L 134.037879 52.702952 
L 134.037879 52.2296 
L 134.368032 52.2296 
L 134.368032 51.440681 
L 135.028338 51.440681 
L 135.028338 51.282897 
L 135.35849 51.282897 
L 135.35849 50.651761 
L 136.679102 50.651761 
L 136.679102 50.336193 
L 137.009255 50.336193 
L 137.009255 49.705058 
L 137.999713 49.705058 
L 137.999713 49.547274 
L 139.320325 49.547274 
L 139.320325 49.38949 
L 139.650477 49.38949 
L 139.650477 48.916138 
L 139.98063 48.916138 
L 139.98063 48.758354 
L 141.301242 48.758354 
L 141.301242 47.338299 
L 142.952006 47.338299 
L 142.952006 47.180515 
L 143.282159 47.180515 
L 143.282159 47.022732 
L 144.60277 47.022732 
L 144.60277 46.707164 
L 144.932923 46.707164 
L 144.932923 46.54938 
L 145.263076 46.54938 
L 145.263076 46.391596 
L 145.593229 46.391596 
L 145.593229 45.76046 
L 145.923382 45.76046 
L 145.923382 45.444893 
L 146.583687 45.444893 
L 146.583687 45.287109 
L 147.243993 45.287109 
L 147.243993 45.129325 
L 147.574146 45.129325 
L 147.574146 44.813757 
L 148.234451 44.813757 
L 148.234451 44.498189 
L 148.564604 44.498189 
L 148.564604 44.340405 
L 148.894757 44.340405 
L 148.894757 44.024838 
L 149.22491 44.024838 
L 149.22491 43.70927 
L 149.885216 43.70927 
L 149.885216 43.551486 
L 150.215369 43.551486 
L 150.215369 42.92035 
L 150.875674 42.92035 
L 150.875674 42.604783 
L 152.196286 42.604783 
L 152.196286 42.446999 
L 152.526439 42.446999 
L 152.526439 41.815863 
L 153.186744 41.815863 
L 153.186744 41.658079 
L 153.516897 41.658079 
L 153.516897 41.184728 
L 153.84705 41.184728 
L 153.84705 41.026944 
L 154.177203 41.026944 
L 154.177203 40.86916 
L 154.507356 40.86916 
L 154.507356 40.395808 
L 155.497814 40.395808 
L 155.497814 40.08024 
L 156.488273 40.08024 
L 156.488273 39.449105 
L 157.808884 39.449105 
L 157.808884 39.291321 
L 158.139037 39.291321 
L 158.139037 38.817969 
L 160.119954 38.817969 
L 160.119954 38.186834 
L 160.450107 38.186834 
L 160.450107 38.02905 
L 160.78026 38.02905 
L 160.78026 37.555698 
L 161.440565 37.555698 
L 161.440565 37.24013 
L 163.09133 37.24013 
L 163.09133 36.924563 
L 164.742094 36.924563 
L 164.742094 36.608995 
L 165.072247 36.608995 
L 165.072247 36.451211 
L 166.062705 36.451211 
L 166.062705 36.135643 
L 166.392858 36.135643 
L 166.392858 35.977859 
L 167.383317 35.977859 
L 167.383317 35.820075 
L 168.043622 35.820075 
L 168.043622 35.346724 
L 168.373775 35.346724 
L 168.373775 35.18894 
L 169.364234 35.18894 
L 169.364234 35.031156 
L 170.02454 35.031156 
L 170.02454 34.873372 
L 170.354692 34.873372 
L 170.354692 34.557804 
L 173.326068 34.557804 
L 173.326068 34.40002 
L 175.967291 34.40002 
L 175.967291 34.242236 
L 176.297444 34.242236 
L 176.297444 34.084452 
L 176.627596 34.084452 
L 176.627596 33.926669 
L 176.957749 33.926669 
L 176.957749 33.611101 
L 177.287902 33.611101 
L 177.287902 33.295533 
L 181.910042 33.295533 
L 181.910042 32.979965 
L 182.900501 32.979965 
L 182.900501 32.822181 
L 183.560806 32.822181 
L 183.560806 32.664397 
L 183.890959 32.664397 
L 183.890959 32.506614 
L 185.211571 32.506614 
L 185.211571 32.34883 
L 185.541723 32.34883 
L 185.541723 32.191046 
L 186.862335 32.191046 
L 186.862335 32.033262 
L 188.843252 32.033262 
L 188.843252 31.717694 
L 190.163863 31.717694 
L 190.163863 31.55991 
L 196.436767 31.55991 
L 196.436767 31.244342 
L 199.408143 31.244342 
L 199.408143 31.086559 
L 200.068449 31.086559 
L 200.068449 30.928775 
L 201.38906 30.928775 
L 201.38906 30.770991 
L 203.369977 30.770991 
L 203.369977 30.613207 
L 206.0112 30.613207 
L 206.0112 30.455423 
L 207.331811 30.455423 
L 207.331811 30.297639 
L 207.992117 30.297639 
L 207.992117 30.139855 
L 208.32227 30.139855 
L 208.32227 29.50872 
L 209.312728 29.50872 
L 209.312728 29.350936 
L 209.642881 29.350936 
L 209.642881 29.193152 
L 209.973034 29.193152 
L 209.973034 29.035368 
L 211.953951 29.035368 
L 211.953951 28.877584 
L 213.274563 28.877584 
L 213.274563 28.7198 
L 213.604716 28.7198 
L 213.604716 28.246449 
L 213.934868 28.246449 
L 213.934868 28.088665 
L 216.576091 28.088665 
L 216.576091 27.930881 
L 216.906244 27.930881 
L 216.906244 27.773097 
L 218.557008 27.773097 
L 218.557008 27.299745 
L 221.528384 27.299745 
L 221.528384 27.141961 
L 222.18869 27.141961 
L 222.18869 26.984177 
L 223.179148 26.984177 
L 223.179148 26.826393 
L 224.169607 26.826393 
L 224.169607 26.66861 
L 226.150524 26.66861 
L 226.150524 26.510826 
L 227.801288 26.510826 
L 227.801288 26.353042 
L 228.131441 26.353042 
L 228.131441 26.037474 
L 228.461594 26.037474 
L 228.461594 25.87969 
L 230.442511 25.87969 
L 230.442511 25.721906 
L 230.772664 25.721906 
L 230.772664 25.721906 
" clip-path="url(#pfd845b22ce)" style="fill: none; stroke: #ff0000; stroke-width: 1.5; stroke-linecap: square"/>
   </g>
   <g id="line2d_14">
    <defs>
     <path id="m921bd995a5" d="M 0 3 
C 0.795609 3 1.55874 2.683901 2.12132 2.12132 
C 2.683901 1.55874 3 0.795609 3 0 
C 3 -0.795609 2.683901 -1.55874 2.12132 -2.12132 
C 1.55874 -2.683901 0.795609 -3 0 -3 
C -0.795609 -3 -1.55874 -2.683901 -2.12132 -2.12132 
C -2.683901 -1.55874 -3 -0.795609 -3 0 
C -3 0.795609 -2.683901 1.55874 -2.12132 2.12132 
C -1.55874 2.683901 -0.795609 3 0 3 
z
" style="stroke: #000000"/>
    </defs>
    <g clip-path="url(#pfd845b22ce)">
     <use xlink:href="#m921bd995a5" x="68.007309" y="88.993247" style="fill: #ff0000; stroke: #000000"/>
    </g>
   </g>
   <g id="line2d_15">
    <path d="M 34.331719 222.162851 
L 230.772664 25.721906 
" clip-path="url(#pfd845b22ce)" style="fill: none; stroke: #00bfbf; stroke-width: 1.5; stroke-linecap: square"/>
   </g>
   <g id="patch_4">
    <path d="M 34.331719 222.162851 
L 34.331719 25.721906 
" style="fill: none; stroke: #000000; stroke-width: 0.8; stroke-linejoin: miter; stroke-linecap: square"/>
   </g>
   <g id="patch_5">
    <path d="M 230.772664 222.162851 
L 230.772664 25.721906 
" style="fill: none; stroke: #000000; stroke-width: 0.8; stroke-linejoin: miter; stroke-linecap: square"/>
   </g>
   <g id="patch_6">
    <path d="M 34.331719 222.162851 
L 230.772664 222.162851 
" style="fill: none; stroke: #000000; stroke-width: 0.8; stroke-linejoin: miter; stroke-linecap: square"/>
   </g>
   <g id="patch_7">
    <path d="M 34.331719 25.721906 
L 230.772664 25.721906 
" style="fill: none; stroke: #000000; stroke-width: 0.8; stroke-linejoin: miter; stroke-linecap: square"/>
   </g>
   <g id="text_15">
    <text style="font: 7px 'Arial'" transform="translate(117.439847 12.210469)">SP model</text>
    <text style="font: 7px 'Arial'" transform="translate(59.423519 19.721906)">Receiver Operating Characteristic (ROC) curve</text>
   </g>
   <g id="legend_1">
    <g id="patch_8">
     <path d="M 47.553597 261.0336 
L 217.550785 261.0336 
Q 218.950785 261.0336 218.950785 259.6336 
L 218.950785 250.264538 
Q 218.950785 248.864538 217.550785 248.864538 
L 47.553597 248.864538 
Q 46.153597 248.864538 46.153597 250.264538 
L 46.153597 259.6336 
Q 46.153597 261.0336 47.553597 261.0336 
z
" style="fill: #ffffff; opacity: 0.8; stroke: #cccccc; stroke-linejoin: miter"/>
    </g>
    <g id="line2d_16">
     <path d="M 48.953597 254.310319 
L 55.953597 254.310319 
L 62.953597 254.310319 
" style="fill: none; stroke: #ff0000; stroke-width: 1.5; stroke-linecap: square"/>
    </g>
    <g id="text_16">
     <text style="font: 7px 'Arial'; text-anchor: start" x="68.553597" y="256.760319" transform="rotate(-0 68.553597 256.760319)">model performance</text>
    </g>
    <g id="line2d_17">
     <path d="M 142.855316 254.310319 
L 149.855316 254.310319 
L 156.855316 254.310319 
" style="fill: none; stroke: #00bfbf; stroke-width: 1.5; stroke-linecap: square"/>
    </g>
    <g id="text_17">
     <text style="font: 7px 'Arial'; text-anchor: start" x="162.455316" y="256.760319" transform="rotate(-0 162.455316 256.760319)">random guessing</text>
    </g>
   </g>
  </g>
 </g>
 <defs>
  <clipPath id="pfd845b22ce">
   <rect x="34.331719" y="25.721906" width="196.440945" height="196.440945"/>
  </clipPath>
 </defs>
</svg>
