<?xml version="1.0" encoding="utf-8" standalone="no"?>
<!DOCTYPE svg PUBLIC "-//W3C//DTD SVG 1.1//EN"
  "http://www.w3.org/Graphics/SVG/1.1/DTD/svg11.dtd">
<svg xmlns:xlink="http://www.w3.org/1999/xlink" width="413.064687pt" height="346.716041pt" viewBox="0 0 413.064687 346.716041" xmlns="http://www.w3.org/2000/svg" version="1.1">
 <metadata>
  <rdf:RDF xmlns:dc="http://purl.org/dc/elements/1.1/" xmlns:cc="http://creativecommons.org/ns#" xmlns:rdf="http://www.w3.org/1999/02/22-rdf-syntax-ns#">
   <cc:Work>
    <dc:type rdf:resource="http://purl.org/dc/dcmitype/StillImage"/>
    <dc:date>2024-09-25T06:57:18.977984</dc:date>
    <dc:format>image/svg+xml</dc:format>
    <dc:creator>
     <cc:Agent>
      <dc:title>Matplotlib v3.7.0, https://matplotlib.org/</dc:title>
     </cc:Agent>
    </dc:creator>
   </cc:Work>
  </rdf:RDF>
 </metadata>
 <defs>
  <style type="text/css">*{stroke-linejoin: round; stroke-linecap: butt}</style>
 </defs>
 <g id="figure_1">
  <g id="patch_1">
   <path d="M 0 346.716041 
L 413.064687 346.716041 
L 413.064687 0 
L 0 0 
z
" style="fill: #ffffff"/>
  </g>
  <g id="axes_1">
   <g id="patch_2">
    <path d="M 45.269688 275.101453 
L 402.389688 275.101453 
L 402.389688 8.989453 
L 45.269688 8.989453 
z
" style="fill: #ffffff"/>
   </g>
   <g id="patch_3">
    <path d="M 45.269688 8.989453 
L 53.455823 14.786495 
L 50.46096 15.974274 
L 106.647883 94.638514 
L 106.332635 94.763544 
L 50.145711 16.099303 
L 47.150848 17.287082 
z
" clip-path="url(#pbe99041599)" style="fill: #1f77b4; stroke: #000000; stroke-linejoin: miter"/>
   </g>
   <g id="matplotlib.axis_1">
    <g id="xtick_1">
     <g id="line2d_1">
      <defs>
       <path id="m78f4deb0b0" d="M 0 0 
L 0 3.5 
" style="stroke: #000000; stroke-width: 0.8"/>
      </defs>
      <g>
       <use xlink:href="#m78f4deb0b0" x="45.269688" y="275.101453" style="stroke: #000000; stroke-width: 0.8"/>
      </g>
     </g>
     <g id="text_1">
      <text style="font: 5px 'Arial'; text-anchor: middle" x="45.269688" y="285.680359" transform="rotate(-0 45.269688 285.680359)">0.0</text>
     </g>
    </g>
    <g id="xtick_2">
     <g id="line2d_2">
      <g>
       <use xlink:href="#m78f4deb0b0" x="116.693688" y="275.101453" style="stroke: #000000; stroke-width: 0.8"/>
      </g>
     </g>
     <g id="text_2">
      <text style="font: 5px 'Arial'; text-anchor: middle" x="116.693688" y="285.680359" transform="rotate(-0 116.693688 285.680359)">0.2</text>
     </g>
    </g>
    <g id="xtick_3">
     <g id="line2d_3">
      <g>
       <use xlink:href="#m78f4deb0b0" x="188.117688" y="275.101453" style="stroke: #000000; stroke-width: 0.8"/>
      </g>
     </g>
     <g id="text_3">
      <text style="font: 5px 'Arial'; text-anchor: middle" x="188.117688" y="285.680359" transform="rotate(-0 188.117688 285.680359)">0.4</text>
     </g>
    </g>
    <g id="xtick_4">
     <g id="line2d_4">
      <g>
       <use xlink:href="#m78f4deb0b0" x="259.541688" y="275.101453" style="stroke: #000000; stroke-width: 0.8"/>
      </g>
     </g>
     <g id="text_4">
      <text style="font: 5px 'Arial'; text-anchor: middle" x="259.541688" y="285.680359" transform="rotate(-0 259.541688 285.680359)">0.6</text>
     </g>
    </g>
    <g id="xtick_5">
     <g id="line2d_5">
      <g>
       <use xlink:href="#m78f4deb0b0" x="330.965688" y="275.101453" style="stroke: #000000; stroke-width: 0.8"/>
      </g>
     </g>
     <g id="text_5">
      <text style="font: 5px 'Arial'; text-anchor: middle" x="330.965688" y="285.680359" transform="rotate(-0 330.965688 285.680359)">0.8</text>
     </g>
    </g>
    <g id="xtick_6">
     <g id="line2d_6">
      <g>
       <use xlink:href="#m78f4deb0b0" x="402.389688" y="275.101453" style="stroke: #000000; stroke-width: 0.8"/>
      </g>
     </g>
     <g id="text_6">
      <text style="font: 5px 'Arial'; text-anchor: middle" x="402.389688" y="285.680359" transform="rotate(-0 402.389688 285.680359)">1.0</text>
     </g>
    </g>
    <g id="text_7">
     <text style="font: 22px 'Arial'; text-anchor: middle" x="223.829688" y="306.421297" transform="rotate(-0 223.829688 306.421297)">FPR</text>
    </g>
   </g>
   <g id="matplotlib.axis_2">
    <g id="ytick_1">
     <g id="line2d_7">
      <defs>
       <path id="m438bc4ecbc" d="M 0 0 
L -3.5 0 
" style="stroke: #000000; stroke-width: 0.8"/>
      </defs>
      <g>
       <use xlink:href="#m438bc4ecbc" x="45.269688" y="275.101453" style="stroke: #000000; stroke-width: 0.8"/>
      </g>
     </g>
     <g id="text_8">
      <text style="font: 5px 'Arial'; text-anchor: end" x="38.269688" y="276.890906" transform="rotate(-0 38.269688 276.890906)">0.0</text>
     </g>
    </g>
    <g id="ytick_2">
     <g id="line2d_8">
      <g>
       <use xlink:href="#m438bc4ecbc" x="45.269688" y="221.879053" style="stroke: #000000; stroke-width: 0.8"/>
      </g>
     </g>
     <g id="text_9">
      <text style="font: 5px 'Arial'; text-anchor: end" x="38.269688" y="223.668506" transform="rotate(-0 38.269688 223.668506)">0.2</text>
     </g>
    </g>
    <g id="ytick_3">
     <g id="line2d_9">
      <g>
       <use xlink:href="#m438bc4ecbc" x="45.269688" y="168.656653" style="stroke: #000000; stroke-width: 0.8"/>
      </g>
     </g>
     <g id="text_10">
      <text style="font: 5px 'Arial'; text-anchor: end" x="38.269688" y="170.446106" transform="rotate(-0 38.269688 170.446106)">0.4</text>
     </g>
    </g>
    <g id="ytick_4">
     <g id="line2d_10">
      <g>
       <use xlink:href="#m438bc4ecbc" x="45.269688" y="115.434253" style="stroke: #000000; stroke-width: 0.8"/>
      </g>
     </g>
     <g id="text_11">
      <text style="font: 5px 'Arial'; text-anchor: end" x="38.269688" y="117.223706" transform="rotate(-0 38.269688 117.223706)">0.6</text>
     </g>
    </g>
    <g id="ytick_5">
     <g id="line2d_11">
      <g>
       <use xlink:href="#m438bc4ecbc" x="45.269688" y="62.211853" style="stroke: #000000; stroke-width: 0.8"/>
      </g>
     </g>
     <g id="text_12">
      <text style="font: 5px 'Arial'; text-anchor: end" x="38.269688" y="64.001306" transform="rotate(-0 38.269688 64.001306)">0.8</text>
     </g>
    </g>
    <g id="ytick_6">
     <g id="line2d_12">
      <g>
       <use xlink:href="#m438bc4ecbc" x="45.269688" y="8.989453" style="stroke: #000000; stroke-width: 0.8"/>
      </g>
     </g>
     <g id="text_13">
      <text style="font: 5px 'Arial'; text-anchor: end" x="38.269688" y="10.778906" transform="rotate(-0 38.269688 10.778906)">1.0</text>
     </g>
    </g>
    <g id="text_14">
     <text style="font: 22px 'Arial'; text-anchor: middle" x="22.947188" y="142.045453" transform="rotate(-90 22.947188 142.045453)">TPR</text>
    </g>
   </g>
   <g id="line2d_13">
    <path d="M 45.269688 275.101453 
L 45.269688 274.887709 
L 45.869889 274.887709 
L 45.869889 273.605241 
L 47.070293 273.605241 
L 47.070293 273.391496 
L 47.670494 273.391496 
L 47.670494 271.895284 
L 48.270696 271.895284 
L 48.270696 228.29139 
L 48.870898 228.29139 
L 48.870898 223.375265 
L 49.471099 223.375265 
L 49.471099 218.245395 
L 50.071301 218.245395 
L 50.071301 216.749183 
L 50.671503 216.749183 
L 50.671503 213.970504 
L 51.271704 213.970504 
L 51.271704 211.191824 
L 51.871906 211.191824 
L 51.871906 207.771911 
L 52.472108 207.771911 
L 52.472108 205.634465 
L 53.072309 205.634465 
L 53.072309 200.077106 
L 53.672511 200.077106 
L 53.672511 184.687496 
L 54.272713 184.687496 
L 54.272713 180.62635 
L 54.872914 180.62635 
L 54.872914 178.916393 
L 55.473116 178.916393 
L 55.473116 178.061415 
L 56.073318 178.061415 
L 56.073318 169.511631 
L 56.673519 169.511631 
L 56.673519 166.305463 
L 57.273721 166.305463 
L 57.273721 163.740528 
L 57.873923 163.740528 
L 57.873923 162.671805 
L 59.074326 162.671805 
L 59.074326 162.030571 
L 59.674528 162.030571 
L 59.674528 159.251892 
L 60.27473 159.251892 
L 60.27473 156.259468 
L 61.475133 156.259468 
L 61.475133 154.122022 
L 62.075335 154.122022 
L 62.075335 150.915853 
L 62.675536 150.915853 
L 62.675536 150.274619 
L 63.87594 150.274619 
L 63.87594 149.84713 
L 65.076343 149.84713 
L 65.076343 148.992152 
L 65.676545 148.992152 
L 65.676545 146.213472 
L 66.276746 146.213472 
L 66.276746 145.572239 
L 66.876948 145.572239 
L 66.876948 144.289771 
L 68.077351 144.289771 
L 68.077351 141.724836 
L 68.677553 141.724836 
L 68.677553 140.656113 
L 69.277755 140.656113 
L 69.277755 140.228624 
L 69.877956 140.228624 
L 69.877956 139.373646 
L 70.478158 139.373646 
L 70.478158 137.663689 
L 71.07836 137.663689 
L 71.07836 136.808711 
L 72.278763 136.808711 
L 72.278763 134.88501 
L 72.878965 134.88501 
L 72.878965 133.816287 
L 73.479166 133.816287 
L 73.479166 132.320075 
L 74.079368 132.320075 
L 74.079368 130.610118 
L 74.67957 130.610118 
L 74.67957 129.541395 
L 76.480175 129.541395 
L 76.480175 129.327651 
L 77.080377 129.327651 
L 77.080377 128.686417 
L 77.680578 128.686417 
L 77.680578 127.40395 
L 78.28078 127.40395 
L 78.28078 126.335227 
L 78.880982 126.335227 
L 78.880982 125.907737 
L 80.081385 125.907737 
L 80.081385 125.052759 
L 80.681587 125.052759 
L 80.681587 124.62527 
L 81.281788 124.62527 
L 81.281788 123.556547 
L 82.482192 123.556547 
L 82.482192 123.342803 
L 83.082393 123.342803 
L 83.082393 123.129058 
L 83.682595 123.129058 
L 83.682595 122.915313 
L 84.282797 122.915313 
L 84.282797 122.27408 
L 84.882998 122.27408 
L 84.882998 121.84659 
L 85.4832 121.84659 
L 85.4832 121.205357 
L 86.083402 121.205357 
L 86.083402 120.991612 
L 86.683603 120.991612 
L 86.683603 120.777868 
L 87.283805 120.777868 
L 87.283805 120.350378 
L 88.484209 120.350378 
L 88.484209 117.785443 
L 89.08441 117.785443 
L 89.08441 117.14421 
L 89.684612 117.14421 
L 89.684612 115.861742 
L 90.284814 115.861742 
L 90.284814 115.647998 
L 90.885015 115.647998 
L 90.885015 113.938041 
L 91.485217 113.938041 
L 91.485217 112.228084 
L 92.085419 112.228084 
L 92.085419 111.586851 
L 92.68562 111.586851 
L 92.68562 111.159362 
L 93.886024 111.159362 
L 93.886024 109.66315 
L 94.486225 109.66315 
L 94.486225 108.594427 
L 95.686629 108.594427 
L 95.686629 108.166937 
L 96.887032 108.166937 
L 96.887032 106.670725 
L 97.487234 106.670725 
L 97.487234 105.602003 
L 98.087435 105.602003 
L 98.087435 103.892046 
L 98.687637 103.892046 
L 98.687637 100.899622 
L 99.287839 100.899622 
L 99.287839 100.685877 
L 99.88804 100.685877 
L 99.88804 100.258388 
L 100.488242 100.258388 
L 100.488242 100.044643 
L 101.688645 100.044643 
L 101.688645 99.830899 
L 102.288847 99.830899 
L 102.288847 99.189665 
L 102.889049 99.189665 
L 102.889049 98.975921 
L 104.089452 98.975921 
L 104.089452 98.762176 
L 105.289856 98.762176 
L 105.289856 95.556007 
L 105.890057 95.556007 
L 105.890057 95.128518 
L 106.490259 95.128518 
L 106.490259 94.701029 
L 107.090461 94.701029 
L 107.090461 94.487284 
L 107.690662 94.487284 
L 107.690662 94.27354 
L 108.891066 94.27354 
L 108.891066 94.059795 
L 109.491267 94.059795 
L 109.491267 93.846051 
L 110.091469 93.846051 
L 110.091469 93.418562 
L 112.492276 93.418562 
L 112.492276 92.991072 
L 114.292881 92.991072 
L 114.292881 92.777328 
L 114.893082 92.777328 
L 114.893082 91.92235 
L 116.693688 91.92235 
L 116.693688 91.49486 
L 120.895099 91.49486 
L 120.895099 91.281116 
L 121.495301 91.281116 
L 121.495301 90.853627 
L 122.695704 90.853627 
L 122.695704 90.212393 
L 123.896108 90.212393 
L 123.896108 89.998648 
L 124.496309 89.998648 
L 124.496309 89.571159 
L 125.696713 89.571159 
L 125.696713 89.357415 
L 126.296914 89.357415 
L 126.296914 89.14367 
L 126.897116 89.14367 
L 126.897116 88.929925 
L 127.497318 88.929925 
L 127.497318 87.647458 
L 128.697721 87.647458 
L 128.697721 87.219969 
L 129.297923 87.219969 
L 129.297923 86.79248 
L 130.498326 86.79248 
L 130.498326 86.36499 
L 131.69873 86.36499 
L 131.69873 85.937501 
L 132.298931 85.937501 
L 132.298931 85.510012 
L 132.899133 85.510012 
L 132.899133 85.296268 
L 134.099536 85.296268 
L 134.099536 85.082523 
L 135.29994 85.082523 
L 135.29994 84.868778 
L 135.900141 84.868778 
L 135.900141 84.227545 
L 137.700746 84.227545 
L 137.700746 83.372566 
L 138.300948 83.372566 
L 138.300948 83.158822 
L 138.90115 83.158822 
L 138.90115 80.593887 
L 139.501351 80.593887 
L 139.501351 79.952653 
L 140.101553 79.952653 
L 140.101553 79.097675 
L 141.301956 79.097675 
L 141.301956 78.88393 
L 141.902158 78.88393 
L 141.902158 77.387718 
L 142.50236 77.387718 
L 142.50236 77.173974 
L 143.702763 77.173974 
L 143.702763 76.746484 
L 144.903166 76.746484 
L 144.903166 75.036528 
L 145.503368 75.036528 
L 145.503368 74.395294 
L 146.10357 74.395294 
L 146.10357 73.75406 
L 146.703772 73.75406 
L 146.703772 72.685337 
L 147.303973 72.685337 
L 147.303973 72.471593 
L 147.904175 72.471593 
L 147.904175 71.830359 
L 148.504377 71.830359 
L 148.504377 71.616615 
L 149.104578 71.616615 
L 149.104578 70.975381 
L 149.70478 70.975381 
L 149.70478 70.120403 
L 152.105587 70.120403 
L 152.105587 68.837935 
L 152.705788 68.837935 
L 152.705788 68.196701 
L 153.30599 68.196701 
L 153.30599 66.059256 
L 153.906192 66.059256 
L 153.906192 65.418022 
L 155.106595 65.418022 
L 155.106595 64.990533 
L 156.9072 64.990533 
L 156.9072 64.776788 
L 157.507402 64.776788 
L 157.507402 64.349299 
L 158.107603 64.349299 
L 158.107603 64.135554 
L 158.707805 64.135554 
L 158.707805 63.92181 
L 159.908209 63.92181 
L 159.908209 63.708065 
L 161.108612 63.708065 
L 161.108612 63.280576 
L 161.708814 63.280576 
L 161.708814 63.066831 
L 162.909217 63.066831 
L 162.909217 62.853087 
L 164.10962 62.853087 
L 164.10962 62.425598 
L 166.510427 62.425598 
L 166.510427 62.211853 
L 168.311032 62.211853 
L 168.311032 61.998109 
L 168.911234 61.998109 
L 168.911234 61.356875 
L 169.511435 61.356875 
L 169.511435 60.715641 
L 170.711839 60.715641 
L 170.711839 60.288152 
L 175.513452 60.288152 
L 175.513452 60.074407 
L 176.113654 60.074407 
L 176.113654 59.860663 
L 177.314057 59.860663 
L 177.314057 59.219429 
L 178.514461 59.219429 
L 178.514461 59.005684 
L 179.114662 59.005684 
L 179.114662 58.79194 
L 179.714864 58.79194 
L 179.714864 58.364451 
L 180.315066 58.364451 
L 180.315066 58.150706 
L 180.915267 58.150706 
L 180.915267 57.509472 
L 183.916276 57.509472 
L 183.916276 57.081983 
L 184.516477 57.081983 
L 184.516477 56.868239 
L 186.917284 56.868239 
L 186.917284 56.654494 
L 189.318091 56.654494 
L 189.318091 56.44075 
L 189.918293 56.44075 
L 189.918293 56.227005 
L 190.518494 56.227005 
L 190.518494 55.799516 
L 191.718898 55.799516 
L 191.718898 55.372027 
L 192.319099 55.372027 
L 192.319099 55.158282 
L 192.919301 55.158282 
L 192.919301 54.944537 
L 195.320108 54.944537 
L 195.320108 54.517048 
L 195.920309 54.517048 
L 195.920309 54.303304 
L 197.720914 54.303304 
L 197.720914 54.089559 
L 198.921318 54.089559 
L 198.921318 53.875815 
L 199.521519 53.875815 
L 199.521519 53.448325 
L 200.121721 53.448325 
L 200.121721 53.234581 
L 200.721923 53.234581 
L 200.721923 53.020836 
L 201.322124 53.020836 
L 201.322124 52.807092 
L 201.922326 52.807092 
L 201.922326 52.379603 
L 203.12273 52.379603 
L 203.12273 51.524624 
L 204.323133 51.524624 
L 204.323133 51.31088 
L 208.524545 51.31088 
L 208.524545 51.097135 
L 210.925351 51.097135 
L 210.925351 50.669646 
L 211.525553 50.669646 
L 211.525553 50.028412 
L 212.125755 50.028412 
L 212.125755 49.387178 
L 212.725956 49.387178 
L 212.725956 48.745945 
L 213.92636 48.745945 
L 213.92636 48.318456 
L 218.727973 48.318456 
L 218.727973 47.035988 
L 221.728982 47.035988 
L 221.728982 46.822243 
L 222.329183 46.822243 
L 222.329183 46.608499 
L 222.929385 46.608499 
L 222.929385 46.394754 
L 223.529587 46.394754 
L 223.529587 46.18101 
L 224.129788 46.18101 
L 224.129788 45.967265 
L 225.930393 45.967265 
L 225.930393 45.539776 
L 226.530595 45.539776 
L 226.530595 44.898542 
L 227.130797 44.898542 
L 227.130797 43.829819 
L 228.3312 43.829819 
L 228.3312 43.616075 
L 228.931402 43.616075 
L 228.931402 42.761096 
L 231.332209 42.761096 
L 231.332209 42.333607 
L 231.93241 42.333607 
L 231.93241 41.478629 
L 233.733015 41.478629 
L 233.733015 41.264884 
L 236.133822 41.264884 
L 236.133822 41.05114 
L 236.734024 41.05114 
L 236.734024 40.409906 
L 237.334225 40.409906 
L 237.334225 40.196162 
L 239.735032 40.196162 
L 239.735032 38.27246 
L 242.73604 38.27246 
L 242.73604 38.058716 
L 243.336242 38.058716 
L 243.336242 37.844971 
L 245.737049 37.844971 
L 245.737049 37.417482 
L 246.337251 37.417482 
L 246.337251 37.203737 
L 246.937452 37.203737 
L 246.937452 36.989993 
L 247.537654 36.989993 
L 247.537654 36.135015 
L 248.137856 36.135015 
L 248.137856 35.707525 
L 249.338259 35.707525 
L 249.338259 35.493781 
L 250.538662 35.493781 
L 250.538662 35.280036 
L 251.138864 35.280036 
L 251.138864 34.852547 
L 252.339267 34.852547 
L 252.339267 34.425058 
L 252.939469 34.425058 
L 252.939469 34.211313 
L 253.539671 34.211313 
L 253.539671 33.783824 
L 254.139872 33.783824 
L 254.139872 33.356335 
L 255.340276 33.356335 
L 255.340276 33.14259 
L 255.940477 33.14259 
L 255.940477 32.287612 
L 257.140881 32.287612 
L 257.140881 31.860123 
L 259.541687 31.860123 
L 259.541687 31.646378 
L 260.141889 31.646378 
L 260.141889 30.7914 
L 261.342293 30.7914 
L 261.342293 30.577656 
L 261.942494 30.577656 
L 261.942494 29.936422 
L 262.542696 29.936422 
L 262.542696 29.722677 
L 263.142898 29.722677 
L 263.142898 29.508933 
L 263.743099 29.508933 
L 263.743099 28.867699 
L 265.543704 28.867699 
L 265.543704 28.44021 
L 267.344309 28.44021 
L 267.344309 27.585231 
L 269.745116 27.585231 
L 269.745116 27.371487 
L 270.345318 27.371487 
L 270.345318 26.730253 
L 273.946528 26.730253 
L 273.946528 25.875275 
L 274.54673 25.875275 
L 274.54673 25.66153 
L 275.146931 25.66153 
L 275.146931 25.020296 
L 276.347335 25.020296 
L 276.347335 24.592807 
L 279.348343 24.592807 
L 279.348343 24.165318 
L 282.349351 24.165318 
L 282.349351 23.737829 
L 282.949553 23.737829 
L 282.949553 23.524084 
L 284.750158 23.524084 
L 284.750158 23.096595 
L 285.35036 23.096595 
L 285.35036 22.882851 
L 287.150965 22.882851 
L 287.150965 22.669106 
L 288.351368 22.669106 
L 288.351368 22.027872 
L 288.95157 22.027872 
L 288.95157 21.814128 
L 290.752175 21.814128 
L 290.752175 21.600383 
L 291.952578 21.600383 
L 291.952578 21.386639 
L 292.55278 21.386639 
L 292.55278 20.95915 
L 297.954595 20.95915 
L 297.954595 20.745405 
L 302.756209 20.745405 
L 302.756209 20.53166 
L 303.35641 20.53166 
L 303.35641 20.317916 
L 303.956612 20.317916 
L 303.956612 20.104171 
L 304.556814 20.104171 
L 304.556814 19.676682 
L 305.157015 19.676682 
L 305.157015 19.249193 
L 313.559839 19.249193 
L 313.559839 18.821704 
L 315.360444 18.821704 
L 315.360444 18.607959 
L 316.560847 18.607959 
L 316.560847 18.394215 
L 317.161049 18.394215 
L 317.161049 18.18047 
L 319.561856 18.18047 
L 319.561856 17.966725 
L 320.162057 17.966725 
L 320.162057 17.752981 
L 322.562864 17.752981 
L 322.562864 17.539236 
L 326.164074 17.539236 
L 326.164074 17.111747 
L 328.564881 17.111747 
L 328.564881 16.898003 
L 339.968713 16.898003 
L 339.968713 16.470513 
L 345.370528 16.470513 
L 345.370528 16.256769 
L 346.570931 16.256769 
L 346.570931 16.043024 
L 348.971738 16.043024 
L 348.971738 15.82928 
L 352.572948 15.82928 
L 352.572948 15.615535 
L 357.374561 15.615535 
L 357.374561 15.40179 
L 359.775368 15.40179 
L 359.775368 15.188046 
L 360.975772 15.188046 
L 360.975772 14.974301 
L 361.575973 14.974301 
L 361.575973 14.119323 
L 363.376578 14.119323 
L 363.376578 13.905578 
L 363.97678 13.905578 
L 363.97678 13.691834 
L 364.576982 13.691834 
L 364.576982 13.478089 
L 368.178192 13.478089 
L 368.178192 13.264345 
L 370.578998 13.264345 
L 370.578998 13.0506 
L 371.1792 13.0506 
L 371.1792 12.409366 
L 371.779402 12.409366 
L 371.779402 12.195622 
L 376.581015 12.195622 
L 376.581015 11.981877 
L 377.181217 11.981877 
L 377.181217 11.768133 
L 380.182225 11.768133 
L 380.182225 11.126899 
L 385.58404 11.126899 
L 385.58404 10.913154 
L 386.784444 10.913154 
L 386.784444 10.69941 
L 388.585049 10.69941 
L 388.585049 10.485665 
L 390.385654 10.485665 
L 390.385654 10.271921 
L 393.986864 10.271921 
L 393.986864 10.058176 
L 396.987872 10.058176 
L 396.987872 9.844431 
L 397.588074 9.844431 
L 397.588074 9.416942 
L 398.188276 9.416942 
L 398.188276 9.203198 
L 401.789486 9.203198 
L 401.789486 8.989453 
L 402.389688 8.989453 
L 402.389688 8.989453 
" clip-path="url(#pbe99041599)" style="fill: none; stroke: #ff0000; stroke-width: 1.5; stroke-linecap: square"/>
   </g>
   <g id="line2d_14">
    <defs>
     <path id="m378d08d6fd" d="M 0 3 
C 0.795609 3 1.55874 2.683901 2.12132 2.12132 
C 2.683901 1.55874 3 0.795609 3 0 
C 3 -0.795609 2.683901 -1.55874 2.12132 -2.12132 
C 1.55874 -2.683901 0.795609 -3 0 -3 
C -0.795609 -3 -1.55874 -2.683901 -2.12132 -2.12132 
C -2.683901 -1.55874 -3 -0.795609 -3 0 
C -3 0.795609 -2.683901 1.55874 -2.12132 2.12132 
C -1.55874 2.683901 -0.795609 3 0 3 
z
" style="stroke: #000000"/>
    </defs>
    <g clip-path="url(#pbe99041599)">
     <use xlink:href="#m378d08d6fd" x="106.490259" y="94.701029" style="fill: #ff0000; stroke: #000000"/>
    </g>
   </g>
   <g id="line2d_15">
    <path d="M 45.269688 275.101453 
L 402.389688 8.989453 
" clip-path="url(#pbe99041599)" style="fill: none; stroke: #00bfbf; stroke-width: 1.5; stroke-linecap: square"/>
   </g>
   <g id="patch_4">
    <path d="M 45.269688 275.101453 
L 45.269688 8.989453 
" style="fill: none; stroke: #000000; stroke-width: 0.8; stroke-linejoin: miter; stroke-linecap: square"/>
   </g>
   <g id="patch_5">
    <path d="M 402.389688 275.101453 
L 402.389688 8.989453 
" style="fill: none; stroke: #000000; stroke-width: 0.8; stroke-linejoin: miter; stroke-linecap: square"/>
   </g>
   <g id="patch_6">
    <path d="M 45.269688 275.101453 
L 402.389688 275.101453 
" style="fill: none; stroke: #000000; stroke-width: 0.8; stroke-linejoin: miter; stroke-linecap: square"/>
   </g>
   <g id="patch_7">
    <path d="M 45.269688 8.989453 
L 402.389688 8.989453 
" style="fill: none; stroke: #000000; stroke-width: 0.8; stroke-linejoin: miter; stroke-linecap: square"/>
   </g>
   <g id="legend_1">
    <g id="patch_8">
     <path d="M 163.116406 339.516041 
L 284.542969 339.516041 
Q 285.542969 339.516041 285.542969 338.516041 
L 285.542969 331.823853 
Q 285.542969 330.823853 284.542969 330.823853 
L 163.116406 330.823853 
Q 162.116406 330.823853 162.116406 331.823853 
L 162.116406 338.516041 
Q 162.116406 339.516041 163.116406 339.516041 
z
" style="fill: #ffffff; opacity: 0.8; stroke: #cccccc; stroke-linejoin: miter"/>
    </g>
    <g id="line2d_16">
     <path d="M 164.116406 334.713697 
L 169.116406 334.713697 
L 174.116406 334.713697 
" style="fill: none; stroke: #ff0000; stroke-width: 1.5; stroke-linecap: square"/>
    </g>
    <g id="text_15">
     <text style="font: 5px 'Arial'; text-anchor: start" x="178.116406" y="336.463697" transform="rotate(-0 178.116406 336.463697)">model performance</text>
    </g>
    <g id="line2d_17">
     <path d="M 231.189063 334.713697 
L 236.189063 334.713697 
L 241.189063 334.713697 
" style="fill: none; stroke: #00bfbf; stroke-width: 1.5; stroke-linecap: square"/>
    </g>
    <g id="text_16">
     <text style="font: 5px 'Arial'; text-anchor: start" x="245.189063" y="336.463697" transform="rotate(-0 245.189063 336.463697)">random guessing</text>
    </g>
   </g>
  </g>
 </g>
 <defs>
  <clipPath id="pbe99041599">
   <rect x="45.269688" y="8.989453" width="357.12" height="266.112"/>
  </clipPath>
 </defs>
</svg>
