<?xml version="1.0" encoding="utf-8" standalone="no"?>
<!DOCTYPE svg PUBLIC "-//W3C//DTD SVG 1.1//EN"
  "http://www.w3.org/Graphics/SVG/1.1/DTD/svg11.dtd">
<svg xmlns:xlink="http://www.w3.org/1999/xlink" width="238.114192pt" height="476.126585pt" viewBox="0 0 238.114192 476.126585" xmlns="http://www.w3.org/2000/svg" version="1.1">
 <metadata>
  <rdf:RDF xmlns:dc="http://purl.org/dc/elements/1.1/" xmlns:cc="http://creativecommons.org/ns#" xmlns:rdf="http://www.w3.org/1999/02/22-rdf-syntax-ns#">
   <cc:Work>
    <dc:type rdf:resource="http://purl.org/dc/dcmitype/StillImage"/>
    <dc:date>2024-09-25T17:35:09.797366</dc:date>
    <dc:format>image/svg+xml</dc:format>
    <dc:creator>
     <cc:Agent>
      <dc:title>Matplotlib v3.7.0, https://matplotlib.org/</dc:title>
     </cc:Agent>
    </dc:creator>
   </cc:Work>
  </rdf:RDF>
 </metadata>
 <defs>
  <style type="text/css">*{stroke-linejoin: round; stroke-linecap: butt}</style>
 </defs>
 <g id="figure_1">
  <g id="patch_1">
   <path d="M 0 476.126585 
L 238.114192 476.126585 
L 238.114192 0 
L 0 0 
z
" style="fill: #ffffff"/>
  </g>
  <g id="axes_1">
   <g id="patch_2">
    <path d="M 29.722656 425.939494 
L 227.439192 425.939494 
L 227.439192 22.144219 
L 29.722656 22.144219 
z
" style="fill: #ffffff"/>
   </g>
   <g id="patch_3">
    <path d="M 29.722656 22.144219 
L 34.254843 30.940584 
L 32.596761 32.742905 
L 63.704187 152.107115 
L 63.529652 152.296833 
L 32.422226 32.932623 
L 30.764145 34.734945 
z
" clip-path="url(#p0652d57068)" style="fill: #1f77b4; stroke: #000000; stroke-linejoin: miter"/>
   </g>
   <g id="matplotlib.axis_1">
    <g id="xtick_1">
     <g id="line2d_1">
      <defs>
       <path id="m697d35d18a" d="M 0 0 
L 0 3.5 
" style="stroke: #000000; stroke-width: 0.8"/>
      </defs>
      <g>
       <use xlink:href="#m697d35d18a" x="29.722656" y="425.939494" style="stroke: #000000; stroke-width: 0.8"/>
      </g>
     </g>
     <g id="text_1">
      <text style="font: 5px 'Arial'; text-anchor: middle" x="29.722656" y="436.518401" transform="rotate(-0 29.722656 436.518401)">0.0</text>
     </g>
    </g>
    <g id="xtick_2">
     <g id="line2d_2">
      <g>
       <use xlink:href="#m697d35d18a" x="69.265963" y="425.939494" style="stroke: #000000; stroke-width: 0.8"/>
      </g>
     </g>
     <g id="text_2">
      <text style="font: 5px 'Arial'; text-anchor: middle" x="69.265963" y="436.518401" transform="rotate(-0 69.265963 436.518401)">0.2</text>
     </g>
    </g>
    <g id="xtick_3">
     <g id="line2d_3">
      <g>
       <use xlink:href="#m697d35d18a" x="108.80927" y="425.939494" style="stroke: #000000; stroke-width: 0.8"/>
      </g>
     </g>
     <g id="text_3">
      <text style="font: 5px 'Arial'; text-anchor: middle" x="108.80927" y="436.518401" transform="rotate(-0 108.80927 436.518401)">0.4</text>
     </g>
    </g>
    <g id="xtick_4">
     <g id="line2d_4">
      <g>
       <use xlink:href="#m697d35d18a" x="148.352578" y="425.939494" style="stroke: #000000; stroke-width: 0.8"/>
      </g>
     </g>
     <g id="text_4">
      <text style="font: 5px 'Arial'; text-anchor: middle" x="148.352578" y="436.518401" transform="rotate(-0 148.352578 436.518401)">0.6</text>
     </g>
    </g>
    <g id="xtick_5">
     <g id="line2d_5">
      <g>
       <use xlink:href="#m697d35d18a" x="187.895885" y="425.939494" style="stroke: #000000; stroke-width: 0.8"/>
      </g>
     </g>
     <g id="text_5">
      <text style="font: 5px 'Arial'; text-anchor: middle" x="187.895885" y="436.518401" transform="rotate(-0 187.895885 436.518401)">0.8</text>
     </g>
    </g>
    <g id="xtick_6">
     <g id="line2d_6">
      <g>
       <use xlink:href="#m697d35d18a" x="227.439192" y="425.939494" style="stroke: #000000; stroke-width: 0.8"/>
      </g>
     </g>
     <g id="text_6">
      <text style="font: 5px 'Arial'; text-anchor: middle" x="227.439192" y="436.518401" transform="rotate(-0 227.439192 436.518401)">1.0</text>
     </g>
    </g>
    <g id="text_7">
     <text style="font: 5px 'Arial'; text-anchor: middle" x="128.580924" y="445.091057" transform="rotate(-0 128.580924 445.091057)">FPR</text>
    </g>
   </g>
   <g id="matplotlib.axis_2">
    <g id="ytick_1">
     <g id="line2d_7">
      <defs>
       <path id="m3393bb24bf" d="M 0 0 
L -3.5 0 
" style="stroke: #000000; stroke-width: 0.8"/>
      </defs>
      <g>
       <use xlink:href="#m3393bb24bf" x="29.722656" y="425.939494" style="stroke: #000000; stroke-width: 0.8"/>
      </g>
     </g>
     <g id="text_8">
      <text style="font: 5px 'Arial'; text-anchor: end" x="22.722656" y="427.728947" transform="rotate(-0 22.722656 427.728947)">0.0</text>
     </g>
    </g>
    <g id="ytick_2">
     <g id="line2d_8">
      <g>
       <use xlink:href="#m3393bb24bf" x="29.722656" y="345.180439" style="stroke: #000000; stroke-width: 0.8"/>
      </g>
     </g>
     <g id="text_9">
      <text style="font: 5px 'Arial'; text-anchor: end" x="22.722656" y="346.969892" transform="rotate(-0 22.722656 346.969892)">0.2</text>
     </g>
    </g>
    <g id="ytick_3">
     <g id="line2d_9">
      <g>
       <use xlink:href="#m3393bb24bf" x="29.722656" y="264.421384" style="stroke: #000000; stroke-width: 0.8"/>
      </g>
     </g>
     <g id="text_10">
      <text style="font: 5px 'Arial'; text-anchor: end" x="22.722656" y="266.210837" transform="rotate(-0 22.722656 266.210837)">0.4</text>
     </g>
    </g>
    <g id="ytick_4">
     <g id="line2d_10">
      <g>
       <use xlink:href="#m3393bb24bf" x="29.722656" y="183.662329" style="stroke: #000000; stroke-width: 0.8"/>
      </g>
     </g>
     <g id="text_11">
      <text style="font: 5px 'Arial'; text-anchor: end" x="22.722656" y="185.451782" transform="rotate(-0 22.722656 185.451782)">0.6</text>
     </g>
    </g>
    <g id="ytick_5">
     <g id="line2d_11">
      <g>
       <use xlink:href="#m3393bb24bf" x="29.722656" y="102.903274" style="stroke: #000000; stroke-width: 0.8"/>
      </g>
     </g>
     <g id="text_12">
      <text style="font: 5px 'Arial'; text-anchor: end" x="22.722656" y="104.692727" transform="rotate(-0 22.722656 104.692727)">0.8</text>
     </g>
    </g>
    <g id="ytick_6">
     <g id="line2d_12">
      <g>
       <use xlink:href="#m3393bb24bf" x="29.722656" y="22.144219" style="stroke: #000000; stroke-width: 0.8"/>
      </g>
     </g>
     <g id="text_13">
      <text style="font: 5px 'Arial'; text-anchor: end" x="22.722656" y="23.933672" transform="rotate(-0 22.722656 23.933672)">1.0</text>
     </g>
    </g>
    <g id="text_14">
     <text style="font: 5px 'Arial'; text-anchor: middle" x="10.778906" y="224.041857" transform="rotate(-90 10.778906 224.041857)">TPR</text>
    </g>
   </g>
   <g id="line2d_13">
    <path d="M 29.722656 425.939494 
L 29.722656 425.615161 
L 30.054953 425.615161 
L 30.054953 423.669159 
L 30.719546 423.669159 
L 30.719546 423.344826 
L 31.051843 423.344826 
L 31.051843 421.074491 
L 31.38414 421.074491 
L 31.38414 354.910446 
L 31.716436 354.910446 
L 31.716436 347.450774 
L 32.048733 347.450774 
L 32.048733 339.666769 
L 32.38103 339.666769 
L 32.38103 337.396434 
L 32.713327 337.396434 
L 32.713327 333.180098 
L 33.045623 333.180098 
L 33.045623 328.963761 
L 33.37792 328.963761 
L 33.37792 323.774425 
L 33.710217 323.774425 
L 33.710217 320.531089 
L 34.042513 320.531089 
L 34.042513 312.098417 
L 34.37481 312.098417 
L 34.37481 288.746401 
L 34.707107 288.746401 
L 34.707107 282.584063 
L 35.039403 282.584063 
L 35.039403 279.989395 
L 35.3717 279.989395 
L 35.3717 278.692061 
L 35.703997 278.692061 
L 35.703997 265.718718 
L 36.036294 265.718718 
L 36.036294 260.853715 
L 36.36859 260.853715 
L 36.36859 256.961712 
L 36.700887 256.961712 
L 36.700887 255.340045 
L 37.36548 255.340045 
L 37.36548 254.367044 
L 37.697777 254.367044 
L 37.697777 250.150708 
L 38.030074 250.150708 
L 38.030074 245.610038 
L 38.694667 245.610038 
L 38.694667 242.366702 
L 39.026964 242.366702 
L 39.026964 237.501699 
L 39.35926 237.501699 
L 39.35926 236.528698 
L 40.023854 236.528698 
L 40.023854 235.880031 
L 40.688447 235.880031 
L 40.688447 234.582697 
L 41.020744 234.582697 
L 41.020744 230.366361 
L 41.353041 230.366361 
L 41.353041 229.39336 
L 41.685337 229.39336 
L 41.685337 227.447359 
L 42.349931 227.447359 
L 42.349931 223.555356 
L 42.682227 223.555356 
L 42.682227 221.933688 
L 43.014524 221.933688 
L 43.014524 221.285021 
L 43.346821 221.285021 
L 43.346821 219.987687 
L 43.679118 219.987687 
L 43.679118 217.393019 
L 44.011414 217.393019 
L 44.011414 216.095684 
L 44.676008 216.095684 
L 44.676008 213.176682 
L 45.008304 213.176682 
L 45.008304 211.555015 
L 45.340601 211.555015 
L 45.340601 209.28468 
L 45.672898 209.28468 
L 45.672898 206.690011 
L 46.005194 206.690011 
L 46.005194 205.068344 
L 47.002085 205.068344 
L 47.002085 204.74401 
L 47.334381 204.74401 
L 47.334381 203.771009 
L 47.666678 203.771009 
L 47.666678 201.825008 
L 47.998975 201.825008 
L 47.998975 200.20334 
L 48.331271 200.20334 
L 48.331271 199.554673 
L 48.995865 199.554673 
L 48.995865 198.257339 
L 49.328161 198.257339 
L 49.328161 197.608672 
L 49.660458 197.608672 
L 49.660458 195.987004 
L 50.325052 195.987004 
L 50.325052 195.662671 
L 50.657348 195.662671 
L 50.657348 195.338337 
L 50.989645 195.338337 
L 50.989645 195.014003 
L 51.321942 195.014003 
L 51.321942 194.041003 
L 51.654238 194.041003 
L 51.654238 193.392336 
L 51.986535 193.392336 
L 51.986535 192.419335 
L 52.318832 192.419335 
L 52.318832 192.095001 
L 52.651128 192.095001 
L 52.651128 191.770668 
L 52.983425 191.770668 
L 52.983425 191.122001 
L 53.648019 191.122001 
L 53.648019 187.229998 
L 53.980315 187.229998 
L 53.980315 186.256997 
L 54.312612 186.256997 
L 54.312612 184.310996 
L 54.644909 184.310996 
L 54.644909 183.986663 
L 54.977205 183.986663 
L 54.977205 181.391994 
L 55.309502 181.391994 
L 55.309502 178.797326 
L 55.641799 178.797326 
L 55.641799 177.824325 
L 55.974095 177.824325 
L 55.974095 177.175658 
L 56.638689 177.175658 
L 56.638689 174.905323 
L 56.970986 174.905323 
L 56.970986 173.283655 
L 57.635579 173.283655 
L 57.635579 172.634988 
L 58.300172 172.634988 
L 58.300172 170.364653 
L 58.632469 170.364653 
L 58.632469 168.742985 
L 58.964766 168.742985 
L 58.964766 166.148317 
L 59.297062 166.148317 
L 59.297062 161.607647 
L 59.629359 161.607647 
L 59.629359 161.283314 
L 59.961656 161.283314 
L 59.961656 160.634647 
L 60.293952 160.634647 
L 60.293952 160.310313 
L 60.958546 160.310313 
L 60.958546 159.985979 
L 61.290843 159.985979 
L 61.290843 159.012979 
L 61.623139 159.012979 
L 61.623139 158.688645 
L 62.287733 158.688645 
L 62.287733 158.364312 
L 62.952326 158.364312 
L 62.952326 153.499308 
L 63.284623 153.499308 
L 63.284623 152.850641 
L 63.616919 152.850641 
L 63.616919 152.201974 
L 63.949216 152.201974 
L 63.949216 151.877641 
L 64.281513 151.877641 
L 64.281513 151.553307 
L 64.946106 151.553307 
L 64.946106 151.228974 
L 65.278403 151.228974 
L 65.278403 150.90464 
L 65.6107 150.90464 
L 65.6107 150.255973 
L 66.939886 150.255973 
L 66.939886 149.607306 
L 67.936777 149.607306 
L 67.936777 149.282972 
L 68.269073 149.282972 
L 68.269073 147.985638 
L 69.265963 147.985638 
L 69.265963 147.336971 
L 71.59204 147.336971 
L 71.59204 147.012637 
L 71.924337 147.012637 
L 71.924337 146.36397 
L 72.58893 146.36397 
L 72.58893 145.39097 
L 73.253524 145.39097 
L 73.253524 145.066636 
L 73.58582 145.066636 
L 73.58582 144.417969 
L 74.250414 144.417969 
L 74.250414 144.093635 
L 74.582711 144.093635 
L 74.582711 143.769302 
L 74.915007 143.769302 
L 74.915007 143.444968 
L 75.247304 143.444968 
L 75.247304 141.498967 
L 75.911897 141.498967 
L 75.911897 140.8503 
L 76.244194 140.8503 
L 76.244194 140.201633 
L 76.908787 140.201633 
L 76.908787 139.552966 
L 77.573381 139.552966 
L 77.573381 138.904298 
L 77.905677 138.904298 
L 77.905677 138.255631 
L 78.237974 138.255631 
L 78.237974 137.931298 
L 78.902568 137.931298 
L 78.902568 137.606964 
L 79.567161 137.606964 
L 79.567161 137.282631 
L 79.899458 137.282631 
L 79.899458 136.30963 
L 80.896348 136.30963 
L 80.896348 135.012296 
L 81.228644 135.012296 
L 81.228644 134.687962 
L 81.560941 134.687962 
L 81.560941 130.79596 
L 81.893238 130.79596 
L 81.893238 129.822959 
L 82.225535 129.822959 
L 82.225535 128.525625 
L 82.890128 128.525625 
L 82.890128 128.201291 
L 83.222425 128.201291 
L 83.222425 125.930956 
L 83.554721 125.930956 
L 83.554721 125.606623 
L 84.219315 125.606623 
L 84.219315 124.957956 
L 84.883908 124.957956 
L 84.883908 122.363287 
L 85.216205 122.363287 
L 85.216205 121.390286 
L 85.548502 121.390286 
L 85.548502 120.417286 
L 85.880798 120.417286 
L 85.880798 118.795618 
L 86.213095 118.795618 
L 86.213095 118.471284 
L 86.545392 118.471284 
L 86.545392 117.498284 
L 86.877688 117.498284 
L 86.877688 117.17395 
L 87.209985 117.17395 
L 87.209985 116.20095 
L 87.542282 116.20095 
L 87.542282 114.903615 
L 88.871469 114.903615 
L 88.871469 112.957614 
L 89.203765 112.957614 
L 89.203765 111.984613 
L 89.536062 111.984613 
L 89.536062 108.741278 
L 89.868359 108.741278 
L 89.868359 107.768277 
L 90.532952 107.768277 
L 90.532952 107.11961 
L 91.529842 107.11961 
L 91.529842 106.795277 
L 91.862139 106.795277 
L 91.862139 106.146609 
L 92.194436 106.146609 
L 92.194436 105.822276 
L 92.526732 105.822276 
L 92.526732 105.497942 
L 93.191326 105.497942 
L 93.191326 105.173609 
L 93.855919 105.173609 
L 93.855919 104.524942 
L 94.188216 104.524942 
L 94.188216 104.200608 
L 94.852809 104.200608 
L 94.852809 103.876275 
L 95.517402 103.876275 
L 95.517402 103.227607 
L 96.846589 103.227607 
L 96.846589 102.903274 
L 97.843479 102.903274 
L 97.843479 102.57894 
L 98.175776 102.57894 
L 98.175776 101.60594 
L 98.508073 101.60594 
L 98.508073 100.632939 
L 99.172666 100.632939 
L 99.172666 99.984272 
L 101.83104 99.984272 
L 101.83104 99.659938 
L 102.163336 99.659938 
L 102.163336 99.335605 
L 102.82793 99.335605 
L 102.82793 98.362604 
L 103.492523 98.362604 
L 103.492523 98.038271 
L 103.82482 98.038271 
L 103.82482 97.713937 
L 104.157117 97.713937 
L 104.157117 97.06527 
L 104.489413 97.06527 
L 104.489413 96.740936 
L 104.82171 96.740936 
L 104.82171 95.767936 
L 106.483194 95.767936 
L 106.483194 95.119269 
L 106.81549 95.119269 
L 106.81549 94.794935 
L 108.144677 94.794935 
L 108.144677 94.470601 
L 109.473864 94.470601 
L 109.473864 94.146268 
L 109.806161 94.146268 
L 109.806161 93.821934 
L 110.138457 93.821934 
L 110.138457 93.173267 
L 110.803051 93.173267 
L 110.803051 92.5246 
L 111.135347 92.5246 
L 111.135347 92.200267 
L 111.467644 92.200267 
L 111.467644 91.875933 
L 112.796831 91.875933 
L 112.796831 91.227266 
L 113.129127 91.227266 
L 113.129127 90.902932 
L 114.126018 90.902932 
L 114.126018 90.578599 
L 114.790611 90.578599 
L 114.790611 90.254265 
L 115.122908 90.254265 
L 115.122908 89.605598 
L 115.455204 89.605598 
L 115.455204 89.281265 
L 115.787501 89.281265 
L 115.787501 88.956931 
L 116.119798 88.956931 
L 116.119798 88.632597 
L 116.452094 88.632597 
L 116.452094 87.98393 
L 117.116688 87.98393 
L 117.116688 86.686596 
L 117.781281 86.686596 
L 117.781281 86.362263 
L 120.107358 86.362263 
L 120.107358 86.037929 
L 121.436545 86.037929 
L 121.436545 85.389262 
L 121.768842 85.389262 
L 121.768842 84.416261 
L 122.101138 84.416261 
L 122.101138 83.443261 
L 122.433435 83.443261 
L 122.433435 82.47026 
L 123.098028 82.47026 
L 123.098028 81.821593 
L 125.756402 81.821593 
L 125.756402 79.875591 
L 127.417886 79.875591 
L 127.417886 79.551258 
L 127.750182 79.551258 
L 127.750182 79.226924 
L 128.082479 79.226924 
L 128.082479 78.902591 
L 128.414776 78.902591 
L 128.414776 78.578257 
L 128.747072 78.578257 
L 128.747072 78.253924 
L 129.743962 78.253924 
L 129.743962 77.605257 
L 130.076259 77.605257 
L 130.076259 76.632256 
L 130.408556 76.632256 
L 130.408556 75.010588 
L 131.073149 75.010588 
L 131.073149 74.686255 
L 131.405446 74.686255 
L 131.405446 73.38892 
L 132.734633 73.38892 
L 132.734633 72.740253 
L 133.066929 72.740253 
L 133.066929 71.442919 
L 134.063819 71.442919 
L 134.063819 71.118586 
L 135.393006 71.118586 
L 135.393006 70.794252 
L 135.725303 70.794252 
L 135.725303 69.821251 
L 136.0576 69.821251 
L 136.0576 69.496918 
L 137.386786 69.496918 
L 137.386786 66.577916 
L 139.04827 66.577916 
L 139.04827 66.253582 
L 139.380567 66.253582 
L 139.380567 65.929249 
L 140.709753 65.929249 
L 140.709753 65.280582 
L 141.04205 65.280582 
L 141.04205 64.956248 
L 141.374347 64.956248 
L 141.374347 64.631914 
L 141.706644 64.631914 
L 141.706644 63.33458 
L 142.03894 63.33458 
L 142.03894 62.685913 
L 142.703534 62.685913 
L 142.703534 62.36158 
L 143.368127 62.36158 
L 143.368127 62.037246 
L 143.700424 62.037246 
L 143.700424 61.388579 
L 144.365017 61.388579 
L 144.365017 60.739912 
L 144.697314 60.739912 
L 144.697314 60.415578 
L 145.029611 60.415578 
L 145.029611 59.766911 
L 145.361907 59.766911 
L 145.361907 59.118244 
L 146.026501 59.118244 
L 146.026501 58.79391 
L 146.358797 58.79391 
L 146.358797 57.496576 
L 147.023391 57.496576 
L 147.023391 56.847909 
L 148.352578 56.847909 
L 148.352578 56.523576 
L 148.684874 56.523576 
L 148.684874 55.226241 
L 149.349468 55.226241 
L 149.349468 54.901908 
L 149.681764 54.901908 
L 149.681764 53.928907 
L 150.014061 53.928907 
L 150.014061 53.604574 
L 150.346358 53.604574 
L 150.346358 53.28024 
L 150.678654 53.28024 
L 150.678654 52.307239 
L 151.675544 52.307239 
L 151.675544 51.658572 
L 152.672435 51.658572 
L 152.672435 50.361238 
L 154.001621 50.361238 
L 154.001621 50.036904 
L 154.333918 50.036904 
L 154.333918 49.063904 
L 156.327698 49.063904 
L 156.327698 47.76657 
L 156.659995 47.76657 
L 156.659995 47.442236 
L 156.992292 47.442236 
L 156.992292 46.469235 
L 157.656885 46.469235 
L 157.656885 45.820568 
L 159.318369 45.820568 
L 159.318369 45.171901 
L 160.979852 45.171901 
L 160.979852 44.523234 
L 161.312149 44.523234 
L 161.312149 44.1989 
L 162.309039 44.1989 
L 162.309039 43.550233 
L 162.641336 43.550233 
L 162.641336 43.2259 
L 163.638226 43.2259 
L 163.638226 42.901566 
L 164.302819 42.901566 
L 164.302819 41.928566 
L 164.635116 41.928566 
L 164.635116 41.604232 
L 165.632006 41.604232 
L 165.632006 41.279898 
L 166.296599 41.279898 
L 166.296599 40.955565 
L 166.628896 40.955565 
L 166.628896 40.306898 
L 169.619566 40.306898 
L 169.619566 39.982564 
L 172.27794 39.982564 
L 172.27794 39.658231 
L 172.610236 39.658231 
L 172.610236 39.333897 
L 172.942533 39.333897 
L 172.942533 39.009564 
L 173.27483 39.009564 
L 173.27483 38.360896 
L 173.607127 38.360896 
L 173.607127 37.712229 
L 178.25928 37.712229 
L 178.25928 37.063562 
L 179.25617 37.063562 
L 179.25617 36.739229 
L 179.920764 36.739229 
L 179.920764 36.414895 
L 180.253061 36.414895 
L 180.253061 36.090562 
L 181.582247 36.090562 
L 181.582247 35.766228 
L 181.914544 35.766228 
L 181.914544 35.441894 
L 183.243731 35.441894 
L 183.243731 35.117561 
L 185.237511 35.117561 
L 185.237511 34.468894 
L 186.566698 34.468894 
L 186.566698 34.14456 
L 192.880335 34.14456 
L 192.880335 33.495893 
L 195.871005 33.495893 
L 195.871005 33.17156 
L 196.535599 33.17156 
L 196.535599 32.847226 
L 197.864786 32.847226 
L 197.864786 32.522893 
L 199.858566 32.522893 
L 199.858566 32.198559 
L 202.516939 32.198559 
L 202.516939 31.874225 
L 203.846126 31.874225 
L 203.846126 31.549892 
L 204.51072 31.549892 
L 204.51072 31.225558 
L 204.843016 31.225558 
L 204.843016 29.928224 
L 205.839906 29.928224 
L 205.839906 29.603891 
L 206.172203 29.603891 
L 206.172203 29.279557 
L 206.5045 29.279557 
L 206.5045 28.955223 
L 208.49828 28.955223 
L 208.49828 28.63089 
L 209.827467 28.63089 
L 209.827467 28.306556 
L 210.159763 28.306556 
L 210.159763 27.333556 
L 210.49206 27.333556 
L 210.49206 27.009222 
L 213.150434 27.009222 
L 213.150434 26.684889 
L 213.48273 26.684889 
L 213.48273 26.360555 
L 215.144214 26.360555 
L 215.144214 25.387554 
L 218.134884 25.387554 
L 218.134884 25.063221 
L 218.799478 25.063221 
L 218.799478 24.738887 
L 219.796368 24.738887 
L 219.796368 24.414554 
L 220.793258 24.414554 
L 220.793258 24.09022 
L 222.787038 24.09022 
L 222.787038 23.765887 
L 224.448521 23.765887 
L 224.448521 23.441553 
L 224.780818 23.441553 
L 224.780818 22.792886 
L 225.113115 22.792886 
L 225.113115 22.468552 
L 227.106895 22.468552 
L 227.106895 22.144219 
L 227.439192 22.144219 
L 227.439192 22.144219 
" clip-path="url(#p0652d57068)" style="fill: none; stroke: #ff0000; stroke-width: 1.5; stroke-linecap: square"/>
   </g>
   <g id="line2d_14">
    <defs>
     <path id="m5c5d5778de" d="M 0 3 
C 0.795609 3 1.55874 2.683901 2.12132 2.12132 
C 2.683901 1.55874 3 0.795609 3 0 
C 3 -0.795609 2.683901 -1.55874 2.12132 -2.12132 
C 1.55874 -2.683901 0.795609 -3 0 -3 
C -0.795609 -3 -1.55874 -2.683901 -2.12132 -2.12132 
C -2.683901 -1.55874 -3 -0.795609 -3 0 
C -3 0.795609 -2.683901 1.55874 -2.12132 2.12132 
C -1.55874 2.683901 -0.795609 3 0 3 
z
" style="stroke: #000000"/>
    </defs>
    <g clip-path="url(#p0652d57068)">
     <use xlink:href="#m5c5d5778de" x="63.616919" y="152.201974" style="fill: #ff0000; stroke: #000000"/>
    </g>
   </g>
   <g id="line2d_15">
    <path d="M 29.722656 425.939494 
L 227.439192 22.144219 
" clip-path="url(#p0652d57068)" style="fill: none; stroke: #00bfbf; stroke-width: 1.5; stroke-linecap: square"/>
   </g>
   <g id="patch_4">
    <path d="M 29.722656 425.939494 
L 29.722656 22.144219 
" style="fill: none; stroke: #000000; stroke-width: 0.8; stroke-linejoin: miter; stroke-linecap: square"/>
   </g>
   <g id="patch_5">
    <path d="M 227.439192 425.939494 
L 227.439192 22.144219 
" style="fill: none; stroke: #000000; stroke-width: 0.8; stroke-linejoin: miter; stroke-linecap: square"/>
   </g>
   <g id="patch_6">
    <path d="M 29.722656 425.939494 
L 227.439192 425.939494 
" style="fill: none; stroke: #000000; stroke-width: 0.8; stroke-linejoin: miter; stroke-linecap: square"/>
   </g>
   <g id="patch_7">
    <path d="M 29.722656 22.144219 
L 227.439192 22.144219 
" style="fill: none; stroke: #000000; stroke-width: 0.8; stroke-linejoin: miter; stroke-linecap: square"/>
   </g>
   <g id="text_15">
    <text style="font: 5px 'Arial'" transform="translate(117.786393 10.778906)">SP model</text>
    <text style="font: 5px 'Arial'" transform="translate(76.346158 16.144219)">Receiver Operating Characteristic (ROC) curve</text>
   </g>
   <g id="legend_1">
    <g id="patch_8">
     <path d="M 67.867643 468.926585 
L 189.294205 468.926585 
Q 190.294205 468.926585 190.294205 467.926585 
L 190.294205 461.234398 
Q 190.294205 460.234398 189.294205 460.234398 
L 67.867643 460.234398 
Q 66.867643 460.234398 66.867643 461.234398 
L 66.867643 467.926585 
Q 66.867643 468.926585 67.867643 468.926585 
z
" style="fill: #ffffff; opacity: 0.8; stroke: #cccccc; stroke-linejoin: miter"/>
    </g>
    <g id="line2d_16">
     <path d="M 68.867643 464.124242 
L 73.867643 464.124242 
L 78.867643 464.124242 
" style="fill: none; stroke: #ff0000; stroke-width: 1.5; stroke-linecap: square"/>
    </g>
    <g id="text_16">
     <text style="font: 5px 'Arial'; text-anchor: start" x="82.867643" y="465.874242" transform="rotate(-0 82.867643 465.874242)">model performance</text>
    </g>
    <g id="line2d_17">
     <path d="M 135.940299 464.124242 
L 140.940299 464.124242 
L 145.940299 464.124242 
" style="fill: none; stroke: #00bfbf; stroke-width: 1.5; stroke-linecap: square"/>
    </g>
    <g id="text_17">
     <text style="font: 5px 'Arial'; text-anchor: start" x="149.940299" y="465.874242" transform="rotate(-0 149.940299 465.874242)">random guessing</text>
    </g>
   </g>
  </g>
 </g>
 <defs>
  <clipPath id="p0652d57068">
   <rect x="29.722656" y="22.144219" width="197.716535" height="403.795276"/>
  </clipPath>
 </defs>
</svg>
