<?xml version="1.0" encoding="utf-8" standalone="no"?>
<!DOCTYPE svg PUBLIC "-//W3C//DTD SVG 1.1//EN"
  "http://www.w3.org/Graphics/SVG/1.1/DTD/svg11.dtd">
<svg xmlns:xlink="http://www.w3.org/1999/xlink" width="242.837664pt" height="268.2336pt" viewBox="0 0 242.837664 268.2336" xmlns="http://www.w3.org/2000/svg" version="1.1">
 <metadata>
  <rdf:RDF xmlns:dc="http://purl.org/dc/elements/1.1/" xmlns:cc="http://creativecommons.org/ns#" xmlns:rdf="http://www.w3.org/1999/02/22-rdf-syntax-ns#">
   <cc:Work>
    <dc:type rdf:resource="http://purl.org/dc/dcmitype/StillImage"/>
    <dc:date>2024-09-26T15:00:00.512037</dc:date>
    <dc:format>image/svg+xml</dc:format>
    <dc:creator>
     <cc:Agent>
      <dc:title>Matplotlib v3.7.0, https://matplotlib.org/</dc:title>
     </cc:Agent>
    </dc:creator>
   </cc:Work>
  </rdf:RDF>
 </metadata>
 <defs>
  <style type="text/css">*{stroke-linejoin: round; stroke-linecap: butt}</style>
 </defs>
 <g id="figure_1">
  <g id="patch_1">
   <path d="M -0 268.2336 
L 242.837664 268.2336 
L 242.837664 0 
L -0 0 
z
" style="fill: #ffffff"/>
  </g>
  <g id="axes_1">
   <g id="patch_2">
    <path d="M 34.331719 222.162851 
L 230.772664 222.162851 
L 230.772664 25.721906 
L 34.331719 25.721906 
z
" style="fill: #ffffff"/>
   </g>
   <g id="patch_3">
    <path d="M 34.331719 25.721906 
L 39.660228 28.915028 
L 38.24398 30.130307 
L 77.326128 75.675438 
L 77.17705 75.803362 
L 38.094901 30.258231 
L 36.678653 31.47351 
z
" clip-path="url(#p9852afbe3d)" style="fill: #1f77b4; stroke: #000000; stroke-linejoin: miter"/>
   </g>
   <g id="matplotlib.axis_1">
    <g id="xtick_1">
     <g id="line2d_1">
      <defs>
       <path id="mace37cc50d" d="M 0 0 
L 0 3.5 
" style="stroke: #000000; stroke-width: 0.8"/>
      </defs>
      <g>
       <use xlink:href="#mace37cc50d" x="34.331719" y="222.162851" style="stroke: #000000; stroke-width: 0.8"/>
      </g>
     </g>
     <g id="text_1">
      <text style="font: 7px 'Arial'; text-anchor: middle" x="34.331719" y="234.17332" transform="rotate(-0 34.331719 234.17332)">0.0</text>
     </g>
    </g>
    <g id="xtick_2">
     <g id="line2d_2">
      <g>
       <use xlink:href="#mace37cc50d" x="73.619908" y="222.162851" style="stroke: #000000; stroke-width: 0.8"/>
      </g>
     </g>
     <g id="text_2">
      <text style="font: 7px 'Arial'; text-anchor: middle" x="73.619908" y="234.17332" transform="rotate(-0 73.619908 234.17332)">0.2</text>
     </g>
    </g>
    <g id="xtick_3">
     <g id="line2d_3">
      <g>
       <use xlink:href="#mace37cc50d" x="112.908097" y="222.162851" style="stroke: #000000; stroke-width: 0.8"/>
      </g>
     </g>
     <g id="text_3">
      <text style="font: 7px 'Arial'; text-anchor: middle" x="112.908097" y="234.17332" transform="rotate(-0 112.908097 234.17332)">0.4</text>
     </g>
    </g>
    <g id="xtick_4">
     <g id="line2d_4">
      <g>
       <use xlink:href="#mace37cc50d" x="152.196286" y="222.162851" style="stroke: #000000; stroke-width: 0.8"/>
      </g>
     </g>
     <g id="text_4">
      <text style="font: 7px 'Arial'; text-anchor: middle" x="152.196286" y="234.17332" transform="rotate(-0 152.196286 234.17332)">0.6</text>
     </g>
    </g>
    <g id="xtick_5">
     <g id="line2d_5">
      <g>
       <use xlink:href="#mace37cc50d" x="191.484475" y="222.162851" style="stroke: #000000; stroke-width: 0.8"/>
      </g>
     </g>
     <g id="text_5">
      <text style="font: 7px 'Arial'; text-anchor: middle" x="191.484475" y="234.17332" transform="rotate(-0 191.484475 234.17332)">0.8</text>
     </g>
    </g>
    <g id="xtick_6">
     <g id="line2d_6">
      <g>
       <use xlink:href="#mace37cc50d" x="230.772664" y="222.162851" style="stroke: #000000; stroke-width: 0.8"/>
      </g>
     </g>
     <g id="text_6">
      <text style="font: 7px 'Arial'; text-anchor: middle" x="230.772664" y="234.17332" transform="rotate(-0 230.772664 234.17332)">1.0</text>
     </g>
    </g>
    <g id="text_7">
     <text style="font: 7px 'Arial'; text-anchor: middle" x="132.552191" y="244.575039" transform="rotate(-0 132.552191 244.575039)">FPR</text>
    </g>
   </g>
   <g id="matplotlib.axis_2">
    <g id="ytick_1">
     <g id="line2d_7">
      <defs>
       <path id="m95b2d755fa" d="M 0 0 
L -3.5 0 
" style="stroke: #000000; stroke-width: 0.8"/>
      </defs>
      <g>
       <use xlink:href="#m95b2d755fa" x="34.331719" y="222.162851" style="stroke: #000000; stroke-width: 0.8"/>
      </g>
     </g>
     <g id="text_8">
      <text style="font: 7px 'Arial'; text-anchor: end" x="27.331719" y="224.668086" transform="rotate(-0 27.331719 224.668086)">0.0</text>
     </g>
    </g>
    <g id="ytick_2">
     <g id="line2d_8">
      <g>
       <use xlink:href="#m95b2d755fa" x="34.331719" y="182.874662" style="stroke: #000000; stroke-width: 0.8"/>
      </g>
     </g>
     <g id="text_9">
      <text style="font: 7px 'Arial'; text-anchor: end" x="27.331719" y="185.379897" transform="rotate(-0 27.331719 185.379897)">0.2</text>
     </g>
    </g>
    <g id="ytick_3">
     <g id="line2d_9">
      <g>
       <use xlink:href="#m95b2d755fa" x="34.331719" y="143.586473" style="stroke: #000000; stroke-width: 0.8"/>
      </g>
     </g>
     <g id="text_10">
      <text style="font: 7px 'Arial'; text-anchor: end" x="27.331719" y="146.091708" transform="rotate(-0 27.331719 146.091708)">0.4</text>
     </g>
    </g>
    <g id="ytick_4">
     <g id="line2d_10">
      <g>
       <use xlink:href="#m95b2d755fa" x="34.331719" y="104.298284" style="stroke: #000000; stroke-width: 0.8"/>
      </g>
     </g>
     <g id="text_11">
      <text style="font: 7px 'Arial'; text-anchor: end" x="27.331719" y="106.803519" transform="rotate(-0 27.331719 106.803519)">0.6</text>
     </g>
    </g>
    <g id="ytick_5">
     <g id="line2d_11">
      <g>
       <use xlink:href="#m95b2d755fa" x="34.331719" y="65.010095" style="stroke: #000000; stroke-width: 0.8"/>
      </g>
     </g>
     <g id="text_12">
      <text style="font: 7px 'Arial'; text-anchor: end" x="27.331719" y="67.51533" transform="rotate(-0 27.331719 67.51533)">0.8</text>
     </g>
    </g>
    <g id="ytick_6">
     <g id="line2d_12">
      <g>
       <use xlink:href="#m95b2d755fa" x="34.331719" y="25.721906" style="stroke: #000000; stroke-width: 0.8"/>
      </g>
     </g>
     <g id="text_13">
      <text style="font: 7px 'Arial'; text-anchor: end" x="27.331719" y="28.227141" transform="rotate(-0 27.331719 28.227141)">1.0</text>
     </g>
    </g>
    <g id="text_14">
     <text style="font: 7px 'Arial'; text-anchor: middle" x="12.210469" y="123.942379" transform="rotate(-90 12.210469 123.942379)">TPR</text>
    </g>
   </g>
   <g id="line2d_13">
    <path d="M 34.331719 222.162851 
L 34.331719 219.796093 
L 34.661872 219.796093 
L 34.661872 216.955983 
L 34.992024 216.955983 
L 34.992024 210.486843 
L 35.322177 210.486843 
L 35.322177 208.909004 
L 35.65233 208.909004 
L 35.65233 205.437759 
L 35.982483 205.437759 
L 35.982483 197.075212 
L 36.312636 197.075212 
L 36.312636 193.603967 
L 36.642789 193.603967 
L 36.642789 188.239314 
L 36.972942 188.239314 
L 36.972942 186.661476 
L 37.303094 186.661476 
L 37.303094 182.874662 
L 37.633247 182.874662 
L 37.633247 182.716878 
L 37.9634 182.716878 
L 37.9634 173.723196 
L 38.293553 173.723196 
L 38.293553 168.358544 
L 38.623706 168.358544 
L 38.623706 166.622921 
L 38.953859 166.622921 
L 38.953859 160.46935 
L 39.284011 160.46935 
L 39.284011 159.68043 
L 39.614164 159.68043 
L 39.614164 154.789129 
L 39.944317 154.789129 
L 39.944317 153.526858 
L 40.27447 153.526858 
L 40.27447 151.949019 
L 40.604623 151.949019 
L 40.604623 149.266693 
L 40.934776 149.266693 
L 40.934776 147.846638 
L 41.264929 147.846638 
L 41.264929 144.533177 
L 41.595081 144.533177 
L 41.595081 144.217609 
L 41.925234 144.217609 
L 41.925234 142.324202 
L 42.255387 142.324202 
L 42.255387 139.641876 
L 42.58554 139.641876 
L 42.58554 137.432901 
L 42.915693 137.432901 
L 42.915693 131.752681 
L 43.245846 131.752681 
L 43.245846 130.648194 
L 43.575999 130.648194 
L 43.575999 130.49041 
L 44.236304 130.49041 
L 44.236304 129.070355 
L 44.566457 129.070355 
L 44.566457 128.754787 
L 44.89661 128.754787 
L 44.89661 127.6503 
L 45.226763 127.6503 
L 45.226763 127.334732 
L 45.556916 127.334732 
L 45.556916 126.545813 
L 45.887068 126.545813 
L 45.887068 125.125758 
L 46.217221 125.125758 
L 46.217221 123.232351 
L 46.547374 123.232351 
L 46.547374 118.814402 
L 46.877527 118.814402 
L 46.877527 116.605428 
L 47.20768 116.605428 
L 47.20768 115.027589 
L 47.537833 115.027589 
L 47.537833 114.396453 
L 47.867986 114.396453 
L 47.867986 113.44975 
L 48.528291 113.44975 
L 48.528291 111.556343 
L 48.858444 111.556343 
L 48.858444 109.662937 
L 49.51875 109.662937 
L 49.51875 109.189585 
L 50.509208 109.189585 
L 50.509208 108.716233 
L 50.839361 108.716233 
L 50.839361 108.558449 
L 51.499667 108.558449 
L 51.499667 107.927314 
L 51.82982 107.927314 
L 51.82982 106.822826 
L 52.159973 106.822826 
L 52.159973 106.507259 
L 52.490125 106.507259 
L 52.490125 106.033907 
L 52.820278 106.033907 
L 52.820278 105.876123 
L 53.150431 105.876123 
L 53.150431 105.718339 
L 53.480584 105.718339 
L 53.480584 104.298284 
L 53.810737 104.298284 
L 53.810737 103.193797 
L 54.14089 103.193797 
L 54.14089 102.404878 
L 54.471043 102.404878 
L 54.471043 100.511471 
L 54.801195 100.511471 
L 54.801195 100.195903 
L 55.131348 100.195903 
L 55.131348 100.038119 
L 55.461501 100.038119 
L 55.461501 99.564767 
L 55.791654 99.564767 
L 55.791654 99.2492 
L 56.45196 99.2492 
L 56.45196 98.144712 
L 56.782112 98.144712 
L 56.782112 97.513577 
L 57.112265 97.513577 
L 57.112265 97.355793 
L 58.432877 97.355793 
L 58.432877 97.198009 
L 59.093182 97.198009 
L 59.093182 96.882441 
L 59.423335 96.882441 
L 59.423335 95.777954 
L 60.083641 95.777954 
L 60.083641 95.304602 
L 60.413794 95.304602 
L 60.413794 94.673467 
L 60.743947 94.673467 
L 60.743947 94.042331 
L 61.074099 94.042331 
L 61.074099 93.884547 
L 61.734405 93.884547 
L 61.734405 93.726763 
L 62.064558 93.726763 
L 62.064558 93.56898 
L 62.394711 93.56898 
L 62.394711 92.306708 
L 62.724864 92.306708 
L 62.724864 92.148925 
L 63.055017 92.148925 
L 63.055017 91.833357 
L 63.715322 91.833357 
L 63.715322 91.360005 
L 64.045475 91.360005 
L 64.045475 90.886653 
L 64.705781 90.886653 
L 64.705781 90.413302 
L 65.035934 90.413302 
L 65.035934 89.93995 
L 65.366087 89.93995 
L 65.366087 89.782166 
L 65.696239 89.782166 
L 65.696239 88.362111 
L 66.356545 88.362111 
L 66.356545 88.204327 
L 66.686698 88.204327 
L 66.686698 87.09984 
L 67.016851 87.09984 
L 67.016851 86.626488 
L 67.347004 86.626488 
L 67.347004 86.468704 
L 67.677156 86.468704 
L 67.677156 85.995353 
L 68.007309 85.995353 
L 68.007309 85.048649 
L 69.658074 85.048649 
L 69.658074 84.890866 
L 69.988226 84.890866 
L 69.988226 84.733082 
L 70.318379 84.733082 
L 70.318379 84.101946 
L 70.978685 84.101946 
L 70.978685 83.944162 
L 71.308838 83.944162 
L 71.308838 83.313027 
L 71.969143 83.313027 
L 71.969143 82.524107 
L 72.299296 82.524107 
L 72.299296 82.208539 
L 72.629449 82.208539 
L 72.629449 81.577404 
L 72.959602 81.577404 
L 72.959602 81.261836 
L 73.289755 81.261836 
L 73.289755 81.104052 
L 73.619908 81.104052 
L 73.619908 80.315133 
L 73.950061 80.315133 
L 73.950061 79.999565 
L 74.610366 79.999565 
L 74.610366 79.210645 
L 74.940519 79.210645 
L 74.940519 78.895078 
L 75.600825 78.895078 
L 75.600825 78.737294 
L 75.930978 78.737294 
L 75.930978 78.421726 
L 76.261131 78.421726 
L 76.261131 77.632807 
L 76.591283 77.632807 
L 76.591283 76.843887 
L 76.921436 76.843887 
L 76.921436 76.212752 
L 77.251589 76.212752 
L 77.251589 75.7394 
L 78.242048 75.7394 
L 78.242048 75.423832 
L 79.562659 75.423832 
L 79.562659 74.95048 
L 79.892812 74.95048 
L 79.892812 74.634913 
L 80.222965 74.634913 
L 80.222965 74.003777 
L 80.88327 74.003777 
L 80.88327 72.89929 
L 81.213423 72.89929 
L 81.213423 72.583722 
L 82.534035 72.583722 
L 82.534035 72.425938 
L 82.864187 72.425938 
L 82.864187 72.268154 
L 83.524493 72.268154 
L 83.524493 72.11037 
L 85.50541 72.11037 
L 85.50541 71.952586 
L 85.835563 71.952586 
L 85.835563 71.637019 
L 86.495869 71.637019 
L 86.495869 70.848099 
L 86.826022 70.848099 
L 86.826022 70.532531 
L 87.156175 70.532531 
L 87.156175 70.374748 
L 87.486327 70.374748 
L 87.486327 69.27026 
L 87.81648 69.27026 
L 87.81648 68.165773 
L 88.476786 68.165773 
L 88.476786 67.534637 
L 88.806939 67.534637 
L 88.806939 67.21907 
L 89.467244 67.21907 
L 89.467244 66.903502 
L 89.797397 66.903502 
L 89.797397 66.745718 
L 91.448162 66.745718 
L 91.448162 66.43015 
L 91.778314 66.43015 
L 91.778314 66.114582 
L 92.108467 66.114582 
L 92.108467 65.641231 
L 92.43862 65.641231 
L 92.43862 65.483447 
L 92.768773 65.483447 
L 92.768773 65.010095 
L 93.759231 65.010095 
L 93.759231 64.37896 
L 94.419537 64.37896 
L 94.419537 64.063392 
L 94.74969 64.063392 
L 94.74969 63.747824 
L 95.079843 63.747824 
L 95.079843 63.59004 
L 95.740149 63.59004 
L 95.740149 63.274472 
L 96.730607 63.274472 
L 96.730607 62.643337 
L 98.051219 62.643337 
L 98.051219 62.485553 
L 98.381371 62.485553 
L 98.381371 62.012201 
L 99.37183 62.012201 
L 99.37183 61.381066 
L 100.692441 61.381066 
L 100.692441 60.907714 
L 101.022594 60.907714 
L 101.022594 60.74993 
L 101.352747 60.74993 
L 101.352747 60.592146 
L 101.6829 60.592146 
L 101.6829 60.434362 
L 102.673358 60.434362 
L 102.673358 59.645443 
L 104.324123 59.645443 
L 104.324123 59.487659 
L 104.654275 59.487659 
L 104.654275 59.329875 
L 105.644734 59.329875 
L 105.644734 58.225388 
L 107.295498 58.225388 
L 107.295498 58.067604 
L 107.625651 58.067604 
L 107.625651 57.278685 
L 107.955804 57.278685 
L 107.955804 57.120901 
L 108.285957 57.120901 
L 108.285957 56.647549 
L 108.61611 56.647549 
L 108.61611 55.85863 
L 108.946263 55.85863 
L 108.946263 55.700846 
L 109.276415 55.700846 
L 109.276415 55.385278 
L 110.92718 55.385278 
L 110.92718 55.227494 
L 111.587485 55.227494 
L 111.587485 54.754142 
L 111.917638 54.754142 
L 111.917638 54.596358 
L 113.23825 54.596358 
L 113.23825 53.807439 
L 114.228708 53.807439 
L 114.228708 53.491871 
L 114.889014 53.491871 
L 114.889014 53.334087 
L 115.879472 53.334087 
L 115.879472 52.860736 
L 116.209625 52.860736 
L 116.209625 52.702952 
L 116.869931 52.702952 
L 116.869931 51.598464 
L 118.520695 51.598464 
L 118.520695 50.809545 
L 118.850848 50.809545 
L 118.850848 50.493977 
L 119.181001 50.493977 
L 119.181001 50.336193 
L 119.511154 50.336193 
L 119.511154 50.178409 
L 120.171459 50.178409 
L 120.171459 49.862842 
L 120.501612 49.862842 
L 120.501612 48.442787 
L 122.152376 48.442787 
L 122.152376 48.285003 
L 123.142835 48.285003 
L 123.142835 47.496083 
L 123.803141 47.496083 
L 123.803141 47.338299 
L 124.463446 47.338299 
L 124.463446 47.022732 
L 125.784058 47.022732 
L 125.784058 46.864948 
L 126.114211 46.864948 
L 126.114211 46.54938 
L 126.774516 46.54938 
L 126.774516 46.391596 
L 127.434822 46.391596 
L 127.434822 46.233812 
L 128.095128 46.233812 
L 128.095128 45.918244 
L 128.755433 45.918244 
L 128.755433 45.76046 
L 129.085586 45.76046 
L 129.085586 45.444893 
L 129.415739 45.444893 
L 129.415739 45.129325 
L 130.736351 45.129325 
L 130.736351 44.340405 
L 131.066503 44.340405 
L 131.066503 44.024838 
L 131.396656 44.024838 
L 131.396656 43.70927 
L 132.387115 43.70927 
L 132.387115 43.551486 
L 134.368032 43.551486 
L 134.368032 43.393702 
L 135.028338 43.393702 
L 135.028338 43.235918 
L 135.688643 43.235918 
L 135.688643 42.131431 
L 136.018796 42.131431 
L 136.018796 41.973647 
L 136.348949 41.973647 
L 136.348949 41.658079 
L 136.679102 41.658079 
L 136.679102 41.342512 
L 137.009255 41.342512 
L 137.009255 41.026944 
L 137.999713 41.026944 
L 137.999713 40.86916 
L 138.660019 40.86916 
L 138.660019 40.711376 
L 139.98063 40.711376 
L 139.98063 40.553592 
L 140.310783 40.553592 
L 140.310783 40.395808 
L 141.961547 40.395808 
L 141.961547 40.08024 
L 143.612312 40.08024 
L 143.612312 39.922456 
L 145.593229 39.922456 
L 145.593229 39.764673 
L 146.253534 39.764673 
L 146.253534 39.606889 
L 146.583687 39.606889 
L 146.583687 39.449105 
L 147.243993 39.449105 
L 147.243993 38.975753 
L 147.574146 38.975753 
L 147.574146 38.660185 
L 147.904299 38.660185 
L 147.904299 38.502401 
L 149.22491 38.502401 
L 149.22491 38.344618 
L 149.555063 38.344618 
L 149.555063 38.02905 
L 150.545521 38.02905 
L 150.545521 37.397914 
L 151.866133 37.397914 
L 151.866133 37.24013 
L 153.516897 37.24013 
L 153.516897 36.924563 
L 154.177203 36.924563 
L 154.177203 36.766779 
L 155.167661 36.766779 
L 155.167661 36.608995 
L 156.818426 36.608995 
L 156.818426 36.451211 
L 157.148578 36.451211 
L 157.148578 35.977859 
L 157.478731 35.977859 
L 157.478731 35.662291 
L 157.808884 35.662291 
L 157.808884 35.504508 
L 158.799343 35.504508 
L 158.799343 35.346724 
L 159.129495 35.346724 
L 159.129495 35.18894 
L 159.459648 35.18894 
L 159.459648 35.031156 
L 160.119954 35.031156 
L 160.119954 34.873372 
L 161.110413 34.873372 
L 161.110413 34.715588 
L 162.100871 34.715588 
L 162.100871 34.557804 
L 162.431024 34.557804 
L 162.431024 34.40002 
L 164.081788 34.40002 
L 164.081788 34.084452 
L 165.4024 34.084452 
L 165.4024 33.768885 
L 166.062705 33.768885 
L 166.062705 33.453317 
L 168.373775 33.453317 
L 168.373775 33.295533 
L 169.034081 33.295533 
L 169.034081 33.137749 
L 169.694387 33.137749 
L 169.694387 32.979965 
L 170.354692 32.979965 
L 170.354692 32.822181 
L 170.684845 32.822181 
L 170.684845 32.664397 
L 171.014998 32.664397 
L 171.014998 32.506614 
L 171.675304 32.506614 
L 171.675304 32.34883 
L 173.656221 32.34883 
L 173.656221 32.191046 
L 174.976832 32.191046 
L 174.976832 31.875478 
L 175.306985 31.875478 
L 175.306985 31.717694 
L 178.608514 31.717694 
L 178.608514 31.55991 
L 179.268819 31.55991 
L 179.268819 31.244342 
L 182.240195 31.244342 
L 182.240195 31.086559 
L 182.900501 31.086559 
L 182.900501 30.770991 
L 183.890959 30.770991 
L 183.890959 30.455423 
L 185.541723 30.455423 
L 185.541723 30.297639 
L 187.52264 30.297639 
L 187.52264 30.139855 
L 188.182946 30.139855 
L 188.182946 29.982071 
L 188.513099 29.982071 
L 188.513099 29.666504 
L 188.843252 29.666504 
L 188.843252 29.50872 
L 191.484475 29.50872 
L 191.484475 29.350936 
L 193.795545 29.350936 
L 193.795545 29.193152 
L 196.436767 29.193152 
L 196.436767 29.035368 
L 198.087532 29.035368 
L 198.087532 28.877584 
L 202.049366 28.877584 
L 202.049366 28.7198 
L 208.32227 28.7198 
L 208.32227 28.562016 
L 209.312728 28.562016 
L 209.312728 28.404232 
L 210.303187 28.404232 
L 210.303187 28.246449 
L 211.623798 28.246449 
L 211.623798 27.930881 
L 213.934868 27.930881 
L 213.934868 27.773097 
L 214.265021 27.773097 
L 214.265021 27.615313 
L 216.245938 27.615313 
L 216.245938 27.299745 
L 218.226855 27.299745 
L 218.226855 26.984177 
L 218.887161 26.984177 
L 218.887161 26.826393 
L 220.868078 26.826393 
L 220.868078 26.66861 
L 222.518842 26.66861 
L 222.518842 26.510826 
L 224.49976 26.510826 
L 224.49976 26.353042 
L 228.791747 26.353042 
L 228.791747 26.195258 
L 229.452052 26.195258 
L 229.452052 26.037474 
L 229.782205 26.037474 
L 229.782205 25.87969 
L 230.442511 25.87969 
L 230.442511 25.721906 
L 230.772664 25.721906 
L 230.772664 25.721906 
" clip-path="url(#p9852afbe3d)" style="fill: none; stroke: #ff0000; stroke-width: 1.5; stroke-linecap: square"/>
   </g>
   <g id="line2d_14">
    <defs>
     <path id="mdfa2a0b732" d="M 0 3 
C 0.795609 3 1.55874 2.683901 2.12132 2.12132 
C 2.683901 1.55874 3 0.795609 3 0 
C 3 -0.795609 2.683901 -1.55874 2.12132 -2.12132 
C 1.55874 -2.683901 0.795609 -3 0 -3 
C -0.795609 -3 -1.55874 -2.683901 -2.12132 -2.12132 
C -2.683901 -1.55874 -3 -0.795609 -3 0 
C -3 0.795609 -2.683901 1.55874 -2.12132 2.12132 
C -1.55874 2.683901 -0.795609 3 0 3 
z
" style="stroke: #000000"/>
    </defs>
    <g clip-path="url(#p9852afbe3d)">
     <use xlink:href="#mdfa2a0b732" x="77.251589" y="75.7394" style="fill: #ff0000; stroke: #000000"/>
    </g>
   </g>
   <g id="line2d_15">
    <path d="M 34.331719 222.162851 
L 230.772664 25.721906 
" clip-path="url(#p9852afbe3d)" style="fill: none; stroke: #00bfbf; stroke-width: 1.5; stroke-linecap: square"/>
   </g>
   <g id="patch_4">
    <path d="M 34.331719 222.162851 
L 34.331719 25.721906 
" style="fill: none; stroke: #000000; stroke-width: 0.8; stroke-linejoin: miter; stroke-linecap: square"/>
   </g>
   <g id="patch_5">
    <path d="M 230.772664 222.162851 
L 230.772664 25.721906 
" style="fill: none; stroke: #000000; stroke-width: 0.8; stroke-linejoin: miter; stroke-linecap: square"/>
   </g>
   <g id="patch_6">
    <path d="M 34.331719 222.162851 
L 230.772664 222.162851 
" style="fill: none; stroke: #000000; stroke-width: 0.8; stroke-linejoin: miter; stroke-linecap: square"/>
   </g>
   <g id="patch_7">
    <path d="M 34.331719 25.721906 
L 230.772664 25.721906 
" style="fill: none; stroke: #000000; stroke-width: 0.8; stroke-linejoin: miter; stroke-linecap: square"/>
   </g>
   <g id="text_15">
    <text style="font: 7px 'Arial'" transform="translate(101.490785 12.210469)">t-SNE AP-SP model</text>
    <text style="font: 7px 'Arial'" transform="translate(59.423519 19.721906)">Receiver Operating Characteristic (ROC) curve</text>
   </g>
   <g id="legend_1">
    <g id="patch_8">
     <path d="M 47.553597 261.0336 
L 217.550785 261.0336 
Q 218.950785 261.0336 218.950785 259.6336 
L 218.950785 250.264538 
Q 218.950785 248.864538 217.550785 248.864538 
L 47.553597 248.864538 
Q 46.153597 248.864538 46.153597 250.264538 
L 46.153597 259.6336 
Q 46.153597 261.0336 47.553597 261.0336 
z
" style="fill: #ffffff; opacity: 0.8; stroke: #cccccc; stroke-linejoin: miter"/>
    </g>
    <g id="line2d_16">
     <path d="M 48.953597 254.310319 
L 55.953597 254.310319 
L 62.953597 254.310319 
" style="fill: none; stroke: #ff0000; stroke-width: 1.5; stroke-linecap: square"/>
    </g>
    <g id="text_16">
     <text style="font: 7px 'Arial'; text-anchor: start" x="68.553597" y="256.760319" transform="rotate(-0 68.553597 256.760319)">model performance</text>
    </g>
    <g id="line2d_17">
     <path d="M 142.855316 254.310319 
L 149.855316 254.310319 
L 156.855316 254.310319 
" style="fill: none; stroke: #00bfbf; stroke-width: 1.5; stroke-linecap: square"/>
    </g>
    <g id="text_17">
     <text style="font: 7px 'Arial'; text-anchor: start" x="162.455316" y="256.760319" transform="rotate(-0 162.455316 256.760319)">random guessing</text>
    </g>
   </g>
  </g>
 </g>
 <defs>
  <clipPath id="p9852afbe3d">
   <rect x="34.331719" y="25.721906" width="196.440945" height="196.440945"/>
  </clipPath>
 </defs>
</svg>
