<?xml version="1.0" encoding="utf-8" standalone="no"?>
<!DOCTYPE svg PUBLIC "-//W3C//DTD SVG 1.1//EN"
  "http://www.w3.org/Graphics/SVG/1.1/DTD/svg11.dtd">
<svg xmlns:xlink="http://www.w3.org/1999/xlink" width="413.064687pt" height="346.716041pt" viewBox="0 0 413.064687 346.716041" xmlns="http://www.w3.org/2000/svg" version="1.1">
 <metadata>
  <rdf:RDF xmlns:dc="http://purl.org/dc/elements/1.1/" xmlns:cc="http://creativecommons.org/ns#" xmlns:rdf="http://www.w3.org/1999/02/22-rdf-syntax-ns#">
   <cc:Work>
    <dc:type rdf:resource="http://purl.org/dc/dcmitype/StillImage"/>
    <dc:date>2024-09-25T06:57:22.151726</dc:date>
    <dc:format>image/svg+xml</dc:format>
    <dc:creator>
     <cc:Agent>
      <dc:title>Matplotlib v3.7.0, https://matplotlib.org/</dc:title>
     </cc:Agent>
    </dc:creator>
   </cc:Work>
  </rdf:RDF>
 </metadata>
 <defs>
  <style type="text/css">*{stroke-linejoin: round; stroke-linecap: butt}</style>
 </defs>
 <g id="figure_1">
  <g id="patch_1">
   <path d="M 0 346.716041 
L 413.064687 346.716041 
L 413.064687 0 
L 0 0 
z
" style="fill: #ffffff"/>
  </g>
  <g id="axes_1">
   <g id="patch_2">
    <path d="M 45.269688 275.101453 
L 402.389688 275.101453 
L 402.389688 8.989453 
L 45.269688 8.989453 
z
" style="fill: #ffffff"/>
   </g>
   <g id="patch_3">
    <path d="M 45.269688 8.989453 
L 54.956657 13.315069 
L 52.381987 14.961367 
L 123.431415 76.659837 
L 123.160397 76.833132 
L 52.110969 15.134661 
L 49.536299 16.780959 
z
" clip-path="url(#pb94d5e1b14)" style="fill: #1f77b4; stroke: #000000; stroke-linejoin: miter"/>
   </g>
   <g id="matplotlib.axis_1">
    <g id="xtick_1">
     <g id="line2d_1">
      <defs>
       <path id="mb151e27fb6" d="M 0 0 
L 0 3.5 
" style="stroke: #000000; stroke-width: 0.8"/>
      </defs>
      <g>
       <use xlink:href="#mb151e27fb6" x="45.269688" y="275.101453" style="stroke: #000000; stroke-width: 0.8"/>
      </g>
     </g>
     <g id="text_1">
      <text style="font: 5px 'Arial'; text-anchor: middle" x="45.269688" y="285.680359" transform="rotate(-0 45.269688 285.680359)">0.0</text>
     </g>
    </g>
    <g id="xtick_2">
     <g id="line2d_2">
      <g>
       <use xlink:href="#mb151e27fb6" x="116.693688" y="275.101453" style="stroke: #000000; stroke-width: 0.8"/>
      </g>
     </g>
     <g id="text_2">
      <text style="font: 5px 'Arial'; text-anchor: middle" x="116.693688" y="285.680359" transform="rotate(-0 116.693688 285.680359)">0.2</text>
     </g>
    </g>
    <g id="xtick_3">
     <g id="line2d_3">
      <g>
       <use xlink:href="#mb151e27fb6" x="188.117688" y="275.101453" style="stroke: #000000; stroke-width: 0.8"/>
      </g>
     </g>
     <g id="text_3">
      <text style="font: 5px 'Arial'; text-anchor: middle" x="188.117688" y="285.680359" transform="rotate(-0 188.117688 285.680359)">0.4</text>
     </g>
    </g>
    <g id="xtick_4">
     <g id="line2d_4">
      <g>
       <use xlink:href="#mb151e27fb6" x="259.541688" y="275.101453" style="stroke: #000000; stroke-width: 0.8"/>
      </g>
     </g>
     <g id="text_4">
      <text style="font: 5px 'Arial'; text-anchor: middle" x="259.541688" y="285.680359" transform="rotate(-0 259.541688 285.680359)">0.6</text>
     </g>
    </g>
    <g id="xtick_5">
     <g id="line2d_5">
      <g>
       <use xlink:href="#mb151e27fb6" x="330.965688" y="275.101453" style="stroke: #000000; stroke-width: 0.8"/>
      </g>
     </g>
     <g id="text_5">
      <text style="font: 5px 'Arial'; text-anchor: middle" x="330.965688" y="285.680359" transform="rotate(-0 330.965688 285.680359)">0.8</text>
     </g>
    </g>
    <g id="xtick_6">
     <g id="line2d_6">
      <g>
       <use xlink:href="#mb151e27fb6" x="402.389688" y="275.101453" style="stroke: #000000; stroke-width: 0.8"/>
      </g>
     </g>
     <g id="text_6">
      <text style="font: 5px 'Arial'; text-anchor: middle" x="402.389688" y="285.680359" transform="rotate(-0 402.389688 285.680359)">1.0</text>
     </g>
    </g>
    <g id="text_7">
     <text style="font: 22px 'Arial'; text-anchor: middle" x="223.829688" y="306.421297" transform="rotate(-0 223.829688 306.421297)">FPR</text>
    </g>
   </g>
   <g id="matplotlib.axis_2">
    <g id="ytick_1">
     <g id="line2d_7">
      <defs>
       <path id="m11d7888d1a" d="M 0 0 
L -3.5 0 
" style="stroke: #000000; stroke-width: 0.8"/>
      </defs>
      <g>
       <use xlink:href="#m11d7888d1a" x="45.269688" y="275.101453" style="stroke: #000000; stroke-width: 0.8"/>
      </g>
     </g>
     <g id="text_8">
      <text style="font: 5px 'Arial'; text-anchor: end" x="38.269688" y="276.890906" transform="rotate(-0 38.269688 276.890906)">0.0</text>
     </g>
    </g>
    <g id="ytick_2">
     <g id="line2d_8">
      <g>
       <use xlink:href="#m11d7888d1a" x="45.269688" y="221.879053" style="stroke: #000000; stroke-width: 0.8"/>
      </g>
     </g>
     <g id="text_9">
      <text style="font: 5px 'Arial'; text-anchor: end" x="38.269688" y="223.668506" transform="rotate(-0 38.269688 223.668506)">0.2</text>
     </g>
    </g>
    <g id="ytick_3">
     <g id="line2d_9">
      <g>
       <use xlink:href="#m11d7888d1a" x="45.269688" y="168.656653" style="stroke: #000000; stroke-width: 0.8"/>
      </g>
     </g>
     <g id="text_10">
      <text style="font: 5px 'Arial'; text-anchor: end" x="38.269688" y="170.446106" transform="rotate(-0 38.269688 170.446106)">0.4</text>
     </g>
    </g>
    <g id="ytick_4">
     <g id="line2d_10">
      <g>
       <use xlink:href="#m11d7888d1a" x="45.269688" y="115.434253" style="stroke: #000000; stroke-width: 0.8"/>
      </g>
     </g>
     <g id="text_11">
      <text style="font: 5px 'Arial'; text-anchor: end" x="38.269688" y="117.223706" transform="rotate(-0 38.269688 117.223706)">0.6</text>
     </g>
    </g>
    <g id="ytick_5">
     <g id="line2d_11">
      <g>
       <use xlink:href="#m11d7888d1a" x="45.269688" y="62.211853" style="stroke: #000000; stroke-width: 0.8"/>
      </g>
     </g>
     <g id="text_12">
      <text style="font: 5px 'Arial'; text-anchor: end" x="38.269688" y="64.001306" transform="rotate(-0 38.269688 64.001306)">0.8</text>
     </g>
    </g>
    <g id="ytick_6">
     <g id="line2d_12">
      <g>
       <use xlink:href="#m11d7888d1a" x="45.269688" y="8.989453" style="stroke: #000000; stroke-width: 0.8"/>
      </g>
     </g>
     <g id="text_13">
      <text style="font: 5px 'Arial'; text-anchor: end" x="38.269688" y="10.778906" transform="rotate(-0 38.269688 10.778906)">1.0</text>
     </g>
    </g>
    <g id="text_14">
     <text style="font: 22px 'Arial'; text-anchor: middle" x="22.947188" y="142.045453" transform="rotate(-90 22.947188 142.045453)">TPR</text>
    </g>
   </g>
   <g id="line2d_13">
    <path d="M 45.269688 275.101453 
L 45.269688 271.895284 
L 45.869889 271.895284 
L 45.869889 268.047882 
L 46.470091 268.047882 
L 46.470091 259.284354 
L 47.070293 259.284354 
L 47.070293 257.146909 
L 47.670494 257.146909 
L 47.670494 252.444528 
L 48.270696 252.444528 
L 48.270696 241.116065 
L 48.870898 241.116065 
L 48.870898 236.413684 
L 49.471099 236.413684 
L 49.471099 229.146369 
L 50.071301 229.146369 
L 50.071301 227.008923 
L 50.671503 227.008923 
L 50.671503 221.879053 
L 51.271704 221.879053 
L 51.271704 221.665309 
L 51.871906 221.665309 
L 51.871906 209.481868 
L 52.472108 209.481868 
L 52.472108 202.214552 
L 53.072309 202.214552 
L 53.072309 199.863362 
L 53.672511 199.863362 
L 53.672511 191.527323 
L 54.272713 191.527323 
L 54.272713 190.4586 
L 54.872914 190.4586 
L 54.872914 183.832518 
L 55.473116 183.832518 
L 55.473116 182.122562 
L 56.073318 182.122562 
L 56.073318 179.985116 
L 56.673519 179.985116 
L 56.673519 176.351458 
L 57.273721 176.351458 
L 57.273721 174.427757 
L 57.873923 174.427757 
L 57.873923 169.939121 
L 58.474124 169.939121 
L 58.474124 169.511631 
L 59.074326 169.511631 
L 59.074326 166.946696 
L 59.674528 166.946696 
L 59.674528 163.313039 
L 60.27473 163.313039 
L 60.27473 160.320615 
L 60.874931 160.320615 
L 60.874931 152.62581 
L 61.475133 152.62581 
L 61.475133 151.129598 
L 62.075335 151.129598 
L 62.075335 150.915853 
L 63.275738 150.915853 
L 63.275738 148.992152 
L 63.87594 148.992152 
L 63.87594 148.564663 
L 64.476141 148.564663 
L 64.476141 147.068451 
L 65.076343 147.068451 
L 65.076343 146.640962 
L 65.676545 146.640962 
L 65.676545 145.572239 
L 66.276746 145.572239 
L 66.276746 143.648537 
L 66.876948 143.648537 
L 66.876948 141.083603 
L 67.47715 141.083603 
L 67.47715 135.098754 
L 68.077351 135.098754 
L 68.077351 132.10633 
L 68.677553 132.10633 
L 68.677553 129.968884 
L 69.277755 129.968884 
L 69.277755 129.113906 
L 69.877956 129.113906 
L 69.877956 127.831439 
L 71.07836 127.831439 
L 71.07836 125.266504 
L 71.678561 125.266504 
L 71.678561 122.701569 
L 72.878965 122.701569 
L 72.878965 122.060335 
L 74.67957 122.060335 
L 74.67957 121.419101 
L 75.279772 121.419101 
L 75.279772 121.205357 
L 76.480175 121.205357 
L 76.480175 120.350378 
L 77.080377 120.350378 
L 77.080377 118.854166 
L 77.680578 118.854166 
L 77.680578 118.426677 
L 78.28078 118.426677 
L 78.28078 117.785443 
L 78.880982 117.785443 
L 78.880982 117.571699 
L 79.481183 117.571699 
L 79.481183 117.357954 
L 80.081385 117.357954 
L 80.081385 115.434253 
L 80.681587 115.434253 
L 80.681587 113.938041 
L 81.281788 113.938041 
L 81.281788 112.869318 
L 81.88199 112.869318 
L 81.88199 110.304383 
L 82.482192 110.304383 
L 82.482192 109.876894 
L 83.082393 109.876894 
L 83.082393 109.66315 
L 83.682595 109.66315 
L 83.682595 109.021916 
L 84.282797 109.021916 
L 84.282797 108.594427 
L 85.4832 108.594427 
L 85.4832 107.098215 
L 86.083402 107.098215 
L 86.083402 106.243236 
L 86.683603 106.243236 
L 86.683603 106.029492 
L 89.08441 106.029492 
L 89.08441 105.815747 
L 90.284814 105.815747 
L 90.284814 105.388258 
L 90.885015 105.388258 
L 90.885015 103.892046 
L 92.085419 103.892046 
L 92.085419 103.250812 
L 92.68562 103.250812 
L 92.68562 102.395834 
L 93.285822 102.395834 
L 93.285822 101.540856 
L 93.886024 101.540856 
L 93.886024 101.327111 
L 95.086427 101.327111 
L 95.086427 101.113366 
L 95.686629 101.113366 
L 95.686629 100.899622 
L 96.28683 100.899622 
L 96.28683 99.189665 
L 96.887032 99.189665 
L 96.887032 98.975921 
L 97.487234 98.975921 
L 97.487234 98.548431 
L 98.687637 98.548431 
L 98.687637 97.907198 
L 99.287839 97.907198 
L 99.287839 97.265964 
L 100.488242 97.265964 
L 100.488242 96.62473 
L 101.088444 96.62473 
L 101.088444 95.983496 
L 101.688645 95.983496 
L 101.688645 95.769752 
L 102.288847 95.769752 
L 102.288847 93.846051 
L 103.489251 93.846051 
L 103.489251 93.632306 
L 104.089452 93.632306 
L 104.089452 92.136094 
L 104.689654 92.136094 
L 104.689654 91.49486 
L 105.289856 91.49486 
L 105.289856 91.281116 
L 105.890057 91.281116 
L 105.890057 90.639882 
L 106.490259 90.639882 
L 106.490259 89.357415 
L 109.491267 89.357415 
L 109.491267 89.14367 
L 110.091469 89.14367 
L 110.091469 88.929925 
L 110.691671 88.929925 
L 110.691671 88.074947 
L 111.892074 88.074947 
L 111.892074 87.861203 
L 112.492276 87.861203 
L 112.492276 87.006224 
L 113.692679 87.006224 
L 113.692679 85.937501 
L 114.292881 85.937501 
L 114.292881 85.510012 
L 114.893082 85.510012 
L 114.893082 84.655034 
L 115.493284 84.655034 
L 115.493284 84.227545 
L 116.093486 84.227545 
L 116.093486 84.0138 
L 116.693688 84.0138 
L 116.693688 82.945077 
L 117.293889 82.945077 
L 117.293889 82.517588 
L 118.494293 82.517588 
L 118.494293 81.448865 
L 119.094494 81.448865 
L 119.094494 81.021376 
L 120.294898 81.021376 
L 120.294898 80.807631 
L 120.895099 80.807631 
L 120.895099 80.380142 
L 121.495301 80.380142 
L 121.495301 79.311419 
L 122.095503 79.311419 
L 122.095503 78.242696 
L 122.695704 78.242696 
L 122.695704 77.387718 
L 123.295906 77.387718 
L 123.295906 76.746484 
L 125.096511 76.746484 
L 125.096511 76.318995 
L 127.497318 76.318995 
L 127.497318 75.677762 
L 128.097519 75.677762 
L 128.097519 75.250272 
L 128.697721 75.250272 
L 128.697721 74.395294 
L 129.898124 74.395294 
L 129.898124 72.899082 
L 130.498326 72.899082 
L 130.498326 72.471593 
L 132.899133 72.471593 
L 132.899133 72.257848 
L 133.499335 72.257848 
L 133.499335 72.044104 
L 134.699738 72.044104 
L 134.699738 71.830359 
L 138.300948 71.830359 
L 138.300948 71.616615 
L 138.90115 71.616615 
L 138.90115 71.189125 
L 140.101553 71.189125 
L 140.101553 70.120403 
L 140.701755 70.120403 
L 140.701755 69.692913 
L 141.301956 69.692913 
L 141.301956 69.479169 
L 141.902158 69.479169 
L 141.902158 67.982957 
L 142.50236 67.982957 
L 142.50236 66.486745 
L 143.702763 66.486745 
L 143.702763 65.631766 
L 144.302965 65.631766 
L 144.302965 65.204277 
L 145.503368 65.204277 
L 145.503368 64.776788 
L 146.10357 64.776788 
L 146.10357 64.563043 
L 149.104578 64.563043 
L 149.104578 64.135554 
L 149.70478 64.135554 
L 149.70478 63.708065 
L 150.304982 63.708065 
L 150.304982 63.066831 
L 150.905183 63.066831 
L 150.905183 62.853087 
L 151.505385 62.853087 
L 151.505385 62.211853 
L 153.30599 62.211853 
L 153.30599 61.356875 
L 154.506393 61.356875 
L 154.506393 60.929386 
L 155.106595 60.929386 
L 155.106595 60.501896 
L 155.706797 60.501896 
L 155.706797 60.288152 
L 156.9072 60.288152 
L 156.9072 59.860663 
L 158.707805 59.860663 
L 158.707805 59.005684 
L 161.108612 59.005684 
L 161.108612 58.79194 
L 161.708814 58.79194 
L 161.708814 58.150706 
L 163.509419 58.150706 
L 163.509419 57.295728 
L 165.910225 57.295728 
L 165.910225 56.654494 
L 166.510427 56.654494 
L 166.510427 56.44075 
L 167.110629 56.44075 
L 167.110629 56.227005 
L 167.71083 56.227005 
L 167.71083 56.01326 
L 169.511435 56.01326 
L 169.511435 54.944537 
L 172.512444 54.944537 
L 172.512444 54.730793 
L 173.112645 54.730793 
L 173.112645 54.517048 
L 174.913251 54.517048 
L 174.913251 53.020836 
L 177.914259 53.020836 
L 177.914259 52.807092 
L 178.514461 52.807092 
L 178.514461 51.738369 
L 179.114662 51.738369 
L 179.114662 51.524624 
L 179.714864 51.524624 
L 179.714864 50.88339 
L 180.315066 50.88339 
L 180.315066 49.814668 
L 180.915267 49.814668 
L 180.915267 49.600923 
L 181.515469 49.600923 
L 181.515469 49.173434 
L 184.516477 49.173434 
L 184.516477 48.959689 
L 185.716881 48.959689 
L 185.716881 48.318456 
L 186.317082 48.318456 
L 186.317082 48.104711 
L 188.717889 48.104711 
L 188.717889 47.035988 
L 190.518494 47.035988 
L 190.518494 46.608499 
L 191.718898 46.608499 
L 191.718898 46.394754 
L 193.519503 46.394754 
L 193.519503 45.753521 
L 194.119704 45.753521 
L 194.119704 45.539776 
L 195.320108 45.539776 
L 195.320108 44.043564 
L 198.321116 44.043564 
L 198.321116 42.974841 
L 198.921318 42.974841 
L 198.921318 42.547352 
L 199.521519 42.547352 
L 199.521519 42.333607 
L 200.121721 42.333607 
L 200.121721 42.119863 
L 201.322124 42.119863 
L 201.322124 41.692374 
L 201.922326 41.692374 
L 201.922326 39.768672 
L 204.923335 39.768672 
L 204.923335 39.554928 
L 206.72394 39.554928 
L 206.72394 38.486205 
L 207.924343 38.486205 
L 207.924343 38.27246 
L 209.124746 38.27246 
L 209.124746 37.844971 
L 211.525553 37.844971 
L 211.525553 37.631227 
L 212.125755 37.631227 
L 212.125755 37.203737 
L 213.326158 37.203737 
L 213.326158 36.989993 
L 214.526561 36.989993 
L 214.526561 36.776248 
L 215.726965 36.776248 
L 215.726965 36.348759 
L 216.927368 36.348759 
L 216.927368 36.135015 
L 217.52757 36.135015 
L 217.52757 35.707525 
L 218.127772 35.707525 
L 218.127772 35.280036 
L 220.528578 35.280036 
L 220.528578 34.211313 
L 221.12878 34.211313 
L 221.12878 33.783824 
L 221.728982 33.783824 
L 221.728982 33.356335 
L 223.529587 33.356335 
L 223.529587 33.14259 
L 227.130797 33.14259 
L 227.130797 32.928846 
L 228.3312 32.928846 
L 228.3312 32.715101 
L 229.531603 32.715101 
L 229.531603 31.218889 
L 230.131805 31.218889 
L 230.131805 31.005145 
L 230.732007 31.005145 
L 230.732007 30.577656 
L 231.332209 30.577656 
L 231.332209 30.150166 
L 231.93241 30.150166 
L 231.93241 29.722677 
L 233.733015 29.722677 
L 233.733015 29.508933 
L 234.933419 29.508933 
L 234.933419 29.295188 
L 237.334225 29.295188 
L 237.334225 29.081443 
L 237.934427 29.081443 
L 237.934427 28.867699 
L 240.935435 28.867699 
L 240.935435 28.44021 
L 243.936444 28.44021 
L 243.936444 28.226465 
L 247.537654 28.226465 
L 247.537654 28.012721 
L 248.738057 28.012721 
L 248.738057 27.798976 
L 249.338259 27.798976 
L 249.338259 27.585231 
L 250.538662 27.585231 
L 250.538662 26.943998 
L 251.138864 26.943998 
L 251.138864 26.516509 
L 251.739066 26.516509 
L 251.739066 26.302764 
L 254.139872 26.302764 
L 254.139872 26.089019 
L 254.740074 26.089019 
L 254.740074 25.66153 
L 256.540679 25.66153 
L 256.540679 24.806552 
L 258.941486 24.806552 
L 258.941486 24.592807 
L 261.942494 24.592807 
L 261.942494 24.165318 
L 263.142898 24.165318 
L 263.142898 23.951574 
L 264.943503 23.951574 
L 264.943503 23.737829 
L 267.944511 23.737829 
L 267.944511 23.524084 
L 268.544713 23.524084 
L 268.544713 22.882851 
L 269.144914 22.882851 
L 269.144914 22.455362 
L 269.745116 22.455362 
L 269.745116 22.241617 
L 271.545721 22.241617 
L 271.545721 22.027872 
L 272.145923 22.027872 
L 272.145923 21.814128 
L 272.746124 21.814128 
L 272.746124 21.600383 
L 273.946528 21.600383 
L 273.946528 21.386639 
L 275.747133 21.386639 
L 275.747133 21.172894 
L 277.547738 21.172894 
L 277.547738 20.95915 
L 278.14794 20.95915 
L 278.14794 20.745405 
L 281.148948 20.745405 
L 281.148948 20.317916 
L 283.549755 20.317916 
L 283.549755 19.890427 
L 284.750158 19.890427 
L 284.750158 19.462937 
L 288.95157 19.462937 
L 288.95157 19.249193 
L 290.151973 19.249193 
L 290.151973 19.035448 
L 291.352377 19.035448 
L 291.352377 18.821704 
L 292.55278 18.821704 
L 292.55278 18.607959 
L 293.152982 18.607959 
L 293.152982 18.394215 
L 293.753183 18.394215 
L 293.753183 18.18047 
L 294.953587 18.18047 
L 294.953587 17.966725 
L 298.554797 17.966725 
L 298.554797 17.752981 
L 300.955603 17.752981 
L 300.955603 17.325492 
L 301.555805 17.325492 
L 301.555805 17.111747 
L 307.557822 17.111747 
L 307.557822 16.898003 
L 308.758225 16.898003 
L 308.758225 16.470513 
L 314.16004 16.470513 
L 314.16004 16.256769 
L 315.360444 16.256769 
L 315.360444 15.82928 
L 317.161049 15.82928 
L 317.161049 15.40179 
L 320.162057 15.40179 
L 320.162057 15.188046 
L 323.763267 15.188046 
L 323.763267 14.974301 
L 324.963671 14.974301 
L 324.963671 14.760557 
L 325.563872 14.760557 
L 325.563872 14.333068 
L 326.164074 14.333068 
L 326.164074 14.119323 
L 330.965688 14.119323 
L 330.965688 13.905578 
L 335.167099 13.905578 
L 335.167099 13.691834 
L 339.968713 13.691834 
L 339.968713 13.478089 
L 342.969721 13.478089 
L 342.969721 13.264345 
L 350.172141 13.264345 
L 350.172141 13.0506 
L 361.575973 13.0506 
L 361.575973 12.836856 
L 363.376578 12.836856 
L 363.376578 12.623111 
L 365.177183 12.623111 
L 365.177183 12.409366 
L 367.57799 12.409366 
L 367.57799 11.981877 
L 371.779402 11.981877 
L 371.779402 11.768133 
L 372.379603 11.768133 
L 372.379603 11.554388 
L 375.980814 11.554388 
L 375.980814 11.126899 
L 379.582024 11.126899 
L 379.582024 10.69941 
L 380.782427 10.69941 
L 380.782427 10.485665 
L 384.383637 10.485665 
L 384.383637 10.271921 
L 387.384645 10.271921 
L 387.384645 10.058176 
L 390.985856 10.058176 
L 390.985856 9.844431 
L 398.788477 9.844431 
L 398.788477 9.630687 
L 399.988881 9.630687 
L 399.988881 9.416942 
L 400.589082 9.416942 
L 400.589082 9.203198 
L 401.789486 9.203198 
L 401.789486 8.989453 
L 402.389688 8.989453 
L 402.389688 8.989453 
" clip-path="url(#pb94d5e1b14)" style="fill: none; stroke: #ff0000; stroke-width: 1.5; stroke-linecap: square"/>
   </g>
   <g id="line2d_14">
    <defs>
     <path id="ma3243a22fe" d="M 0 3 
C 0.795609 3 1.55874 2.683901 2.12132 2.12132 
C 2.683901 1.55874 3 0.795609 3 0 
C 3 -0.795609 2.683901 -1.55874 2.12132 -2.12132 
C 1.55874 -2.683901 0.795609 -3 0 -3 
C -0.795609 -3 -1.55874 -2.683901 -2.12132 -2.12132 
C -2.683901 -1.55874 -3 -0.795609 -3 0 
C -3 0.795609 -2.683901 1.55874 -2.12132 2.12132 
C -1.55874 2.683901 -0.795609 3 0 3 
z
" style="stroke: #000000"/>
    </defs>
    <g clip-path="url(#pb94d5e1b14)">
     <use xlink:href="#ma3243a22fe" x="123.295906" y="76.746484" style="fill: #ff0000; stroke: #000000"/>
    </g>
   </g>
   <g id="line2d_15">
    <path d="M 45.269688 275.101453 
L 402.389688 8.989453 
" clip-path="url(#pb94d5e1b14)" style="fill: none; stroke: #00bfbf; stroke-width: 1.5; stroke-linecap: square"/>
   </g>
   <g id="patch_4">
    <path d="M 45.269688 275.101453 
L 45.269688 8.989453 
" style="fill: none; stroke: #000000; stroke-width: 0.8; stroke-linejoin: miter; stroke-linecap: square"/>
   </g>
   <g id="patch_5">
    <path d="M 402.389688 275.101453 
L 402.389688 8.989453 
" style="fill: none; stroke: #000000; stroke-width: 0.8; stroke-linejoin: miter; stroke-linecap: square"/>
   </g>
   <g id="patch_6">
    <path d="M 45.269688 275.101453 
L 402.389688 275.101453 
" style="fill: none; stroke: #000000; stroke-width: 0.8; stroke-linejoin: miter; stroke-linecap: square"/>
   </g>
   <g id="patch_7">
    <path d="M 45.269688 8.989453 
L 402.389688 8.989453 
" style="fill: none; stroke: #000000; stroke-width: 0.8; stroke-linejoin: miter; stroke-linecap: square"/>
   </g>
   <g id="legend_1">
    <g id="patch_8">
     <path d="M 163.116406 339.516041 
L 284.542969 339.516041 
Q 285.542969 339.516041 285.542969 338.516041 
L 285.542969 331.823853 
Q 285.542969 330.823853 284.542969 330.823853 
L 163.116406 330.823853 
Q 162.116406 330.823853 162.116406 331.823853 
L 162.116406 338.516041 
Q 162.116406 339.516041 163.116406 339.516041 
z
" style="fill: #ffffff; opacity: 0.8; stroke: #cccccc; stroke-linejoin: miter"/>
    </g>
    <g id="line2d_16">
     <path d="M 164.116406 334.713697 
L 169.116406 334.713697 
L 174.116406 334.713697 
" style="fill: none; stroke: #ff0000; stroke-width: 1.5; stroke-linecap: square"/>
    </g>
    <g id="text_15">
     <text style="font: 5px 'Arial'; text-anchor: start" x="178.116406" y="336.463697" transform="rotate(-0 178.116406 336.463697)">model performance</text>
    </g>
    <g id="line2d_17">
     <path d="M 231.189063 334.713697 
L 236.189063 334.713697 
L 241.189063 334.713697 
" style="fill: none; stroke: #00bfbf; stroke-width: 1.5; stroke-linecap: square"/>
    </g>
    <g id="text_16">
     <text style="font: 5px 'Arial'; text-anchor: start" x="245.189063" y="336.463697" transform="rotate(-0 245.189063 336.463697)">random guessing</text>
    </g>
   </g>
  </g>
 </g>
 <defs>
  <clipPath id="pb94d5e1b14">
   <rect x="45.269688" y="8.989453" width="357.12" height="266.112"/>
  </clipPath>
 </defs>
</svg>
