<?xml version="1.0" encoding="utf-8" standalone="no"?>
<!DOCTYPE svg PUBLIC "-//W3C//DTD SVG 1.1//EN"
  "http://www.w3.org/Graphics/SVG/1.1/DTD/svg11.dtd">
<svg xmlns:xlink="http://www.w3.org/1999/xlink" width="238.114192pt" height="462.97182pt" viewBox="0 0 238.114192 462.97182" xmlns="http://www.w3.org/2000/svg" version="1.1">
 <metadata>
  <rdf:RDF xmlns:dc="http://purl.org/dc/elements/1.1/" xmlns:cc="http://creativecommons.org/ns#" xmlns:rdf="http://www.w3.org/1999/02/22-rdf-syntax-ns#">
   <cc:Work>
    <dc:type rdf:resource="http://purl.org/dc/dcmitype/StillImage"/>
    <dc:date>2024-09-25T14:38:21.194050</dc:date>
    <dc:format>image/svg+xml</dc:format>
    <dc:creator>
     <cc:Agent>
      <dc:title>Matplotlib v3.7.0, https://matplotlib.org/</dc:title>
     </cc:Agent>
    </dc:creator>
   </cc:Work>
  </rdf:RDF>
 </metadata>
 <defs>
  <style type="text/css">*{stroke-linejoin: round; stroke-linecap: butt}</style>
 </defs>
 <g id="figure_1">
  <g id="patch_1">
   <path d="M 0 462.97182 
L 238.114192 462.97182 
L 238.114192 0 
L 0 0 
z
" style="fill: #ffffff"/>
  </g>
  <g id="axes_1">
   <g id="patch_2">
    <path d="M 29.722656 412.784729 
L 227.439192 412.784729 
L 227.439192 8.989453 
L 29.722656 8.989453 
z
" style="fill: #ffffff"/>
   </g>
   <g id="patch_3">
    <path d="M 29.722656 8.989453 
L 35.085767 15.553093 
L 33.660322 18.051166 
L 72.99625 111.671712 
L 72.846204 111.934667 
L 33.510275 18.314121 
L 32.08483 20.812194 
z
" clip-path="url(#paa02593ffa)" style="fill: #1f77b4; stroke: #000000; stroke-linejoin: miter"/>
   </g>
   <g id="matplotlib.axis_1">
    <g id="xtick_1">
     <g id="line2d_1">
      <defs>
       <path id="mb5991d4c43" d="M 0 0 
L 0 3.5 
" style="stroke: #000000; stroke-width: 0.8"/>
      </defs>
      <g>
       <use xlink:href="#mb5991d4c43" x="29.722656" y="412.784729" style="stroke: #000000; stroke-width: 0.8"/>
      </g>
     </g>
     <g id="text_1">
      <text style="font: 5px 'Arial'; text-anchor: middle" x="29.722656" y="423.363635" transform="rotate(-0 29.722656 423.363635)">0.0</text>
     </g>
    </g>
    <g id="xtick_2">
     <g id="line2d_2">
      <g>
       <use xlink:href="#mb5991d4c43" x="69.265963" y="412.784729" style="stroke: #000000; stroke-width: 0.8"/>
      </g>
     </g>
     <g id="text_2">
      <text style="font: 5px 'Arial'; text-anchor: middle" x="69.265963" y="423.363635" transform="rotate(-0 69.265963 423.363635)">0.2</text>
     </g>
    </g>
    <g id="xtick_3">
     <g id="line2d_3">
      <g>
       <use xlink:href="#mb5991d4c43" x="108.80927" y="412.784729" style="stroke: #000000; stroke-width: 0.8"/>
      </g>
     </g>
     <g id="text_3">
      <text style="font: 5px 'Arial'; text-anchor: middle" x="108.80927" y="423.363635" transform="rotate(-0 108.80927 423.363635)">0.4</text>
     </g>
    </g>
    <g id="xtick_4">
     <g id="line2d_4">
      <g>
       <use xlink:href="#mb5991d4c43" x="148.352578" y="412.784729" style="stroke: #000000; stroke-width: 0.8"/>
      </g>
     </g>
     <g id="text_4">
      <text style="font: 5px 'Arial'; text-anchor: middle" x="148.352578" y="423.363635" transform="rotate(-0 148.352578 423.363635)">0.6</text>
     </g>
    </g>
    <g id="xtick_5">
     <g id="line2d_5">
      <g>
       <use xlink:href="#mb5991d4c43" x="187.895885" y="412.784729" style="stroke: #000000; stroke-width: 0.8"/>
      </g>
     </g>
     <g id="text_5">
      <text style="font: 5px 'Arial'; text-anchor: middle" x="187.895885" y="423.363635" transform="rotate(-0 187.895885 423.363635)">0.8</text>
     </g>
    </g>
    <g id="xtick_6">
     <g id="line2d_6">
      <g>
       <use xlink:href="#mb5991d4c43" x="227.439192" y="412.784729" style="stroke: #000000; stroke-width: 0.8"/>
      </g>
     </g>
     <g id="text_6">
      <text style="font: 5px 'Arial'; text-anchor: middle" x="227.439192" y="423.363635" transform="rotate(-0 227.439192 423.363635)">1.0</text>
     </g>
    </g>
    <g id="text_7">
     <text style="font: 5px 'Arial'; text-anchor: middle" x="128.580924" y="431.936291" transform="rotate(-0 128.580924 431.936291)">FPR</text>
    </g>
   </g>
   <g id="matplotlib.axis_2">
    <g id="ytick_1">
     <g id="line2d_7">
      <defs>
       <path id="mbf3dc13a8e" d="M 0 0 
L -3.5 0 
" style="stroke: #000000; stroke-width: 0.8"/>
      </defs>
      <g>
       <use xlink:href="#mbf3dc13a8e" x="29.722656" y="412.784729" style="stroke: #000000; stroke-width: 0.8"/>
      </g>
     </g>
     <g id="text_8">
      <text style="font: 5px 'Arial'; text-anchor: end" x="22.722656" y="414.574182" transform="rotate(-0 22.722656 414.574182)">0.0</text>
     </g>
    </g>
    <g id="ytick_2">
     <g id="line2d_8">
      <g>
       <use xlink:href="#mbf3dc13a8e" x="29.722656" y="332.025674" style="stroke: #000000; stroke-width: 0.8"/>
      </g>
     </g>
     <g id="text_9">
      <text style="font: 5px 'Arial'; text-anchor: end" x="22.722656" y="333.815127" transform="rotate(-0 22.722656 333.815127)">0.2</text>
     </g>
    </g>
    <g id="ytick_3">
     <g id="line2d_9">
      <g>
       <use xlink:href="#mbf3dc13a8e" x="29.722656" y="251.266618" style="stroke: #000000; stroke-width: 0.8"/>
      </g>
     </g>
     <g id="text_10">
      <text style="font: 5px 'Arial'; text-anchor: end" x="22.722656" y="253.056072" transform="rotate(-0 22.722656 253.056072)">0.4</text>
     </g>
    </g>
    <g id="ytick_4">
     <g id="line2d_10">
      <g>
       <use xlink:href="#mbf3dc13a8e" x="29.722656" y="170.507563" style="stroke: #000000; stroke-width: 0.8"/>
      </g>
     </g>
     <g id="text_11">
      <text style="font: 5px 'Arial'; text-anchor: end" x="22.722656" y="172.297016" transform="rotate(-0 22.722656 172.297016)">0.6</text>
     </g>
    </g>
    <g id="ytick_5">
     <g id="line2d_11">
      <g>
       <use xlink:href="#mbf3dc13a8e" x="29.722656" y="89.748508" style="stroke: #000000; stroke-width: 0.8"/>
      </g>
     </g>
     <g id="text_12">
      <text style="font: 5px 'Arial'; text-anchor: end" x="22.722656" y="91.537961" transform="rotate(-0 22.722656 91.537961)">0.8</text>
     </g>
    </g>
    <g id="ytick_6">
     <g id="line2d_12">
      <g>
       <use xlink:href="#mbf3dc13a8e" x="29.722656" y="8.989453" style="stroke: #000000; stroke-width: 0.8"/>
      </g>
     </g>
     <g id="text_13">
      <text style="font: 5px 'Arial'; text-anchor: end" x="22.722656" y="10.778906" transform="rotate(-0 22.722656 10.778906)">1.0</text>
     </g>
    </g>
    <g id="text_14">
     <text style="font: 5px 'Arial'; text-anchor: middle" x="10.778906" y="210.887091" transform="rotate(-90 10.778906 210.887091)">TPR</text>
    </g>
   </g>
   <g id="line2d_13">
    <path d="M 29.722656 412.784729 
L 29.722656 407.919725 
L 30.054953 407.919725 
L 30.054953 402.081721 
L 30.38725 402.081721 
L 30.38725 388.784046 
L 30.719546 388.784046 
L 30.719546 385.54071 
L 31.051843 385.54071 
L 31.051843 378.405372 
L 31.38414 378.405372 
L 31.38414 361.215694 
L 31.716436 361.215694 
L 31.716436 354.080355 
L 32.048733 354.080355 
L 32.048733 343.053014 
L 32.38103 343.053014 
L 32.38103 339.809679 
L 32.713327 339.809679 
L 32.713327 332.025674 
L 33.045623 332.025674 
L 33.045623 331.70134 
L 33.37792 331.70134 
L 33.37792 313.214327 
L 33.710217 313.214327 
L 33.710217 302.186987 
L 34.042513 302.186987 
L 34.042513 298.619317 
L 34.37481 298.619317 
L 34.37481 285.970309 
L 34.707107 285.970309 
L 34.707107 284.348641 
L 35.039403 284.348641 
L 35.039403 274.294301 
L 35.3717 274.294301 
L 35.3717 271.699632 
L 35.703997 271.699632 
L 35.703997 268.456297 
L 36.036294 268.456297 
L 36.036294 262.942626 
L 36.36859 262.942626 
L 36.36859 260.023624 
L 36.700887 260.023624 
L 36.700887 253.21262 
L 37.033184 253.21262 
L 37.033184 252.563953 
L 37.36548 252.563953 
L 37.36548 248.67195 
L 37.697777 248.67195 
L 37.697777 243.15828 
L 38.030074 243.15828 
L 38.030074 238.61761 
L 38.36237 238.61761 
L 38.36237 226.941602 
L 38.694667 226.941602 
L 38.694667 224.671267 
L 39.026964 224.671267 
L 39.026964 224.346933 
L 39.691557 224.346933 
L 39.691557 221.427931 
L 40.023854 221.427931 
L 40.023854 220.779264 
L 40.356151 220.779264 
L 40.356151 218.508929 
L 40.688447 218.508929 
L 40.688447 217.860262 
L 41.020744 217.860262 
L 41.020744 216.238595 
L 41.353041 216.238595 
L 41.353041 213.319593 
L 41.685337 213.319593 
L 41.685337 209.42759 
L 42.017634 209.42759 
L 42.017634 200.34625 
L 42.349931 200.34625 
L 42.349931 195.805581 
L 42.682227 195.805581 
L 42.682227 192.562245 
L 43.014524 192.562245 
L 43.014524 191.264911 
L 43.346821 191.264911 
L 43.346821 189.31891 
L 44.011414 189.31891 
L 44.011414 185.426907 
L 44.343711 185.426907 
L 44.343711 181.534904 
L 45.008304 181.534904 
L 45.008304 180.561904 
L 46.005194 180.561904 
L 46.005194 179.588903 
L 46.337491 179.588903 
L 46.337491 179.264569 
L 47.002085 179.264569 
L 47.002085 177.967235 
L 47.334381 177.967235 
L 47.334381 175.6969 
L 47.666678 175.6969 
L 47.666678 175.048233 
L 47.998975 175.048233 
L 47.998975 174.075232 
L 48.331271 174.075232 
L 48.331271 173.750899 
L 48.663568 173.750899 
L 48.663568 173.426565 
L 48.995865 173.426565 
L 48.995865 170.507563 
L 49.328161 170.507563 
L 49.328161 168.237228 
L 49.660458 168.237228 
L 49.660458 166.615561 
L 49.992755 166.615561 
L 49.992755 162.723558 
L 50.325052 162.723558 
L 50.325052 162.074891 
L 50.657348 162.074891 
L 50.657348 161.750557 
L 50.989645 161.750557 
L 50.989645 160.777557 
L 51.321942 160.777557 
L 51.321942 160.12889 
L 51.986535 160.12889 
L 51.986535 157.858555 
L 52.318832 157.858555 
L 52.318832 156.561221 
L 52.651128 156.561221 
L 52.651128 156.236887 
L 53.980315 156.236887 
L 53.980315 155.912553 
L 54.644909 155.912553 
L 54.644909 155.263886 
L 54.977205 155.263886 
L 54.977205 152.993551 
L 55.641799 152.993551 
L 55.641799 152.020551 
L 55.974095 152.020551 
L 55.974095 150.723217 
L 56.306392 150.723217 
L 56.306392 149.425882 
L 56.638689 149.425882 
L 56.638689 149.101549 
L 57.303282 149.101549 
L 57.303282 148.777215 
L 57.635579 148.777215 
L 57.635579 148.452882 
L 57.967876 148.452882 
L 57.967876 145.858213 
L 58.300172 145.858213 
L 58.300172 145.53388 
L 58.632469 145.53388 
L 58.632469 144.885213 
L 59.297062 144.885213 
L 59.297062 143.912212 
L 59.629359 143.912212 
L 59.629359 142.939211 
L 60.293952 142.939211 
L 60.293952 141.966211 
L 60.626249 141.966211 
L 60.626249 140.99321 
L 60.958546 140.99321 
L 60.958546 140.668876 
L 61.290843 140.668876 
L 61.290843 137.749874 
L 61.955436 137.749874 
L 61.955436 137.425541 
L 62.287733 137.425541 
L 62.287733 135.155206 
L 62.620029 135.155206 
L 62.620029 134.182205 
L 62.952326 134.182205 
L 62.952326 133.857872 
L 63.284623 133.857872 
L 63.284623 132.884871 
L 63.616919 132.884871 
L 63.616919 130.93887 
L 65.278403 130.93887 
L 65.278403 130.614536 
L 65.6107 130.614536 
L 65.6107 130.290203 
L 65.942996 130.290203 
L 65.942996 128.992868 
L 66.60759 128.992868 
L 66.60759 128.668535 
L 66.939886 128.668535 
L 66.939886 127.371201 
L 67.60448 127.371201 
L 67.60448 125.749533 
L 67.936777 125.749533 
L 67.936777 125.100866 
L 68.269073 125.100866 
L 68.269073 123.803531 
L 68.60137 123.803531 
L 68.60137 123.154864 
L 68.933667 123.154864 
L 68.933667 122.830531 
L 69.265963 122.830531 
L 69.265963 121.208863 
L 69.59826 121.208863 
L 69.59826 120.560196 
L 70.262853 120.560196 
L 70.262853 118.938528 
L 70.59515 118.938528 
L 70.59515 118.289861 
L 71.259744 118.289861 
L 71.259744 117.965528 
L 71.59204 117.965528 
L 71.59204 117.31686 
L 71.924337 117.31686 
L 71.924337 115.695193 
L 72.256634 115.695193 
L 72.256634 114.073525 
L 72.58893 114.073525 
L 72.58893 112.776191 
L 72.921227 112.776191 
L 72.921227 111.80319 
L 73.918117 111.80319 
L 73.918117 111.154523 
L 75.247304 111.154523 
L 75.247304 110.181522 
L 75.579601 110.181522 
L 75.579601 109.532855 
L 75.911897 109.532855 
L 75.911897 108.235521 
L 76.576491 108.235521 
L 76.576491 105.965186 
L 76.908787 105.965186 
L 76.908787 105.316519 
L 78.237974 105.316519 
L 78.237974 104.992185 
L 78.570271 104.992185 
L 78.570271 104.667852 
L 79.234864 104.667852 
L 79.234864 104.343518 
L 81.228644 104.343518 
L 81.228644 104.019185 
L 81.560941 104.019185 
L 81.560941 103.370518 
L 82.225535 103.370518 
L 82.225535 101.74885 
L 82.557831 101.74885 
L 82.557831 101.100183 
L 82.890128 101.100183 
L 82.890128 100.775849 
L 83.222425 100.775849 
L 83.222425 98.505514 
L 83.554721 98.505514 
L 83.554721 96.235179 
L 84.219315 96.235179 
L 84.219315 94.937845 
L 84.551611 94.937845 
L 84.551611 94.289178 
L 85.216205 94.289178 
L 85.216205 93.640511 
L 85.548502 93.640511 
L 85.548502 93.316177 
L 87.209985 93.316177 
L 87.209985 92.66751 
L 87.542282 92.66751 
L 87.542282 92.018843 
L 87.874578 92.018843 
L 87.874578 91.045842 
L 88.206875 91.045842 
L 88.206875 90.721509 
L 88.539172 90.721509 
L 88.539172 89.748508 
L 89.536062 89.748508 
L 89.536062 88.451174 
L 90.200655 88.451174 
L 90.200655 87.802507 
L 90.532952 87.802507 
L 90.532952 87.15384 
L 90.865249 87.15384 
L 90.865249 86.829506 
L 91.529842 86.829506 
L 91.529842 86.180839 
L 92.526732 86.180839 
L 92.526732 84.883505 
L 93.855919 84.883505 
L 93.855919 84.559171 
L 94.188216 84.559171 
L 94.188216 83.586171 
L 95.185106 83.586171 
L 95.185106 82.288836 
L 96.514293 82.288836 
L 96.514293 81.315836 
L 96.846589 81.315836 
L 96.846589 80.991502 
L 97.178886 80.991502 
L 97.178886 80.667169 
L 97.511183 80.667169 
L 97.511183 80.342835 
L 98.508073 80.342835 
L 98.508073 78.721167 
L 100.169556 78.721167 
L 100.169556 78.396834 
L 100.501853 78.396834 
L 100.501853 78.0725 
L 101.498743 78.0725 
L 101.498743 75.802165 
L 103.160227 75.802165 
L 103.160227 75.477832 
L 103.492523 75.477832 
L 103.492523 73.856164 
L 103.82482 73.856164 
L 103.82482 73.531831 
L 104.157117 73.531831 
L 104.157117 72.55883 
L 104.489413 72.55883 
L 104.489413 70.937162 
L 104.82171 70.937162 
L 104.82171 70.612829 
L 105.154007 70.612829 
L 105.154007 69.964161 
L 106.81549 69.964161 
L 106.81549 69.639828 
L 107.480084 69.639828 
L 107.480084 68.666827 
L 107.81238 68.666827 
L 107.81238 68.342494 
L 109.141567 68.342494 
L 109.141567 66.720826 
L 110.138457 66.720826 
L 110.138457 66.072159 
L 110.803051 66.072159 
L 110.803051 65.747825 
L 111.799941 65.747825 
L 111.799941 64.774825 
L 112.132237 64.774825 
L 112.132237 64.450491 
L 112.796831 64.450491 
L 112.796831 62.180156 
L 114.458314 62.180156 
L 114.458314 60.558488 
L 114.790611 60.558488 
L 114.790611 59.909821 
L 115.122908 59.909821 
L 115.122908 59.585488 
L 115.455204 59.585488 
L 115.455204 59.261154 
L 116.119798 59.261154 
L 116.119798 58.612487 
L 116.452094 58.612487 
L 116.452094 55.693485 
L 118.113578 55.693485 
L 118.113578 55.369151 
L 119.110468 55.369151 
L 119.110468 53.747484 
L 119.775061 53.747484 
L 119.775061 53.42315 
L 120.439655 53.42315 
L 120.439655 52.774483 
L 121.768842 52.774483 
L 121.768842 52.450149 
L 122.101138 52.450149 
L 122.101138 51.801482 
L 122.765732 51.801482 
L 122.765732 51.477149 
L 123.430325 51.477149 
L 123.430325 51.152815 
L 124.094919 51.152815 
L 124.094919 50.504148 
L 124.759512 50.504148 
L 124.759512 50.179815 
L 125.091809 50.179815 
L 125.091809 49.531147 
L 125.424105 49.531147 
L 125.424105 48.88248 
L 126.753292 48.88248 
L 126.753292 47.260813 
L 127.085589 47.260813 
L 127.085589 46.612145 
L 127.417886 46.612145 
L 127.417886 45.963478 
L 128.414776 45.963478 
L 128.414776 45.639145 
L 130.408556 45.639145 
L 130.408556 45.314811 
L 131.073149 45.314811 
L 131.073149 44.990478 
L 131.737743 44.990478 
L 131.737743 42.720143 
L 132.070039 42.720143 
L 132.070039 42.395809 
L 132.402336 42.395809 
L 132.402336 41.747142 
L 132.734633 41.747142 
L 132.734633 41.098475 
L 133.066929 41.098475 
L 133.066929 40.449808 
L 134.063819 40.449808 
L 134.063819 40.125474 
L 134.728413 40.125474 
L 134.728413 39.801141 
L 136.0576 39.801141 
L 136.0576 39.476807 
L 136.389896 39.476807 
L 136.389896 39.152474 
L 138.05138 39.152474 
L 138.05138 38.503807 
L 139.712863 38.503807 
L 139.712863 38.179473 
L 141.706644 38.179473 
L 141.706644 37.855139 
L 142.371237 37.855139 
L 142.371237 37.530806 
L 142.703534 37.530806 
L 142.703534 37.206472 
L 143.368127 37.206472 
L 143.368127 36.233472 
L 143.700424 36.233472 
L 143.700424 35.584805 
L 144.03272 35.584805 
L 144.03272 35.260471 
L 145.361907 35.260471 
L 145.361907 34.936138 
L 145.694204 34.936138 
L 145.694204 34.28747 
L 146.691094 34.28747 
L 146.691094 32.990136 
L 148.020281 32.990136 
L 148.020281 32.665803 
L 149.681764 32.665803 
L 149.681764 32.017136 
L 150.346358 32.017136 
L 150.346358 31.692802 
L 151.343248 31.692802 
L 151.343248 31.368468 
L 153.004731 31.368468 
L 153.004731 31.044135 
L 153.337028 31.044135 
L 153.337028 30.071134 
L 153.669325 30.071134 
L 153.669325 29.422467 
L 154.001621 29.422467 
L 154.001621 29.098134 
L 154.998511 29.098134 
L 154.998511 28.7738 
L 155.330808 28.7738 
L 155.330808 28.449466 
L 155.663105 28.449466 
L 155.663105 28.125133 
L 156.327698 28.125133 
L 156.327698 27.800799 
L 157.324588 27.800799 
L 157.324588 27.476466 
L 158.321478 27.476466 
L 158.321478 27.152132 
L 158.653775 27.152132 
L 158.653775 26.827799 
L 160.315259 26.827799 
L 160.315259 26.179132 
L 161.644445 26.179132 
L 161.644445 25.530464 
L 162.309039 25.530464 
L 162.309039 24.881797 
L 164.635116 24.881797 
L 164.635116 24.557464 
L 165.299709 24.557464 
L 165.299709 24.23313 
L 165.964303 24.23313 
L 165.964303 23.908797 
L 166.628896 23.908797 
L 166.628896 23.584463 
L 166.961193 23.584463 
L 166.961193 23.26013 
L 167.293489 23.26013 
L 167.293489 22.935796 
L 167.958083 22.935796 
L 167.958083 22.611462 
L 169.951863 22.611462 
L 169.951863 22.287129 
L 171.28105 22.287129 
L 171.28105 21.638462 
L 171.613346 21.638462 
L 171.613346 21.314128 
L 174.936313 21.314128 
L 174.936313 20.989795 
L 175.600907 20.989795 
L 175.600907 20.341128 
L 178.591577 20.341128 
L 178.591577 20.016794 
L 179.25617 20.016794 
L 179.25617 19.368127 
L 180.253061 19.368127 
L 180.253061 18.71946 
L 181.914544 18.71946 
L 181.914544 18.395126 
L 183.908324 18.395126 
L 183.908324 18.070793 
L 184.572918 18.070793 
L 184.572918 17.746459 
L 184.905214 17.746459 
L 184.905214 17.097792 
L 185.237511 17.097792 
L 185.237511 16.773458 
L 187.895885 16.773458 
L 187.895885 16.449125 
L 190.221961 16.449125 
L 190.221961 16.124791 
L 192.880335 16.124791 
L 192.880335 15.800458 
L 194.541819 15.800458 
L 194.541819 15.476124 
L 198.529379 15.476124 
L 198.529379 15.151791 
L 204.843016 15.151791 
L 204.843016 14.827457 
L 205.839906 14.827457 
L 205.839906 14.503124 
L 206.836796 14.503124 
L 206.836796 14.17879 
L 208.165983 14.17879 
L 208.165983 13.530123 
L 210.49206 13.530123 
L 210.49206 13.205789 
L 210.824357 13.205789 
L 210.824357 12.881456 
L 212.818137 12.881456 
L 212.818137 12.232789 
L 214.811917 12.232789 
L 214.811917 11.584122 
L 215.476511 11.584122 
L 215.476511 11.259788 
L 217.470291 11.259788 
L 217.470291 10.935454 
L 219.131774 10.935454 
L 219.131774 10.611121 
L 221.125554 10.611121 
L 221.125554 10.286787 
L 225.445411 10.286787 
L 225.445411 9.962454 
L 226.110005 9.962454 
L 226.110005 9.63812 
L 226.442302 9.63812 
L 226.442302 9.313787 
L 227.106895 9.313787 
L 227.106895 8.989453 
L 227.439192 8.989453 
L 227.439192 8.989453 
" clip-path="url(#paa02593ffa)" style="fill: none; stroke: #ff0000; stroke-width: 1.5; stroke-linecap: square"/>
   </g>
   <g id="line2d_14">
    <defs>
     <path id="m7756addfcf" d="M 0 3 
C 0.795609 3 1.55874 2.683901 2.12132 2.12132 
C 2.683901 1.55874 3 0.795609 3 0 
C 3 -0.795609 2.683901 -1.55874 2.12132 -2.12132 
C 1.55874 -2.683901 0.795609 -3 0 -3 
C -0.795609 -3 -1.55874 -2.683901 -2.12132 -2.12132 
C -2.683901 -1.55874 -3 -0.795609 -3 0 
C -3 0.795609 -2.683901 1.55874 -2.12132 2.12132 
C -1.55874 2.683901 -0.795609 3 0 3 
z
" style="stroke: #000000"/>
    </defs>
    <g clip-path="url(#paa02593ffa)">
     <use xlink:href="#m7756addfcf" x="72.921227" y="111.80319" style="fill: #ff0000; stroke: #000000"/>
    </g>
   </g>
   <g id="line2d_15">
    <path d="M 29.722656 412.784729 
L 227.439192 8.989453 
" clip-path="url(#paa02593ffa)" style="fill: none; stroke: #00bfbf; stroke-width: 1.5; stroke-linecap: square"/>
   </g>
   <g id="patch_4">
    <path d="M 29.722656 412.784729 
L 29.722656 8.989453 
" style="fill: none; stroke: #000000; stroke-width: 0.8; stroke-linejoin: miter; stroke-linecap: square"/>
   </g>
   <g id="patch_5">
    <path d="M 227.439192 412.784729 
L 227.439192 8.989453 
" style="fill: none; stroke: #000000; stroke-width: 0.8; stroke-linejoin: miter; stroke-linecap: square"/>
   </g>
   <g id="patch_6">
    <path d="M 29.722656 412.784729 
L 227.439192 412.784729 
" style="fill: none; stroke: #000000; stroke-width: 0.8; stroke-linejoin: miter; stroke-linecap: square"/>
   </g>
   <g id="patch_7">
    <path d="M 29.722656 8.989453 
L 227.439192 8.989453 
" style="fill: none; stroke: #000000; stroke-width: 0.8; stroke-linejoin: miter; stroke-linecap: square"/>
   </g>
   <g id="legend_1">
    <g id="patch_8">
     <path d="M 67.867643 455.77182 
L 189.294205 455.77182 
Q 190.294205 455.77182 190.294205 454.77182 
L 190.294205 448.079632 
Q 190.294205 447.079632 189.294205 447.079632 
L 67.867643 447.079632 
Q 66.867643 447.079632 66.867643 448.079632 
L 66.867643 454.77182 
Q 66.867643 455.77182 67.867643 455.77182 
z
" style="fill: #ffffff; opacity: 0.8; stroke: #cccccc; stroke-linejoin: miter"/>
    </g>
    <g id="line2d_16">
     <path d="M 68.867643 450.969476 
L 73.867643 450.969476 
L 78.867643 450.969476 
" style="fill: none; stroke: #ff0000; stroke-width: 1.5; stroke-linecap: square"/>
    </g>
    <g id="text_15">
     <text style="font: 5px 'Arial'; text-anchor: start" x="82.867643" y="452.719476" transform="rotate(-0 82.867643 452.719476)">model performance</text>
    </g>
    <g id="line2d_17">
     <path d="M 135.940299 450.969476 
L 140.940299 450.969476 
L 145.940299 450.969476 
" style="fill: none; stroke: #00bfbf; stroke-width: 1.5; stroke-linecap: square"/>
    </g>
    <g id="text_16">
     <text style="font: 5px 'Arial'; text-anchor: start" x="149.940299" y="452.719476" transform="rotate(-0 149.940299 452.719476)">random guessing</text>
    </g>
   </g>
  </g>
 </g>
 <defs>
  <clipPath id="paa02593ffa">
   <rect x="29.722656" y="8.989453" width="197.716535" height="403.795276"/>
  </clipPath>
 </defs>
</svg>
