<?xml version="1.0" encoding="utf-8" standalone="no"?>
<!DOCTYPE svg PUBLIC "-//W3C//DTD SVG 1.1//EN"
  "http://www.w3.org/Graphics/SVG/1.1/DTD/svg11.dtd">
<svg xmlns:xlink="http://www.w3.org/1999/xlink" width="238.114192pt" height="476.122835pt" viewBox="0 0 238.114192 476.122835" xmlns="http://www.w3.org/2000/svg" version="1.1">
 <metadata>
  <rdf:RDF xmlns:dc="http://purl.org/dc/elements/1.1/" xmlns:cc="http://creativecommons.org/ns#" xmlns:rdf="http://www.w3.org/1999/02/22-rdf-syntax-ns#">
   <cc:Work>
    <dc:type rdf:resource="http://purl.org/dc/dcmitype/StillImage"/>
    <dc:date>2024-09-25T17:35:13.826603</dc:date>
    <dc:format>image/svg+xml</dc:format>
    <dc:creator>
     <cc:Agent>
      <dc:title>Matplotlib v3.7.0, https://matplotlib.org/</dc:title>
     </cc:Agent>
    </dc:creator>
   </cc:Work>
  </rdf:RDF>
 </metadata>
 <defs>
  <style type="text/css">*{stroke-linejoin: round; stroke-linecap: butt}</style>
 </defs>
 <g id="figure_1">
  <g id="patch_1">
   <path d="M 0 476.122835 
L 238.114192 476.122835 
L 238.114192 0 
L 0 0 
z
" style="fill: #ffffff"/>
  </g>
  <g id="axes_1">
   <g id="patch_2">
    <path d="M 29.722656 425.935744 
L 227.439192 425.935744 
L 227.439192 22.140469 
L 29.722656 22.140469 
z
" style="fill: #ffffff"/>
   </g>
   <g id="patch_3">
    <path d="M 227.439192 22.140469 
L 227.259944 34.904348 
L 225.495786 33.587448 
L 212.127621 108.282658 
L 211.94192 108.144037 
L 225.310086 33.448827 
L 223.545928 32.131926 
z
" clip-path="url(#p6ad8502ee8)" style="fill: #1f77b4; stroke: #000000; stroke-linejoin: miter"/>
   </g>
   <g id="matplotlib.axis_1">
    <g id="xtick_1">
     <g id="line2d_1">
      <defs>
       <path id="m4b263ada4b" d="M 0 0 
L 0 3.5 
" style="stroke: #000000; stroke-width: 0.8"/>
      </defs>
      <g>
       <use xlink:href="#m4b263ada4b" x="29.722656" y="425.935744" style="stroke: #000000; stroke-width: 0.8"/>
      </g>
     </g>
     <g id="text_1">
      <text style="font: 5px 'Arial'; text-anchor: middle" x="29.722656" y="436.514651" transform="rotate(-0 29.722656 436.514651)">0.0</text>
     </g>
    </g>
    <g id="xtick_2">
     <g id="line2d_2">
      <g>
       <use xlink:href="#m4b263ada4b" x="69.265963" y="425.935744" style="stroke: #000000; stroke-width: 0.8"/>
      </g>
     </g>
     <g id="text_2">
      <text style="font: 5px 'Arial'; text-anchor: middle" x="69.265963" y="436.514651" transform="rotate(-0 69.265963 436.514651)">0.2</text>
     </g>
    </g>
    <g id="xtick_3">
     <g id="line2d_3">
      <g>
       <use xlink:href="#m4b263ada4b" x="108.80927" y="425.935744" style="stroke: #000000; stroke-width: 0.8"/>
      </g>
     </g>
     <g id="text_3">
      <text style="font: 5px 'Arial'; text-anchor: middle" x="108.80927" y="436.514651" transform="rotate(-0 108.80927 436.514651)">0.4</text>
     </g>
    </g>
    <g id="xtick_4">
     <g id="line2d_4">
      <g>
       <use xlink:href="#m4b263ada4b" x="148.352578" y="425.935744" style="stroke: #000000; stroke-width: 0.8"/>
      </g>
     </g>
     <g id="text_4">
      <text style="font: 5px 'Arial'; text-anchor: middle" x="148.352578" y="436.514651" transform="rotate(-0 148.352578 436.514651)">0.6</text>
     </g>
    </g>
    <g id="xtick_5">
     <g id="line2d_5">
      <g>
       <use xlink:href="#m4b263ada4b" x="187.895885" y="425.935744" style="stroke: #000000; stroke-width: 0.8"/>
      </g>
     </g>
     <g id="text_5">
      <text style="font: 5px 'Arial'; text-anchor: middle" x="187.895885" y="436.514651" transform="rotate(-0 187.895885 436.514651)">0.8</text>
     </g>
    </g>
    <g id="xtick_6">
     <g id="line2d_6">
      <g>
       <use xlink:href="#m4b263ada4b" x="227.439192" y="425.935744" style="stroke: #000000; stroke-width: 0.8"/>
      </g>
     </g>
     <g id="text_6">
      <text style="font: 5px 'Arial'; text-anchor: middle" x="227.439192" y="436.514651" transform="rotate(-0 227.439192 436.514651)">1.0</text>
     </g>
    </g>
    <g id="text_7">
     <text style="font: 5px 'Arial'; text-anchor: middle" x="128.580924" y="445.087307" transform="rotate(-0 128.580924 445.087307)">Recall</text>
    </g>
   </g>
   <g id="matplotlib.axis_2">
    <g id="ytick_1">
     <g id="line2d_7">
      <defs>
       <path id="maf3a5fc283" d="M 0 0 
L -3.5 0 
" style="stroke: #000000; stroke-width: 0.8"/>
      </defs>
      <g>
       <use xlink:href="#maf3a5fc283" x="29.722656" y="425.935744" style="stroke: #000000; stroke-width: 0.8"/>
      </g>
     </g>
     <g id="text_8">
      <text style="font: 5px 'Arial'; text-anchor: end" x="22.722656" y="427.725197" transform="rotate(-0 22.722656 427.725197)">0.0</text>
     </g>
    </g>
    <g id="ytick_2">
     <g id="line2d_8">
      <g>
       <use xlink:href="#maf3a5fc283" x="29.722656" y="345.176689" style="stroke: #000000; stroke-width: 0.8"/>
      </g>
     </g>
     <g id="text_9">
      <text style="font: 5px 'Arial'; text-anchor: end" x="22.722656" y="346.966142" transform="rotate(-0 22.722656 346.966142)">0.2</text>
     </g>
    </g>
    <g id="ytick_3">
     <g id="line2d_9">
      <g>
       <use xlink:href="#maf3a5fc283" x="29.722656" y="264.417634" style="stroke: #000000; stroke-width: 0.8"/>
      </g>
     </g>
     <g id="text_10">
      <text style="font: 5px 'Arial'; text-anchor: end" x="22.722656" y="266.207087" transform="rotate(-0 22.722656 266.207087)">0.4</text>
     </g>
    </g>
    <g id="ytick_4">
     <g id="line2d_10">
      <g>
       <use xlink:href="#maf3a5fc283" x="29.722656" y="183.658579" style="stroke: #000000; stroke-width: 0.8"/>
      </g>
     </g>
     <g id="text_11">
      <text style="font: 5px 'Arial'; text-anchor: end" x="22.722656" y="185.448032" transform="rotate(-0 22.722656 185.448032)">0.6</text>
     </g>
    </g>
    <g id="ytick_5">
     <g id="line2d_11">
      <g>
       <use xlink:href="#maf3a5fc283" x="29.722656" y="102.899524" style="stroke: #000000; stroke-width: 0.8"/>
      </g>
     </g>
     <g id="text_12">
      <text style="font: 5px 'Arial'; text-anchor: end" x="22.722656" y="104.688977" transform="rotate(-0 22.722656 104.688977)">0.8</text>
     </g>
    </g>
    <g id="ytick_6">
     <g id="line2d_12">
      <g>
       <use xlink:href="#maf3a5fc283" x="29.722656" y="22.140469" style="stroke: #000000; stroke-width: 0.8"/>
      </g>
     </g>
     <g id="text_13">
      <text style="font: 5px 'Arial'; text-anchor: end" x="22.722656" y="23.929922" transform="rotate(-0 22.722656 23.929922)">1.0</text>
     </g>
    </g>
    <g id="text_14">
     <text style="font: 5px 'Arial'; text-anchor: middle" x="10.778906" y="224.038107" transform="rotate(-90 10.778906 224.038107)">Precision</text>
    </g>
   </g>
   <g id="line2d_13">
    <path d="M 227.439192 152.715571 
L 227.439192 152.567001 
L 227.280383 152.637963 
L 227.280383 152.340253 
L 227.121575 152.411206 
L 227.121575 152.262065 
L 226.962766 152.333054 
L 226.962766 152.034197 
L 226.803958 152.105178 
L 226.803958 150.146016 
L 226.645149 150.216503 
L 226.645149 149.302517 
L 226.486341 149.372811 
L 226.486341 148.606284 
L 226.327532 148.676426 
L 226.327532 147.750685 
L 226.168724 147.820624 
L 226.168724 147.510574 
L 225.851107 147.650496 
L 225.851107 146.715607 
L 225.53349 146.855265 
L 225.53349 145.913486 
L 225.374682 145.983139 
L 225.374682 145.825508 
L 225.215873 145.89519 
L 225.215873 144.786432 
L 224.898256 144.925329 
L 224.898256 144.287394 
L 224.739448 144.356756 
L 224.739448 143.876246 
L 224.580639 143.945532 
L 224.580639 143.463223 
L 224.421831 143.532431 
L 224.421831 140.438047 
L 224.263022 140.506308 
L 224.263022 138.516097 
L 224.104214 138.583758 
L 224.104214 137.745997 
L 223.945406 137.813444 
L 223.945406 136.462343 
L 223.786597 136.529394 
L 223.786597 135.336318 
L 223.627789 135.403021 
L 223.627789 134.026904 
L 223.46898 134.093187 
L 223.46898 133.920192 
L 223.151363 134.052869 
L 223.151363 133.879541 
L 222.992555 133.945934 
L 222.992555 133.598534 
L 222.833746 133.664878 
L 222.833746 132.617312 
L 222.674938 132.683348 
L 222.674938 131.804294 
L 222.357321 131.935943 
L 222.357321 131.405576 
L 222.039704 131.537142 
L 222.039704 131.182231 
L 221.880896 131.247998 
L 221.880896 129.639636 
L 221.563279 129.770175 
L 221.563279 129.410095 
L 221.40447 129.475344 
L 221.40447 127.661021 
L 221.245662 127.725639 
L 221.245662 127.542912 
L 220.928045 127.67224 
L 220.928045 126.938505 
L 220.769236 127.002996 
L 220.769236 125.895154 
L 220.610428 125.959279 
L 220.610428 125.588021 
L 220.451619 125.652075 
L 220.451619 125.466026 
L 220.292811 125.530084 
L 220.292811 125.343728 
L 220.134002 125.407789 
L 220.134002 125.034231 
L 219.975194 125.098219 
L 219.975194 124.723577 
L 219.816385 124.787492 
L 219.816385 124.411761 
L 219.657577 124.475601 
L 219.657577 123.152578 
L 219.33996 123.279398 
L 219.33996 122.898938 
L 219.022343 123.025758 
L 219.022343 122.261316 
L 218.704726 122.387811 
L 218.704726 121.425999 
L 218.545918 121.488958 
L 218.545918 121.295781 
L 218.387109 121.358736 
L 218.387109 120.777483 
L 218.228301 120.840269 
L 218.228301 120.25654 
L 218.069492 120.319154 
L 218.069492 119.92859 
L 217.910684 119.991114 
L 217.910684 119.795372 
L 217.751875 119.857891 
L 217.751875 119.661813 
L 217.593067 119.724327 
L 217.593067 119.134324 
L 217.434259 119.19666 
L 217.434259 118.9994 
L 217.116642 119.124138 
L 217.116642 118.92645 
L 216.640216 119.113898 
L 216.640216 118.915693 
L 216.481408 118.97825 
L 216.481408 117.982927 
L 216.322599 118.045122 
L 216.322599 117.444555 
L 216.163791 117.506562 
L 216.163791 117.1047 
L 215.846174 117.228593 
L 215.846174 116.218426 
L 215.687365 116.280035 
L 215.687365 115.466757 
L 215.052132 115.712514 
L 215.052132 115.098616 
L 214.734515 115.221414 
L 214.734515 115.016051 
L 214.575706 115.077477 
L 214.575706 114.252919 
L 214.416898 114.314042 
L 214.416898 114.107122 
L 214.099281 114.229418 
L 214.099281 114.022028 
L 213.622855 114.205792 
L 213.622855 113.789597 
L 213.464047 113.850819 
L 213.464047 113.642206 
L 213.305239 113.703411 
L 213.305239 113.285149 
L 213.14643 113.346238 
L 213.14643 112.0841 
L 212.987622 112.144668 
L 212.987622 111.084563 
L 212.670005 111.204921 
L 212.670005 110.136588 
L 212.511196 110.196368 
L 212.511196 109.981725 
L 212.352388 110.041481 
L 212.352388 109.17956 
L 212.193579 109.238972 
L 212.193579 108.80603 
L 212.034771 108.865309 
L 212.034771 108.213348 
L 211.717154 108.331499 
L 211.717154 108.113364 
L 211.399537 108.231621 
L 211.399537 108.012967 
L 211.08192 108.13133 
L 211.08192 107.912155 
L 210.923112 107.971349 
L 210.923112 107.75176 
L 209.811452 108.167637 
L 209.811452 107.725986 
L 209.652644 107.785503 
L 209.652644 107.342397 
L 209.493835 107.401771 
L 209.493835 106.064329 
L 209.335027 106.1231 
L 209.335027 105.44981 
L 209.01741 105.5669 
L 209.01741 105.341605 
L 208.699793 105.45879 
L 208.699793 105.232943 
L 207.905751 105.526763 
L 207.905751 104.617802 
L 207.588134 104.734957 
L 207.588134 104.506669 
L 207.270517 104.623917 
L 207.270517 104.395062 
L 207.111709 104.45369 
L 207.111709 103.994757 
L 206.794092 104.111776 
L 206.794092 103.65104 
L 206.635283 103.709428 
L 206.635283 103.247124 
L 206.476475 103.305348 
L 206.476475 102.841466 
L 206.158858 102.957666 
L 206.158858 102.724973 
L 206.000049 102.783072 
L 206.000049 101.84843 
L 205.682432 101.963865 
L 205.682432 101.494 
L 205.523624 101.551586 
L 205.523624 101.080097 
L 204.729582 101.367988 
L 204.729582 100.656217 
L 204.570773 100.713653 
L 204.570773 99.51974 
L 203.141497 100.034458 
L 203.141497 99.793406 
L 202.82388 99.908448 
L 202.82388 99.424728 
L 202.665072 99.482103 
L 202.665072 99.239567 
L 202.506263 99.296889 
L 202.506263 99.053855 
L 202.188646 99.16848 
L 202.188646 98.924805 
L 201.394604 99.212172 
L 201.394604 97.984811 
L 200.282945 98.3858 
L 200.282945 97.890263 
L 200.124136 97.947606 
L 200.124136 97.69913 
L 199.647711 97.871246 
L 199.647711 97.12224 
L 199.488902 97.179347 
L 199.488902 96.677812 
L 199.171285 96.791696 
L 199.171285 96.035623 
L 198.377243 96.319616 
L 198.377243 95.303067 
L 198.218435 95.359519 
L 198.218435 95.104248 
L 197.742009 95.273669 
L 197.742009 94.761014 
L 197.583201 94.817353 
L 197.583201 93.527951 
L 197.265584 93.63932 
L 197.265584 93.379916 
L 197.106775 93.435572 
L 197.106775 93.175603 
L 196.312733 93.454391 
L 196.312733 93.193212 
L 195.836308 93.361053 
L 195.836308 93.098977 
L 195.677499 93.154938 
L 195.677499 92.892285 
L 194.883457 93.172601 
L 194.883457 92.908713 
L 194.724648 92.964878 
L 194.724648 91.638301 
L 193.612989 92.028113 
L 193.612989 91.223516 
L 193.454181 91.279049 
L 193.454181 91.009816 
L 193.295372 91.065266 
L 193.295372 89.711707 
L 192.50133 89.985941 
L 192.50133 89.165885 
L 192.342522 89.220466 
L 192.342522 88.946044 
L 192.183713 89.000535 
L 192.183713 88.725486 
L 192.024905 88.779885 
L 192.024905 88.504206 
L 191.548479 88.667395 
L 191.548479 87.55796 
L 190.913245 87.773859 
L 190.913245 86.934748 
L 190.43682 87.095928 
L 190.43682 86.814733 
L 190.278012 86.868449 
L 190.278012 85.738225 
L 189.642778 85.950926 
L 189.642778 85.095977 
L 189.325161 85.201696 
L 189.325161 84.628552 
L 189.166352 84.681151 
L 189.166352 84.393658 
L 188.848735 84.498726 
L 188.848735 84.210351 
L 188.531118 84.315376 
L 188.531118 83.736358 
L 187.895885 83.945868 
L 187.895885 83.071214 
L 187.419459 83.227446 
L 187.419459 82.934283 
L 187.260651 82.986332 
L 187.260651 82.69246 
L 186.784225 82.848521 
L 186.784225 82.553519 
L 186.466608 82.65759 
L 186.466608 82.361661 
L 186.148992 82.46567 
L 186.148992 80.976207 
L 185.990183 81.02728 
L 185.990183 80.72762 
L 185.672566 80.829599 
L 185.672566 80.227845 
L 185.354949 80.329308 
L 185.354949 80.027204 
L 184.719715 80.230315 
L 184.719715 79.622749 
L 183.608056 79.978519 
L 183.608056 79.672362 
L 182.496397 80.030976 
L 182.496397 79.722683 
L 182.337588 79.77405 
L 182.337588 79.464977 
L 182.019971 79.567525 
L 182.019971 79.257437 
L 181.225929 79.514258 
L 181.225929 78.890075 
L 180.908312 78.992511 
L 180.908312 78.679103 
L 180.749504 78.730223 
L 180.749504 76.836374 
L 180.590695 76.886143 
L 180.590695 76.249772 
L 180.431887 76.299142 
L 180.431887 75.979839 
L 180.273078 76.029052 
L 180.273078 74.744991 
L 179.955461 74.84169 
L 179.955461 74.518697 
L 178.843802 74.858185 
L 178.843802 74.206835 
L 178.208568 74.400751 
L 178.208568 74.073132 
L 177.890951 74.170112 
L 177.890951 73.841359 
L 177.414526 73.986723 
L 177.414526 72.662361 
L 177.096909 72.757596 
L 177.096909 71.756145 
L 176.620484 71.897233 
L 176.620484 71.561333 
L 175.98525 71.749603 
L 175.98525 71.411961 
L 175.191208 71.647935 
L 175.191208 71.308254 
L 174.397165 71.545093 
L 174.397165 71.203347 
L 174.079548 71.298154 
L 174.079548 70.955178 
L 173.92074 71.002433 
L 173.92074 70.313911 
L 173.603123 70.407543 
L 173.603123 70.061698 
L 172.809081 70.295917 
L 172.809081 69.599267 
L 172.491464 69.692415 
L 172.491464 69.342471 
L 171.697421 69.575452 
L 171.697421 69.223317 
L 171.538613 69.269888 
L 171.538613 68.916753 
L 171.220996 69.009563 
L 171.220996 68.655118 
L 170.585762 68.84062 
L 170.585762 68.484238 
L 170.268145 68.576925 
L 170.268145 68.219209 
L 169.474103 68.450993 
L 169.474103 67.730258 
L 168.838869 67.914832 
L 168.838869 67.552095 
L 168.680061 67.598152 
L 168.680061 66.869823 
L 168.044827 67.052392 
L 168.044827 66.685811 
L 167.886018 66.731358 
L 167.886018 66.363697 
L 167.72721 66.409008 
L 167.72721 64.557686 
L 166.774359 64.82142 
L 166.774359 64.44682 
L 166.297934 64.57889 
L 166.297934 64.202477 
L 166.139125 64.246337 
L 166.139125 63.868791 
L 165.6627 63.999874 
L 165.6627 63.620487 
L 164.551041 63.927097 
L 164.551041 63.544424 
L 164.392232 63.588238 
L 164.392232 62.819738 
L 162.962956 63.211723 
L 162.962956 62.822951 
L 162.804148 62.866602 
L 162.804148 62.476624 
L 162.327722 62.607021 
L 162.327722 62.215081 
L 161.851297 62.345193 
L 161.851297 61.556493 
L 161.374871 61.685164 
L 161.374871 61.288377 
L 160.898446 61.416731 
L 160.898446 60.618222 
L 160.580829 60.702696 
L 160.580829 60.301341 
L 160.422021 60.343322 
L 160.422021 59.940687 
L 159.151553 60.276689 
L 159.151553 59.869949 
L 158.992744 59.911964 
L 158.992744 59.503911 
L 158.833936 59.545611 
L 158.833936 58.725947 
L 158.675128 58.766916 
L 158.675128 58.355292 
L 158.039894 58.518422 
L 158.039894 58.104197 
L 157.40466 58.267113 
L 157.40466 57.850255 
L 156.928234 57.972131 
L 156.928234 57.13299 
L 155.816575 57.414539 
L 155.816575 56.990464 
L 155.498958 57.070856 
L 155.498958 56.217989 
L 155.34015 56.257431 
L 155.34015 54.537997 
L 155.181341 54.575712 
L 155.181341 54.142892 
L 154.546108 54.292786 
L 154.546108 53.857096 
L 153.434448 54.119527 
L 153.434448 53.238446 
L 153.116831 53.312313 
L 153.116831 52.869241 
L 152.640406 52.979249 
L 152.640406 52.533662 
L 152.481598 52.570017 
L 152.481598 52.122872 
L 152.163981 52.194859 
L 152.163981 51.745651 
L 150.258279 52.178898 
L 150.258279 51.72254 
L 149.464237 51.904248 
L 149.464237 51.444185 
L 148.352578 51.698684 
L 148.352578 51.233793 
L 146.923301 51.562738 
L 146.923301 51.091828 
L 146.764493 51.128291 
L 146.764493 50.655646 
L 146.605684 50.69165 
L 146.605684 50.217258 
L 146.129259 50.324149 
L 146.129259 49.846879 
L 145.811642 49.917469 
L 145.811642 49.437853 
L 144.699983 49.683776 
L 144.699983 49.198915 
L 144.064749 49.339114 
L 144.064749 48.360941 
L 143.905941 48.395038 
L 143.905941 47.903449 
L 143.429515 48.00448 
L 143.429515 46.516562 
L 142.95309 46.61291 
L 142.95309 45.610736 
L 141.047388 45.98878 
L 141.047388 45.478099 
L 139.141687 45.860683 
L 139.141687 44.819381 
L 138.188836 45.007328 
L 138.188836 44.480456 
L 137.553602 44.60474 
L 137.553602 44.073638 
L 135.965517 44.383429 
L 135.965517 43.843751 
L 133.742199 44.282201 
L 133.742199 43.730679 
L 129.295562 44.641109 
L 129.295562 44.066004 
L 127.389861 44.470161 
L 127.389861 43.883291 
L 125.960584 44.188573 
L 125.960584 43.592093 
L 125.166542 43.761003 
L 125.166542 43.158204 
L 124.848925 43.224716 
L 124.848925 42.618201 
L 123.737266 42.847919 
L 123.737266 42.233011 
L 123.419649 42.297721 
L 123.419649 41.67895 
L 121.990373 41.966751 
L 121.990373 40.705769 
L 121.831564 40.736304 
L 121.831564 40.101708 
L 120.719905 40.311256 
L 120.719905 39.667476 
L 115.0028 40.788208 
L 115.0028 40.102892 
L 112.779482 40.561786 
L 112.779482 39.857263 
L 110.079738 40.425538 
L 110.079738 39.696785 
L 108.174037 40.104282 
L 108.174037 39.356546 
L 107.85642 39.423535 
L 107.85642 38.6701 
L 104.521442 39.375633 
L 104.521442 38.588341 
L 103.092166 38.895459 
L 103.092166 38.090802 
L 100.392422 38.675189 
L 100.392422 37.838773 
L 98.804337 38.185314 
L 98.804337 37.327459 
L 97.53387 37.601099 
L 97.53387 36.724497 
L 92.610807 37.821839 
L 92.610807 36.877523 
L 91.816765 37.059013 
L 91.816765 36.098824 
L 86.258469 37.419209 
L 85.623235 37.58619 
L 85.623235 36.522218 
L 83.876342 36.969109 
L 83.876342 35.86722 
L 78.95328 37.18874 
L 78.476854 37.33026 
L 78.476854 36.10823 
L 74.030217 37.456841 
L 70.218814 38.83877 
L 69.424772 39.15866 
L 69.424772 37.671056 
L 69.265963 37.73102 
L 69.265963 36.22635 
L 65.772177 37.539441 
L 65.45456 37.671056 
L 65.45456 36.004684 
L 63.866476 36.626398 
L 63.866476 34.872752 
L 60.690306 36.133374 
L 58.466988 37.175399 
L 58.466988 35.096467 
L 55.767244 36.392067 
L 54.973202 36.823933 
L 54.973202 34.4513 
L 52.432266 35.782201 
L 50.208948 37.207457 
L 48.303246 38.689455 
L 46.556353 40.329445 
L 46.556353 36.823933 
L 44.968269 38.29228 
L 43.538992 39.889712 
L 43.062567 40.494799 
L 43.062567 36.064444 
L 41.633291 37.671056 
L 41.474482 37.872752 
L 41.474482 32.76666 
L 40.204015 34.0168 
L 38.933547 35.600311 
L 37.821888 37.378026 
L 36.869037 39.323246 
L 35.916186 41.837799 
L 35.122144 44.57354 
L 34.963336 45.214484 
L 34.963336 34.0168 
L 34.169293 36.064444 
L 33.534059 38.29228 
L 32.898825 41.368815 
L 32.263592 45.893132 
L 32.104783 47.377673 
L 32.104783 22.140469 
L 29.722656 22.140469 
L 29.722656 22.140469 
" clip-path="url(#p6ad8502ee8)" style="fill: none; stroke: #ff0000; stroke-width: 1.5; stroke-linecap: square"/>
   </g>
   <g id="line2d_14">
    <defs>
     <path id="mbe4be2cc9a" d="M 0 3 
C 0.795609 3 1.55874 2.683901 2.12132 2.12132 
C 2.683901 1.55874 3 0.795609 3 0 
C 3 -0.795609 2.683901 -1.55874 2.12132 -2.12132 
C 1.55874 -2.683901 0.795609 -3 0 -3 
C -0.795609 -3 -1.55874 -2.683901 -2.12132 -2.12132 
C -2.683901 -1.55874 -3 -0.795609 -3 0 
C -3 0.795609 -2.683901 1.55874 -2.12132 2.12132 
C -1.55874 2.683901 -0.795609 3 0 3 
z
" style="stroke: #000000"/>
    </defs>
    <g clip-path="url(#p6ad8502ee8)">
     <use xlink:href="#mbe4be2cc9a" x="212.034771" y="108.213348" style="fill: #ff0000; stroke: #000000"/>
    </g>
   </g>
   <g id="line2d_15">
    <path d="M 29.722656 152.715571 
L 227.439192 152.715571 
" clip-path="url(#p6ad8502ee8)" style="fill: none; stroke: #00bfbf; stroke-width: 1.5; stroke-linecap: square"/>
   </g>
   <g id="patch_4">
    <path d="M 29.722656 425.935744 
L 29.722656 22.140469 
" style="fill: none; stroke: #000000; stroke-width: 0.8; stroke-linejoin: miter; stroke-linecap: square"/>
   </g>
   <g id="patch_5">
    <path d="M 227.439192 425.935744 
L 227.439192 22.140469 
" style="fill: none; stroke: #000000; stroke-width: 0.8; stroke-linejoin: miter; stroke-linecap: square"/>
   </g>
   <g id="patch_6">
    <path d="M 29.722656 425.935744 
L 227.439192 425.935744 
" style="fill: none; stroke: #000000; stroke-width: 0.8; stroke-linejoin: miter; stroke-linecap: square"/>
   </g>
   <g id="patch_7">
    <path d="M 29.722656 22.140469 
L 227.439192 22.140469 
" style="fill: none; stroke: #000000; stroke-width: 0.8; stroke-linejoin: miter; stroke-linecap: square"/>
   </g>
   <g id="text_15">
    <text style="font: 5px 'Arial'" transform="translate(106.394205 10.778906)">t-SNE AP-SP model</text>
    <text style="font: 5px 'Arial'" transform="translate(96.49108 16.140469)">Precision - Recall (PR) curve</text>
   </g>
   <g id="legend_1">
    <g id="patch_8">
     <path d="M 67.867643 468.922835 
L 189.294205 468.922835 
Q 190.294205 468.922835 190.294205 467.922835 
L 190.294205 461.230648 
Q 190.294205 460.230648 189.294205 460.230648 
L 67.867643 460.230648 
Q 66.867643 460.230648 66.867643 461.230648 
L 66.867643 467.922835 
Q 66.867643 468.922835 67.867643 468.922835 
z
" style="fill: #ffffff; opacity: 0.8; stroke: #cccccc; stroke-linejoin: miter"/>
    </g>
    <g id="line2d_16">
     <path d="M 68.867643 464.120492 
L 73.867643 464.120492 
L 78.867643 464.120492 
" style="fill: none; stroke: #ff0000; stroke-width: 1.5; stroke-linecap: square"/>
    </g>
    <g id="text_16">
     <text style="font: 5px 'Arial'; text-anchor: start" x="82.867643" y="465.870492" transform="rotate(-0 82.867643 465.870492)">model performance</text>
    </g>
    <g id="line2d_17">
     <path d="M 135.940299 464.120492 
L 140.940299 464.120492 
L 145.940299 464.120492 
" style="fill: none; stroke: #00bfbf; stroke-width: 1.5; stroke-linecap: square"/>
    </g>
    <g id="text_17">
     <text style="font: 5px 'Arial'; text-anchor: start" x="149.940299" y="465.870492" transform="rotate(-0 149.940299 465.870492)">random guessing</text>
    </g>
   </g>
  </g>
 </g>
 <defs>
  <clipPath id="p6ad8502ee8">
   <rect x="29.722656" y="22.140469" width="197.716535" height="403.795276"/>
  </clipPath>
 </defs>
</svg>
