<?xml version="1.0" encoding="utf-8" standalone="no"?>
<!DOCTYPE svg PUBLIC "-//W3C//DTD SVG 1.1//EN"
  "http://www.w3.org/Graphics/SVG/1.1/DTD/svg11.dtd">
<svg xmlns:xlink="http://www.w3.org/1999/xlink" width="238.114192pt" height="476.126585pt" viewBox="0 0 238.114192 476.126585" xmlns="http://www.w3.org/2000/svg" version="1.1">
 <metadata>
  <rdf:RDF xmlns:dc="http://purl.org/dc/elements/1.1/" xmlns:cc="http://creativecommons.org/ns#" xmlns:rdf="http://www.w3.org/1999/02/22-rdf-syntax-ns#">
   <cc:Work>
    <dc:type rdf:resource="http://purl.org/dc/dcmitype/StillImage"/>
    <dc:date>2024-09-25T17:35:13.261963</dc:date>
    <dc:format>image/svg+xml</dc:format>
    <dc:creator>
     <cc:Agent>
      <dc:title>Matplotlib v3.7.0, https://matplotlib.org/</dc:title>
     </cc:Agent>
    </dc:creator>
   </cc:Work>
  </rdf:RDF>
 </metadata>
 <defs>
  <style type="text/css">*{stroke-linejoin: round; stroke-linecap: butt}</style>
 </defs>
 <g id="figure_1">
  <g id="patch_1">
   <path d="M 0 476.126585 
L 238.114192 476.126585 
L 238.114192 0 
L 0 0 
z
" style="fill: #ffffff"/>
  </g>
  <g id="axes_1">
   <g id="patch_2">
    <path d="M 29.722656 425.939494 
L 227.439192 425.939494 
L 227.439192 22.144219 
L 29.722656 22.144219 
z
" style="fill: #ffffff"/>
   </g>
   <g id="patch_3">
    <path d="M 29.722656 22.144219 
L 33.674806 32.038777 
L 31.918577 33.399158 
L 59.389496 181.320395 
L 59.204629 181.463593 
L 31.73371 33.542356 
L 29.977481 34.902737 
z
" clip-path="url(#p45363810bc)" style="fill: #1f77b4; stroke: #000000; stroke-linejoin: miter"/>
   </g>
   <g id="matplotlib.axis_1">
    <g id="xtick_1">
     <g id="line2d_1">
      <defs>
       <path id="m44347dc42d" d="M 0 0 
L 0 3.5 
" style="stroke: #000000; stroke-width: 0.8"/>
      </defs>
      <g>
       <use xlink:href="#m44347dc42d" x="29.722656" y="425.939494" style="stroke: #000000; stroke-width: 0.8"/>
      </g>
     </g>
     <g id="text_1">
      <text style="font: 5px 'Arial'; text-anchor: middle" x="29.722656" y="436.518401" transform="rotate(-0 29.722656 436.518401)">0.0</text>
     </g>
    </g>
    <g id="xtick_2">
     <g id="line2d_2">
      <g>
       <use xlink:href="#m44347dc42d" x="69.265963" y="425.939494" style="stroke: #000000; stroke-width: 0.8"/>
      </g>
     </g>
     <g id="text_2">
      <text style="font: 5px 'Arial'; text-anchor: middle" x="69.265963" y="436.518401" transform="rotate(-0 69.265963 436.518401)">0.2</text>
     </g>
    </g>
    <g id="xtick_3">
     <g id="line2d_3">
      <g>
       <use xlink:href="#m44347dc42d" x="108.80927" y="425.939494" style="stroke: #000000; stroke-width: 0.8"/>
      </g>
     </g>
     <g id="text_3">
      <text style="font: 5px 'Arial'; text-anchor: middle" x="108.80927" y="436.518401" transform="rotate(-0 108.80927 436.518401)">0.4</text>
     </g>
    </g>
    <g id="xtick_4">
     <g id="line2d_4">
      <g>
       <use xlink:href="#m44347dc42d" x="148.352578" y="425.939494" style="stroke: #000000; stroke-width: 0.8"/>
      </g>
     </g>
     <g id="text_4">
      <text style="font: 5px 'Arial'; text-anchor: middle" x="148.352578" y="436.518401" transform="rotate(-0 148.352578 436.518401)">0.6</text>
     </g>
    </g>
    <g id="xtick_5">
     <g id="line2d_5">
      <g>
       <use xlink:href="#m44347dc42d" x="187.895885" y="425.939494" style="stroke: #000000; stroke-width: 0.8"/>
      </g>
     </g>
     <g id="text_5">
      <text style="font: 5px 'Arial'; text-anchor: middle" x="187.895885" y="436.518401" transform="rotate(-0 187.895885 436.518401)">0.8</text>
     </g>
    </g>
    <g id="xtick_6">
     <g id="line2d_6">
      <g>
       <use xlink:href="#m44347dc42d" x="227.439192" y="425.939494" style="stroke: #000000; stroke-width: 0.8"/>
      </g>
     </g>
     <g id="text_6">
      <text style="font: 5px 'Arial'; text-anchor: middle" x="227.439192" y="436.518401" transform="rotate(-0 227.439192 436.518401)">1.0</text>
     </g>
    </g>
    <g id="text_7">
     <text style="font: 5px 'Arial'; text-anchor: middle" x="128.580924" y="445.091057" transform="rotate(-0 128.580924 445.091057)">FPR</text>
    </g>
   </g>
   <g id="matplotlib.axis_2">
    <g id="ytick_1">
     <g id="line2d_7">
      <defs>
       <path id="mae419bade9" d="M 0 0 
L -3.5 0 
" style="stroke: #000000; stroke-width: 0.8"/>
      </defs>
      <g>
       <use xlink:href="#mae419bade9" x="29.722656" y="425.939494" style="stroke: #000000; stroke-width: 0.8"/>
      </g>
     </g>
     <g id="text_8">
      <text style="font: 5px 'Arial'; text-anchor: end" x="22.722656" y="427.728947" transform="rotate(-0 22.722656 427.728947)">0.0</text>
     </g>
    </g>
    <g id="ytick_2">
     <g id="line2d_8">
      <g>
       <use xlink:href="#mae419bade9" x="29.722656" y="345.180439" style="stroke: #000000; stroke-width: 0.8"/>
      </g>
     </g>
     <g id="text_9">
      <text style="font: 5px 'Arial'; text-anchor: end" x="22.722656" y="346.969892" transform="rotate(-0 22.722656 346.969892)">0.2</text>
     </g>
    </g>
    <g id="ytick_3">
     <g id="line2d_9">
      <g>
       <use xlink:href="#mae419bade9" x="29.722656" y="264.421384" style="stroke: #000000; stroke-width: 0.8"/>
      </g>
     </g>
     <g id="text_10">
      <text style="font: 5px 'Arial'; text-anchor: end" x="22.722656" y="266.210837" transform="rotate(-0 22.722656 266.210837)">0.4</text>
     </g>
    </g>
    <g id="ytick_4">
     <g id="line2d_10">
      <g>
       <use xlink:href="#mae419bade9" x="29.722656" y="183.662329" style="stroke: #000000; stroke-width: 0.8"/>
      </g>
     </g>
     <g id="text_11">
      <text style="font: 5px 'Arial'; text-anchor: end" x="22.722656" y="185.451782" transform="rotate(-0 22.722656 185.451782)">0.6</text>
     </g>
    </g>
    <g id="ytick_5">
     <g id="line2d_11">
      <g>
       <use xlink:href="#mae419bade9" x="29.722656" y="102.903274" style="stroke: #000000; stroke-width: 0.8"/>
      </g>
     </g>
     <g id="text_12">
      <text style="font: 5px 'Arial'; text-anchor: end" x="22.722656" y="104.692727" transform="rotate(-0 22.722656 104.692727)">0.8</text>
     </g>
    </g>
    <g id="ytick_6">
     <g id="line2d_12">
      <g>
       <use xlink:href="#mae419bade9" x="29.722656" y="22.144219" style="stroke: #000000; stroke-width: 0.8"/>
      </g>
     </g>
     <g id="text_13">
      <text style="font: 5px 'Arial'; text-anchor: end" x="22.722656" y="23.933672" transform="rotate(-0 22.722656 23.933672)">1.0</text>
     </g>
    </g>
    <g id="text_14">
     <text style="font: 5px 'Arial'; text-anchor: middle" x="10.778906" y="224.041857" transform="rotate(-90 10.778906 224.041857)">TPR</text>
    </g>
   </g>
   <g id="line2d_13">
    <path d="M 29.722656 425.939494 
L 29.722656 372.748791 
L 30.054953 372.748791 
L 30.054953 364.964786 
L 30.38725 364.964786 
L 30.38725 362.045784 
L 30.719546 362.045784 
L 30.719546 346.802107 
L 31.051843 346.802107 
L 31.051843 339.342435 
L 31.38414 339.342435 
L 31.38414 338.369435 
L 31.716436 338.369435 
L 31.716436 325.071759 
L 32.048733 325.071759 
L 32.048733 324.423092 
L 32.38103 324.423092 
L 32.38103 321.179756 
L 32.713327 321.179756 
L 32.713327 316.96342 
L 33.045623 316.96342 
L 33.045623 313.720084 
L 33.37792 313.720084 
L 33.37792 312.42275 
L 33.710217 312.42275 
L 33.710217 306.90908 
L 34.042513 306.90908 
L 34.042513 299.773742 
L 34.37481 299.773742 
L 34.37481 295.881739 
L 34.707107 295.881739 
L 34.707107 295.557405 
L 35.039403 295.557405 
L 35.039403 285.827399 
L 35.3717 285.827399 
L 35.3717 284.854398 
L 35.703997 284.854398 
L 35.703997 283.23273 
L 36.36859 283.23273 
L 36.36859 274.800058 
L 36.700887 274.800058 
L 36.700887 274.151391 
L 37.033184 274.151391 
L 37.033184 272.205389 
L 37.36548 272.205389 
L 37.36548 270.259388 
L 37.697777 270.259388 
L 37.697777 266.691719 
L 38.030074 266.691719 
L 38.030074 263.448383 
L 38.36237 263.448383 
L 38.36237 259.232047 
L 38.694667 259.232047 
L 38.694667 258.259047 
L 39.026964 258.259047 
L 39.026964 256.961712 
L 39.35926 256.961712 
L 39.35926 256.313045 
L 39.691557 256.313045 
L 39.691557 255.664378 
L 40.023854 255.664378 
L 40.023854 252.745376 
L 40.356151 252.745376 
L 40.356151 251.123708 
L 40.688447 251.123708 
L 40.688447 247.556039 
L 41.353041 247.556039 
L 41.353041 246.583039 
L 41.685337 246.583039 
L 41.685337 245.934371 
L 42.017634 245.934371 
L 42.017634 237.826033 
L 42.349931 237.826033 
L 42.349931 232.312362 
L 42.682227 232.312362 
L 42.682227 228.42036 
L 43.014524 228.42036 
L 43.014524 227.123025 
L 43.679118 227.123025 
L 43.679118 222.582356 
L 44.011414 222.582356 
L 44.011414 221.933688 
L 45.008304 221.933688 
L 45.008304 220.960688 
L 45.340601 220.960688 
L 45.340601 217.717352 
L 46.669788 217.717352 
L 46.669788 215.447017 
L 47.002085 215.447017 
L 47.002085 212.852349 
L 47.334381 212.852349 
L 47.334381 211.879348 
L 47.666678 211.879348 
L 47.666678 209.609013 
L 47.998975 209.609013 
L 47.998975 208.960346 
L 48.331271 208.960346 
L 48.331271 208.311679 
L 48.663568 208.311679 
L 48.663568 206.041344 
L 48.995865 206.041344 
L 48.995865 205.392677 
L 50.325052 205.392677 
L 50.325052 203.771009 
L 50.657348 203.771009 
L 50.657348 201.825008 
L 51.654238 201.825008 
L 51.654238 200.852007 
L 51.986535 200.852007 
L 51.986535 197.933005 
L 52.318832 197.933005 
L 52.318832 197.608672 
L 52.651128 197.608672 
L 52.651128 196.311338 
L 53.315722 196.311338 
L 53.315722 194.041003 
L 53.648019 194.041003 
L 53.648019 192.743669 
L 53.980315 192.743669 
L 53.980315 191.122001 
L 54.312612 191.122001 
L 54.312612 190.473334 
L 54.644909 190.473334 
L 54.644909 188.202999 
L 54.977205 188.202999 
L 54.977205 187.878665 
L 55.309502 187.878665 
L 55.309502 187.554332 
L 55.974095 187.554332 
L 55.974095 187.229998 
L 56.306392 187.229998 
L 56.306392 186.905665 
L 56.970986 186.905665 
L 56.970986 185.60833 
L 57.635579 185.60833 
L 57.635579 184.959663 
L 57.967876 184.959663 
L 57.967876 183.986663 
L 58.300172 183.986663 
L 58.300172 183.013662 
L 58.964766 183.013662 
L 58.964766 182.364995 
L 59.297062 182.364995 
L 59.297062 181.391994 
L 59.961656 181.391994 
L 59.961656 181.067661 
L 60.626249 181.067661 
L 60.626249 180.743327 
L 61.290843 180.743327 
L 61.290843 180.418993 
L 61.955436 180.418993 
L 61.955436 178.797326 
L 62.952326 178.797326 
L 62.952326 178.472992 
L 63.284623 178.472992 
L 63.284623 178.148659 
L 63.949216 178.148659 
L 63.949216 176.526991 
L 64.281513 176.526991 
L 64.281513 175.878324 
L 64.61381 175.878324 
L 64.61381 174.580989 
L 65.278403 174.580989 
L 65.278403 173.283655 
L 66.60759 173.283655 
L 66.60759 172.310655 
L 66.939886 172.310655 
L 66.939886 171.986321 
L 67.60448 171.986321 
L 67.60448 171.661987 
L 68.933667 171.661987 
L 68.933667 171.337654 
L 69.265963 171.337654 
L 69.265963 171.01332 
L 69.930557 171.01332 
L 69.930557 170.04032 
L 70.262853 170.04032 
L 70.262853 168.418652 
L 70.927447 168.418652 
L 70.927447 168.094318 
L 71.259744 168.094318 
L 71.259744 167.769985 
L 71.59204 167.769985 
L 71.59204 166.148317 
L 71.924337 166.148317 
L 71.924337 165.49965 
L 72.256634 165.49965 
L 72.256634 165.175316 
L 74.250414 165.175316 
L 74.250414 163.229315 
L 75.579601 163.229315 
L 75.579601 162.904981 
L 75.911897 162.904981 
L 75.911897 162.256314 
L 76.244194 162.256314 
L 76.244194 161.283314 
L 76.576491 161.283314 
L 76.576491 160.95898 
L 77.573381 160.95898 
L 77.573381 160.634647 
L 78.237974 160.634647 
L 78.237974 160.310313 
L 79.899458 160.310313 
L 79.899458 159.012979 
L 80.564051 159.012979 
L 80.564051 158.688645 
L 81.228644 158.688645 
L 81.228644 158.364312 
L 81.560941 158.364312 
L 81.560941 158.039978 
L 81.893238 158.039978 
L 81.893238 157.391311 
L 82.225535 157.391311 
L 82.225535 156.742644 
L 82.557831 156.742644 
L 82.557831 156.093977 
L 82.890128 156.093977 
L 82.890128 155.44531 
L 83.222425 155.44531 
L 83.222425 155.120976 
L 84.219315 155.120976 
L 84.219315 153.499308 
L 85.216205 153.499308 
L 85.216205 152.850641 
L 86.213095 152.850641 
L 86.213095 152.526308 
L 86.877688 152.526308 
L 86.877688 152.201974 
L 87.209985 152.201974 
L 87.209985 151.553307 
L 87.874578 151.553307 
L 87.874578 149.931639 
L 88.871469 149.931639 
L 88.871469 148.958639 
L 89.203765 148.958639 
L 89.203765 148.634305 
L 89.536062 148.634305 
L 89.536062 148.309972 
L 90.200655 148.309972 
L 90.200655 147.012637 
L 90.532952 147.012637 
L 90.532952 146.039637 
L 90.865249 146.039637 
L 90.865249 145.39097 
L 91.197545 145.39097 
L 91.197545 145.066636 
L 92.526732 145.066636 
L 92.526732 144.093635 
L 92.859029 144.093635 
L 92.859029 143.444968 
L 93.855919 143.444968 
L 93.855919 142.796301 
L 94.188216 142.796301 
L 94.188216 142.147634 
L 95.517402 142.147634 
L 95.517402 141.174633 
L 95.849699 141.174633 
L 95.849699 140.525966 
L 97.511183 140.525966 
L 97.511183 139.552966 
L 97.843479 139.552966 
L 97.843479 139.228632 
L 98.840369 139.228632 
L 98.840369 137.931298 
L 99.504963 137.931298 
L 99.504963 137.282631 
L 100.501853 137.282631 
L 100.501853 136.30963 
L 100.83415 136.30963 
L 100.83415 135.660963 
L 101.498743 135.660963 
L 101.498743 135.336629 
L 101.83104 135.336629 
L 101.83104 134.687962 
L 102.163336 134.687962 
L 102.163336 134.363629 
L 102.495633 134.363629 
L 102.495633 133.066294 
L 102.82793 133.066294 
L 102.82793 132.417627 
L 103.160227 132.417627 
L 103.160227 131.76896 
L 103.82482 131.76896 
L 103.82482 131.444627 
L 104.157117 131.444627 
L 104.157117 130.79596 
L 104.489413 130.79596 
L 104.489413 129.822959 
L 104.82171 129.822959 
L 104.82171 129.498625 
L 106.150897 129.498625 
L 106.150897 128.849958 
L 106.483194 128.849958 
L 106.483194 128.525625 
L 106.81549 128.525625 
L 106.81549 127.552624 
L 107.81238 127.552624 
L 107.81238 127.22829 
L 108.80927 127.22829 
L 108.80927 126.903957 
L 109.141567 126.903957 
L 109.141567 126.579623 
L 109.806161 126.579623 
L 109.806161 126.25529 
L 110.470754 126.25529 
L 110.470754 125.930956 
L 110.803051 125.930956 
L 110.803051 125.282289 
L 111.135347 125.282289 
L 111.135347 124.957956 
L 112.464534 124.957956 
L 112.464534 124.309288 
L 112.796831 124.309288 
L 112.796831 123.984955 
L 113.129127 123.984955 
L 113.129127 123.660621 
L 113.793721 123.660621 
L 113.793721 123.336288 
L 114.458314 123.336288 
L 114.458314 123.011954 
L 114.790611 123.011954 
L 114.790611 122.687621 
L 115.455204 122.687621 
L 115.455204 122.363287 
L 116.119798 122.363287 
L 116.119798 122.038954 
L 116.452094 122.038954 
L 116.452094 121.390286 
L 117.781281 121.390286 
L 117.781281 121.065953 
L 118.113578 121.065953 
L 118.113578 120.741619 
L 118.445875 120.741619 
L 118.445875 120.417286 
L 118.778171 120.417286 
L 118.778171 120.092952 
L 119.775061 120.092952 
L 119.775061 119.444285 
L 120.439655 119.444285 
L 120.439655 118.795618 
L 120.771952 118.795618 
L 120.771952 118.471284 
L 121.104248 118.471284 
L 121.104248 117.822617 
L 121.436545 117.822617 
L 121.436545 117.17395 
L 121.768842 117.17395 
L 121.768842 116.849617 
L 122.101138 116.849617 
L 122.101138 113.930615 
L 122.765732 113.930615 
L 122.765732 113.606281 
L 123.430325 113.606281 
L 123.430325 113.281948 
L 124.427215 113.281948 
L 124.427215 112.957614 
L 126.420995 112.957614 
L 126.420995 112.633281 
L 127.417886 112.633281 
L 127.417886 111.984613 
L 127.750182 111.984613 
L 127.750182 111.66028 
L 128.082479 111.66028 
L 128.082479 111.011613 
L 128.414776 111.011613 
L 128.414776 110.038612 
L 129.079369 110.038612 
L 129.079369 109.065611 
L 130.076259 109.065611 
L 130.076259 108.741278 
L 131.073149 108.741278 
L 131.073149 108.092611 
L 131.405446 108.092611 
L 131.405446 107.768277 
L 132.070039 107.768277 
L 132.070039 107.443944 
L 132.402336 107.443944 
L 132.402336 106.795277 
L 133.731523 106.795277 
L 133.731523 106.470943 
L 134.063819 106.470943 
L 134.063819 105.822276 
L 135.06071 105.822276 
L 135.06071 105.173609 
L 136.722193 105.173609 
L 136.722193 102.903274 
L 137.386786 102.903274 
L 137.386786 101.281606 
L 138.715973 101.281606 
L 138.715973 100.957273 
L 139.04827 100.957273 
L 139.04827 100.632939 
L 139.712863 100.632939 
L 139.712863 99.659938 
L 140.04516 99.659938 
L 140.04516 99.335605 
L 140.709753 99.335605 
L 140.709753 98.362604 
L 141.706644 98.362604 
L 141.706644 96.092269 
L 142.371237 96.092269 
L 142.371237 95.119269 
L 142.703534 95.119269 
L 142.703534 94.470601 
L 143.03583 94.470601 
L 143.03583 91.875933 
L 143.700424 91.875933 
L 143.700424 91.227266 
L 144.697314 91.227266 
L 144.697314 90.578599 
L 145.361907 90.578599 
L 145.361907 88.632597 
L 145.694204 88.632597 
L 145.694204 87.98393 
L 146.026501 87.98393 
L 146.026501 86.037929 
L 146.358797 86.037929 
L 146.358797 85.713595 
L 146.691094 85.713595 
L 146.691094 85.389262 
L 147.687984 85.389262 
L 147.687984 84.740595 
L 148.020281 84.740595 
L 148.020281 84.416261 
L 148.352578 84.416261 
L 148.352578 82.794593 
L 148.684874 82.794593 
L 148.684874 81.172926 
L 149.349468 81.172926 
L 149.349468 80.524259 
L 149.681764 80.524259 
L 149.681764 80.199925 
L 151.010951 80.199925 
L 151.010951 79.875591 
L 151.343248 79.875591 
L 151.343248 78.902591 
L 152.007841 78.902591 
L 152.007841 78.578257 
L 153.004731 78.578257 
L 153.004731 77.605257 
L 153.669325 77.605257 
L 153.669325 77.280923 
L 154.001621 77.280923 
L 154.001621 76.632256 
L 154.333918 76.632256 
L 154.333918 75.983589 
L 155.330808 75.983589 
L 155.330808 75.010588 
L 155.663105 75.010588 
L 155.663105 74.686255 
L 155.995402 74.686255 
L 155.995402 73.064587 
L 156.327698 73.064587 
L 156.327698 72.41592 
L 156.992292 72.41592 
L 156.992292 72.091586 
L 157.324588 72.091586 
L 157.324588 69.821251 
L 157.989182 69.821251 
L 157.989182 68.848251 
L 158.321478 68.848251 
L 158.321478 67.87525 
L 158.986072 67.87525 
L 158.986072 67.226583 
L 159.982962 67.226583 
L 159.982962 66.902249 
L 160.315259 66.902249 
L 160.315259 65.280582 
L 160.979852 65.280582 
L 160.979852 64.307581 
L 162.641336 64.307581 
L 162.641336 63.983247 
L 162.973632 63.983247 
L 162.973632 63.658914 
L 163.638226 63.658914 
L 163.638226 63.010247 
L 163.970522 63.010247 
L 163.970522 62.36158 
L 164.302819 62.36158 
L 164.302819 61.388579 
L 164.635116 61.388579 
L 164.635116 60.415578 
L 164.967412 60.415578 
L 164.967412 60.091245 
L 165.299709 60.091245 
L 165.299709 58.469577 
L 165.964303 58.469577 
L 165.964303 56.847909 
L 166.628896 56.847909 
L 166.628896 56.199242 
L 167.625786 56.199242 
L 167.625786 55.874908 
L 167.958083 55.874908 
L 167.958083 55.550575 
L 168.290379 55.550575 
L 168.290379 54.901908 
L 168.954973 54.901908 
L 168.954973 54.577574 
L 169.287269 54.577574 
L 169.287269 54.253241 
L 169.951863 54.253241 
L 169.951863 53.28024 
L 170.28416 53.28024 
L 170.28416 52.955906 
L 171.28105 52.955906 
L 171.28105 52.631573 
L 171.613346 52.631573 
L 171.613346 52.307239 
L 171.945643 52.307239 
L 171.945643 51.982906 
L 172.610236 51.982906 
L 172.610236 51.658572 
L 172.942533 51.658572 
L 172.942533 50.685572 
L 173.607127 50.685572 
L 173.607127 49.388237 
L 174.604017 49.388237 
L 174.604017 48.73957 
L 174.936313 48.73957 
L 174.936313 47.76657 
L 176.597797 47.76657 
L 176.597797 47.117902 
L 176.930094 47.117902 
L 176.930094 46.469235 
L 177.26239 46.469235 
L 177.26239 45.171901 
L 179.25617 45.171901 
L 179.25617 44.847568 
L 180.253061 44.847568 
L 180.253061 43.874567 
L 181.914544 43.874567 
L 181.914544 42.901566 
L 182.246841 42.901566 
L 182.246841 42.577233 
L 182.911434 42.577233 
L 182.911434 42.252899 
L 183.243731 42.252899 
L 183.243731 41.928566 
L 183.908324 41.928566 
L 183.908324 41.604232 
L 184.905214 41.604232 
L 184.905214 41.279898 
L 186.898995 41.279898 
L 186.898995 40.955565 
L 187.231291 40.955565 
L 187.231291 40.631231 
L 187.895885 40.631231 
L 187.895885 40.306898 
L 189.889665 40.306898 
L 189.889665 39.658231 
L 190.221961 39.658231 
L 190.221961 39.333897 
L 190.554258 39.333897 
L 190.554258 39.009564 
L 191.551148 39.009564 
L 191.551148 37.387896 
L 191.883445 37.387896 
L 191.883445 37.063562 
L 192.215742 37.063562 
L 192.215742 36.739229 
L 198.197082 36.739229 
L 198.197082 36.090562 
L 198.861676 36.090562 
L 198.861676 35.766228 
L 200.190862 35.766228 
L 200.190862 35.117561 
L 202.184643 35.117561 
L 202.184643 34.793227 
L 202.516939 34.793227 
L 202.516939 34.468894 
L 203.513829 34.468894 
L 203.513829 34.14456 
L 204.843016 34.14456 
L 204.843016 33.820227 
L 205.50761 33.820227 
L 205.50761 33.495893 
L 206.172203 33.495893 
L 206.172203 33.17156 
L 207.50139 33.17156 
L 207.50139 32.522893 
L 209.827467 32.522893 
L 209.827467 32.198559 
L 210.159763 32.198559 
L 210.159763 31.874225 
L 210.49206 31.874225 
L 210.49206 31.549892 
L 211.48895 31.549892 
L 211.48895 31.225558 
L 213.150434 31.225558 
L 213.150434 30.901225 
L 213.48273 30.901225 
L 213.48273 30.576891 
L 213.815027 30.576891 
L 213.815027 29.603891 
L 214.47962 29.603891 
L 214.47962 28.955223 
L 215.144214 28.955223 
L 215.144214 28.306556 
L 216.141104 28.306556 
L 216.141104 27.657889 
L 216.805697 27.657889 
L 216.805697 27.333556 
L 217.802587 27.333556 
L 217.802587 26.684889 
L 218.467181 26.684889 
L 218.467181 26.036221 
L 219.131774 26.036221 
L 219.131774 25.711888 
L 220.793258 25.711888 
L 220.793258 25.387554 
L 221.790148 25.387554 
L 221.790148 25.063221 
L 223.119335 25.063221 
L 223.119335 24.738887 
L 223.451631 24.738887 
L 223.451631 24.414554 
L 223.783928 24.414554 
L 223.783928 24.09022 
L 224.780818 24.09022 
L 224.780818 23.441553 
L 225.445411 23.441553 
L 225.445411 23.117219 
L 227.106895 23.117219 
L 227.106895 22.792886 
L 227.439192 22.792886 
L 227.439192 22.144219 
L 227.439192 22.144219 
" clip-path="url(#p45363810bc)" style="fill: none; stroke: #ff0000; stroke-width: 1.5; stroke-linecap: square"/>
   </g>
   <g id="line2d_14">
    <defs>
     <path id="m4d4998a2f5" d="M 0 3 
C 0.795609 3 1.55874 2.683901 2.12132 2.12132 
C 2.683901 1.55874 3 0.795609 3 0 
C 3 -0.795609 2.683901 -1.55874 2.12132 -2.12132 
C 1.55874 -2.683901 0.795609 -3 0 -3 
C -0.795609 -3 -1.55874 -2.683901 -2.12132 -2.12132 
C -2.683901 -1.55874 -3 -0.795609 -3 0 
C -3 0.795609 -2.683901 1.55874 -2.12132 2.12132 
C -1.55874 2.683901 -0.795609 3 0 3 
z
" style="stroke: #000000"/>
    </defs>
    <g clip-path="url(#p45363810bc)">
     <use xlink:href="#m4d4998a2f5" x="59.297062" y="181.391994" style="fill: #ff0000; stroke: #000000"/>
    </g>
   </g>
   <g id="line2d_15">
    <path d="M 29.722656 425.939494 
L 227.439192 22.144219 
" clip-path="url(#p45363810bc)" style="fill: none; stroke: #00bfbf; stroke-width: 1.5; stroke-linecap: square"/>
   </g>
   <g id="patch_4">
    <path d="M 29.722656 425.939494 
L 29.722656 22.144219 
" style="fill: none; stroke: #000000; stroke-width: 0.8; stroke-linejoin: miter; stroke-linecap: square"/>
   </g>
   <g id="patch_5">
    <path d="M 227.439192 425.939494 
L 227.439192 22.144219 
" style="fill: none; stroke: #000000; stroke-width: 0.8; stroke-linejoin: miter; stroke-linecap: square"/>
   </g>
   <g id="patch_6">
    <path d="M 29.722656 425.939494 
L 227.439192 425.939494 
" style="fill: none; stroke: #000000; stroke-width: 0.8; stroke-linejoin: miter; stroke-linecap: square"/>
   </g>
   <g id="patch_7">
    <path d="M 29.722656 22.144219 
L 227.439192 22.144219 
" style="fill: none; stroke: #000000; stroke-width: 0.8; stroke-linejoin: miter; stroke-linecap: square"/>
   </g>
   <g id="text_15">
    <text style="font: 5px 'Arial'" transform="translate(110.424283 10.778906)">t-SNE SP model</text>
    <text style="font: 5px 'Arial'" transform="translate(76.346158 16.144219)">Receiver Operating Characteristic (ROC) curve</text>
   </g>
   <g id="legend_1">
    <g id="patch_8">
     <path d="M 67.867643 468.926585 
L 189.294205 468.926585 
Q 190.294205 468.926585 190.294205 467.926585 
L 190.294205 461.234398 
Q 190.294205 460.234398 189.294205 460.234398 
L 67.867643 460.234398 
Q 66.867643 460.234398 66.867643 461.234398 
L 66.867643 467.926585 
Q 66.867643 468.926585 67.867643 468.926585 
z
" style="fill: #ffffff; opacity: 0.8; stroke: #cccccc; stroke-linejoin: miter"/>
    </g>
    <g id="line2d_16">
     <path d="M 68.867643 464.124242 
L 73.867643 464.124242 
L 78.867643 464.124242 
" style="fill: none; stroke: #ff0000; stroke-width: 1.5; stroke-linecap: square"/>
    </g>
    <g id="text_16">
     <text style="font: 5px 'Arial'; text-anchor: start" x="82.867643" y="465.874242" transform="rotate(-0 82.867643 465.874242)">model performance</text>
    </g>
    <g id="line2d_17">
     <path d="M 135.940299 464.124242 
L 140.940299 464.124242 
L 145.940299 464.124242 
" style="fill: none; stroke: #00bfbf; stroke-width: 1.5; stroke-linecap: square"/>
    </g>
    <g id="text_17">
     <text style="font: 5px 'Arial'; text-anchor: start" x="149.940299" y="465.874242" transform="rotate(-0 149.940299 465.874242)">random guessing</text>
    </g>
   </g>
  </g>
 </g>
 <defs>
  <clipPath id="p45363810bc">
   <rect x="29.722656" y="22.144219" width="197.716535" height="403.795276"/>
  </clipPath>
 </defs>
</svg>
