<?xml version="1.0" encoding="utf-8" standalone="no"?>
<!DOCTYPE svg PUBLIC "-//W3C//DTD SVG 1.1//EN"
  "http://www.w3.org/Graphics/SVG/1.1/DTD/svg11.dtd">
<svg xmlns:xlink="http://www.w3.org/1999/xlink" width="242.837664pt" height="268.22835pt" viewBox="0 0 242.837664 268.22835" xmlns="http://www.w3.org/2000/svg" version="1.1">
 <metadata>
  <rdf:RDF xmlns:dc="http://purl.org/dc/elements/1.1/" xmlns:cc="http://creativecommons.org/ns#" xmlns:rdf="http://www.w3.org/1999/02/22-rdf-syntax-ns#">
   <cc:Work>
    <dc:type rdf:resource="http://purl.org/dc/dcmitype/StillImage"/>
    <dc:date>2024-09-30T08:29:14.034330</dc:date>
    <dc:format>image/svg+xml</dc:format>
    <dc:creator>
     <cc:Agent>
      <dc:title>Matplotlib v3.7.0, https://matplotlib.org/</dc:title>
     </cc:Agent>
    </dc:creator>
   </cc:Work>
  </rdf:RDF>
 </metadata>
 <defs>
  <style type="text/css">*{stroke-linejoin: round; stroke-linecap: butt}</style>
 </defs>
 <g id="figure_1">
  <g id="patch_1">
   <path d="M -0 268.22835 
L 242.837664 268.22835 
L 242.837664 0 
L -0 0 
z
" style="fill: #ffffff"/>
  </g>
  <g id="axes_1">
   <g id="patch_2">
    <path d="M 34.331719 222.157601 
L 230.772664 222.157601 
L 230.772664 25.716656 
L 34.331719 25.716656 
z
" style="fill: #ffffff"/>
   </g>
   <g id="patch_3">
    <path d="M 230.772664 25.716656 
L 231.496877 31.886305 
L 229.669727 31.506589 
L 219.666173 79.642562 
L 219.473842 79.602592 
L 229.477395 31.466619 
L 227.650245 31.086903 
z
" clip-path="url(#pf96fb83911)" style="fill: #1f77b4; stroke: #000000; stroke-linejoin: miter"/>
   </g>
   <g id="matplotlib.axis_1">
    <g id="xtick_1">
     <g id="line2d_1">
      <defs>
       <path id="mf8dcc284a0" d="M 0 0 
L 0 3.5 
" style="stroke: #000000; stroke-width: 0.8"/>
      </defs>
      <g>
       <use xlink:href="#mf8dcc284a0" x="34.331719" y="222.157601" style="stroke: #000000; stroke-width: 0.8"/>
      </g>
     </g>
     <g id="text_1">
      <text style="font: 7px 'Arial'; text-anchor: middle" x="34.331719" y="234.16807" transform="rotate(-0 34.331719 234.16807)">0.0</text>
     </g>
    </g>
    <g id="xtick_2">
     <g id="line2d_2">
      <g>
       <use xlink:href="#mf8dcc284a0" x="73.619908" y="222.157601" style="stroke: #000000; stroke-width: 0.8"/>
      </g>
     </g>
     <g id="text_2">
      <text style="font: 7px 'Arial'; text-anchor: middle" x="73.619908" y="234.16807" transform="rotate(-0 73.619908 234.16807)">0.2</text>
     </g>
    </g>
    <g id="xtick_3">
     <g id="line2d_3">
      <g>
       <use xlink:href="#mf8dcc284a0" x="112.908097" y="222.157601" style="stroke: #000000; stroke-width: 0.8"/>
      </g>
     </g>
     <g id="text_3">
      <text style="font: 7px 'Arial'; text-anchor: middle" x="112.908097" y="234.16807" transform="rotate(-0 112.908097 234.16807)">0.4</text>
     </g>
    </g>
    <g id="xtick_4">
     <g id="line2d_4">
      <g>
       <use xlink:href="#mf8dcc284a0" x="152.196286" y="222.157601" style="stroke: #000000; stroke-width: 0.8"/>
      </g>
     </g>
     <g id="text_4">
      <text style="font: 7px 'Arial'; text-anchor: middle" x="152.196286" y="234.16807" transform="rotate(-0 152.196286 234.16807)">0.6</text>
     </g>
    </g>
    <g id="xtick_5">
     <g id="line2d_5">
      <g>
       <use xlink:href="#mf8dcc284a0" x="191.484475" y="222.157601" style="stroke: #000000; stroke-width: 0.8"/>
      </g>
     </g>
     <g id="text_5">
      <text style="font: 7px 'Arial'; text-anchor: middle" x="191.484475" y="234.16807" transform="rotate(-0 191.484475 234.16807)">0.8</text>
     </g>
    </g>
    <g id="xtick_6">
     <g id="line2d_6">
      <g>
       <use xlink:href="#mf8dcc284a0" x="230.772664" y="222.157601" style="stroke: #000000; stroke-width: 0.8"/>
      </g>
     </g>
     <g id="text_6">
      <text style="font: 7px 'Arial'; text-anchor: middle" x="230.772664" y="234.16807" transform="rotate(-0 230.772664 234.16807)">1.0</text>
     </g>
    </g>
    <g id="text_7">
     <text style="font: 7px 'Arial'; text-anchor: middle" x="132.552191" y="244.569789" transform="rotate(-0 132.552191 244.569789)">Recall</text>
    </g>
   </g>
   <g id="matplotlib.axis_2">
    <g id="ytick_1">
     <g id="line2d_7">
      <defs>
       <path id="m927ea69b24" d="M 0 0 
L -3.5 0 
" style="stroke: #000000; stroke-width: 0.8"/>
      </defs>
      <g>
       <use xlink:href="#m927ea69b24" x="34.331719" y="222.157601" style="stroke: #000000; stroke-width: 0.8"/>
      </g>
     </g>
     <g id="text_8">
      <text style="font: 7px 'Arial'; text-anchor: end" x="27.331719" y="224.662836" transform="rotate(-0 27.331719 224.662836)">0.0</text>
     </g>
    </g>
    <g id="ytick_2">
     <g id="line2d_8">
      <g>
       <use xlink:href="#m927ea69b24" x="34.331719" y="182.869412" style="stroke: #000000; stroke-width: 0.8"/>
      </g>
     </g>
     <g id="text_9">
      <text style="font: 7px 'Arial'; text-anchor: end" x="27.331719" y="185.374647" transform="rotate(-0 27.331719 185.374647)">0.2</text>
     </g>
    </g>
    <g id="ytick_3">
     <g id="line2d_9">
      <g>
       <use xlink:href="#m927ea69b24" x="34.331719" y="143.581223" style="stroke: #000000; stroke-width: 0.8"/>
      </g>
     </g>
     <g id="text_10">
      <text style="font: 7px 'Arial'; text-anchor: end" x="27.331719" y="146.086458" transform="rotate(-0 27.331719 146.086458)">0.4</text>
     </g>
    </g>
    <g id="ytick_4">
     <g id="line2d_10">
      <g>
       <use xlink:href="#m927ea69b24" x="34.331719" y="104.293034" style="stroke: #000000; stroke-width: 0.8"/>
      </g>
     </g>
     <g id="text_11">
      <text style="font: 7px 'Arial'; text-anchor: end" x="27.331719" y="106.798269" transform="rotate(-0 27.331719 106.798269)">0.6</text>
     </g>
    </g>
    <g id="ytick_5">
     <g id="line2d_11">
      <g>
       <use xlink:href="#m927ea69b24" x="34.331719" y="65.004845" style="stroke: #000000; stroke-width: 0.8"/>
      </g>
     </g>
     <g id="text_12">
      <text style="font: 7px 'Arial'; text-anchor: end" x="27.331719" y="67.51008" transform="rotate(-0 27.331719 67.51008)">0.8</text>
     </g>
    </g>
    <g id="ytick_6">
     <g id="line2d_12">
      <g>
       <use xlink:href="#m927ea69b24" x="34.331719" y="25.716656" style="stroke: #000000; stroke-width: 0.8"/>
      </g>
     </g>
     <g id="text_13">
      <text style="font: 7px 'Arial'; text-anchor: end" x="27.331719" y="28.221891" transform="rotate(-0 27.331719 28.221891)">1.0</text>
     </g>
    </g>
    <g id="text_14">
     <text style="font: 7px 'Arial'; text-anchor: middle" x="12.210469" y="123.937129" transform="rotate(-90 12.210469 123.937129)">Precision</text>
    </g>
   </g>
   <g id="line2d_13">
    <path d="M 230.772664 89.239679 
L 230.299312 89.27108 
L 230.299312 88.9082 
L 230.141528 88.942731 
L 230.141528 88.869896 
L 230.141528 88.796982 
L 229.82596 88.866073 
L 229.82596 88.793036 
L 229.82596 88.646723 
L 229.510393 88.642519 
L 229.510393 88.569119 
L 229.352609 88.603691 
L 229.352609 88.530189 
L 229.352609 88.309195 
L 229.194825 88.34372 
L 229.194825 88.269871 
L 229.194825 88.121929 
L 229.037041 88.156426 
L 229.037041 88.08231 
L 229.037041 87.785026 
L 228.879257 87.819451 
L 228.879257 87.744901 
L 228.879257 87.670269 
L 228.563689 87.739145 
L 228.563689 87.664385 
L 228.563689 87.589542 
L 228.248121 87.658481 
L 228.248121 87.583509 
L 228.248121 87.433315 
L 228.090337 87.467774 
L 228.090337 87.392528 
L 228.090337 87.317198 
L 227.77477 87.386141 
L 227.77477 87.310682 
L 227.77477 87.159508 
L 227.459202 87.228467 
L 227.459202 87.152707 
L 227.459202 87.076862 
L 227.143634 87.145883 
L 227.143634 87.069906 
L 227.143634 86.993843 
L 226.512499 87.055924 
L 226.512499 86.979595 
L 226.354715 87.014226 
L 226.354715 86.937788 
L 226.354715 86.631167 
L 226.196931 86.665719 
L 226.196931 86.588822 
L 226.196931 86.434766 
L 225.881363 86.426635 
L 225.881363 86.34934 
L 225.723579 86.383888 
L 225.723579 86.30648 
L 225.723579 85.840172 
L 225.408011 85.909042 
L 225.408011 85.830963 
L 225.408011 85.596187 
L 225.250227 85.63058 
L 225.250227 85.552116 
L 225.250227 85.473562 
L 225.092444 85.507945 
L 225.092444 85.429275 
L 225.092444 85.350515 
L 224.93466 85.384886 
L 224.93466 85.306009 
L 224.93466 85.068831 
L 224.776876 85.103138 
L 224.776876 85.02387 
L 224.776876 84.865059 
L 224.461308 84.85404 
L 224.461308 84.374517 
L 224.14574 84.442883 
L 224.14574 84.362583 
L 224.14574 84.121119 
L 223.987956 84.155254 
L 223.987956 84.074551 
L 223.987956 83.993753 
L 223.672389 84.062034 
L 223.672389 83.981087 
L 223.672389 82.590322 
L 223.356821 82.575008 
L 223.356821 82.49217 
L 222.567901 82.661144 
L 222.567901 82.578061 
L 222.567901 82.411598 
L 222.252333 82.395854 
L 222.252333 82.312314 
L 221.936766 82.380053 
L 221.936766 82.296354 
L 221.936766 81.87635 
L 221.778982 81.9101 
L 221.778982 81.825766 
L 221.778982 81.74133 
L 221.463414 81.724231 
L 221.463414 81.214491 
L 221.30563 81.248086 
L 221.30563 81.162738 
L 221.30563 80.991731 
L 221.147846 81.025272 
L 221.147846 80.939581 
L 221.147846 80.853787 
L 220.832278 80.834901 
L 220.832278 80.662661 
L 220.201143 80.710515 
L 220.201143 80.276894 
L 219.727791 80.377435 
L 219.727791 80.290293 
L 219.727791 80.115687 
L 219.570007 80.149184 
L 219.570007 80.061687 
L 219.570007 79.622577 
L 218.623304 79.734868 
L 218.623304 79.646406 
L 218.307736 79.713483 
L 218.307736 79.624843 
L 218.307736 79.269178 
L 217.518817 79.347371 
L 217.518817 79.078594 
L 216.887681 79.212838 
L 216.887681 79.122879 
L 216.887681 79.032807 
L 216.256546 79.077115 
L 216.256546 78.896115 
L 215.940978 78.872729 
L 215.940978 78.78187 
L 215.783194 78.815541 
L 215.783194 78.72453 
L 215.783194 78.542161 
L 215.152058 78.585329 
L 215.152058 78.401967 
L 214.836491 78.377409 
L 214.836491 78.193193 
L 214.363139 78.201841 
L 214.363139 78.109325 
L 214.205355 78.143018 
L 214.205355 78.050344 
L 214.205355 77.864639 
L 213.889787 77.931927 
L 213.889787 77.838818 
L 213.889787 77.745589 
L 213.100868 77.914185 
L 213.100868 77.820642 
L 213.100868 77.726978 
L 212.154164 77.836255 
L 212.154164 77.742112 
L 211.207461 77.852032 
L 211.207461 77.757405 
L 210.576326 77.799354 
L 210.576326 77.609159 
L 210.260758 77.582252 
L 210.260758 77.103526 
L 209.787406 77.205822 
L 209.787406 77.109573 
L 209.787406 77.013195 
L 208.840703 77.121763 
L 208.840703 76.830722 
L 208.525135 76.899193 
L 208.525135 76.801835 
L 208.525135 76.704346 
L 207.578432 76.812482 
L 207.578432 76.616334 
L 206.31616 76.793969 
L 206.31616 76.59633 
L 205.211673 76.740278 
L 205.211673 76.640814 
L 204.580538 76.680745 
L 204.580538 76.380586 
L 203.949402 76.41984 
L 203.949402 76.319192 
L 203.791618 76.354163 
L 203.791618 76.253331 
L 203.791618 76.152359 
L 203.318267 76.257288 
L 203.318267 76.156038 
L 203.318267 75.953117 
L 203.160483 75.988052 
L 203.160483 75.886334 
L 203.160483 75.784474 
L 202.529347 75.822138 
L 202.529347 75.411948 
L 202.055995 75.413592 
L 202.055995 75.207056 
L 200.478156 75.453832 
L 200.478156 75.349713 
L 200.004805 75.351201 
L 200.004805 75.037065 
L 199.689237 75.002412 
L 199.689237 74.89715 
L 198.426966 75.074388 
L 198.426966 74.968421 
L 197.480263 75.182249 
L 197.480263 75.075822 
L 197.480263 74.969241 
L 197.164695 75.040725 
L 197.164695 74.933886 
L 197.164695 74.719743 
L 196.849127 74.791124 
L 196.849127 74.683714 
L 196.849127 74.576147 
L 195.271288 74.826892 
L 195.271288 74.718481 
L 194.797936 74.826892 
L 194.797936 74.718161 
L 194.797936 74.60927 
L 193.693449 74.863351 
L 193.693449 74.75392 
L 193.693449 74.53457 
L 193.220097 74.643782 
L 193.220097 74.533697 
L 193.220097 74.423448 
L 192.588962 74.45875 
L 192.588962 74.23698 
L 192.273394 74.198695 
L 192.273394 73.752027 
L 191.484475 73.933979 
L 191.484475 73.821603 
L 191.484475 73.709057 
L 190.379987 73.965309 
L 190.379987 73.852185 
L 190.379987 73.397958 
L 190.06442 73.471088 
L 190.06442 73.128229 
L 189.748852 73.201226 
L 189.748852 73.086468 
L 189.591068 73.122991 
L 189.591068 72.66194 
L 189.2755 72.734667 
L 189.2755 72.618835 
L 189.117716 72.655222 
L 189.117716 72.422895 
L 188.959932 72.459214 
L 188.959932 72.342717 
L 188.644365 72.4154 
L 188.644365 72.064442 
L 188.486581 72.100679 
L 188.486581 71.747881 
L 188.013229 71.85636 
L 188.013229 71.619851 
L 187.539877 71.728455 
L 187.539877 71.609726 
L 187.22431 71.682284 
L 187.22431 71.563238 
L 187.066526 71.599537 
L 187.066526 71.480236 
L 186.750958 71.552877 
L 186.750958 71.193438 
L 186.593174 71.229646 
L 186.593174 70.505192 
L 186.43539 70.541051 
L 186.43539 70.176003 
L 186.277606 70.211714 
L 186.277606 69.967231 
L 186.119822 70.00286 
L 186.119822 69.757449 
L 184.699767 70.079437 
L 184.699767 69.955796 
L 184.541983 69.991792 
L 184.541983 69.867878 
L 184.226416 69.939903 
L 184.226416 69.815644 
L 183.910848 69.88776 
L 183.910848 69.763153 
L 183.753064 69.799227 
L 183.753064 69.674343 
L 183.437496 69.746523 
L 183.437496 69.495847 
L 183.121928 69.567971 
L 183.121928 69.189962 
L 182.964145 69.22589 
L 182.964145 69.099396 
L 182.806361 69.135309 
L 182.806361 69.00853 
L 182.648577 69.044427 
L 182.648577 68.917362 
L 182.490793 68.953243 
L 182.490793 68.442562 
L 182.175225 68.51389 
L 182.175225 68.385533 
L 182.017441 68.421209 
L 182.017441 68.163695 
L 181.859657 68.199275 
L 181.859657 67.940738 
L 181.701873 67.976221 
L 181.701873 67.846548 
L 181.544089 67.882011 
L 181.544089 67.621849 
L 181.386306 67.657212 
L 181.386306 67.396011 
L 181.228522 67.431273 
L 181.228522 67.30026 
L 181.070738 67.335501 
L 181.070738 67.204184 
L 180.75517 67.274681 
L 180.75517 66.746521 
L 180.597386 66.78153 
L 180.597386 66.648843 
L 180.281818 66.718872 
L 180.281818 66.585791 
L 180.124034 66.620812 
L 180.124034 66.353796 
L 179.966251 66.388708 
L 179.966251 66.120603 
L 179.808467 66.155404 
L 179.808467 66.020919 
L 179.650683 66.055694 
L 179.650683 65.650585 
L 179.492899 65.68516 
L 179.492899 65.27768 
L 179.019547 65.380972 
L 179.019547 65.244407 
L 178.861763 65.278869 
L 178.861763 65.141977 
L 178.546196 65.210902 
L 178.546196 64.660212 
L 178.388412 64.694403 
L 178.388412 64.556035 
L 177.91506 64.658694 
L 177.91506 64.519806 
L 177.599492 64.588363 
L 177.599492 64.449044 
L 177.441708 64.483321 
L 177.441708 64.203756 
L 177.126141 64.272117 
L 177.126141 64.131774 
L 176.810573 64.20019 
L 176.810573 64.059408 
L 176.179437 64.196591 
L 176.179437 64.055175 
L 176.021653 64.089529 
L 176.021653 63.947764 
L 175.706086 64.016463 
L 175.706086 63.87425 
L 175.548302 63.908595 
L 175.548302 63.623205 
L 175.232734 63.69169 
L 175.232734 63.548411 
L 174.759382 63.651308 
L 174.759382 63.219018 
L 174.443814 63.287329 
L 174.443814 62.99742 
L 173.812679 63.133979 
L 173.812679 62.695897 
L 173.654895 62.729886 
L 173.654895 62.583218 
L 173.181543 62.685247 
L 173.181543 61.946265 
L 172.865975 62.013544 
L 172.865975 61.864711 
L 172.392624 61.965777 
L 172.392624 61.366369 
L 172.077056 61.433192 
L 172.077056 61.282418 
L 171.761488 61.349271 
L 171.761488 60.894582 
L 171.44592 60.961018 
L 171.44592 60.808659 
L 170.972569 60.908446 
L 170.972569 60.294748 
L 170.814785 60.32768 
L 170.814785 60.173409 
L 170.499217 60.239229 
L 170.499217 60.084432 
L 170.025865 60.183284 
L 170.025865 60.027839 
L 169.39473 60.160059 
L 169.39473 59.847322 
L 169.236946 59.880299 
L 169.236946 59.723358 
L 169.079162 59.756278 
L 169.079162 59.598912 
L 168.60581 59.697694 
L 168.60581 59.222665 
L 167.816891 59.38675 
L 167.816891 59.067278 
L 167.501323 59.132864 
L 167.501323 58.972407 
L 167.343539 59.005171 
L 167.343539 58.683054 
L 167.185755 58.715629 
L 167.185755 58.229677 
L 166.870188 58.294251 
L 166.870188 57.804619 
L 166.081268 57.96522 
L 166.081268 57.470664 
L 165.923484 57.502578 
L 165.923484 57.336929 
L 165.607916 57.40068 
L 165.607916 57.234426 
L 165.292349 57.298163 
L 165.292349 57.131301 
L 164.976781 57.195023 
L 164.976781 57.027548 
L 164.661213 57.091253 
L 164.661213 56.923161 
L 164.503429 56.954972 
L 164.503429 56.786398 
L 164.345645 56.818134 
L 164.345645 56.47967 
L 164.187861 56.51119 
L 164.187861 56.171053 
L 163.556726 56.296638 
L 163.556726 55.437255 
L 163.398942 55.468086 
L 163.398942 55.121538 
L 163.241158 55.152136 
L 163.241158 54.629154 
L 163.083374 54.659366 
L 163.083374 54.484159 
L 162.610023 54.574717 
L 162.610023 54.398685 
L 162.294455 54.459068 
L 162.294455 54.282357 
L 162.136671 54.31249 
L 162.136671 53.601282 
L 161.189967 53.779648 
L 161.189967 52.69567 
L 161.032184 52.724649 
L 161.032184 52.542463 
L 160.716616 52.600277 
L 160.716616 52.417367 
L 159.927696 52.562165 
L 159.927696 52.378022 
L 159.769912 52.407002 
L 159.769912 52.22229 
L 159.612129 52.251163 
L 159.612129 51.880188 
L 158.823209 52.023786 
L 158.823209 51.836826 
L 158.349857 51.923221 
L 158.349857 51.547013 
L 158.192074 51.575586 
L 158.192074 51.38668 
L 158.03429 51.415139 
L 158.03429 50.654594 
L 157.876506 50.682395 
L 157.876506 50.29921 
L 157.718722 50.326708 
L 157.718722 50.134288 
L 157.24537 50.216594 
L 157.24537 49.440337 
L 156.614235 49.547927 
L 156.614235 49.155633 
L 155.983099 49.26266 
L 155.983099 49.065066 
L 155.667531 49.118556 
L 155.667531 48.920116 
L 154.878612 49.053931 
L 154.878612 48.653691 
L 154.720828 48.680239 
L 154.720828 48.479222 
L 154.563044 48.505629 
L 154.563044 47.899161 
L 153.774125 48.029035 
L 153.774125 47.620283 
L 153.616341 47.646021 
L 153.616341 47.234922 
L 153.458557 47.260298 
L 153.458557 46.846829 
L 153.300773 46.871835 
L 153.300773 46.455973 
L 152.827421 46.530042 
L 152.827421 46.320712 
L 152.511853 46.369946 
L 152.511853 45.948897 
L 152.038502 46.02185 
L 152.038502 45.809894 
L 151.56515 45.882695 
L 151.56515 45.669545 
L 151.249582 45.717916 
L 151.249582 45.289144 
L 150.618447 45.384736 
L 150.618447 44.952 
L 150.460663 44.975572 
L 150.460663 44.758171 
L 150.302879 44.781564 
L 150.302879 44.344677 
L 150.145095 44.367646 
L 150.145095 44.148152 
L 149.987311 44.170935 
L 149.987311 43.950655 
L 148.882824 44.110003 
L 148.882824 43.887444 
L 148.567256 43.932984 
L 148.567256 43.709365 
L 147.778337 43.822955 
L 147.778337 43.597501 
L 147.147201 43.688382 
L 147.147201 43.461322 
L 146.042714 43.620773 
L 146.042714 43.161219 
L 145.411578 43.251488 
L 145.411578 43.019745 
L 145.253794 43.042187 
L 145.253794 42.80957 
L 143.833739 43.01172 
L 143.833739 42.776001 
L 143.360388 42.843608 
L 143.360388 42.130157 
L 142.413684 42.261816 
L 142.413684 42.020992 
L 141.624765 42.130859 
L 141.624765 41.155104 
L 141.309197 41.197057 
L 141.309197 40.950852 
L 140.20471 41.097335 
L 140.20471 40.848283 
L 139.889142 40.890026 
L 139.889142 40.639656 
L 139.573574 40.680994 
L 139.573574 40.429293 
L 138.469087 40.573534 
L 138.469087 40.318858 
L 137.995735 40.380558 
L 137.995735 40.124173 
L 136.733464 40.288595 
L 136.733464 40.028782 
L 135.628977 40.173349 
L 135.628977 39.116837 
L 134.051138 39.314189 
L 134.051138 39.044508 
L 133.577786 39.103743 
L 133.577786 38.286538 
L 133.262219 38.32406 
L 133.262219 38.049272 
L 131.053244 38.31287 
L 131.053244 37.749792 
L 130.422109 37.823956 
L 130.422109 37.539491 
L 128.528702 37.762563 
L 128.528702 37.472177 
L 125.846376 37.795549 
L 125.846376 37.496745 
L 121.901779 37.994215 
L 121.901779 37.682602 
L 121.586211 37.723234 
L 121.586211 37.40957 
L 121.112859 37.469533 
L 121.112859 36.835955 
L 119.377236 37.049788 
L 119.377236 36.725606 
L 118.588317 36.822858 
L 118.588317 36.494832 
L 117.168262 36.669299 
L 117.168262 36.335086 
L 116.852694 36.373489 
L 116.852694 36.036923 
L 116.537126 36.074452 
L 116.537126 35.735502 
L 115.905991 35.809035 
L 115.905991 35.466483 
L 115.432639 35.520548 
L 115.432639 35.174924 
L 113.381448 35.40824 
L 113.381448 35.053203 
L 111.803609 35.234144 
L 111.803609 34.871186 
L 110.067987 35.070987 
L 110.067987 34.699045 
L 109.121283 34.807485 
L 109.121283 34.429763 
L 108.17458 34.536454 
L 108.17458 34.15277 
L 107.859012 34.187416 
L 107.859012 33.800646 
L 103.756631 34.257567 
L 103.756631 33.437043 
L 102.967712 33.522257 
L 102.967712 33.104922 
L 102.49436 33.154287 
L 102.49436 32.732404 
L 97.760843 33.235927 
L 97.760843 32.782877 
L 97.603059 32.799863 
L 97.603059 32.34358 
L 95.709653 32.540907 
L 95.709653 32.069224 
L 92.238407 32.437004 
L 92.238407 31.936422 
L 89.556081 32.228511 
L 89.556081 31.702391 
L 88.924945 31.769458 
L 88.924945 31.23466 
L 87.347106 31.39414 
L 87.347106 30.841203 
L 85.295916 31.041863 
L 85.295916 30.464474 
L 83.718077 30.612381 
L 83.718077 30.013802 
L 83.402509 30.040828 
L 83.402509 29.434781 
L 76.933369 29.987112 
L 76.933369 29.28831 
L 76.460018 29.327703 
L 76.460018 28.616154 
L 72.830988 28.885059 
L 72.830988 28.102579 
L 65.415145 28.66327 
L 65.415145 27.690937 
L 63.99509 27.784456 
L 63.99509 26.756026 
L 60.208277 26.907207 
L 60.208277 25.716656 
L 34.331719 25.716656 
L 34.331719 25.716656 
" clip-path="url(#pf96fb83911)" style="fill: none; stroke: #ff0000; stroke-width: 1.5; stroke-linecap: square"/>
   </g>
   <g id="line2d_14">
    <defs>
     <path id="mdbb1b759f4" d="M 0 3 
C 0.795609 3 1.55874 2.683901 2.12132 2.12132 
C 2.683901 1.55874 3 0.795609 3 0 
C 3 -0.795609 2.683901 -1.55874 2.12132 -2.12132 
C 1.55874 -2.683901 0.795609 -3 0 -3 
C -0.795609 -3 -1.55874 -2.683901 -2.12132 -2.12132 
C -2.683901 -1.55874 -3 -0.795609 -3 0 
C -3 0.795609 -2.683901 1.55874 -2.12132 2.12132 
C -1.55874 2.683901 -0.795609 3 0 3 
z
" style="stroke: #000000"/>
    </defs>
    <g clip-path="url(#pf96fb83911)">
     <use xlink:href="#mdbb1b759f4" x="219.570007" y="79.622577" style="fill: #ff0000; stroke: #000000"/>
    </g>
   </g>
   <g id="line2d_15">
    <path d="M 34.331719 89.239679 
L 230.772664 89.239679 
" clip-path="url(#pf96fb83911)" style="fill: none; stroke: #00bfbf; stroke-width: 1.5; stroke-linecap: square"/>
   </g>
   <g id="patch_4">
    <path d="M 34.331719 222.157601 
L 34.331719 25.716656 
" style="fill: none; stroke: #000000; stroke-width: 0.8; stroke-linejoin: miter; stroke-linecap: square"/>
   </g>
   <g id="patch_5">
    <path d="M 230.772664 222.157601 
L 230.772664 25.716656 
" style="fill: none; stroke: #000000; stroke-width: 0.8; stroke-linejoin: miter; stroke-linecap: square"/>
   </g>
   <g id="patch_6">
    <path d="M 34.331719 222.157601 
L 230.772664 222.157601 
" style="fill: none; stroke: #000000; stroke-width: 0.8; stroke-linejoin: miter; stroke-linecap: square"/>
   </g>
   <g id="patch_7">
    <path d="M 34.331719 25.716656 
L 230.772664 25.716656 
" style="fill: none; stroke: #000000; stroke-width: 0.8; stroke-linejoin: miter; stroke-linecap: square"/>
   </g>
   <g id="text_15">
    <text style="font: 7px 'Arial'" transform="translate(107.132894 12.210469)">t-SNE SP model</text>
    <text style="font: 7px 'Arial'" transform="translate(87.62641 19.716656)">Precision - Recall (PR) curve</text>
   </g>
   <g id="legend_1">
    <g id="patch_8">
     <path d="M 47.553597 261.02835 
L 217.550785 261.02835 
Q 218.950785 261.02835 218.950785 259.62835 
L 218.950785 250.259288 
Q 218.950785 248.859288 217.550785 248.859288 
L 47.553597 248.859288 
Q 46.153597 248.859288 46.153597 250.259288 
L 46.153597 259.62835 
Q 46.153597 261.02835 47.553597 261.02835 
z
" style="fill: #ffffff; opacity: 0.8; stroke: #cccccc; stroke-linejoin: miter"/>
    </g>
    <g id="line2d_16">
     <path d="M 48.953597 254.305069 
L 55.953597 254.305069 
L 62.953597 254.305069 
" style="fill: none; stroke: #ff0000; stroke-width: 1.5; stroke-linecap: square"/>
    </g>
    <g id="text_16">
     <text style="font: 7px 'Arial'; text-anchor: start" x="68.553597" y="256.755069" transform="rotate(-0 68.553597 256.755069)">model performance</text>
    </g>
    <g id="line2d_17">
     <path d="M 142.855316 254.305069 
L 149.855316 254.305069 
L 156.855316 254.305069 
" style="fill: none; stroke: #00bfbf; stroke-width: 1.5; stroke-linecap: square"/>
    </g>
    <g id="text_17">
     <text style="font: 7px 'Arial'; text-anchor: start" x="162.455316" y="256.755069" transform="rotate(-0 162.455316 256.755069)">random guessing</text>
    </g>
   </g>
  </g>
 </g>
 <defs>
  <clipPath id="pf96fb83911">
   <rect x="34.331719" y="25.716656" width="196.440945" height="196.440945"/>
  </clipPath>
 </defs>
</svg>
