<?xml version="1.0" encoding="utf-8" standalone="no"?>
<!DOCTYPE svg PUBLIC "-//W3C//DTD SVG 1.1//EN"
  "http://www.w3.org/Graphics/SVG/1.1/DTD/svg11.dtd">
<svg xmlns:xlink="http://www.w3.org/1999/xlink" width="606.303125pt" height="391.984556pt" viewBox="0 0 606.303125 391.984556" xmlns="http://www.w3.org/2000/svg" version="1.1">
 <metadata>
  <rdf:RDF xmlns:dc="http://purl.org/dc/elements/1.1/" xmlns:cc="http://creativecommons.org/ns#" xmlns:rdf="http://www.w3.org/1999/02/22-rdf-syntax-ns#">
   <cc:Work>
    <dc:type rdf:resource="http://purl.org/dc/dcmitype/StillImage"/>
    <dc:date>2024-09-24T11:17:34.283138</dc:date>
    <dc:format>image/svg+xml</dc:format>
    <dc:creator>
     <cc:Agent>
      <dc:title>Matplotlib v3.7.0, https://matplotlib.org/</dc:title>
     </cc:Agent>
    </dc:creator>
   </cc:Work>
  </rdf:RDF>
 </metadata>
 <defs>
  <style type="text/css">*{stroke-linejoin: round; stroke-linecap: butt}</style>
 </defs>
 <g id="figure_1">
  <g id="patch_1">
   <path d="M -0 391.984556 
L 606.303125 391.984556 
L 606.303125 0 
L -0 0 
z
" style="fill: #ffffff"/>
  </g>
  <g id="axes_1">
   <g id="patch_2">
    <path d="M 124.591562 281.670281 
L 481.711563 281.670281 
L 481.711563 15.558281 
L 124.591562 15.558281 
z
" style="fill: #ffffff"/>
   </g>
   <g id="patch_3">
    <path d="M 124.591562 15.558281 
L 131.730024 22.079063 
L 128.557882 22.97559 
L 178.176467 120.459684 
L 177.842557 120.554055 
L 128.223973 23.069962 
L 125.051832 23.966489 
z
" clip-path="url(#pcaa71390ea)" style="fill: #1f77b4; stroke: #000000; stroke-linejoin: miter"/>
   </g>
   <g id="matplotlib.axis_1">
    <g id="xtick_1">
     <g id="line2d_1">
      <defs>
       <path id="m9189a053eb" d="M 0 0 
L 0 3.5 
" style="stroke: #000000; stroke-width: 0.8"/>
      </defs>
      <g>
       <use xlink:href="#m9189a053eb" x="124.591562" y="281.670281" style="stroke: #000000; stroke-width: 0.8"/>
      </g>
     </g>
     <g id="text_1">
      <!-- 0.0 -->
      <g transform="translate(107.098125 305.386844) scale(0.22 -0.22)">
       <defs>
        <path id="DejaVuSans-30" d="M 2034 4250 
Q 1547 4250 1301 3770 
Q 1056 3291 1056 2328 
Q 1056 1369 1301 889 
Q 1547 409 2034 409 
Q 2525 409 2770 889 
Q 3016 1369 3016 2328 
Q 3016 3291 2770 3770 
Q 2525 4250 2034 4250 
z
M 2034 4750 
Q 2819 4750 3233 4129 
Q 3647 3509 3647 2328 
Q 3647 1150 3233 529 
Q 2819 -91 2034 -91 
Q 1250 -91 836 529 
Q 422 1150 422 2328 
Q 422 3509 836 4129 
Q 1250 4750 2034 4750 
z
" transform="scale(0.015625)"/>
        <path id="DejaVuSans-2e" d="M 684 794 
L 1344 794 
L 1344 0 
L 684 0 
L 684 794 
z
" transform="scale(0.015625)"/>
       </defs>
       <use xlink:href="#DejaVuSans-30"/>
       <use xlink:href="#DejaVuSans-2e" x="63.623047"/>
       <use xlink:href="#DejaVuSans-30" x="95.410156"/>
      </g>
     </g>
    </g>
    <g id="xtick_2">
     <g id="line2d_2">
      <g>
       <use xlink:href="#m9189a053eb" x="196.015562" y="281.670281" style="stroke: #000000; stroke-width: 0.8"/>
      </g>
     </g>
     <g id="text_2">
      <!-- 0.2 -->
      <g transform="translate(178.522125 305.386844) scale(0.22 -0.22)">
       <defs>
        <path id="DejaVuSans-32" d="M 1228 531 
L 3431 531 
L 3431 0 
L 469 0 
L 469 531 
Q 828 903 1448 1529 
Q 2069 2156 2228 2338 
Q 2531 2678 2651 2914 
Q 2772 3150 2772 3378 
Q 2772 3750 2511 3984 
Q 2250 4219 1831 4219 
Q 1534 4219 1204 4116 
Q 875 4013 500 3803 
L 500 4441 
Q 881 4594 1212 4672 
Q 1544 4750 1819 4750 
Q 2544 4750 2975 4387 
Q 3406 4025 3406 3419 
Q 3406 3131 3298 2873 
Q 3191 2616 2906 2266 
Q 2828 2175 2409 1742 
Q 1991 1309 1228 531 
z
" transform="scale(0.015625)"/>
       </defs>
       <use xlink:href="#DejaVuSans-30"/>
       <use xlink:href="#DejaVuSans-2e" x="63.623047"/>
       <use xlink:href="#DejaVuSans-32" x="95.410156"/>
      </g>
     </g>
    </g>
    <g id="xtick_3">
     <g id="line2d_3">
      <g>
       <use xlink:href="#m9189a053eb" x="267.439562" y="281.670281" style="stroke: #000000; stroke-width: 0.8"/>
      </g>
     </g>
     <g id="text_3">
      <!-- 0.4 -->
      <g transform="translate(249.946125 305.386844) scale(0.22 -0.22)">
       <defs>
        <path id="DejaVuSans-34" d="M 2419 4116 
L 825 1625 
L 2419 1625 
L 2419 4116 
z
M 2253 4666 
L 3047 4666 
L 3047 1625 
L 3713 1625 
L 3713 1100 
L 3047 1100 
L 3047 0 
L 2419 0 
L 2419 1100 
L 313 1100 
L 313 1709 
L 2253 4666 
z
" transform="scale(0.015625)"/>
       </defs>
       <use xlink:href="#DejaVuSans-30"/>
       <use xlink:href="#DejaVuSans-2e" x="63.623047"/>
       <use xlink:href="#DejaVuSans-34" x="95.410156"/>
      </g>
     </g>
    </g>
    <g id="xtick_4">
     <g id="line2d_4">
      <g>
       <use xlink:href="#m9189a053eb" x="338.863563" y="281.670281" style="stroke: #000000; stroke-width: 0.8"/>
      </g>
     </g>
     <g id="text_4">
      <!-- 0.6 -->
      <g transform="translate(321.370125 305.386844) scale(0.22 -0.22)">
       <defs>
        <path id="DejaVuSans-36" d="M 2113 2584 
Q 1688 2584 1439 2293 
Q 1191 2003 1191 1497 
Q 1191 994 1439 701 
Q 1688 409 2113 409 
Q 2538 409 2786 701 
Q 3034 994 3034 1497 
Q 3034 2003 2786 2293 
Q 2538 2584 2113 2584 
z
M 3366 4563 
L 3366 3988 
Q 3128 4100 2886 4159 
Q 2644 4219 2406 4219 
Q 1781 4219 1451 3797 
Q 1122 3375 1075 2522 
Q 1259 2794 1537 2939 
Q 1816 3084 2150 3084 
Q 2853 3084 3261 2657 
Q 3669 2231 3669 1497 
Q 3669 778 3244 343 
Q 2819 -91 2113 -91 
Q 1303 -91 875 529 
Q 447 1150 447 2328 
Q 447 3434 972 4092 
Q 1497 4750 2381 4750 
Q 2619 4750 2861 4703 
Q 3103 4656 3366 4563 
z
" transform="scale(0.015625)"/>
       </defs>
       <use xlink:href="#DejaVuSans-30"/>
       <use xlink:href="#DejaVuSans-2e" x="63.623047"/>
       <use xlink:href="#DejaVuSans-36" x="95.410156"/>
      </g>
     </g>
    </g>
    <g id="xtick_5">
     <g id="line2d_5">
      <g>
       <use xlink:href="#m9189a053eb" x="410.287562" y="281.670281" style="stroke: #000000; stroke-width: 0.8"/>
      </g>
     </g>
     <g id="text_5">
      <!-- 0.8 -->
      <g transform="translate(392.794125 305.386844) scale(0.22 -0.22)">
       <defs>
        <path id="DejaVuSans-38" d="M 2034 2216 
Q 1584 2216 1326 1975 
Q 1069 1734 1069 1313 
Q 1069 891 1326 650 
Q 1584 409 2034 409 
Q 2484 409 2743 651 
Q 3003 894 3003 1313 
Q 3003 1734 2745 1975 
Q 2488 2216 2034 2216 
z
M 1403 2484 
Q 997 2584 770 2862 
Q 544 3141 544 3541 
Q 544 4100 942 4425 
Q 1341 4750 2034 4750 
Q 2731 4750 3128 4425 
Q 3525 4100 3525 3541 
Q 3525 3141 3298 2862 
Q 3072 2584 2669 2484 
Q 3125 2378 3379 2068 
Q 3634 1759 3634 1313 
Q 3634 634 3220 271 
Q 2806 -91 2034 -91 
Q 1263 -91 848 271 
Q 434 634 434 1313 
Q 434 1759 690 2068 
Q 947 2378 1403 2484 
z
M 1172 3481 
Q 1172 3119 1398 2916 
Q 1625 2713 2034 2713 
Q 2441 2713 2670 2916 
Q 2900 3119 2900 3481 
Q 2900 3844 2670 4047 
Q 2441 4250 2034 4250 
Q 1625 4250 1398 4047 
Q 1172 3844 1172 3481 
z
" transform="scale(0.015625)"/>
       </defs>
       <use xlink:href="#DejaVuSans-30"/>
       <use xlink:href="#DejaVuSans-2e" x="63.623047"/>
       <use xlink:href="#DejaVuSans-38" x="95.410156"/>
      </g>
     </g>
    </g>
    <g id="xtick_6">
     <g id="line2d_6">
      <g>
       <use xlink:href="#m9189a053eb" x="481.711563" y="281.670281" style="stroke: #000000; stroke-width: 0.8"/>
      </g>
     </g>
     <g id="text_6">
      <!-- 1.0 -->
      <g transform="translate(464.218125 305.386844) scale(0.22 -0.22)">
       <defs>
        <path id="DejaVuSans-31" d="M 794 531 
L 1825 531 
L 1825 4091 
L 703 3866 
L 703 4441 
L 1819 4666 
L 2450 4666 
L 2450 531 
L 3481 531 
L 3481 0 
L 794 0 
L 794 531 
z
" transform="scale(0.015625)"/>
       </defs>
       <use xlink:href="#DejaVuSans-31"/>
       <use xlink:href="#DejaVuSans-2e" x="63.623047"/>
       <use xlink:href="#DejaVuSans-30" x="95.410156"/>
      </g>
     </g>
    </g>
    <g id="text_7">
     <!-- FPR -->
     <g transform="translate(282.548906 330.678719) scale(0.22 -0.22)">
      <defs>
       <path id="DejaVuSans-46" d="M 628 4666 
L 3309 4666 
L 3309 4134 
L 1259 4134 
L 1259 2759 
L 3109 2759 
L 3109 2228 
L 1259 2228 
L 1259 0 
L 628 0 
L 628 4666 
z
" transform="scale(0.015625)"/>
       <path id="DejaVuSans-50" d="M 1259 4147 
L 1259 2394 
L 2053 2394 
Q 2494 2394 2734 2622 
Q 2975 2850 2975 3272 
Q 2975 3691 2734 3919 
Q 2494 4147 2053 4147 
L 1259 4147 
z
M 628 4666 
L 2053 4666 
Q 2838 4666 3239 4311 
Q 3641 3956 3641 3272 
Q 3641 2581 3239 2228 
Q 2838 1875 2053 1875 
L 1259 1875 
L 1259 0 
L 628 0 
L 628 4666 
z
" transform="scale(0.015625)"/>
       <path id="DejaVuSans-52" d="M 2841 2188 
Q 3044 2119 3236 1894 
Q 3428 1669 3622 1275 
L 4263 0 
L 3584 0 
L 2988 1197 
Q 2756 1666 2539 1819 
Q 2322 1972 1947 1972 
L 1259 1972 
L 1259 0 
L 628 0 
L 628 4666 
L 2053 4666 
Q 2853 4666 3247 4331 
Q 3641 3997 3641 3322 
Q 3641 2881 3436 2590 
Q 3231 2300 2841 2188 
z
M 1259 4147 
L 1259 2491 
L 2053 2491 
Q 2509 2491 2742 2702 
Q 2975 2913 2975 3322 
Q 2975 3731 2742 3939 
Q 2509 4147 2053 4147 
L 1259 4147 
z
" transform="scale(0.015625)"/>
      </defs>
      <use xlink:href="#DejaVuSans-46"/>
      <use xlink:href="#DejaVuSans-50" x="57.519531"/>
      <use xlink:href="#DejaVuSans-52" x="117.822266"/>
     </g>
    </g>
   </g>
   <g id="matplotlib.axis_2">
    <g id="ytick_1">
     <g id="line2d_7">
      <defs>
       <path id="m7cab4b0d12" d="M 0 0 
L -3.5 0 
" style="stroke: #000000; stroke-width: 0.8"/>
      </defs>
      <g>
       <use xlink:href="#m7cab4b0d12" x="124.591562" y="281.670281" style="stroke: #000000; stroke-width: 0.8"/>
      </g>
     </g>
     <g id="text_8">
      <!-- 0.0 -->
      <g transform="translate(82.604687 290.028562) scale(0.22 -0.22)">
       <use xlink:href="#DejaVuSans-30"/>
       <use xlink:href="#DejaVuSans-2e" x="63.623047"/>
       <use xlink:href="#DejaVuSans-30" x="95.410156"/>
      </g>
     </g>
    </g>
    <g id="ytick_2">
     <g id="line2d_8">
      <g>
       <use xlink:href="#m7cab4b0d12" x="124.591562" y="228.447881" style="stroke: #000000; stroke-width: 0.8"/>
      </g>
     </g>
     <g id="text_9">
      <!-- 0.2 -->
      <g transform="translate(82.604687 236.806162) scale(0.22 -0.22)">
       <use xlink:href="#DejaVuSans-30"/>
       <use xlink:href="#DejaVuSans-2e" x="63.623047"/>
       <use xlink:href="#DejaVuSans-32" x="95.410156"/>
      </g>
     </g>
    </g>
    <g id="ytick_3">
     <g id="line2d_9">
      <g>
       <use xlink:href="#m7cab4b0d12" x="124.591562" y="175.225481" style="stroke: #000000; stroke-width: 0.8"/>
      </g>
     </g>
     <g id="text_10">
      <!-- 0.4 -->
      <g transform="translate(82.604687 183.583762) scale(0.22 -0.22)">
       <use xlink:href="#DejaVuSans-30"/>
       <use xlink:href="#DejaVuSans-2e" x="63.623047"/>
       <use xlink:href="#DejaVuSans-34" x="95.410156"/>
      </g>
     </g>
    </g>
    <g id="ytick_4">
     <g id="line2d_10">
      <g>
       <use xlink:href="#m7cab4b0d12" x="124.591562" y="122.003081" style="stroke: #000000; stroke-width: 0.8"/>
      </g>
     </g>
     <g id="text_11">
      <!-- 0.6 -->
      <g transform="translate(82.604687 130.361362) scale(0.22 -0.22)">
       <use xlink:href="#DejaVuSans-30"/>
       <use xlink:href="#DejaVuSans-2e" x="63.623047"/>
       <use xlink:href="#DejaVuSans-36" x="95.410156"/>
      </g>
     </g>
    </g>
    <g id="ytick_5">
     <g id="line2d_11">
      <g>
       <use xlink:href="#m7cab4b0d12" x="124.591562" y="68.780681" style="stroke: #000000; stroke-width: 0.8"/>
      </g>
     </g>
     <g id="text_12">
      <!-- 0.8 -->
      <g transform="translate(82.604687 77.138962) scale(0.22 -0.22)">
       <use xlink:href="#DejaVuSans-30"/>
       <use xlink:href="#DejaVuSans-2e" x="63.623047"/>
       <use xlink:href="#DejaVuSans-38" x="95.410156"/>
      </g>
     </g>
    </g>
    <g id="ytick_6">
     <g id="line2d_12">
      <g>
       <use xlink:href="#m7cab4b0d12" x="124.591562" y="15.558281" style="stroke: #000000; stroke-width: 0.8"/>
      </g>
     </g>
     <g id="text_13">
      <!-- 1.0 -->
      <g transform="translate(82.604687 23.916562) scale(0.22 -0.22)">
       <use xlink:href="#DejaVuSans-31"/>
       <use xlink:href="#DejaVuSans-2e" x="63.623047"/>
       <use xlink:href="#DejaVuSans-30" x="95.410156"/>
      </g>
     </g>
    </g>
    <g id="text_14">
     <!-- TPR -->
     <g transform="translate(74.029375 169.608812) rotate(-90) scale(0.22 -0.22)">
      <defs>
       <path id="DejaVuSans-54" d="M -19 4666 
L 3928 4666 
L 3928 4134 
L 2272 4134 
L 2272 0 
L 1638 0 
L 1638 4134 
L -19 4134 
L -19 4666 
z
" transform="scale(0.015625)"/>
      </defs>
      <use xlink:href="#DejaVuSans-54"/>
      <use xlink:href="#DejaVuSans-50" x="61.083984"/>
      <use xlink:href="#DejaVuSans-52" x="121.386719"/>
     </g>
    </g>
   </g>
   <g id="line2d_13">
    <path d="M 124.591562 281.670281 
L 124.591562 246.61617 
L 125.191764 246.61617 
L 125.191764 241.486301 
L 125.791966 241.486301 
L 125.791966 239.562599 
L 126.392168 239.562599 
L 126.392168 229.516604 
L 126.992369 229.516604 
L 126.992369 224.600479 
L 127.592571 224.600479 
L 127.592571 223.959245 
L 128.192773 223.959245 
L 128.192773 215.195717 
L 128.792974 215.195717 
L 128.792974 214.768228 
L 129.393176 214.768228 
L 129.393176 212.630782 
L 129.993378 212.630782 
L 129.993378 209.852103 
L 130.593579 209.852103 
L 130.593579 207.714657 
L 131.193781 207.714657 
L 131.193781 206.859679 
L 131.793983 206.859679 
L 131.793983 203.226021 
L 132.394184 203.226021 
L 132.394184 198.52364 
L 132.994386 198.52364 
L 132.994386 195.958705 
L 133.594588 195.958705 
L 133.594588 195.744961 
L 134.194789 195.744961 
L 134.194789 189.332623 
L 134.794991 189.332623 
L 134.794991 188.69139 
L 135.395193 188.69139 
L 135.395193 187.622667 
L 136.595596 187.622667 
L 136.595596 182.065308 
L 137.195798 182.065308 
L 137.195798 181.637819 
L 137.795999 181.637819 
L 137.795999 180.355351 
L 138.396201 180.355351 
L 138.396201 179.072884 
L 138.996403 179.072884 
L 138.996403 176.721693 
L 139.596605 176.721693 
L 139.596605 174.584248 
L 140.196806 174.584248 
L 140.196806 171.805568 
L 140.797008 171.805568 
L 140.797008 171.164334 
L 141.39721 171.164334 
L 141.39721 170.309356 
L 141.997411 170.309356 
L 141.997411 169.881867 
L 142.597613 169.881867 
L 142.597613 169.454378 
L 143.197815 169.454378 
L 143.197815 167.530676 
L 143.798016 167.530676 
L 143.798016 166.461954 
L 144.398218 166.461954 
L 144.398218 164.110763 
L 145.598621 164.110763 
L 145.598621 163.469529 
L 146.198823 163.469529 
L 146.198823 163.04204 
L 146.799025 163.04204 
L 146.799025 157.698426 
L 147.399226 157.698426 
L 147.399226 154.064768 
L 147.999428 154.064768 
L 147.999428 151.499833 
L 148.59963 151.499833 
L 148.59963 150.644855 
L 149.800033 150.644855 
L 149.800033 147.652431 
L 150.400235 147.652431 
L 150.400235 147.224941 
L 152.20084 147.224941 
L 152.20084 146.583708 
L 152.801041 146.583708 
L 152.801041 144.446262 
L 155.201848 144.446262 
L 155.201848 142.95005 
L 155.80205 142.95005 
L 155.80205 141.240093 
L 156.402252 141.240093 
L 156.402252 140.59886 
L 157.002453 140.59886 
L 157.002453 139.102648 
L 157.602655 139.102648 
L 157.602655 138.675158 
L 158.202857 138.675158 
L 158.202857 138.247669 
L 158.803058 138.247669 
L 158.803058 136.751457 
L 159.40326 136.751457 
L 159.40326 136.323968 
L 161.804067 136.323968 
L 161.804067 135.255245 
L 162.404268 135.255245 
L 162.404268 133.972778 
L 164.204873 133.972778 
L 164.204873 133.331544 
L 164.805075 133.331544 
L 164.805075 131.407843 
L 165.405277 131.407843 
L 165.405277 131.194098 
L 166.005478 131.194098 
L 166.005478 130.33912 
L 167.205882 130.33912 
L 167.205882 128.842908 
L 167.806084 128.842908 
L 167.806084 127.987929 
L 168.406285 127.987929 
L 168.406285 126.919207 
L 169.006487 126.919207 
L 169.006487 126.491717 
L 169.606689 126.491717 
L 169.606689 124.995505 
L 170.20689 124.995505 
L 170.20689 124.781761 
L 170.807092 124.781761 
L 170.807092 124.568016 
L 172.007495 124.568016 
L 172.007495 124.354272 
L 172.607697 124.354272 
L 172.607697 124.140527 
L 173.8081 124.140527 
L 173.8081 123.285549 
L 175.008504 123.285549 
L 175.008504 122.85806 
L 175.608705 122.85806 
L 175.608705 122.216826 
L 176.208907 122.216826 
L 176.208907 121.575592 
L 177.40931 121.575592 
L 177.40931 121.148103 
L 178.009512 121.148103 
L 178.009512 120.506869 
L 179.209915 120.506869 
L 179.209915 120.293125 
L 180.410319 120.293125 
L 180.410319 120.07938 
L 181.610722 120.07938 
L 181.610722 119.865635 
L 182.811126 119.865635 
L 182.811126 118.796913 
L 184.611731 118.796913 
L 184.611731 118.583168 
L 185.211932 118.583168 
L 185.211932 118.369423 
L 186.412336 118.369423 
L 186.412336 117.300701 
L 187.012537 117.300701 
L 187.012537 116.873211 
L 187.612739 116.873211 
L 187.612739 116.018233 
L 188.813142 116.018233 
L 188.813142 115.163255 
L 191.213949 115.163255 
L 191.213949 114.522021 
L 191.814151 114.522021 
L 191.814151 114.308276 
L 193.014554 114.308276 
L 193.014554 114.094532 
L 195.415361 114.094532 
L 195.415361 113.880787 
L 196.015562 113.880787 
L 196.015562 113.667043 
L 197.215966 113.667043 
L 197.215966 113.025809 
L 197.816168 113.025809 
L 197.816168 111.957086 
L 199.016571 111.957086 
L 199.016571 111.743341 
L 199.616773 111.743341 
L 199.616773 111.529597 
L 200.216974 111.529597 
L 200.216974 110.460874 
L 200.817176 110.460874 
L 200.817176 110.033385 
L 201.417378 110.033385 
L 201.417378 109.81964 
L 205.018588 109.81964 
L 205.018588 108.537173 
L 207.419394 108.537173 
L 207.419394 108.323428 
L 208.019596 108.323428 
L 208.019596 107.895939 
L 208.619798 107.895939 
L 208.619798 107.254705 
L 209.219999 107.254705 
L 209.219999 107.040961 
L 211.020605 107.040961 
L 211.020605 106.827216 
L 212.221008 106.827216 
L 212.221008 106.613472 
L 215.222016 106.613472 
L 215.222016 105.758493 
L 216.42242 105.758493 
L 216.42242 105.544749 
L 217.622823 105.544749 
L 217.622823 105.331004 
L 218.223025 105.331004 
L 218.223025 105.11726 
L 218.823226 105.11726 
L 218.823226 104.68977 
L 219.423428 104.68977 
L 219.423428 104.262281 
L 220.02363 104.262281 
L 220.02363 103.834792 
L 220.623831 103.834792 
L 220.623831 103.407303 
L 221.224033 103.407303 
L 221.224033 103.193558 
L 223.024638 103.193558 
L 223.024638 102.124835 
L 224.825243 102.124835 
L 224.825243 101.697346 
L 226.625848 101.697346 
L 226.625848 101.483602 
L 227.826252 101.483602 
L 227.826252 101.269857 
L 228.426453 101.269857 
L 228.426453 100.842368 
L 229.626857 100.842368 
L 229.626857 99.773645 
L 231.427462 99.773645 
L 231.427462 99.132411 
L 232.027663 99.132411 
L 232.027663 98.918667 
L 232.627865 98.918667 
L 232.627865 98.704922 
L 233.828268 98.704922 
L 233.828268 97.849944 
L 234.42847 97.849944 
L 234.42847 97.20871 
L 235.028672 97.20871 
L 235.028672 96.781221 
L 235.628873 96.781221 
L 235.628873 96.567476 
L 238.02968 96.567476 
L 238.02968 95.926243 
L 238.629882 95.926243 
L 238.629882 95.498754 
L 240.430487 95.498754 
L 240.430487 95.071264 
L 241.030689 95.071264 
L 241.030689 94.643775 
L 243.431495 94.643775 
L 243.431495 94.002541 
L 244.031697 94.002541 
L 244.031697 93.575052 
L 247.032705 93.575052 
L 247.032705 92.933819 
L 247.632907 92.933819 
L 247.632907 92.720074 
L 249.433512 92.720074 
L 249.433512 91.865096 
L 250.633915 91.865096 
L 250.633915 91.437607 
L 252.43452 91.437607 
L 252.43452 90.796373 
L 253.034722 90.796373 
L 253.034722 90.368884 
L 254.235126 90.368884 
L 254.235126 90.155139 
L 254.835327 90.155139 
L 254.835327 89.72765 
L 255.435529 89.72765 
L 255.435529 89.513905 
L 256.035731 89.513905 
L 256.035731 88.658927 
L 256.635932 88.658927 
L 256.635932 88.231438 
L 257.236134 88.231438 
L 257.236134 87.803949 
L 258.436537 87.803949 
L 258.436537 87.590204 
L 259.036739 87.590204 
L 259.036739 87.162715 
L 259.636941 87.162715 
L 259.636941 86.521481 
L 260.237142 86.521481 
L 260.237142 86.307737 
L 262.637949 86.307737 
L 262.637949 85.880248 
L 263.238151 85.880248 
L 263.238151 85.666503 
L 263.838352 85.666503 
L 263.838352 85.025269 
L 265.638957 85.025269 
L 265.638957 84.811525 
L 267.439562 84.811525 
L 267.439562 84.59778 
L 268.039764 84.59778 
L 268.039764 84.384035 
L 269.240168 84.384035 
L 269.240168 84.170291 
L 270.440571 84.170291 
L 270.440571 83.956546 
L 271.040773 83.956546 
L 271.040773 83.529057 
L 271.640974 83.529057 
L 271.640974 83.315313 
L 274.041781 83.315313 
L 274.041781 82.887823 
L 274.641983 82.887823 
L 274.641983 82.674079 
L 275.242184 82.674079 
L 275.242184 82.460334 
L 276.442588 82.460334 
L 276.442588 82.24659 
L 277.642991 82.24659 
L 277.642991 82.032845 
L 278.243193 82.032845 
L 278.243193 81.819101 
L 279.443596 81.819101 
L 279.443596 81.605356 
L 280.643999 81.605356 
L 280.643999 81.391611 
L 281.244201 81.391611 
L 281.244201 80.964122 
L 283.645008 80.964122 
L 283.645008 80.750378 
L 284.24521 80.750378 
L 284.24521 80.536633 
L 284.845411 80.536633 
L 284.845411 80.322888 
L 285.445613 80.322888 
L 285.445613 80.109144 
L 287.246218 80.109144 
L 287.246218 79.681655 
L 288.446621 79.681655 
L 288.446621 79.254166 
L 289.046823 79.254166 
L 289.046823 79.040421 
L 289.647025 79.040421 
L 289.647025 78.612932 
L 290.247226 78.612932 
L 290.247226 78.185443 
L 290.847428 78.185443 
L 290.847428 77.971698 
L 291.44763 77.971698 
L 291.44763 76.047997 
L 292.648033 76.047997 
L 292.648033 75.834252 
L 293.848436 75.834252 
L 293.848436 75.620508 
L 295.649041 75.620508 
L 295.649041 75.406763 
L 299.250252 75.406763 
L 299.250252 75.193019 
L 301.050857 75.193019 
L 301.050857 74.765529 
L 301.651058 74.765529 
L 301.651058 74.551785 
L 302.25126 74.551785 
L 302.25126 74.124296 
L 302.851462 74.124296 
L 302.851462 73.483062 
L 304.051865 73.483062 
L 304.051865 72.841828 
L 305.85247 72.841828 
L 305.85247 72.628084 
L 307.653075 72.628084 
L 307.653075 72.200595 
L 308.253277 72.200595 
L 308.253277 71.98685 
L 309.45368 71.98685 
L 309.45368 71.773105 
L 310.053882 71.773105 
L 310.053882 71.345616 
L 312.454689 71.345616 
L 312.454689 71.131872 
L 313.05489 71.131872 
L 313.05489 70.704382 
L 314.855495 70.704382 
L 314.855495 70.276893 
L 317.856504 70.276893 
L 317.856504 68.780681 
L 319.056907 68.780681 
L 319.056907 67.711958 
L 321.457714 67.711958 
L 321.457714 67.498214 
L 322.057915 67.498214 
L 322.057915 67.284469 
L 323.258319 67.284469 
L 323.258319 66.643235 
L 323.85852 66.643235 
L 323.85852 66.429491 
L 325.058924 66.429491 
L 325.058924 65.788257 
L 326.859529 65.788257 
L 326.859529 64.292045 
L 328.059932 64.292045 
L 328.059932 63.650811 
L 328.660134 63.650811 
L 328.660134 63.223322 
L 329.260336 63.223322 
L 329.260336 61.513366 
L 330.460739 61.513366 
L 330.460739 61.085876 
L 332.261344 61.085876 
L 332.261344 60.658387 
L 333.461747 60.658387 
L 333.461747 59.37592 
L 334.061949 59.37592 
L 334.061949 58.948431 
L 334.662151 58.948431 
L 334.662151 57.665963 
L 335.262352 57.665963 
L 335.262352 57.452219 
L 335.862554 57.452219 
L 335.862554 57.238474 
L 337.663159 57.238474 
L 337.663159 56.810985 
L 338.263361 56.810985 
L 338.263361 56.59724 
L 338.863563 56.59724 
L 338.863563 55.528517 
L 339.463764 55.528517 
L 339.463764 54.459795 
L 340.664168 54.459795 
L 340.664168 54.032305 
L 341.264369 54.032305 
L 341.264369 53.818561 
L 343.665176 53.818561 
L 343.665176 53.604816 
L 344.265378 53.604816 
L 344.265378 52.963582 
L 345.465781 52.963582 
L 345.465781 52.749838 
L 347.266386 52.749838 
L 347.266386 52.108604 
L 348.466789 52.108604 
L 348.466789 51.89486 
L 349.066991 51.89486 
L 349.066991 51.46737 
L 349.667193 51.46737 
L 349.667193 51.039881 
L 351.467798 51.039881 
L 351.467798 50.398648 
L 352.067999 50.398648 
L 352.067999 50.184903 
L 352.668201 50.184903 
L 352.668201 49.11618 
L 353.268403 49.11618 
L 353.268403 48.688691 
L 354.468806 48.688691 
L 354.468806 48.474946 
L 355.069008 48.474946 
L 355.069008 46.978734 
L 356.269411 46.978734 
L 356.269411 46.337501 
L 356.869613 46.337501 
L 356.869613 45.696267 
L 358.070016 45.696267 
L 358.070016 45.268778 
L 359.870621 45.268778 
L 359.870621 45.055033 
L 360.470823 45.055033 
L 360.470823 43.98631 
L 361.671226 43.98631 
L 361.671226 43.345076 
L 364.672235 43.345076 
L 364.672235 43.131332 
L 365.272436 43.131332 
L 365.272436 42.917587 
L 366.47284 42.917587 
L 366.47284 42.490098 
L 367.073041 42.490098 
L 367.073041 42.062609 
L 367.673243 42.062609 
L 367.673243 41.421375 
L 368.273445 41.421375 
L 368.273445 40.780141 
L 368.873647 40.780141 
L 368.873647 40.566397 
L 369.473848 40.566397 
L 369.473848 39.497674 
L 370.674252 39.497674 
L 370.674252 38.428951 
L 371.874655 38.428951 
L 371.874655 38.001462 
L 373.67526 38.001462 
L 373.67526 37.787717 
L 374.275462 37.787717 
L 374.275462 37.573973 
L 374.875663 37.573973 
L 374.875663 37.146484 
L 376.076067 37.146484 
L 376.076067 36.932739 
L 376.676268 36.932739 
L 376.676268 36.718995 
L 377.876672 36.718995 
L 377.876672 36.077761 
L 378.476873 36.077761 
L 378.476873 35.864016 
L 380.277478 35.864016 
L 380.277478 35.650272 
L 380.87768 35.650272 
L 380.87768 35.436527 
L 381.477882 35.436527 
L 381.477882 35.222782 
L 382.678285 35.222782 
L 382.678285 35.009038 
L 383.278487 35.009038 
L 383.278487 34.367804 
L 384.47889 34.367804 
L 384.47889 33.512826 
L 386.279495 33.512826 
L 386.279495 33.085337 
L 386.879697 33.085337 
L 386.879697 32.444103 
L 389.880705 32.444103 
L 389.880705 32.016614 
L 390.480907 32.016614 
L 390.480907 31.589125 
L 391.081109 31.589125 
L 391.081109 30.734146 
L 394.682319 30.734146 
L 394.682319 30.520402 
L 396.482924 30.520402 
L 396.482924 29.879168 
L 399.483932 29.879168 
L 399.483932 29.237934 
L 400.084134 29.237934 
L 400.084134 29.02419 
L 401.284537 29.02419 
L 401.284537 28.810445 
L 401.884739 28.810445 
L 401.884739 28.596701 
L 403.085142 28.596701 
L 403.085142 28.382956 
L 404.885747 28.382956 
L 404.885747 28.169211 
L 408.486957 28.169211 
L 408.486957 27.955467 
L 409.087159 27.955467 
L 409.087159 27.741722 
L 410.287562 27.741722 
L 410.287562 27.527978 
L 413.888773 27.527978 
L 413.888773 27.100488 
L 414.488974 27.100488 
L 414.488974 26.886744 
L 415.089176 26.886744 
L 415.089176 26.672999 
L 416.889781 26.672999 
L 416.889781 25.604276 
L 417.489983 25.604276 
L 417.489983 25.390532 
L 418.090184 25.390532 
L 418.090184 25.176787 
L 428.893815 25.176787 
L 428.893815 24.749298 
L 430.094218 24.749298 
L 430.094218 24.535554 
L 432.495025 24.535554 
L 432.495025 24.108064 
L 436.096235 24.108064 
L 436.096235 23.89432 
L 436.696436 23.89432 
L 436.696436 23.680575 
L 438.497041 23.680575 
L 438.497041 23.466831 
L 440.897848 23.466831 
L 440.897848 23.253086 
L 442.098252 23.253086 
L 442.098252 23.039341 
L 443.298655 23.039341 
L 443.298655 22.825597 
L 445.699462 22.825597 
L 445.699462 22.398108 
L 449.900873 22.398108 
L 449.900873 22.184363 
L 450.501075 22.184363 
L 450.501075 21.970619 
L 451.101277 21.970619 
L 451.101277 21.756874 
L 452.901882 21.756874 
L 452.901882 21.543129 
L 455.90289 21.543129 
L 455.90289 21.329385 
L 456.503092 21.329385 
L 456.503092 21.11564 
L 457.103294 21.11564 
L 457.103294 20.474407 
L 458.303697 20.474407 
L 458.303697 20.046917 
L 459.5041 20.046917 
L 459.5041 19.619428 
L 461.304705 19.619428 
L 461.304705 19.191939 
L 462.505109 19.191939 
L 462.505109 18.978195 
L 464.305714 18.978195 
L 464.305714 18.550705 
L 465.506117 18.550705 
L 465.506117 18.123216 
L 466.70652 18.123216 
L 466.70652 17.909472 
L 469.707529 17.909472 
L 469.707529 17.695727 
L 471.508134 17.695727 
L 471.508134 17.481982 
L 473.908941 17.481982 
L 473.908941 17.268238 
L 474.509142 17.268238 
L 474.509142 17.054493 
L 475.109344 17.054493 
L 475.109344 16.840749 
L 476.909949 16.840749 
L 476.909949 16.41326 
L 478.110352 16.41326 
L 478.110352 16.199515 
L 481.111361 16.199515 
L 481.111361 15.98577 
L 481.711563 15.98577 
L 481.711563 15.558281 
L 481.711563 15.558281 
" clip-path="url(#pcaa71390ea)" style="fill: none; stroke: #ff0000; stroke-width: 1.5; stroke-linecap: square"/>
   </g>
   <g id="line2d_14">
    <defs>
     <path id="m86c63b91a6" d="M 0 3 
C 0.795609 3 1.55874 2.683901 2.12132 2.12132 
C 2.683901 1.55874 3 0.795609 3 0 
C 3 -0.795609 2.683901 -1.55874 2.12132 -2.12132 
C 1.55874 -2.683901 0.795609 -3 0 -3 
C -0.795609 -3 -1.55874 -2.683901 -2.12132 -2.12132 
C -2.683901 -1.55874 -3 -0.795609 -3 0 
C -3 0.795609 -2.683901 1.55874 -2.12132 2.12132 
C -1.55874 2.683901 -0.795609 3 0 3 
z
" style="stroke: #000000"/>
    </defs>
    <g clip-path="url(#pcaa71390ea)">
     <use xlink:href="#m86c63b91a6" x="178.009512" y="120.506869" style="fill: #ff0000; stroke: #000000"/>
    </g>
   </g>
   <g id="line2d_15">
    <path d="M 124.591562 281.670281 
L 481.711563 15.558281 
" clip-path="url(#pcaa71390ea)" style="fill: none; stroke: #00bfbf; stroke-width: 1.5; stroke-linecap: square"/>
   </g>
   <g id="patch_4">
    <path d="M 124.591562 281.670281 
L 124.591562 15.558281 
" style="fill: none; stroke: #000000; stroke-width: 0.8; stroke-linejoin: miter; stroke-linecap: square"/>
   </g>
   <g id="patch_5">
    <path d="M 481.711563 281.670281 
L 481.711563 15.558281 
" style="fill: none; stroke: #000000; stroke-width: 0.8; stroke-linejoin: miter; stroke-linecap: square"/>
   </g>
   <g id="patch_6">
    <path d="M 124.591562 281.670281 
L 481.711563 281.670281 
" style="fill: none; stroke: #000000; stroke-width: 0.8; stroke-linejoin: miter; stroke-linecap: square"/>
   </g>
   <g id="patch_7">
    <path d="M 124.591562 15.558281 
L 481.711563 15.558281 
" style="fill: none; stroke: #000000; stroke-width: 0.8; stroke-linejoin: miter; stroke-linecap: square"/>
   </g>
   <g id="legend_1">
    <g id="patch_8">
     <path d="M 11.6 384.784556 
L 594.703125 384.784556 
Q 599.103125 384.784556 599.103125 380.384556 
L 599.103125 350.292681 
Q 599.103125 345.892681 594.703125 345.892681 
L 11.6 345.892681 
Q 7.2 345.892681 7.2 350.292681 
L 7.2 380.384556 
Q 7.2 384.784556 11.6 384.784556 
z
" style="fill: #ffffff; opacity: 0.8; stroke: #cccccc; stroke-linejoin: miter"/>
    </g>
    <g id="line2d_16">
     <path d="M 16 363.709244 
L 38 363.709244 
L 60 363.709244 
" style="fill: none; stroke: #ff0000; stroke-width: 1.5; stroke-linecap: square"/>
    </g>
    <g id="text_15">
     <!-- model performance -->
     <g transform="translate(77.6 371.409244) scale(0.22 -0.22)">
      <defs>
       <path id="DejaVuSans-6d" d="M 3328 2828 
Q 3544 3216 3844 3400 
Q 4144 3584 4550 3584 
Q 5097 3584 5394 3201 
Q 5691 2819 5691 2113 
L 5691 0 
L 5113 0 
L 5113 2094 
Q 5113 2597 4934 2840 
Q 4756 3084 4391 3084 
Q 3944 3084 3684 2787 
Q 3425 2491 3425 1978 
L 3425 0 
L 2847 0 
L 2847 2094 
Q 2847 2600 2669 2842 
Q 2491 3084 2119 3084 
Q 1678 3084 1418 2786 
Q 1159 2488 1159 1978 
L 1159 0 
L 581 0 
L 581 3500 
L 1159 3500 
L 1159 2956 
Q 1356 3278 1631 3431 
Q 1906 3584 2284 3584 
Q 2666 3584 2933 3390 
Q 3200 3197 3328 2828 
z
" transform="scale(0.015625)"/>
       <path id="DejaVuSans-6f" d="M 1959 3097 
Q 1497 3097 1228 2736 
Q 959 2375 959 1747 
Q 959 1119 1226 758 
Q 1494 397 1959 397 
Q 2419 397 2687 759 
Q 2956 1122 2956 1747 
Q 2956 2369 2687 2733 
Q 2419 3097 1959 3097 
z
M 1959 3584 
Q 2709 3584 3137 3096 
Q 3566 2609 3566 1747 
Q 3566 888 3137 398 
Q 2709 -91 1959 -91 
Q 1206 -91 779 398 
Q 353 888 353 1747 
Q 353 2609 779 3096 
Q 1206 3584 1959 3584 
z
" transform="scale(0.015625)"/>
       <path id="DejaVuSans-64" d="M 2906 2969 
L 2906 4863 
L 3481 4863 
L 3481 0 
L 2906 0 
L 2906 525 
Q 2725 213 2448 61 
Q 2172 -91 1784 -91 
Q 1150 -91 751 415 
Q 353 922 353 1747 
Q 353 2572 751 3078 
Q 1150 3584 1784 3584 
Q 2172 3584 2448 3432 
Q 2725 3281 2906 2969 
z
M 947 1747 
Q 947 1113 1208 752 
Q 1469 391 1925 391 
Q 2381 391 2643 752 
Q 2906 1113 2906 1747 
Q 2906 2381 2643 2742 
Q 2381 3103 1925 3103 
Q 1469 3103 1208 2742 
Q 947 2381 947 1747 
z
" transform="scale(0.015625)"/>
       <path id="DejaVuSans-65" d="M 3597 1894 
L 3597 1613 
L 953 1613 
Q 991 1019 1311 708 
Q 1631 397 2203 397 
Q 2534 397 2845 478 
Q 3156 559 3463 722 
L 3463 178 
Q 3153 47 2828 -22 
Q 2503 -91 2169 -91 
Q 1331 -91 842 396 
Q 353 884 353 1716 
Q 353 2575 817 3079 
Q 1281 3584 2069 3584 
Q 2775 3584 3186 3129 
Q 3597 2675 3597 1894 
z
M 3022 2063 
Q 3016 2534 2758 2815 
Q 2500 3097 2075 3097 
Q 1594 3097 1305 2825 
Q 1016 2553 972 2059 
L 3022 2063 
z
" transform="scale(0.015625)"/>
       <path id="DejaVuSans-6c" d="M 603 4863 
L 1178 4863 
L 1178 0 
L 603 0 
L 603 4863 
z
" transform="scale(0.015625)"/>
       <path id="DejaVuSans-20" transform="scale(0.015625)"/>
       <path id="DejaVuSans-70" d="M 1159 525 
L 1159 -1331 
L 581 -1331 
L 581 3500 
L 1159 3500 
L 1159 2969 
Q 1341 3281 1617 3432 
Q 1894 3584 2278 3584 
Q 2916 3584 3314 3078 
Q 3713 2572 3713 1747 
Q 3713 922 3314 415 
Q 2916 -91 2278 -91 
Q 1894 -91 1617 61 
Q 1341 213 1159 525 
z
M 3116 1747 
Q 3116 2381 2855 2742 
Q 2594 3103 2138 3103 
Q 1681 3103 1420 2742 
Q 1159 2381 1159 1747 
Q 1159 1113 1420 752 
Q 1681 391 2138 391 
Q 2594 391 2855 752 
Q 3116 1113 3116 1747 
z
" transform="scale(0.015625)"/>
       <path id="DejaVuSans-72" d="M 2631 2963 
Q 2534 3019 2420 3045 
Q 2306 3072 2169 3072 
Q 1681 3072 1420 2755 
Q 1159 2438 1159 1844 
L 1159 0 
L 581 0 
L 581 3500 
L 1159 3500 
L 1159 2956 
Q 1341 3275 1631 3429 
Q 1922 3584 2338 3584 
Q 2397 3584 2469 3576 
Q 2541 3569 2628 3553 
L 2631 2963 
z
" transform="scale(0.015625)"/>
       <path id="DejaVuSans-66" d="M 2375 4863 
L 2375 4384 
L 1825 4384 
Q 1516 4384 1395 4259 
Q 1275 4134 1275 3809 
L 1275 3500 
L 2222 3500 
L 2222 3053 
L 1275 3053 
L 1275 0 
L 697 0 
L 697 3053 
L 147 3053 
L 147 3500 
L 697 3500 
L 697 3744 
Q 697 4328 969 4595 
Q 1241 4863 1831 4863 
L 2375 4863 
z
" transform="scale(0.015625)"/>
       <path id="DejaVuSans-61" d="M 2194 1759 
Q 1497 1759 1228 1600 
Q 959 1441 959 1056 
Q 959 750 1161 570 
Q 1363 391 1709 391 
Q 2188 391 2477 730 
Q 2766 1069 2766 1631 
L 2766 1759 
L 2194 1759 
z
M 3341 1997 
L 3341 0 
L 2766 0 
L 2766 531 
Q 2569 213 2275 61 
Q 1981 -91 1556 -91 
Q 1019 -91 701 211 
Q 384 513 384 1019 
Q 384 1609 779 1909 
Q 1175 2209 1959 2209 
L 2766 2209 
L 2766 2266 
Q 2766 2663 2505 2880 
Q 2244 3097 1772 3097 
Q 1472 3097 1187 3025 
Q 903 2953 641 2809 
L 641 3341 
Q 956 3463 1253 3523 
Q 1550 3584 1831 3584 
Q 2591 3584 2966 3190 
Q 3341 2797 3341 1997 
z
" transform="scale(0.015625)"/>
       <path id="DejaVuSans-6e" d="M 3513 2113 
L 3513 0 
L 2938 0 
L 2938 2094 
Q 2938 2591 2744 2837 
Q 2550 3084 2163 3084 
Q 1697 3084 1428 2787 
Q 1159 2491 1159 1978 
L 1159 0 
L 581 0 
L 581 3500 
L 1159 3500 
L 1159 2956 
Q 1366 3272 1645 3428 
Q 1925 3584 2291 3584 
Q 2894 3584 3203 3211 
Q 3513 2838 3513 2113 
z
" transform="scale(0.015625)"/>
       <path id="DejaVuSans-63" d="M 3122 3366 
L 3122 2828 
Q 2878 2963 2633 3030 
Q 2388 3097 2138 3097 
Q 1578 3097 1268 2742 
Q 959 2388 959 1747 
Q 959 1106 1268 751 
Q 1578 397 2138 397 
Q 2388 397 2633 464 
Q 2878 531 3122 666 
L 3122 134 
Q 2881 22 2623 -34 
Q 2366 -91 2075 -91 
Q 1284 -91 818 406 
Q 353 903 353 1747 
Q 353 2603 823 3093 
Q 1294 3584 2113 3584 
Q 2378 3584 2631 3529 
Q 2884 3475 3122 3366 
z
" transform="scale(0.015625)"/>
      </defs>
      <use xlink:href="#DejaVuSans-6d"/>
      <use xlink:href="#DejaVuSans-6f" x="97.412109"/>
      <use xlink:href="#DejaVuSans-64" x="158.59375"/>
      <use xlink:href="#DejaVuSans-65" x="222.070312"/>
      <use xlink:href="#DejaVuSans-6c" x="283.59375"/>
      <use xlink:href="#DejaVuSans-20" x="311.376953"/>
      <use xlink:href="#DejaVuSans-70" x="343.164062"/>
      <use xlink:href="#DejaVuSans-65" x="406.640625"/>
      <use xlink:href="#DejaVuSans-72" x="468.164062"/>
      <use xlink:href="#DejaVuSans-66" x="509.277344"/>
      <use xlink:href="#DejaVuSans-6f" x="544.482422"/>
      <use xlink:href="#DejaVuSans-72" x="605.664062"/>
      <use xlink:href="#DejaVuSans-6d" x="645.027344"/>
      <use xlink:href="#DejaVuSans-61" x="742.439453"/>
      <use xlink:href="#DejaVuSans-6e" x="803.71875"/>
      <use xlink:href="#DejaVuSans-63" x="867.097656"/>
      <use xlink:href="#DejaVuSans-65" x="922.078125"/>
     </g>
    </g>
    <g id="line2d_17">
     <path d="M 337.9975 363.709244 
L 359.9975 363.709244 
L 381.9975 363.709244 
" style="fill: none; stroke: #00bfbf; stroke-width: 1.5; stroke-linecap: square"/>
    </g>
    <g id="text_16">
     <!-- random guessing -->
     <g transform="translate(399.5975 371.409244) scale(0.22 -0.22)">
      <defs>
       <path id="DejaVuSans-67" d="M 2906 1791 
Q 2906 2416 2648 2759 
Q 2391 3103 1925 3103 
Q 1463 3103 1205 2759 
Q 947 2416 947 1791 
Q 947 1169 1205 825 
Q 1463 481 1925 481 
Q 2391 481 2648 825 
Q 2906 1169 2906 1791 
z
M 3481 434 
Q 3481 -459 3084 -895 
Q 2688 -1331 1869 -1331 
Q 1566 -1331 1297 -1286 
Q 1028 -1241 775 -1147 
L 775 -588 
Q 1028 -725 1275 -790 
Q 1522 -856 1778 -856 
Q 2344 -856 2625 -561 
Q 2906 -266 2906 331 
L 2906 616 
Q 2728 306 2450 153 
Q 2172 0 1784 0 
Q 1141 0 747 490 
Q 353 981 353 1791 
Q 353 2603 747 3093 
Q 1141 3584 1784 3584 
Q 2172 3584 2450 3431 
Q 2728 3278 2906 2969 
L 2906 3500 
L 3481 3500 
L 3481 434 
z
" transform="scale(0.015625)"/>
       <path id="DejaVuSans-75" d="M 544 1381 
L 544 3500 
L 1119 3500 
L 1119 1403 
Q 1119 906 1312 657 
Q 1506 409 1894 409 
Q 2359 409 2629 706 
Q 2900 1003 2900 1516 
L 2900 3500 
L 3475 3500 
L 3475 0 
L 2900 0 
L 2900 538 
Q 2691 219 2414 64 
Q 2138 -91 1772 -91 
Q 1169 -91 856 284 
Q 544 659 544 1381 
z
M 1991 3584 
L 1991 3584 
z
" transform="scale(0.015625)"/>
       <path id="DejaVuSans-73" d="M 2834 3397 
L 2834 2853 
Q 2591 2978 2328 3040 
Q 2066 3103 1784 3103 
Q 1356 3103 1142 2972 
Q 928 2841 928 2578 
Q 928 2378 1081 2264 
Q 1234 2150 1697 2047 
L 1894 2003 
Q 2506 1872 2764 1633 
Q 3022 1394 3022 966 
Q 3022 478 2636 193 
Q 2250 -91 1575 -91 
Q 1294 -91 989 -36 
Q 684 19 347 128 
L 347 722 
Q 666 556 975 473 
Q 1284 391 1588 391 
Q 1994 391 2212 530 
Q 2431 669 2431 922 
Q 2431 1156 2273 1281 
Q 2116 1406 1581 1522 
L 1381 1569 
Q 847 1681 609 1914 
Q 372 2147 372 2553 
Q 372 3047 722 3315 
Q 1072 3584 1716 3584 
Q 2034 3584 2315 3537 
Q 2597 3491 2834 3397 
z
" transform="scale(0.015625)"/>
       <path id="DejaVuSans-69" d="M 603 3500 
L 1178 3500 
L 1178 0 
L 603 0 
L 603 3500 
z
M 603 4863 
L 1178 4863 
L 1178 4134 
L 603 4134 
L 603 4863 
z
" transform="scale(0.015625)"/>
      </defs>
      <use xlink:href="#DejaVuSans-72"/>
      <use xlink:href="#DejaVuSans-61" x="41.113281"/>
      <use xlink:href="#DejaVuSans-6e" x="102.392578"/>
      <use xlink:href="#DejaVuSans-64" x="165.771484"/>
      <use xlink:href="#DejaVuSans-6f" x="229.248047"/>
      <use xlink:href="#DejaVuSans-6d" x="290.429688"/>
      <use xlink:href="#DejaVuSans-20" x="387.841797"/>
      <use xlink:href="#DejaVuSans-67" x="419.628906"/>
      <use xlink:href="#DejaVuSans-75" x="483.105469"/>
      <use xlink:href="#DejaVuSans-65" x="546.484375"/>
      <use xlink:href="#DejaVuSans-73" x="608.007812"/>
      <use xlink:href="#DejaVuSans-73" x="660.107422"/>
      <use xlink:href="#DejaVuSans-69" x="712.207031"/>
      <use xlink:href="#DejaVuSans-6e" x="739.990234"/>
      <use xlink:href="#DejaVuSans-67" x="803.369141"/>
     </g>
    </g>
   </g>
  </g>
 </g>
 <defs>
  <clipPath id="pcaa71390ea">
   <rect x="124.591562" y="15.558281" width="357.12" height="266.112"/>
  </clipPath>
 </defs>
</svg>
