<?xml version="1.0" encoding="utf-8" standalone="no"?>
<!DOCTYPE svg PUBLIC "-//W3C//DTD SVG 1.1//EN"
  "http://www.w3.org/Graphics/SVG/1.1/DTD/svg11.dtd">
<svg xmlns:xlink="http://www.w3.org/1999/xlink" width="238.114192pt" height="476.126585pt" viewBox="0 0 238.114192 476.126585" xmlns="http://www.w3.org/2000/svg" version="1.1">
 <metadata>
  <rdf:RDF xmlns:dc="http://purl.org/dc/elements/1.1/" xmlns:cc="http://creativecommons.org/ns#" xmlns:rdf="http://www.w3.org/1999/02/22-rdf-syntax-ns#">
   <cc:Work>
    <dc:type rdf:resource="http://purl.org/dc/dcmitype/StillImage"/>
    <dc:date>2024-09-25T17:35:14.379144</dc:date>
    <dc:format>image/svg+xml</dc:format>
    <dc:creator>
     <cc:Agent>
      <dc:title>Matplotlib v3.7.0, https://matplotlib.org/</dc:title>
     </cc:Agent>
    </dc:creator>
   </cc:Work>
  </rdf:RDF>
 </metadata>
 <defs>
  <style type="text/css">*{stroke-linejoin: round; stroke-linecap: butt}</style>
 </defs>
 <g id="figure_1">
  <g id="patch_1">
   <path d="M 0 476.126585 
L 238.114192 476.126585 
L 238.114192 0 
L 0 0 
z
" style="fill: #ffffff"/>
  </g>
  <g id="axes_1">
   <g id="patch_2">
    <path d="M 29.722656 425.939494 
L 227.439192 425.939494 
L 227.439192 22.144219 
L 29.722656 22.144219 
z
" style="fill: #ffffff"/>
   </g>
   <g id="patch_3">
    <path d="M 29.722656 22.144219 
L 35.085767 28.707859 
L 33.660322 31.205932 
L 72.99625 124.826478 
L 72.846204 125.089433 
L 33.510275 31.468887 
L 32.08483 33.966959 
z
" clip-path="url(#p49e998c616)" style="fill: #1f77b4; stroke: #000000; stroke-linejoin: miter"/>
   </g>
   <g id="matplotlib.axis_1">
    <g id="xtick_1">
     <g id="line2d_1">
      <defs>
       <path id="mb31fe94b83" d="M 0 0 
L 0 3.5 
" style="stroke: #000000; stroke-width: 0.8"/>
      </defs>
      <g>
       <use xlink:href="#mb31fe94b83" x="29.722656" y="425.939494" style="stroke: #000000; stroke-width: 0.8"/>
      </g>
     </g>
     <g id="text_1">
      <text style="font: 5px 'Arial'; text-anchor: middle" x="29.722656" y="436.518401" transform="rotate(-0 29.722656 436.518401)">0.0</text>
     </g>
    </g>
    <g id="xtick_2">
     <g id="line2d_2">
      <g>
       <use xlink:href="#mb31fe94b83" x="69.265963" y="425.939494" style="stroke: #000000; stroke-width: 0.8"/>
      </g>
     </g>
     <g id="text_2">
      <text style="font: 5px 'Arial'; text-anchor: middle" x="69.265963" y="436.518401" transform="rotate(-0 69.265963 436.518401)">0.2</text>
     </g>
    </g>
    <g id="xtick_3">
     <g id="line2d_3">
      <g>
       <use xlink:href="#mb31fe94b83" x="108.80927" y="425.939494" style="stroke: #000000; stroke-width: 0.8"/>
      </g>
     </g>
     <g id="text_3">
      <text style="font: 5px 'Arial'; text-anchor: middle" x="108.80927" y="436.518401" transform="rotate(-0 108.80927 436.518401)">0.4</text>
     </g>
    </g>
    <g id="xtick_4">
     <g id="line2d_4">
      <g>
       <use xlink:href="#mb31fe94b83" x="148.352578" y="425.939494" style="stroke: #000000; stroke-width: 0.8"/>
      </g>
     </g>
     <g id="text_4">
      <text style="font: 5px 'Arial'; text-anchor: middle" x="148.352578" y="436.518401" transform="rotate(-0 148.352578 436.518401)">0.6</text>
     </g>
    </g>
    <g id="xtick_5">
     <g id="line2d_5">
      <g>
       <use xlink:href="#mb31fe94b83" x="187.895885" y="425.939494" style="stroke: #000000; stroke-width: 0.8"/>
      </g>
     </g>
     <g id="text_5">
      <text style="font: 5px 'Arial'; text-anchor: middle" x="187.895885" y="436.518401" transform="rotate(-0 187.895885 436.518401)">0.8</text>
     </g>
    </g>
    <g id="xtick_6">
     <g id="line2d_6">
      <g>
       <use xlink:href="#mb31fe94b83" x="227.439192" y="425.939494" style="stroke: #000000; stroke-width: 0.8"/>
      </g>
     </g>
     <g id="text_6">
      <text style="font: 5px 'Arial'; text-anchor: middle" x="227.439192" y="436.518401" transform="rotate(-0 227.439192 436.518401)">1.0</text>
     </g>
    </g>
    <g id="text_7">
     <text style="font: 5px 'Arial'; text-anchor: middle" x="128.580924" y="445.091057" transform="rotate(-0 128.580924 445.091057)">FPR</text>
    </g>
   </g>
   <g id="matplotlib.axis_2">
    <g id="ytick_1">
     <g id="line2d_7">
      <defs>
       <path id="m7b2ec43b02" d="M 0 0 
L -3.5 0 
" style="stroke: #000000; stroke-width: 0.8"/>
      </defs>
      <g>
       <use xlink:href="#m7b2ec43b02" x="29.722656" y="425.939494" style="stroke: #000000; stroke-width: 0.8"/>
      </g>
     </g>
     <g id="text_8">
      <text style="font: 5px 'Arial'; text-anchor: end" x="22.722656" y="427.728947" transform="rotate(-0 22.722656 427.728947)">0.0</text>
     </g>
    </g>
    <g id="ytick_2">
     <g id="line2d_8">
      <g>
       <use xlink:href="#m7b2ec43b02" x="29.722656" y="345.180439" style="stroke: #000000; stroke-width: 0.8"/>
      </g>
     </g>
     <g id="text_9">
      <text style="font: 5px 'Arial'; text-anchor: end" x="22.722656" y="346.969892" transform="rotate(-0 22.722656 346.969892)">0.2</text>
     </g>
    </g>
    <g id="ytick_3">
     <g id="line2d_9">
      <g>
       <use xlink:href="#m7b2ec43b02" x="29.722656" y="264.421384" style="stroke: #000000; stroke-width: 0.8"/>
      </g>
     </g>
     <g id="text_10">
      <text style="font: 5px 'Arial'; text-anchor: end" x="22.722656" y="266.210837" transform="rotate(-0 22.722656 266.210837)">0.4</text>
     </g>
    </g>
    <g id="ytick_4">
     <g id="line2d_10">
      <g>
       <use xlink:href="#m7b2ec43b02" x="29.722656" y="183.662329" style="stroke: #000000; stroke-width: 0.8"/>
      </g>
     </g>
     <g id="text_11">
      <text style="font: 5px 'Arial'; text-anchor: end" x="22.722656" y="185.451782" transform="rotate(-0 22.722656 185.451782)">0.6</text>
     </g>
    </g>
    <g id="ytick_5">
     <g id="line2d_11">
      <g>
       <use xlink:href="#m7b2ec43b02" x="29.722656" y="102.903274" style="stroke: #000000; stroke-width: 0.8"/>
      </g>
     </g>
     <g id="text_12">
      <text style="font: 5px 'Arial'; text-anchor: end" x="22.722656" y="104.692727" transform="rotate(-0 22.722656 104.692727)">0.8</text>
     </g>
    </g>
    <g id="ytick_6">
     <g id="line2d_12">
      <g>
       <use xlink:href="#m7b2ec43b02" x="29.722656" y="22.144219" style="stroke: #000000; stroke-width: 0.8"/>
      </g>
     </g>
     <g id="text_13">
      <text style="font: 5px 'Arial'; text-anchor: end" x="22.722656" y="23.933672" transform="rotate(-0 22.722656 23.933672)">1.0</text>
     </g>
    </g>
    <g id="text_14">
     <text style="font: 5px 'Arial'; text-anchor: middle" x="10.778906" y="224.041857" transform="rotate(-90 10.778906 224.041857)">TPR</text>
    </g>
   </g>
   <g id="line2d_13">
    <path d="M 29.722656 425.939494 
L 29.722656 421.074491 
L 30.054953 421.074491 
L 30.054953 415.236487 
L 30.38725 415.236487 
L 30.38725 401.938811 
L 30.719546 401.938811 
L 30.719546 398.695476 
L 31.051843 398.695476 
L 31.051843 391.560138 
L 31.38414 391.560138 
L 31.38414 374.370459 
L 31.716436 374.370459 
L 31.716436 367.235121 
L 32.048733 367.235121 
L 32.048733 356.20778 
L 32.38103 356.20778 
L 32.38103 352.964445 
L 32.713327 352.964445 
L 32.713327 345.180439 
L 33.045623 345.180439 
L 33.045623 344.856106 
L 33.37792 344.856106 
L 33.37792 326.369093 
L 33.710217 326.369093 
L 33.710217 315.341752 
L 34.042513 315.341752 
L 34.042513 311.774083 
L 34.37481 311.774083 
L 34.37481 299.125074 
L 34.707107 299.125074 
L 34.707107 297.503407 
L 35.039403 297.503407 
L 35.039403 287.449066 
L 35.3717 287.449066 
L 35.3717 284.854398 
L 35.703997 284.854398 
L 35.703997 281.611063 
L 36.036294 281.611063 
L 36.036294 276.097392 
L 36.36859 276.097392 
L 36.36859 273.17839 
L 36.700887 273.17839 
L 36.700887 266.367385 
L 37.033184 266.367385 
L 37.033184 265.718718 
L 37.36548 265.718718 
L 37.36548 261.826716 
L 37.697777 261.826716 
L 37.697777 256.313045 
L 38.030074 256.313045 
L 38.030074 251.772375 
L 38.36237 251.772375 
L 38.36237 240.096368 
L 38.694667 240.096368 
L 38.694667 237.826033 
L 39.026964 237.826033 
L 39.026964 237.501699 
L 39.691557 237.501699 
L 39.691557 234.582697 
L 40.023854 234.582697 
L 40.023854 233.93403 
L 40.356151 233.93403 
L 40.356151 231.663695 
L 40.688447 231.663695 
L 40.688447 231.015028 
L 41.020744 231.015028 
L 41.020744 229.39336 
L 41.353041 229.39336 
L 41.353041 226.474358 
L 41.685337 226.474358 
L 41.685337 222.582356 
L 42.017634 222.582356 
L 42.017634 213.501016 
L 42.349931 213.501016 
L 42.349931 208.960346 
L 42.682227 208.960346 
L 42.682227 205.717011 
L 43.014524 205.717011 
L 43.014524 204.419676 
L 43.346821 204.419676 
L 43.346821 202.473675 
L 44.011414 202.473675 
L 44.011414 198.581673 
L 44.343711 198.581673 
L 44.343711 194.68967 
L 45.008304 194.68967 
L 45.008304 193.716669 
L 46.005194 193.716669 
L 46.005194 192.743669 
L 46.337491 192.743669 
L 46.337491 192.419335 
L 47.002085 192.419335 
L 47.002085 191.122001 
L 47.334381 191.122001 
L 47.334381 188.851666 
L 47.666678 188.851666 
L 47.666678 188.202999 
L 47.998975 188.202999 
L 47.998975 187.229998 
L 48.331271 187.229998 
L 48.331271 186.905665 
L 48.663568 186.905665 
L 48.663568 186.581331 
L 48.995865 186.581331 
L 48.995865 183.662329 
L 49.328161 183.662329 
L 49.328161 181.391994 
L 49.660458 181.391994 
L 49.660458 179.770326 
L 49.992755 179.770326 
L 49.992755 175.878324 
L 50.325052 175.878324 
L 50.325052 175.229657 
L 50.657348 175.229657 
L 50.657348 174.905323 
L 50.989645 174.905323 
L 50.989645 173.932322 
L 51.321942 173.932322 
L 51.321942 173.283655 
L 51.986535 173.283655 
L 51.986535 171.01332 
L 52.318832 171.01332 
L 52.318832 169.715986 
L 52.651128 169.715986 
L 52.651128 169.391653 
L 53.980315 169.391653 
L 53.980315 169.067319 
L 54.644909 169.067319 
L 54.644909 168.418652 
L 54.977205 168.418652 
L 54.977205 166.148317 
L 55.641799 166.148317 
L 55.641799 165.175316 
L 55.974095 165.175316 
L 55.974095 163.877982 
L 56.306392 163.877982 
L 56.306392 162.580648 
L 56.638689 162.580648 
L 56.638689 162.256314 
L 57.303282 162.256314 
L 57.303282 161.931981 
L 57.635579 161.931981 
L 57.635579 161.607647 
L 57.967876 161.607647 
L 57.967876 159.012979 
L 58.300172 159.012979 
L 58.300172 158.688645 
L 58.632469 158.688645 
L 58.632469 158.039978 
L 59.297062 158.039978 
L 59.297062 157.066978 
L 59.629359 157.066978 
L 59.629359 156.093977 
L 60.293952 156.093977 
L 60.293952 155.120976 
L 60.626249 155.120976 
L 60.626249 154.147976 
L 60.958546 154.147976 
L 60.958546 153.823642 
L 61.290843 153.823642 
L 61.290843 150.90464 
L 61.955436 150.90464 
L 61.955436 150.580306 
L 62.287733 150.580306 
L 62.287733 148.309972 
L 62.620029 148.309972 
L 62.620029 147.336971 
L 62.952326 147.336971 
L 62.952326 147.012637 
L 63.284623 147.012637 
L 63.284623 146.039637 
L 63.616919 146.039637 
L 63.616919 144.093635 
L 65.278403 144.093635 
L 65.278403 143.769302 
L 65.6107 143.769302 
L 65.6107 143.444968 
L 65.942996 143.444968 
L 65.942996 142.147634 
L 66.60759 142.147634 
L 66.60759 141.8233 
L 66.939886 141.8233 
L 66.939886 140.525966 
L 67.60448 140.525966 
L 67.60448 138.904298 
L 67.936777 138.904298 
L 67.936777 138.255631 
L 68.269073 138.255631 
L 68.269073 136.958297 
L 68.60137 136.958297 
L 68.60137 136.30963 
L 68.933667 136.30963 
L 68.933667 135.985296 
L 69.265963 135.985296 
L 69.265963 134.363629 
L 69.59826 134.363629 
L 69.59826 133.714962 
L 70.262853 133.714962 
L 70.262853 132.093294 
L 70.59515 132.093294 
L 70.59515 131.444627 
L 71.259744 131.444627 
L 71.259744 131.120293 
L 71.59204 131.120293 
L 71.59204 130.471626 
L 71.924337 130.471626 
L 71.924337 128.849958 
L 72.256634 128.849958 
L 72.256634 127.22829 
L 72.58893 127.22829 
L 72.58893 125.930956 
L 72.921227 125.930956 
L 72.921227 124.957956 
L 73.918117 124.957956 
L 73.918117 124.309288 
L 75.247304 124.309288 
L 75.247304 123.336288 
L 75.579601 123.336288 
L 75.579601 122.687621 
L 75.911897 122.687621 
L 75.911897 121.390286 
L 76.576491 121.390286 
L 76.576491 119.119952 
L 76.908787 119.119952 
L 76.908787 118.471284 
L 78.237974 118.471284 
L 78.237974 118.146951 
L 78.570271 118.146951 
L 78.570271 117.822617 
L 79.234864 117.822617 
L 79.234864 117.498284 
L 81.228644 117.498284 
L 81.228644 117.17395 
L 81.560941 117.17395 
L 81.560941 116.525283 
L 82.225535 116.525283 
L 82.225535 114.903615 
L 82.557831 114.903615 
L 82.557831 114.254948 
L 82.890128 114.254948 
L 82.890128 113.930615 
L 83.222425 113.930615 
L 83.222425 111.66028 
L 83.554721 111.66028 
L 83.554721 109.389945 
L 84.219315 109.389945 
L 84.219315 108.092611 
L 84.551611 108.092611 
L 84.551611 107.443944 
L 85.216205 107.443944 
L 85.216205 106.795277 
L 85.548502 106.795277 
L 85.548502 106.470943 
L 87.209985 106.470943 
L 87.209985 105.822276 
L 87.542282 105.822276 
L 87.542282 105.173609 
L 87.874578 105.173609 
L 87.874578 104.200608 
L 88.206875 104.200608 
L 88.206875 103.876275 
L 88.539172 103.876275 
L 88.539172 102.903274 
L 89.536062 102.903274 
L 89.536062 101.60594 
L 90.200655 101.60594 
L 90.200655 100.957273 
L 90.532952 100.957273 
L 90.532952 100.308605 
L 90.865249 100.308605 
L 90.865249 99.984272 
L 91.529842 99.984272 
L 91.529842 99.335605 
L 92.526732 99.335605 
L 92.526732 98.038271 
L 93.855919 98.038271 
L 93.855919 97.713937 
L 94.188216 97.713937 
L 94.188216 96.740936 
L 95.185106 96.740936 
L 95.185106 95.443602 
L 96.514293 95.443602 
L 96.514293 94.470601 
L 96.846589 94.470601 
L 96.846589 94.146268 
L 97.178886 94.146268 
L 97.178886 93.821934 
L 97.511183 93.821934 
L 97.511183 93.497601 
L 98.508073 93.497601 
L 98.508073 91.875933 
L 100.169556 91.875933 
L 100.169556 91.551599 
L 100.501853 91.551599 
L 100.501853 91.227266 
L 101.498743 91.227266 
L 101.498743 88.956931 
L 103.160227 88.956931 
L 103.160227 88.632597 
L 103.492523 88.632597 
L 103.492523 87.01093 
L 103.82482 87.01093 
L 103.82482 86.686596 
L 104.157117 86.686596 
L 104.157117 85.713595 
L 104.489413 85.713595 
L 104.489413 84.091928 
L 104.82171 84.091928 
L 104.82171 83.767594 
L 105.154007 83.767594 
L 105.154007 83.118927 
L 106.81549 83.118927 
L 106.81549 82.794593 
L 107.480084 82.794593 
L 107.480084 81.821593 
L 107.81238 81.821593 
L 107.81238 81.497259 
L 109.141567 81.497259 
L 109.141567 79.875591 
L 110.138457 79.875591 
L 110.138457 79.226924 
L 110.803051 79.226924 
L 110.803051 78.902591 
L 111.799941 78.902591 
L 111.799941 77.92959 
L 112.132237 77.92959 
L 112.132237 77.605257 
L 112.796831 77.605257 
L 112.796831 75.334922 
L 114.458314 75.334922 
L 114.458314 73.713254 
L 114.790611 73.713254 
L 114.790611 73.064587 
L 115.122908 73.064587 
L 115.122908 72.740253 
L 115.455204 72.740253 
L 115.455204 72.41592 
L 116.119798 72.41592 
L 116.119798 71.767253 
L 116.452094 71.767253 
L 116.452094 68.848251 
L 118.113578 68.848251 
L 118.113578 68.523917 
L 119.110468 68.523917 
L 119.110468 66.902249 
L 119.775061 66.902249 
L 119.775061 66.577916 
L 120.439655 66.577916 
L 120.439655 65.929249 
L 121.768842 65.929249 
L 121.768842 65.604915 
L 122.101138 65.604915 
L 122.101138 64.956248 
L 122.765732 64.956248 
L 122.765732 64.631914 
L 123.430325 64.631914 
L 123.430325 64.307581 
L 124.094919 64.307581 
L 124.094919 63.658914 
L 124.759512 63.658914 
L 124.759512 63.33458 
L 125.091809 63.33458 
L 125.091809 62.685913 
L 125.424105 62.685913 
L 125.424105 62.037246 
L 126.753292 62.037246 
L 126.753292 60.415578 
L 127.085589 60.415578 
L 127.085589 59.766911 
L 127.417886 59.766911 
L 127.417886 59.118244 
L 128.414776 59.118244 
L 128.414776 58.79391 
L 130.408556 58.79391 
L 130.408556 58.469577 
L 131.073149 58.469577 
L 131.073149 58.145243 
L 131.737743 58.145243 
L 131.737743 55.874908 
L 132.070039 55.874908 
L 132.070039 55.550575 
L 132.402336 55.550575 
L 132.402336 54.901908 
L 132.734633 54.901908 
L 132.734633 54.253241 
L 133.066929 54.253241 
L 133.066929 53.604574 
L 134.063819 53.604574 
L 134.063819 53.28024 
L 134.728413 53.28024 
L 134.728413 52.955906 
L 136.0576 52.955906 
L 136.0576 52.631573 
L 136.389896 52.631573 
L 136.389896 52.307239 
L 138.05138 52.307239 
L 138.05138 51.658572 
L 139.712863 51.658572 
L 139.712863 51.334239 
L 141.706644 51.334239 
L 141.706644 51.009905 
L 142.371237 51.009905 
L 142.371237 50.685572 
L 142.703534 50.685572 
L 142.703534 50.361238 
L 143.368127 50.361238 
L 143.368127 49.388237 
L 143.700424 49.388237 
L 143.700424 48.73957 
L 144.03272 48.73957 
L 144.03272 48.415237 
L 145.361907 48.415237 
L 145.361907 48.090903 
L 145.694204 48.090903 
L 145.694204 47.442236 
L 146.691094 47.442236 
L 146.691094 46.144902 
L 148.020281 46.144902 
L 148.020281 45.820568 
L 149.681764 45.820568 
L 149.681764 45.171901 
L 150.346358 45.171901 
L 150.346358 44.847568 
L 151.343248 44.847568 
L 151.343248 44.523234 
L 153.004731 44.523234 
L 153.004731 44.1989 
L 153.337028 44.1989 
L 153.337028 43.2259 
L 153.669325 43.2259 
L 153.669325 42.577233 
L 154.001621 42.577233 
L 154.001621 42.252899 
L 154.998511 42.252899 
L 154.998511 41.928566 
L 155.330808 41.928566 
L 155.330808 41.604232 
L 155.663105 41.604232 
L 155.663105 41.279898 
L 156.327698 41.279898 
L 156.327698 40.955565 
L 157.324588 40.955565 
L 157.324588 40.631231 
L 158.321478 40.631231 
L 158.321478 40.306898 
L 158.653775 40.306898 
L 158.653775 39.982564 
L 160.315259 39.982564 
L 160.315259 39.333897 
L 161.644445 39.333897 
L 161.644445 38.68523 
L 162.309039 38.68523 
L 162.309039 38.036563 
L 164.635116 38.036563 
L 164.635116 37.712229 
L 165.299709 37.712229 
L 165.299709 37.387896 
L 165.964303 37.387896 
L 165.964303 37.063562 
L 166.628896 37.063562 
L 166.628896 36.739229 
L 166.961193 36.739229 
L 166.961193 36.414895 
L 167.293489 36.414895 
L 167.293489 36.090562 
L 167.958083 36.090562 
L 167.958083 35.766228 
L 169.951863 35.766228 
L 169.951863 35.441894 
L 171.28105 35.441894 
L 171.28105 34.793227 
L 171.613346 34.793227 
L 171.613346 34.468894 
L 174.936313 34.468894 
L 174.936313 34.14456 
L 175.600907 34.14456 
L 175.600907 33.495893 
L 178.591577 33.495893 
L 178.591577 33.17156 
L 179.25617 33.17156 
L 179.25617 32.522893 
L 180.253061 32.522893 
L 180.253061 31.874225 
L 181.914544 31.874225 
L 181.914544 31.549892 
L 183.908324 31.549892 
L 183.908324 31.225558 
L 184.572918 31.225558 
L 184.572918 30.901225 
L 184.905214 30.901225 
L 184.905214 30.252558 
L 185.237511 30.252558 
L 185.237511 29.928224 
L 187.895885 29.928224 
L 187.895885 29.603891 
L 190.221961 29.603891 
L 190.221961 29.279557 
L 192.880335 29.279557 
L 192.880335 28.955223 
L 194.541819 28.955223 
L 194.541819 28.63089 
L 198.529379 28.63089 
L 198.529379 28.306556 
L 204.843016 28.306556 
L 204.843016 27.982223 
L 205.839906 27.982223 
L 205.839906 27.657889 
L 206.836796 27.657889 
L 206.836796 27.333556 
L 208.165983 27.333556 
L 208.165983 26.684889 
L 210.49206 26.684889 
L 210.49206 26.360555 
L 210.824357 26.360555 
L 210.824357 26.036221 
L 212.818137 26.036221 
L 212.818137 25.387554 
L 214.811917 25.387554 
L 214.811917 24.738887 
L 215.476511 24.738887 
L 215.476511 24.414554 
L 217.470291 24.414554 
L 217.470291 24.09022 
L 219.131774 24.09022 
L 219.131774 23.765887 
L 221.125554 23.765887 
L 221.125554 23.441553 
L 225.445411 23.441553 
L 225.445411 23.117219 
L 226.110005 23.117219 
L 226.110005 22.792886 
L 226.442302 22.792886 
L 226.442302 22.468552 
L 227.106895 22.468552 
L 227.106895 22.144219 
L 227.439192 22.144219 
L 227.439192 22.144219 
" clip-path="url(#p49e998c616)" style="fill: none; stroke: #ff0000; stroke-width: 1.5; stroke-linecap: square"/>
   </g>
   <g id="line2d_14">
    <defs>
     <path id="m0cfc362e94" d="M 0 3 
C 0.795609 3 1.55874 2.683901 2.12132 2.12132 
C 2.683901 1.55874 3 0.795609 3 0 
C 3 -0.795609 2.683901 -1.55874 2.12132 -2.12132 
C 1.55874 -2.683901 0.795609 -3 0 -3 
C -0.795609 -3 -1.55874 -2.683901 -2.12132 -2.12132 
C -2.683901 -1.55874 -3 -0.795609 -3 0 
C -3 0.795609 -2.683901 1.55874 -2.12132 2.12132 
C -1.55874 2.683901 -0.795609 3 0 3 
z
" style="stroke: #000000"/>
    </defs>
    <g clip-path="url(#p49e998c616)">
     <use xlink:href="#m0cfc362e94" x="72.921227" y="124.957956" style="fill: #ff0000; stroke: #000000"/>
    </g>
   </g>
   <g id="line2d_15">
    <path d="M 29.722656 425.939494 
L 227.439192 22.144219 
" clip-path="url(#p49e998c616)" style="fill: none; stroke: #00bfbf; stroke-width: 1.5; stroke-linecap: square"/>
   </g>
   <g id="patch_4">
    <path d="M 29.722656 425.939494 
L 29.722656 22.144219 
" style="fill: none; stroke: #000000; stroke-width: 0.8; stroke-linejoin: miter; stroke-linecap: square"/>
   </g>
   <g id="patch_5">
    <path d="M 227.439192 425.939494 
L 227.439192 22.144219 
" style="fill: none; stroke: #000000; stroke-width: 0.8; stroke-linejoin: miter; stroke-linecap: square"/>
   </g>
   <g id="patch_6">
    <path d="M 29.722656 425.939494 
L 227.439192 425.939494 
" style="fill: none; stroke: #000000; stroke-width: 0.8; stroke-linejoin: miter; stroke-linecap: square"/>
   </g>
   <g id="patch_7">
    <path d="M 29.722656 22.144219 
L 227.439192 22.144219 
" style="fill: none; stroke: #000000; stroke-width: 0.8; stroke-linejoin: miter; stroke-linecap: square"/>
   </g>
   <g id="text_15">
    <text style="font: 5px 'Arial'" transform="translate(106.394205 10.778906)">t-SNE AP-SP model</text>
    <text style="font: 5px 'Arial'" transform="translate(76.346158 16.144219)">Receiver Operating Characteristic (ROC) curve</text>
   </g>
   <g id="legend_1">
    <g id="patch_8">
     <path d="M 67.867643 468.926585 
L 189.294205 468.926585 
Q 190.294205 468.926585 190.294205 467.926585 
L 190.294205 461.234398 
Q 190.294205 460.234398 189.294205 460.234398 
L 67.867643 460.234398 
Q 66.867643 460.234398 66.867643 461.234398 
L 66.867643 467.926585 
Q 66.867643 468.926585 67.867643 468.926585 
z
" style="fill: #ffffff; opacity: 0.8; stroke: #cccccc; stroke-linejoin: miter"/>
    </g>
    <g id="line2d_16">
     <path d="M 68.867643 464.124242 
L 73.867643 464.124242 
L 78.867643 464.124242 
" style="fill: none; stroke: #ff0000; stroke-width: 1.5; stroke-linecap: square"/>
    </g>
    <g id="text_16">
     <text style="font: 5px 'Arial'; text-anchor: start" x="82.867643" y="465.874242" transform="rotate(-0 82.867643 465.874242)">model performance</text>
    </g>
    <g id="line2d_17">
     <path d="M 135.940299 464.124242 
L 140.940299 464.124242 
L 145.940299 464.124242 
" style="fill: none; stroke: #00bfbf; stroke-width: 1.5; stroke-linecap: square"/>
    </g>
    <g id="text_17">
     <text style="font: 5px 'Arial'; text-anchor: start" x="149.940299" y="465.874242" transform="rotate(-0 149.940299 465.874242)">random guessing</text>
    </g>
   </g>
  </g>
 </g>
 <defs>
  <clipPath id="p49e998c616">
   <rect x="29.722656" y="22.144219" width="197.716535" height="403.795276"/>
  </clipPath>
 </defs>
</svg>
