<?xml version="1.0" encoding="utf-8" standalone="no"?>
<!DOCTYPE svg PUBLIC "-//W3C//DTD SVG 1.1//EN"
  "http://www.w3.org/Graphics/SVG/1.1/DTD/svg11.dtd">
<svg xmlns:xlink="http://www.w3.org/1999/xlink" width="606.303125pt" height="439.248375pt" viewBox="0 0 606.303125 439.248375" xmlns="http://www.w3.org/2000/svg" version="1.1">
 <metadata>
  <rdf:RDF xmlns:dc="http://purl.org/dc/elements/1.1/" xmlns:cc="http://creativecommons.org/ns#" xmlns:rdf="http://www.w3.org/1999/02/22-rdf-syntax-ns#">
   <cc:Work>
    <dc:type rdf:resource="http://purl.org/dc/dcmitype/StillImage"/>
    <dc:date>2024-09-24T11:17:33.935141</dc:date>
    <dc:format>image/svg+xml</dc:format>
    <dc:creator>
     <cc:Agent>
      <dc:title>Matplotlib v3.7.0, https://matplotlib.org/</dc:title>
     </cc:Agent>
    </dc:creator>
   </cc:Work>
  </rdf:RDF>
 </metadata>
 <defs>
  <style type="text/css">*{stroke-linejoin: round; stroke-linecap: butt}</style>
 </defs>
 <g id="figure_1">
  <g id="patch_1">
   <path d="M -0 439.248375 
L 606.303125 439.248375 
L 606.303125 0 
L -0 0 
z
" style="fill: #ffffff"/>
  </g>
  <g id="axes_1">
   <g id="patch_2">
    <path d="M 124.591562 328.9341 
L 481.711563 328.9341 
L 481.711563 62.8221 
L 124.591562 62.8221 
z
" style="fill: #ffffff"/>
   </g>
   <g id="patch_3">
    <path d="M 481.711563 62.8221 
L 483.028146 71.179917 
L 479.706477 70.665528 
L 461.520508 135.873727 
L 461.170858 135.819581 
L 479.356828 70.611382 
L 476.035159 70.096994 
z
" clip-path="url(#pe108425d3f)" style="fill: #1f77b4; stroke: #000000; stroke-linejoin: miter"/>
   </g>
   <g id="matplotlib.axis_1">
    <g id="xtick_1">
     <g id="line2d_1">
      <defs>
       <path id="m30c10afa8e" d="M 0 0 
L 0 3.5 
" style="stroke: #000000; stroke-width: 0.8"/>
      </defs>
      <g>
       <use xlink:href="#m30c10afa8e" x="124.591562" y="328.9341" style="stroke: #000000; stroke-width: 0.8"/>
      </g>
     </g>
     <g id="text_1">
      <!-- 0.0 -->
      <g transform="translate(107.098125 352.650662) scale(0.22 -0.22)">
       <defs>
        <path id="DejaVuSans-30" d="M 2034 4250 
Q 1547 4250 1301 3770 
Q 1056 3291 1056 2328 
Q 1056 1369 1301 889 
Q 1547 409 2034 409 
Q 2525 409 2770 889 
Q 3016 1369 3016 2328 
Q 3016 3291 2770 3770 
Q 2525 4250 2034 4250 
z
M 2034 4750 
Q 2819 4750 3233 4129 
Q 3647 3509 3647 2328 
Q 3647 1150 3233 529 
Q 2819 -91 2034 -91 
Q 1250 -91 836 529 
Q 422 1150 422 2328 
Q 422 3509 836 4129 
Q 1250 4750 2034 4750 
z
" transform="scale(0.015625)"/>
        <path id="DejaVuSans-2e" d="M 684 794 
L 1344 794 
L 1344 0 
L 684 0 
L 684 794 
z
" transform="scale(0.015625)"/>
       </defs>
       <use xlink:href="#DejaVuSans-30"/>
       <use xlink:href="#DejaVuSans-2e" x="63.623047"/>
       <use xlink:href="#DejaVuSans-30" x="95.410156"/>
      </g>
     </g>
    </g>
    <g id="xtick_2">
     <g id="line2d_2">
      <g>
       <use xlink:href="#m30c10afa8e" x="196.015562" y="328.9341" style="stroke: #000000; stroke-width: 0.8"/>
      </g>
     </g>
     <g id="text_2">
      <!-- 0.2 -->
      <g transform="translate(178.522125 352.650662) scale(0.22 -0.22)">
       <defs>
        <path id="DejaVuSans-32" d="M 1228 531 
L 3431 531 
L 3431 0 
L 469 0 
L 469 531 
Q 828 903 1448 1529 
Q 2069 2156 2228 2338 
Q 2531 2678 2651 2914 
Q 2772 3150 2772 3378 
Q 2772 3750 2511 3984 
Q 2250 4219 1831 4219 
Q 1534 4219 1204 4116 
Q 875 4013 500 3803 
L 500 4441 
Q 881 4594 1212 4672 
Q 1544 4750 1819 4750 
Q 2544 4750 2975 4387 
Q 3406 4025 3406 3419 
Q 3406 3131 3298 2873 
Q 3191 2616 2906 2266 
Q 2828 2175 2409 1742 
Q 1991 1309 1228 531 
z
" transform="scale(0.015625)"/>
       </defs>
       <use xlink:href="#DejaVuSans-30"/>
       <use xlink:href="#DejaVuSans-2e" x="63.623047"/>
       <use xlink:href="#DejaVuSans-32" x="95.410156"/>
      </g>
     </g>
    </g>
    <g id="xtick_3">
     <g id="line2d_3">
      <g>
       <use xlink:href="#m30c10afa8e" x="267.439562" y="328.9341" style="stroke: #000000; stroke-width: 0.8"/>
      </g>
     </g>
     <g id="text_3">
      <!-- 0.4 -->
      <g transform="translate(249.946125 352.650662) scale(0.22 -0.22)">
       <defs>
        <path id="DejaVuSans-34" d="M 2419 4116 
L 825 1625 
L 2419 1625 
L 2419 4116 
z
M 2253 4666 
L 3047 4666 
L 3047 1625 
L 3713 1625 
L 3713 1100 
L 3047 1100 
L 3047 0 
L 2419 0 
L 2419 1100 
L 313 1100 
L 313 1709 
L 2253 4666 
z
" transform="scale(0.015625)"/>
       </defs>
       <use xlink:href="#DejaVuSans-30"/>
       <use xlink:href="#DejaVuSans-2e" x="63.623047"/>
       <use xlink:href="#DejaVuSans-34" x="95.410156"/>
      </g>
     </g>
    </g>
    <g id="xtick_4">
     <g id="line2d_4">
      <g>
       <use xlink:href="#m30c10afa8e" x="338.863563" y="328.9341" style="stroke: #000000; stroke-width: 0.8"/>
      </g>
     </g>
     <g id="text_4">
      <!-- 0.6 -->
      <g transform="translate(321.370125 352.650662) scale(0.22 -0.22)">
       <defs>
        <path id="DejaVuSans-36" d="M 2113 2584 
Q 1688 2584 1439 2293 
Q 1191 2003 1191 1497 
Q 1191 994 1439 701 
Q 1688 409 2113 409 
Q 2538 409 2786 701 
Q 3034 994 3034 1497 
Q 3034 2003 2786 2293 
Q 2538 2584 2113 2584 
z
M 3366 4563 
L 3366 3988 
Q 3128 4100 2886 4159 
Q 2644 4219 2406 4219 
Q 1781 4219 1451 3797 
Q 1122 3375 1075 2522 
Q 1259 2794 1537 2939 
Q 1816 3084 2150 3084 
Q 2853 3084 3261 2657 
Q 3669 2231 3669 1497 
Q 3669 778 3244 343 
Q 2819 -91 2113 -91 
Q 1303 -91 875 529 
Q 447 1150 447 2328 
Q 447 3434 972 4092 
Q 1497 4750 2381 4750 
Q 2619 4750 2861 4703 
Q 3103 4656 3366 4563 
z
" transform="scale(0.015625)"/>
       </defs>
       <use xlink:href="#DejaVuSans-30"/>
       <use xlink:href="#DejaVuSans-2e" x="63.623047"/>
       <use xlink:href="#DejaVuSans-36" x="95.410156"/>
      </g>
     </g>
    </g>
    <g id="xtick_5">
     <g id="line2d_5">
      <g>
       <use xlink:href="#m30c10afa8e" x="410.287562" y="328.9341" style="stroke: #000000; stroke-width: 0.8"/>
      </g>
     </g>
     <g id="text_5">
      <!-- 0.8 -->
      <g transform="translate(392.794125 352.650662) scale(0.22 -0.22)">
       <defs>
        <path id="DejaVuSans-38" d="M 2034 2216 
Q 1584 2216 1326 1975 
Q 1069 1734 1069 1313 
Q 1069 891 1326 650 
Q 1584 409 2034 409 
Q 2484 409 2743 651 
Q 3003 894 3003 1313 
Q 3003 1734 2745 1975 
Q 2488 2216 2034 2216 
z
M 1403 2484 
Q 997 2584 770 2862 
Q 544 3141 544 3541 
Q 544 4100 942 4425 
Q 1341 4750 2034 4750 
Q 2731 4750 3128 4425 
Q 3525 4100 3525 3541 
Q 3525 3141 3298 2862 
Q 3072 2584 2669 2484 
Q 3125 2378 3379 2068 
Q 3634 1759 3634 1313 
Q 3634 634 3220 271 
Q 2806 -91 2034 -91 
Q 1263 -91 848 271 
Q 434 634 434 1313 
Q 434 1759 690 2068 
Q 947 2378 1403 2484 
z
M 1172 3481 
Q 1172 3119 1398 2916 
Q 1625 2713 2034 2713 
Q 2441 2713 2670 2916 
Q 2900 3119 2900 3481 
Q 2900 3844 2670 4047 
Q 2441 4250 2034 4250 
Q 1625 4250 1398 4047 
Q 1172 3844 1172 3481 
z
" transform="scale(0.015625)"/>
       </defs>
       <use xlink:href="#DejaVuSans-30"/>
       <use xlink:href="#DejaVuSans-2e" x="63.623047"/>
       <use xlink:href="#DejaVuSans-38" x="95.410156"/>
      </g>
     </g>
    </g>
    <g id="xtick_6">
     <g id="line2d_6">
      <g>
       <use xlink:href="#m30c10afa8e" x="481.711563" y="328.9341" style="stroke: #000000; stroke-width: 0.8"/>
      </g>
     </g>
     <g id="text_6">
      <!-- 1.0 -->
      <g transform="translate(464.218125 352.650662) scale(0.22 -0.22)">
       <defs>
        <path id="DejaVuSans-31" d="M 794 531 
L 1825 531 
L 1825 4091 
L 703 3866 
L 703 4441 
L 1819 4666 
L 2450 4666 
L 2450 531 
L 3481 531 
L 3481 0 
L 794 0 
L 794 531 
z
" transform="scale(0.015625)"/>
       </defs>
       <use xlink:href="#DejaVuSans-31"/>
       <use xlink:href="#DejaVuSans-2e" x="63.623047"/>
       <use xlink:href="#DejaVuSans-30" x="95.410156"/>
      </g>
     </g>
    </g>
    <g id="text_7">
     <!-- Recall -->
     <g transform="translate(270.33375 377.942537) scale(0.22 -0.22)">
      <defs>
       <path id="DejaVuSans-52" d="M 2841 2188 
Q 3044 2119 3236 1894 
Q 3428 1669 3622 1275 
L 4263 0 
L 3584 0 
L 2988 1197 
Q 2756 1666 2539 1819 
Q 2322 1972 1947 1972 
L 1259 1972 
L 1259 0 
L 628 0 
L 628 4666 
L 2053 4666 
Q 2853 4666 3247 4331 
Q 3641 3997 3641 3322 
Q 3641 2881 3436 2590 
Q 3231 2300 2841 2188 
z
M 1259 4147 
L 1259 2491 
L 2053 2491 
Q 2509 2491 2742 2702 
Q 2975 2913 2975 3322 
Q 2975 3731 2742 3939 
Q 2509 4147 2053 4147 
L 1259 4147 
z
" transform="scale(0.015625)"/>
       <path id="DejaVuSans-65" d="M 3597 1894 
L 3597 1613 
L 953 1613 
Q 991 1019 1311 708 
Q 1631 397 2203 397 
Q 2534 397 2845 478 
Q 3156 559 3463 722 
L 3463 178 
Q 3153 47 2828 -22 
Q 2503 -91 2169 -91 
Q 1331 -91 842 396 
Q 353 884 353 1716 
Q 353 2575 817 3079 
Q 1281 3584 2069 3584 
Q 2775 3584 3186 3129 
Q 3597 2675 3597 1894 
z
M 3022 2063 
Q 3016 2534 2758 2815 
Q 2500 3097 2075 3097 
Q 1594 3097 1305 2825 
Q 1016 2553 972 2059 
L 3022 2063 
z
" transform="scale(0.015625)"/>
       <path id="DejaVuSans-63" d="M 3122 3366 
L 3122 2828 
Q 2878 2963 2633 3030 
Q 2388 3097 2138 3097 
Q 1578 3097 1268 2742 
Q 959 2388 959 1747 
Q 959 1106 1268 751 
Q 1578 397 2138 397 
Q 2388 397 2633 464 
Q 2878 531 3122 666 
L 3122 134 
Q 2881 22 2623 -34 
Q 2366 -91 2075 -91 
Q 1284 -91 818 406 
Q 353 903 353 1747 
Q 353 2603 823 3093 
Q 1294 3584 2113 3584 
Q 2378 3584 2631 3529 
Q 2884 3475 3122 3366 
z
" transform="scale(0.015625)"/>
       <path id="DejaVuSans-61" d="M 2194 1759 
Q 1497 1759 1228 1600 
Q 959 1441 959 1056 
Q 959 750 1161 570 
Q 1363 391 1709 391 
Q 2188 391 2477 730 
Q 2766 1069 2766 1631 
L 2766 1759 
L 2194 1759 
z
M 3341 1997 
L 3341 0 
L 2766 0 
L 2766 531 
Q 2569 213 2275 61 
Q 1981 -91 1556 -91 
Q 1019 -91 701 211 
Q 384 513 384 1019 
Q 384 1609 779 1909 
Q 1175 2209 1959 2209 
L 2766 2209 
L 2766 2266 
Q 2766 2663 2505 2880 
Q 2244 3097 1772 3097 
Q 1472 3097 1187 3025 
Q 903 2953 641 2809 
L 641 3341 
Q 956 3463 1253 3523 
Q 1550 3584 1831 3584 
Q 2591 3584 2966 3190 
Q 3341 2797 3341 1997 
z
" transform="scale(0.015625)"/>
       <path id="DejaVuSans-6c" d="M 603 4863 
L 1178 4863 
L 1178 0 
L 603 0 
L 603 4863 
z
" transform="scale(0.015625)"/>
      </defs>
      <use xlink:href="#DejaVuSans-52"/>
      <use xlink:href="#DejaVuSans-65" x="64.982422"/>
      <use xlink:href="#DejaVuSans-63" x="126.505859"/>
      <use xlink:href="#DejaVuSans-61" x="181.486328"/>
      <use xlink:href="#DejaVuSans-6c" x="242.765625"/>
      <use xlink:href="#DejaVuSans-6c" x="270.548828"/>
     </g>
    </g>
   </g>
   <g id="matplotlib.axis_2">
    <g id="ytick_1">
     <g id="line2d_7">
      <defs>
       <path id="me64928b2d3" d="M 0 0 
L -3.5 0 
" style="stroke: #000000; stroke-width: 0.8"/>
      </defs>
      <g>
       <use xlink:href="#me64928b2d3" x="124.591562" y="328.9341" style="stroke: #000000; stroke-width: 0.8"/>
      </g>
     </g>
     <g id="text_8">
      <!-- 0.0 -->
      <g transform="translate(82.604687 337.292381) scale(0.22 -0.22)">
       <use xlink:href="#DejaVuSans-30"/>
       <use xlink:href="#DejaVuSans-2e" x="63.623047"/>
       <use xlink:href="#DejaVuSans-30" x="95.410156"/>
      </g>
     </g>
    </g>
    <g id="ytick_2">
     <g id="line2d_8">
      <g>
       <use xlink:href="#me64928b2d3" x="124.591562" y="275.7117" style="stroke: #000000; stroke-width: 0.8"/>
      </g>
     </g>
     <g id="text_9">
      <!-- 0.2 -->
      <g transform="translate(82.604687 284.069981) scale(0.22 -0.22)">
       <use xlink:href="#DejaVuSans-30"/>
       <use xlink:href="#DejaVuSans-2e" x="63.623047"/>
       <use xlink:href="#DejaVuSans-32" x="95.410156"/>
      </g>
     </g>
    </g>
    <g id="ytick_3">
     <g id="line2d_9">
      <g>
       <use xlink:href="#me64928b2d3" x="124.591562" y="222.4893" style="stroke: #000000; stroke-width: 0.8"/>
      </g>
     </g>
     <g id="text_10">
      <!-- 0.4 -->
      <g transform="translate(82.604687 230.847581) scale(0.22 -0.22)">
       <use xlink:href="#DejaVuSans-30"/>
       <use xlink:href="#DejaVuSans-2e" x="63.623047"/>
       <use xlink:href="#DejaVuSans-34" x="95.410156"/>
      </g>
     </g>
    </g>
    <g id="ytick_4">
     <g id="line2d_10">
      <g>
       <use xlink:href="#me64928b2d3" x="124.591562" y="169.2669" style="stroke: #000000; stroke-width: 0.8"/>
      </g>
     </g>
     <g id="text_11">
      <!-- 0.6 -->
      <g transform="translate(82.604687 177.625181) scale(0.22 -0.22)">
       <use xlink:href="#DejaVuSans-30"/>
       <use xlink:href="#DejaVuSans-2e" x="63.623047"/>
       <use xlink:href="#DejaVuSans-36" x="95.410156"/>
      </g>
     </g>
    </g>
    <g id="ytick_5">
     <g id="line2d_11">
      <g>
       <use xlink:href="#me64928b2d3" x="124.591562" y="116.0445" style="stroke: #000000; stroke-width: 0.8"/>
      </g>
     </g>
     <g id="text_12">
      <!-- 0.8 -->
      <g transform="translate(82.604687 124.402781) scale(0.22 -0.22)">
       <use xlink:href="#DejaVuSans-30"/>
       <use xlink:href="#DejaVuSans-2e" x="63.623047"/>
       <use xlink:href="#DejaVuSans-38" x="95.410156"/>
      </g>
     </g>
    </g>
    <g id="ytick_6">
     <g id="line2d_12">
      <g>
       <use xlink:href="#me64928b2d3" x="124.591562" y="62.8221" style="stroke: #000000; stroke-width: 0.8"/>
      </g>
     </g>
     <g id="text_13">
      <!-- 1.0 -->
      <g transform="translate(82.604687 71.180381) scale(0.22 -0.22)">
       <use xlink:href="#DejaVuSans-31"/>
       <use xlink:href="#DejaVuSans-2e" x="63.623047"/>
       <use xlink:href="#DejaVuSans-30" x="95.410156"/>
      </g>
     </g>
    </g>
    <g id="text_14">
     <!-- Precision -->
     <g transform="translate(74.029375 244.953569) rotate(-90) scale(0.22 -0.22)">
      <defs>
       <path id="DejaVuSans-50" d="M 1259 4147 
L 1259 2394 
L 2053 2394 
Q 2494 2394 2734 2622 
Q 2975 2850 2975 3272 
Q 2975 3691 2734 3919 
Q 2494 4147 2053 4147 
L 1259 4147 
z
M 628 4666 
L 2053 4666 
Q 2838 4666 3239 4311 
Q 3641 3956 3641 3272 
Q 3641 2581 3239 2228 
Q 2838 1875 2053 1875 
L 1259 1875 
L 1259 0 
L 628 0 
L 628 4666 
z
" transform="scale(0.015625)"/>
       <path id="DejaVuSans-72" d="M 2631 2963 
Q 2534 3019 2420 3045 
Q 2306 3072 2169 3072 
Q 1681 3072 1420 2755 
Q 1159 2438 1159 1844 
L 1159 0 
L 581 0 
L 581 3500 
L 1159 3500 
L 1159 2956 
Q 1341 3275 1631 3429 
Q 1922 3584 2338 3584 
Q 2397 3584 2469 3576 
Q 2541 3569 2628 3553 
L 2631 2963 
z
" transform="scale(0.015625)"/>
       <path id="DejaVuSans-69" d="M 603 3500 
L 1178 3500 
L 1178 0 
L 603 0 
L 603 3500 
z
M 603 4863 
L 1178 4863 
L 1178 4134 
L 603 4134 
L 603 4863 
z
" transform="scale(0.015625)"/>
       <path id="DejaVuSans-73" d="M 2834 3397 
L 2834 2853 
Q 2591 2978 2328 3040 
Q 2066 3103 1784 3103 
Q 1356 3103 1142 2972 
Q 928 2841 928 2578 
Q 928 2378 1081 2264 
Q 1234 2150 1697 2047 
L 1894 2003 
Q 2506 1872 2764 1633 
Q 3022 1394 3022 966 
Q 3022 478 2636 193 
Q 2250 -91 1575 -91 
Q 1294 -91 989 -36 
Q 684 19 347 128 
L 347 722 
Q 666 556 975 473 
Q 1284 391 1588 391 
Q 1994 391 2212 530 
Q 2431 669 2431 922 
Q 2431 1156 2273 1281 
Q 2116 1406 1581 1522 
L 1381 1569 
Q 847 1681 609 1914 
Q 372 2147 372 2553 
Q 372 3047 722 3315 
Q 1072 3584 1716 3584 
Q 2034 3584 2315 3537 
Q 2597 3491 2834 3397 
z
" transform="scale(0.015625)"/>
       <path id="DejaVuSans-6f" d="M 1959 3097 
Q 1497 3097 1228 2736 
Q 959 2375 959 1747 
Q 959 1119 1226 758 
Q 1494 397 1959 397 
Q 2419 397 2687 759 
Q 2956 1122 2956 1747 
Q 2956 2369 2687 2733 
Q 2419 3097 1959 3097 
z
M 1959 3584 
Q 2709 3584 3137 3096 
Q 3566 2609 3566 1747 
Q 3566 888 3137 398 
Q 2709 -91 1959 -91 
Q 1206 -91 779 398 
Q 353 888 353 1747 
Q 353 2609 779 3096 
Q 1206 3584 1959 3584 
z
" transform="scale(0.015625)"/>
       <path id="DejaVuSans-6e" d="M 3513 2113 
L 3513 0 
L 2938 0 
L 2938 2094 
Q 2938 2591 2744 2837 
Q 2550 3084 2163 3084 
Q 1697 3084 1428 2787 
Q 1159 2491 1159 1978 
L 1159 0 
L 581 0 
L 581 3500 
L 1159 3500 
L 1159 2956 
Q 1366 3272 1645 3428 
Q 1925 3584 2291 3584 
Q 2894 3584 3203 3211 
Q 3513 2838 3513 2113 
z
" transform="scale(0.015625)"/>
      </defs>
      <use xlink:href="#DejaVuSans-50"/>
      <use xlink:href="#DejaVuSans-72" x="58.552734"/>
      <use xlink:href="#DejaVuSans-65" x="97.416016"/>
      <use xlink:href="#DejaVuSans-63" x="158.939453"/>
      <use xlink:href="#DejaVuSans-69" x="213.919922"/>
      <use xlink:href="#DejaVuSans-73" x="241.703125"/>
      <use xlink:href="#DejaVuSans-69" x="293.802734"/>
      <use xlink:href="#DejaVuSans-6f" x="321.585938"/>
      <use xlink:href="#DejaVuSans-6e" x="382.767578"/>
     </g>
    </g>
   </g>
   <g id="line2d_13">
    <path d="M 481.711563 148.874622 
L 480.851032 148.917159 
L 480.851032 148.425578 
L 480.564189 148.472356 
L 480.564189 148.373689 
L 480.564189 148.274914 
L 479.990502 148.36851 
L 479.990502 148.26957 
L 479.990502 148.071364 
L 479.416816 148.065669 
L 479.416816 147.966236 
L 479.129972 148.01307 
L 479.129972 147.913499 
L 479.129972 147.614126 
L 478.843129 147.660895 
L 478.843129 147.560855 
L 478.843129 147.360443 
L 478.556285 147.407175 
L 478.556285 147.306773 
L 478.556285 146.904051 
L 478.269442 146.950686 
L 478.269442 146.849696 
L 478.269442 146.748594 
L 477.695755 146.841898 
L 477.695755 146.740623 
L 477.695755 146.639235 
L 477.122069 146.732625 
L 477.122069 146.631063 
L 477.122069 146.4276 
L 476.835225 146.474281 
L 476.835225 146.372348 
L 476.835225 146.270301 
L 476.261538 146.363696 
L 476.261538 146.261473 
L 476.261538 146.056683 
L 475.687852 146.1501 
L 475.687852 146.04747 
L 475.687852 145.944725 
L 475.114165 146.038226 
L 475.114165 145.935302 
L 475.114165 145.832262 
L 473.966791 145.916361 
L 473.966791 145.812961 
L 473.679948 145.859875 
L 473.679948 145.756326 
L 473.679948 145.340957 
L 473.393105 145.387763 
L 473.393105 145.283594 
L 473.393105 145.0749 
L 472.819418 145.063885 
L 472.819418 144.959175 
L 472.532575 145.005977 
L 472.532575 144.901115 
L 472.532575 144.269423 
L 471.958888 144.362719 
L 471.958888 144.256947 
L 471.958888 143.938904 
L 471.672044 143.985496 
L 471.672044 143.879203 
L 471.672044 143.772789 
L 471.385201 143.819366 
L 471.385201 143.712794 
L 471.385201 143.6061 
L 471.098358 143.652661 
L 471.098358 143.545809 
L 471.098358 143.224512 
L 470.811514 143.270988 
L 470.811514 143.163606 
L 470.811514 142.948469 
L 470.237828 142.933543 
L 470.237828 142.283949 
L 469.664141 142.376562 
L 469.664141 142.267782 
L 469.664141 141.940679 
L 469.377297 141.986921 
L 469.377297 141.877595 
L 469.377297 141.768141 
L 468.803611 141.860638 
L 468.803611 141.750982 
L 468.803611 139.86696 
L 468.229924 139.846214 
L 468.229924 139.733996 
L 466.795707 139.9629 
L 466.795707 139.85035 
L 466.795707 139.624848 
L 466.508864 139.670673 
L 466.508864 139.55768 
L 466.22202 139.603519 
L 466.22202 139.490351 
L 465.648334 139.582114 
L 465.648334 138.899765 
L 465.36149 138.945485 
L 465.36149 138.716858 
L 465.074647 138.76255 
L 465.074647 138.647989 
L 464.787803 138.693695 
L 464.787803 138.003167 
L 464.50096 138.048676 
L 464.50096 137.701401 
L 464.214117 137.746838 
L 464.214117 137.514533 
L 463.927273 137.559938 
L 463.927273 137.443531 
L 463.64043 137.488948 
L 463.64043 137.255621 
L 463.353587 137.301007 
L 463.353587 137.184087 
L 462.493056 137.320447 
L 462.493056 136.733036 
L 461.632526 136.869235 
L 461.632526 136.514654 
L 461.345683 136.560031 
L 461.345683 135.846654 
L 460.198309 136.027632 
L 460.198309 135.908037 
L 459.624623 135.99877 
L 459.624623 135.878935 
L 459.050936 135.969801 
L 459.050936 135.367917 
L 458.190406 135.50394 
L 458.190406 135.382971 
L 457.616719 135.473842 
L 457.616719 135.109739 
L 456.469346 135.291594 
L 456.469346 135.047712 
L 455.608816 135.184417 
L 455.608816 135.0621 
L 455.321972 135.107735 
L 455.321972 134.86254 
L 455.035129 134.908135 
L 455.035129 134.785256 
L 454.748285 134.83086 
L 454.748285 134.707777 
L 454.461442 134.753389 
L 454.461442 134.383051 
L 454.174599 134.428573 
L 454.174599 134.304763 
L 453.314069 134.441529 
L 453.314069 134.193134 
L 453.027225 134.238739 
L 453.027225 134.114253 
L 452.740382 134.159866 
L 452.740382 133.910315 
L 452.166695 134.001512 
L 452.166695 133.876395 
L 451.879852 133.922031 
L 451.879852 133.796702 
L 451.593008 133.842344 
L 451.593008 133.465234 
L 451.019322 133.556386 
L 451.019322 133.30396 
L 449.585105 133.532353 
L 449.585105 133.278749 
L 448.150888 133.5081 
L 448.150888 133.380787 
L 447.864044 133.426783 
L 447.864044 133.299251 
L 447.003514 133.437441 
L 447.003514 133.309582 
L 446.142984 133.448155 
L 446.142984 133.319968 
L 445.569297 133.412545 
L 445.569297 133.284082 
L 444.995611 133.376795 
L 444.995611 133.119143 
L 444.708767 133.165483 
L 444.708767 133.036348 
L 444.421924 133.082694 
L 444.421924 132.434179 
L 443.561394 132.572757 
L 443.561394 132.311812 
L 442.127177 132.543444 
L 442.127177 132.41243 
L 441.840334 132.458885 
L 441.840334 132.06462 
L 441.266647 132.157377 
L 441.266647 131.893424 
L 440.406117 132.032681 
L 440.406117 131.900265 
L 439.545587 132.039911 
L 439.545587 131.774197 
L 437.537683 132.101427 
L 437.537683 131.967891 
L 437.25084 132.014833 
L 437.25084 131.747098 
L 436.677153 131.840937 
L 436.677153 131.706678 
L 435.242936 131.9421 
L 435.242936 131.807359 
L 434.956093 131.854576 
L 434.956093 131.71959 
L 434.095563 131.861452 
L 434.095563 131.454837 
L 433.521876 131.549373 
L 433.521876 131.413339 
L 432.948189 131.508013 
L 432.948189 131.371669 
L 432.661346 131.419043 
L 432.661346 131.145665 
L 431.800816 131.287809 
L 431.800816 130.875759 
L 431.513972 130.923085 
L 431.513972 130.647303 
L 430.653442 130.789296 
L 430.653442 130.650927 
L 430.366599 130.698326 
L 430.366599 130.142655 
L 430.079755 130.189864 
L 430.079755 130.050395 
L 429.506069 130.144883 
L 429.506069 129.865095 
L 428.071852 130.101829 
L 428.071852 129.961311 
L 426.637635 130.199394 
L 426.637635 130.058347 
L 426.350791 130.1061 
L 426.350791 129.964787 
L 425.777105 130.060363 
L 425.777105 129.634813 
L 425.490261 129.682503 
L 425.490261 129.54018 
L 425.203418 129.58787 
L 425.203418 129.445276 
L 423.482358 129.732445 
L 423.482358 129.589237 
L 422.908671 129.685374 
L 422.908671 129.541823 
L 421.187611 129.831489 
L 421.187611 129.542935 
L 420.613924 129.639772 
L 420.613924 129.204948 
L 420.040237 129.301646 
L 420.040237 129.010424 
L 417.74549 129.39891 
L 417.74549 129.252408 
L 417.171803 129.3501 
L 417.171803 129.203239 
L 416.311273 129.3501 
L 416.311273 129.055294 
L 414.30337 129.39949 
L 414.30337 128.9541 
L 413.44284 129.102046 
L 413.44284 128.803567 
L 413.155996 128.85288 
L 413.155996 128.703231 
L 412.295466 128.851389 
L 412.295466 128.550965 
L 412.008623 128.600348 
L 412.008623 128.449721 
L 411.721779 128.499102 
L 411.721779 127.894015 
L 410.287562 128.1405 
L 410.287562 127.835806 
L 408.279659 128.182942 
L 408.279659 127.41437 
L 407.705972 127.513437 
L 407.705972 127.048978 
L 407.132285 127.147864 
L 407.132285 126.992405 
L 406.845442 127.041881 
L 406.845442 126.417311 
L 406.271755 126.515832 
L 406.271755 126.358919 
L 405.984912 126.40821 
L 405.984912 126.093485 
L 405.698069 126.142685 
L 405.698069 125.98487 
L 405.124382 126.083331 
L 405.124382 125.6079 
L 404.837538 125.65699 
L 404.837538 125.179066 
L 403.977008 125.326018 
L 403.977008 125.005628 
L 403.116478 125.15275 
L 403.116478 124.991912 
L 402.542791 125.090204 
L 402.542791 124.928935 
L 402.255948 124.97811 
L 402.255948 124.816496 
L 401.682261 124.9149 
L 401.682261 124.427981 
L 401.395418 124.47703 
L 401.395418 123.495636 
L 401.108575 123.544214 
L 401.108575 123.049696 
L 400.821731 123.098071 
L 400.821731 122.766879 
L 400.534888 122.815143 
L 400.534888 122.482694 
L 397.953297 122.91888 
L 397.953297 122.751388 
L 397.666454 122.80015 
L 397.666454 122.632289 
L 397.092767 122.729859 
L 397.092767 122.561529 
L 396.519081 122.659222 
L 396.519081 122.490421 
L 396.232237 122.539289 
L 396.232237 122.370113 
L 395.65855 122.467893 
L 395.65855 122.128311 
L 395.084864 122.226014 
L 395.084864 121.713938 
L 394.79802 121.762609 
L 394.79802 121.591251 
L 394.511177 121.639901 
L 394.511177 121.468158 
L 394.224334 121.516787 
L 394.224334 121.344656 
L 393.93749 121.393263 
L 393.93749 120.70146 
L 393.363803 120.798087 
L 393.363803 120.624205 
L 393.07696 120.672535 
L 393.07696 120.323688 
L 392.790117 120.371887 
L 392.790117 120.021657 
L 392.503273 120.069724 
L 392.503273 119.89406 
L 392.21643 119.9421 
L 392.21643 119.589668 
L 391.929587 119.637573 
L 391.929587 119.283733 
L 391.642743 119.331501 
L 391.642743 119.154022 
L 391.3559 119.201761 
L 391.3559 119.023871 
L 390.782213 119.119371 
L 390.782213 118.40389 
L 390.49537 118.451315 
L 390.49537 118.271569 
L 389.921683 118.366435 
L 389.921683 118.186155 
L 389.63484 118.233596 
L 389.63484 117.871879 
L 389.347996 117.919172 
L 389.347996 117.55598 
L 389.061153 117.603123 
L 389.061153 117.420941 
L 388.774309 117.46805 
L 388.774309 116.919263 
L 388.487466 116.9661 
L 388.487466 116.4141 
L 387.626936 116.554027 
L 387.626936 116.369027 
L 387.340093 116.415711 
L 387.340093 116.230268 
L 386.766406 116.323638 
L 386.766406 115.577637 
L 386.479562 115.623954 
L 386.479562 115.436511 
L 385.619032 115.57558 
L 385.619032 115.387433 
L 385.045346 115.480305 
L 385.045346 115.291575 
L 384.758502 115.338008 
L 384.758502 114.959291 
L 384.184816 115.051898 
L 384.184816 114.86178 
L 383.611129 114.95446 
L 383.611129 114.763747 
L 382.463755 114.949585 
L 382.463755 114.758014 
L 382.176912 114.804552 
L 382.176912 114.612507 
L 381.603225 114.705572 
L 381.603225 114.51292 
L 381.316382 114.559447 
L 381.316382 114.172838 
L 380.742695 114.265612 
L 380.742695 114.071518 
L 379.882165 114.210909 
L 379.882165 113.6253 
L 379.308478 113.717838 
L 379.308478 113.325107 
L 378.161105 113.5101 
L 378.161105 112.916645 
L 377.874261 112.962688 
L 377.874261 112.764002 
L 377.013731 112.902218 
L 377.013731 111.901144 
L 376.440044 111.992284 
L 376.440044 111.790665 
L 375.579514 111.927576 
L 375.579514 111.115578 
L 375.005828 111.2061 
L 375.005828 111.001852 
L 374.432141 111.092416 
L 374.432141 110.476464 
L 373.858454 110.566463 
L 373.858454 110.360066 
L 372.997924 110.495245 
L 372.997924 109.663889 
L 372.711081 109.7085 
L 372.711081 109.499515 
L 372.137394 109.588679 
L 372.137394 109.37898 
L 371.276864 109.512892 
L 371.276864 109.302315 
L 370.12949 109.481429 
L 370.12949 109.057776 
L 369.842647 109.102448 
L 369.842647 108.889845 
L 369.555803 108.934441 
L 369.555803 108.721263 
L 368.695273 108.85508 
L 368.695273 108.211574 
L 367.261056 108.433853 
L 367.261056 108.001075 
L 366.68737 108.089923 
L 366.68737 107.872557 
L 366.400526 107.916941 
L 366.400526 107.48058 
L 366.113683 107.524709 
L 366.113683 106.866405 
L 365.539996 106.953882 
L 365.539996 106.290594 
L 364.105779 106.508154 
L 364.105779 105.838196 
L 363.818936 105.881429 
L 363.818936 105.65703 
L 363.245249 105.74339 
L 363.245249 105.518173 
L 362.671562 105.604515 
L 362.671562 105.378472 
L 362.097876 105.464794 
L 362.097876 105.237921 
L 361.524189 105.32422 
L 361.524189 105.096511 
L 361.237346 105.139605 
L 361.237346 104.911243 
L 360.950502 104.954235 
L 360.950502 104.495729 
L 360.663659 104.538428 
L 360.663659 104.077656 
L 359.516285 104.247782 
L 359.516285 103.083605 
L 359.229442 103.12537 
L 359.229442 102.655913 
L 358.942599 102.697363 
L 358.942599 101.988897 
L 358.655755 102.029824 
L 358.655755 101.792477 
L 357.795225 101.915154 
L 357.795225 101.676688 
L 357.221538 101.758487 
L 357.221538 101.519103 
L 356.934695 101.559923 
L 356.934695 100.596473 
L 355.213635 100.8381 
L 355.213635 99.369671 
L 354.926791 99.408927 
L 354.926791 99.162126 
L 354.353105 99.240445 
L 354.353105 98.992663 
L 352.918888 99.188816 
L 352.918888 98.939364 
L 352.632044 98.978622 
L 352.632044 98.728398 
L 352.345201 98.767512 
L 352.345201 98.264965 
L 350.910984 98.459492 
L 350.910984 98.206223 
L 350.050454 98.32326 
L 350.050454 97.813623 
L 349.763611 97.85233 
L 349.763611 97.596426 
L 349.476767 97.634978 
L 349.476767 96.604692 
L 349.189924 96.642354 
L 349.189924 96.123266 
L 348.903081 96.160516 
L 348.903081 95.899851 
L 348.04255 96.011349 
L 348.04255 94.959779 
L 346.895177 95.105529 
L 346.895177 94.5741 
L 345.747803 94.719086 
L 345.747803 94.451412 
L 345.174117 94.523873 
L 345.174117 94.255054 
L 343.7399 94.436328 
L 343.7399 93.894137 
L 343.453056 93.9301 
L 343.453056 93.657789 
L 343.166213 93.693562 
L 343.166213 92.872 
L 341.731996 93.047936 
L 341.731996 92.494213 
L 341.445153 92.52908 
L 341.445153 91.972178 
L 341.158309 92.006553 
L 341.158309 91.44644 
L 340.871466 91.480315 
L 340.871466 90.916961 
L 340.010936 91.0173 
L 340.010936 90.733728 
L 339.437249 90.800423 
L 339.437249 90.230043 
L 338.576719 90.328869 
L 338.576719 90.041739 
L 337.716189 90.140361 
L 337.716189 89.851614 
L 337.142502 89.91714 
L 337.142502 89.336297 
L 335.995129 89.465792 
L 335.995129 88.879579 
L 335.708285 88.911512 
L 335.708285 88.617006 
L 335.421442 88.648695 
L 335.421442 88.056859 
L 335.134599 88.087974 
L 335.134599 87.790633 
L 334.847755 87.821497 
L 334.847755 87.52309 
L 332.839852 87.738954 
L 332.839852 87.43746 
L 332.266165 87.499153 
L 332.266165 87.196223 
L 330.831948 87.3501 
L 330.831948 87.044684 
L 329.684575 87.167798 
L 329.684575 86.860207 
L 327.676671 87.07621 
L 327.676671 86.453668 
L 326.529297 86.575953 
L 326.529297 86.262017 
L 326.242454 86.292419 
L 326.242454 85.9773 
L 323.660864 86.251146 
L 323.660864 85.931826 
L 322.800334 86.02341 
L 322.800334 85.056922 
L 321.079273 85.235276 
L 321.079273 84.90904 
L 319.645056 85.057874 
L 319.645056 83.736051 
L 319.07137 83.792883 
L 319.07137 83.459357 
L 317.063466 83.657792 
L 317.063466 83.320411 
L 316.489779 83.376958 
L 316.489779 83.037791 
L 315.916093 83.09379 
L 315.916093 82.752818 
L 313.908189 82.948218 
L 313.908189 82.603216 
L 313.047659 82.686799 
L 313.047659 82.339482 
L 310.752912 82.56222 
L 310.752912 82.21026 
L 308.745008 82.4061 
L 308.745008 80.974878 
L 305.876575 81.242224 
L 305.876575 80.876896 
L 305.016044 80.95714 
L 305.016044 79.8501 
L 304.442358 79.90093 
L 304.442358 79.528683 
L 300.42655 79.88577 
L 300.42655 79.122988 
L 299.279177 79.223456 
L 299.279177 78.8381 
L 295.837056 79.140289 
L 295.837056 78.746913 
L 290.960719 79.184974 
L 290.960719 78.780194 
L 283.789635 79.4541 
L 283.789635 79.031968 
L 283.215948 79.08701 
L 283.215948 78.6621 
L 282.355418 78.743331 
L 282.355418 77.885043 
L 279.200141 78.174715 
L 279.200141 77.735557 
L 277.765924 77.867301 
L 277.765924 77.422935 
L 275.184334 77.65928 
L 275.184334 77.206532 
L 274.610647 77.258556 
L 274.610647 76.802622 
L 274.03696 76.85346 
L 274.03696 76.394297 
L 272.889587 76.493909 
L 272.889587 76.029865 
L 272.029056 76.103106 
L 272.029056 75.6349 
L 268.300093 75.950965 
L 268.300093 75.470009 
L 265.431659 75.715123 
L 265.431659 75.223436 
L 262.276382 75.4941 
L 262.276382 74.990243 
L 260.555322 75.137142 
L 260.555322 74.625455 
L 258.834261 74.769986 
L 258.834261 74.250223 
L 258.260575 74.297155 
L 258.260575 73.773211 
L 250.802647 74.392187 
L 250.802647 73.28065 
L 249.36843 73.396087 
L 249.36843 72.830737 
L 248.5079 72.89761 
L 248.5079 72.3261 
L 239.902599 73.008205 
L 239.902599 72.394474 
L 239.615755 72.417485 
L 239.615755 71.799372 
L 236.173635 72.066686 
L 236.173635 71.427712 
L 229.863081 71.925932 
L 229.863081 71.24781 
L 224.986743 71.643492 
L 224.986743 70.930776 
L 223.83937 71.021629 
L 223.83937 70.297156 
L 220.970936 70.513198 
L 220.970936 69.764152 
L 217.241972 70.03598 
L 217.241972 69.25381 
L 214.373538 69.454175 
L 214.373538 68.6433 
L 213.799852 68.679911 
L 213.799852 67.85892 
L 202.039273 68.607143 
L 202.039273 67.6605 
L 201.178743 67.713865 
L 201.178743 66.749952 
L 194.581346 67.114229 
L 194.581346 66.05423 
L 182.533924 66.716422 
L 181.099707 66.81378 
L 181.099707 65.496592 
L 178.518117 65.623279 
L 178.518117 64.2301 
L 171.633876 64.4349 
L 171.633876 62.8221 
L 124.591562 62.8221 
L 124.591562 62.8221 
" clip-path="url(#pe108425d3f)" style="fill: none; stroke: #ff0000; stroke-width: 1.5; stroke-linecap: square"/>
   </g>
   <g id="line2d_14">
    <defs>
     <path id="m7a0f4df297" d="M 0 3 
C 0.795609 3 1.55874 2.683901 2.12132 2.12132 
C 2.683901 1.55874 3 0.795609 3 0 
C 3 -0.795609 2.683901 -1.55874 2.12132 -2.12132 
C 1.55874 -2.683901 0.795609 -3 0 -3 
C -0.795609 -3 -1.55874 -2.683901 -2.12132 -2.12132 
C -2.683901 -1.55874 -3 -0.795609 -3 0 
C -3 0.795609 -2.683901 1.55874 -2.12132 2.12132 
C -1.55874 2.683901 -0.795609 3 0 3 
z
" style="stroke: #000000"/>
    </defs>
    <g clip-path="url(#pe108425d3f)">
     <use xlink:href="#m7a0f4df297" x="461.345683" y="135.846654" style="fill: #ff0000; stroke: #000000"/>
    </g>
   </g>
   <g id="line2d_15">
    <path d="M 124.591562 148.874622 
L 481.711563 148.874622 
" clip-path="url(#pe108425d3f)" style="fill: none; stroke: #00bfbf; stroke-width: 1.5; stroke-linecap: square"/>
   </g>
   <g id="patch_4">
    <path d="M 124.591562 328.9341 
L 124.591562 62.8221 
" style="fill: none; stroke: #000000; stroke-width: 0.8; stroke-linejoin: miter; stroke-linecap: square"/>
   </g>
   <g id="patch_5">
    <path d="M 481.711563 328.9341 
L 481.711563 62.8221 
" style="fill: none; stroke: #000000; stroke-width: 0.8; stroke-linejoin: miter; stroke-linecap: square"/>
   </g>
   <g id="patch_6">
    <path d="M 124.591562 328.9341 
L 481.711563 328.9341 
" style="fill: none; stroke: #000000; stroke-width: 0.8; stroke-linejoin: miter; stroke-linecap: square"/>
   </g>
   <g id="patch_7">
    <path d="M 124.591562 62.8221 
L 481.711563 62.8221 
" style="fill: none; stroke: #000000; stroke-width: 0.8; stroke-linejoin: miter; stroke-linecap: square"/>
   </g>
   <g id="text_15">
    <!-- t-SNE SP model -->
    <g transform="translate(200.785562 27.259875) scale(0.264 -0.264)">
     <defs>
      <path id="DejaVuSans-74" d="M 1172 4494 
L 1172 3500 
L 2356 3500 
L 2356 3053 
L 1172 3053 
L 1172 1153 
Q 1172 725 1289 603 
Q 1406 481 1766 481 
L 2356 481 
L 2356 0 
L 1766 0 
Q 1100 0 847 248 
Q 594 497 594 1153 
L 594 3053 
L 172 3053 
L 172 3500 
L 594 3500 
L 594 4494 
L 1172 4494 
z
" transform="scale(0.015625)"/>
      <path id="DejaVuSans-2d" d="M 313 2009 
L 1997 2009 
L 1997 1497 
L 313 1497 
L 313 2009 
z
" transform="scale(0.015625)"/>
      <path id="DejaVuSans-53" d="M 3425 4513 
L 3425 3897 
Q 3066 4069 2747 4153 
Q 2428 4238 2131 4238 
Q 1616 4238 1336 4038 
Q 1056 3838 1056 3469 
Q 1056 3159 1242 3001 
Q 1428 2844 1947 2747 
L 2328 2669 
Q 3034 2534 3370 2195 
Q 3706 1856 3706 1288 
Q 3706 609 3251 259 
Q 2797 -91 1919 -91 
Q 1588 -91 1214 -16 
Q 841 59 441 206 
L 441 856 
Q 825 641 1194 531 
Q 1563 422 1919 422 
Q 2459 422 2753 634 
Q 3047 847 3047 1241 
Q 3047 1584 2836 1778 
Q 2625 1972 2144 2069 
L 1759 2144 
Q 1053 2284 737 2584 
Q 422 2884 422 3419 
Q 422 4038 858 4394 
Q 1294 4750 2059 4750 
Q 2388 4750 2728 4690 
Q 3069 4631 3425 4513 
z
" transform="scale(0.015625)"/>
      <path id="DejaVuSans-4e" d="M 628 4666 
L 1478 4666 
L 3547 763 
L 3547 4666 
L 4159 4666 
L 4159 0 
L 3309 0 
L 1241 3903 
L 1241 0 
L 628 0 
L 628 4666 
z
" transform="scale(0.015625)"/>
      <path id="DejaVuSans-45" d="M 628 4666 
L 3578 4666 
L 3578 4134 
L 1259 4134 
L 1259 2753 
L 3481 2753 
L 3481 2222 
L 1259 2222 
L 1259 531 
L 3634 531 
L 3634 0 
L 628 0 
L 628 4666 
z
" transform="scale(0.015625)"/>
      <path id="DejaVuSans-20" transform="scale(0.015625)"/>
      <path id="DejaVuSans-6d" d="M 3328 2828 
Q 3544 3216 3844 3400 
Q 4144 3584 4550 3584 
Q 5097 3584 5394 3201 
Q 5691 2819 5691 2113 
L 5691 0 
L 5113 0 
L 5113 2094 
Q 5113 2597 4934 2840 
Q 4756 3084 4391 3084 
Q 3944 3084 3684 2787 
Q 3425 2491 3425 1978 
L 3425 0 
L 2847 0 
L 2847 2094 
Q 2847 2600 2669 2842 
Q 2491 3084 2119 3084 
Q 1678 3084 1418 2786 
Q 1159 2488 1159 1978 
L 1159 0 
L 581 0 
L 581 3500 
L 1159 3500 
L 1159 2956 
Q 1356 3278 1631 3431 
Q 1906 3584 2284 3584 
Q 2666 3584 2933 3390 
Q 3200 3197 3328 2828 
z
" transform="scale(0.015625)"/>
      <path id="DejaVuSans-64" d="M 2906 2969 
L 2906 4863 
L 3481 4863 
L 3481 0 
L 2906 0 
L 2906 525 
Q 2725 213 2448 61 
Q 2172 -91 1784 -91 
Q 1150 -91 751 415 
Q 353 922 353 1747 
Q 353 2572 751 3078 
Q 1150 3584 1784 3584 
Q 2172 3584 2448 3432 
Q 2725 3281 2906 2969 
z
M 947 1747 
Q 947 1113 1208 752 
Q 1469 391 1925 391 
Q 2381 391 2643 752 
Q 2906 1113 2906 1747 
Q 2906 2381 2643 2742 
Q 2381 3103 1925 3103 
Q 1469 3103 1208 2742 
Q 947 2381 947 1747 
z
" transform="scale(0.015625)"/>
     </defs>
     <use xlink:href="#DejaVuSans-74"/>
     <use xlink:href="#DejaVuSans-2d" x="39.208984"/>
     <use xlink:href="#DejaVuSans-53" x="75.292969"/>
     <use xlink:href="#DejaVuSans-4e" x="138.769531"/>
     <use xlink:href="#DejaVuSans-45" x="213.574219"/>
     <use xlink:href="#DejaVuSans-20" x="276.757812"/>
     <use xlink:href="#DejaVuSans-53" x="308.544922"/>
     <use xlink:href="#DejaVuSans-50" x="372.021484"/>
     <use xlink:href="#DejaVuSans-20" x="432.324219"/>
     <use xlink:href="#DejaVuSans-6d" x="464.111328"/>
     <use xlink:href="#DejaVuSans-6f" x="561.523438"/>
     <use xlink:href="#DejaVuSans-64" x="622.705078"/>
     <use xlink:href="#DejaVuSans-65" x="686.181641"/>
     <use xlink:href="#DejaVuSans-6c" x="747.705078"/>
    </g>
    <!-- Precision - Recall (PR) curve -->
    <g transform="translate(118.920812 56.8221) scale(0.264 -0.264)">
     <defs>
      <path id="DejaVuSans-28" d="M 1984 4856 
Q 1566 4138 1362 3434 
Q 1159 2731 1159 2009 
Q 1159 1288 1364 580 
Q 1569 -128 1984 -844 
L 1484 -844 
Q 1016 -109 783 600 
Q 550 1309 550 2009 
Q 550 2706 781 3412 
Q 1013 4119 1484 4856 
L 1984 4856 
z
" transform="scale(0.015625)"/>
      <path id="DejaVuSans-29" d="M 513 4856 
L 1013 4856 
Q 1481 4119 1714 3412 
Q 1947 2706 1947 2009 
Q 1947 1309 1714 600 
Q 1481 -109 1013 -844 
L 513 -844 
Q 928 -128 1133 580 
Q 1338 1288 1338 2009 
Q 1338 2731 1133 3434 
Q 928 4138 513 4856 
z
" transform="scale(0.015625)"/>
      <path id="DejaVuSans-75" d="M 544 1381 
L 544 3500 
L 1119 3500 
L 1119 1403 
Q 1119 906 1312 657 
Q 1506 409 1894 409 
Q 2359 409 2629 706 
Q 2900 1003 2900 1516 
L 2900 3500 
L 3475 3500 
L 3475 0 
L 2900 0 
L 2900 538 
Q 2691 219 2414 64 
Q 2138 -91 1772 -91 
Q 1169 -91 856 284 
Q 544 659 544 1381 
z
M 1991 3584 
L 1991 3584 
z
" transform="scale(0.015625)"/>
      <path id="DejaVuSans-76" d="M 191 3500 
L 800 3500 
L 1894 563 
L 2988 3500 
L 3597 3500 
L 2284 0 
L 1503 0 
L 191 3500 
z
" transform="scale(0.015625)"/>
     </defs>
     <use xlink:href="#DejaVuSans-50"/>
     <use xlink:href="#DejaVuSans-72" x="58.552734"/>
     <use xlink:href="#DejaVuSans-65" x="97.416016"/>
     <use xlink:href="#DejaVuSans-63" x="158.939453"/>
     <use xlink:href="#DejaVuSans-69" x="213.919922"/>
     <use xlink:href="#DejaVuSans-73" x="241.703125"/>
     <use xlink:href="#DejaVuSans-69" x="293.802734"/>
     <use xlink:href="#DejaVuSans-6f" x="321.585938"/>
     <use xlink:href="#DejaVuSans-6e" x="382.767578"/>
     <use xlink:href="#DejaVuSans-20" x="446.146484"/>
     <use xlink:href="#DejaVuSans-2d" x="477.933594"/>
     <use xlink:href="#DejaVuSans-20" x="514.017578"/>
     <use xlink:href="#DejaVuSans-52" x="545.804688"/>
     <use xlink:href="#DejaVuSans-65" x="610.787109"/>
     <use xlink:href="#DejaVuSans-63" x="672.310547"/>
     <use xlink:href="#DejaVuSans-61" x="727.291016"/>
     <use xlink:href="#DejaVuSans-6c" x="788.570312"/>
     <use xlink:href="#DejaVuSans-6c" x="816.353516"/>
     <use xlink:href="#DejaVuSans-20" x="844.136719"/>
     <use xlink:href="#DejaVuSans-28" x="875.923828"/>
     <use xlink:href="#DejaVuSans-50" x="914.9375"/>
     <use xlink:href="#DejaVuSans-52" x="975.240234"/>
     <use xlink:href="#DejaVuSans-29" x="1044.722656"/>
     <use xlink:href="#DejaVuSans-20" x="1083.736328"/>
     <use xlink:href="#DejaVuSans-63" x="1115.523438"/>
     <use xlink:href="#DejaVuSans-75" x="1170.503906"/>
     <use xlink:href="#DejaVuSans-72" x="1233.882812"/>
     <use xlink:href="#DejaVuSans-76" x="1274.996094"/>
     <use xlink:href="#DejaVuSans-65" x="1334.175781"/>
    </g>
   </g>
   <g id="legend_1">
    <g id="patch_8">
     <path d="M 11.6 432.048375 
L 594.703125 432.048375 
Q 599.103125 432.048375 599.103125 427.648375 
L 599.103125 397.5565 
Q 599.103125 393.1565 594.703125 393.1565 
L 11.6 393.1565 
Q 7.2 393.1565 7.2 397.5565 
L 7.2 427.648375 
Q 7.2 432.048375 11.6 432.048375 
z
" style="fill: #ffffff; opacity: 0.8; stroke: #cccccc; stroke-linejoin: miter"/>
    </g>
    <g id="line2d_16">
     <path d="M 16 410.973062 
L 38 410.973062 
L 60 410.973062 
" style="fill: none; stroke: #ff0000; stroke-width: 1.5; stroke-linecap: square"/>
    </g>
    <g id="text_16">
     <!-- model performance -->
     <g transform="translate(77.6 418.673062) scale(0.22 -0.22)">
      <defs>
       <path id="DejaVuSans-70" d="M 1159 525 
L 1159 -1331 
L 581 -1331 
L 581 3500 
L 1159 3500 
L 1159 2969 
Q 1341 3281 1617 3432 
Q 1894 3584 2278 3584 
Q 2916 3584 3314 3078 
Q 3713 2572 3713 1747 
Q 3713 922 3314 415 
Q 2916 -91 2278 -91 
Q 1894 -91 1617 61 
Q 1341 213 1159 525 
z
M 3116 1747 
Q 3116 2381 2855 2742 
Q 2594 3103 2138 3103 
Q 1681 3103 1420 2742 
Q 1159 2381 1159 1747 
Q 1159 1113 1420 752 
Q 1681 391 2138 391 
Q 2594 391 2855 752 
Q 3116 1113 3116 1747 
z
" transform="scale(0.015625)"/>
       <path id="DejaVuSans-66" d="M 2375 4863 
L 2375 4384 
L 1825 4384 
Q 1516 4384 1395 4259 
Q 1275 4134 1275 3809 
L 1275 3500 
L 2222 3500 
L 2222 3053 
L 1275 3053 
L 1275 0 
L 697 0 
L 697 3053 
L 147 3053 
L 147 3500 
L 697 3500 
L 697 3744 
Q 697 4328 969 4595 
Q 1241 4863 1831 4863 
L 2375 4863 
z
" transform="scale(0.015625)"/>
      </defs>
      <use xlink:href="#DejaVuSans-6d"/>
      <use xlink:href="#DejaVuSans-6f" x="97.412109"/>
      <use xlink:href="#DejaVuSans-64" x="158.59375"/>
      <use xlink:href="#DejaVuSans-65" x="222.070312"/>
      <use xlink:href="#DejaVuSans-6c" x="283.59375"/>
      <use xlink:href="#DejaVuSans-20" x="311.376953"/>
      <use xlink:href="#DejaVuSans-70" x="343.164062"/>
      <use xlink:href="#DejaVuSans-65" x="406.640625"/>
      <use xlink:href="#DejaVuSans-72" x="468.164062"/>
      <use xlink:href="#DejaVuSans-66" x="509.277344"/>
      <use xlink:href="#DejaVuSans-6f" x="544.482422"/>
      <use xlink:href="#DejaVuSans-72" x="605.664062"/>
      <use xlink:href="#DejaVuSans-6d" x="645.027344"/>
      <use xlink:href="#DejaVuSans-61" x="742.439453"/>
      <use xlink:href="#DejaVuSans-6e" x="803.71875"/>
      <use xlink:href="#DejaVuSans-63" x="867.097656"/>
      <use xlink:href="#DejaVuSans-65" x="922.078125"/>
     </g>
    </g>
    <g id="line2d_17">
     <path d="M 337.9975 410.973062 
L 359.9975 410.973062 
L 381.9975 410.973062 
" style="fill: none; stroke: #00bfbf; stroke-width: 1.5; stroke-linecap: square"/>
    </g>
    <g id="text_17">
     <!-- random guessing -->
     <g transform="translate(399.5975 418.673062) scale(0.22 -0.22)">
      <defs>
       <path id="DejaVuSans-67" d="M 2906 1791 
Q 2906 2416 2648 2759 
Q 2391 3103 1925 3103 
Q 1463 3103 1205 2759 
Q 947 2416 947 1791 
Q 947 1169 1205 825 
Q 1463 481 1925 481 
Q 2391 481 2648 825 
Q 2906 1169 2906 1791 
z
M 3481 434 
Q 3481 -459 3084 -895 
Q 2688 -1331 1869 -1331 
Q 1566 -1331 1297 -1286 
Q 1028 -1241 775 -1147 
L 775 -588 
Q 1028 -725 1275 -790 
Q 1522 -856 1778 -856 
Q 2344 -856 2625 -561 
Q 2906 -266 2906 331 
L 2906 616 
Q 2728 306 2450 153 
Q 2172 0 1784 0 
Q 1141 0 747 490 
Q 353 981 353 1791 
Q 353 2603 747 3093 
Q 1141 3584 1784 3584 
Q 2172 3584 2450 3431 
Q 2728 3278 2906 2969 
L 2906 3500 
L 3481 3500 
L 3481 434 
z
" transform="scale(0.015625)"/>
      </defs>
      <use xlink:href="#DejaVuSans-72"/>
      <use xlink:href="#DejaVuSans-61" x="41.113281"/>
      <use xlink:href="#DejaVuSans-6e" x="102.392578"/>
      <use xlink:href="#DejaVuSans-64" x="165.771484"/>
      <use xlink:href="#DejaVuSans-6f" x="229.248047"/>
      <use xlink:href="#DejaVuSans-6d" x="290.429688"/>
      <use xlink:href="#DejaVuSans-20" x="387.841797"/>
      <use xlink:href="#DejaVuSans-67" x="419.628906"/>
      <use xlink:href="#DejaVuSans-75" x="483.105469"/>
      <use xlink:href="#DejaVuSans-65" x="546.484375"/>
      <use xlink:href="#DejaVuSans-73" x="608.007812"/>
      <use xlink:href="#DejaVuSans-73" x="660.107422"/>
      <use xlink:href="#DejaVuSans-69" x="712.207031"/>
      <use xlink:href="#DejaVuSans-6e" x="739.990234"/>
      <use xlink:href="#DejaVuSans-67" x="803.369141"/>
     </g>
    </g>
   </g>
  </g>
 </g>
 <defs>
  <clipPath id="pe108425d3f">
   <rect x="124.591562" y="62.8221" width="357.12" height="266.112"/>
  </clipPath>
 </defs>
</svg>
