<?xml version="1.0" encoding="utf-8" standalone="no"?>
<!DOCTYPE svg PUBLIC "-//W3C//DTD SVG 1.1//EN"
  "http://www.w3.org/Graphics/SVG/1.1/DTD/svg11.dtd">
<svg xmlns:xlink="http://www.w3.org/1999/xlink" width="242.837664pt" height="268.22835pt" viewBox="0 0 242.837664 268.22835" xmlns="http://www.w3.org/2000/svg" version="1.1">
 <metadata>
  <rdf:RDF xmlns:dc="http://purl.org/dc/elements/1.1/" xmlns:cc="http://creativecommons.org/ns#" xmlns:rdf="http://www.w3.org/1999/02/22-rdf-syntax-ns#">
   <cc:Work>
    <dc:type rdf:resource="http://purl.org/dc/dcmitype/StillImage"/>
    <dc:date>2024-09-25T18:05:58.549628</dc:date>
    <dc:format>image/svg+xml</dc:format>
    <dc:creator>
     <cc:Agent>
      <dc:title>Matplotlib v3.7.0, https://matplotlib.org/</dc:title>
     </cc:Agent>
    </dc:creator>
   </cc:Work>
  </rdf:RDF>
 </metadata>
 <defs>
  <style type="text/css">*{stroke-linejoin: round; stroke-linecap: butt}</style>
 </defs>
 <g id="figure_1">
  <g id="patch_1">
   <path d="M -0 268.22835 
L 242.837664 268.22835 
L 242.837664 0 
L -0 0 
z
" style="fill: #ffffff"/>
  </g>
  <g id="axes_1">
   <g id="patch_2">
    <path d="M 34.331719 222.157601 
L 230.772664 222.157601 
L 230.772664 25.716656 
L 34.331719 25.716656 
z
" style="fill: #ffffff"/>
   </g>
   <g id="patch_3">
    <path d="M 230.772664 25.716656 
L 230.594572 31.926111 
L 228.841796 31.285457 
L 215.559878 67.623667 
L 215.375375 67.55623 
L 228.657294 31.21802 
L 226.904518 30.577365 
z
" clip-path="url(#p8cb74a16d9)" style="fill: #1f77b4; stroke: #000000; stroke-linejoin: miter"/>
   </g>
   <g id="matplotlib.axis_1">
    <g id="xtick_1">
     <g id="line2d_1">
      <defs>
       <path id="m3591758189" d="M 0 0 
L 0 3.5 
" style="stroke: #000000; stroke-width: 0.8"/>
      </defs>
      <g>
       <use xlink:href="#m3591758189" x="34.331719" y="222.157601" style="stroke: #000000; stroke-width: 0.8"/>
      </g>
     </g>
     <g id="text_1">
      <text style="font: 7px 'Arial'; text-anchor: middle" x="34.331719" y="234.16807" transform="rotate(-0 34.331719 234.16807)">0.0</text>
     </g>
    </g>
    <g id="xtick_2">
     <g id="line2d_2">
      <g>
       <use xlink:href="#m3591758189" x="73.619908" y="222.157601" style="stroke: #000000; stroke-width: 0.8"/>
      </g>
     </g>
     <g id="text_2">
      <text style="font: 7px 'Arial'; text-anchor: middle" x="73.619908" y="234.16807" transform="rotate(-0 73.619908 234.16807)">0.2</text>
     </g>
    </g>
    <g id="xtick_3">
     <g id="line2d_3">
      <g>
       <use xlink:href="#m3591758189" x="112.908097" y="222.157601" style="stroke: #000000; stroke-width: 0.8"/>
      </g>
     </g>
     <g id="text_3">
      <text style="font: 7px 'Arial'; text-anchor: middle" x="112.908097" y="234.16807" transform="rotate(-0 112.908097 234.16807)">0.4</text>
     </g>
    </g>
    <g id="xtick_4">
     <g id="line2d_4">
      <g>
       <use xlink:href="#m3591758189" x="152.196286" y="222.157601" style="stroke: #000000; stroke-width: 0.8"/>
      </g>
     </g>
     <g id="text_4">
      <text style="font: 7px 'Arial'; text-anchor: middle" x="152.196286" y="234.16807" transform="rotate(-0 152.196286 234.16807)">0.6</text>
     </g>
    </g>
    <g id="xtick_5">
     <g id="line2d_5">
      <g>
       <use xlink:href="#m3591758189" x="191.484475" y="222.157601" style="stroke: #000000; stroke-width: 0.8"/>
      </g>
     </g>
     <g id="text_5">
      <text style="font: 7px 'Arial'; text-anchor: middle" x="191.484475" y="234.16807" transform="rotate(-0 191.484475 234.16807)">0.8</text>
     </g>
    </g>
    <g id="xtick_6">
     <g id="line2d_6">
      <g>
       <use xlink:href="#m3591758189" x="230.772664" y="222.157601" style="stroke: #000000; stroke-width: 0.8"/>
      </g>
     </g>
     <g id="text_6">
      <text style="font: 7px 'Arial'; text-anchor: middle" x="230.772664" y="234.16807" transform="rotate(-0 230.772664 234.16807)">1.0</text>
     </g>
    </g>
    <g id="text_7">
     <text style="font: 7px 'Arial'; text-anchor: middle" x="132.552191" y="244.569789" transform="rotate(-0 132.552191 244.569789)">Recall</text>
    </g>
   </g>
   <g id="matplotlib.axis_2">
    <g id="ytick_1">
     <g id="line2d_7">
      <defs>
       <path id="m60cd7377aa" d="M 0 0 
L -3.5 0 
" style="stroke: #000000; stroke-width: 0.8"/>
      </defs>
      <g>
       <use xlink:href="#m60cd7377aa" x="34.331719" y="222.157601" style="stroke: #000000; stroke-width: 0.8"/>
      </g>
     </g>
     <g id="text_8">
      <text style="font: 7px 'Arial'; text-anchor: end" x="27.331719" y="224.662836" transform="rotate(-0 27.331719 224.662836)">0.0</text>
     </g>
    </g>
    <g id="ytick_2">
     <g id="line2d_8">
      <g>
       <use xlink:href="#m60cd7377aa" x="34.331719" y="182.869412" style="stroke: #000000; stroke-width: 0.8"/>
      </g>
     </g>
     <g id="text_9">
      <text style="font: 7px 'Arial'; text-anchor: end" x="27.331719" y="185.374647" transform="rotate(-0 27.331719 185.374647)">0.2</text>
     </g>
    </g>
    <g id="ytick_3">
     <g id="line2d_9">
      <g>
       <use xlink:href="#m60cd7377aa" x="34.331719" y="143.581223" style="stroke: #000000; stroke-width: 0.8"/>
      </g>
     </g>
     <g id="text_10">
      <text style="font: 7px 'Arial'; text-anchor: end" x="27.331719" y="146.086458" transform="rotate(-0 27.331719 146.086458)">0.4</text>
     </g>
    </g>
    <g id="ytick_4">
     <g id="line2d_10">
      <g>
       <use xlink:href="#m60cd7377aa" x="34.331719" y="104.293034" style="stroke: #000000; stroke-width: 0.8"/>
      </g>
     </g>
     <g id="text_11">
      <text style="font: 7px 'Arial'; text-anchor: end" x="27.331719" y="106.798269" transform="rotate(-0 27.331719 106.798269)">0.6</text>
     </g>
    </g>
    <g id="ytick_5">
     <g id="line2d_11">
      <g>
       <use xlink:href="#m60cd7377aa" x="34.331719" y="65.004845" style="stroke: #000000; stroke-width: 0.8"/>
      </g>
     </g>
     <g id="text_12">
      <text style="font: 7px 'Arial'; text-anchor: end" x="27.331719" y="67.51008" transform="rotate(-0 27.331719 67.51008)">0.8</text>
     </g>
    </g>
    <g id="ytick_6">
     <g id="line2d_12">
      <g>
       <use xlink:href="#m60cd7377aa" x="34.331719" y="25.716656" style="stroke: #000000; stroke-width: 0.8"/>
      </g>
     </g>
     <g id="text_13">
      <text style="font: 7px 'Arial'; text-anchor: end" x="27.331719" y="28.221891" transform="rotate(-0 27.331719 28.221891)">1.0</text>
     </g>
    </g>
    <g id="text_14">
     <text style="font: 7px 'Arial'; text-anchor: middle" x="12.210469" y="123.937129" transform="rotate(-90 12.210469 123.937129)">Precision</text>
    </g>
   </g>
   <g id="line2d_13">
    <path d="M 230.772664 89.239679 
L 230.772664 89.167402 
L 230.61488 89.201924 
L 230.61488 89.129547 
L 230.61488 89.057092 
L 230.299312 89.053589 
L 230.299312 88.9082 
L 230.141528 88.942731 
L 230.141528 88.869896 
L 230.141528 87.989625 
L 229.983744 88.023916 
L 229.983744 87.950013 
L 229.983744 87.579274 
L 229.82596 87.613471 
L 229.82596 87.539055 
L 229.82596 87.240566 
L 229.668176 87.274689 
L 229.668176 87.199838 
L 229.668176 86.824329 
L 229.510393 86.858353 
L 229.510393 86.782978 
L 229.510393 86.707518 
L 229.194825 86.775588 
L 229.194825 86.699998 
L 229.194825 86.320778 
L 228.879257 86.388719 
L 228.879257 86.312573 
L 228.879257 85.930557 
L 228.563689 85.921656 
L 228.563689 85.38226 
L 228.248121 85.449831 
L 228.248121 85.372377 
L 228.248121 85.139485 
L 228.090337 85.173228 
L 228.090337 85.095396 
L 228.090337 84.939467 
L 227.932554 84.973173 
L 227.932554 84.89505 
L 227.932554 84.738536 
L 227.77477 84.772206 
L 227.77477 84.693789 
L 227.77477 83.266829 
L 227.616986 83.300038 
L 227.616986 83.219866 
L 227.616986 82.331827 
L 227.459202 82.364743 
L 227.459202 82.28342 
L 227.459202 81.957183 
L 227.301418 81.989996 
L 227.301418 81.90817 
L 227.301418 81.332703 
L 227.143634 81.365323 
L 227.143634 81.282698 
L 227.143634 80.784907 
L 226.98585 80.817357 
L 226.98585 80.73402 
L 226.98585 80.147895 
L 226.512499 80.160526 
L 226.512499 80.076205 
L 226.354715 80.108504 
L 226.354715 80.024052 
L 226.354715 79.939499 
L 226.196931 79.971774 
L 226.196931 79.88709 
L 226.196931 79.462148 
L 226.039147 79.494273 
L 226.039147 79.408948 
L 226.039147 79.066625 
L 225.723579 79.130671 
L 225.723579 79.044769 
L 225.723579 78.872655 
L 225.408011 78.936659 
L 225.408011 78.850382 
L 225.408011 78.764 
L 225.250227 78.795995 
L 225.250227 78.709476 
L 225.250227 78.013548 
L 224.93466 78.077054 
L 224.93466 77.98952 
L 224.93466 77.90188 
L 224.776876 77.933623 
L 224.776876 77.845842 
L 224.776876 77.050979 
L 224.303524 77.056437 
L 224.303524 76.699485 
L 224.14574 76.730859 
L 224.14574 76.64131 
L 224.14574 76.191908 
L 223.987956 76.223104 
L 223.987956 76.132854 
L 223.987956 76.042492 
L 223.672389 76.014307 
L 223.672389 75.923647 
L 223.514605 75.954812 
L 223.514605 75.864003 
L 223.514605 75.773081 
L 223.356821 75.804211 
L 223.356821 75.713138 
L 223.356821 75.621952 
L 223.199037 75.653046 
L 223.199037 75.561709 
L 223.199037 75.470258 
L 223.041253 75.501315 
L 223.041253 75.409712 
L 223.041253 74.857683 
L 222.725685 74.919379 
L 222.725685 74.826892 
L 222.725685 74.73429 
L 222.410117 74.795986 
L 222.410117 74.703189 
L 222.410117 74.424096 
L 222.09455 74.485634 
L 222.09455 74.392289 
L 222.09455 74.017725 
L 221.778982 73.985003 
L 221.778982 73.702231 
L 221.621198 73.732775 
L 221.621198 73.638237 
L 221.621198 73.448799 
L 221.463414 73.47926 
L 221.463414 73.384318 
L 221.463414 73.289256 
L 221.147846 73.254862 
L 221.147846 73.159473 
L 220.990062 73.189885 
L 220.990062 73.094331 
L 220.990062 72.902856 
L 220.516711 72.897901 
L 220.516711 72.801728 
L 219.885575 72.826928 
L 219.885575 72.342717 
L 219.727791 72.372974 
L 219.727791 72.275711 
L 219.727791 72.080806 
L 219.570007 72.110972 
L 219.570007 72.013285 
L 219.570007 71.915471 
L 219.25444 71.975744 
L 219.25444 71.877714 
L 219.25444 71.484311 
L 219.096656 71.514283 
L 219.096656 71.415565 
L 219.096656 71.118634 
L 218.46552 71.238192 
L 218.46552 71.138772 
L 218.46552 70.939539 
L 217.992168 70.929255 
L 217.992168 70.528118 
L 217.518817 70.516686 
L 217.518817 70.415793 
L 217.045465 70.505192 
L 217.045465 70.404023 
L 217.045465 70.302719 
L 216.729897 70.26079 
L 216.729897 70.057312 
L 216.572113 70.087031 
L 216.572113 69.985038 
L 216.572113 69.473017 
L 216.41433 69.502483 
L 216.41433 69.399616 
L 216.41433 68.986756 
L 216.098762 69.045309 
L 216.098762 68.941644 
L 216.098762 68.525579 
L 215.783194 68.479311 
L 215.783194 68.059998 
L 215.62541 68.088901 
L 215.62541 67.983663 
L 215.62541 67.878281 
L 215.467626 67.907119 
L 215.467626 67.80154 
L 215.467626 67.589949 
L 214.836491 67.598838 
L 214.836491 67.492466 
L 214.363139 67.472219 
L 214.363139 67.365392 
L 213.258652 67.567711 
L 213.258652 67.460357 
L 213.258652 67.352854 
L 213.100868 67.381808 
L 213.100868 67.2741 
L 213.100868 67.166243 
L 212.943084 67.195128 
L 212.943084 67.087064 
L 212.943084 66.54448 
L 212.7853 66.573071 
L 212.7853 66.464042 
L 212.7853 66.245525 
L 212.154164 66.249893 
L 212.154164 66.140022 
L 211.365245 66.282962 
L 211.365245 66.172647 
L 211.365245 65.840764 
L 210.734109 65.843739 
L 210.734109 65.732404 
L 210.576326 65.760926 
L 210.576326 65.649373 
L 210.576326 65.537661 
L 210.260758 65.594589 
L 210.260758 65.482599 
L 210.260758 65.370448 
L 210.102974 65.398853 
L 210.102974 65.286481 
L 210.102974 65.173948 
L 209.94519 65.202273 
L 209.94519 65.089518 
L 209.94519 64.976601 
L 209.629622 65.03313 
L 209.629622 64.919928 
L 209.471838 64.948193 
L 209.471838 64.493502 
L 209.156271 64.54966 
L 209.156271 64.321077 
L 208.998487 64.349092 
L 208.998487 64.119719 
L 208.209567 64.259774 
L 208.209567 63.913507 
L 208.051783 63.941449 
L 208.051783 63.360626 
L 206.631728 63.611029 
L 206.631728 63.493761 
L 206.31616 63.549727 
L 206.31616 63.314404 
L 206.158377 63.342316 
L 206.158377 63.224326 
L 206.000593 63.252212 
L 206.000593 63.133979 
L 205.685025 63.189743 
L 205.685025 63.071198 
L 204.896105 63.210998 
L 204.896105 62.613904 
L 203.791618 62.80898 
L 203.791618 62.567908 
L 203.633834 62.595804 
L 203.633834 62.474924 
L 203.160483 62.558656 
L 203.160483 62.194275 
L 203.002699 62.222057 
L 203.002699 61.978066 
L 202.687131 62.03347 
L 202.687131 61.66565 
L 201.898211 61.803809 
L 201.898211 61.309272 
L 201.740428 61.336735 
L 201.740428 61.212549 
L 201.267076 61.29497 
L 201.267076 61.04557 
L 201.109292 61.072978 
L 201.109292 60.445702 
L 200.793724 60.499881 
L 200.793724 60.373685 
L 200.63594 60.400761 
L 200.63594 60.274289 
L 199.847021 60.409916 
L 199.847021 60.282856 
L 199.373669 60.364508 
L 199.373669 60.237011 
L 199.215885 60.264236 
L 199.215885 60.136459 
L 198.426966 60.272829 
L 198.426966 60.144451 
L 198.269182 60.171774 
L 198.269182 59.526413 
L 197.164695 59.716051 
L 197.164695 59.324625 
L 197.006911 59.351641 
L 197.006911 59.220663 
L 196.849127 59.247639 
L 196.849127 58.589151 
L 196.060208 58.722562 
L 196.060208 58.323615 
L 195.902424 58.350168 
L 195.902424 58.216666 
L 195.74464 58.243175 
L 195.74464 58.109367 
L 195.586856 58.135832 
L 195.586856 58.001718 
L 195.113504 58.081107 
L 195.113504 57.541382 
L 194.482369 57.646414 
L 194.482369 57.238197 
L 194.009017 57.316609 
L 194.009017 57.179812 
L 193.851233 57.205944 
L 193.851233 56.656105 
L 193.220097 56.759581 
L 193.220097 56.34366 
L 192.90453 56.395091 
L 192.90453 56.116264 
L 192.746746 56.141853 
L 192.746746 56.001991 
L 192.431178 56.053106 
L 192.431178 55.912815 
L 192.11561 55.963908 
L 192.11561 55.682224 
L 191.484475 55.784148 
L 191.484475 55.35864 
L 191.011123 55.434645 
L 191.011123 55.292025 
L 190.853339 55.317347 
L 190.853339 55.174381 
L 190.379987 55.250303 
L 190.379987 55.106789 
L 190.06442 55.157418 
L 190.06442 55.013452 
L 189.748852 55.064051 
L 189.748852 54.339448 
L 189.591068 54.364294 
L 189.591068 54.218514 
L 189.2755 54.268125 
L 189.2755 53.97538 
L 188.959932 54.02474 
L 188.959932 53.877771 
L 188.328797 53.976582 
L 188.328797 53.681009 
L 187.22431 53.854086 
L 187.22431 53.705145 
L 186.119822 53.879606 
L 186.119822 53.729625 
L 185.962038 53.754614 
L 185.962038 53.604255 
L 185.646471 53.654143 
L 185.646471 53.503289 
L 184.857551 53.628229 
L 184.857551 53.324573 
L 184.541983 53.374407 
L 184.541983 53.221938 
L 184.3842 53.246807 
L 184.3842 52.325475 
L 184.226416 52.349687 
L 184.226416 52.040101 
L 184.068632 52.064119 
L 184.068632 51.908782 
L 183.910848 51.932724 
L 183.910848 51.308045 
L 183.59528 51.355088 
L 183.59528 51.197956 
L 182.490793 51.363113 
L 182.490793 51.04624 
L 181.859657 51.140577 
L 181.859657 50.981195 
L 181.544089 51.028375 
L 181.544089 50.868441 
L 181.070738 50.939158 
L 181.070738 50.294874 
L 180.75517 50.341204 
L 180.75517 49.854012 
L 180.281818 49.922649 
L 180.281818 49.759239 
L 179.650683 49.850829 
L 179.650683 49.686571 
L 178.861763 49.80137 
L 178.861763 49.636119 
L 178.072844 49.751338 
L 178.072844 49.585083 
L 177.757276 49.631206 
L 177.757276 49.464353 
L 177.599492 49.487342 
L 177.599492 49.152385 
L 177.283924 49.197935 
L 177.283924 49.029687 
L 176.495005 49.143631 
L 176.495005 48.80472 
L 176.179437 48.850035 
L 176.179437 48.679792 
L 175.390518 48.793134 
L 175.390518 48.621826 
L 175.232734 48.644482 
L 175.232734 48.472686 
L 174.917166 48.517837 
L 174.917166 48.345405 
L 174.28603 48.435649 
L 174.28603 48.262274 
L 173.970463 48.307365 
L 173.970463 48.133341 
L 173.181543 48.246101 
L 173.181543 47.895473 
L 172.550408 47.985265 
L 172.550408 47.808799 
L 172.392624 47.831205 
L 172.392624 47.476883 
L 171.761488 47.5657 
L 171.761488 47.387363 
L 171.603704 47.409521 
L 171.603704 47.230659 
L 171.44592 47.252702 
L 171.44592 46.352059 
L 170.499217 46.480362 
L 170.499217 46.298125 
L 170.025865 46.362375 
L 170.025865 46.179255 
L 169.868082 46.200592 
L 169.868082 46.016921 
L 169.39473 46.080691 
L 169.39473 45.896124 
L 168.290243 46.045286 
L 168.290243 45.859121 
L 168.132459 45.880436 
L 168.132459 45.506571 
L 166.712404 45.697266 
L 166.712404 45.508134 
L 166.55462 45.52937 
L 166.55462 45.339651 
L 166.081268 45.403087 
L 166.081268 45.212413 
L 165.607916 45.275711 
L 165.607916 44.89202 
L 165.134565 44.954616 
L 165.134565 44.761584 
L 164.661213 44.824027 
L 164.661213 44.435563 
L 164.345645 44.476659 
L 164.345645 44.281405 
L 164.187861 44.301828 
L 164.187861 44.105952 
L 162.92559 44.269412 
L 162.92559 44.071539 
L 162.767806 44.091978 
L 162.767806 43.893466 
L 162.610023 43.913753 
L 162.610023 43.514997 
L 162.452239 43.534928 
L 162.452239 43.334678 
L 161.821103 43.414039 
L 161.821103 43.212524 
L 161.189967 43.29178 
L 161.189967 43.088985 
L 160.716616 43.148276 
L 160.716616 42.740045 
L 159.612129 42.877015 
L 159.612129 42.670708 
L 159.296561 42.709818 
L 159.296561 42.294909 
L 159.138777 42.314097 
L 159.138777 41.477616 
L 158.980993 41.495964 
L 158.980993 41.285402 
L 158.349857 41.358324 
L 158.349857 41.146367 
L 157.24537 41.274036 
L 157.24537 40.845402 
L 156.929802 40.881337 
L 156.929802 40.665789 
L 156.456451 40.719306 
L 156.456451 40.502534 
L 156.298667 40.52022 
L 156.298667 40.30269 
L 155.983099 40.337711 
L 155.983099 40.119177 
L 154.089692 40.329946 
L 154.089692 40.107934 
L 153.300773 40.196333 
L 153.300773 39.972518 
L 152.196286 40.096328 
L 152.196286 39.870165 
L 150.776231 40.030192 
L 150.776231 39.801101 
L 150.618447 39.81884 
L 150.618447 39.588905 
L 150.460663 39.60642 
L 150.460663 39.375635 
L 149.987311 39.427636 
L 149.987311 39.19545 
L 149.671743 39.229791 
L 149.671743 38.996465 
L 148.567256 39.116103 
L 148.567256 38.880225 
L 147.936121 38.94843 
L 147.936121 38.472562 
L 147.778337 38.489149 
L 147.778337 38.249998 
L 147.304985 38.299148 
L 147.304985 37.575296 
L 146.831633 37.622168 
L 146.831633 37.134624 
L 144.938227 37.318538 
L 144.938227 37.070098 
L 143.04482 37.25622 
L 143.04482 36.749641 
L 142.098117 36.841074 
L 142.098117 36.584758 
L 141.466981 36.645221 
L 141.466981 36.386847 
L 139.889142 36.537556 
L 139.889142 36.27501 
L 137.680168 36.48831 
L 137.680168 36.220002 
L 133.262219 36.662914 
L 133.262219 36.383133 
L 131.368812 36.57975 
L 131.368812 36.294246 
L 129.948757 36.442761 
L 129.948757 36.152581 
L 129.159838 36.234754 
L 129.159838 35.9415 
L 128.84427 35.973857 
L 128.84427 35.678796 
L 127.739783 35.790551 
L 127.739783 35.491406 
L 127.424215 35.522887 
L 127.424215 35.221863 
L 126.00416 35.361874 
L 126.00416 34.748424 
L 125.846376 34.763279 
L 125.846376 34.454557 
L 124.741889 34.556499 
L 124.741889 34.243308 
L 119.061668 34.788529 
L 119.061668 34.455132 
L 116.852694 34.678378 
L 116.852694 34.335637 
L 114.170368 34.612095 
L 114.170368 34.257567 
L 112.276961 34.455809 
L 112.276961 34.092045 
L 111.961393 34.124634 
L 111.961393 33.758098 
L 108.647932 34.101331 
L 108.647932 33.718324 
L 107.227877 33.867733 
L 107.227877 33.476278 
L 104.54555 33.760574 
L 104.54555 33.353669 
L 102.967712 33.522257 
L 102.967712 33.104922 
L 101.70544 33.238044 
L 101.70544 32.811589 
L 96.81414 33.345431 
L 96.81414 32.886034 
L 96.02522 32.974327 
L 96.02522 32.507207 
L 89.871649 33.230791 
L 89.871649 32.713183 
L 88.136026 32.930589 
L 88.136026 32.394535 
L 82.771373 33.106284 
L 82.771373 32.511783 
L 76.775586 33.433979 
L 73.777692 33.995777 
L 73.777692 33.272077 
L 73.619908 33.301249 
L 73.619908 32.569247 
L 69.833094 33.272077 
L 69.833094 32.46141 
L 68.255255 32.763865 
L 68.255255 31.91074 
L 63.837306 32.804732 
L 62.890603 33.030947 
L 62.890603 32.019574 
L 59.419357 32.859963 
L 59.419357 31.705709 
L 56.105896 32.585221 
L 53.42357 33.511932 
L 51.056811 34.565347 
L 51.056811 32.859963 
L 49.005621 33.817314 
L 47.585566 34.64579 
L 47.585566 32.490482 
L 46.007727 33.3702 
L 46.007727 30.886155 
L 44.272104 31.760993 
L 42.852049 32.732404 
L 41.747562 33.734654 
L 40.800858 34.853444 
L 39.854155 36.335086 
L 39.538587 36.941853 
L 39.538587 31.494331 
L 38.749668 32.490482 
L 37.960748 33.901696 
L 37.329613 35.538703 
L 36.856261 37.272006 
L 36.698477 37.994215 
L 36.698477 25.716656 
L 34.331719 25.716656 
L 34.331719 25.716656 
" clip-path="url(#p8cb74a16d9)" style="fill: none; stroke: #ff0000; stroke-width: 1.5; stroke-linecap: square"/>
   </g>
   <g id="line2d_14">
    <defs>
     <path id="m62a7ba4469" d="M 0 3 
C 0.795609 3 1.55874 2.683901 2.12132 2.12132 
C 2.683901 1.55874 3 0.795609 3 0 
C 3 -0.795609 2.683901 -1.55874 2.12132 -2.12132 
C 1.55874 -2.683901 0.795609 -3 0 -3 
C -0.795609 -3 -1.55874 -2.683901 -2.12132 -2.12132 
C -2.683901 -1.55874 -3 -0.795609 -3 0 
C -3 0.795609 -2.683901 1.55874 -2.12132 2.12132 
C -1.55874 2.683901 -0.795609 3 0 3 
z
" style="stroke: #000000"/>
    </defs>
    <g clip-path="url(#p8cb74a16d9)">
     <use xlink:href="#m62a7ba4469" x="215.467626" y="67.589949" style="fill: #ff0000; stroke: #000000"/>
    </g>
   </g>
   <g id="line2d_15">
    <path d="M 34.331719 89.239679 
L 230.772664 89.239679 
" clip-path="url(#p8cb74a16d9)" style="fill: none; stroke: #00bfbf; stroke-width: 1.5; stroke-linecap: square"/>
   </g>
   <g id="patch_4">
    <path d="M 34.331719 222.157601 
L 34.331719 25.716656 
" style="fill: none; stroke: #000000; stroke-width: 0.8; stroke-linejoin: miter; stroke-linecap: square"/>
   </g>
   <g id="patch_5">
    <path d="M 230.772664 222.157601 
L 230.772664 25.716656 
" style="fill: none; stroke: #000000; stroke-width: 0.8; stroke-linejoin: miter; stroke-linecap: square"/>
   </g>
   <g id="patch_6">
    <path d="M 34.331719 222.157601 
L 230.772664 222.157601 
" style="fill: none; stroke: #000000; stroke-width: 0.8; stroke-linejoin: miter; stroke-linecap: square"/>
   </g>
   <g id="patch_7">
    <path d="M 34.331719 25.716656 
L 230.772664 25.716656 
" style="fill: none; stroke: #000000; stroke-width: 0.8; stroke-linejoin: miter; stroke-linecap: square"/>
   </g>
   <g id="text_15">
    <text style="font: 7px 'Arial'" transform="translate(101.490785 12.210469)">t-SNE AP-SP model</text>
    <text style="font: 7px 'Arial'" transform="translate(87.62641 19.716656)">Precision - Recall (PR) curve</text>
   </g>
   <g id="legend_1">
    <g id="patch_8">
     <path d="M 47.553597 261.02835 
L 217.550785 261.02835 
Q 218.950785 261.02835 218.950785 259.62835 
L 218.950785 250.259288 
Q 218.950785 248.859288 217.550785 248.859288 
L 47.553597 248.859288 
Q 46.153597 248.859288 46.153597 250.259288 
L 46.153597 259.62835 
Q 46.153597 261.02835 47.553597 261.02835 
z
" style="fill: #ffffff; opacity: 0.8; stroke: #cccccc; stroke-linejoin: miter"/>
    </g>
    <g id="line2d_16">
     <path d="M 48.953597 254.305069 
L 55.953597 254.305069 
L 62.953597 254.305069 
" style="fill: none; stroke: #ff0000; stroke-width: 1.5; stroke-linecap: square"/>
    </g>
    <g id="text_16">
     <text style="font: 7px 'Arial'; text-anchor: start" x="68.553597" y="256.755069" transform="rotate(-0 68.553597 256.755069)">model performance</text>
    </g>
    <g id="line2d_17">
     <path d="M 142.855316 254.305069 
L 149.855316 254.305069 
L 156.855316 254.305069 
" style="fill: none; stroke: #00bfbf; stroke-width: 1.5; stroke-linecap: square"/>
    </g>
    <g id="text_17">
     <text style="font: 7px 'Arial'; text-anchor: start" x="162.455316" y="256.755069" transform="rotate(-0 162.455316 256.755069)">random guessing</text>
    </g>
   </g>
  </g>
 </g>
 <defs>
  <clipPath id="p8cb74a16d9">
   <rect x="34.331719" y="25.716656" width="196.440945" height="196.440945"/>
  </clipPath>
 </defs>
</svg>
