<?xml version="1.0" encoding="utf-8" standalone="no"?>
<!DOCTYPE svg PUBLIC "-//W3C//DTD SVG 1.1//EN"
  "http://www.w3.org/Graphics/SVG/1.1/DTD/svg11.dtd">
<svg xmlns:xlink="http://www.w3.org/1999/xlink" width="606.303125pt" height="439.248375pt" viewBox="0 0 606.303125 439.248375" xmlns="http://www.w3.org/2000/svg" version="1.1">
 <metadata>
  <rdf:RDF xmlns:dc="http://purl.org/dc/elements/1.1/" xmlns:cc="http://creativecommons.org/ns#" xmlns:rdf="http://www.w3.org/1999/02/22-rdf-syntax-ns#">
   <cc:Work>
    <dc:type rdf:resource="http://purl.org/dc/dcmitype/StillImage"/>
    <dc:date>2024-09-24T11:17:34.671140</dc:date>
    <dc:format>image/svg+xml</dc:format>
    <dc:creator>
     <cc:Agent>
      <dc:title>Matplotlib v3.7.0, https://matplotlib.org/</dc:title>
     </cc:Agent>
    </dc:creator>
   </cc:Work>
  </rdf:RDF>
 </metadata>
 <defs>
  <style type="text/css">*{stroke-linejoin: round; stroke-linecap: butt}</style>
 </defs>
 <g id="figure_1">
  <g id="patch_1">
   <path d="M -0 439.248375 
L 606.303125 439.248375 
L 606.303125 0 
L -0 0 
z
" style="fill: #ffffff"/>
  </g>
  <g id="axes_1">
   <g id="patch_2">
    <path d="M 124.591562 328.9341 
L 481.711563 328.9341 
L 481.711563 62.8221 
L 124.591562 62.8221 
z
" style="fill: #ffffff"/>
   </g>
   <g id="patch_3">
    <path d="M 481.711563 62.8221 
L 481.387801 71.233841 
L 478.201341 70.365968 
L 454.055464 119.592131 
L 453.720047 119.500776 
L 477.865924 70.274613 
L 474.679463 69.406741 
z
" clip-path="url(#p4f65f11fe3)" style="fill: #1f77b4; stroke: #000000; stroke-linejoin: miter"/>
   </g>
   <g id="matplotlib.axis_1">
    <g id="xtick_1">
     <g id="line2d_1">
      <defs>
       <path id="m696b96004e" d="M 0 0 
L 0 3.5 
" style="stroke: #000000; stroke-width: 0.8"/>
      </defs>
      <g>
       <use xlink:href="#m696b96004e" x="124.591562" y="328.9341" style="stroke: #000000; stroke-width: 0.8"/>
      </g>
     </g>
     <g id="text_1">
      <!-- 0.0 -->
      <g transform="translate(107.098125 352.650662) scale(0.22 -0.22)">
       <defs>
        <path id="DejaVuSans-30" d="M 2034 4250 
Q 1547 4250 1301 3770 
Q 1056 3291 1056 2328 
Q 1056 1369 1301 889 
Q 1547 409 2034 409 
Q 2525 409 2770 889 
Q 3016 1369 3016 2328 
Q 3016 3291 2770 3770 
Q 2525 4250 2034 4250 
z
M 2034 4750 
Q 2819 4750 3233 4129 
Q 3647 3509 3647 2328 
Q 3647 1150 3233 529 
Q 2819 -91 2034 -91 
Q 1250 -91 836 529 
Q 422 1150 422 2328 
Q 422 3509 836 4129 
Q 1250 4750 2034 4750 
z
" transform="scale(0.015625)"/>
        <path id="DejaVuSans-2e" d="M 684 794 
L 1344 794 
L 1344 0 
L 684 0 
L 684 794 
z
" transform="scale(0.015625)"/>
       </defs>
       <use xlink:href="#DejaVuSans-30"/>
       <use xlink:href="#DejaVuSans-2e" x="63.623047"/>
       <use xlink:href="#DejaVuSans-30" x="95.410156"/>
      </g>
     </g>
    </g>
    <g id="xtick_2">
     <g id="line2d_2">
      <g>
       <use xlink:href="#m696b96004e" x="196.015562" y="328.9341" style="stroke: #000000; stroke-width: 0.8"/>
      </g>
     </g>
     <g id="text_2">
      <!-- 0.2 -->
      <g transform="translate(178.522125 352.650662) scale(0.22 -0.22)">
       <defs>
        <path id="DejaVuSans-32" d="M 1228 531 
L 3431 531 
L 3431 0 
L 469 0 
L 469 531 
Q 828 903 1448 1529 
Q 2069 2156 2228 2338 
Q 2531 2678 2651 2914 
Q 2772 3150 2772 3378 
Q 2772 3750 2511 3984 
Q 2250 4219 1831 4219 
Q 1534 4219 1204 4116 
Q 875 4013 500 3803 
L 500 4441 
Q 881 4594 1212 4672 
Q 1544 4750 1819 4750 
Q 2544 4750 2975 4387 
Q 3406 4025 3406 3419 
Q 3406 3131 3298 2873 
Q 3191 2616 2906 2266 
Q 2828 2175 2409 1742 
Q 1991 1309 1228 531 
z
" transform="scale(0.015625)"/>
       </defs>
       <use xlink:href="#DejaVuSans-30"/>
       <use xlink:href="#DejaVuSans-2e" x="63.623047"/>
       <use xlink:href="#DejaVuSans-32" x="95.410156"/>
      </g>
     </g>
    </g>
    <g id="xtick_3">
     <g id="line2d_3">
      <g>
       <use xlink:href="#m696b96004e" x="267.439562" y="328.9341" style="stroke: #000000; stroke-width: 0.8"/>
      </g>
     </g>
     <g id="text_3">
      <!-- 0.4 -->
      <g transform="translate(249.946125 352.650662) scale(0.22 -0.22)">
       <defs>
        <path id="DejaVuSans-34" d="M 2419 4116 
L 825 1625 
L 2419 1625 
L 2419 4116 
z
M 2253 4666 
L 3047 4666 
L 3047 1625 
L 3713 1625 
L 3713 1100 
L 3047 1100 
L 3047 0 
L 2419 0 
L 2419 1100 
L 313 1100 
L 313 1709 
L 2253 4666 
z
" transform="scale(0.015625)"/>
       </defs>
       <use xlink:href="#DejaVuSans-30"/>
       <use xlink:href="#DejaVuSans-2e" x="63.623047"/>
       <use xlink:href="#DejaVuSans-34" x="95.410156"/>
      </g>
     </g>
    </g>
    <g id="xtick_4">
     <g id="line2d_4">
      <g>
       <use xlink:href="#m696b96004e" x="338.863563" y="328.9341" style="stroke: #000000; stroke-width: 0.8"/>
      </g>
     </g>
     <g id="text_4">
      <!-- 0.6 -->
      <g transform="translate(321.370125 352.650662) scale(0.22 -0.22)">
       <defs>
        <path id="DejaVuSans-36" d="M 2113 2584 
Q 1688 2584 1439 2293 
Q 1191 2003 1191 1497 
Q 1191 994 1439 701 
Q 1688 409 2113 409 
Q 2538 409 2786 701 
Q 3034 994 3034 1497 
Q 3034 2003 2786 2293 
Q 2538 2584 2113 2584 
z
M 3366 4563 
L 3366 3988 
Q 3128 4100 2886 4159 
Q 2644 4219 2406 4219 
Q 1781 4219 1451 3797 
Q 1122 3375 1075 2522 
Q 1259 2794 1537 2939 
Q 1816 3084 2150 3084 
Q 2853 3084 3261 2657 
Q 3669 2231 3669 1497 
Q 3669 778 3244 343 
Q 2819 -91 2113 -91 
Q 1303 -91 875 529 
Q 447 1150 447 2328 
Q 447 3434 972 4092 
Q 1497 4750 2381 4750 
Q 2619 4750 2861 4703 
Q 3103 4656 3366 4563 
z
" transform="scale(0.015625)"/>
       </defs>
       <use xlink:href="#DejaVuSans-30"/>
       <use xlink:href="#DejaVuSans-2e" x="63.623047"/>
       <use xlink:href="#DejaVuSans-36" x="95.410156"/>
      </g>
     </g>
    </g>
    <g id="xtick_5">
     <g id="line2d_5">
      <g>
       <use xlink:href="#m696b96004e" x="410.287562" y="328.9341" style="stroke: #000000; stroke-width: 0.8"/>
      </g>
     </g>
     <g id="text_5">
      <!-- 0.8 -->
      <g transform="translate(392.794125 352.650662) scale(0.22 -0.22)">
       <defs>
        <path id="DejaVuSans-38" d="M 2034 2216 
Q 1584 2216 1326 1975 
Q 1069 1734 1069 1313 
Q 1069 891 1326 650 
Q 1584 409 2034 409 
Q 2484 409 2743 651 
Q 3003 894 3003 1313 
Q 3003 1734 2745 1975 
Q 2488 2216 2034 2216 
z
M 1403 2484 
Q 997 2584 770 2862 
Q 544 3141 544 3541 
Q 544 4100 942 4425 
Q 1341 4750 2034 4750 
Q 2731 4750 3128 4425 
Q 3525 4100 3525 3541 
Q 3525 3141 3298 2862 
Q 3072 2584 2669 2484 
Q 3125 2378 3379 2068 
Q 3634 1759 3634 1313 
Q 3634 634 3220 271 
Q 2806 -91 2034 -91 
Q 1263 -91 848 271 
Q 434 634 434 1313 
Q 434 1759 690 2068 
Q 947 2378 1403 2484 
z
M 1172 3481 
Q 1172 3119 1398 2916 
Q 1625 2713 2034 2713 
Q 2441 2713 2670 2916 
Q 2900 3119 2900 3481 
Q 2900 3844 2670 4047 
Q 2441 4250 2034 4250 
Q 1625 4250 1398 4047 
Q 1172 3844 1172 3481 
z
" transform="scale(0.015625)"/>
       </defs>
       <use xlink:href="#DejaVuSans-30"/>
       <use xlink:href="#DejaVuSans-2e" x="63.623047"/>
       <use xlink:href="#DejaVuSans-38" x="95.410156"/>
      </g>
     </g>
    </g>
    <g id="xtick_6">
     <g id="line2d_6">
      <g>
       <use xlink:href="#m696b96004e" x="481.711563" y="328.9341" style="stroke: #000000; stroke-width: 0.8"/>
      </g>
     </g>
     <g id="text_6">
      <!-- 1.0 -->
      <g transform="translate(464.218125 352.650662) scale(0.22 -0.22)">
       <defs>
        <path id="DejaVuSans-31" d="M 794 531 
L 1825 531 
L 1825 4091 
L 703 3866 
L 703 4441 
L 1819 4666 
L 2450 4666 
L 2450 531 
L 3481 531 
L 3481 0 
L 794 0 
L 794 531 
z
" transform="scale(0.015625)"/>
       </defs>
       <use xlink:href="#DejaVuSans-31"/>
       <use xlink:href="#DejaVuSans-2e" x="63.623047"/>
       <use xlink:href="#DejaVuSans-30" x="95.410156"/>
      </g>
     </g>
    </g>
    <g id="text_7">
     <!-- Recall -->
     <g transform="translate(270.33375 377.942537) scale(0.22 -0.22)">
      <defs>
       <path id="DejaVuSans-52" d="M 2841 2188 
Q 3044 2119 3236 1894 
Q 3428 1669 3622 1275 
L 4263 0 
L 3584 0 
L 2988 1197 
Q 2756 1666 2539 1819 
Q 2322 1972 1947 1972 
L 1259 1972 
L 1259 0 
L 628 0 
L 628 4666 
L 2053 4666 
Q 2853 4666 3247 4331 
Q 3641 3997 3641 3322 
Q 3641 2881 3436 2590 
Q 3231 2300 2841 2188 
z
M 1259 4147 
L 1259 2491 
L 2053 2491 
Q 2509 2491 2742 2702 
Q 2975 2913 2975 3322 
Q 2975 3731 2742 3939 
Q 2509 4147 2053 4147 
L 1259 4147 
z
" transform="scale(0.015625)"/>
       <path id="DejaVuSans-65" d="M 3597 1894 
L 3597 1613 
L 953 1613 
Q 991 1019 1311 708 
Q 1631 397 2203 397 
Q 2534 397 2845 478 
Q 3156 559 3463 722 
L 3463 178 
Q 3153 47 2828 -22 
Q 2503 -91 2169 -91 
Q 1331 -91 842 396 
Q 353 884 353 1716 
Q 353 2575 817 3079 
Q 1281 3584 2069 3584 
Q 2775 3584 3186 3129 
Q 3597 2675 3597 1894 
z
M 3022 2063 
Q 3016 2534 2758 2815 
Q 2500 3097 2075 3097 
Q 1594 3097 1305 2825 
Q 1016 2553 972 2059 
L 3022 2063 
z
" transform="scale(0.015625)"/>
       <path id="DejaVuSans-63" d="M 3122 3366 
L 3122 2828 
Q 2878 2963 2633 3030 
Q 2388 3097 2138 3097 
Q 1578 3097 1268 2742 
Q 959 2388 959 1747 
Q 959 1106 1268 751 
Q 1578 397 2138 397 
Q 2388 397 2633 464 
Q 2878 531 3122 666 
L 3122 134 
Q 2881 22 2623 -34 
Q 2366 -91 2075 -91 
Q 1284 -91 818 406 
Q 353 903 353 1747 
Q 353 2603 823 3093 
Q 1294 3584 2113 3584 
Q 2378 3584 2631 3529 
Q 2884 3475 3122 3366 
z
" transform="scale(0.015625)"/>
       <path id="DejaVuSans-61" d="M 2194 1759 
Q 1497 1759 1228 1600 
Q 959 1441 959 1056 
Q 959 750 1161 570 
Q 1363 391 1709 391 
Q 2188 391 2477 730 
Q 2766 1069 2766 1631 
L 2766 1759 
L 2194 1759 
z
M 3341 1997 
L 3341 0 
L 2766 0 
L 2766 531 
Q 2569 213 2275 61 
Q 1981 -91 1556 -91 
Q 1019 -91 701 211 
Q 384 513 384 1019 
Q 384 1609 779 1909 
Q 1175 2209 1959 2209 
L 2766 2209 
L 2766 2266 
Q 2766 2663 2505 2880 
Q 2244 3097 1772 3097 
Q 1472 3097 1187 3025 
Q 903 2953 641 2809 
L 641 3341 
Q 956 3463 1253 3523 
Q 1550 3584 1831 3584 
Q 2591 3584 2966 3190 
Q 3341 2797 3341 1997 
z
" transform="scale(0.015625)"/>
       <path id="DejaVuSans-6c" d="M 603 4863 
L 1178 4863 
L 1178 0 
L 603 0 
L 603 4863 
z
" transform="scale(0.015625)"/>
      </defs>
      <use xlink:href="#DejaVuSans-52"/>
      <use xlink:href="#DejaVuSans-65" x="64.982422"/>
      <use xlink:href="#DejaVuSans-63" x="126.505859"/>
      <use xlink:href="#DejaVuSans-61" x="181.486328"/>
      <use xlink:href="#DejaVuSans-6c" x="242.765625"/>
      <use xlink:href="#DejaVuSans-6c" x="270.548828"/>
     </g>
    </g>
   </g>
   <g id="matplotlib.axis_2">
    <g id="ytick_1">
     <g id="line2d_7">
      <defs>
       <path id="ma162acb9eb" d="M 0 0 
L -3.5 0 
" style="stroke: #000000; stroke-width: 0.8"/>
      </defs>
      <g>
       <use xlink:href="#ma162acb9eb" x="124.591562" y="328.9341" style="stroke: #000000; stroke-width: 0.8"/>
      </g>
     </g>
     <g id="text_8">
      <!-- 0.0 -->
      <g transform="translate(82.604687 337.292381) scale(0.22 -0.22)">
       <use xlink:href="#DejaVuSans-30"/>
       <use xlink:href="#DejaVuSans-2e" x="63.623047"/>
       <use xlink:href="#DejaVuSans-30" x="95.410156"/>
      </g>
     </g>
    </g>
    <g id="ytick_2">
     <g id="line2d_8">
      <g>
       <use xlink:href="#ma162acb9eb" x="124.591562" y="275.7117" style="stroke: #000000; stroke-width: 0.8"/>
      </g>
     </g>
     <g id="text_9">
      <!-- 0.2 -->
      <g transform="translate(82.604687 284.069981) scale(0.22 -0.22)">
       <use xlink:href="#DejaVuSans-30"/>
       <use xlink:href="#DejaVuSans-2e" x="63.623047"/>
       <use xlink:href="#DejaVuSans-32" x="95.410156"/>
      </g>
     </g>
    </g>
    <g id="ytick_3">
     <g id="line2d_9">
      <g>
       <use xlink:href="#ma162acb9eb" x="124.591562" y="222.4893" style="stroke: #000000; stroke-width: 0.8"/>
      </g>
     </g>
     <g id="text_10">
      <!-- 0.4 -->
      <g transform="translate(82.604687 230.847581) scale(0.22 -0.22)">
       <use xlink:href="#DejaVuSans-30"/>
       <use xlink:href="#DejaVuSans-2e" x="63.623047"/>
       <use xlink:href="#DejaVuSans-34" x="95.410156"/>
      </g>
     </g>
    </g>
    <g id="ytick_4">
     <g id="line2d_10">
      <g>
       <use xlink:href="#ma162acb9eb" x="124.591562" y="169.2669" style="stroke: #000000; stroke-width: 0.8"/>
      </g>
     </g>
     <g id="text_11">
      <!-- 0.6 -->
      <g transform="translate(82.604687 177.625181) scale(0.22 -0.22)">
       <use xlink:href="#DejaVuSans-30"/>
       <use xlink:href="#DejaVuSans-2e" x="63.623047"/>
       <use xlink:href="#DejaVuSans-36" x="95.410156"/>
      </g>
     </g>
    </g>
    <g id="ytick_5">
     <g id="line2d_11">
      <g>
       <use xlink:href="#ma162acb9eb" x="124.591562" y="116.0445" style="stroke: #000000; stroke-width: 0.8"/>
      </g>
     </g>
     <g id="text_12">
      <!-- 0.8 -->
      <g transform="translate(82.604687 124.402781) scale(0.22 -0.22)">
       <use xlink:href="#DejaVuSans-30"/>
       <use xlink:href="#DejaVuSans-2e" x="63.623047"/>
       <use xlink:href="#DejaVuSans-38" x="95.410156"/>
      </g>
     </g>
    </g>
    <g id="ytick_6">
     <g id="line2d_12">
      <g>
       <use xlink:href="#ma162acb9eb" x="124.591562" y="62.8221" style="stroke: #000000; stroke-width: 0.8"/>
      </g>
     </g>
     <g id="text_13">
      <!-- 1.0 -->
      <g transform="translate(82.604687 71.180381) scale(0.22 -0.22)">
       <use xlink:href="#DejaVuSans-31"/>
       <use xlink:href="#DejaVuSans-2e" x="63.623047"/>
       <use xlink:href="#DejaVuSans-30" x="95.410156"/>
      </g>
     </g>
    </g>
    <g id="text_14">
     <!-- Precision -->
     <g transform="translate(74.029375 244.953569) rotate(-90) scale(0.22 -0.22)">
      <defs>
       <path id="DejaVuSans-50" d="M 1259 4147 
L 1259 2394 
L 2053 2394 
Q 2494 2394 2734 2622 
Q 2975 2850 2975 3272 
Q 2975 3691 2734 3919 
Q 2494 4147 2053 4147 
L 1259 4147 
z
M 628 4666 
L 2053 4666 
Q 2838 4666 3239 4311 
Q 3641 3956 3641 3272 
Q 3641 2581 3239 2228 
Q 2838 1875 2053 1875 
L 1259 1875 
L 1259 0 
L 628 0 
L 628 4666 
z
" transform="scale(0.015625)"/>
       <path id="DejaVuSans-72" d="M 2631 2963 
Q 2534 3019 2420 3045 
Q 2306 3072 2169 3072 
Q 1681 3072 1420 2755 
Q 1159 2438 1159 1844 
L 1159 0 
L 581 0 
L 581 3500 
L 1159 3500 
L 1159 2956 
Q 1341 3275 1631 3429 
Q 1922 3584 2338 3584 
Q 2397 3584 2469 3576 
Q 2541 3569 2628 3553 
L 2631 2963 
z
" transform="scale(0.015625)"/>
       <path id="DejaVuSans-69" d="M 603 3500 
L 1178 3500 
L 1178 0 
L 603 0 
L 603 3500 
z
M 603 4863 
L 1178 4863 
L 1178 4134 
L 603 4134 
L 603 4863 
z
" transform="scale(0.015625)"/>
       <path id="DejaVuSans-73" d="M 2834 3397 
L 2834 2853 
Q 2591 2978 2328 3040 
Q 2066 3103 1784 3103 
Q 1356 3103 1142 2972 
Q 928 2841 928 2578 
Q 928 2378 1081 2264 
Q 1234 2150 1697 2047 
L 1894 2003 
Q 2506 1872 2764 1633 
Q 3022 1394 3022 966 
Q 3022 478 2636 193 
Q 2250 -91 1575 -91 
Q 1294 -91 989 -36 
Q 684 19 347 128 
L 347 722 
Q 666 556 975 473 
Q 1284 391 1588 391 
Q 1994 391 2212 530 
Q 2431 669 2431 922 
Q 2431 1156 2273 1281 
Q 2116 1406 1581 1522 
L 1381 1569 
Q 847 1681 609 1914 
Q 372 2147 372 2553 
Q 372 3047 722 3315 
Q 1072 3584 1716 3584 
Q 2034 3584 2315 3537 
Q 2597 3491 2834 3397 
z
" transform="scale(0.015625)"/>
       <path id="DejaVuSans-6f" d="M 1959 3097 
Q 1497 3097 1228 2736 
Q 959 2375 959 1747 
Q 959 1119 1226 758 
Q 1494 397 1959 397 
Q 2419 397 2687 759 
Q 2956 1122 2956 1747 
Q 2956 2369 2687 2733 
Q 2419 3097 1959 3097 
z
M 1959 3584 
Q 2709 3584 3137 3096 
Q 3566 2609 3566 1747 
Q 3566 888 3137 398 
Q 2709 -91 1959 -91 
Q 1206 -91 779 398 
Q 353 888 353 1747 
Q 353 2609 779 3096 
Q 1206 3584 1959 3584 
z
" transform="scale(0.015625)"/>
       <path id="DejaVuSans-6e" d="M 3513 2113 
L 3513 0 
L 2938 0 
L 2938 2094 
Q 2938 2591 2744 2837 
Q 2550 3084 2163 3084 
Q 1697 3084 1428 2787 
Q 1159 2491 1159 1978 
L 1159 0 
L 581 0 
L 581 3500 
L 1159 3500 
L 1159 2956 
Q 1366 3272 1645 3428 
Q 1925 3584 2291 3584 
Q 2894 3584 3203 3211 
Q 3513 2838 3513 2113 
z
" transform="scale(0.015625)"/>
      </defs>
      <use xlink:href="#DejaVuSans-50"/>
      <use xlink:href="#DejaVuSans-72" x="58.552734"/>
      <use xlink:href="#DejaVuSans-65" x="97.416016"/>
      <use xlink:href="#DejaVuSans-63" x="158.939453"/>
      <use xlink:href="#DejaVuSans-69" x="213.919922"/>
      <use xlink:href="#DejaVuSans-73" x="241.703125"/>
      <use xlink:href="#DejaVuSans-69" x="293.802734"/>
      <use xlink:href="#DejaVuSans-6f" x="321.585938"/>
      <use xlink:href="#DejaVuSans-6e" x="382.767578"/>
     </g>
    </g>
   </g>
   <g id="line2d_13">
    <path d="M 481.711563 148.874622 
L 481.711563 148.77671 
L 481.424719 148.823475 
L 481.424719 148.725429 
L 481.424719 148.627276 
L 480.851032 148.622532 
L 480.851032 148.425578 
L 480.564189 148.472356 
L 480.564189 148.373689 
L 480.564189 147.181215 
L 480.277346 147.227668 
L 480.277346 147.127555 
L 480.277346 146.625327 
L 479.990502 146.671652 
L 479.990502 146.570843 
L 479.990502 146.16649 
L 479.703659 146.212716 
L 479.703659 146.111316 
L 479.703659 145.602628 
L 479.416816 145.648719 
L 479.416816 145.54661 
L 479.416816 145.444388 
L 478.843129 145.5366 
L 478.843129 145.434201 
L 478.843129 144.920483 
L 478.269442 145.012522 
L 478.269442 144.909369 
L 478.269442 144.391864 
L 477.695755 144.379806 
L 477.695755 143.649105 
L 477.122069 143.740641 
L 477.122069 143.635716 
L 477.122069 143.320225 
L 476.835225 143.365936 
L 476.835225 143.2605 
L 476.835225 143.049267 
L 476.548382 143.094929 
L 476.548382 142.989098 
L 476.548382 142.777074 
L 476.261538 142.822684 
L 476.261538 142.716456 
L 476.261538 140.783401 
L 475.974695 140.828387 
L 475.974695 140.719781 
L 475.974695 139.516784 
L 475.687852 139.561374 
L 475.687852 139.45121 
L 475.687852 139.009267 
L 475.401008 139.053717 
L 475.401008 138.942871 
L 475.401008 138.163305 
L 475.114165 138.207494 
L 475.114165 138.095565 
L 475.114165 137.421224 
L 474.827322 137.465183 
L 474.827322 136.558285 
L 474.540478 136.601967 
L 474.540478 136.487959 
L 473.966791 136.575396 
L 473.966791 136.461169 
L 473.679948 136.504924 
L 473.679948 136.275977 
L 473.393105 136.3197 
L 473.393105 135.629326 
L 473.106261 135.672845 
L 473.106261 135.093524 
L 472.532575 135.180285 
L 472.532575 134.830759 
L 471.958888 134.917464 
L 471.958888 134.683568 
L 471.672044 134.726911 
L 471.672044 133.666956 
L 471.098358 133.752985 
L 471.098358 133.515683 
L 470.811514 133.558684 
L 470.811514 132.362996 
L 470.524671 132.405581 
L 470.524671 132.285159 
L 469.950984 132.37039 
L 469.950984 131.886838 
L 469.664141 131.929339 
L 469.664141 131.199241 
L 469.377297 131.241502 
L 469.377297 130.996833 
L 469.090454 131.039046 
L 469.090454 130.916435 
L 468.803611 130.958651 
L 468.803611 130.835837 
L 468.516767 130.878055 
L 468.516767 130.63187 
L 468.229924 130.67404 
L 468.229924 130.427141 
L 467.943081 130.469263 
L 467.943081 130.221646 
L 467.656237 130.263718 
L 467.656237 129.39181 
L 467.08255 129.475388 
L 467.08255 129.224654 
L 466.508864 129.308232 
L 466.508864 128.804444 
L 465.935177 128.887808 
L 465.935177 128.253948 
L 465.648334 128.295439 
L 465.648334 128.16813 
L 465.36149 128.20962 
L 465.36149 127.826558 
L 465.074647 127.867936 
L 465.074647 127.483243 
L 464.787803 127.524507 
L 464.787803 127.267115 
L 464.50096 127.30832 
L 464.50096 127.179321 
L 464.214117 127.220523 
L 464.214117 127.091302 
L 463.927273 127.1325 
L 463.927273 126.743672 
L 463.64043 126.784753 
L 463.64043 126.654753 
L 463.066743 126.736959 
L 463.066743 126.606677 
L 462.206213 126.730211 
L 462.206213 126.599588 
L 461.91937 126.640815 
L 461.91937 125.98487 
L 461.632526 126.025859 
L 461.632526 125.630069 
L 461.345683 125.670933 
L 461.345683 125.406095 
L 460.771996 125.487744 
L 460.771996 124.822016 
L 460.485153 124.862619 
L 460.485153 124.326646 
L 459.337779 124.488607 
L 459.337779 124.084031 
L 458.764093 124.164959 
L 458.764093 124.029619 
L 458.477249 124.0701 
L 458.477249 123.526694 
L 458.190406 123.566976 
L 458.190406 123.43061 
L 457.616719 123.511206 
L 457.616719 123.374531 
L 456.756189 123.495636 
L 456.756189 123.221352 
L 456.469346 123.261699 
L 456.469346 123.124218 
L 456.182502 123.164554 
L 456.182502 122.888908 
L 455.895659 122.929167 
L 455.895659 122.097384 
L 455.608816 122.1373 
L 455.608816 121.438662 
L 455.035129 121.517981 
L 455.035129 120.813921 
L 454.748285 120.853317 
L 454.748285 120.711862 
L 454.461442 120.751243 
L 454.461442 120.183213 
L 454.174599 120.222368 
L 454.174599 119.937047 
L 453.887755 119.976114 
L 453.887755 119.546454 
L 453.314069 119.624318 
L 453.314069 119.480562 
L 452.740382 119.558496 
L 452.740382 119.414397 
L 452.166695 119.492402 
L 452.166695 119.347959 
L 451.879852 119.38697 
L 451.879852 119.242255 
L 449.871948 119.516329 
L 449.871948 119.225269 
L 449.585105 119.264492 
L 449.585105 118.972473 
L 449.298261 119.011602 
L 449.298261 118.130192 
L 449.011418 118.168924 
L 449.011418 117.725207 
L 448.437731 117.802373 
L 448.437731 117.653897 
L 447.864044 117.731125 
L 447.864044 117.582286 
L 446.429828 117.775922 
L 446.429828 117.176891 
L 445.856141 117.2541 
L 445.856141 117.103652 
L 445.282454 117.180921 
L 445.282454 117.0301 
L 444.995611 117.068737 
L 444.995611 116.766288 
L 444.421924 116.843407 
L 444.421924 116.539769 
L 444.135081 116.578249 
L 444.135081 116.273578 
L 443.848237 116.311949 
L 443.848237 116.006238 
L 443.27455 116.082817 
L 443.27455 115.929466 
L 442.987707 115.967755 
L 442.987707 115.351801 
L 442.41402 115.427876 
L 442.41402 115.118222 
L 442.127177 115.156173 
L 442.127177 114.845449 
L 440.69296 115.035177 
L 440.69296 114.5661 
L 440.406117 114.603952 
L 440.406117 113.817131 
L 437.824526 114.156344 
L 437.824526 113.997485 
L 437.25084 114.0733 
L 437.25084 113.754515 
L 436.963996 113.792327 
L 436.963996 113.632489 
L 436.677153 113.670267 
L 436.677153 113.5101 
L 436.103466 113.585641 
L 436.103466 113.425053 
L 434.669249 113.614435 
L 434.669249 112.805571 
L 432.661346 113.069834 
L 432.661346 112.743262 
L 432.374502 112.781052 
L 432.374502 112.6173 
L 431.513972 112.730729 
L 431.513972 112.237114 
L 431.227129 112.274749 
L 431.227129 111.944224 
L 430.653442 112.019276 
L 430.653442 111.521004 
L 429.219225 111.708163 
L 429.219225 111.03823 
L 428.932382 111.075433 
L 428.932382 110.907203 
L 428.071852 111.018855 
L 428.071852 110.681002 
L 427.785008 110.718131 
L 427.785008 109.86838 
L 427.211322 109.941776 
L 427.211322 109.770821 
L 426.924478 109.8075 
L 426.924478 109.636173 
L 425.490261 109.819902 
L 425.490261 109.647778 
L 424.629731 109.75839 
L 424.629731 109.585674 
L 424.342888 109.622554 
L 424.342888 109.449459 
L 422.908671 109.634195 
L 422.908671 109.460286 
L 422.621828 109.4973 
L 422.621828 108.62305 
L 420.613924 108.879946 
L 420.613924 108.349695 
L 420.327081 108.386293 
L 420.327081 108.208861 
L 420.040237 108.245404 
L 420.040237 107.353372 
L 418.60602 107.5341 
L 418.60602 106.993661 
L 418.319177 107.029631 
L 418.319177 106.84878 
L 418.032334 106.884691 
L 418.032334 106.703426 
L 417.74549 106.739276 
L 417.74549 106.557596 
L 416.88496 106.665143 
L 416.88496 105.933995 
L 415.737587 106.076278 
L 415.737587 105.523281 
L 414.877056 105.629503 
L 414.877056 105.444188 
L 414.590213 105.479588 
L 414.590213 104.73474 
L 413.44284 104.874916 
L 413.44284 104.311481 
L 412.869153 104.381153 
L 412.869153 104.003436 
L 412.582309 104.0381 
L 412.582309 103.848634 
L 412.008623 103.917877 
L 412.008623 103.72783 
L 411.434936 103.797044 
L 411.434936 103.415456 
L 410.287562 103.553529 
L 410.287562 102.977108 
L 409.427032 103.080069 
L 409.427032 102.886866 
L 409.140189 102.921168 
L 409.140189 102.727498 
L 408.279659 102.830347 
L 408.279659 102.635933 
L 407.705972 102.704519 
L 407.705972 102.509493 
L 407.132285 102.578038 
L 407.132285 101.596442 
L 406.845442 101.6301 
L 406.845442 101.432616 
L 406.271755 101.499823 
L 406.271755 101.103251 
L 405.698069 101.170117 
L 405.698069 100.971023 
L 404.550695 101.104879 
L 404.550695 100.704476 
L 402.542791 100.938938 
L 402.542791 100.737173 
L 400.534888 100.973509 
L 400.534888 100.770335 
L 400.248044 100.804187 
L 400.248044 100.6005 
L 399.674358 100.668082 
L 399.674358 100.463726 
L 398.240141 100.632978 
L 398.240141 100.221624 
L 397.666454 100.289132 
L 397.666454 100.082588 
L 397.379611 100.116277 
L 397.379611 98.86818 
L 397.092767 98.900979 
L 397.092767 98.481593 
L 396.805924 98.514129 
L 396.805924 98.3037 
L 396.519081 98.336133 
L 396.519081 97.489902 
L 395.945394 97.553629 
L 395.945394 97.340768 
L 393.93749 97.5645 
L 393.93749 97.135243 
L 392.790117 97.263039 
L 392.790117 97.047129 
L 392.21643 97.111041 
L 392.21643 96.894384 
L 391.3559 96.990182 
L 391.3559 96.117393 
L 390.782213 96.180155 
L 390.782213 95.520172 
L 389.921683 95.613152 
L 389.921683 95.391785 
L 388.774309 95.51586 
L 388.774309 95.293345 
L 387.340093 95.448859 
L 387.340093 95.224999 
L 385.905876 95.381083 
L 385.905876 95.155863 
L 385.332189 95.218343 
L 385.332189 94.992313 
L 385.045346 95.023455 
L 385.045346 94.5697 
L 384.471659 94.631406 
L 384.471659 94.403485 
L 383.037442 94.557842 
L 383.037442 94.098731 
L 382.463755 94.160118 
L 382.463755 93.929495 
L 381.029538 94.083036 
L 381.029538 93.85097 
L 380.742695 93.881661 
L 380.742695 93.648936 
L 380.169008 93.7101 
L 380.169008 93.476511 
L 379.021635 93.598762 
L 379.021635 93.363896 
L 378.447948 93.42498 
L 378.447948 93.189235 
L 377.013731 93.341987 
L 377.013731 92.867003 
L 375.866358 92.988643 
L 375.866358 92.749589 
L 375.579514 92.779942 
L 375.579514 92.299954 
L 374.432141 92.420271 
L 374.432141 92.178684 
L 374.145297 92.208701 
L 374.145297 91.966403 
L 373.858454 91.996264 
L 373.858454 90.776193 
L 372.137394 90.950001 
L 372.137394 90.703129 
L 371.276864 90.790167 
L 371.276864 90.5421 
L 370.99002 90.571005 
L 370.99002 90.322192 
L 370.12949 90.40858 
L 370.12949 90.158553 
L 368.121587 90.360617 
L 368.121587 90.108426 
L 367.834743 90.1373 
L 367.834743 89.630838 
L 365.253153 89.889166 
L 365.253153 89.632955 
L 364.966309 89.661722 
L 364.966309 89.404717 
L 364.105779 89.490652 
L 364.105779 89.232352 
L 363.245249 89.3181 
L 363.245249 88.798326 
L 362.384719 88.883123 
L 362.384719 88.621629 
L 361.524189 88.706218 
L 361.524189 88.17998 
L 360.950502 88.23565 
L 360.950502 87.971146 
L 360.663659 87.998813 
L 360.663659 87.733466 
L 358.368912 87.9549 
L 358.368912 87.686847 
L 358.082069 87.714537 
L 358.082069 87.445618 
L 357.795225 87.4731 
L 357.795225 86.932919 
L 357.508382 86.959919 
L 357.508382 86.688647 
L 356.361008 86.796154 
L 356.361008 86.523169 
L 355.213635 86.630535 
L 355.213635 86.355814 
L 354.353105 86.436134 
L 354.353105 85.883117 
L 352.345201 86.068666 
L 352.345201 85.789189 
L 351.771514 85.842169 
L 351.771514 85.280107 
L 351.484671 85.3061 
L 351.484671 84.172947 
L 351.197828 84.197802 
L 351.197828 83.912562 
L 350.050454 84.011346 
L 350.050454 83.724215 
L 348.04255 83.897164 
L 348.04255 83.316508 
L 347.468864 83.365188 
L 347.468864 83.073192 
L 346.608334 83.145689 
L 346.608334 82.852035 
L 346.32149 82.875995 
L 346.32149 82.581314 
L 345.747803 82.628755 
L 345.747803 82.332715 
L 342.305683 82.618237 
L 342.305683 82.317485 
L 340.871466 82.437235 
L 340.871466 82.134041 
L 338.863563 82.301763 
L 338.863563 81.995387 
L 336.281972 82.21217 
L 336.281972 81.901828 
L 335.995129 81.925858 
L 335.995129 81.614372 
L 335.708285 81.6381 
L 335.708285 81.325463 
L 334.847755 81.395907 
L 334.847755 81.081373 
L 334.274069 81.127894 
L 334.274069 80.811814 
L 332.266165 80.973884 
L 332.266165 80.654347 
L 331.118791 80.746742 
L 331.118791 80.1021 
L 330.831948 80.124571 
L 330.831948 79.8006 
L 329.971418 79.867182 
L 329.971418 78.886604 
L 329.110888 78.9501 
L 329.110888 78.28964 
L 325.668767 78.538782 
L 325.668767 78.202229 
L 322.226647 78.454362 
L 322.226647 77.768116 
L 320.505587 77.891978 
L 320.505587 77.544756 
L 319.358213 77.626662 
L 319.358213 77.276652 
L 316.489779 77.480812 
L 316.489779 77.12515 
L 312.473972 77.4141 
L 312.473972 77.050632 
L 304.442358 77.65063 
L 304.442358 77.27162 
L 301.000237 77.537971 
L 301.000237 77.151208 
L 298.418647 77.352396 
L 298.418647 76.9593 
L 296.98443 77.070617 
L 296.98443 76.673356 
L 296.410743 76.717189 
L 296.410743 76.317479 
L 294.40284 76.468869 
L 294.40284 76.063628 
L 293.829153 76.106274 
L 293.829153 75.698487 
L 291.247562 75.888156 
L 291.247562 75.057134 
L 290.960719 75.077258 
L 290.960719 74.659042 
L 288.952816 74.79714 
L 288.952816 74.372871 
L 278.626454 75.111464 
L 278.626454 74.659822 
L 274.610647 74.962246 
L 274.610647 74.497946 
L 269.734309 74.872455 
L 269.734309 74.392187 
L 266.292189 74.660738 
L 266.292189 74.16796 
L 265.718502 74.212108 
L 265.718502 73.715574 
L 259.694791 74.180539 
L 259.694791 73.661693 
L 257.113201 73.864092 
L 257.113201 73.333801 
L 252.236864 73.718928 
L 252.236864 73.167707 
L 249.36843 73.396087 
L 249.36843 72.830737 
L 247.073683 73.011073 
L 247.073683 72.433369 
L 238.181538 73.156547 
L 238.181538 72.534217 
L 236.747322 72.653824 
L 236.747322 72.021033 
L 225.56043 73.001248 
L 225.56043 72.300062 
L 222.405153 72.594575 
L 222.405153 71.8684 
L 212.652478 72.832583 
L 212.652478 72.027232 
L 203.186647 73.093089 
L 196.302406 74.037548 
L 196.302406 73.057177 
L 196.015562 73.096695 
L 196.015562 72.105077 
L 189.131322 73.057177 
L 189.131322 71.958993 
L 186.262888 72.368719 
L 186.262888 71.213019 
L 179.378647 72.2301 
L 176.510213 72.730526 
L 176.510213 71.360453 
L 170.773346 72.38301 
L 170.199659 72.4989 
L 170.199659 70.935271 
L 165.036478 71.935525 
L 160.733828 72.979047 
L 157.004864 74.098032 
L 154.99696 74.809127 
L 154.99696 72.4989 
L 151.841683 73.5741 
L 148.973249 74.78219 
L 148.686406 74.9181 
L 148.686406 71.998376 
L 146.104816 73.057177 
L 145.817972 73.1901 
L 145.817972 69.825047 
L 143.236382 70.765742 
L 140.941635 71.842846 
L 138.933731 73.057177 
L 137.212671 74.392187 
L 135.778454 75.803173 
L 134.631081 77.206532 
L 134.057394 78.0285 
L 134.057394 70.648924 
L 132.91002 71.6925 
L 131.762647 73.057177 
L 130.902117 74.392187 
L 130.041587 76.1277 
L 129.181056 78.475747 
L 128.894213 79.4541 
L 128.894213 62.8221 
L 124.591562 62.8221 
L 124.591562 62.8221 
" clip-path="url(#p4f65f11fe3)" style="fill: none; stroke: #ff0000; stroke-width: 1.5; stroke-linecap: square"/>
   </g>
   <g id="line2d_14">
    <defs>
     <path id="mbeb776ed3f" d="M 0 3 
C 0.795609 3 1.55874 2.683901 2.12132 2.12132 
C 2.683901 1.55874 3 0.795609 3 0 
C 3 -0.795609 2.683901 -1.55874 2.12132 -2.12132 
C 1.55874 -2.683901 0.795609 -3 0 -3 
C -0.795609 -3 -1.55874 -2.683901 -2.12132 -2.12132 
C -2.683901 -1.55874 -3 -0.795609 -3 0 
C -3 0.795609 -2.683901 1.55874 -2.12132 2.12132 
C -1.55874 2.683901 -0.795609 3 0 3 
z
" style="stroke: #000000"/>
    </defs>
    <g clip-path="url(#p4f65f11fe3)">
     <use xlink:href="#mbeb776ed3f" x="453.887755" y="119.546454" style="fill: #ff0000; stroke: #000000"/>
    </g>
   </g>
   <g id="line2d_15">
    <path d="M 124.591562 148.874622 
L 481.711563 148.874622 
" clip-path="url(#p4f65f11fe3)" style="fill: none; stroke: #00bfbf; stroke-width: 1.5; stroke-linecap: square"/>
   </g>
   <g id="patch_4">
    <path d="M 124.591562 328.9341 
L 124.591562 62.8221 
" style="fill: none; stroke: #000000; stroke-width: 0.8; stroke-linejoin: miter; stroke-linecap: square"/>
   </g>
   <g id="patch_5">
    <path d="M 481.711563 328.9341 
L 481.711563 62.8221 
" style="fill: none; stroke: #000000; stroke-width: 0.8; stroke-linejoin: miter; stroke-linecap: square"/>
   </g>
   <g id="patch_6">
    <path d="M 124.591562 328.9341 
L 481.711563 328.9341 
" style="fill: none; stroke: #000000; stroke-width: 0.8; stroke-linejoin: miter; stroke-linecap: square"/>
   </g>
   <g id="patch_7">
    <path d="M 124.591562 62.8221 
L 481.711563 62.8221 
" style="fill: none; stroke: #000000; stroke-width: 0.8; stroke-linejoin: miter; stroke-linecap: square"/>
   </g>
   <g id="text_15">
    <!-- t-SNE AP-SP model -->
    <g transform="translate(179.331437 27.259875) scale(0.264 -0.264)">
     <defs>
      <path id="DejaVuSans-74" d="M 1172 4494 
L 1172 3500 
L 2356 3500 
L 2356 3053 
L 1172 3053 
L 1172 1153 
Q 1172 725 1289 603 
Q 1406 481 1766 481 
L 2356 481 
L 2356 0 
L 1766 0 
Q 1100 0 847 248 
Q 594 497 594 1153 
L 594 3053 
L 172 3053 
L 172 3500 
L 594 3500 
L 594 4494 
L 1172 4494 
z
" transform="scale(0.015625)"/>
      <path id="DejaVuSans-2d" d="M 313 2009 
L 1997 2009 
L 1997 1497 
L 313 1497 
L 313 2009 
z
" transform="scale(0.015625)"/>
      <path id="DejaVuSans-53" d="M 3425 4513 
L 3425 3897 
Q 3066 4069 2747 4153 
Q 2428 4238 2131 4238 
Q 1616 4238 1336 4038 
Q 1056 3838 1056 3469 
Q 1056 3159 1242 3001 
Q 1428 2844 1947 2747 
L 2328 2669 
Q 3034 2534 3370 2195 
Q 3706 1856 3706 1288 
Q 3706 609 3251 259 
Q 2797 -91 1919 -91 
Q 1588 -91 1214 -16 
Q 841 59 441 206 
L 441 856 
Q 825 641 1194 531 
Q 1563 422 1919 422 
Q 2459 422 2753 634 
Q 3047 847 3047 1241 
Q 3047 1584 2836 1778 
Q 2625 1972 2144 2069 
L 1759 2144 
Q 1053 2284 737 2584 
Q 422 2884 422 3419 
Q 422 4038 858 4394 
Q 1294 4750 2059 4750 
Q 2388 4750 2728 4690 
Q 3069 4631 3425 4513 
z
" transform="scale(0.015625)"/>
      <path id="DejaVuSans-4e" d="M 628 4666 
L 1478 4666 
L 3547 763 
L 3547 4666 
L 4159 4666 
L 4159 0 
L 3309 0 
L 1241 3903 
L 1241 0 
L 628 0 
L 628 4666 
z
" transform="scale(0.015625)"/>
      <path id="DejaVuSans-45" d="M 628 4666 
L 3578 4666 
L 3578 4134 
L 1259 4134 
L 1259 2753 
L 3481 2753 
L 3481 2222 
L 1259 2222 
L 1259 531 
L 3634 531 
L 3634 0 
L 628 0 
L 628 4666 
z
" transform="scale(0.015625)"/>
      <path id="DejaVuSans-20" transform="scale(0.015625)"/>
      <path id="DejaVuSans-41" d="M 2188 4044 
L 1331 1722 
L 3047 1722 
L 2188 4044 
z
M 1831 4666 
L 2547 4666 
L 4325 0 
L 3669 0 
L 3244 1197 
L 1141 1197 
L 716 0 
L 50 0 
L 1831 4666 
z
" transform="scale(0.015625)"/>
      <path id="DejaVuSans-6d" d="M 3328 2828 
Q 3544 3216 3844 3400 
Q 4144 3584 4550 3584 
Q 5097 3584 5394 3201 
Q 5691 2819 5691 2113 
L 5691 0 
L 5113 0 
L 5113 2094 
Q 5113 2597 4934 2840 
Q 4756 3084 4391 3084 
Q 3944 3084 3684 2787 
Q 3425 2491 3425 1978 
L 3425 0 
L 2847 0 
L 2847 2094 
Q 2847 2600 2669 2842 
Q 2491 3084 2119 3084 
Q 1678 3084 1418 2786 
Q 1159 2488 1159 1978 
L 1159 0 
L 581 0 
L 581 3500 
L 1159 3500 
L 1159 2956 
Q 1356 3278 1631 3431 
Q 1906 3584 2284 3584 
Q 2666 3584 2933 3390 
Q 3200 3197 3328 2828 
z
" transform="scale(0.015625)"/>
      <path id="DejaVuSans-64" d="M 2906 2969 
L 2906 4863 
L 3481 4863 
L 3481 0 
L 2906 0 
L 2906 525 
Q 2725 213 2448 61 
Q 2172 -91 1784 -91 
Q 1150 -91 751 415 
Q 353 922 353 1747 
Q 353 2572 751 3078 
Q 1150 3584 1784 3584 
Q 2172 3584 2448 3432 
Q 2725 3281 2906 2969 
z
M 947 1747 
Q 947 1113 1208 752 
Q 1469 391 1925 391 
Q 2381 391 2643 752 
Q 2906 1113 2906 1747 
Q 2906 2381 2643 2742 
Q 2381 3103 1925 3103 
Q 1469 3103 1208 2742 
Q 947 2381 947 1747 
z
" transform="scale(0.015625)"/>
     </defs>
     <use xlink:href="#DejaVuSans-74"/>
     <use xlink:href="#DejaVuSans-2d" x="39.208984"/>
     <use xlink:href="#DejaVuSans-53" x="75.292969"/>
     <use xlink:href="#DejaVuSans-4e" x="138.769531"/>
     <use xlink:href="#DejaVuSans-45" x="213.574219"/>
     <use xlink:href="#DejaVuSans-20" x="276.757812"/>
     <use xlink:href="#DejaVuSans-41" x="308.544922"/>
     <use xlink:href="#DejaVuSans-50" x="376.953125"/>
     <use xlink:href="#DejaVuSans-2d" x="435.005859"/>
     <use xlink:href="#DejaVuSans-53" x="471.089844"/>
     <use xlink:href="#DejaVuSans-50" x="534.566406"/>
     <use xlink:href="#DejaVuSans-20" x="594.869141"/>
     <use xlink:href="#DejaVuSans-6d" x="626.65625"/>
     <use xlink:href="#DejaVuSans-6f" x="724.068359"/>
     <use xlink:href="#DejaVuSans-64" x="785.25"/>
     <use xlink:href="#DejaVuSans-65" x="848.726562"/>
     <use xlink:href="#DejaVuSans-6c" x="910.25"/>
    </g>
    <!-- Precision - Recall (PR) curve -->
    <g transform="translate(118.920812 56.8221) scale(0.264 -0.264)">
     <defs>
      <path id="DejaVuSans-28" d="M 1984 4856 
Q 1566 4138 1362 3434 
Q 1159 2731 1159 2009 
Q 1159 1288 1364 580 
Q 1569 -128 1984 -844 
L 1484 -844 
Q 1016 -109 783 600 
Q 550 1309 550 2009 
Q 550 2706 781 3412 
Q 1013 4119 1484 4856 
L 1984 4856 
z
" transform="scale(0.015625)"/>
      <path id="DejaVuSans-29" d="M 513 4856 
L 1013 4856 
Q 1481 4119 1714 3412 
Q 1947 2706 1947 2009 
Q 1947 1309 1714 600 
Q 1481 -109 1013 -844 
L 513 -844 
Q 928 -128 1133 580 
Q 1338 1288 1338 2009 
Q 1338 2731 1133 3434 
Q 928 4138 513 4856 
z
" transform="scale(0.015625)"/>
      <path id="DejaVuSans-75" d="M 544 1381 
L 544 3500 
L 1119 3500 
L 1119 1403 
Q 1119 906 1312 657 
Q 1506 409 1894 409 
Q 2359 409 2629 706 
Q 2900 1003 2900 1516 
L 2900 3500 
L 3475 3500 
L 3475 0 
L 2900 0 
L 2900 538 
Q 2691 219 2414 64 
Q 2138 -91 1772 -91 
Q 1169 -91 856 284 
Q 544 659 544 1381 
z
M 1991 3584 
L 1991 3584 
z
" transform="scale(0.015625)"/>
      <path id="DejaVuSans-76" d="M 191 3500 
L 800 3500 
L 1894 563 
L 2988 3500 
L 3597 3500 
L 2284 0 
L 1503 0 
L 191 3500 
z
" transform="scale(0.015625)"/>
     </defs>
     <use xlink:href="#DejaVuSans-50"/>
     <use xlink:href="#DejaVuSans-72" x="58.552734"/>
     <use xlink:href="#DejaVuSans-65" x="97.416016"/>
     <use xlink:href="#DejaVuSans-63" x="158.939453"/>
     <use xlink:href="#DejaVuSans-69" x="213.919922"/>
     <use xlink:href="#DejaVuSans-73" x="241.703125"/>
     <use xlink:href="#DejaVuSans-69" x="293.802734"/>
     <use xlink:href="#DejaVuSans-6f" x="321.585938"/>
     <use xlink:href="#DejaVuSans-6e" x="382.767578"/>
     <use xlink:href="#DejaVuSans-20" x="446.146484"/>
     <use xlink:href="#DejaVuSans-2d" x="477.933594"/>
     <use xlink:href="#DejaVuSans-20" x="514.017578"/>
     <use xlink:href="#DejaVuSans-52" x="545.804688"/>
     <use xlink:href="#DejaVuSans-65" x="610.787109"/>
     <use xlink:href="#DejaVuSans-63" x="672.310547"/>
     <use xlink:href="#DejaVuSans-61" x="727.291016"/>
     <use xlink:href="#DejaVuSans-6c" x="788.570312"/>
     <use xlink:href="#DejaVuSans-6c" x="816.353516"/>
     <use xlink:href="#DejaVuSans-20" x="844.136719"/>
     <use xlink:href="#DejaVuSans-28" x="875.923828"/>
     <use xlink:href="#DejaVuSans-50" x="914.9375"/>
     <use xlink:href="#DejaVuSans-52" x="975.240234"/>
     <use xlink:href="#DejaVuSans-29" x="1044.722656"/>
     <use xlink:href="#DejaVuSans-20" x="1083.736328"/>
     <use xlink:href="#DejaVuSans-63" x="1115.523438"/>
     <use xlink:href="#DejaVuSans-75" x="1170.503906"/>
     <use xlink:href="#DejaVuSans-72" x="1233.882812"/>
     <use xlink:href="#DejaVuSans-76" x="1274.996094"/>
     <use xlink:href="#DejaVuSans-65" x="1334.175781"/>
    </g>
   </g>
   <g id="legend_1">
    <g id="patch_8">
     <path d="M 11.6 432.048375 
L 594.703125 432.048375 
Q 599.103125 432.048375 599.103125 427.648375 
L 599.103125 397.5565 
Q 599.103125 393.1565 594.703125 393.1565 
L 11.6 393.1565 
Q 7.2 393.1565 7.2 397.5565 
L 7.2 427.648375 
Q 7.2 432.048375 11.6 432.048375 
z
" style="fill: #ffffff; opacity: 0.8; stroke: #cccccc; stroke-linejoin: miter"/>
    </g>
    <g id="line2d_16">
     <path d="M 16 410.973062 
L 38 410.973062 
L 60 410.973062 
" style="fill: none; stroke: #ff0000; stroke-width: 1.5; stroke-linecap: square"/>
    </g>
    <g id="text_16">
     <!-- model performance -->
     <g transform="translate(77.6 418.673062) scale(0.22 -0.22)">
      <defs>
       <path id="DejaVuSans-70" d="M 1159 525 
L 1159 -1331 
L 581 -1331 
L 581 3500 
L 1159 3500 
L 1159 2969 
Q 1341 3281 1617 3432 
Q 1894 3584 2278 3584 
Q 2916 3584 3314 3078 
Q 3713 2572 3713 1747 
Q 3713 922 3314 415 
Q 2916 -91 2278 -91 
Q 1894 -91 1617 61 
Q 1341 213 1159 525 
z
M 3116 1747 
Q 3116 2381 2855 2742 
Q 2594 3103 2138 3103 
Q 1681 3103 1420 2742 
Q 1159 2381 1159 1747 
Q 1159 1113 1420 752 
Q 1681 391 2138 391 
Q 2594 391 2855 752 
Q 3116 1113 3116 1747 
z
" transform="scale(0.015625)"/>
       <path id="DejaVuSans-66" d="M 2375 4863 
L 2375 4384 
L 1825 4384 
Q 1516 4384 1395 4259 
Q 1275 4134 1275 3809 
L 1275 3500 
L 2222 3500 
L 2222 3053 
L 1275 3053 
L 1275 0 
L 697 0 
L 697 3053 
L 147 3053 
L 147 3500 
L 697 3500 
L 697 3744 
Q 697 4328 969 4595 
Q 1241 4863 1831 4863 
L 2375 4863 
z
" transform="scale(0.015625)"/>
      </defs>
      <use xlink:href="#DejaVuSans-6d"/>
      <use xlink:href="#DejaVuSans-6f" x="97.412109"/>
      <use xlink:href="#DejaVuSans-64" x="158.59375"/>
      <use xlink:href="#DejaVuSans-65" x="222.070312"/>
      <use xlink:href="#DejaVuSans-6c" x="283.59375"/>
      <use xlink:href="#DejaVuSans-20" x="311.376953"/>
      <use xlink:href="#DejaVuSans-70" x="343.164062"/>
      <use xlink:href="#DejaVuSans-65" x="406.640625"/>
      <use xlink:href="#DejaVuSans-72" x="468.164062"/>
      <use xlink:href="#DejaVuSans-66" x="509.277344"/>
      <use xlink:href="#DejaVuSans-6f" x="544.482422"/>
      <use xlink:href="#DejaVuSans-72" x="605.664062"/>
      <use xlink:href="#DejaVuSans-6d" x="645.027344"/>
      <use xlink:href="#DejaVuSans-61" x="742.439453"/>
      <use xlink:href="#DejaVuSans-6e" x="803.71875"/>
      <use xlink:href="#DejaVuSans-63" x="867.097656"/>
      <use xlink:href="#DejaVuSans-65" x="922.078125"/>
     </g>
    </g>
    <g id="line2d_17">
     <path d="M 337.9975 410.973062 
L 359.9975 410.973062 
L 381.9975 410.973062 
" style="fill: none; stroke: #00bfbf; stroke-width: 1.5; stroke-linecap: square"/>
    </g>
    <g id="text_17">
     <!-- random guessing -->
     <g transform="translate(399.5975 418.673062) scale(0.22 -0.22)">
      <defs>
       <path id="DejaVuSans-67" d="M 2906 1791 
Q 2906 2416 2648 2759 
Q 2391 3103 1925 3103 
Q 1463 3103 1205 2759 
Q 947 2416 947 1791 
Q 947 1169 1205 825 
Q 1463 481 1925 481 
Q 2391 481 2648 825 
Q 2906 1169 2906 1791 
z
M 3481 434 
Q 3481 -459 3084 -895 
Q 2688 -1331 1869 -1331 
Q 1566 -1331 1297 -1286 
Q 1028 -1241 775 -1147 
L 775 -588 
Q 1028 -725 1275 -790 
Q 1522 -856 1778 -856 
Q 2344 -856 2625 -561 
Q 2906 -266 2906 331 
L 2906 616 
Q 2728 306 2450 153 
Q 2172 0 1784 0 
Q 1141 0 747 490 
Q 353 981 353 1791 
Q 353 2603 747 3093 
Q 1141 3584 1784 3584 
Q 2172 3584 2450 3431 
Q 2728 3278 2906 2969 
L 2906 3500 
L 3481 3500 
L 3481 434 
z
" transform="scale(0.015625)"/>
      </defs>
      <use xlink:href="#DejaVuSans-72"/>
      <use xlink:href="#DejaVuSans-61" x="41.113281"/>
      <use xlink:href="#DejaVuSans-6e" x="102.392578"/>
      <use xlink:href="#DejaVuSans-64" x="165.771484"/>
      <use xlink:href="#DejaVuSans-6f" x="229.248047"/>
      <use xlink:href="#DejaVuSans-6d" x="290.429688"/>
      <use xlink:href="#DejaVuSans-20" x="387.841797"/>
      <use xlink:href="#DejaVuSans-67" x="419.628906"/>
      <use xlink:href="#DejaVuSans-75" x="483.105469"/>
      <use xlink:href="#DejaVuSans-65" x="546.484375"/>
      <use xlink:href="#DejaVuSans-73" x="608.007812"/>
      <use xlink:href="#DejaVuSans-73" x="660.107422"/>
      <use xlink:href="#DejaVuSans-69" x="712.207031"/>
      <use xlink:href="#DejaVuSans-6e" x="739.990234"/>
      <use xlink:href="#DejaVuSans-67" x="803.369141"/>
     </g>
    </g>
   </g>
  </g>
 </g>
 <defs>
  <clipPath id="p4f65f11fe3">
   <rect x="124.591562" y="62.8221" width="357.12" height="266.112"/>
  </clipPath>
 </defs>
</svg>
