<?xml version="1.0" encoding="utf-8" standalone="no"?>
<!DOCTYPE svg PUBLIC "-//W3C//DTD SVG 1.1//EN"
  "http://www.w3.org/Graphics/SVG/1.1/DTD/svg11.dtd">
<svg xmlns:xlink="http://www.w3.org/1999/xlink" width="238.114192pt" height="476.122835pt" viewBox="0 0 238.114192 476.122835" xmlns="http://www.w3.org/2000/svg" version="1.1">
 <metadata>
  <rdf:RDF xmlns:dc="http://purl.org/dc/elements/1.1/" xmlns:cc="http://creativecommons.org/ns#" xmlns:rdf="http://www.w3.org/1999/02/22-rdf-syntax-ns#">
   <cc:Work>
    <dc:type rdf:resource="http://purl.org/dc/dcmitype/StillImage"/>
    <dc:date>2024-09-25T14:38:19.347420</dc:date>
    <dc:format>image/svg+xml</dc:format>
    <dc:creator>
     <cc:Agent>
      <dc:title>Matplotlib v3.7.0, https://matplotlib.org/</dc:title>
     </cc:Agent>
    </dc:creator>
   </cc:Work>
  </rdf:RDF>
 </metadata>
 <defs>
  <style type="text/css">*{stroke-linejoin: round; stroke-linecap: butt}</style>
 </defs>
 <g id="figure_1">
  <g id="patch_1">
   <path d="M 0 476.122835 
L 238.114192 476.122835 
L 238.114192 0 
L 0 0 
z
" style="fill: #ffffff"/>
  </g>
  <g id="axes_1">
   <g id="patch_2">
    <path d="M 29.722656 425.935744 
L 227.439192 425.935744 
L 227.439192 22.140469 
L 29.722656 22.140469 
z
" style="fill: #ffffff"/>
   </g>
   <g id="patch_3">
    <path d="M 227.439192 22.140469 
L 228.168107 34.822524 
L 226.329093 34.041997 
L 216.260581 132.988164 
L 216.067001 132.906003 
L 226.135512 33.959836 
L 224.296498 33.179309 
z
" clip-path="url(#pb66ea22c5c)" style="fill: #1f77b4; stroke: #000000; stroke-linejoin: miter"/>
   </g>
   <g id="matplotlib.axis_1">
    <g id="xtick_1">
     <g id="line2d_1">
      <defs>
       <path id="m10b8aac8e0" d="M 0 0 
L 0 3.5 
" style="stroke: #000000; stroke-width: 0.8"/>
      </defs>
      <g>
       <use xlink:href="#m10b8aac8e0" x="29.722656" y="425.935744" style="stroke: #000000; stroke-width: 0.8"/>
      </g>
     </g>
     <g id="text_1">
      <text style="font: 5px 'Arial'; text-anchor: middle" x="29.722656" y="436.514651" transform="rotate(-0 29.722656 436.514651)">0.0</text>
     </g>
    </g>
    <g id="xtick_2">
     <g id="line2d_2">
      <g>
       <use xlink:href="#m10b8aac8e0" x="69.265963" y="425.935744" style="stroke: #000000; stroke-width: 0.8"/>
      </g>
     </g>
     <g id="text_2">
      <text style="font: 5px 'Arial'; text-anchor: middle" x="69.265963" y="436.514651" transform="rotate(-0 69.265963 436.514651)">0.2</text>
     </g>
    </g>
    <g id="xtick_3">
     <g id="line2d_3">
      <g>
       <use xlink:href="#m10b8aac8e0" x="108.80927" y="425.935744" style="stroke: #000000; stroke-width: 0.8"/>
      </g>
     </g>
     <g id="text_3">
      <text style="font: 5px 'Arial'; text-anchor: middle" x="108.80927" y="436.514651" transform="rotate(-0 108.80927 436.514651)">0.4</text>
     </g>
    </g>
    <g id="xtick_4">
     <g id="line2d_4">
      <g>
       <use xlink:href="#m10b8aac8e0" x="148.352578" y="425.935744" style="stroke: #000000; stroke-width: 0.8"/>
      </g>
     </g>
     <g id="text_4">
      <text style="font: 5px 'Arial'; text-anchor: middle" x="148.352578" y="436.514651" transform="rotate(-0 148.352578 436.514651)">0.6</text>
     </g>
    </g>
    <g id="xtick_5">
     <g id="line2d_5">
      <g>
       <use xlink:href="#m10b8aac8e0" x="187.895885" y="425.935744" style="stroke: #000000; stroke-width: 0.8"/>
      </g>
     </g>
     <g id="text_5">
      <text style="font: 5px 'Arial'; text-anchor: middle" x="187.895885" y="436.514651" transform="rotate(-0 187.895885 436.514651)">0.8</text>
     </g>
    </g>
    <g id="xtick_6">
     <g id="line2d_6">
      <g>
       <use xlink:href="#m10b8aac8e0" x="227.439192" y="425.935744" style="stroke: #000000; stroke-width: 0.8"/>
      </g>
     </g>
     <g id="text_6">
      <text style="font: 5px 'Arial'; text-anchor: middle" x="227.439192" y="436.514651" transform="rotate(-0 227.439192 436.514651)">1.0</text>
     </g>
    </g>
    <g id="text_7">
     <text style="font: 5px 'Arial'; text-anchor: middle" x="128.580924" y="445.087307" transform="rotate(-0 128.580924 445.087307)">Recall</text>
    </g>
   </g>
   <g id="matplotlib.axis_2">
    <g id="ytick_1">
     <g id="line2d_7">
      <defs>
       <path id="mb84638dde1" d="M 0 0 
L -3.5 0 
" style="stroke: #000000; stroke-width: 0.8"/>
      </defs>
      <g>
       <use xlink:href="#mb84638dde1" x="29.722656" y="425.935744" style="stroke: #000000; stroke-width: 0.8"/>
      </g>
     </g>
     <g id="text_8">
      <text style="font: 5px 'Arial'; text-anchor: end" x="22.722656" y="427.725197" transform="rotate(-0 22.722656 427.725197)">0.0</text>
     </g>
    </g>
    <g id="ytick_2">
     <g id="line2d_8">
      <g>
       <use xlink:href="#mb84638dde1" x="29.722656" y="345.176689" style="stroke: #000000; stroke-width: 0.8"/>
      </g>
     </g>
     <g id="text_9">
      <text style="font: 5px 'Arial'; text-anchor: end" x="22.722656" y="346.966142" transform="rotate(-0 22.722656 346.966142)">0.2</text>
     </g>
    </g>
    <g id="ytick_3">
     <g id="line2d_9">
      <g>
       <use xlink:href="#mb84638dde1" x="29.722656" y="264.417634" style="stroke: #000000; stroke-width: 0.8"/>
      </g>
     </g>
     <g id="text_10">
      <text style="font: 5px 'Arial'; text-anchor: end" x="22.722656" y="266.207087" transform="rotate(-0 22.722656 266.207087)">0.4</text>
     </g>
    </g>
    <g id="ytick_4">
     <g id="line2d_10">
      <g>
       <use xlink:href="#mb84638dde1" x="29.722656" y="183.658579" style="stroke: #000000; stroke-width: 0.8"/>
      </g>
     </g>
     <g id="text_11">
      <text style="font: 5px 'Arial'; text-anchor: end" x="22.722656" y="185.448032" transform="rotate(-0 22.722656 185.448032)">0.6</text>
     </g>
    </g>
    <g id="ytick_5">
     <g id="line2d_11">
      <g>
       <use xlink:href="#mb84638dde1" x="29.722656" y="102.899524" style="stroke: #000000; stroke-width: 0.8"/>
      </g>
     </g>
     <g id="text_12">
      <text style="font: 5px 'Arial'; text-anchor: end" x="22.722656" y="104.688977" transform="rotate(-0 22.722656 104.688977)">0.8</text>
     </g>
    </g>
    <g id="ytick_6">
     <g id="line2d_12">
      <g>
       <use xlink:href="#mb84638dde1" x="29.722656" y="22.140469" style="stroke: #000000; stroke-width: 0.8"/>
      </g>
     </g>
     <g id="text_13">
      <text style="font: 5px 'Arial'; text-anchor: end" x="22.722656" y="23.929922" transform="rotate(-0 22.722656 23.929922)">1.0</text>
     </g>
    </g>
    <g id="text_14">
     <text style="font: 5px 'Arial'; text-anchor: middle" x="10.778906" y="224.038107" transform="rotate(-90 10.778906 224.038107)">Precision</text>
    </g>
   </g>
   <g id="line2d_13">
    <path d="M 227.439192 152.715571 
L 227.121575 152.857655 
L 227.121575 152.709001 
L 226.962766 152.780117 
L 226.962766 152.034197 
L 226.803958 152.105178 
L 226.803958 151.805582 
L 226.486341 151.947603 
L 226.486341 151.496717 
L 226.327532 151.567714 
L 226.327532 151.417045 
L 226.168724 151.488076 
L 226.168724 151.337198 
L 226.009916 151.408263 
L 226.009916 150.80291 
L 225.851107 150.873877 
L 225.851107 150.417973 
L 225.692299 150.488884 
L 225.692299 149.725451 
L 225.53349 149.796213 
L 225.53349 149.489562 
L 225.215873 149.631139 
L 225.215873 149.323622 
L 224.898256 149.46533 
L 224.898256 149.002489 
L 224.739448 149.073322 
L 224.739448 148.763806 
L 224.421831 148.905522 
L 224.421831 148.439664 
L 224.104214 148.581414 
L 224.104214 148.26978 
L 223.786597 148.411657 
L 223.786597 148.09913 
L 223.310172 148.312258 
L 223.310172 148.155586 
L 223.151363 148.226741 
L 223.151363 148.069843 
L 222.992555 148.14103 
L 222.992555 147.35363 
L 222.833746 147.424652 
L 222.833746 146.949918 
L 222.674938 147.020872 
L 222.674938 146.862218 
L 222.516129 146.933203 
L 222.516129 146.774318 
L 222.357321 146.845334 
L 222.357321 145.727696 
L 222.039704 145.869262 
L 222.039704 145.22617 
L 221.880896 145.296868 
L 221.880896 144.974109 
L 221.722087 145.044785 
L 221.722087 144.721177 
L 221.563279 144.791829 
L 221.563279 144.142161 
L 221.40447 144.212682 
L 221.40447 143.723296 
L 221.245662 143.793738 
L 221.245662 143.630178 
L 221.086853 143.700647 
L 221.086853 142.71496 
L 220.769236 142.85549 
L 220.769236 142.194087 
L 220.610428 142.264253 
L 220.610428 141.93228 
L 220.292811 142.072633 
L 220.292811 139.047449 
L 220.134002 139.116707 
L 220.134002 138.94669 
L 219.975194 139.01597 
L 219.975194 138.845691 
L 219.181152 139.193028 
L 219.181152 138.680071 
L 219.022343 138.749606 
L 219.022343 138.578151 
L 218.863535 138.647708 
L 218.863535 138.475987 
L 218.545918 138.615228 
L 218.545918 137.579839 
L 218.387109 137.649213 
L 218.387109 137.302298 
L 218.228301 137.371631 
L 218.228301 137.197797 
L 218.069492 137.267151 
L 218.069492 136.219352 
L 217.910684 136.288407 
L 217.910684 135.761456 
L 217.751875 135.830401 
L 217.751875 135.477903 
L 217.593067 135.546801 
L 217.593067 135.370166 
L 217.434259 135.439082 
L 217.434259 135.085034 
L 217.27545 135.153903 
L 217.27545 134.976488 
L 216.799025 135.1834 
L 216.799025 134.292069 
L 216.322599 134.498736 
L 216.322599 133.960699 
L 216.163791 134.029554 
L 216.163791 132.947083 
L 215.528557 133.221697 
L 215.528557 133.040225 
L 215.21094 133.177903 
L 215.21094 132.996066 
L 214.893323 133.133946 
L 214.893323 132.220653 
L 214.416898 132.427053 
L 214.416898 132.243496 
L 214.099281 132.381383 
L 214.099281 131.828897 
L 213.464047 132.104843 
L 213.464047 131.734778 
L 212.987622 131.942212 
L 212.987622 131.75661 
L 212.828813 131.825856 
L 212.828813 131.453801 
L 212.670005 131.522986 
L 212.670005 131.336531 
L 212.511196 131.40573 
L 212.511196 131.218964 
L 212.352388 131.288176 
L 212.352388 130.726229 
L 212.193579 130.795304 
L 212.193579 130.607436 
L 211.717154 130.814963 
L 211.717154 130.438052 
L 211.558345 130.507252 
L 211.558345 130.318359 
L 211.399537 130.387571 
L 211.399537 130.008906 
L 211.08192 130.147287 
L 211.08192 129.957436 
L 210.923112 130.026682 
L 210.923112 129.836509 
L 210.764303 129.905767 
L 210.764303 129.333544 
L 210.446686 129.471858 
L 210.446686 129.08883 
L 209.652644 129.43539 
L 209.652644 129.050574 
L 208.858602 129.398589 
L 208.858602 129.205405 
L 208.699793 129.2752 
L 208.699793 129.081683 
L 208.223368 129.291372 
L 208.223368 129.09736 
L 207.746942 129.307629 
L 207.746942 129.113119 
L 207.429325 129.253595 
L 207.429325 129.058666 
L 207.111709 129.199348 
L 207.111709 128.808391 
L 206.9529 128.878706 
L 206.9529 128.682758 
L 206.794092 128.753083 
L 206.794092 127.769034 
L 206.317666 127.97931 
L 206.317666 127.583355 
L 205.523624 127.934831 
L 205.523624 127.736031 
L 205.364815 127.806522 
L 205.364815 127.20827 
L 205.047199 127.349017 
L 205.047199 126.948498 
L 204.570773 127.159805 
L 204.570773 126.958879 
L 204.094348 127.170776 
L 204.094348 126.767585 
L 202.982689 127.26412 
L 202.982689 127.061494 
L 202.82388 127.132723 
L 202.82388 126.726465 
L 202.506263 126.868855 
L 202.506263 126.665131 
L 201.712221 127.022359 
L 201.712221 126.817903 
L 201.553412 126.889551 
L 201.553412 126.684725 
L 201.076987 126.899984 
L 201.076987 126.282992 
L 200.75937 126.426439 
L 200.75937 126.220023 
L 200.441753 126.36368 
L 200.441753 126.156793 
L 200.282945 126.228677 
L 200.282945 125.813858 
L 199.806519 126.029545 
L 199.806519 125.404306 
L 199.647711 125.476116 
L 199.647711 125.057649 
L 199.171285 125.273107 
L 199.171285 125.063147 
L 199.012477 125.135071 
L 199.012477 124.291901 
L 198.853668 124.363536 
L 198.853668 124.151907 
L 198.536052 124.295282 
L 198.536052 123.870735 
L 197.742009 124.229952 
L 197.742009 124.016733 
L 196.947967 124.377996 
L 196.947967 124.163973 
L 196.789158 124.236433 
L 196.789158 124.022006 
L 196.471542 124.167033 
L 196.471542 123.521308 
L 196.312733 123.593671 
L 196.312733 123.377713 
L 196.153925 123.450077 
L 196.153925 123.233707 
L 195.201074 123.669453 
L 195.201074 123.452152 
L 194.883457 123.598029 
L 194.883457 123.380206 
L 193.930606 123.819742 
L 193.930606 123.381893 
L 193.612989 123.528833 
L 193.612989 122.869036 
L 193.295372 123.015763 
L 193.295372 122.573867 
L 192.024905 123.163351 
L 192.024905 122.941051 
L 191.707288 123.089288 
L 191.707288 122.866443 
L 191.230862 123.089288 
L 191.230862 122.641952 
L 190.119203 123.164231 
L 190.119203 122.488402 
L 189.642778 122.712894 
L 189.642778 122.259984 
L 189.483969 122.334812 
L 189.483969 122.107736 
L 189.007544 122.33255 
L 189.007544 121.876689 
L 188.848735 121.951623 
L 188.848735 121.723063 
L 188.689927 121.797994 
L 188.689927 120.879842 
L 187.895885 121.253855 
L 187.895885 120.791515 
L 186.784225 121.318256 
L 186.784225 120.152033 
L 186.466608 120.302357 
L 186.466608 119.597591 
L 186.148992 119.747641 
L 186.148992 119.511749 
L 185.990183 119.586823 
L 185.990183 118.639108 
L 185.672566 118.788602 
L 185.672566 118.550504 
L 185.513758 118.625298 
L 185.513758 118.147737 
L 185.354949 118.222393 
L 185.354949 117.982927 
L 185.037332 118.132331 
L 185.037332 117.410917 
L 184.878524 117.485405 
L 184.878524 116.760208 
L 184.402098 116.983193 
L 184.402098 116.497036 
L 183.925673 116.720277 
L 183.925673 116.476224 
L 183.608056 116.625371 
L 183.608056 116.380664 
L 183.449248 116.45528 
L 183.449248 116.21005 
L 183.131631 116.359366 
L 183.131631 115.620521 
L 182.972822 115.694947 
L 182.972822 114.205792 
L 182.814014 114.279503 
L 182.814014 113.529127 
L 182.655205 113.602531 
L 182.655205 113.099984 
L 182.496397 113.17322 
L 182.496397 112.668764 
L 181.067121 113.330628 
L 181.067121 113.076478 
L 180.908312 113.15047 
L 180.908312 112.895759 
L 180.590695 113.04381 
L 180.590695 112.788388 
L 180.273078 112.936626 
L 180.273078 112.68049 
L 180.11427 112.754642 
L 180.11427 112.497936 
L 179.796653 112.646306 
L 179.796653 112.131028 
L 179.479036 112.279282 
L 179.479036 111.502264 
L 179.320228 111.576117 
L 179.320228 111.3161 
L 179.161419 111.389921 
L 179.161419 111.12932 
L 179.002611 111.203108 
L 179.002611 110.941919 
L 178.843802 111.015675 
L 178.843802 109.965941 
L 178.526185 110.112561 
L 178.526185 109.848716 
L 178.367377 109.92205 
L 178.367377 109.392714 
L 178.208568 109.465851 
L 178.208568 108.934415 
L 178.04976 109.007352 
L 178.04976 108.740801 
L 177.890951 108.813697 
L 177.890951 108.278921 
L 177.732143 108.351612 
L 177.732143 107.814699 
L 177.573335 107.887181 
L 177.573335 107.617877 
L 177.414526 107.690315 
L 177.414526 107.420387 
L 177.096909 107.565298 
L 177.096909 106.479635 
L 176.938101 106.551597 
L 176.938101 106.278852 
L 176.620484 106.422802 
L 176.620484 106.149246 
L 176.461675 106.221233 
L 176.461675 105.672367 
L 176.302867 105.74413 
L 176.302867 105.193025 
L 176.144058 105.264561 
L 176.144058 104.98812 
L 175.98525 105.059602 
L 175.98525 104.226879 
L 175.826441 104.297949 
L 175.826441 103.460351 
L 175.350016 103.672674 
L 175.350016 103.391957 
L 175.191208 103.462795 
L 175.191208 103.181405 
L 174.873591 103.323085 
L 174.873591 102.191111 
L 174.714782 102.261393 
L 174.714782 101.976969 
L 174.238357 102.18799 
L 174.238357 101.902498 
L 173.92074 102.043421 
L 173.92074 101.757044 
L 173.761931 101.827501 
L 173.761931 101.252841 
L 173.444315 101.39336 
L 173.444315 101.104878 
L 173.126698 101.245509 
L 173.126698 100.956124 
L 172.491464 101.238112 
L 172.491464 100.947425 
L 172.332655 101.018041 
L 172.332655 100.726634 
L 172.015038 100.86785 
L 172.015038 100.575522 
L 171.85623 100.646121 
L 171.85623 100.059485 
L 171.538613 100.20026 
L 171.538613 99.905743 
L 171.062188 100.117254 
L 171.062188 99.228658 
L 170.744571 99.369073 
L 170.744571 98.773149 
L 170.109337 99.053855 
L 170.109337 98.153354 
L 169.950528 98.223218 
L 169.950528 97.921735 
L 169.474103 98.131462 
L 169.474103 96.612443 
L 169.156486 96.750738 
L 169.156486 96.444804 
L 168.680061 96.652551 
L 168.680061 95.420435 
L 168.362444 95.557792 
L 168.362444 95.247869 
L 168.044827 95.385288 
L 168.044827 94.45065 
L 167.72721 94.587213 
L 167.72721 94.274029 
L 167.250785 94.479148 
L 167.250785 93.217658 
L 167.091976 93.285351 
L 167.091976 92.968239 
L 166.774359 93.103535 
L 166.774359 92.78534 
L 166.297934 92.988537 
L 166.297934 92.66901 
L 165.6627 92.940796 
L 165.6627 92.297949 
L 165.503891 92.365734 
L 165.503891 92.043133 
L 165.345083 92.110802 
L 165.345083 91.787328 
L 164.868658 91.99038 
L 164.868658 91.013932 
L 164.074615 91.351216 
L 164.074615 90.694524 
L 163.756998 90.829341 
L 163.756998 90.499511 
L 163.59819 90.56686 
L 163.59819 89.90473 
L 163.439381 89.971691 
L 163.439381 88.972789 
L 163.121764 89.105524 
L 163.121764 88.09906 
L 162.327722 88.429183 
L 162.327722 87.412597 
L 162.168914 87.478197 
L 162.168914 87.137696 
L 161.851297 87.268739 
L 161.851297 86.926996 
L 161.53368 87.058011 
L 161.53368 86.715017 
L 161.216063 86.846 
L 161.216063 86.501746 
L 160.898446 86.632695 
L 160.898446 86.287172 
L 160.739638 86.352562 
L 160.739638 86.006048 
L 160.580829 86.071284 
L 160.580829 85.375553 
L 160.422021 85.440343 
L 160.422021 84.741174 
L 159.786787 84.999321 
L 159.786787 83.232811 
L 159.627978 83.296185 
L 159.627978 82.583836 
L 159.46917 82.646733 
L 159.46917 81.571715 
L 159.310361 81.633817 
L 159.310361 81.273668 
L 158.833936 81.459817 
L 158.833936 81.097972 
L 158.516319 81.222093 
L 158.516319 80.858854 
L 158.357511 80.920794 
L 158.357511 79.458866 
L 157.40466 79.825508 
L 157.40466 77.597331 
L 157.245851 77.656898 
L 157.245851 77.282404 
L 156.928234 77.401245 
L 156.928234 77.025263 
L 156.134192 77.322903 
L 156.134192 76.944388 
L 155.975384 77.003957 
L 155.975384 76.624271 
L 155.816575 76.683621 
L 155.816575 75.921062 
L 155.022533 76.216236 
L 155.022533 75.831928 
L 154.546108 76.009519 
L 154.546108 75.236201 
L 154.387299 75.294935 
L 154.387299 74.906629 
L 154.228491 74.965128 
L 154.228491 73.401784 
L 154.069682 73.458932 
L 154.069682 72.671274 
L 153.910874 72.727796 
L 153.910874 72.332267 
L 153.434448 72.501453 
L 153.434448 70.905812 
L 152.799214 71.12697 
L 152.799214 70.320587 
L 152.163981 70.540587 
L 152.163981 70.134422 
L 151.846364 70.244373 
L 151.846364 69.83647 
L 151.052321 70.111534 
L 151.052321 69.288819 
L 150.893513 69.343389 
L 150.893513 68.930188 
L 150.734704 68.984468 
L 150.734704 67.73784 
L 149.940662 68.004803 
L 149.940662 67.16459 
L 149.781854 67.217497 
L 149.781854 66.37246 
L 149.623045 66.42462 
L 149.623045 65.574712 
L 149.464237 65.626114 
L 149.464237 64.771287 
L 148.987811 64.92354 
L 148.987811 64.493251 
L 148.670194 64.594452 
L 148.670194 63.728964 
L 148.193769 63.878923 
L 148.193769 63.443235 
L 147.717344 63.592882 
L 147.717344 63.154741 
L 147.399727 63.25417 
L 147.399727 62.372805 
L 146.764493 62.5693 
L 146.764493 61.679786 
L 146.605684 61.728241 
L 146.605684 61.28136 
L 146.446876 61.329445 
L 146.446876 60.4314 
L 146.288068 60.478615 
L 146.288068 60.027433 
L 146.129259 60.074265 
L 146.129259 59.621466 
L 145.0176 59.949015 
L 145.0176 59.491532 
L 144.699983 59.585143 
L 144.699983 59.125481 
L 143.905941 59.358973 
L 143.905941 58.895538 
L 143.270707 59.082349 
L 143.270707 58.615615 
L 142.159047 58.943376 
L 142.159047 57.998736 
L 141.523814 58.18429 
L 141.523814 57.707928 
L 141.365005 57.75406 
L 141.365005 57.275902 
L 139.935729 57.691433 
L 139.935729 57.206901 
L 139.459304 57.345869 
L 139.459304 55.879331 
L 138.506453 56.149964 
L 138.506453 55.654936 
L 137.712411 55.880775 
L 137.712411 53.875057 
L 137.394794 53.961292 
L 137.394794 53.455204 
L 136.283134 53.756308 
L 136.283134 53.244369 
L 135.965517 53.330173 
L 135.965517 52.815524 
L 135.647901 52.900497 
L 135.647901 52.383111 
L 134.536241 52.679607 
L 134.536241 52.156106 
L 134.059816 52.282933 
L 134.059816 51.755919 
L 132.789348 52.093899 
L 132.789348 51.559839 
L 131.677689 51.857004 
L 131.677689 49.685284 
L 130.089604 50.090952 
L 130.089604 49.536608 
L 129.613179 49.658369 
L 129.613179 47.978559 
L 129.295562 48.055688 
L 129.295562 47.490845 
L 127.072244 48.032685 
L 127.072244 46.875248 
L 126.43701 47.027697 
L 126.43701 46.442962 
L 124.531308 46.9015 
L 124.531308 46.304595 
L 121.831564 46.969304 
L 121.831564 46.355096 
L 117.861353 47.377673 
L 117.861353 46.737135 
L 117.543736 46.820655 
L 117.543736 46.175902 
L 117.06731 46.29916 
L 117.06731 44.996805 
L 115.320417 45.43635 
L 115.320417 44.769976 
L 114.526375 44.969884 
L 114.526375 44.295608 
L 113.097099 44.654234 
L 113.097099 43.96724 
L 112.779482 44.04618 
L 112.779482 43.354351 
L 112.461865 43.431492 
L 112.461865 42.734763 
L 111.826631 42.885914 
L 111.826631 42.181778 
L 111.350206 42.292913 
L 111.350206 41.582464 
L 109.285696 42.062057 
L 109.285696 41.332259 
L 107.697611 41.704193 
L 107.697611 40.958113 
L 105.950718 41.368815 
L 105.950718 40.604269 
L 104.997867 40.827172 
L 104.997867 40.050743 
L 104.045017 40.270053 
L 104.045017 39.48137 
L 103.7274 39.552585 
L 103.7274 38.757558 
L 99.59838 39.696785 
L 99.59838 38.010152 
L 98.804337 38.185314 
L 98.804337 37.327459 
L 98.327912 37.428931 
L 98.327912 36.561729 
L 93.563658 37.596747 
L 93.563658 36.665479 
L 93.40485 36.700395 
L 93.40485 35.762478 
L 91.499148 36.168096 
L 91.499148 35.198525 
L 88.005362 35.954518 
L 88.005362 34.925543 
L 85.305618 35.525947 
L 85.305618 34.44448 
L 84.670384 34.58234 
L 84.670384 33.483033 
L 83.0823 33.810852 
L 83.0823 32.674259 
L 81.01779 33.086726 
L 81.01779 31.899871 
L 79.429705 32.203902 
L 79.429705 30.97349 
L 79.112088 31.029044 
L 79.112088 29.783282 
L 73.394983 30.762432 
L 72.600941 30.918627 
L 72.600941 29.482201 
L 72.124516 29.563176 
L 72.124516 28.100547 
L 68.471921 28.653296 
L 68.471921 27.044865 
L 62.913625 27.854553 
L 61.007923 28.197398 
L 61.007923 26.198713 
L 59.578647 26.390945 
L 59.578647 24.276952 
L 55.767244 24.587713 
L 55.767244 22.140469 
L 29.722656 22.140469 
L 29.722656 22.140469 
" clip-path="url(#pb66ea22c5c)" style="fill: none; stroke: #ff0000; stroke-width: 1.5; stroke-linecap: square"/>
   </g>
   <g id="line2d_14">
    <defs>
     <path id="m6ed8ed5695" d="M 0 3 
C 0.795609 3 1.55874 2.683901 2.12132 2.12132 
C 2.683901 1.55874 3 0.795609 3 0 
C 3 -0.795609 2.683901 -1.55874 2.12132 -2.12132 
C 1.55874 -2.683901 0.795609 -3 0 -3 
C -0.795609 -3 -1.55874 -2.683901 -2.12132 -2.12132 
C -2.683901 -1.55874 -3 -0.795609 -3 0 
C -3 0.795609 -2.683901 1.55874 -2.12132 2.12132 
C -1.55874 2.683901 -0.795609 3 0 3 
z
" style="stroke: #000000"/>
    </defs>
    <g clip-path="url(#pb66ea22c5c)">
     <use xlink:href="#m6ed8ed5695" x="216.163791" y="132.947083" style="fill: #ff0000; stroke: #000000"/>
    </g>
   </g>
   <g id="line2d_15">
    <path d="M 29.722656 152.715571 
L 227.439192 152.715571 
" clip-path="url(#pb66ea22c5c)" style="fill: none; stroke: #00bfbf; stroke-width: 1.5; stroke-linecap: square"/>
   </g>
   <g id="patch_4">
    <path d="M 29.722656 425.935744 
L 29.722656 22.140469 
" style="fill: none; stroke: #000000; stroke-width: 0.8; stroke-linejoin: miter; stroke-linecap: square"/>
   </g>
   <g id="patch_5">
    <path d="M 227.439192 425.935744 
L 227.439192 22.140469 
" style="fill: none; stroke: #000000; stroke-width: 0.8; stroke-linejoin: miter; stroke-linecap: square"/>
   </g>
   <g id="patch_6">
    <path d="M 29.722656 425.935744 
L 227.439192 425.935744 
" style="fill: none; stroke: #000000; stroke-width: 0.8; stroke-linejoin: miter; stroke-linecap: square"/>
   </g>
   <g id="patch_7">
    <path d="M 29.722656 22.140469 
L 227.439192 22.140469 
" style="fill: none; stroke: #000000; stroke-width: 0.8; stroke-linejoin: miter; stroke-linecap: square"/>
   </g>
   <g id="text_15">
    <text style="font: 5px 'Arial'" transform="translate(110.424283 10.778906)">t-SNE SP model</text>
    <text style="font: 5px 'Arial'" transform="translate(96.49108 16.140469)">Precision - Recall (PR) curve</text>
   </g>
   <g id="legend_1">
    <g id="patch_8">
     <path d="M 67.867643 468.922835 
L 189.294205 468.922835 
Q 190.294205 468.922835 190.294205 467.922835 
L 190.294205 461.230648 
Q 190.294205 460.230648 189.294205 460.230648 
L 67.867643 460.230648 
Q 66.867643 460.230648 66.867643 461.230648 
L 66.867643 467.922835 
Q 66.867643 468.922835 67.867643 468.922835 
z
" style="fill: #ffffff; opacity: 0.8; stroke: #cccccc; stroke-linejoin: miter"/>
    </g>
    <g id="line2d_16">
     <path d="M 68.867643 464.120492 
L 73.867643 464.120492 
L 78.867643 464.120492 
" style="fill: none; stroke: #ff0000; stroke-width: 1.5; stroke-linecap: square"/>
    </g>
    <g id="text_16">
     <text style="font: 5px 'Arial'; text-anchor: start" x="82.867643" y="465.870492" transform="rotate(-0 82.867643 465.870492)">model performance</text>
    </g>
    <g id="line2d_17">
     <path d="M 135.940299 464.120492 
L 140.940299 464.120492 
L 145.940299 464.120492 
" style="fill: none; stroke: #00bfbf; stroke-width: 1.5; stroke-linecap: square"/>
    </g>
    <g id="text_17">
     <text style="font: 5px 'Arial'; text-anchor: start" x="149.940299" y="465.870492" transform="rotate(-0 149.940299 465.870492)">random guessing</text>
    </g>
   </g>
  </g>
 </g>
 <defs>
  <clipPath id="pb66ea22c5c">
   <rect x="29.722656" y="22.140469" width="197.716535" height="403.795276"/>
  </clipPath>
 </defs>
</svg>
