<?xml version="1.0" encoding="utf-8" standalone="no"?>
<!DOCTYPE svg PUBLIC "-//W3C//DTD SVG 1.1//EN"
  "http://www.w3.org/Graphics/SVG/1.1/DTD/svg11.dtd">
<svg xmlns:xlink="http://www.w3.org/1999/xlink" width="238.114192pt" height="462.97182pt" viewBox="0 0 238.114192 462.97182" xmlns="http://www.w3.org/2000/svg" version="1.1">
 <metadata>
  <rdf:RDF xmlns:dc="http://purl.org/dc/elements/1.1/" xmlns:cc="http://creativecommons.org/ns#" xmlns:rdf="http://www.w3.org/1999/02/22-rdf-syntax-ns#">
   <cc:Work>
    <dc:type rdf:resource="http://purl.org/dc/dcmitype/StillImage"/>
    <dc:date>2024-09-25T14:38:19.983017</dc:date>
    <dc:format>image/svg+xml</dc:format>
    <dc:creator>
     <cc:Agent>
      <dc:title>Matplotlib v3.7.0, https://matplotlib.org/</dc:title>
     </cc:Agent>
    </dc:creator>
   </cc:Work>
  </rdf:RDF>
 </metadata>
 <defs>
  <style type="text/css">*{stroke-linejoin: round; stroke-linecap: butt}</style>
 </defs>
 <g id="figure_1">
  <g id="patch_1">
   <path d="M 0 462.97182 
L 238.114192 462.97182 
L 238.114192 0 
L 0 0 
z
" style="fill: #ffffff"/>
  </g>
  <g id="axes_1">
   <g id="patch_2">
    <path d="M 29.722656 412.784729 
L 227.439192 412.784729 
L 227.439192 8.989453 
L 29.722656 8.989453 
z
" style="fill: #ffffff"/>
   </g>
   <g id="patch_3">
    <path d="M 29.722656 8.989453 
L 33.674806 18.884012 
L 31.918577 20.244392 
L 59.389496 168.165629 
L 59.204629 168.308827 
L 31.73371 20.38759 
L 29.977481 21.747971 
z
" clip-path="url(#p775ff3ed77)" style="fill: #1f77b4; stroke: #000000; stroke-linejoin: miter"/>
   </g>
   <g id="matplotlib.axis_1">
    <g id="xtick_1">
     <g id="line2d_1">
      <defs>
       <path id="m8e5210229f" d="M 0 0 
L 0 3.5 
" style="stroke: #000000; stroke-width: 0.8"/>
      </defs>
      <g>
       <use xlink:href="#m8e5210229f" x="29.722656" y="412.784729" style="stroke: #000000; stroke-width: 0.8"/>
      </g>
     </g>
     <g id="text_1">
      <text style="font: 5px 'Arial'; text-anchor: middle" x="29.722656" y="423.363635" transform="rotate(-0 29.722656 423.363635)">0.0</text>
     </g>
    </g>
    <g id="xtick_2">
     <g id="line2d_2">
      <g>
       <use xlink:href="#m8e5210229f" x="69.265963" y="412.784729" style="stroke: #000000; stroke-width: 0.8"/>
      </g>
     </g>
     <g id="text_2">
      <text style="font: 5px 'Arial'; text-anchor: middle" x="69.265963" y="423.363635" transform="rotate(-0 69.265963 423.363635)">0.2</text>
     </g>
    </g>
    <g id="xtick_3">
     <g id="line2d_3">
      <g>
       <use xlink:href="#m8e5210229f" x="108.80927" y="412.784729" style="stroke: #000000; stroke-width: 0.8"/>
      </g>
     </g>
     <g id="text_3">
      <text style="font: 5px 'Arial'; text-anchor: middle" x="108.80927" y="423.363635" transform="rotate(-0 108.80927 423.363635)">0.4</text>
     </g>
    </g>
    <g id="xtick_4">
     <g id="line2d_4">
      <g>
       <use xlink:href="#m8e5210229f" x="148.352578" y="412.784729" style="stroke: #000000; stroke-width: 0.8"/>
      </g>
     </g>
     <g id="text_4">
      <text style="font: 5px 'Arial'; text-anchor: middle" x="148.352578" y="423.363635" transform="rotate(-0 148.352578 423.363635)">0.6</text>
     </g>
    </g>
    <g id="xtick_5">
     <g id="line2d_5">
      <g>
       <use xlink:href="#m8e5210229f" x="187.895885" y="412.784729" style="stroke: #000000; stroke-width: 0.8"/>
      </g>
     </g>
     <g id="text_5">
      <text style="font: 5px 'Arial'; text-anchor: middle" x="187.895885" y="423.363635" transform="rotate(-0 187.895885 423.363635)">0.8</text>
     </g>
    </g>
    <g id="xtick_6">
     <g id="line2d_6">
      <g>
       <use xlink:href="#m8e5210229f" x="227.439192" y="412.784729" style="stroke: #000000; stroke-width: 0.8"/>
      </g>
     </g>
     <g id="text_6">
      <text style="font: 5px 'Arial'; text-anchor: middle" x="227.439192" y="423.363635" transform="rotate(-0 227.439192 423.363635)">1.0</text>
     </g>
    </g>
    <g id="text_7">
     <text style="font: 5px 'Arial'; text-anchor: middle" x="128.580924" y="431.936291" transform="rotate(-0 128.580924 431.936291)">FPR</text>
    </g>
   </g>
   <g id="matplotlib.axis_2">
    <g id="ytick_1">
     <g id="line2d_7">
      <defs>
       <path id="mc5bd67f3c1" d="M 0 0 
L -3.5 0 
" style="stroke: #000000; stroke-width: 0.8"/>
      </defs>
      <g>
       <use xlink:href="#mc5bd67f3c1" x="29.722656" y="412.784729" style="stroke: #000000; stroke-width: 0.8"/>
      </g>
     </g>
     <g id="text_8">
      <text style="font: 5px 'Arial'; text-anchor: end" x="22.722656" y="414.574182" transform="rotate(-0 22.722656 414.574182)">0.0</text>
     </g>
    </g>
    <g id="ytick_2">
     <g id="line2d_8">
      <g>
       <use xlink:href="#mc5bd67f3c1" x="29.722656" y="332.025674" style="stroke: #000000; stroke-width: 0.8"/>
      </g>
     </g>
     <g id="text_9">
      <text style="font: 5px 'Arial'; text-anchor: end" x="22.722656" y="333.815127" transform="rotate(-0 22.722656 333.815127)">0.2</text>
     </g>
    </g>
    <g id="ytick_3">
     <g id="line2d_9">
      <g>
       <use xlink:href="#mc5bd67f3c1" x="29.722656" y="251.266618" style="stroke: #000000; stroke-width: 0.8"/>
      </g>
     </g>
     <g id="text_10">
      <text style="font: 5px 'Arial'; text-anchor: end" x="22.722656" y="253.056072" transform="rotate(-0 22.722656 253.056072)">0.4</text>
     </g>
    </g>
    <g id="ytick_4">
     <g id="line2d_10">
      <g>
       <use xlink:href="#mc5bd67f3c1" x="29.722656" y="170.507563" style="stroke: #000000; stroke-width: 0.8"/>
      </g>
     </g>
     <g id="text_11">
      <text style="font: 5px 'Arial'; text-anchor: end" x="22.722656" y="172.297016" transform="rotate(-0 22.722656 172.297016)">0.6</text>
     </g>
    </g>
    <g id="ytick_5">
     <g id="line2d_11">
      <g>
       <use xlink:href="#mc5bd67f3c1" x="29.722656" y="89.748508" style="stroke: #000000; stroke-width: 0.8"/>
      </g>
     </g>
     <g id="text_12">
      <text style="font: 5px 'Arial'; text-anchor: end" x="22.722656" y="91.537961" transform="rotate(-0 22.722656 91.537961)">0.8</text>
     </g>
    </g>
    <g id="ytick_6">
     <g id="line2d_12">
      <g>
       <use xlink:href="#mc5bd67f3c1" x="29.722656" y="8.989453" style="stroke: #000000; stroke-width: 0.8"/>
      </g>
     </g>
     <g id="text_13">
      <text style="font: 5px 'Arial'; text-anchor: end" x="22.722656" y="10.778906" transform="rotate(-0 22.722656 10.778906)">1.0</text>
     </g>
    </g>
    <g id="text_14">
     <text style="font: 5px 'Arial'; text-anchor: middle" x="10.778906" y="210.887091" transform="rotate(-90 10.778906 210.887091)">TPR</text>
    </g>
   </g>
   <g id="line2d_13">
    <path d="M 29.722656 412.784729 
L 29.722656 359.594026 
L 30.054953 359.594026 
L 30.054953 351.81002 
L 30.38725 351.81002 
L 30.38725 348.891018 
L 30.719546 348.891018 
L 30.719546 333.647341 
L 31.051843 333.647341 
L 31.051843 326.18767 
L 31.38414 326.18767 
L 31.38414 325.214669 
L 31.716436 325.214669 
L 31.716436 311.916993 
L 32.048733 311.916993 
L 32.048733 311.268326 
L 32.38103 311.268326 
L 32.38103 308.024991 
L 32.713327 308.024991 
L 32.713327 303.808654 
L 33.045623 303.808654 
L 33.045623 300.565319 
L 33.37792 300.565319 
L 33.37792 299.267985 
L 33.710217 299.267985 
L 33.710217 293.754314 
L 34.042513 293.754314 
L 34.042513 286.618976 
L 34.37481 286.618976 
L 34.37481 282.726973 
L 34.707107 282.726973 
L 34.707107 282.40264 
L 35.039403 282.40264 
L 35.039403 272.672633 
L 35.3717 272.672633 
L 35.3717 271.699632 
L 35.703997 271.699632 
L 35.703997 270.077965 
L 36.36859 270.077965 
L 36.36859 261.645292 
L 36.700887 261.645292 
L 36.700887 260.996625 
L 37.033184 260.996625 
L 37.033184 259.050624 
L 37.36548 259.050624 
L 37.36548 257.104622 
L 37.697777 257.104622 
L 37.697777 253.536953 
L 38.030074 253.536953 
L 38.030074 250.293618 
L 38.36237 250.293618 
L 38.36237 246.077282 
L 38.694667 246.077282 
L 38.694667 245.104281 
L 39.026964 245.104281 
L 39.026964 243.806947 
L 39.35926 243.806947 
L 39.35926 243.15828 
L 39.691557 243.15828 
L 39.691557 242.509613 
L 40.023854 242.509613 
L 40.023854 239.590611 
L 40.356151 239.590611 
L 40.356151 237.968943 
L 40.688447 237.968943 
L 40.688447 234.401274 
L 41.353041 234.401274 
L 41.353041 233.428273 
L 41.685337 233.428273 
L 41.685337 232.779606 
L 42.017634 232.779606 
L 42.017634 224.671267 
L 42.349931 224.671267 
L 42.349931 219.157597 
L 42.682227 219.157597 
L 42.682227 215.265594 
L 43.014524 215.265594 
L 43.014524 213.96826 
L 43.679118 213.96826 
L 43.679118 209.42759 
L 44.011414 209.42759 
L 44.011414 208.778923 
L 45.008304 208.778923 
L 45.008304 207.805922 
L 45.340601 207.805922 
L 45.340601 204.562587 
L 46.669788 204.562587 
L 46.669788 202.292252 
L 47.002085 202.292252 
L 47.002085 199.697583 
L 47.334381 199.697583 
L 47.334381 198.724583 
L 47.666678 198.724583 
L 47.666678 196.454248 
L 47.998975 196.454248 
L 47.998975 195.805581 
L 48.331271 195.805581 
L 48.331271 195.156914 
L 48.663568 195.156914 
L 48.663568 192.886579 
L 48.995865 192.886579 
L 48.995865 192.237912 
L 50.325052 192.237912 
L 50.325052 190.616244 
L 50.657348 190.616244 
L 50.657348 188.670242 
L 51.654238 188.670242 
L 51.654238 187.697242 
L 51.986535 187.697242 
L 51.986535 184.77824 
L 52.318832 184.77824 
L 52.318832 184.453906 
L 52.651128 184.453906 
L 52.651128 183.156572 
L 53.315722 183.156572 
L 53.315722 180.886237 
L 53.648019 180.886237 
L 53.648019 179.588903 
L 53.980315 179.588903 
L 53.980315 177.967235 
L 54.312612 177.967235 
L 54.312612 177.318568 
L 54.644909 177.318568 
L 54.644909 175.048233 
L 54.977205 175.048233 
L 54.977205 174.7239 
L 55.309502 174.7239 
L 55.309502 174.399566 
L 55.974095 174.399566 
L 55.974095 174.075232 
L 56.306392 174.075232 
L 56.306392 173.750899 
L 56.970986 173.750899 
L 56.970986 172.453565 
L 57.635579 172.453565 
L 57.635579 171.804898 
L 57.967876 171.804898 
L 57.967876 170.831897 
L 58.300172 170.831897 
L 58.300172 169.858896 
L 58.964766 169.858896 
L 58.964766 169.210229 
L 59.297062 169.210229 
L 59.297062 168.237228 
L 59.961656 168.237228 
L 59.961656 167.912895 
L 60.626249 167.912895 
L 60.626249 167.588561 
L 61.290843 167.588561 
L 61.290843 167.264228 
L 61.955436 167.264228 
L 61.955436 165.64256 
L 62.952326 165.64256 
L 62.952326 165.318226 
L 63.284623 165.318226 
L 63.284623 164.993893 
L 63.949216 164.993893 
L 63.949216 163.372225 
L 64.281513 163.372225 
L 64.281513 162.723558 
L 64.61381 162.723558 
L 64.61381 161.426224 
L 65.278403 161.426224 
L 65.278403 160.12889 
L 66.60759 160.12889 
L 66.60759 159.155889 
L 66.939886 159.155889 
L 66.939886 158.831555 
L 67.60448 158.831555 
L 67.60448 158.507222 
L 68.933667 158.507222 
L 68.933667 158.182888 
L 69.265963 158.182888 
L 69.265963 157.858555 
L 69.930557 157.858555 
L 69.930557 156.885554 
L 70.262853 156.885554 
L 70.262853 155.263886 
L 70.927447 155.263886 
L 70.927447 154.939553 
L 71.259744 154.939553 
L 71.259744 154.615219 
L 71.59204 154.615219 
L 71.59204 152.993551 
L 71.924337 152.993551 
L 71.924337 152.344884 
L 72.256634 152.344884 
L 72.256634 152.020551 
L 74.250414 152.020551 
L 74.250414 150.074549 
L 75.579601 150.074549 
L 75.579601 149.750216 
L 75.911897 149.750216 
L 75.911897 149.101549 
L 76.244194 149.101549 
L 76.244194 148.128548 
L 76.576491 148.128548 
L 76.576491 147.804215 
L 77.573381 147.804215 
L 77.573381 147.479881 
L 78.237974 147.479881 
L 78.237974 147.155547 
L 79.899458 147.155547 
L 79.899458 145.858213 
L 80.564051 145.858213 
L 80.564051 145.53388 
L 81.228644 145.53388 
L 81.228644 145.209546 
L 81.560941 145.209546 
L 81.560941 144.885213 
L 81.893238 144.885213 
L 81.893238 144.236545 
L 82.225535 144.236545 
L 82.225535 143.587878 
L 82.557831 143.587878 
L 82.557831 142.939211 
L 82.890128 142.939211 
L 82.890128 142.290544 
L 83.222425 142.290544 
L 83.222425 141.966211 
L 84.219315 141.966211 
L 84.219315 140.344543 
L 85.216205 140.344543 
L 85.216205 139.695876 
L 86.213095 139.695876 
L 86.213095 139.371542 
L 86.877688 139.371542 
L 86.877688 139.047209 
L 87.209985 139.047209 
L 87.209985 138.398541 
L 87.874578 138.398541 
L 87.874578 136.776874 
L 88.871469 136.776874 
L 88.871469 135.803873 
L 89.203765 135.803873 
L 89.203765 135.479539 
L 89.536062 135.479539 
L 89.536062 135.155206 
L 90.200655 135.155206 
L 90.200655 133.857872 
L 90.532952 133.857872 
L 90.532952 132.884871 
L 90.865249 132.884871 
L 90.865249 132.236204 
L 91.197545 132.236204 
L 91.197545 131.91187 
L 92.526732 131.91187 
L 92.526732 130.93887 
L 92.859029 130.93887 
L 92.859029 130.290203 
L 93.855919 130.290203 
L 93.855919 129.641535 
L 94.188216 129.641535 
L 94.188216 128.992868 
L 95.517402 128.992868 
L 95.517402 128.019868 
L 95.849699 128.019868 
L 95.849699 127.371201 
L 97.511183 127.371201 
L 97.511183 126.3982 
L 97.843479 126.3982 
L 97.843479 126.073866 
L 98.840369 126.073866 
L 98.840369 124.776532 
L 99.504963 124.776532 
L 99.504963 124.127865 
L 100.501853 124.127865 
L 100.501853 123.154864 
L 100.83415 123.154864 
L 100.83415 122.506197 
L 101.498743 122.506197 
L 101.498743 122.181864 
L 101.83104 122.181864 
L 101.83104 121.533197 
L 102.163336 121.533197 
L 102.163336 121.208863 
L 102.495633 121.208863 
L 102.495633 119.911529 
L 102.82793 119.911529 
L 102.82793 119.262862 
L 103.160227 119.262862 
L 103.160227 118.614195 
L 103.82482 118.614195 
L 103.82482 118.289861 
L 104.157117 118.289861 
L 104.157117 117.641194 
L 104.489413 117.641194 
L 104.489413 116.668193 
L 104.82171 116.668193 
L 104.82171 116.34386 
L 106.150897 116.34386 
L 106.150897 115.695193 
L 106.483194 115.695193 
L 106.483194 115.370859 
L 106.81549 115.370859 
L 106.81549 114.397858 
L 107.81238 114.397858 
L 107.81238 114.073525 
L 108.80927 114.073525 
L 108.80927 113.749191 
L 109.141567 113.749191 
L 109.141567 113.424858 
L 109.806161 113.424858 
L 109.806161 113.100524 
L 110.470754 113.100524 
L 110.470754 112.776191 
L 110.803051 112.776191 
L 110.803051 112.127524 
L 111.135347 112.127524 
L 111.135347 111.80319 
L 112.464534 111.80319 
L 112.464534 111.154523 
L 112.796831 111.154523 
L 112.796831 110.830189 
L 113.129127 110.830189 
L 113.129127 110.505856 
L 113.793721 110.505856 
L 113.793721 110.181522 
L 114.458314 110.181522 
L 114.458314 109.857189 
L 114.790611 109.857189 
L 114.790611 109.532855 
L 115.455204 109.532855 
L 115.455204 109.208522 
L 116.119798 109.208522 
L 116.119798 108.884188 
L 116.452094 108.884188 
L 116.452094 108.235521 
L 117.781281 108.235521 
L 117.781281 107.911187 
L 118.113578 107.911187 
L 118.113578 107.586854 
L 118.445875 107.586854 
L 118.445875 107.26252 
L 118.778171 107.26252 
L 118.778171 106.938187 
L 119.775061 106.938187 
L 119.775061 106.28952 
L 120.439655 106.28952 
L 120.439655 105.640852 
L 120.771952 105.640852 
L 120.771952 105.316519 
L 121.104248 105.316519 
L 121.104248 104.667852 
L 121.436545 104.667852 
L 121.436545 104.019185 
L 121.768842 104.019185 
L 121.768842 103.694851 
L 122.101138 103.694851 
L 122.101138 100.775849 
L 122.765732 100.775849 
L 122.765732 100.451516 
L 123.430325 100.451516 
L 123.430325 100.127182 
L 124.427215 100.127182 
L 124.427215 99.802848 
L 126.420995 99.802848 
L 126.420995 99.478515 
L 127.417886 99.478515 
L 127.417886 98.829848 
L 127.750182 98.829848 
L 127.750182 98.505514 
L 128.082479 98.505514 
L 128.082479 97.856847 
L 128.414776 97.856847 
L 128.414776 96.883846 
L 129.079369 96.883846 
L 129.079369 95.910846 
L 130.076259 95.910846 
L 130.076259 95.586512 
L 131.073149 95.586512 
L 131.073149 94.937845 
L 131.405446 94.937845 
L 131.405446 94.613512 
L 132.070039 94.613512 
L 132.070039 94.289178 
L 132.402336 94.289178 
L 132.402336 93.640511 
L 133.731523 93.640511 
L 133.731523 93.316177 
L 134.063819 93.316177 
L 134.063819 92.66751 
L 135.06071 92.66751 
L 135.06071 92.018843 
L 136.722193 92.018843 
L 136.722193 89.748508 
L 137.386786 89.748508 
L 137.386786 88.12684 
L 138.715973 88.12684 
L 138.715973 87.802507 
L 139.04827 87.802507 
L 139.04827 87.478173 
L 139.712863 87.478173 
L 139.712863 86.505173 
L 140.04516 86.505173 
L 140.04516 86.180839 
L 140.709753 86.180839 
L 140.709753 85.207838 
L 141.706644 85.207838 
L 141.706644 82.937504 
L 142.371237 82.937504 
L 142.371237 81.964503 
L 142.703534 81.964503 
L 142.703534 81.315836 
L 143.03583 81.315836 
L 143.03583 78.721167 
L 143.700424 78.721167 
L 143.700424 78.0725 
L 144.697314 78.0725 
L 144.697314 77.423833 
L 145.361907 77.423833 
L 145.361907 75.477832 
L 145.694204 75.477832 
L 145.694204 74.829165 
L 146.026501 74.829165 
L 146.026501 72.883163 
L 146.358797 72.883163 
L 146.358797 72.55883 
L 146.691094 72.55883 
L 146.691094 72.234496 
L 147.687984 72.234496 
L 147.687984 71.585829 
L 148.020281 71.585829 
L 148.020281 71.261496 
L 148.352578 71.261496 
L 148.352578 69.639828 
L 148.684874 69.639828 
L 148.684874 68.01816 
L 149.349468 68.01816 
L 149.349468 67.369493 
L 149.681764 67.369493 
L 149.681764 67.045159 
L 151.010951 67.045159 
L 151.010951 66.720826 
L 151.343248 66.720826 
L 151.343248 65.747825 
L 152.007841 65.747825 
L 152.007841 65.423492 
L 153.004731 65.423492 
L 153.004731 64.450491 
L 153.669325 64.450491 
L 153.669325 64.126157 
L 154.001621 64.126157 
L 154.001621 63.47749 
L 154.333918 63.47749 
L 154.333918 62.828823 
L 155.330808 62.828823 
L 155.330808 61.855823 
L 155.663105 61.855823 
L 155.663105 61.531489 
L 155.995402 61.531489 
L 155.995402 59.909821 
L 156.327698 59.909821 
L 156.327698 59.261154 
L 156.992292 59.261154 
L 156.992292 58.936821 
L 157.324588 58.936821 
L 157.324588 56.666486 
L 157.989182 56.666486 
L 157.989182 55.693485 
L 158.321478 55.693485 
L 158.321478 54.720484 
L 158.986072 54.720484 
L 158.986072 54.071817 
L 159.982962 54.071817 
L 159.982962 53.747484 
L 160.315259 53.747484 
L 160.315259 52.125816 
L 160.979852 52.125816 
L 160.979852 51.152815 
L 162.641336 51.152815 
L 162.641336 50.828482 
L 162.973632 50.828482 
L 162.973632 50.504148 
L 163.638226 50.504148 
L 163.638226 49.855481 
L 163.970522 49.855481 
L 163.970522 49.206814 
L 164.302819 49.206814 
L 164.302819 48.233813 
L 164.635116 48.233813 
L 164.635116 47.260813 
L 164.967412 47.260813 
L 164.967412 46.936479 
L 165.299709 46.936479 
L 165.299709 45.314811 
L 165.964303 45.314811 
L 165.964303 43.693143 
L 166.628896 43.693143 
L 166.628896 43.044476 
L 167.625786 43.044476 
L 167.625786 42.720143 
L 167.958083 42.720143 
L 167.958083 42.395809 
L 168.290379 42.395809 
L 168.290379 41.747142 
L 168.954973 41.747142 
L 168.954973 41.422809 
L 169.287269 41.422809 
L 169.287269 41.098475 
L 169.951863 41.098475 
L 169.951863 40.125474 
L 170.28416 40.125474 
L 170.28416 39.801141 
L 171.28105 39.801141 
L 171.28105 39.476807 
L 171.613346 39.476807 
L 171.613346 39.152474 
L 171.945643 39.152474 
L 171.945643 38.82814 
L 172.610236 38.82814 
L 172.610236 38.503807 
L 172.942533 38.503807 
L 172.942533 37.530806 
L 173.607127 37.530806 
L 173.607127 36.233472 
L 174.604017 36.233472 
L 174.604017 35.584805 
L 174.936313 35.584805 
L 174.936313 34.611804 
L 176.597797 34.611804 
L 176.597797 33.963137 
L 176.930094 33.963137 
L 176.930094 33.31447 
L 177.26239 33.31447 
L 177.26239 32.017136 
L 179.25617 32.017136 
L 179.25617 31.692802 
L 180.253061 31.692802 
L 180.253061 30.719801 
L 181.914544 30.719801 
L 181.914544 29.746801 
L 182.246841 29.746801 
L 182.246841 29.422467 
L 182.911434 29.422467 
L 182.911434 29.098134 
L 183.243731 29.098134 
L 183.243731 28.7738 
L 183.908324 28.7738 
L 183.908324 28.449466 
L 184.905214 28.449466 
L 184.905214 28.125133 
L 186.898995 28.125133 
L 186.898995 27.800799 
L 187.231291 27.800799 
L 187.231291 27.476466 
L 187.895885 27.476466 
L 187.895885 27.152132 
L 189.889665 27.152132 
L 189.889665 26.503465 
L 190.221961 26.503465 
L 190.221961 26.179132 
L 190.554258 26.179132 
L 190.554258 25.854798 
L 191.551148 25.854798 
L 191.551148 24.23313 
L 191.883445 24.23313 
L 191.883445 23.908797 
L 192.215742 23.908797 
L 192.215742 23.584463 
L 198.197082 23.584463 
L 198.197082 22.935796 
L 198.861676 22.935796 
L 198.861676 22.611462 
L 200.190862 22.611462 
L 200.190862 21.962795 
L 202.184643 21.962795 
L 202.184643 21.638462 
L 202.516939 21.638462 
L 202.516939 21.314128 
L 203.513829 21.314128 
L 203.513829 20.989795 
L 204.843016 20.989795 
L 204.843016 20.665461 
L 205.50761 20.665461 
L 205.50761 20.341128 
L 206.172203 20.341128 
L 206.172203 20.016794 
L 207.50139 20.016794 
L 207.50139 19.368127 
L 209.827467 19.368127 
L 209.827467 19.043793 
L 210.159763 19.043793 
L 210.159763 18.71946 
L 210.49206 18.71946 
L 210.49206 18.395126 
L 211.48895 18.395126 
L 211.48895 18.070793 
L 213.150434 18.070793 
L 213.150434 17.746459 
L 213.48273 17.746459 
L 213.48273 17.422126 
L 213.815027 17.422126 
L 213.815027 16.449125 
L 214.47962 16.449125 
L 214.47962 15.800458 
L 215.144214 15.800458 
L 215.144214 15.151791 
L 216.141104 15.151791 
L 216.141104 14.503124 
L 216.805697 14.503124 
L 216.805697 14.17879 
L 217.802587 14.17879 
L 217.802587 13.530123 
L 218.467181 13.530123 
L 218.467181 12.881456 
L 219.131774 12.881456 
L 219.131774 12.557122 
L 220.793258 12.557122 
L 220.793258 12.232789 
L 221.790148 12.232789 
L 221.790148 11.908455 
L 223.119335 11.908455 
L 223.119335 11.584122 
L 223.451631 11.584122 
L 223.451631 11.259788 
L 223.783928 11.259788 
L 223.783928 10.935454 
L 224.780818 10.935454 
L 224.780818 10.286787 
L 225.445411 10.286787 
L 225.445411 9.962454 
L 227.106895 9.962454 
L 227.106895 9.63812 
L 227.439192 9.63812 
L 227.439192 8.989453 
L 227.439192 8.989453 
" clip-path="url(#p775ff3ed77)" style="fill: none; stroke: #ff0000; stroke-width: 1.5; stroke-linecap: square"/>
   </g>
   <g id="line2d_14">
    <defs>
     <path id="me20dac43a7" d="M 0 3 
C 0.795609 3 1.55874 2.683901 2.12132 2.12132 
C 2.683901 1.55874 3 0.795609 3 0 
C 3 -0.795609 2.683901 -1.55874 2.12132 -2.12132 
C 1.55874 -2.683901 0.795609 -3 0 -3 
C -0.795609 -3 -1.55874 -2.683901 -2.12132 -2.12132 
C -2.683901 -1.55874 -3 -0.795609 -3 0 
C -3 0.795609 -2.683901 1.55874 -2.12132 2.12132 
C -1.55874 2.683901 -0.795609 3 0 3 
z
" style="stroke: #000000"/>
    </defs>
    <g clip-path="url(#p775ff3ed77)">
     <use xlink:href="#me20dac43a7" x="59.297062" y="168.237228" style="fill: #ff0000; stroke: #000000"/>
    </g>
   </g>
   <g id="line2d_15">
    <path d="M 29.722656 412.784729 
L 227.439192 8.989453 
" clip-path="url(#p775ff3ed77)" style="fill: none; stroke: #00bfbf; stroke-width: 1.5; stroke-linecap: square"/>
   </g>
   <g id="patch_4">
    <path d="M 29.722656 412.784729 
L 29.722656 8.989453 
" style="fill: none; stroke: #000000; stroke-width: 0.8; stroke-linejoin: miter; stroke-linecap: square"/>
   </g>
   <g id="patch_5">
    <path d="M 227.439192 412.784729 
L 227.439192 8.989453 
" style="fill: none; stroke: #000000; stroke-width: 0.8; stroke-linejoin: miter; stroke-linecap: square"/>
   </g>
   <g id="patch_6">
    <path d="M 29.722656 412.784729 
L 227.439192 412.784729 
" style="fill: none; stroke: #000000; stroke-width: 0.8; stroke-linejoin: miter; stroke-linecap: square"/>
   </g>
   <g id="patch_7">
    <path d="M 29.722656 8.989453 
L 227.439192 8.989453 
" style="fill: none; stroke: #000000; stroke-width: 0.8; stroke-linejoin: miter; stroke-linecap: square"/>
   </g>
   <g id="legend_1">
    <g id="patch_8">
     <path d="M 67.867643 455.77182 
L 189.294205 455.77182 
Q 190.294205 455.77182 190.294205 454.77182 
L 190.294205 448.079632 
Q 190.294205 447.079632 189.294205 447.079632 
L 67.867643 447.079632 
Q 66.867643 447.079632 66.867643 448.079632 
L 66.867643 454.77182 
Q 66.867643 455.77182 67.867643 455.77182 
z
" style="fill: #ffffff; opacity: 0.8; stroke: #cccccc; stroke-linejoin: miter"/>
    </g>
    <g id="line2d_16">
     <path d="M 68.867643 450.969476 
L 73.867643 450.969476 
L 78.867643 450.969476 
" style="fill: none; stroke: #ff0000; stroke-width: 1.5; stroke-linecap: square"/>
    </g>
    <g id="text_15">
     <text style="font: 5px 'Arial'; text-anchor: start" x="82.867643" y="452.719476" transform="rotate(-0 82.867643 452.719476)">model performance</text>
    </g>
    <g id="line2d_17">
     <path d="M 135.940299 450.969476 
L 140.940299 450.969476 
L 145.940299 450.969476 
" style="fill: none; stroke: #00bfbf; stroke-width: 1.5; stroke-linecap: square"/>
    </g>
    <g id="text_16">
     <text style="font: 5px 'Arial'; text-anchor: start" x="149.940299" y="452.719476" transform="rotate(-0 149.940299 452.719476)">random guessing</text>
    </g>
   </g>
  </g>
 </g>
 <defs>
  <clipPath id="p775ff3ed77">
   <rect x="29.722656" y="8.989453" width="197.716535" height="403.795276"/>
  </clipPath>
 </defs>
</svg>
