<?xml version="1.0" encoding="utf-8" standalone="no"?>
<!DOCTYPE svg PUBLIC "-//W3C//DTD SVG 1.1//EN"
  "http://www.w3.org/Graphics/SVG/1.1/DTD/svg11.dtd">
<svg xmlns:xlink="http://www.w3.org/1999/xlink" width="413.064687pt" height="359.867056pt" viewBox="0 0 413.064687 359.867056" xmlns="http://www.w3.org/2000/svg" version="1.1">
 <metadata>
  <rdf:RDF xmlns:dc="http://purl.org/dc/elements/1.1/" xmlns:cc="http://creativecommons.org/ns#" xmlns:rdf="http://www.w3.org/1999/02/22-rdf-syntax-ns#">
   <cc:Work>
    <dc:type rdf:resource="http://purl.org/dc/dcmitype/StillImage"/>
    <dc:date>2024-09-25T06:57:20.979650</dc:date>
    <dc:format>image/svg+xml</dc:format>
    <dc:creator>
     <cc:Agent>
      <dc:title>Matplotlib v3.7.0, https://matplotlib.org/</dc:title>
     </cc:Agent>
    </dc:creator>
   </cc:Work>
  </rdf:RDF>
 </metadata>
 <defs>
  <style type="text/css">*{stroke-linejoin: round; stroke-linecap: butt}</style>
 </defs>
 <g id="figure_1">
  <g id="patch_1">
   <path d="M 0 359.867056 
L 413.064687 359.867056 
L 413.064687 0 
L 0 0 
z
" style="fill: #ffffff"/>
  </g>
  <g id="axes_1">
   <g id="patch_2">
    <path d="M 45.269688 288.252469 
L 402.389688 288.252469 
L 402.389688 22.140469 
L 45.269688 22.140469 
z
" style="fill: #ffffff"/>
   </g>
   <g id="patch_3">
    <path d="M 402.389688 22.140469 
L 403.706271 30.498286 
L 400.384602 29.983897 
L 382.198633 95.192096 
L 381.848983 95.137949 
L 400.034953 29.929751 
L 396.713284 29.415363 
z
" clip-path="url(#p30cfd1d9d2)" style="fill: #1f77b4; stroke: #000000; stroke-linejoin: miter"/>
   </g>
   <g id="matplotlib.axis_1">
    <g id="xtick_1">
     <g id="line2d_1">
      <defs>
       <path id="m357d34bbd3" d="M 0 0 
L 0 3.5 
" style="stroke: #000000; stroke-width: 0.8"/>
      </defs>
      <g>
       <use xlink:href="#m357d34bbd3" x="45.269688" y="288.252469" style="stroke: #000000; stroke-width: 0.8"/>
      </g>
     </g>
     <g id="text_1">
      <text style="font: 5px 'Arial'; text-anchor: middle" x="45.269688" y="298.831375" transform="rotate(-0 45.269688 298.831375)">0.0</text>
     </g>
    </g>
    <g id="xtick_2">
     <g id="line2d_2">
      <g>
       <use xlink:href="#m357d34bbd3" x="116.693688" y="288.252469" style="stroke: #000000; stroke-width: 0.8"/>
      </g>
     </g>
     <g id="text_2">
      <text style="font: 5px 'Arial'; text-anchor: middle" x="116.693688" y="298.831375" transform="rotate(-0 116.693688 298.831375)">0.2</text>
     </g>
    </g>
    <g id="xtick_3">
     <g id="line2d_3">
      <g>
       <use xlink:href="#m357d34bbd3" x="188.117688" y="288.252469" style="stroke: #000000; stroke-width: 0.8"/>
      </g>
     </g>
     <g id="text_3">
      <text style="font: 5px 'Arial'; text-anchor: middle" x="188.117688" y="298.831375" transform="rotate(-0 188.117688 298.831375)">0.4</text>
     </g>
    </g>
    <g id="xtick_4">
     <g id="line2d_4">
      <g>
       <use xlink:href="#m357d34bbd3" x="259.541688" y="288.252469" style="stroke: #000000; stroke-width: 0.8"/>
      </g>
     </g>
     <g id="text_4">
      <text style="font: 5px 'Arial'; text-anchor: middle" x="259.541688" y="298.831375" transform="rotate(-0 259.541688 298.831375)">0.6</text>
     </g>
    </g>
    <g id="xtick_5">
     <g id="line2d_5">
      <g>
       <use xlink:href="#m357d34bbd3" x="330.965688" y="288.252469" style="stroke: #000000; stroke-width: 0.8"/>
      </g>
     </g>
     <g id="text_5">
      <text style="font: 5px 'Arial'; text-anchor: middle" x="330.965688" y="298.831375" transform="rotate(-0 330.965688 298.831375)">0.8</text>
     </g>
    </g>
    <g id="xtick_6">
     <g id="line2d_6">
      <g>
       <use xlink:href="#m357d34bbd3" x="402.389688" y="288.252469" style="stroke: #000000; stroke-width: 0.8"/>
      </g>
     </g>
     <g id="text_6">
      <text style="font: 5px 'Arial'; text-anchor: middle" x="402.389688" y="298.831375" transform="rotate(-0 402.389688 298.831375)">1.0</text>
     </g>
    </g>
    <g id="text_7">
     <text style="font: 22px 'Arial'; text-anchor: middle" x="223.829688" y="319.572312" transform="rotate(-0 223.829688 319.572312)">Recall</text>
    </g>
   </g>
   <g id="matplotlib.axis_2">
    <g id="ytick_1">
     <g id="line2d_7">
      <defs>
       <path id="m45cba1a3b6" d="M 0 0 
L -3.5 0 
" style="stroke: #000000; stroke-width: 0.8"/>
      </defs>
      <g>
       <use xlink:href="#m45cba1a3b6" x="45.269688" y="288.252469" style="stroke: #000000; stroke-width: 0.8"/>
      </g>
     </g>
     <g id="text_8">
      <text style="font: 5px 'Arial'; text-anchor: end" x="38.269688" y="290.041922" transform="rotate(-0 38.269688 290.041922)">0.0</text>
     </g>
    </g>
    <g id="ytick_2">
     <g id="line2d_8">
      <g>
       <use xlink:href="#m45cba1a3b6" x="45.269688" y="235.030069" style="stroke: #000000; stroke-width: 0.8"/>
      </g>
     </g>
     <g id="text_9">
      <text style="font: 5px 'Arial'; text-anchor: end" x="38.269688" y="236.819522" transform="rotate(-0 38.269688 236.819522)">0.2</text>
     </g>
    </g>
    <g id="ytick_3">
     <g id="line2d_9">
      <g>
       <use xlink:href="#m45cba1a3b6" x="45.269688" y="181.807669" style="stroke: #000000; stroke-width: 0.8"/>
      </g>
     </g>
     <g id="text_10">
      <text style="font: 5px 'Arial'; text-anchor: end" x="38.269688" y="183.597122" transform="rotate(-0 38.269688 183.597122)">0.4</text>
     </g>
    </g>
    <g id="ytick_4">
     <g id="line2d_10">
      <g>
       <use xlink:href="#m45cba1a3b6" x="45.269688" y="128.585269" style="stroke: #000000; stroke-width: 0.8"/>
      </g>
     </g>
     <g id="text_11">
      <text style="font: 5px 'Arial'; text-anchor: end" x="38.269688" y="130.374722" transform="rotate(-0 38.269688 130.374722)">0.6</text>
     </g>
    </g>
    <g id="ytick_5">
     <g id="line2d_11">
      <g>
       <use xlink:href="#m45cba1a3b6" x="45.269688" y="75.362869" style="stroke: #000000; stroke-width: 0.8"/>
      </g>
     </g>
     <g id="text_12">
      <text style="font: 5px 'Arial'; text-anchor: end" x="38.269688" y="77.152322" transform="rotate(-0 38.269688 77.152322)">0.8</text>
     </g>
    </g>
    <g id="ytick_6">
     <g id="line2d_12">
      <g>
       <use xlink:href="#m45cba1a3b6" x="45.269688" y="22.140469" style="stroke: #000000; stroke-width: 0.8"/>
      </g>
     </g>
     <g id="text_13">
      <text style="font: 5px 'Arial'; text-anchor: end" x="38.269688" y="23.929922" transform="rotate(-0 38.269688 23.929922)">1.0</text>
     </g>
    </g>
    <g id="text_14">
     <text style="font: 22px 'Arial'; text-anchor: middle" x="22.947188" y="155.196469" transform="rotate(-90 22.947188 155.196469)">Precision</text>
    </g>
   </g>
   <g id="line2d_13">
    <path d="M 402.389688 108.19299 
L 401.529157 108.235528 
L 401.529157 107.743947 
L 401.242314 107.790724 
L 401.242314 107.692058 
L 401.242314 107.593283 
L 400.668627 107.686878 
L 400.668627 107.587938 
L 400.668627 107.389733 
L 400.094941 107.384038 
L 400.094941 107.284605 
L 399.808097 107.331439 
L 399.808097 107.231868 
L 399.808097 106.932495 
L 399.521254 106.979264 
L 399.521254 106.879224 
L 399.521254 106.678811 
L 399.23441 106.725543 
L 399.23441 106.625141 
L 399.23441 106.22242 
L 398.947567 106.269054 
L 398.947567 106.168065 
L 398.947567 106.066963 
L 398.37388 106.160266 
L 398.37388 106.058992 
L 398.37388 105.957604 
L 397.800194 106.050994 
L 397.800194 105.949432 
L 397.800194 105.745969 
L 397.51335 105.79265 
L 397.51335 105.690717 
L 397.51335 105.58867 
L 396.939663 105.682065 
L 396.939663 105.579842 
L 396.939663 105.375052 
L 396.365977 105.468469 
L 396.365977 105.365839 
L 396.365977 105.263093 
L 395.79229 105.356595 
L 395.79229 105.253671 
L 395.79229 105.150631 
L 394.644916 105.23473 
L 394.644916 105.13133 
L 394.358073 105.178244 
L 394.358073 105.074695 
L 394.358073 104.659326 
L 394.07123 104.706132 
L 394.07123 104.601963 
L 394.07123 104.393269 
L 393.497543 104.382254 
L 393.497543 104.277544 
L 393.2107 104.324346 
L 393.2107 104.219484 
L 393.2107 103.587791 
L 392.637013 103.681087 
L 392.637013 103.575316 
L 392.637013 103.257272 
L 392.350169 103.303864 
L 392.350169 103.197572 
L 392.350169 103.091158 
L 392.063326 103.137735 
L 392.063326 103.031163 
L 392.063326 102.924469 
L 391.776483 102.97103 
L 391.776483 102.864178 
L 391.776483 102.542881 
L 391.489639 102.589357 
L 391.489639 102.481975 
L 391.489639 102.266838 
L 390.915953 102.251912 
L 390.915953 101.602317 
L 390.342266 101.69493 
L 390.342266 101.58615 
L 390.342266 101.259048 
L 390.055422 101.305289 
L 390.055422 101.195963 
L 390.055422 101.08651 
L 389.481736 101.179007 
L 389.481736 101.06935 
L 389.481736 99.185328 
L 388.908049 99.164583 
L 388.908049 99.052364 
L 387.473832 99.281269 
L 387.473832 99.168719 
L 387.473832 98.943217 
L 387.186989 98.989042 
L 387.186989 98.876048 
L 386.900145 98.921888 
L 386.900145 98.80872 
L 386.326459 98.900483 
L 386.326459 98.218134 
L 386.039615 98.263853 
L 386.039615 98.035227 
L 385.752772 98.080919 
L 385.752772 97.966358 
L 385.465928 98.012064 
L 385.465928 97.321536 
L 385.179085 97.367045 
L 385.179085 97.01977 
L 384.892242 97.065207 
L 384.892242 96.832901 
L 384.605398 96.878307 
L 384.605398 96.761899 
L 384.318555 96.807317 
L 384.318555 96.57399 
L 384.031712 96.619376 
L 384.031712 96.502455 
L 383.171181 96.638816 
L 383.171181 96.051404 
L 382.310651 96.187604 
L 382.310651 95.833023 
L 382.023808 95.8784 
L 382.023808 95.165023 
L 380.876434 95.346 
L 380.876434 95.226406 
L 380.302748 95.317139 
L 380.302748 95.197304 
L 379.729061 95.28817 
L 379.729061 94.686285 
L 378.868531 94.822309 
L 378.868531 94.701339 
L 378.294844 94.792211 
L 378.294844 94.428107 
L 377.147471 94.609963 
L 377.147471 94.366081 
L 376.286941 94.502785 
L 376.286941 94.380469 
L 376.000097 94.426104 
L 376.000097 94.180909 
L 375.713254 94.226504 
L 375.713254 94.103625 
L 375.42641 94.149229 
L 375.42641 94.026145 
L 375.139567 94.071758 
L 375.139567 93.70142 
L 374.852724 93.746942 
L 374.852724 93.623132 
L 373.992194 93.759897 
L 373.992194 93.511503 
L 373.70535 93.557108 
L 373.70535 93.432622 
L 373.418507 93.478235 
L 373.418507 93.228684 
L 372.84482 93.319881 
L 372.84482 93.194764 
L 372.557977 93.240399 
L 372.557977 93.11507 
L 372.271133 93.160713 
L 372.271133 92.783603 
L 371.697447 92.874755 
L 371.697447 92.622329 
L 370.26323 92.850722 
L 370.26323 92.597118 
L 368.829013 92.826469 
L 368.829013 92.699155 
L 368.542169 92.745152 
L 368.542169 92.617619 
L 367.681639 92.75581 
L 367.681639 92.627951 
L 366.821109 92.766524 
L 366.821109 92.638336 
L 366.247422 92.730914 
L 366.247422 92.60245 
L 365.673736 92.695163 
L 365.673736 92.437512 
L 365.386892 92.483852 
L 365.386892 92.354717 
L 365.100049 92.401063 
L 365.100049 91.752548 
L 364.239519 91.891126 
L 364.239519 91.63018 
L 362.805302 91.861813 
L 362.805302 91.730798 
L 362.518459 91.777254 
L 362.518459 91.382989 
L 361.944772 91.475745 
L 361.944772 91.211793 
L 361.084242 91.351049 
L 361.084242 91.218634 
L 360.223712 91.35828 
L 360.223712 91.092566 
L 358.215808 91.419796 
L 358.215808 91.28626 
L 357.928965 91.333202 
L 357.928965 91.065467 
L 357.355278 91.159306 
L 357.355278 91.025046 
L 355.921061 91.260469 
L 355.921061 91.125727 
L 355.634218 91.172945 
L 355.634218 91.037959 
L 354.773688 91.179821 
L 354.773688 90.773206 
L 354.200001 90.867741 
L 354.200001 90.731708 
L 353.626314 90.826382 
L 353.626314 90.690038 
L 353.339471 90.737411 
L 353.339471 90.464034 
L 352.478941 90.606177 
L 352.478941 90.194128 
L 352.192097 90.241453 
L 352.192097 89.965672 
L 351.331567 90.107665 
L 351.331567 89.969296 
L 351.044724 90.016695 
L 351.044724 89.461024 
L 350.75788 89.508233 
L 350.75788 89.368763 
L 350.184194 89.463252 
L 350.184194 89.183464 
L 348.749977 89.420198 
L 348.749977 89.27968 
L 347.31576 89.517762 
L 347.31576 89.376716 
L 347.028916 89.424469 
L 347.028916 89.283155 
L 346.45523 89.378732 
L 346.45523 88.953182 
L 346.168386 89.000871 
L 346.168386 88.858549 
L 345.881543 88.906239 
L 345.881543 88.763645 
L 344.160483 89.050814 
L 344.160483 88.907606 
L 343.586796 89.003743 
L 343.586796 88.860192 
L 341.865736 89.149858 
L 341.865736 88.861304 
L 341.292049 88.958141 
L 341.292049 88.523317 
L 340.718362 88.620014 
L 340.718362 88.328793 
L 338.423615 88.717279 
L 338.423615 88.570777 
L 337.849928 88.668469 
L 337.849928 88.521608 
L 336.989398 88.668469 
L 336.989398 88.373662 
L 334.981495 88.717859 
L 334.981495 88.272469 
L 334.120965 88.420415 
L 334.120965 88.121936 
L 333.834121 88.171249 
L 333.834121 88.0216 
L 332.973591 88.169758 
L 332.973591 87.869334 
L 332.686748 87.918717 
L 332.686748 87.76809 
L 332.399904 87.817471 
L 332.399904 87.212384 
L 330.965688 87.458869 
L 330.965688 87.154174 
L 328.957784 87.501311 
L 328.957784 86.732738 
L 328.384097 86.831806 
L 328.384097 86.367347 
L 327.81041 86.466233 
L 327.81041 86.310774 
L 327.523567 86.36025 
L 327.523567 85.73568 
L 326.94988 85.834201 
L 326.94988 85.677287 
L 326.663037 85.726579 
L 326.663037 85.411853 
L 326.376194 85.461054 
L 326.376194 85.303239 
L 325.802507 85.4017 
L 325.802507 84.926269 
L 325.515663 84.975359 
L 325.515663 84.497434 
L 324.655133 84.644387 
L 324.655133 84.323997 
L 323.794603 84.471119 
L 323.794603 84.310281 
L 323.220916 84.408573 
L 323.220916 84.247304 
L 322.934073 84.296478 
L 322.934073 84.134865 
L 322.360386 84.233269 
L 322.360386 83.746349 
L 322.073543 83.795399 
L 322.073543 82.814005 
L 321.7867 82.862582 
L 321.7867 82.368064 
L 321.499856 82.41644 
L 321.499856 82.085248 
L 321.213013 82.133512 
L 321.213013 81.801062 
L 318.631422 82.237249 
L 318.631422 82.069757 
L 318.344579 82.118519 
L 318.344579 81.950658 
L 317.770892 82.048227 
L 317.770892 81.879897 
L 317.197206 81.977591 
L 317.197206 81.80879 
L 316.910362 81.857658 
L 316.910362 81.688482 
L 316.336675 81.786262 
L 316.336675 81.446679 
L 315.762989 81.544383 
L 315.762989 81.032307 
L 315.476145 81.080978 
L 315.476145 80.90962 
L 315.189302 80.95827 
L 315.189302 80.786527 
L 314.902459 80.835155 
L 314.902459 80.663025 
L 314.615615 80.711632 
L 314.615615 80.019829 
L 314.041928 80.116455 
L 314.041928 79.942574 
L 313.755085 79.990904 
L 313.755085 79.642057 
L 313.468242 79.690256 
L 313.468242 79.340025 
L 313.181398 79.388092 
L 313.181398 79.212428 
L 312.894555 79.260469 
L 312.894555 78.908037 
L 312.607712 78.955942 
L 312.607712 78.602102 
L 312.320868 78.64987 
L 312.320868 78.472391 
L 312.034025 78.52013 
L 312.034025 78.34224 
L 311.460338 78.43774 
L 311.460338 77.722259 
L 311.173495 77.769684 
L 311.173495 77.589938 
L 310.599808 77.684804 
L 310.599808 77.504524 
L 310.312965 77.551965 
L 310.312965 77.190247 
L 310.026121 77.237541 
L 310.026121 76.874348 
L 309.739278 76.921492 
L 309.739278 76.73931 
L 309.452434 76.786419 
L 309.452434 76.237631 
L 309.165591 76.284469 
L 309.165591 75.732469 
L 308.305061 75.872396 
L 308.305061 75.687396 
L 308.018218 75.73408 
L 308.018218 75.548636 
L 307.444531 75.642007 
L 307.444531 74.896006 
L 307.157688 74.942323 
L 307.157688 74.75488 
L 306.297157 74.893949 
L 306.297157 74.705802 
L 305.723471 74.798674 
L 305.723471 74.609944 
L 305.436627 74.656377 
L 305.436627 74.27766 
L 304.862941 74.370266 
L 304.862941 74.180149 
L 304.289254 74.272829 
L 304.289254 74.082116 
L 303.14188 74.267954 
L 303.14188 74.076383 
L 302.855037 74.12292 
L 302.855037 73.930876 
L 302.28135 74.02394 
L 302.28135 73.831289 
L 301.994507 73.877815 
L 301.994507 73.491206 
L 301.42082 73.583981 
L 301.42082 73.389886 
L 300.56029 73.529277 
L 300.56029 72.943669 
L 299.986603 73.036206 
L 299.986603 72.643476 
L 298.83923 72.828469 
L 298.83923 72.235014 
L 298.552386 72.281057 
L 298.552386 72.082371 
L 297.691856 72.220587 
L 297.691856 71.219512 
L 297.118169 71.310653 
L 297.118169 71.109034 
L 296.257639 71.245945 
L 296.257639 70.433947 
L 295.683953 70.524469 
L 295.683953 70.320221 
L 295.110266 70.410785 
L 295.110266 69.794833 
L 294.536579 69.884831 
L 294.536579 69.678435 
L 293.676049 69.813614 
L 293.676049 68.982258 
L 293.389206 69.026869 
L 293.389206 68.817883 
L 292.815519 68.907048 
L 292.815519 68.697348 
L 291.954989 68.831261 
L 291.954989 68.620684 
L 290.807615 68.799798 
L 290.807615 68.376144 
L 290.520772 68.420817 
L 290.520772 68.208213 
L 290.233928 68.25281 
L 290.233928 68.039632 
L 289.373398 68.173448 
L 289.373398 67.529942 
L 287.939181 67.752222 
L 287.939181 67.319444 
L 287.365495 67.408292 
L 287.365495 67.190925 
L 287.078651 67.23531 
L 287.078651 66.798949 
L 286.791808 66.843077 
L 286.791808 66.184774 
L 286.218121 66.27225 
L 286.218121 65.608963 
L 284.783904 65.826523 
L 284.783904 65.156565 
L 284.497061 65.199797 
L 284.497061 64.975398 
L 283.923374 65.061759 
L 283.923374 64.836541 
L 283.349688 64.922883 
L 283.349688 64.696841 
L 282.776001 64.783162 
L 282.776001 64.55629 
L 282.202314 64.642589 
L 282.202314 64.41488 
L 281.915471 64.457973 
L 281.915471 64.229612 
L 281.628627 64.272604 
L 281.628627 63.814098 
L 281.341784 63.856797 
L 281.341784 63.396025 
L 280.19441 63.566151 
L 280.19441 62.401973 
L 279.907567 62.443738 
L 279.907567 61.974282 
L 279.620724 62.015732 
L 279.620724 61.307266 
L 279.33388 61.348193 
L 279.33388 61.110845 
L 278.47335 61.233522 
L 278.47335 60.995057 
L 277.899663 61.076856 
L 277.899663 60.837472 
L 277.61282 60.878292 
L 277.61282 59.914842 
L 275.89176 60.156469 
L 275.89176 58.68804 
L 275.604916 58.727296 
L 275.604916 58.480495 
L 275.03123 58.558814 
L 275.03123 58.311032 
L 273.597013 58.507185 
L 273.597013 58.257733 
L 273.310169 58.29699 
L 273.310169 58.046767 
L 273.023326 58.085881 
L 273.023326 57.583333 
L 271.589109 57.777861 
L 271.589109 57.524592 
L 270.728579 57.641629 
L 270.728579 57.131991 
L 270.441736 57.170699 
L 270.441736 56.914794 
L 270.154892 56.953347 
L 270.154892 55.923061 
L 269.868049 55.960723 
L 269.868049 55.441635 
L 269.581206 55.478885 
L 269.581206 55.21822 
L 268.720675 55.329718 
L 268.720675 54.278148 
L 267.573302 54.423897 
L 267.573302 53.892469 
L 266.425928 54.037455 
L 266.425928 53.769781 
L 265.852242 53.842242 
L 265.852242 53.573423 
L 264.418025 53.754697 
L 264.418025 53.212506 
L 264.131181 53.248469 
L 264.131181 52.976158 
L 263.844338 53.01193 
L 263.844338 52.190369 
L 262.410121 52.366305 
L 262.410121 51.812581 
L 262.123278 51.847449 
L 262.123278 51.290546 
L 261.836434 51.324922 
L 261.836434 50.764809 
L 261.549591 50.798684 
L 261.549591 50.23533 
L 260.689061 50.335669 
L 260.689061 50.052097 
L 260.115374 50.118791 
L 260.115374 49.548411 
L 259.254844 49.647238 
L 259.254844 49.360108 
L 258.394314 49.45873 
L 258.394314 49.169983 
L 257.820627 49.235509 
L 257.820627 48.654666 
L 256.673254 48.784161 
L 256.673254 48.197947 
L 256.38641 48.229881 
L 256.38641 47.935374 
L 256.099567 47.967063 
L 256.099567 47.375227 
L 255.812724 47.406343 
L 255.812724 47.109002 
L 255.52588 47.139866 
L 255.52588 46.841459 
L 253.517977 47.057323 
L 253.517977 46.755829 
L 252.94429 46.817521 
L 252.94429 46.514592 
L 251.510073 46.668469 
L 251.510073 46.363053 
L 250.3627 46.486166 
L 250.3627 46.178576 
L 248.354796 46.394579 
L 248.354796 45.772036 
L 247.207422 45.894321 
L 247.207422 45.580386 
L 246.920579 45.610788 
L 246.920579 45.295669 
L 244.338989 45.569515 
L 244.338989 45.250195 
L 243.478459 45.341779 
L 243.478459 44.375291 
L 241.757398 44.553645 
L 241.757398 44.227409 
L 240.323181 44.376242 
L 240.323181 43.05442 
L 239.749495 43.111251 
L 239.749495 42.777726 
L 237.741591 42.976161 
L 237.741591 42.63878 
L 237.167904 42.695327 
L 237.167904 42.356159 
L 236.594218 42.412159 
L 236.594218 42.071187 
L 234.586314 42.266586 
L 234.586314 41.921585 
L 233.725784 42.005167 
L 233.725784 41.657851 
L 231.431037 41.880589 
L 231.431037 41.528629 
L 229.423133 41.724469 
L 229.423133 40.293247 
L 226.5547 40.560592 
L 226.5547 40.195265 
L 225.694169 40.275509 
L 225.694169 39.168469 
L 225.120483 39.219299 
L 225.120483 38.847052 
L 221.104675 39.204139 
L 221.104675 38.441357 
L 219.957302 38.541825 
L 219.957302 38.156469 
L 216.515181 38.458657 
L 216.515181 38.065281 
L 211.638844 38.503343 
L 211.638844 38.098563 
L 204.46776 38.772469 
L 204.46776 38.350337 
L 203.894073 38.405379 
L 203.894073 37.980469 
L 203.033543 38.0617 
L 203.033543 37.203412 
L 199.878266 37.493084 
L 199.878266 37.053926 
L 198.444049 37.18567 
L 198.444049 36.741304 
L 195.862459 36.977649 
L 195.862459 36.524901 
L 195.288772 36.576924 
L 195.288772 36.12099 
L 194.715085 36.171829 
L 194.715085 35.712665 
L 193.567712 35.812278 
L 193.567712 35.348233 
L 192.707181 35.421474 
L 192.707181 34.953269 
L 188.978218 35.269334 
L 188.978218 34.788377 
L 186.109784 35.033492 
L 186.109784 34.541805 
L 182.954507 34.812469 
L 182.954507 34.308612 
L 181.233447 34.455511 
L 181.233447 33.943824 
L 179.512386 34.088354 
L 179.512386 33.568591 
L 178.9387 33.615524 
L 178.9387 33.09158 
L 171.480772 33.710556 
L 171.480772 32.599019 
L 170.046555 32.714456 
L 170.046555 32.149106 
L 169.186025 32.215979 
L 169.186025 31.644469 
L 160.580724 32.326574 
L 160.580724 31.712843 
L 160.29388 31.735853 
L 160.29388 31.117741 
L 156.85176 31.385054 
L 156.85176 30.746081 
L 150.541206 31.2443 
L 150.541206 30.566179 
L 145.664868 30.961861 
L 145.664868 30.249145 
L 144.517495 30.339998 
L 144.517495 29.615525 
L 141.649061 29.831567 
L 141.649061 29.082521 
L 137.920097 29.354348 
L 137.920097 28.572179 
L 135.051663 28.772544 
L 135.051663 27.961669 
L 134.477977 27.99828 
L 134.477977 27.177289 
L 122.717398 27.925512 
L 122.717398 26.978869 
L 121.856868 27.032233 
L 121.856868 26.068321 
L 115.259471 26.432598 
L 115.259471 25.372598 
L 103.212049 26.034791 
L 101.777832 26.132149 
L 101.777832 24.814961 
L 99.196242 24.941648 
L 99.196242 23.548469 
L 92.312001 23.753269 
L 92.312001 22.140469 
L 45.269688 22.140469 
L 45.269688 22.140469 
" clip-path="url(#p30cfd1d9d2)" style="fill: none; stroke: #ff0000; stroke-width: 1.5; stroke-linecap: square"/>
   </g>
   <g id="line2d_14">
    <defs>
     <path id="m7b81e352a2" d="M 0 3 
C 0.795609 3 1.55874 2.683901 2.12132 2.12132 
C 2.683901 1.55874 3 0.795609 3 0 
C 3 -0.795609 2.683901 -1.55874 2.12132 -2.12132 
C 1.55874 -2.683901 0.795609 -3 0 -3 
C -0.795609 -3 -1.55874 -2.683901 -2.12132 -2.12132 
C -2.683901 -1.55874 -3 -0.795609 -3 0 
C -3 0.795609 -2.683901 1.55874 -2.12132 2.12132 
C -1.55874 2.683901 -0.795609 3 0 3 
z
" style="stroke: #000000"/>
    </defs>
    <g clip-path="url(#p30cfd1d9d2)">
     <use xlink:href="#m7b81e352a2" x="382.023808" y="95.165023" style="fill: #ff0000; stroke: #000000"/>
    </g>
   </g>
   <g id="line2d_15">
    <path d="M 45.269688 108.19299 
L 402.389688 108.19299 
" clip-path="url(#p30cfd1d9d2)" style="fill: none; stroke: #00bfbf; stroke-width: 1.5; stroke-linecap: square"/>
   </g>
   <g id="patch_4">
    <path d="M 45.269688 288.252469 
L 45.269688 22.140469 
" style="fill: none; stroke: #000000; stroke-width: 0.8; stroke-linejoin: miter; stroke-linecap: square"/>
   </g>
   <g id="patch_5">
    <path d="M 402.389688 288.252469 
L 402.389688 22.140469 
" style="fill: none; stroke: #000000; stroke-width: 0.8; stroke-linejoin: miter; stroke-linecap: square"/>
   </g>
   <g id="patch_6">
    <path d="M 45.269688 288.252469 
L 402.389688 288.252469 
" style="fill: none; stroke: #000000; stroke-width: 0.8; stroke-linejoin: miter; stroke-linecap: square"/>
   </g>
   <g id="patch_7">
    <path d="M 45.269688 22.140469 
L 402.389688 22.140469 
" style="fill: none; stroke: #000000; stroke-width: 0.8; stroke-linejoin: miter; stroke-linecap: square"/>
   </g>
   <g id="text_15">
    <text style="font: 5px 'Arial'" transform="translate(205.673047 10.778906)">t-SNE SP model</text>
    <text style="font: 5px 'Arial'" transform="translate(191.739844 16.140469)">Precision - Recall (PR) curve</text>
   </g>
   <g id="legend_1">
    <g id="patch_8">
     <path d="M 163.116406 352.667056 
L 284.542969 352.667056 
Q 285.542969 352.667056 285.542969 351.667056 
L 285.542969 344.974869 
Q 285.542969 343.974869 284.542969 343.974869 
L 163.116406 343.974869 
Q 162.116406 343.974869 162.116406 344.974869 
L 162.116406 351.667056 
Q 162.116406 352.667056 163.116406 352.667056 
z
" style="fill: #ffffff; opacity: 0.8; stroke: #cccccc; stroke-linejoin: miter"/>
    </g>
    <g id="line2d_16">
     <path d="M 164.116406 347.864712 
L 169.116406 347.864712 
L 174.116406 347.864712 
" style="fill: none; stroke: #ff0000; stroke-width: 1.5; stroke-linecap: square"/>
    </g>
    <g id="text_16">
     <text style="font: 5px 'Arial'; text-anchor: start" x="178.116406" y="349.614712" transform="rotate(-0 178.116406 349.614712)">model performance</text>
    </g>
    <g id="line2d_17">
     <path d="M 231.189063 347.864712 
L 236.189063 347.864712 
L 241.189063 347.864712 
" style="fill: none; stroke: #00bfbf; stroke-width: 1.5; stroke-linecap: square"/>
    </g>
    <g id="text_17">
     <text style="font: 5px 'Arial'; text-anchor: start" x="245.189063" y="349.614712" transform="rotate(-0 245.189063 349.614712)">random guessing</text>
    </g>
   </g>
  </g>
 </g>
 <defs>
  <clipPath id="p30cfd1d9d2">
   <rect x="45.269688" y="22.140469" width="357.12" height="266.112"/>
  </clipPath>
 </defs>
</svg>
