<?xml version="1.0" encoding="utf-8" standalone="no"?>
<!DOCTYPE svg PUBLIC "-//W3C//DTD SVG 1.1//EN"
  "http://www.w3.org/Graphics/SVG/1.1/DTD/svg11.dtd">
<svg xmlns:xlink="http://www.w3.org/1999/xlink" width="242.837664pt" height="268.2336pt" viewBox="0 0 242.837664 268.2336" xmlns="http://www.w3.org/2000/svg" version="1.1">
 <metadata>
  <rdf:RDF xmlns:dc="http://purl.org/dc/elements/1.1/" xmlns:cc="http://creativecommons.org/ns#" xmlns:rdf="http://www.w3.org/1999/02/22-rdf-syntax-ns#">
   <cc:Work>
    <dc:type rdf:resource="http://purl.org/dc/dcmitype/StillImage"/>
    <dc:date>2024-09-30T08:29:14.406330</dc:date>
    <dc:format>image/svg+xml</dc:format>
    <dc:creator>
     <cc:Agent>
      <dc:title>Matplotlib v3.7.0, https://matplotlib.org/</dc:title>
     </cc:Agent>
    </dc:creator>
   </cc:Work>
  </rdf:RDF>
 </metadata>
 <defs>
  <style type="text/css">*{stroke-linejoin: round; stroke-linecap: butt}</style>
 </defs>
 <g id="figure_1">
  <g id="patch_1">
   <path d="M -0 268.2336 
L 242.837664 268.2336 
L 242.837664 0 
L -0 0 
z
" style="fill: #ffffff"/>
  </g>
  <g id="axes_1">
   <g id="patch_2">
    <path d="M 34.331719 222.162851 
L 230.772664 222.162851 
L 230.772664 25.721906 
L 34.331719 25.721906 
z
" style="fill: #ffffff"/>
   </g>
   <g id="patch_3">
    <path d="M 34.331719 25.721906 
L 38.258371 30.535475 
L 36.513472 31.197282 
L 63.807159 103.158965 
L 63.623485 103.228629 
L 36.329798 31.266946 
L 34.584899 31.928753 
z
" clip-path="url(#p32587d06b8)" style="fill: #1f77b4; stroke: #000000; stroke-linejoin: miter"/>
   </g>
   <g id="matplotlib.axis_1">
    <g id="xtick_1">
     <g id="line2d_1">
      <defs>
       <path id="m12bf25eedc" d="M 0 0 
L 0 3.5 
" style="stroke: #000000; stroke-width: 0.8"/>
      </defs>
      <g>
       <use xlink:href="#m12bf25eedc" x="34.331719" y="222.162851" style="stroke: #000000; stroke-width: 0.8"/>
      </g>
     </g>
     <g id="text_1">
      <text style="font: 7px 'Arial'; text-anchor: middle" x="34.331719" y="234.17332" transform="rotate(-0 34.331719 234.17332)">0.0</text>
     </g>
    </g>
    <g id="xtick_2">
     <g id="line2d_2">
      <g>
       <use xlink:href="#m12bf25eedc" x="73.619908" y="222.162851" style="stroke: #000000; stroke-width: 0.8"/>
      </g>
     </g>
     <g id="text_2">
      <text style="font: 7px 'Arial'; text-anchor: middle" x="73.619908" y="234.17332" transform="rotate(-0 73.619908 234.17332)">0.2</text>
     </g>
    </g>
    <g id="xtick_3">
     <g id="line2d_3">
      <g>
       <use xlink:href="#m12bf25eedc" x="112.908097" y="222.162851" style="stroke: #000000; stroke-width: 0.8"/>
      </g>
     </g>
     <g id="text_3">
      <text style="font: 7px 'Arial'; text-anchor: middle" x="112.908097" y="234.17332" transform="rotate(-0 112.908097 234.17332)">0.4</text>
     </g>
    </g>
    <g id="xtick_4">
     <g id="line2d_4">
      <g>
       <use xlink:href="#m12bf25eedc" x="152.196286" y="222.162851" style="stroke: #000000; stroke-width: 0.8"/>
      </g>
     </g>
     <g id="text_4">
      <text style="font: 7px 'Arial'; text-anchor: middle" x="152.196286" y="234.17332" transform="rotate(-0 152.196286 234.17332)">0.6</text>
     </g>
    </g>
    <g id="xtick_5">
     <g id="line2d_5">
      <g>
       <use xlink:href="#m12bf25eedc" x="191.484475" y="222.162851" style="stroke: #000000; stroke-width: 0.8"/>
      </g>
     </g>
     <g id="text_5">
      <text style="font: 7px 'Arial'; text-anchor: middle" x="191.484475" y="234.17332" transform="rotate(-0 191.484475 234.17332)">0.8</text>
     </g>
    </g>
    <g id="xtick_6">
     <g id="line2d_6">
      <g>
       <use xlink:href="#m12bf25eedc" x="230.772664" y="222.162851" style="stroke: #000000; stroke-width: 0.8"/>
      </g>
     </g>
     <g id="text_6">
      <text style="font: 7px 'Arial'; text-anchor: middle" x="230.772664" y="234.17332" transform="rotate(-0 230.772664 234.17332)">1.0</text>
     </g>
    </g>
    <g id="text_7">
     <text style="font: 7px 'Arial'; text-anchor: middle" x="132.552191" y="244.575039" transform="rotate(-0 132.552191 244.575039)">FPR</text>
    </g>
   </g>
   <g id="matplotlib.axis_2">
    <g id="ytick_1">
     <g id="line2d_7">
      <defs>
       <path id="m05e4f3d43d" d="M 0 0 
L -3.5 0 
" style="stroke: #000000; stroke-width: 0.8"/>
      </defs>
      <g>
       <use xlink:href="#m05e4f3d43d" x="34.331719" y="222.162851" style="stroke: #000000; stroke-width: 0.8"/>
      </g>
     </g>
     <g id="text_8">
      <text style="font: 7px 'Arial'; text-anchor: end" x="27.331719" y="224.668086" transform="rotate(-0 27.331719 224.668086)">0.0</text>
     </g>
    </g>
    <g id="ytick_2">
     <g id="line2d_8">
      <g>
       <use xlink:href="#m05e4f3d43d" x="34.331719" y="182.874662" style="stroke: #000000; stroke-width: 0.8"/>
      </g>
     </g>
     <g id="text_9">
      <text style="font: 7px 'Arial'; text-anchor: end" x="27.331719" y="185.379897" transform="rotate(-0 27.331719 185.379897)">0.2</text>
     </g>
    </g>
    <g id="ytick_3">
     <g id="line2d_9">
      <g>
       <use xlink:href="#m05e4f3d43d" x="34.331719" y="143.586473" style="stroke: #000000; stroke-width: 0.8"/>
      </g>
     </g>
     <g id="text_10">
      <text style="font: 7px 'Arial'; text-anchor: end" x="27.331719" y="146.091708" transform="rotate(-0 27.331719 146.091708)">0.4</text>
     </g>
    </g>
    <g id="ytick_4">
     <g id="line2d_10">
      <g>
       <use xlink:href="#m05e4f3d43d" x="34.331719" y="104.298284" style="stroke: #000000; stroke-width: 0.8"/>
      </g>
     </g>
     <g id="text_11">
      <text style="font: 7px 'Arial'; text-anchor: end" x="27.331719" y="106.803519" transform="rotate(-0 27.331719 106.803519)">0.6</text>
     </g>
    </g>
    <g id="ytick_5">
     <g id="line2d_11">
      <g>
       <use xlink:href="#m05e4f3d43d" x="34.331719" y="65.010095" style="stroke: #000000; stroke-width: 0.8"/>
      </g>
     </g>
     <g id="text_12">
      <text style="font: 7px 'Arial'; text-anchor: end" x="27.331719" y="67.51533" transform="rotate(-0 27.331719 67.51533)">0.8</text>
     </g>
    </g>
    <g id="ytick_6">
     <g id="line2d_12">
      <g>
       <use xlink:href="#m05e4f3d43d" x="34.331719" y="25.721906" style="stroke: #000000; stroke-width: 0.8"/>
      </g>
     </g>
     <g id="text_13">
      <text style="font: 7px 'Arial'; text-anchor: end" x="27.331719" y="28.227141" transform="rotate(-0 27.331719 28.227141)">1.0</text>
     </g>
    </g>
    <g id="text_14">
     <text style="font: 7px 'Arial'; text-anchor: middle" x="12.210469" y="123.942379" transform="rotate(-90 12.210469 123.942379)">TPR</text>
    </g>
   </g>
   <g id="line2d_13">
    <path d="M 34.331719 222.162851 
L 34.331719 196.286293 
L 34.661872 196.286293 
L 34.661872 192.49948 
L 34.992024 192.49948 
L 34.992024 191.079425 
L 35.322177 191.079425 
L 35.322177 183.663582 
L 35.65233 183.663582 
L 35.65233 180.034552 
L 35.982483 180.034552 
L 35.982483 179.5612 
L 36.312636 179.5612 
L 36.312636 173.092061 
L 36.642789 173.092061 
L 36.642789 172.776493 
L 36.972942 172.776493 
L 36.972942 171.198654 
L 37.303094 171.198654 
L 37.303094 169.147464 
L 37.633247 169.147464 
L 37.633247 167.569625 
L 37.9634 167.569625 
L 37.9634 166.938489 
L 38.293553 166.938489 
L 38.293553 164.256163 
L 38.623706 164.256163 
L 38.623706 160.784917 
L 38.953859 160.784917 
L 38.953859 158.891511 
L 39.284011 158.891511 
L 39.284011 158.733727 
L 39.614164 158.733727 
L 39.614164 154.00021 
L 39.944317 154.00021 
L 39.944317 153.526858 
L 40.27447 153.526858 
L 40.27447 152.737939 
L 40.934776 152.737939 
L 40.934776 148.635558 
L 41.264929 148.635558 
L 41.264929 148.31999 
L 41.595081 148.31999 
L 41.595081 147.373287 
L 41.925234 147.373287 
L 41.925234 146.426583 
L 42.255387 146.426583 
L 42.255387 144.69096 
L 42.58554 144.69096 
L 42.58554 143.113122 
L 42.915693 143.113122 
L 42.915693 141.061931 
L 43.245846 141.061931 
L 43.245846 140.588579 
L 43.575999 140.588579 
L 43.575999 139.957444 
L 43.906151 139.957444 
L 43.906151 139.641876 
L 44.236304 139.641876 
L 44.236304 139.326308 
L 44.566457 139.326308 
L 44.566457 137.906253 
L 44.89661 137.906253 
L 44.89661 137.117334 
L 45.226763 137.117334 
L 45.226763 135.381711 
L 45.887068 135.381711 
L 45.887068 134.908359 
L 46.217221 134.908359 
L 46.217221 134.592791 
L 46.547374 134.592791 
L 46.547374 130.648194 
L 46.877527 130.648194 
L 46.877527 127.965868 
L 47.20768 127.965868 
L 47.20768 126.072461 
L 47.537833 126.072461 
L 47.537833 125.441326 
L 48.198138 125.441326 
L 48.198138 123.232351 
L 48.528291 123.232351 
L 48.528291 122.916783 
L 49.51875 122.916783 
L 49.51875 122.443432 
L 49.848903 122.443432 
L 49.848903 120.865593 
L 51.169514 120.865593 
L 51.169514 119.761106 
L 51.499667 119.761106 
L 51.499667 118.498834 
L 51.82982 118.498834 
L 51.82982 118.025483 
L 52.159973 118.025483 
L 52.159973 116.920996 
L 52.490125 116.920996 
L 52.490125 116.605428 
L 52.820278 116.605428 
L 52.820278 116.28986 
L 53.150431 116.28986 
L 53.150431 115.185373 
L 53.480584 115.185373 
L 53.480584 114.869805 
L 54.801195 114.869805 
L 54.801195 114.080885 
L 55.131348 114.080885 
L 55.131348 113.134182 
L 56.121807 113.134182 
L 56.121807 112.66083 
L 56.45196 112.66083 
L 56.45196 111.240775 
L 56.782112 111.240775 
L 56.782112 111.082992 
L 57.112265 111.082992 
L 57.112265 110.451856 
L 57.772571 110.451856 
L 57.772571 109.347369 
L 58.102724 109.347369 
L 58.102724 108.716233 
L 58.432877 108.716233 
L 58.432877 107.927314 
L 58.76303 107.927314 
L 58.76303 107.611746 
L 59.093182 107.611746 
L 59.093182 106.507259 
L 59.423335 106.507259 
L 59.423335 106.349475 
L 59.753488 106.349475 
L 59.753488 106.191691 
L 60.413794 106.191691 
L 60.413794 106.033907 
L 60.743947 106.033907 
L 60.743947 105.876123 
L 61.404252 105.876123 
L 61.404252 105.244988 
L 62.064558 105.244988 
L 62.064558 104.92942 
L 62.394711 104.92942 
L 62.394711 104.456068 
L 62.724864 104.456068 
L 62.724864 103.982716 
L 63.385169 103.982716 
L 63.385169 103.667149 
L 63.715322 103.667149 
L 63.715322 103.193797 
L 64.375628 103.193797 
L 64.375628 103.036013 
L 65.035934 103.036013 
L 65.035934 102.878229 
L 65.696239 102.878229 
L 65.696239 102.720445 
L 66.356545 102.720445 
L 66.356545 101.931526 
L 67.347004 101.931526 
L 67.347004 101.773742 
L 67.677156 101.773742 
L 67.677156 101.615958 
L 68.337462 101.615958 
L 68.337462 100.827039 
L 68.667615 100.827039 
L 68.667615 100.511471 
L 68.997768 100.511471 
L 68.997768 99.880335 
L 69.658074 99.880335 
L 69.658074 99.2492 
L 70.978685 99.2492 
L 70.978685 98.775848 
L 71.308838 98.775848 
L 71.308838 98.618064 
L 71.969143 98.618064 
L 71.969143 98.46028 
L 73.289755 98.46028 
L 73.289755 98.302496 
L 73.619908 98.302496 
L 73.619908 98.144712 
L 74.280213 98.144712 
L 74.280213 97.671361 
L 74.610366 97.671361 
L 74.610366 96.882441 
L 75.270672 96.882441 
L 75.270672 96.724657 
L 75.600825 96.724657 
L 75.600825 96.566874 
L 75.930978 96.566874 
L 75.930978 95.777954 
L 76.261131 95.777954 
L 76.261131 95.462386 
L 76.591283 95.462386 
L 76.591283 95.304602 
L 78.5722 95.304602 
L 78.5722 94.357899 
L 79.892812 94.357899 
L 79.892812 94.200115 
L 80.222965 94.200115 
L 80.222965 93.884547 
L 80.553118 93.884547 
L 80.553118 93.411196 
L 80.88327 93.411196 
L 80.88327 93.253412 
L 81.873729 93.253412 
L 81.873729 93.095628 
L 82.534035 93.095628 
L 82.534035 92.937844 
L 84.184799 92.937844 
L 84.184799 92.306708 
L 84.845105 92.306708 
L 84.845105 92.148925 
L 85.50541 92.148925 
L 85.50541 91.991141 
L 85.835563 91.991141 
L 85.835563 91.833357 
L 86.165716 91.833357 
L 86.165716 91.517789 
L 86.495869 91.517789 
L 86.495869 91.202221 
L 86.826022 91.202221 
L 86.826022 90.886653 
L 87.156175 90.886653 
L 87.156175 90.571086 
L 87.486327 90.571086 
L 87.486327 90.413302 
L 88.476786 90.413302 
L 88.476786 89.624382 
L 89.467244 89.624382 
L 89.467244 89.308815 
L 90.457703 89.308815 
L 90.457703 89.151031 
L 91.118009 89.151031 
L 91.118009 88.993247 
L 91.448162 88.993247 
L 91.448162 88.677679 
L 92.108467 88.677679 
L 92.108467 87.888759 
L 93.098926 87.888759 
L 93.098926 87.415408 
L 93.429079 87.415408 
L 93.429079 87.257624 
L 93.759231 87.257624 
L 93.759231 87.09984 
L 94.419537 87.09984 
L 94.419537 86.468704 
L 94.74969 86.468704 
L 94.74969 85.995353 
L 95.079843 85.995353 
L 95.079843 85.679785 
L 95.409996 85.679785 
L 95.409996 85.522001 
L 96.730607 85.522001 
L 96.730607 85.048649 
L 97.06076 85.048649 
L 97.06076 84.733082 
L 98.051219 84.733082 
L 98.051219 84.417514 
L 98.381371 84.417514 
L 98.381371 84.101946 
L 99.701983 84.101946 
L 99.701983 83.628594 
L 100.032136 83.628594 
L 100.032136 83.313027 
L 101.6829 83.313027 
L 101.6829 82.839675 
L 102.013053 82.839675 
L 102.013053 82.681891 
L 103.003511 82.681891 
L 103.003511 82.050756 
L 103.663817 82.050756 
L 103.663817 81.735188 
L 104.654275 81.735188 
L 104.654275 81.261836 
L 104.984428 81.261836 
L 104.984428 80.946268 
L 105.644734 80.946268 
L 105.644734 80.788484 
L 105.974887 80.788484 
L 105.974887 80.472917 
L 106.30504 80.472917 
L 106.30504 80.315133 
L 106.635193 80.315133 
L 106.635193 79.683997 
L 106.965345 79.683997 
L 106.965345 79.368429 
L 107.295498 79.368429 
L 107.295498 79.052862 
L 107.955804 79.052862 
L 107.955804 78.895078 
L 108.285957 78.895078 
L 108.285957 78.57951 
L 108.61611 78.57951 
L 108.61611 78.106158 
L 108.946263 78.106158 
L 108.946263 77.948374 
L 110.266874 77.948374 
L 110.266874 77.632807 
L 110.597027 77.632807 
L 110.597027 77.475023 
L 110.92718 77.475023 
L 110.92718 77.001671 
L 111.917638 77.001671 
L 111.917638 76.843887 
L 112.908097 76.843887 
L 112.908097 76.686103 
L 113.23825 76.686103 
L 113.23825 76.528319 
L 113.898555 76.528319 
L 113.898555 76.370535 
L 114.558861 76.370535 
L 114.558861 76.212752 
L 114.889014 76.212752 
L 114.889014 75.897184 
L 115.219167 75.897184 
L 115.219167 75.7394 
L 116.539778 75.7394 
L 116.539778 75.423832 
L 116.869931 75.423832 
L 116.869931 75.266048 
L 117.200084 75.266048 
L 117.200084 75.108264 
L 117.860389 75.108264 
L 117.860389 74.95048 
L 118.520695 74.95048 
L 118.520695 74.792696 
L 118.850848 74.792696 
L 118.850848 74.634913 
L 119.511154 74.634913 
L 119.511154 74.477129 
L 120.171459 74.477129 
L 120.171459 74.319345 
L 120.501612 74.319345 
L 120.501612 74.003777 
L 121.822224 74.003777 
L 121.822224 73.845993 
L 122.152376 73.845993 
L 122.152376 73.688209 
L 122.482529 73.688209 
L 122.482529 73.530425 
L 122.812682 73.530425 
L 122.812682 73.372641 
L 123.803141 73.372641 
L 123.803141 73.057074 
L 124.463446 73.057074 
L 124.463446 72.741506 
L 124.793599 72.741506 
L 124.793599 72.583722 
L 125.123752 72.583722 
L 125.123752 72.268154 
L 125.453905 72.268154 
L 125.453905 71.952586 
L 125.784058 71.952586 
L 125.784058 71.794803 
L 126.114211 71.794803 
L 126.114211 70.374748 
L 126.774516 70.374748 
L 126.774516 70.216964 
L 127.434822 70.216964 
L 127.434822 70.05918 
L 128.425281 70.05918 
L 128.425281 69.901396 
L 130.406198 69.901396 
L 130.406198 69.743612 
L 131.396656 69.743612 
L 131.396656 69.428044 
L 131.726809 69.428044 
L 131.726809 69.27026 
L 132.056962 69.27026 
L 132.056962 68.954693 
L 132.387115 68.954693 
L 132.387115 68.481341 
L 133.04742 68.481341 
L 133.04742 68.007989 
L 134.037879 68.007989 
L 134.037879 67.850205 
L 135.028338 67.850205 
L 135.028338 67.534637 
L 135.35849 67.534637 
L 135.35849 67.376854 
L 136.018796 67.376854 
L 136.018796 67.21907 
L 136.348949 67.21907 
L 136.348949 66.903502 
L 137.66956 66.903502 
L 137.66956 66.745718 
L 137.999713 66.745718 
L 137.999713 66.43015 
L 138.990172 66.43015 
L 138.990172 66.114582 
L 140.640936 66.114582 
L 140.640936 65.010095 
L 141.301242 65.010095 
L 141.301242 64.221176 
L 142.621853 64.221176 
L 142.621853 64.063392 
L 142.952006 64.063392 
L 142.952006 63.905608 
L 143.612312 63.905608 
L 143.612312 63.432256 
L 143.942464 63.432256 
L 143.942464 63.274472 
L 144.60277 63.274472 
L 144.60277 62.801121 
L 145.593229 62.801121 
L 145.593229 61.696634 
L 146.253534 61.696634 
L 146.253534 61.223282 
L 146.583687 61.223282 
L 146.583687 60.907714 
L 146.91384 60.907714 
L 146.91384 59.645443 
L 147.574146 59.645443 
L 147.574146 59.329875 
L 148.564604 59.329875 
L 148.564604 59.014307 
L 149.22491 59.014307 
L 149.22491 58.067604 
L 149.555063 58.067604 
L 149.555063 57.752036 
L 149.885216 57.752036 
L 149.885216 56.805333 
L 150.215369 56.805333 
L 150.215369 56.647549 
L 150.545521 56.647549 
L 150.545521 56.489765 
L 151.53598 56.489765 
L 151.53598 56.174197 
L 151.866133 56.174197 
L 151.866133 56.016413 
L 152.196286 56.016413 
L 152.196286 55.227494 
L 152.526439 55.227494 
L 152.526439 54.438574 
L 153.186744 54.438574 
L 153.186744 54.123007 
L 153.516897 54.123007 
L 153.516897 53.965223 
L 154.837508 53.965223 
L 154.837508 53.807439 
L 155.167661 53.807439 
L 155.167661 53.334087 
L 155.827967 53.334087 
L 155.827967 53.176303 
L 156.818426 53.176303 
L 156.818426 52.702952 
L 157.478731 52.702952 
L 157.478731 52.545168 
L 157.808884 52.545168 
L 157.808884 52.2296 
L 158.139037 52.2296 
L 158.139037 51.914032 
L 159.129495 51.914032 
L 159.129495 51.440681 
L 159.459648 51.440681 
L 159.459648 51.282897 
L 159.789801 51.282897 
L 159.789801 50.493977 
L 160.119954 50.493977 
L 160.119954 50.178409 
L 160.78026 50.178409 
L 160.78026 50.020626 
L 161.110413 50.020626 
L 161.110413 48.916138 
L 161.770718 48.916138 
L 161.770718 48.442787 
L 162.100871 48.442787 
L 162.100871 47.969435 
L 162.761177 47.969435 
L 162.761177 47.653867 
L 163.751635 47.653867 
L 163.751635 47.496083 
L 164.081788 47.496083 
L 164.081788 46.707164 
L 164.742094 46.707164 
L 164.742094 46.233812 
L 166.392858 46.233812 
L 166.392858 46.076028 
L 166.723011 46.076028 
L 166.723011 45.918244 
L 167.383317 45.918244 
L 167.383317 45.602677 
L 167.71347 45.602677 
L 167.71347 45.287109 
L 168.043622 45.287109 
L 168.043622 44.813757 
L 168.373775 44.813757 
L 168.373775 44.340405 
L 168.703928 44.340405 
L 168.703928 44.182622 
L 169.034081 44.182622 
L 169.034081 43.393702 
L 169.694387 43.393702 
L 169.694387 42.604783 
L 170.354692 42.604783 
L 170.354692 42.289215 
L 171.345151 42.289215 
L 171.345151 42.131431 
L 171.675304 42.131431 
L 171.675304 41.973647 
L 172.005457 41.973647 
L 172.005457 41.658079 
L 172.665762 41.658079 
L 172.665762 41.500295 
L 172.995915 41.500295 
L 172.995915 41.342512 
L 173.656221 41.342512 
L 173.656221 40.86916 
L 173.986374 40.86916 
L 173.986374 40.711376 
L 174.976832 40.711376 
L 174.976832 40.553592 
L 175.306985 40.553592 
L 175.306985 40.395808 
L 175.637138 40.395808 
L 175.637138 40.238024 
L 176.297444 40.238024 
L 176.297444 40.08024 
L 176.627596 40.08024 
L 176.627596 39.606889 
L 177.287902 39.606889 
L 177.287902 38.975753 
L 178.278361 38.975753 
L 178.278361 38.660185 
L 178.608514 38.660185 
L 178.608514 38.186834 
L 180.259278 38.186834 
L 180.259278 37.871266 
L 180.589431 37.871266 
L 180.589431 37.555698 
L 180.919584 37.555698 
L 180.919584 36.924563 
L 182.900501 36.924563 
L 182.900501 36.766779 
L 183.890959 36.766779 
L 183.890959 36.293427 
L 185.541723 36.293427 
L 185.541723 35.820075 
L 185.871876 35.820075 
L 185.871876 35.662291 
L 186.532182 35.662291 
L 186.532182 35.504508 
L 186.862335 35.504508 
L 186.862335 35.346724 
L 187.52264 35.346724 
L 187.52264 35.18894 
L 188.513099 35.18894 
L 188.513099 35.031156 
L 190.494016 35.031156 
L 190.494016 34.873372 
L 190.824169 34.873372 
L 190.824169 34.715588 
L 191.484475 34.715588 
L 191.484475 34.557804 
L 193.465392 34.557804 
L 193.465392 34.242236 
L 193.795545 34.242236 
L 193.795545 34.084452 
L 194.125697 34.084452 
L 194.125697 33.926669 
L 195.116156 33.926669 
L 195.116156 33.137749 
L 195.446309 33.137749 
L 195.446309 32.979965 
L 195.776462 32.979965 
L 195.776462 32.822181 
L 201.719213 32.822181 
L 201.719213 32.506614 
L 202.379519 32.506614 
L 202.379519 32.34883 
L 203.70013 32.34883 
L 203.70013 32.033262 
L 205.681047 32.033262 
L 205.681047 31.875478 
L 206.0112 31.875478 
L 206.0112 31.717694 
L 207.001659 31.717694 
L 207.001659 31.55991 
L 208.32227 31.55991 
L 208.32227 31.402126 
L 208.982576 31.402126 
L 208.982576 31.244342 
L 209.642881 31.244342 
L 209.642881 31.086559 
L 210.963493 31.086559 
L 210.963493 30.770991 
L 213.274563 30.770991 
L 213.274563 30.613207 
L 213.604716 30.613207 
L 213.604716 30.455423 
L 213.934868 30.455423 
L 213.934868 30.297639 
L 214.925327 30.297639 
L 214.925327 30.139855 
L 216.576091 30.139855 
L 216.576091 29.982071 
L 216.906244 29.982071 
L 216.906244 29.824287 
L 217.236397 29.824287 
L 217.236397 29.350936 
L 217.896703 29.350936 
L 217.896703 29.035368 
L 218.557008 29.035368 
L 218.557008 28.7198 
L 219.547467 28.7198 
L 219.547467 28.404232 
L 220.207772 28.404232 
L 220.207772 28.246449 
L 221.198231 28.246449 
L 221.198231 27.930881 
L 221.858537 27.930881 
L 221.858537 27.615313 
L 222.518842 27.615313 
L 222.518842 27.457529 
L 224.169607 27.457529 
L 224.169607 27.299745 
L 225.160065 27.299745 
L 225.160065 27.141961 
L 226.480677 27.141961 
L 226.480677 26.984177 
L 226.810829 26.984177 
L 226.810829 26.826393 
L 227.140982 26.826393 
L 227.140982 26.66861 
L 228.131441 26.66861 
L 228.131441 26.353042 
L 228.791747 26.353042 
L 228.791747 26.195258 
L 230.442511 26.195258 
L 230.442511 26.037474 
L 230.772664 26.037474 
L 230.772664 25.721906 
L 230.772664 25.721906 
" clip-path="url(#p32587d06b8)" style="fill: none; stroke: #ff0000; stroke-width: 1.5; stroke-linecap: square"/>
   </g>
   <g id="line2d_14">
    <defs>
     <path id="m76e84f63c9" d="M 0 3 
C 0.795609 3 1.55874 2.683901 2.12132 2.12132 
C 2.683901 1.55874 3 0.795609 3 0 
C 3 -0.795609 2.683901 -1.55874 2.12132 -2.12132 
C 1.55874 -2.683901 0.795609 -3 0 -3 
C -0.795609 -3 -1.55874 -2.683901 -2.12132 -2.12132 
C -2.683901 -1.55874 -3 -0.795609 -3 0 
C -3 0.795609 -2.683901 1.55874 -2.12132 2.12132 
C -1.55874 2.683901 -0.795609 3 0 3 
z
" style="stroke: #000000"/>
    </defs>
    <g clip-path="url(#p32587d06b8)">
     <use xlink:href="#m76e84f63c9" x="63.715322" y="103.193797" style="fill: #ff0000; stroke: #000000"/>
    </g>
   </g>
   <g id="line2d_15">
    <path d="M 34.331719 222.162851 
L 230.772664 25.721906 
" clip-path="url(#p32587d06b8)" style="fill: none; stroke: #00bfbf; stroke-width: 1.5; stroke-linecap: square"/>
   </g>
   <g id="patch_4">
    <path d="M 34.331719 222.162851 
L 34.331719 25.721906 
" style="fill: none; stroke: #000000; stroke-width: 0.8; stroke-linejoin: miter; stroke-linecap: square"/>
   </g>
   <g id="patch_5">
    <path d="M 230.772664 222.162851 
L 230.772664 25.721906 
" style="fill: none; stroke: #000000; stroke-width: 0.8; stroke-linejoin: miter; stroke-linecap: square"/>
   </g>
   <g id="patch_6">
    <path d="M 34.331719 222.162851 
L 230.772664 222.162851 
" style="fill: none; stroke: #000000; stroke-width: 0.8; stroke-linejoin: miter; stroke-linecap: square"/>
   </g>
   <g id="patch_7">
    <path d="M 34.331719 25.721906 
L 230.772664 25.721906 
" style="fill: none; stroke: #000000; stroke-width: 0.8; stroke-linejoin: miter; stroke-linecap: square"/>
   </g>
   <g id="text_15">
    <text style="font: 7px 'Arial'" transform="translate(107.132894 12.210469)">t-SNE SP model</text>
    <text style="font: 7px 'Arial'" transform="translate(59.423519 19.721906)">Receiver Operating Characteristic (ROC) curve</text>
   </g>
   <g id="legend_1">
    <g id="patch_8">
     <path d="M 47.553597 261.0336 
L 217.550785 261.0336 
Q 218.950785 261.0336 218.950785 259.6336 
L 218.950785 250.264538 
Q 218.950785 248.864538 217.550785 248.864538 
L 47.553597 248.864538 
Q 46.153597 248.864538 46.153597 250.264538 
L 46.153597 259.6336 
Q 46.153597 261.0336 47.553597 261.0336 
z
" style="fill: #ffffff; opacity: 0.8; stroke: #cccccc; stroke-linejoin: miter"/>
    </g>
    <g id="line2d_16">
     <path d="M 48.953597 254.310319 
L 55.953597 254.310319 
L 62.953597 254.310319 
" style="fill: none; stroke: #ff0000; stroke-width: 1.5; stroke-linecap: square"/>
    </g>
    <g id="text_16">
     <text style="font: 7px 'Arial'; text-anchor: start" x="68.553597" y="256.760319" transform="rotate(-0 68.553597 256.760319)">model performance</text>
    </g>
    <g id="line2d_17">
     <path d="M 142.855316 254.310319 
L 149.855316 254.310319 
L 156.855316 254.310319 
" style="fill: none; stroke: #00bfbf; stroke-width: 1.5; stroke-linecap: square"/>
    </g>
    <g id="text_17">
     <text style="font: 7px 'Arial'; text-anchor: start" x="162.455316" y="256.760319" transform="rotate(-0 162.455316 256.760319)">random guessing</text>
    </g>
   </g>
  </g>
 </g>
 <defs>
  <clipPath id="p32587d06b8">
   <rect x="34.331719" y="25.721906" width="196.440945" height="196.440945"/>
  </clipPath>
 </defs>
</svg>
