<?xml version="1.0" encoding="utf-8" standalone="no"?>
<!DOCTYPE svg PUBLIC "-//W3C//DTD SVG 1.1//EN"
  "http://www.w3.org/Graphics/SVG/1.1/DTD/svg11.dtd">
<svg xmlns:xlink="http://www.w3.org/1999/xlink" width="413.064687pt" height="346.716041pt" viewBox="0 0 413.064687 346.716041" xmlns="http://www.w3.org/2000/svg" version="1.1">
 <metadata>
  <rdf:RDF xmlns:dc="http://purl.org/dc/elements/1.1/" xmlns:cc="http://creativecommons.org/ns#" xmlns:rdf="http://www.w3.org/1999/02/22-rdf-syntax-ns#">
   <cc:Work>
    <dc:type rdf:resource="http://purl.org/dc/dcmitype/StillImage"/>
    <dc:date>2024-09-25T06:57:21.366167</dc:date>
    <dc:format>image/svg+xml</dc:format>
    <dc:creator>
     <cc:Agent>
      <dc:title>Matplotlib v3.7.0, https://matplotlib.org/</dc:title>
     </cc:Agent>
    </dc:creator>
   </cc:Work>
  </rdf:RDF>
 </metadata>
 <defs>
  <style type="text/css">*{stroke-linejoin: round; stroke-linecap: butt}</style>
 </defs>
 <g id="figure_1">
  <g id="patch_1">
   <path d="M 0 346.716041 
L 413.064687 346.716041 
L 413.064687 0 
L 0 0 
z
" style="fill: #ffffff"/>
  </g>
  <g id="axes_1">
   <g id="patch_2">
    <path d="M 45.269688 275.101453 
L 402.389688 275.101453 
L 402.389688 8.989453 
L 45.269688 8.989453 
z
" style="fill: #ffffff"/>
   </g>
   <g id="patch_3">
    <path d="M 45.269688 8.989453 
L 52.408149 15.510235 
L 49.236007 16.406762 
L 98.854592 113.890855 
L 98.520682 113.985227 
L 48.902098 16.501134 
L 45.729957 17.397661 
z
" clip-path="url(#pc3560a2575)" style="fill: #1f77b4; stroke: #000000; stroke-linejoin: miter"/>
   </g>
   <g id="matplotlib.axis_1">
    <g id="xtick_1">
     <g id="line2d_1">
      <defs>
       <path id="m8a1a71ba9b" d="M 0 0 
L 0 3.5 
" style="stroke: #000000; stroke-width: 0.8"/>
      </defs>
      <g>
       <use xlink:href="#m8a1a71ba9b" x="45.269688" y="275.101453" style="stroke: #000000; stroke-width: 0.8"/>
      </g>
     </g>
     <g id="text_1">
      <text style="font: 5px 'Arial'; text-anchor: middle" x="45.269688" y="285.680359" transform="rotate(-0 45.269688 285.680359)">0.0</text>
     </g>
    </g>
    <g id="xtick_2">
     <g id="line2d_2">
      <g>
       <use xlink:href="#m8a1a71ba9b" x="116.693688" y="275.101453" style="stroke: #000000; stroke-width: 0.8"/>
      </g>
     </g>
     <g id="text_2">
      <text style="font: 5px 'Arial'; text-anchor: middle" x="116.693688" y="285.680359" transform="rotate(-0 116.693688 285.680359)">0.2</text>
     </g>
    </g>
    <g id="xtick_3">
     <g id="line2d_3">
      <g>
       <use xlink:href="#m8a1a71ba9b" x="188.117688" y="275.101453" style="stroke: #000000; stroke-width: 0.8"/>
      </g>
     </g>
     <g id="text_3">
      <text style="font: 5px 'Arial'; text-anchor: middle" x="188.117688" y="285.680359" transform="rotate(-0 188.117688 285.680359)">0.4</text>
     </g>
    </g>
    <g id="xtick_4">
     <g id="line2d_4">
      <g>
       <use xlink:href="#m8a1a71ba9b" x="259.541688" y="275.101453" style="stroke: #000000; stroke-width: 0.8"/>
      </g>
     </g>
     <g id="text_4">
      <text style="font: 5px 'Arial'; text-anchor: middle" x="259.541688" y="285.680359" transform="rotate(-0 259.541688 285.680359)">0.6</text>
     </g>
    </g>
    <g id="xtick_5">
     <g id="line2d_5">
      <g>
       <use xlink:href="#m8a1a71ba9b" x="330.965688" y="275.101453" style="stroke: #000000; stroke-width: 0.8"/>
      </g>
     </g>
     <g id="text_5">
      <text style="font: 5px 'Arial'; text-anchor: middle" x="330.965688" y="285.680359" transform="rotate(-0 330.965688 285.680359)">0.8</text>
     </g>
    </g>
    <g id="xtick_6">
     <g id="line2d_6">
      <g>
       <use xlink:href="#m8a1a71ba9b" x="402.389688" y="275.101453" style="stroke: #000000; stroke-width: 0.8"/>
      </g>
     </g>
     <g id="text_6">
      <text style="font: 5px 'Arial'; text-anchor: middle" x="402.389688" y="285.680359" transform="rotate(-0 402.389688 285.680359)">1.0</text>
     </g>
    </g>
    <g id="text_7">
     <text style="font: 22px 'Arial'; text-anchor: middle" x="223.829688" y="306.421297" transform="rotate(-0 223.829688 306.421297)">FPR</text>
    </g>
   </g>
   <g id="matplotlib.axis_2">
    <g id="ytick_1">
     <g id="line2d_7">
      <defs>
       <path id="m086f24f889" d="M 0 0 
L -3.5 0 
" style="stroke: #000000; stroke-width: 0.8"/>
      </defs>
      <g>
       <use xlink:href="#m086f24f889" x="45.269688" y="275.101453" style="stroke: #000000; stroke-width: 0.8"/>
      </g>
     </g>
     <g id="text_8">
      <text style="font: 5px 'Arial'; text-anchor: end" x="38.269688" y="276.890906" transform="rotate(-0 38.269688 276.890906)">0.0</text>
     </g>
    </g>
    <g id="ytick_2">
     <g id="line2d_8">
      <g>
       <use xlink:href="#m086f24f889" x="45.269688" y="221.879053" style="stroke: #000000; stroke-width: 0.8"/>
      </g>
     </g>
     <g id="text_9">
      <text style="font: 5px 'Arial'; text-anchor: end" x="38.269688" y="223.668506" transform="rotate(-0 38.269688 223.668506)">0.2</text>
     </g>
    </g>
    <g id="ytick_3">
     <g id="line2d_9">
      <g>
       <use xlink:href="#m086f24f889" x="45.269688" y="168.656653" style="stroke: #000000; stroke-width: 0.8"/>
      </g>
     </g>
     <g id="text_10">
      <text style="font: 5px 'Arial'; text-anchor: end" x="38.269688" y="170.446106" transform="rotate(-0 38.269688 170.446106)">0.4</text>
     </g>
    </g>
    <g id="ytick_4">
     <g id="line2d_10">
      <g>
       <use xlink:href="#m086f24f889" x="45.269688" y="115.434253" style="stroke: #000000; stroke-width: 0.8"/>
      </g>
     </g>
     <g id="text_11">
      <text style="font: 5px 'Arial'; text-anchor: end" x="38.269688" y="117.223706" transform="rotate(-0 38.269688 117.223706)">0.6</text>
     </g>
    </g>
    <g id="ytick_5">
     <g id="line2d_11">
      <g>
       <use xlink:href="#m086f24f889" x="45.269688" y="62.211853" style="stroke: #000000; stroke-width: 0.8"/>
      </g>
     </g>
     <g id="text_12">
      <text style="font: 5px 'Arial'; text-anchor: end" x="38.269688" y="64.001306" transform="rotate(-0 38.269688 64.001306)">0.8</text>
     </g>
    </g>
    <g id="ytick_6">
     <g id="line2d_12">
      <g>
       <use xlink:href="#m086f24f889" x="45.269688" y="8.989453" style="stroke: #000000; stroke-width: 0.8"/>
      </g>
     </g>
     <g id="text_13">
      <text style="font: 5px 'Arial'; text-anchor: end" x="38.269688" y="10.778906" transform="rotate(-0 38.269688 10.778906)">1.0</text>
     </g>
    </g>
    <g id="text_14">
     <text style="font: 22px 'Arial'; text-anchor: middle" x="22.947188" y="142.045453" transform="rotate(-90 22.947188 142.045453)">TPR</text>
    </g>
   </g>
   <g id="line2d_13">
    <path d="M 45.269688 275.101453 
L 45.269688 240.047342 
L 45.869889 240.047342 
L 45.869889 234.917472 
L 46.470091 234.917472 
L 46.470091 232.993771 
L 47.070293 232.993771 
L 47.070293 222.947776 
L 47.670494 222.947776 
L 47.670494 218.031651 
L 48.270696 218.031651 
L 48.270696 217.390417 
L 48.870898 217.390417 
L 48.870898 208.626889 
L 49.471099 208.626889 
L 49.471099 208.1994 
L 50.071301 208.1994 
L 50.071301 206.061954 
L 50.671503 206.061954 
L 50.671503 203.283275 
L 51.271704 203.283275 
L 51.271704 201.145829 
L 51.871906 201.145829 
L 51.871906 200.290851 
L 52.472108 200.290851 
L 52.472108 196.657193 
L 53.072309 196.657193 
L 53.072309 191.954812 
L 53.672511 191.954812 
L 53.672511 189.389877 
L 54.272713 189.389877 
L 54.272713 189.176133 
L 54.872914 189.176133 
L 54.872914 182.763795 
L 55.473116 182.763795 
L 55.473116 182.122562 
L 56.073318 182.122562 
L 56.073318 181.053839 
L 57.273721 181.053839 
L 57.273721 175.49648 
L 57.873923 175.49648 
L 57.873923 175.06899 
L 58.474124 175.06899 
L 58.474124 173.786523 
L 59.074326 173.786523 
L 59.074326 172.504056 
L 59.674528 172.504056 
L 59.674528 170.152865 
L 60.27473 170.152865 
L 60.27473 168.015419 
L 60.874931 168.015419 
L 60.874931 165.23674 
L 61.475133 165.23674 
L 61.475133 164.595506 
L 62.075335 164.595506 
L 62.075335 163.740528 
L 62.675536 163.740528 
L 62.675536 163.313039 
L 63.275738 163.313039 
L 63.275738 162.88555 
L 63.87594 162.88555 
L 63.87594 160.961848 
L 64.476141 160.961848 
L 64.476141 159.893125 
L 65.076343 159.893125 
L 65.076343 157.541935 
L 66.276746 157.541935 
L 66.276746 156.900701 
L 66.876948 156.900701 
L 66.876948 156.473212 
L 67.47715 156.473212 
L 67.47715 151.129598 
L 68.077351 151.129598 
L 68.077351 147.49594 
L 68.677553 147.49594 
L 68.677553 144.931005 
L 69.277755 144.931005 
L 69.277755 144.076027 
L 70.478158 144.076027 
L 70.478158 141.083603 
L 71.07836 141.083603 
L 71.07836 140.656113 
L 72.878965 140.656113 
L 72.878965 140.01488 
L 73.479166 140.01488 
L 73.479166 137.877434 
L 75.879973 137.877434 
L 75.879973 136.381222 
L 76.480175 136.381222 
L 76.480175 134.671265 
L 77.080377 134.671265 
L 77.080377 134.030031 
L 77.680578 134.030031 
L 77.680578 132.533819 
L 78.28078 132.533819 
L 78.28078 132.10633 
L 78.880982 132.10633 
L 78.880982 131.678841 
L 79.481183 131.678841 
L 79.481183 130.182629 
L 80.081385 130.182629 
L 80.081385 129.75514 
L 82.482192 129.75514 
L 82.482192 128.686417 
L 83.082393 128.686417 
L 83.082393 127.40395 
L 84.882998 127.40395 
L 84.882998 126.762716 
L 85.4832 126.762716 
L 85.4832 124.839015 
L 86.083402 124.839015 
L 86.083402 124.62527 
L 86.683603 124.62527 
L 86.683603 123.770292 
L 87.884007 123.770292 
L 87.884007 122.27408 
L 88.484209 122.27408 
L 88.484209 121.419101 
L 89.08441 121.419101 
L 89.08441 120.350378 
L 89.684612 120.350378 
L 89.684612 119.922889 
L 90.284814 119.922889 
L 90.284814 118.426677 
L 90.885015 118.426677 
L 90.885015 118.212933 
L 91.485217 118.212933 
L 91.485217 117.999188 
L 92.68562 117.999188 
L 92.68562 117.785443 
L 93.285822 117.785443 
L 93.285822 117.571699 
L 94.486225 117.571699 
L 94.486225 116.716721 
L 95.686629 116.716721 
L 95.686629 116.289231 
L 96.28683 116.289231 
L 96.28683 115.647998 
L 96.887032 115.647998 
L 96.887032 115.006764 
L 98.087435 115.006764 
L 98.087435 114.579275 
L 98.687637 114.579275 
L 98.687637 113.938041 
L 99.88804 113.938041 
L 99.88804 113.724296 
L 101.088444 113.724296 
L 101.088444 113.510552 
L 102.288847 113.510552 
L 102.288847 113.296807 
L 103.489251 113.296807 
L 103.489251 112.228084 
L 105.289856 112.228084 
L 105.289856 112.01434 
L 105.890057 112.01434 
L 105.890057 111.800595 
L 107.090461 111.800595 
L 107.090461 110.731872 
L 107.690662 110.731872 
L 107.690662 110.304383 
L 108.290864 110.304383 
L 108.290864 109.449405 
L 109.491267 109.449405 
L 109.491267 108.594427 
L 111.892074 108.594427 
L 111.892074 107.953193 
L 112.492276 107.953193 
L 112.492276 107.739448 
L 113.692679 107.739448 
L 113.692679 107.525704 
L 116.093486 107.525704 
L 116.093486 107.311959 
L 116.693688 107.311959 
L 116.693688 107.098215 
L 117.894091 107.098215 
L 117.894091 106.456981 
L 118.494293 106.456981 
L 118.494293 105.388258 
L 119.694696 105.388258 
L 119.694696 105.174513 
L 120.294898 105.174513 
L 120.294898 104.960769 
L 120.895099 104.960769 
L 120.895099 103.892046 
L 121.495301 103.892046 
L 121.495301 103.464557 
L 122.095503 103.464557 
L 122.095503 103.250812 
L 125.696713 103.250812 
L 125.696713 101.968345 
L 128.097519 101.968345 
L 128.097519 101.7546 
L 128.697721 101.7546 
L 128.697721 101.327111 
L 129.297923 101.327111 
L 129.297923 100.685877 
L 129.898124 100.685877 
L 129.898124 100.472133 
L 131.69873 100.472133 
L 131.69873 100.258388 
L 132.899133 100.258388 
L 132.899133 100.044643 
L 135.900141 100.044643 
L 135.900141 99.189665 
L 137.100545 99.189665 
L 137.100545 98.975921 
L 138.300948 98.975921 
L 138.300948 98.762176 
L 138.90115 98.762176 
L 138.90115 98.548431 
L 139.501351 98.548431 
L 139.501351 98.120942 
L 140.101553 98.120942 
L 140.101553 97.693453 
L 140.701755 97.693453 
L 140.701755 97.265964 
L 141.301956 97.265964 
L 141.301956 96.838475 
L 141.902158 96.838475 
L 141.902158 96.62473 
L 143.702763 96.62473 
L 143.702763 95.556007 
L 145.503368 95.556007 
L 145.503368 95.128518 
L 147.303973 95.128518 
L 147.303973 94.914774 
L 148.504377 94.914774 
L 148.504377 94.701029 
L 149.104578 94.701029 
L 149.104578 94.27354 
L 150.304982 94.27354 
L 150.304982 93.204817 
L 152.105587 93.204817 
L 152.105587 92.563583 
L 152.705788 92.563583 
L 152.705788 92.349839 
L 153.30599 92.349839 
L 153.30599 92.136094 
L 154.506393 92.136094 
L 154.506393 91.281116 
L 155.106595 91.281116 
L 155.106595 90.639882 
L 155.706797 90.639882 
L 155.706797 90.212393 
L 156.306998 90.212393 
L 156.306998 89.998648 
L 158.707805 89.998648 
L 158.707805 89.357415 
L 159.308007 89.357415 
L 159.308007 88.929925 
L 161.108612 88.929925 
L 161.108612 88.502436 
L 161.708814 88.502436 
L 161.708814 88.074947 
L 164.10962 88.074947 
L 164.10962 87.433713 
L 164.709822 87.433713 
L 164.709822 87.006224 
L 167.71083 87.006224 
L 167.71083 86.36499 
L 168.311032 86.36499 
L 168.311032 86.151246 
L 170.111637 86.151246 
L 170.111637 85.296268 
L 171.31204 85.296268 
L 171.31204 84.868778 
L 173.112645 84.868778 
L 173.112645 84.227545 
L 173.712847 84.227545 
L 173.712847 83.800056 
L 174.913251 83.800056 
L 174.913251 83.586311 
L 175.513452 83.586311 
L 175.513452 83.158822 
L 176.113654 83.158822 
L 176.113654 82.945077 
L 176.713856 82.945077 
L 176.713856 82.090099 
L 177.314057 82.090099 
L 177.314057 81.66261 
L 177.914259 81.66261 
L 177.914259 81.235121 
L 179.114662 81.235121 
L 179.114662 81.021376 
L 179.714864 81.021376 
L 179.714864 80.593887 
L 180.315066 80.593887 
L 180.315066 79.952653 
L 180.915267 79.952653 
L 180.915267 79.738909 
L 183.316074 79.738909 
L 183.316074 79.311419 
L 183.916276 79.311419 
L 183.916276 79.097675 
L 184.516477 79.097675 
L 184.516477 78.456441 
L 186.317082 78.456441 
L 186.317082 78.242696 
L 188.117688 78.242696 
L 188.117688 78.028952 
L 188.717889 78.028952 
L 188.717889 77.815207 
L 189.918293 77.815207 
L 189.918293 77.601463 
L 191.118696 77.601463 
L 191.118696 77.387718 
L 191.718898 77.387718 
L 191.718898 76.960229 
L 192.319099 76.960229 
L 192.319099 76.746484 
L 194.719906 76.746484 
L 194.719906 76.318995 
L 195.320108 76.318995 
L 195.320108 76.105251 
L 195.920309 76.105251 
L 195.920309 75.891506 
L 197.120713 75.891506 
L 197.120713 75.677762 
L 198.321116 75.677762 
L 198.321116 75.464017 
L 198.921318 75.464017 
L 198.921318 75.250272 
L 200.121721 75.250272 
L 200.121721 75.036528 
L 201.322124 75.036528 
L 201.322124 74.822783 
L 201.922326 74.822783 
L 201.922326 74.395294 
L 204.323133 74.395294 
L 204.323133 74.18155 
L 204.923335 74.18155 
L 204.923335 73.967805 
L 205.523536 73.967805 
L 205.523536 73.75406 
L 206.123738 73.75406 
L 206.123738 73.540316 
L 207.924343 73.540316 
L 207.924343 73.112827 
L 209.124746 73.112827 
L 209.124746 72.685337 
L 209.724948 72.685337 
L 209.724948 72.471593 
L 210.32515 72.471593 
L 210.32515 72.044104 
L 210.925351 72.044104 
L 210.925351 71.616615 
L 211.525553 71.616615 
L 211.525553 71.40287 
L 212.125755 71.40287 
L 212.125755 69.479169 
L 213.326158 69.479169 
L 213.326158 69.265424 
L 214.526561 69.265424 
L 214.526561 69.05168 
L 216.327166 69.05168 
L 216.327166 68.837935 
L 219.928377 68.837935 
L 219.928377 68.62419 
L 221.728982 68.62419 
L 221.728982 68.196701 
L 222.329183 68.196701 
L 222.329183 67.982957 
L 222.929385 67.982957 
L 222.929385 67.555468 
L 223.529587 67.555468 
L 223.529587 66.914234 
L 224.72999 66.914234 
L 224.72999 66.273 
L 226.530595 66.273 
L 226.530595 66.059256 
L 228.3312 66.059256 
L 228.3312 65.631766 
L 228.931402 65.631766 
L 228.931402 65.418022 
L 230.131805 65.418022 
L 230.131805 65.204277 
L 230.732007 65.204277 
L 230.732007 64.776788 
L 233.132814 64.776788 
L 233.132814 64.563043 
L 233.733015 64.563043 
L 233.733015 64.135554 
L 235.53362 64.135554 
L 235.53362 63.708065 
L 238.534629 63.708065 
L 238.534629 62.211853 
L 239.735032 62.211853 
L 239.735032 61.14313 
L 242.135839 61.14313 
L 242.135839 60.929386 
L 242.73604 60.929386 
L 242.73604 60.715641 
L 243.936444 60.715641 
L 243.936444 60.074407 
L 244.536645 60.074407 
L 244.536645 59.860663 
L 245.737049 59.860663 
L 245.737049 59.219429 
L 247.537654 59.219429 
L 247.537654 57.723217 
L 248.738057 57.723217 
L 248.738057 57.081983 
L 249.338259 57.081983 
L 249.338259 56.654494 
L 249.938461 56.654494 
L 249.938461 54.944537 
L 251.138864 54.944537 
L 251.138864 54.517048 
L 252.939469 54.517048 
L 252.939469 54.089559 
L 254.139872 54.089559 
L 254.139872 52.807092 
L 254.740074 52.807092 
L 254.740074 52.379603 
L 255.340276 52.379603 
L 255.340276 51.097135 
L 255.940477 51.097135 
L 255.940477 50.88339 
L 256.540679 50.88339 
L 256.540679 50.669646 
L 258.341284 50.669646 
L 258.341284 50.242157 
L 258.941486 50.242157 
L 258.941486 50.028412 
L 259.541687 50.028412 
L 259.541687 48.959689 
L 260.141889 48.959689 
L 260.141889 47.890966 
L 261.342293 47.890966 
L 261.342293 47.463477 
L 261.942494 47.463477 
L 261.942494 47.249733 
L 264.343301 47.249733 
L 264.343301 47.035988 
L 264.943503 47.035988 
L 264.943503 46.394754 
L 266.143906 46.394754 
L 266.143906 46.18101 
L 267.944511 46.18101 
L 267.944511 45.539776 
L 269.144914 45.539776 
L 269.144914 45.326031 
L 269.745116 45.326031 
L 269.745116 44.898542 
L 270.345318 44.898542 
L 270.345318 44.471053 
L 272.145923 44.471053 
L 272.145923 43.829819 
L 272.746124 43.829819 
L 272.746124 43.616075 
L 273.346326 43.616075 
L 273.346326 42.547352 
L 273.946528 42.547352 
L 273.946528 42.119863 
L 275.146931 42.119863 
L 275.146931 41.906118 
L 275.747133 41.906118 
L 275.747133 40.409906 
L 276.947536 40.409906 
L 276.947536 39.768672 
L 277.547738 39.768672 
L 277.547738 39.127439 
L 278.748141 39.127439 
L 278.748141 38.69995 
L 280.548746 38.69995 
L 280.548746 38.486205 
L 281.148948 38.486205 
L 281.148948 37.417482 
L 282.349351 37.417482 
L 282.349351 36.776248 
L 285.35036 36.776248 
L 285.35036 36.562504 
L 285.950561 36.562504 
L 285.950561 36.348759 
L 287.150965 36.348759 
L 287.150965 35.92127 
L 287.751166 35.92127 
L 287.751166 35.493781 
L 288.351368 35.493781 
L 288.351368 34.852547 
L 288.95157 34.852547 
L 288.95157 34.211313 
L 289.551772 34.211313 
L 289.551772 33.997569 
L 290.151973 33.997569 
L 290.151973 32.928846 
L 291.352377 32.928846 
L 291.352377 31.860123 
L 292.55278 31.860123 
L 292.55278 31.432634 
L 294.353385 31.432634 
L 294.353385 31.218889 
L 294.953587 31.218889 
L 294.953587 31.005145 
L 295.553788 31.005145 
L 295.553788 30.577656 
L 296.754192 30.577656 
L 296.754192 30.363911 
L 297.354393 30.363911 
L 297.354393 30.150166 
L 298.554797 30.150166 
L 298.554797 29.508933 
L 299.154998 29.508933 
L 299.154998 29.295188 
L 300.955603 29.295188 
L 300.955603 29.081443 
L 301.555805 29.081443 
L 301.555805 28.867699 
L 302.156007 28.867699 
L 302.156007 28.653954 
L 303.35641 28.653954 
L 303.35641 28.44021 
L 303.956612 28.44021 
L 303.956612 27.798976 
L 305.157015 27.798976 
L 305.157015 26.943998 
L 306.95762 26.943998 
L 306.95762 26.516509 
L 307.557822 26.516509 
L 307.557822 25.875275 
L 310.55883 25.875275 
L 310.55883 25.447786 
L 311.159032 25.447786 
L 311.159032 25.020296 
L 311.759234 25.020296 
L 311.759234 24.165318 
L 315.360444 24.165318 
L 315.360444 23.951574 
L 317.161049 23.951574 
L 317.161049 23.31034 
L 320.162057 23.31034 
L 320.162057 22.669106 
L 320.762259 22.669106 
L 320.762259 22.455362 
L 321.962662 22.455362 
L 321.962662 22.241617 
L 322.562864 22.241617 
L 322.562864 22.027872 
L 323.763267 22.027872 
L 323.763267 21.814128 
L 325.563872 21.814128 
L 325.563872 21.600383 
L 329.165082 21.600383 
L 329.165082 21.386639 
L 329.765284 21.386639 
L 329.765284 21.172894 
L 330.965688 21.172894 
L 330.965688 20.95915 
L 334.566898 20.95915 
L 334.566898 20.53166 
L 335.167099 20.53166 
L 335.167099 20.317916 
L 335.767301 20.317916 
L 335.767301 20.104171 
L 337.567906 20.104171 
L 337.567906 19.035448 
L 338.168108 19.035448 
L 338.168108 18.821704 
L 338.768309 18.821704 
L 338.768309 18.607959 
L 349.57194 18.607959 
L 349.57194 18.18047 
L 350.772343 18.18047 
L 350.772343 17.966725 
L 353.17315 17.966725 
L 353.17315 17.539236 
L 356.77436 17.539236 
L 356.77436 17.325492 
L 357.374561 17.325492 
L 357.374561 17.111747 
L 359.175166 17.111747 
L 359.175166 16.898003 
L 361.575973 16.898003 
L 361.575973 16.684258 
L 362.776377 16.684258 
L 362.776377 16.470513 
L 363.97678 16.470513 
L 363.97678 16.256769 
L 366.377587 16.256769 
L 366.377587 15.82928 
L 370.578998 15.82928 
L 370.578998 15.615535 
L 371.1792 15.615535 
L 371.1792 15.40179 
L 371.779402 15.40179 
L 371.779402 15.188046 
L 373.580007 15.188046 
L 373.580007 14.974301 
L 376.581015 14.974301 
L 376.581015 14.760557 
L 377.181217 14.760557 
L 377.181217 14.546812 
L 377.781419 14.546812 
L 377.781419 13.905578 
L 378.981822 13.905578 
L 378.981822 13.478089 
L 380.182225 13.478089 
L 380.182225 13.0506 
L 381.98283 13.0506 
L 381.98283 12.623111 
L 383.183234 12.623111 
L 383.183234 12.409366 
L 384.983839 12.409366 
L 384.983839 11.981877 
L 386.184242 11.981877 
L 386.184242 11.554388 
L 387.384645 11.554388 
L 387.384645 11.340643 
L 390.385654 11.340643 
L 390.385654 11.126899 
L 392.186259 11.126899 
L 392.186259 10.913154 
L 394.587066 10.913154 
L 394.587066 10.69941 
L 395.187267 10.69941 
L 395.187267 10.485665 
L 395.787469 10.485665 
L 395.787469 10.271921 
L 397.588074 10.271921 
L 397.588074 9.844431 
L 398.788477 9.844431 
L 398.788477 9.630687 
L 401.789486 9.630687 
L 401.789486 9.416942 
L 402.389688 9.416942 
L 402.389688 8.989453 
L 402.389688 8.989453 
" clip-path="url(#pc3560a2575)" style="fill: none; stroke: #ff0000; stroke-width: 1.5; stroke-linecap: square"/>
   </g>
   <g id="line2d_14">
    <defs>
     <path id="m7d37e7fe95" d="M 0 3 
C 0.795609 3 1.55874 2.683901 2.12132 2.12132 
C 2.683901 1.55874 3 0.795609 3 0 
C 3 -0.795609 2.683901 -1.55874 2.12132 -2.12132 
C 1.55874 -2.683901 0.795609 -3 0 -3 
C -0.795609 -3 -1.55874 -2.683901 -2.12132 -2.12132 
C -2.683901 -1.55874 -3 -0.795609 -3 0 
C -3 0.795609 -2.683901 1.55874 -2.12132 2.12132 
C -1.55874 2.683901 -0.795609 3 0 3 
z
" style="stroke: #000000"/>
    </defs>
    <g clip-path="url(#pc3560a2575)">
     <use xlink:href="#m7d37e7fe95" x="98.687637" y="113.938041" style="fill: #ff0000; stroke: #000000"/>
    </g>
   </g>
   <g id="line2d_15">
    <path d="M 45.269688 275.101453 
L 402.389688 8.989453 
" clip-path="url(#pc3560a2575)" style="fill: none; stroke: #00bfbf; stroke-width: 1.5; stroke-linecap: square"/>
   </g>
   <g id="patch_4">
    <path d="M 45.269688 275.101453 
L 45.269688 8.989453 
" style="fill: none; stroke: #000000; stroke-width: 0.8; stroke-linejoin: miter; stroke-linecap: square"/>
   </g>
   <g id="patch_5">
    <path d="M 402.389688 275.101453 
L 402.389688 8.989453 
" style="fill: none; stroke: #000000; stroke-width: 0.8; stroke-linejoin: miter; stroke-linecap: square"/>
   </g>
   <g id="patch_6">
    <path d="M 45.269688 275.101453 
L 402.389688 275.101453 
" style="fill: none; stroke: #000000; stroke-width: 0.8; stroke-linejoin: miter; stroke-linecap: square"/>
   </g>
   <g id="patch_7">
    <path d="M 45.269688 8.989453 
L 402.389688 8.989453 
" style="fill: none; stroke: #000000; stroke-width: 0.8; stroke-linejoin: miter; stroke-linecap: square"/>
   </g>
   <g id="legend_1">
    <g id="patch_8">
     <path d="M 163.116406 339.516041 
L 284.542969 339.516041 
Q 285.542969 339.516041 285.542969 338.516041 
L 285.542969 331.823853 
Q 285.542969 330.823853 284.542969 330.823853 
L 163.116406 330.823853 
Q 162.116406 330.823853 162.116406 331.823853 
L 162.116406 338.516041 
Q 162.116406 339.516041 163.116406 339.516041 
z
" style="fill: #ffffff; opacity: 0.8; stroke: #cccccc; stroke-linejoin: miter"/>
    </g>
    <g id="line2d_16">
     <path d="M 164.116406 334.713697 
L 169.116406 334.713697 
L 174.116406 334.713697 
" style="fill: none; stroke: #ff0000; stroke-width: 1.5; stroke-linecap: square"/>
    </g>
    <g id="text_15">
     <text style="font: 5px 'Arial'; text-anchor: start" x="178.116406" y="336.463697" transform="rotate(-0 178.116406 336.463697)">model performance</text>
    </g>
    <g id="line2d_17">
     <path d="M 231.189063 334.713697 
L 236.189063 334.713697 
L 241.189063 334.713697 
" style="fill: none; stroke: #00bfbf; stroke-width: 1.5; stroke-linecap: square"/>
    </g>
    <g id="text_16">
     <text style="font: 5px 'Arial'; text-anchor: start" x="245.189063" y="336.463697" transform="rotate(-0 245.189063 336.463697)">random guessing</text>
    </g>
   </g>
  </g>
 </g>
 <defs>
  <clipPath id="pc3560a2575">
   <rect x="45.269688" y="8.989453" width="357.12" height="266.112"/>
  </clipPath>
 </defs>
</svg>
