<?xml version="1.0" encoding="utf-8" standalone="no"?>
<!DOCTYPE svg PUBLIC "-//W3C//DTD SVG 1.1//EN"
  "http://www.w3.org/Graphics/SVG/1.1/DTD/svg11.dtd">
<svg xmlns:xlink="http://www.w3.org/1999/xlink" width="413.064687pt" height="359.867056pt" viewBox="0 0 413.064687 359.867056" xmlns="http://www.w3.org/2000/svg" version="1.1">
 <metadata>
  <rdf:RDF xmlns:dc="http://purl.org/dc/elements/1.1/" xmlns:cc="http://creativecommons.org/ns#" xmlns:rdf="http://www.w3.org/1999/02/22-rdf-syntax-ns#">
   <cc:Work>
    <dc:type rdf:resource="http://purl.org/dc/dcmitype/StillImage"/>
    <dc:date>2024-09-25T06:57:21.772307</dc:date>
    <dc:format>image/svg+xml</dc:format>
    <dc:creator>
     <cc:Agent>
      <dc:title>Matplotlib v3.7.0, https://matplotlib.org/</dc:title>
     </cc:Agent>
    </dc:creator>
   </cc:Work>
  </rdf:RDF>
 </metadata>
 <defs>
  <style type="text/css">*{stroke-linejoin: round; stroke-linecap: butt}</style>
 </defs>
 <g id="figure_1">
  <g id="patch_1">
   <path d="M 0 359.867056 
L 413.064687 359.867056 
L 413.064687 0 
L 0 0 
z
" style="fill: #ffffff"/>
  </g>
  <g id="axes_1">
   <g id="patch_2">
    <path d="M 45.269688 288.252469 
L 402.389688 288.252469 
L 402.389688 22.140469 
L 45.269688 22.140469 
z
" style="fill: #ffffff"/>
   </g>
   <g id="patch_3">
    <path d="M 402.389688 22.140469 
L 402.065926 30.55221 
L 398.879466 29.684337 
L 374.733589 78.9105 
L 374.398172 78.819145 
L 398.544049 29.592982 
L 395.357588 28.725109 
z
" clip-path="url(#p5d215b004c)" style="fill: #1f77b4; stroke: #000000; stroke-linejoin: miter"/>
   </g>
   <g id="matplotlib.axis_1">
    <g id="xtick_1">
     <g id="line2d_1">
      <defs>
       <path id="m7f4fb29072" d="M 0 0 
L 0 3.5 
" style="stroke: #000000; stroke-width: 0.8"/>
      </defs>
      <g>
       <use xlink:href="#m7f4fb29072" x="45.269688" y="288.252469" style="stroke: #000000; stroke-width: 0.8"/>
      </g>
     </g>
     <g id="text_1">
      <text style="font: 5px 'Arial'; text-anchor: middle" x="45.269688" y="298.831375" transform="rotate(-0 45.269688 298.831375)">0.0</text>
     </g>
    </g>
    <g id="xtick_2">
     <g id="line2d_2">
      <g>
       <use xlink:href="#m7f4fb29072" x="116.693688" y="288.252469" style="stroke: #000000; stroke-width: 0.8"/>
      </g>
     </g>
     <g id="text_2">
      <text style="font: 5px 'Arial'; text-anchor: middle" x="116.693688" y="298.831375" transform="rotate(-0 116.693688 298.831375)">0.2</text>
     </g>
    </g>
    <g id="xtick_3">
     <g id="line2d_3">
      <g>
       <use xlink:href="#m7f4fb29072" x="188.117688" y="288.252469" style="stroke: #000000; stroke-width: 0.8"/>
      </g>
     </g>
     <g id="text_3">
      <text style="font: 5px 'Arial'; text-anchor: middle" x="188.117688" y="298.831375" transform="rotate(-0 188.117688 298.831375)">0.4</text>
     </g>
    </g>
    <g id="xtick_4">
     <g id="line2d_4">
      <g>
       <use xlink:href="#m7f4fb29072" x="259.541688" y="288.252469" style="stroke: #000000; stroke-width: 0.8"/>
      </g>
     </g>
     <g id="text_4">
      <text style="font: 5px 'Arial'; text-anchor: middle" x="259.541688" y="298.831375" transform="rotate(-0 259.541688 298.831375)">0.6</text>
     </g>
    </g>
    <g id="xtick_5">
     <g id="line2d_5">
      <g>
       <use xlink:href="#m7f4fb29072" x="330.965688" y="288.252469" style="stroke: #000000; stroke-width: 0.8"/>
      </g>
     </g>
     <g id="text_5">
      <text style="font: 5px 'Arial'; text-anchor: middle" x="330.965688" y="298.831375" transform="rotate(-0 330.965688 298.831375)">0.8</text>
     </g>
    </g>
    <g id="xtick_6">
     <g id="line2d_6">
      <g>
       <use xlink:href="#m7f4fb29072" x="402.389688" y="288.252469" style="stroke: #000000; stroke-width: 0.8"/>
      </g>
     </g>
     <g id="text_6">
      <text style="font: 5px 'Arial'; text-anchor: middle" x="402.389688" y="298.831375" transform="rotate(-0 402.389688 298.831375)">1.0</text>
     </g>
    </g>
    <g id="text_7">
     <text style="font: 22px 'Arial'; text-anchor: middle" x="223.829688" y="319.572312" transform="rotate(-0 223.829688 319.572312)">Recall</text>
    </g>
   </g>
   <g id="matplotlib.axis_2">
    <g id="ytick_1">
     <g id="line2d_7">
      <defs>
       <path id="m948c3edc23" d="M 0 0 
L -3.5 0 
" style="stroke: #000000; stroke-width: 0.8"/>
      </defs>
      <g>
       <use xlink:href="#m948c3edc23" x="45.269688" y="288.252469" style="stroke: #000000; stroke-width: 0.8"/>
      </g>
     </g>
     <g id="text_8">
      <text style="font: 5px 'Arial'; text-anchor: end" x="38.269688" y="290.041922" transform="rotate(-0 38.269688 290.041922)">0.0</text>
     </g>
    </g>
    <g id="ytick_2">
     <g id="line2d_8">
      <g>
       <use xlink:href="#m948c3edc23" x="45.269688" y="235.030069" style="stroke: #000000; stroke-width: 0.8"/>
      </g>
     </g>
     <g id="text_9">
      <text style="font: 5px 'Arial'; text-anchor: end" x="38.269688" y="236.819522" transform="rotate(-0 38.269688 236.819522)">0.2</text>
     </g>
    </g>
    <g id="ytick_3">
     <g id="line2d_9">
      <g>
       <use xlink:href="#m948c3edc23" x="45.269688" y="181.807669" style="stroke: #000000; stroke-width: 0.8"/>
      </g>
     </g>
     <g id="text_10">
      <text style="font: 5px 'Arial'; text-anchor: end" x="38.269688" y="183.597122" transform="rotate(-0 38.269688 183.597122)">0.4</text>
     </g>
    </g>
    <g id="ytick_4">
     <g id="line2d_10">
      <g>
       <use xlink:href="#m948c3edc23" x="45.269688" y="128.585269" style="stroke: #000000; stroke-width: 0.8"/>
      </g>
     </g>
     <g id="text_11">
      <text style="font: 5px 'Arial'; text-anchor: end" x="38.269688" y="130.374722" transform="rotate(-0 38.269688 130.374722)">0.6</text>
     </g>
    </g>
    <g id="ytick_5">
     <g id="line2d_11">
      <g>
       <use xlink:href="#m948c3edc23" x="45.269688" y="75.362869" style="stroke: #000000; stroke-width: 0.8"/>
      </g>
     </g>
     <g id="text_12">
      <text style="font: 5px 'Arial'; text-anchor: end" x="38.269688" y="77.152322" transform="rotate(-0 38.269688 77.152322)">0.8</text>
     </g>
    </g>
    <g id="ytick_6">
     <g id="line2d_12">
      <g>
       <use xlink:href="#m948c3edc23" x="45.269688" y="22.140469" style="stroke: #000000; stroke-width: 0.8"/>
      </g>
     </g>
     <g id="text_13">
      <text style="font: 5px 'Arial'; text-anchor: end" x="38.269688" y="23.929922" transform="rotate(-0 38.269688 23.929922)">1.0</text>
     </g>
    </g>
    <g id="text_14">
     <text style="font: 22px 'Arial'; text-anchor: middle" x="22.947188" y="155.196469" transform="rotate(-90 22.947188 155.196469)">Precision</text>
    </g>
   </g>
   <g id="line2d_13">
    <path d="M 402.389688 108.19299 
L 402.389688 108.095079 
L 402.102844 108.141844 
L 402.102844 108.043798 
L 402.102844 107.945645 
L 401.529157 107.940901 
L 401.529157 107.743947 
L 401.242314 107.790724 
L 401.242314 107.692058 
L 401.242314 106.499584 
L 400.955471 106.546037 
L 400.955471 106.445923 
L 400.955471 105.943695 
L 400.668627 105.990021 
L 400.668627 105.889212 
L 400.668627 105.484859 
L 400.381784 105.531084 
L 400.381784 105.429685 
L 400.381784 104.920996 
L 400.094941 104.967088 
L 400.094941 104.864979 
L 400.094941 104.762756 
L 399.521254 104.854969 
L 399.521254 104.752569 
L 399.521254 104.238852 
L 398.947567 104.33089 
L 398.947567 104.227737 
L 398.947567 103.710233 
L 398.37388 103.698175 
L 398.37388 102.967473 
L 397.800194 103.05901 
L 397.800194 102.954085 
L 397.800194 102.638594 
L 397.51335 102.684305 
L 397.51335 102.578869 
L 397.51335 102.367636 
L 397.226507 102.413297 
L 397.226507 102.307466 
L 397.226507 102.095443 
L 396.939663 102.141053 
L 396.939663 102.034825 
L 396.939663 100.10177 
L 396.65282 100.146756 
L 396.65282 100.03815 
L 396.65282 98.835153 
L 396.365977 98.879743 
L 396.365977 98.769579 
L 396.365977 98.327636 
L 396.079133 98.372086 
L 396.079133 98.261239 
L 396.079133 97.481674 
L 395.79229 97.525862 
L 395.79229 97.413934 
L 395.79229 96.739592 
L 395.505447 96.783552 
L 395.505447 95.876653 
L 395.218603 95.920336 
L 395.218603 95.806328 
L 394.644916 95.893765 
L 394.644916 95.779538 
L 394.358073 95.823292 
L 394.358073 95.594346 
L 394.07123 95.638069 
L 394.07123 94.947695 
L 393.784386 94.991214 
L 393.784386 94.411893 
L 393.2107 94.498654 
L 393.2107 94.149128 
L 392.637013 94.235833 
L 392.637013 94.001937 
L 392.350169 94.045279 
L 392.350169 92.985325 
L 391.776483 93.071354 
L 391.776483 92.834052 
L 391.489639 92.877053 
L 391.489639 91.681365 
L 391.202796 91.723949 
L 391.202796 91.603528 
L 390.629109 91.688758 
L 390.629109 91.205207 
L 390.342266 91.247708 
L 390.342266 90.51761 
L 390.055422 90.55987 
L 390.055422 90.315201 
L 389.768579 90.357415 
L 389.768579 90.234803 
L 389.481736 90.277019 
L 389.481736 90.154206 
L 389.194892 90.196424 
L 389.194892 89.950239 
L 388.908049 89.992409 
L 388.908049 89.74551 
L 388.621206 89.787631 
L 388.621206 89.540015 
L 388.334362 89.582087 
L 388.334362 88.710179 
L 387.760675 88.793757 
L 387.760675 88.543023 
L 387.186989 88.626601 
L 387.186989 88.122813 
L 386.613302 88.206177 
L 386.613302 87.572317 
L 386.326459 87.613808 
L 386.326459 87.486499 
L 386.039615 87.527989 
L 386.039615 87.144927 
L 385.752772 87.186305 
L 385.752772 86.801612 
L 385.465928 86.842876 
L 385.465928 86.585483 
L 385.179085 86.626689 
L 385.179085 86.497689 
L 384.892242 86.538891 
L 384.892242 86.409671 
L 384.605398 86.450869 
L 384.605398 86.062041 
L 384.318555 86.103122 
L 384.318555 85.973122 
L 383.744868 86.055328 
L 383.744868 85.925046 
L 382.884338 86.04858 
L 382.884338 85.917957 
L 382.597495 85.959184 
L 382.597495 85.303239 
L 382.310651 85.344227 
L 382.310651 84.948438 
L 382.023808 84.989302 
L 382.023808 84.724464 
L 381.450121 84.806113 
L 381.450121 84.140385 
L 381.163278 84.180987 
L 381.163278 83.645015 
L 380.015904 83.806976 
L 380.015904 83.4024 
L 379.442218 83.483327 
L 379.442218 83.347988 
L 379.155374 83.388469 
L 379.155374 82.845063 
L 378.868531 82.885345 
L 378.868531 82.748979 
L 378.294844 82.829575 
L 378.294844 82.6929 
L 377.434314 82.814005 
L 377.434314 82.539721 
L 377.147471 82.580068 
L 377.147471 82.442586 
L 376.860627 82.482922 
L 376.860627 82.207277 
L 376.573784 82.247536 
L 376.573784 81.415753 
L 376.286941 81.455669 
L 376.286941 80.757031 
L 375.713254 80.83635 
L 375.713254 80.13229 
L 375.42641 80.171686 
L 375.42641 80.030231 
L 375.139567 80.069612 
L 375.139567 79.501582 
L 374.852724 79.540736 
L 374.852724 79.255416 
L 374.56588 79.294482 
L 374.56588 78.864822 
L 373.992194 78.942687 
L 373.992194 78.79893 
L 373.418507 78.876865 
L 373.418507 78.732766 
L 372.84482 78.810771 
L 372.84482 78.666328 
L 372.557977 78.705338 
L 372.557977 78.560623 
L 370.550073 78.834698 
L 370.550073 78.543638 
L 370.26323 78.582861 
L 370.26323 78.290842 
L 369.976386 78.329971 
L 369.976386 77.448561 
L 369.689543 77.487292 
L 369.689543 77.043576 
L 369.115856 77.120741 
L 369.115856 76.972266 
L 368.542169 77.049494 
L 368.542169 76.900655 
L 367.107953 77.094291 
L 367.107953 76.49526 
L 366.534266 76.572469 
L 366.534266 76.422021 
L 365.960579 76.49929 
L 365.960579 76.348469 
L 365.673736 76.387106 
L 365.673736 76.084657 
L 365.100049 76.161775 
L 365.100049 75.858138 
L 364.813206 75.896618 
L 364.813206 75.591947 
L 364.526362 75.630318 
L 364.526362 75.324607 
L 363.952675 75.401186 
L 363.952675 75.247835 
L 363.665832 75.286124 
L 363.665832 74.670169 
L 363.092145 74.746244 
L 363.092145 74.436591 
L 362.805302 74.474541 
L 362.805302 74.163818 
L 361.371085 74.353545 
L 361.371085 73.884469 
L 361.084242 73.922321 
L 361.084242 73.1355 
L 358.502651 73.474713 
L 358.502651 73.315853 
L 357.928965 73.391669 
L 357.928965 73.072884 
L 357.642121 73.110696 
L 357.642121 72.950858 
L 357.355278 72.988635 
L 357.355278 72.828469 
L 356.781591 72.90401 
L 356.781591 72.743422 
L 355.347374 72.932804 
L 355.347374 72.12394 
L 353.339471 72.388203 
L 353.339471 72.061631 
L 353.052627 72.099421 
L 353.052627 71.935669 
L 352.192097 72.049097 
L 352.192097 71.555482 
L 351.905254 71.593118 
L 351.905254 71.262592 
L 351.331567 71.337645 
L 351.331567 70.839372 
L 349.89735 71.026532 
L 349.89735 70.356598 
L 349.610507 70.393802 
L 349.610507 70.225571 
L 348.749977 70.337224 
L 348.749977 69.999371 
L 348.463133 70.0365 
L 348.463133 69.186749 
L 347.889447 69.260144 
L 347.889447 69.08919 
L 347.602603 69.125869 
L 347.602603 68.954542 
L 346.168386 69.138271 
L 346.168386 68.966147 
L 345.307856 69.076759 
L 345.307856 68.904043 
L 345.021013 68.940923 
L 345.021013 68.767828 
L 343.586796 68.952564 
L 343.586796 68.778654 
L 343.299953 68.815669 
L 343.299953 67.941419 
L 341.292049 68.198315 
L 341.292049 67.668064 
L 341.005206 67.704662 
L 341.005206 67.52723 
L 340.718362 67.563773 
L 340.718362 66.671741 
L 339.284145 66.852469 
L 339.284145 66.312029 
L 338.997302 66.348 
L 338.997302 66.167148 
L 338.710459 66.203059 
L 338.710459 66.021794 
L 338.423615 66.057645 
L 338.423615 65.875965 
L 337.563085 65.983511 
L 337.563085 65.252363 
L 336.415712 65.394647 
L 336.415712 64.84165 
L 335.555181 64.947872 
L 335.555181 64.762557 
L 335.268338 64.797957 
L 335.268338 64.053109 
L 334.120965 64.193285 
L 334.120965 63.62985 
L 333.547278 63.699522 
L 333.547278 63.321804 
L 333.260434 63.356469 
L 333.260434 63.167003 
L 332.686748 63.236246 
L 332.686748 63.046198 
L 332.113061 63.115413 
L 332.113061 62.733825 
L 330.965688 62.871897 
L 330.965688 62.295476 
L 330.105157 62.398438 
L 330.105157 62.205235 
L 329.818314 62.239537 
L 329.818314 62.045867 
L 328.957784 62.148716 
L 328.957784 61.954302 
L 328.384097 62.022887 
L 328.384097 61.827862 
L 327.81041 61.896407 
L 327.81041 60.91481 
L 327.523567 60.948469 
L 327.523567 60.750985 
L 326.94988 60.818192 
L 326.94988 60.42162 
L 326.376194 60.488486 
L 326.376194 60.289392 
L 325.22882 60.423248 
L 325.22882 60.022845 
L 323.220916 60.257307 
L 323.220916 60.055541 
L 321.213013 60.291877 
L 321.213013 60.088704 
L 320.926169 60.122556 
L 320.926169 59.918869 
L 320.352483 59.986451 
L 320.352483 59.782095 
L 318.918266 59.951346 
L 318.918266 59.539993 
L 318.344579 59.607501 
L 318.344579 59.400957 
L 318.057736 59.434646 
L 318.057736 58.186549 
L 317.770892 58.219348 
L 317.770892 57.799962 
L 317.484049 57.832498 
L 317.484049 57.622069 
L 317.197206 57.654502 
L 317.197206 56.808271 
L 316.623519 56.871998 
L 316.623519 56.659137 
L 314.615615 56.882869 
L 314.615615 56.453612 
L 313.468242 56.581407 
L 313.468242 56.365498 
L 312.894555 56.42941 
L 312.894555 56.212753 
L 312.034025 56.308551 
L 312.034025 55.435761 
L 311.460338 55.498523 
L 311.460338 54.838541 
L 310.599808 54.931521 
L 310.599808 54.710154 
L 309.452434 54.834229 
L 309.452434 54.611714 
L 308.018218 54.767227 
L 308.018218 54.543368 
L 306.584001 54.699451 
L 306.584001 54.474232 
L 306.010314 54.536712 
L 306.010314 54.310682 
L 305.723471 54.341824 
L 305.723471 53.888069 
L 305.149784 53.949775 
L 305.149784 53.721854 
L 303.715567 53.876211 
L 303.715567 53.4171 
L 303.14188 53.478486 
L 303.14188 53.247864 
L 301.707663 53.401405 
L 301.707663 53.169338 
L 301.42082 53.20003 
L 301.42082 52.967304 
L 300.847133 53.028469 
L 300.847133 52.79488 
L 299.69976 52.917131 
L 299.69976 52.682265 
L 299.126073 52.743349 
L 299.126073 52.507604 
L 297.691856 52.660356 
L 297.691856 52.185372 
L 296.544483 52.307011 
L 296.544483 52.067958 
L 296.257639 52.098311 
L 296.257639 51.618322 
L 295.110266 51.73864 
L 295.110266 51.497053 
L 294.823422 51.52707 
L 294.823422 51.284772 
L 294.536579 51.314633 
L 294.536579 50.094561 
L 292.815519 50.268369 
L 292.815519 50.021498 
L 291.954989 50.108535 
L 291.954989 49.860469 
L 291.668145 49.889374 
L 291.668145 49.640561 
L 290.807615 49.726948 
L 290.807615 49.476922 
L 288.799712 49.678986 
L 288.799712 49.426794 
L 288.512868 49.455669 
L 288.512868 48.949207 
L 285.931278 49.207535 
L 285.931278 48.951324 
L 285.644434 48.980091 
L 285.644434 48.723085 
L 284.783904 48.80902 
L 284.783904 48.550721 
L 283.923374 48.636469 
L 283.923374 48.116694 
L 283.062844 48.201492 
L 283.062844 47.939998 
L 282.202314 48.024587 
L 282.202314 47.498348 
L 281.628627 47.554019 
L 281.628627 47.289515 
L 281.341784 47.317182 
L 281.341784 47.051834 
L 279.047037 47.273269 
L 279.047037 47.005216 
L 278.760194 47.032905 
L 278.760194 46.763987 
L 278.47335 46.791469 
L 278.47335 46.251288 
L 278.186507 46.278287 
L 278.186507 46.007016 
L 277.039133 46.114523 
L 277.039133 45.841538 
L 275.89176 45.948904 
L 275.89176 45.674183 
L 275.03123 45.754503 
L 275.03123 45.201486 
L 273.023326 45.387034 
L 273.023326 45.107557 
L 272.449639 45.160538 
L 272.449639 44.598476 
L 272.162796 44.624469 
L 272.162796 43.491315 
L 271.875953 43.516171 
L 271.875953 43.23093 
L 270.728579 43.329715 
L 270.728579 43.042584 
L 268.720675 43.215533 
L 268.720675 42.634876 
L 268.146989 42.683557 
L 268.146989 42.39156 
L 267.286459 42.464058 
L 267.286459 42.170404 
L 266.999615 42.194363 
L 266.999615 41.899683 
L 266.425928 41.947124 
L 266.425928 41.651084 
L 262.983808 41.936605 
L 262.983808 41.635853 
L 261.549591 41.755604 
L 261.549591 41.45241 
L 259.541688 41.620131 
L 259.541688 41.313756 
L 256.960097 41.530539 
L 256.960097 41.220197 
L 256.673254 41.244227 
L 256.673254 40.932741 
L 256.38641 40.956469 
L 256.38641 40.643832 
L 255.52588 40.714276 
L 255.52588 40.399742 
L 254.952194 40.446262 
L 254.952194 40.130183 
L 252.94429 40.292253 
L 252.94429 39.972716 
L 251.796916 40.065111 
L 251.796916 39.420469 
L 251.510073 39.442939 
L 251.510073 39.118969 
L 250.649543 39.185551 
L 250.649543 38.204973 
L 249.789013 38.268469 
L 249.789013 37.608009 
L 246.346892 37.857151 
L 246.346892 37.520598 
L 242.904772 37.772731 
L 242.904772 37.086485 
L 241.183712 37.210347 
L 241.183712 36.863124 
L 240.036338 36.945031 
L 240.036338 36.59502 
L 237.167904 36.799181 
L 237.167904 36.443518 
L 233.152097 36.732469 
L 233.152097 36.369001 
L 225.120483 36.968999 
L 225.120483 36.589989 
L 221.678362 36.85634 
L 221.678362 36.469576 
L 219.096772 36.670765 
L 219.096772 36.277669 
L 217.662555 36.388985 
L 217.662555 35.991724 
L 217.088868 36.035557 
L 217.088868 35.635848 
L 215.080965 35.787238 
L 215.080965 35.381997 
L 214.507278 35.424643 
L 214.507278 35.016856 
L 211.925688 35.206524 
L 211.925688 34.375503 
L 211.638844 34.395627 
L 211.638844 33.977411 
L 209.630941 34.115509 
L 209.630941 33.69124 
L 199.304579 34.429833 
L 199.304579 33.978191 
L 195.288772 34.280615 
L 195.288772 33.816315 
L 190.412434 34.190823 
L 190.412434 33.710556 
L 186.970314 33.979107 
L 186.970314 33.486329 
L 186.396627 33.530477 
L 186.396627 33.033942 
L 180.372916 33.498908 
L 180.372916 32.980061 
L 177.791326 33.18246 
L 177.791326 32.652169 
L 172.914989 33.037296 
L 172.914989 32.486076 
L 170.046555 32.714456 
L 170.046555 32.149106 
L 167.751808 32.329442 
L 167.751808 31.751737 
L 158.859663 32.474915 
L 158.859663 31.852586 
L 157.425447 31.972193 
L 157.425447 31.339402 
L 146.238555 32.319616 
L 146.238555 31.61843 
L 143.083278 31.912943 
L 143.083278 31.186769 
L 133.330603 32.150952 
L 133.330603 31.345601 
L 123.864772 32.411458 
L 116.980531 33.355917 
L 116.980531 32.375546 
L 116.693688 32.415063 
L 116.693688 31.423445 
L 109.809447 32.375546 
L 109.809447 31.277361 
L 106.941013 31.687088 
L 106.941013 30.531388 
L 100.056772 31.548469 
L 97.188338 32.048894 
L 97.188338 30.678822 
L 91.451471 31.701379 
L 90.877784 31.817269 
L 90.877784 30.253639 
L 85.714603 31.253893 
L 81.411953 32.297415 
L 77.682989 33.416401 
L 75.675085 34.127496 
L 75.675085 31.817269 
L 72.519808 32.892469 
L 69.651374 34.100559 
L 69.364531 34.236469 
L 69.364531 31.316745 
L 66.782941 32.375546 
L 66.496097 32.508469 
L 66.496097 29.143416 
L 63.914507 30.084111 
L 61.61976 31.161215 
L 59.611856 32.375546 
L 57.890796 33.710556 
L 56.456579 35.121542 
L 55.309206 36.524901 
L 54.735519 37.346869 
L 54.735519 29.967292 
L 53.588145 31.010869 
L 52.440772 32.375546 
L 51.580242 33.710556 
L 50.719712 35.446069 
L 49.859181 37.794116 
L 49.572338 38.772469 
L 49.572338 22.140469 
L 45.269688 22.140469 
L 45.269688 22.140469 
" clip-path="url(#p5d215b004c)" style="fill: none; stroke: #ff0000; stroke-width: 1.5; stroke-linecap: square"/>
   </g>
   <g id="line2d_14">
    <defs>
     <path id="m51126bcd65" d="M 0 3 
C 0.795609 3 1.55874 2.683901 2.12132 2.12132 
C 2.683901 1.55874 3 0.795609 3 0 
C 3 -0.795609 2.683901 -1.55874 2.12132 -2.12132 
C 1.55874 -2.683901 0.795609 -3 0 -3 
C -0.795609 -3 -1.55874 -2.683901 -2.12132 -2.12132 
C -2.683901 -1.55874 -3 -0.795609 -3 0 
C -3 0.795609 -2.683901 1.55874 -2.12132 2.12132 
C -1.55874 2.683901 -0.795609 3 0 3 
z
" style="stroke: #000000"/>
    </defs>
    <g clip-path="url(#p5d215b004c)">
     <use xlink:href="#m51126bcd65" x="374.56588" y="78.864822" style="fill: #ff0000; stroke: #000000"/>
    </g>
   </g>
   <g id="line2d_15">
    <path d="M 45.269688 108.19299 
L 402.389688 108.19299 
" clip-path="url(#p5d215b004c)" style="fill: none; stroke: #00bfbf; stroke-width: 1.5; stroke-linecap: square"/>
   </g>
   <g id="patch_4">
    <path d="M 45.269688 288.252469 
L 45.269688 22.140469 
" style="fill: none; stroke: #000000; stroke-width: 0.8; stroke-linejoin: miter; stroke-linecap: square"/>
   </g>
   <g id="patch_5">
    <path d="M 402.389688 288.252469 
L 402.389688 22.140469 
" style="fill: none; stroke: #000000; stroke-width: 0.8; stroke-linejoin: miter; stroke-linecap: square"/>
   </g>
   <g id="patch_6">
    <path d="M 45.269688 288.252469 
L 402.389688 288.252469 
" style="fill: none; stroke: #000000; stroke-width: 0.8; stroke-linejoin: miter; stroke-linecap: square"/>
   </g>
   <g id="patch_7">
    <path d="M 45.269688 22.140469 
L 402.389688 22.140469 
" style="fill: none; stroke: #000000; stroke-width: 0.8; stroke-linejoin: miter; stroke-linecap: square"/>
   </g>
   <g id="text_15">
    <text style="font: 5px 'Arial'" transform="translate(201.642969 10.778906)">t-SNE AP-SP model</text>
    <text style="font: 5px 'Arial'" transform="translate(191.739844 16.140469)">Precision - Recall (PR) curve</text>
   </g>
   <g id="legend_1">
    <g id="patch_8">
     <path d="M 163.116406 352.667056 
L 284.542969 352.667056 
Q 285.542969 352.667056 285.542969 351.667056 
L 285.542969 344.974869 
Q 285.542969 343.974869 284.542969 343.974869 
L 163.116406 343.974869 
Q 162.116406 343.974869 162.116406 344.974869 
L 162.116406 351.667056 
Q 162.116406 352.667056 163.116406 352.667056 
z
" style="fill: #ffffff; opacity: 0.8; stroke: #cccccc; stroke-linejoin: miter"/>
    </g>
    <g id="line2d_16">
     <path d="M 164.116406 347.864712 
L 169.116406 347.864712 
L 174.116406 347.864712 
" style="fill: none; stroke: #ff0000; stroke-width: 1.5; stroke-linecap: square"/>
    </g>
    <g id="text_16">
     <text style="font: 5px 'Arial'; text-anchor: start" x="178.116406" y="349.614712" transform="rotate(-0 178.116406 349.614712)">model performance</text>
    </g>
    <g id="line2d_17">
     <path d="M 231.189063 347.864712 
L 236.189063 347.864712 
L 241.189063 347.864712 
" style="fill: none; stroke: #00bfbf; stroke-width: 1.5; stroke-linecap: square"/>
    </g>
    <g id="text_17">
     <text style="font: 5px 'Arial'; text-anchor: start" x="245.189063" y="349.614712" transform="rotate(-0 245.189063 349.614712)">random guessing</text>
    </g>
   </g>
  </g>
 </g>
 <defs>
  <clipPath id="p5d215b004c">
   <rect x="45.269688" y="22.140469" width="357.12" height="266.112"/>
  </clipPath>
 </defs>
</svg>
